<svg width="1562" height="990" viewBox="0 0 1562 990" fill="none" xmlns="http://www.w3.org/2000/svg">
<g clip-path="url(#clip0_688_436)">
<rect width="1562" height="990" fill="#BAD5DB"/>
<path d="M152.466 895.329C177.741 816.339 242.451 826.847 284.867 875.251C361.627 840.749 492.932 890.626 487.405 989.283L-53.9998 988.592C-31.6358 895.849 85.4185 851.123 152.466 895.329Z" fill="#B3B2E5"/>
<path d="M618.457 903.054C643.725 829.748 708.436 839.506 750.856 884.433C827.613 852.419 958.923 898.722 953.405 990.283L412 989.592C434.355 903.52 551.406 862.022 618.457 903.054Z" fill="#B3B2E5"/>
<path d="M1108.46 901.054C1133.73 827.748 1198.44 837.506 1240.86 882.433C1317.61 850.419 1448.92 896.722 1443.4 988.283L902 987.592C924.355 901.52 1041.41 860.022 1108.46 901.054Z" fill="#B3B2E5"/>
<path d="M1583.46 903.054C1608.73 829.748 1673.44 839.506 1715.86 884.433C1792.61 852.419 1923.92 898.722 1918.4 990.283L1377 989.592C1399.36 903.52 1516.41 862.022 1583.46 903.054Z" fill="#B3B2E5"/>
<rect x="448" width="1114" height="988" fill="#F6F6F9"/>
</g>
<defs>
<clipPath id="clip0_688_436">
<rect width="1562" height="990" fill="white"/>
</clipPath>
</defs>
</svg>
