<svg width="23" height="22" viewBox="0 0 23 22" fill="none" xmlns="http://www.w3.org/2000/svg">
<path d="M15.5717 13.6262C15.1812 13.2357 14.548 13.2357 14.1575 13.6262C13.767 14.0168 13.767 14.6499 14.1575 15.0404L15.5717 13.6262ZM20.8241 21.7071C21.2147 22.0976 21.8478 22.0976 22.2384 21.7071C22.6289 21.3166 22.6289 20.6834 22.2384 20.2929L20.8241 21.7071ZM9.30903 15.5556C5.56576 15.5556 2.53125 12.521 2.53125 8.77778H0.53125C0.53125 13.6256 4.4612 17.5556 9.30903 17.5556V15.5556ZM2.53125 8.77778C2.53125 5.03451 5.56576 2 9.30903 2V0C4.4612 0 0.53125 3.92995 0.53125 8.77778H2.53125ZM9.30903 2C13.0523 2 16.0868 5.03451 16.0868 8.77778H18.0868C18.0868 3.92995 14.1569 0 9.30903 0V2ZM16.0868 8.77778C16.0868 12.521 13.0523 15.5556 9.30903 15.5556V17.5556C14.1569 17.5556 18.0868 13.6256 18.0868 8.77778H16.0868ZM14.1575 15.0404L20.8241 21.7071L22.2384 20.2929L15.5717 13.6262L14.1575 15.0404Z" fill="black"/>
</svg>
