<svg width="39" height="26" viewBox="0 0 39 26" fill="none" xmlns="http://www.w3.org/2000/svg">
<path d="M14.1465 1H29.7499C30.3022 1 30.7499 1.44771 30.7499 2V23.3333C30.7499 23.8856 30.3022 24.3333 29.7499 24.3333H14.1465C13.5942 24.3333 13.1465 23.8856 13.1465 23.3333V2C13.1465 1.44772 13.5942 1 14.1465 1Z" stroke="black" stroke-width="2"/>
<path d="M6.07422 1H21.6777C22.2299 1 22.6777 1.44771 22.6777 2V23.3333C22.6777 23.8856 22.2299 24.3333 21.6777 24.3333H6.07422C5.52193 24.3333 5.07422 23.8856 5.07422 23.3333V2C5.07422 1.44772 5.52193 1 6.07422 1Z" fill="white" stroke="black" stroke-width="2"/>
<path d="M1.53468 8.22759L4.72589 1.00006L22.023 1.00006L18.2274 8.22758L1.53468 8.22759Z" stroke="black" stroke-width="2"/>
<path d="M28.755 8.49999L23.7795 1L31.0013 0.999999L36.2038 8.49999L28.755 8.49999Z" fill="white" stroke="black" stroke-width="2"/>
<path d="M16.6761 12.8674C17.2874 13.7091 17.3108 15.0635 16.7293 15.9443L13.8153 20.3571L10.9017 15.9443C10.3201 15.0635 10.3435 13.7091 10.9549 12.8675C11.6374 11.9277 12.7616 12.0134 13.3646 13.0513L13.8155 13.8268L14.2659 13.0512C14.8689 12.0134 15.9935 11.9277 16.6761 12.8674Z" stroke="black" stroke-width="1.5" stroke-linecap="round" stroke-linejoin="round"/>
</svg>
