<svg width="1730" height="1080" viewBox="0 0 1730 1080" fill="none" xmlns="http://www.w3.org/2000/svg">
<path d="M1813 0H-107V895H1813V0Z" fill="#BAD5DB"/>
<path d="M1839 0H1449.59C1442.73 7.74838 1436.68 15.8945 1431.59 24.0987C1402.52 71.0282 1385.81 126.41 1336.06 159.343C1290.95 189.21 1229.5 193.254 1173.79 205.842C1048.95 234.051 942.37 312.968 894.53 412.603C865.839 472.361 853.729 543.016 793.209 583.275C754.318 609.147 701.998 616.953 652.137 616.249C602.277 615.545 553.006 607.266 503.236 604.846C372.684 598.506 239.803 634.356 138.772 703.163C65.1309 753.317 8.95034 820.616 -23 895H1839V0Z" fill="url(#paint0_linear_59_212)"/>
<path d="M1443.34 712.367C1477.2 720.901 1540.05 725.069 1578.71 724.734C1622.29 724.355 1661.9 708.446 1677.52 688.921C1693.13 669.396 1687.47 647.265 1669.99 628.435C1652.52 609.605 1624.16 593.628 1594.03 578.944C1532.63 549.024 1461.23 523.014 1379.09 507.784C1296.95 492.554 1203.27 488.731 1118.62 502.332C1040.04 514.959 972.01 542.595 933.309 577.619C889.78 617.008 885.34 666.798 932.65 704.262C979.961 741.727 1081.94 763.012 1170.64 749.329C1227.14 740.613 1256.72 727.043 1306.94 712.719C1355.41 698.885 1394.53 700.064 1443.34 712.367Z" fill="white"/>
<path d="M186.742 168.443C186.742 170.136 185.371 171.507 183.678 171.507C181.984 171.507 180.613 170.136 180.613 168.443C180.613 166.75 181.984 165.379 183.678 165.379C185.371 165.379 186.742 166.75 186.742 168.443Z" fill="white" fill-opacity="0.5"/>
<path d="M265.742 593.792C265.742 595.055 264.721 596.05 263.484 596.05C262.221 596.05 261.227 595.029 261.227 593.792C261.227 592.529 262.248 591.534 263.484 591.534C264.748 591.534 265.742 592.556 265.742 593.792Z" fill="white" fill-opacity="0.5"/>
<path d="M585.094 552.114C585.094 553.378 584.072 554.372 582.836 554.372C581.572 554.372 580.578 553.351 580.578 552.114C580.578 550.851 581.599 549.856 582.836 549.856C584.099 549.856 585.094 550.878 585.094 552.114Z" fill="white" fill-opacity="0.5"/>
<path d="M580.516 269.258C580.516 270.521 579.494 271.516 578.258 271.516C576.995 271.516 576 270.494 576 269.258C576 267.995 577.021 267 578.258 267C579.521 267 580.516 268.021 580.516 269.258Z" fill="white" fill-opacity="0.5"/>
<path d="M649.643 80.9217C650.583 81.7012 650.745 83.1258 649.992 84.1204C649.239 85.0881 647.842 85.2493 646.901 84.4698C645.96 83.6903 645.799 82.2657 646.551 81.2711C647.331 80.3034 648.702 80.1421 649.643 80.9217Z" fill="white" fill-opacity="0.5"/>
<path d="M465.566 220.494C466.507 221.274 466.668 222.699 465.915 223.693C465.163 224.661 463.765 224.822 462.824 224.043C461.883 223.263 461.722 221.838 462.475 220.844C463.254 219.876 464.625 219.715 465.566 220.494Z" fill="white" fill-opacity="0.5"/>
<path d="M201.472 186.721C201.472 189.84 198.946 192.393 195.801 192.393C192.683 192.393 190.129 189.866 190.129 186.721C190.129 183.577 192.656 181.05 195.801 181.05C198.946 181.05 201.472 183.577 201.472 186.721Z" fill="white" fill-opacity="0.5"/>
<path d="M505.343 205.672C505.343 208.79 502.817 211.343 499.672 211.343C496.554 211.343 494 208.817 494 205.672C494 202.527 496.527 200 499.672 200C502.817 200 505.343 202.527 505.343 205.672Z" fill="white" fill-opacity="0.5"/>
<path d="M712.085 297.198C712.085 300.316 709.558 302.87 706.413 302.87C703.295 302.87 700.742 300.343 700.742 297.198C700.742 294.08 703.268 291.526 706.413 291.526C709.531 291.526 712.085 294.053 712.085 297.198Z" fill="white" fill-opacity="0.5"/>
<path d="M373.343 523.672C373.343 526.79 370.817 529.343 367.672 529.343C364.554 529.343 362 526.817 362 523.672C362 520.554 364.527 518 367.672 518C370.79 518 373.343 520.527 373.343 523.672Z" fill="white" fill-opacity="0.5"/>
<path d="M59.3433 537.672C59.3433 540.79 56.8166 543.343 53.6716 543.343C50.5536 543.343 48 540.817 48 537.672C48 534.554 50.5267 532 53.6716 532C56.7897 532 59.3433 534.527 59.3433 537.672Z" fill="white" fill-opacity="0.5"/>
<path d="M198.865 479.256C198.865 480.95 197.494 482.321 195.801 482.321C194.107 482.321 192.736 480.95 192.736 479.256C192.736 477.563 194.107 476.192 195.801 476.192C197.494 476.192 198.865 477.563 198.865 479.256Z" fill="white" fill-opacity="0.5"/>
<path d="M705.707 531.921C705.707 533.614 704.336 534.985 702.642 534.985C700.949 534.985 699.578 533.614 699.578 531.921C699.578 530.227 700.949 528.856 702.642 528.856C704.336 528.856 705.707 530.227 705.707 531.921Z" fill="white" fill-opacity="0.5"/>
<path d="M1088.13 981.064C1088.13 982.758 1086.76 984.129 1085.06 984.129C1083.37 984.129 1082 982.758 1082 981.064C1082 979.371 1083.37 978 1085.06 978C1086.76 978 1088.13 979.371 1088.13 981.064Z" fill="white" fill-opacity="0.5"/>
<path d="M633.972 84.9537C633.972 86.6472 632.601 88.0181 630.907 88.0181C629.214 88.0181 627.843 86.6472 627.843 84.9537C627.843 83.2603 629.214 81.8894 630.907 81.8894C632.601 81.9163 633.972 83.2872 633.972 84.9537Z" fill="white" fill-opacity="0.5"/>
<path d="M481.589 466.918C481.589 468.209 480.541 469.257 479.25 469.257C477.96 469.257 476.912 468.209 476.912 466.918C476.912 465.628 477.96 464.58 479.25 464.58C480.541 464.58 481.589 465.628 481.589 466.918Z" fill="white" fill-opacity="0.5"/>
<path d="M447.371 516.297C446.08 516.297 445.032 515.249 445.032 513.958C445.032 512.668 446.08 511.62 447.371 511.62C448.661 511.62 449.709 512.668 449.709 513.958C449.709 515.249 448.661 516.297 447.371 516.297Z" fill="white" fill-opacity="0.5"/>
<path d="M328.478 380.404C329.175 380.404 329.741 379.838 329.741 379.141C329.741 378.443 329.175 377.877 328.478 377.877C327.78 377.877 327.214 378.443 327.214 379.141C327.214 379.838 327.78 380.404 328.478 380.404Z" fill="white" fill-opacity="0.5"/>
<path d="M122.419 615.263C122.419 615.962 121.882 616.527 121.21 616.527C120.538 616.527 120 615.962 120 615.263C120 614.564 120.538 614 121.21 614C121.882 614 122.419 614.564 122.419 615.263Z" fill="white" fill-opacity="0.5"/>
<path d="M999.419 986.263C999.419 986.962 998.882 987.527 998.21 987.527C997.538 987.527 997 986.962 997 986.263C997 985.564 997.538 985 998.21 985C998.882 985 999.419 985.564 999.419 986.263Z" fill="white" fill-opacity="0.5"/>
<path d="M798.692 917.777C799.66 918.556 799.821 919.981 799.042 920.975C798.262 921.943 796.838 922.104 795.843 921.325C794.875 920.545 794.714 919.121 795.494 918.126C796.273 917.132 797.698 916.97 798.692 917.777Z" fill="white" fill-opacity="0.5"/>
<path d="M350.737 572.611C351.705 573.39 351.866 574.815 351.086 575.809C350.307 576.777 348.882 576.938 347.888 576.159C346.92 575.379 346.759 573.955 347.538 572.96C348.345 571.965 349.769 571.831 350.737 572.611Z" fill="white" fill-opacity="0.5"/>
<path d="M325.693 225.503C326.661 226.282 326.822 227.707 326.043 228.702C325.263 229.669 323.838 229.831 322.844 229.051C321.876 228.272 321.715 226.847 322.494 225.852C323.301 224.858 324.725 224.723 325.693 225.503Z" fill="white" fill-opacity="0.5"/>
<path d="M1158.27 84.9537C1158.27 86.2171 1157.24 87.2386 1155.98 87.2386C1154.72 87.2386 1153.7 86.2171 1153.7 84.9537C1153.7 83.6904 1154.72 82.6689 1155.98 82.6689C1157.24 82.6689 1158.27 83.6904 1158.27 84.9537Z" fill="white" fill-opacity="0.5"/>
<path d="M151.527 307.263C151.527 307.962 150.962 308.527 150.263 308.527C149.564 308.527 149 307.962 149 307.263C149 306.564 149.564 306 150.263 306C150.962 306 151.527 306.564 151.527 307.263Z" fill="white" fill-opacity="0.5"/>
<path d="M487.93 548.189C488.199 548.834 487.903 549.56 487.258 549.829C486.613 550.097 485.887 549.802 485.618 549.157C485.349 548.511 485.645 547.786 486.29 547.517C486.935 547.248 487.661 547.544 487.93 548.189Z" fill="white" fill-opacity="0.5"/>
<path d="M914.129 267.064C914.129 268.758 912.758 270.129 911.064 270.129C909.371 270.129 908 268.758 908 267.064C908 265.371 909.371 264 911.064 264C912.758 264 914.129 265.371 914.129 267.064Z" fill="white" fill-opacity="0.5"/>
<path d="M955.129 47.0643C955.129 48.7578 953.758 50.1286 952.064 50.1286C950.371 50.1286 949 48.7578 949 47.0643C949 45.3709 950.371 44 952.064 44C953.758 44 955.129 45.3709 955.129 47.0643Z" fill="white" fill-opacity="0.5"/>
<path d="M59.1287 240.064C59.1287 241.758 57.7578 243.129 56.0644 243.129C54.3709 243.129 53 241.758 53 240.064C53 238.371 54.3709 237 56.0644 237C57.7578 237 59.1287 238.371 59.1287 240.064Z" fill="white" fill-opacity="0.5"/>
<path d="M768.343 173.672C768.343 176.79 765.817 179.343 762.672 179.343C759.554 179.343 757 176.817 757 173.672C757 170.554 759.527 168 762.672 168C765.817 168 768.343 170.554 768.343 173.672Z" fill="white" fill-opacity="0.5"/>
<path fill-rule="evenodd" clip-rule="evenodd" d="M1479.39 44.9093C1480.04 41.2493 1482.65 37.6693 1486.32 37.0793C1488.73 36.6993 1491.22 37.6593 1493.08 39.2493C1495.63 41.4293 1497.14 44.8193 1496.93 48.1693C1496.57 54.1393 1491.13 58.3793 1485.27 57.5393C1479.39 56.6993 1478.5 49.8893 1479.39 44.9093ZM1606.34 38.7453C1602.64 39.2615 1600.39 42.5908 1600.06 46.1462C1599.64 50.9414 1600.89 57.8329 1607.05 59.0816C1613.2 60.3203 1618.81 56.0374 1618.62 49.9188C1618.53 46.4985 1616.55 43.1017 1613.63 40.9459C1611.49 39.3714 1608.78 38.4113 1606.34 38.7453ZM1628.85 75.0082C1622.15 71.5037 1614.39 70.7441 1607.11 70.9052C1602.87 71.0113 1598.63 71.4449 1594.93 73.0142C1591.25 74.6021 1588.12 77.4474 1587.07 81.3347C1585.47 87.2131 1588.78 93.9409 1592.66 99.3907C1597.21 105.769 1602.66 111.539 1608.95 116.201C1613.14 119.3 1618.08 122.054 1623.48 121.544C1635.58 120.43 1641.72 110.422 1642 100.098C1642.37 89.7254 1637.01 79.2383 1628.85 75.0082ZM1336.39 173.909C1337.04 170.249 1339.65 166.669 1343.32 166.079C1345.73 165.699 1348.22 166.659 1350.08 168.249C1352.63 170.429 1354.14 173.819 1353.93 177.169C1353.57 183.139 1348.13 187.379 1342.27 186.539C1336.39 185.699 1335.5 178.889 1336.39 173.909ZM1457.06 175.146C1457.39 171.591 1459.64 168.261 1463.34 167.745C1465.78 167.411 1468.49 168.371 1470.63 169.946C1473.55 172.102 1475.53 175.499 1475.62 178.919C1475.81 185.037 1470.2 189.32 1464.05 188.082C1457.89 186.833 1456.64 179.941 1457.06 175.146ZM1464.11 199.905C1471.39 199.744 1479.15 200.504 1485.85 204.008C1494.01 208.238 1499.37 218.725 1499 229.098C1498.72 239.422 1492.58 249.43 1480.48 250.544C1475.08 251.054 1470.14 248.3 1465.95 245.201C1459.66 240.539 1454.21 234.769 1449.66 228.391C1445.78 222.941 1442.47 216.213 1444.07 210.335C1445.12 206.447 1448.25 203.602 1451.93 202.014C1455.63 200.445 1459.87 200.011 1464.11 199.905ZM823.319 599.079C819.65 599.669 817.04 603.249 816.39 606.909C815.5 611.889 816.39 618.699 822.27 619.539C828.13 620.379 833.569 616.139 833.929 610.169C834.14 606.819 832.63 603.429 830.079 601.249C828.219 599.659 825.729 598.699 823.319 599.079ZM937.064 608.146C937.391 604.591 939.643 601.261 943.34 600.745C945.776 600.411 948.49 601.371 950.629 602.946C953.552 605.102 955.525 608.499 955.624 611.919C955.812 618.037 950.198 622.32 944.051 621.082C937.886 619.833 936.644 612.941 937.064 608.146ZM944.112 632.905C951.394 632.744 959.147 633.504 965.854 637.008C974.013 641.238 979.367 651.725 978.997 662.098C978.725 672.422 972.579 682.43 960.48 683.544C955.077 684.054 950.143 681.3 945.952 678.201C939.661 673.539 934.21 667.769 929.665 661.391C925.784 655.941 922.47 649.213 924.073 643.335C925.123 639.447 928.251 636.602 931.933 635.014C935.628 633.445 939.866 633.011 944.112 632.905ZM587.319 649.079C583.65 649.669 581.04 653.249 580.39 656.909C579.5 661.889 580.39 668.699 586.27 669.539C592.13 670.379 597.569 666.139 597.929 660.169C598.14 656.819 596.63 653.429 594.079 651.249C592.219 649.659 589.729 648.699 587.319 649.079ZM701.064 658.146C701.391 654.591 703.643 651.261 707.34 650.745C709.776 650.411 712.49 651.371 714.629 652.946C717.552 655.102 719.525 658.499 719.624 661.919C719.812 668.037 714.198 672.32 708.051 671.082C701.886 669.833 700.644 662.941 701.064 658.146ZM338.319 682.079C334.65 682.669 332.04 686.249 331.39 689.909C330.5 694.889 331.39 701.699 337.27 702.539C343.13 703.379 348.569 699.139 348.929 693.169C349.14 689.819 347.63 686.429 345.079 684.249C343.219 682.659 340.729 681.699 338.319 682.079ZM452.064 691.146C452.391 687.591 454.643 684.261 458.34 683.745C460.776 683.411 463.49 684.371 465.629 685.946C468.552 688.102 470.525 691.499 470.624 694.919C470.812 701.037 465.198 705.32 459.051 704.082C452.886 702.833 451.644 695.941 452.064 691.146ZM459.112 715.905C466.394 715.744 474.147 716.504 480.854 720.008C489.013 724.238 494.367 734.725 493.997 745.098C493.725 755.422 487.579 765.43 475.48 766.544C470.077 767.054 465.143 764.3 460.952 761.201C454.661 756.539 449.21 750.769 444.665 744.391C440.784 738.941 437.47 732.213 439.073 726.335C440.123 722.447 443.251 719.602 446.933 718.014C450.628 716.445 454.866 716.011 459.112 715.905ZM103.32 764.079C99.6495 764.669 97.0395 768.249 96.3895 771.909C95.4995 776.889 96.3895 783.699 102.269 784.539C108.13 785.379 113.569 781.139 113.929 775.169C114.14 771.819 112.63 768.429 110.079 766.249C108.219 764.659 105.73 763.699 103.32 764.079ZM217.064 773.146C217.391 769.591 219.643 766.261 223.34 765.745C225.776 765.411 228.49 766.371 230.629 767.946C233.552 770.102 235.525 773.499 235.624 776.919C235.812 783.037 230.198 787.32 224.051 786.082C217.886 784.833 216.644 777.941 217.064 773.146ZM245.854 802.008C239.147 798.504 231.394 797.744 224.112 797.905C219.866 798.011 215.628 798.445 211.933 800.014C208.251 801.602 205.123 804.447 204.073 808.335C202.47 814.213 205.784 820.941 209.665 826.391C214.21 832.769 219.661 838.539 225.952 843.201C230.143 846.3 235.077 849.054 240.48 848.544C252.579 847.43 258.725 837.422 258.997 827.098C259.367 816.725 254.013 806.238 245.854 802.008ZM246.252 786.66C245.058 783.136 246.068 779.318 248.009 776.328C250.259 772.963 254.568 767.52 259.49 769.019C265.676 770.869 266.984 778.365 264.132 783.428C262.522 786.286 259.875 788.462 256.985 789.977C254.838 791.091 252.281 791.874 250.028 790.974C248.201 790.239 246.883 788.504 246.252 786.66ZM266.168 805.526C267.714 809.161 272.006 811.128 276.001 810.217C279.882 809.323 283.575 805.164 284.943 800.848C286.342 796.538 285.404 792.193 280.61 790.872C272.916 788.852 262.714 797.365 266.168 805.526ZM286.587 830.104C286.062 833.544 283.27 836.608 278.524 835.823C273.202 834.935 271.509 830.776 272.289 827.275C273.071 823.752 276.327 820.785 281.35 821.95C285.36 822.887 287.109 826.651 286.587 830.104ZM122.48 799.079C116.28 795.889 109.01 795.389 102.079 796.129C98.0395 796.559 93.9695 797.409 90.4495 799.429C86.9295 801.449 83.9995 804.779 83.2195 808.759C82.0295 814.809 85.8695 820.679 90.1195 825.159C95.0995 830.399 100.909 834.829 107.28 838.239C111.53 840.509 116.339 842.369 121.069 841.469C142.14 837.469 137.569 806.859 122.48 799.079ZM125.689 774.859C123.579 777.639 122.349 781.299 123.28 784.659C123.77 786.419 124.92 788.069 126.589 788.789C128.65 789.679 131.05 789.019 133.079 788.069C135.819 786.789 138.37 784.949 140.059 782.439C143.01 778.049 142.65 771.019 137.179 768.669C132.819 766.799 128.089 771.709 125.689 774.859ZM149.969 807.259C146.42 807.819 142.49 805.929 141.099 802.609C137.939 795.089 147.76 787.919 154.579 790.619C163.089 793.979 156.939 806.159 149.969 807.259ZM153.319 829.469C161.77 831.079 162.199 819.799 155.02 817.739C146.01 815.149 143.799 827.659 153.319 829.469ZM481.252 704.66C480.058 701.136 481.068 697.318 483.009 694.328C485.259 690.963 489.568 685.52 494.49 687.019C500.676 688.869 501.984 696.365 499.132 701.428C497.522 704.286 494.875 706.462 491.985 707.977C489.838 709.091 487.281 709.874 485.028 708.974C483.201 708.239 481.883 706.504 481.252 704.66ZM501.168 723.526C502.714 727.161 507.006 729.128 511.001 728.217C514.882 727.323 518.575 723.164 519.943 718.848C521.342 714.538 520.404 710.193 515.61 708.872C507.916 706.852 497.714 715.365 501.168 723.526ZM521.587 748.104C521.062 751.544 518.27 754.608 513.524 753.823C508.202 752.935 506.509 748.776 507.289 745.275C508.071 741.752 511.327 738.785 516.35 739.95C520.36 740.887 522.109 744.651 521.587 748.104ZM357.479 717.079C351.28 713.889 344.01 713.389 337.079 714.129C333.04 714.559 328.969 715.409 325.449 717.429C321.929 719.449 319 722.779 318.219 726.759C317.03 732.809 320.87 738.679 325.12 743.159C330.1 748.399 335.91 752.829 342.28 756.239C346.53 758.509 351.339 760.369 356.069 759.469C377.14 755.469 372.569 724.859 357.479 717.079ZM360.689 692.859C358.579 695.639 357.349 699.299 358.28 702.659C358.77 704.419 359.92 706.069 361.589 706.789C363.65 707.679 366.05 707.019 368.079 706.069C370.819 704.789 373.37 702.949 375.059 700.439C378.01 696.049 377.65 689.019 372.179 686.669C367.819 684.799 363.089 689.709 360.689 692.859ZM384.969 725.259C381.42 725.819 377.49 723.929 376.099 720.609C372.939 713.089 382.76 705.919 389.579 708.619C398.089 711.979 391.939 724.159 384.969 725.259ZM388.319 747.469C396.77 749.079 397.199 737.799 390.02 735.739C381.01 733.149 378.799 745.659 388.319 747.469ZM491.112 831.905C498.394 831.744 506.147 832.504 512.854 836.008C521.013 840.238 526.367 850.725 525.997 861.098C525.725 871.422 519.579 881.43 507.48 882.544C502.077 883.054 497.143 880.3 492.952 877.201C486.661 872.539 481.21 866.769 476.665 860.391C472.784 854.941 469.47 848.213 471.073 842.335C472.123 838.447 475.251 835.602 478.933 834.014C482.628 832.445 486.866 832.011 491.112 831.905ZM484.064 807.146C484.391 803.591 486.643 800.261 490.34 799.745C492.776 799.411 495.49 800.371 497.629 801.946C500.552 804.102 502.525 807.499 502.624 810.919C502.812 817.037 497.198 821.32 491.051 820.082C484.886 818.833 483.644 811.941 484.064 807.146ZM513.252 820.66C512.058 817.136 513.068 813.318 515.009 810.328C517.259 806.963 521.568 801.52 526.49 803.019C532.676 804.869 533.984 812.365 531.132 817.428C529.522 820.286 526.875 822.462 523.985 823.977C521.838 825.091 519.281 825.874 517.028 824.974C515.201 824.239 513.883 822.504 513.252 820.66ZM533.168 839.526C534.714 843.161 539.006 845.128 543.001 844.217C546.882 843.323 550.575 839.164 551.943 834.848C553.342 830.538 552.404 826.193 547.61 824.872C539.916 822.852 529.714 831.365 533.168 839.526ZM553.587 864.104C553.062 867.544 550.27 870.608 545.524 869.823C540.202 868.935 538.509 864.776 539.289 861.275C540.071 857.752 543.327 854.785 548.35 855.95C552.36 856.887 554.109 860.651 553.587 864.104ZM389.479 833.079C383.28 829.889 376.01 829.389 369.079 830.129C365.04 830.559 360.969 831.409 357.449 833.429C353.929 835.449 351 838.779 350.219 842.759C349.03 848.809 352.87 854.679 357.12 859.159C362.099 864.399 367.91 868.829 374.28 872.239C378.53 874.509 383.339 876.369 388.069 875.469C409.14 871.469 404.569 840.859 389.479 833.079ZM370.319 798.079C366.65 798.669 364.04 802.249 363.39 805.909C362.5 810.889 363.39 817.699 369.27 818.539C375.13 819.379 380.569 815.139 380.929 809.169C381.14 805.819 379.63 802.429 377.079 800.249C375.219 798.659 372.729 797.699 370.319 798.079ZM392.689 808.859C390.579 811.639 389.349 815.299 390.28 818.659C390.77 820.419 391.92 822.069 393.589 822.789C395.65 823.679 398.05 823.019 400.079 822.069C402.819 820.789 405.37 818.949 407.059 816.439C410.01 812.049 409.65 805.019 404.179 802.669C399.819 800.799 395.089 805.709 392.689 808.859ZM416.969 841.259C413.42 841.819 409.49 839.929 408.099 836.609C404.939 829.089 414.76 821.919 421.579 824.619C430.089 827.979 423.939 840.159 416.969 841.259ZM420.319 863.469C428.77 865.079 429.199 853.799 422.02 851.739C413.01 849.149 410.799 861.659 420.319 863.469ZM708.112 682.905C715.394 682.744 723.147 683.504 729.854 687.008C738.013 691.238 743.367 701.725 742.997 712.098C742.725 722.422 736.579 732.43 724.48 733.544C719.077 734.054 714.143 731.3 709.952 728.201C703.661 723.539 698.21 717.769 693.665 711.391C689.784 705.941 686.47 699.213 688.073 693.335C689.123 689.447 692.251 686.602 695.933 685.014C699.628 683.445 703.866 683.011 708.112 682.905ZM730.252 671.66C729.058 668.136 730.068 664.318 732.009 661.328C734.259 657.963 738.568 652.52 743.49 654.019C749.676 655.869 750.984 663.365 748.132 668.428C746.522 671.286 743.875 673.462 740.985 674.977C738.838 676.091 736.281 676.874 734.028 675.974C732.201 675.239 730.883 673.504 730.252 671.66ZM750.168 690.526C751.714 694.161 756.006 696.128 760.001 695.217C763.882 694.323 767.575 690.164 768.943 685.848C770.342 681.538 769.404 677.193 764.61 675.872C756.916 673.852 746.714 682.365 750.168 690.526ZM770.587 715.104C770.062 718.544 767.27 721.608 762.524 720.823C757.202 719.935 755.509 715.776 756.289 712.275C757.071 708.752 760.327 705.785 765.35 706.95C769.36 707.887 771.109 711.651 770.587 715.104ZM606.479 684.079C600.28 680.889 593.01 680.389 586.079 681.129C582.04 681.559 577.969 682.409 574.449 684.429C570.929 686.449 568 689.779 567.219 693.759C566.03 699.809 569.87 705.679 574.12 710.159C579.099 715.399 584.91 719.829 591.28 723.239C595.53 725.509 600.339 727.369 605.069 726.469C626.14 722.469 621.569 691.859 606.479 684.079ZM609.689 659.859C607.579 662.639 606.349 666.299 607.28 669.659C607.77 671.419 608.92 673.069 610.589 673.789C612.65 674.679 615.05 674.019 617.079 673.069C619.819 671.789 622.37 669.949 624.059 667.439C627.01 663.049 626.65 656.019 621.179 653.669C616.819 651.799 612.089 656.709 609.689 659.859ZM633.969 692.259C630.42 692.819 626.49 690.929 625.099 687.609C621.939 680.089 631.76 672.919 638.579 675.619C647.089 678.979 640.939 691.159 633.969 692.259ZM637.319 714.469C645.77 716.079 646.199 704.799 639.02 702.739C630.01 700.149 627.799 712.659 637.319 714.469ZM752.112 822.905C759.394 822.744 767.147 823.504 773.854 827.008C782.013 831.238 787.367 841.725 786.997 852.098C786.725 862.422 780.579 872.43 768.48 873.544C763.077 874.054 758.143 871.3 753.952 868.201C747.661 863.539 742.21 857.769 737.665 851.391C733.784 845.941 730.47 839.213 732.073 833.335C733.123 829.447 736.251 826.602 739.933 825.014C743.628 823.445 747.866 823.011 752.112 822.905ZM745.064 798.146C745.391 794.591 747.643 791.261 751.34 790.745C753.776 790.411 756.49 791.371 758.629 792.946C761.552 795.102 763.525 798.499 763.624 801.919C763.812 808.037 758.198 812.32 752.051 811.082C745.886 809.833 744.644 802.941 745.064 798.146ZM774.252 811.66C773.058 808.136 774.068 804.318 776.009 801.328C778.259 797.963 782.568 792.52 787.49 794.019C793.676 795.869 794.984 803.365 792.132 808.428C790.522 811.286 787.875 813.462 784.985 814.977C782.838 816.091 780.281 816.874 778.028 815.974C776.201 815.239 774.883 813.504 774.252 811.66ZM794.168 830.526C795.714 834.161 800.006 836.128 804.001 835.217C807.882 834.323 811.575 830.164 812.943 825.848C814.342 821.538 813.404 817.193 808.61 815.872C800.916 813.852 790.714 822.365 794.168 830.526ZM814.587 855.104C814.062 858.544 811.27 861.608 806.524 860.823C801.202 859.935 799.509 855.776 800.289 852.275C801.071 848.752 804.327 845.785 809.35 846.95C813.36 847.887 815.109 851.651 814.587 855.104ZM650.479 824.079C644.28 820.889 637.01 820.389 630.079 821.129C626.04 821.559 621.969 822.409 618.449 824.429C614.929 826.449 612 829.779 611.219 833.759C610.03 839.809 613.87 845.679 618.12 850.159C623.099 855.399 628.91 859.829 635.28 863.239C639.53 865.509 644.339 867.369 649.069 866.469C670.14 862.469 665.569 831.859 650.479 824.079ZM631.319 789.079C627.65 789.669 625.04 793.249 624.39 796.909C623.5 801.889 624.39 808.699 630.27 809.539C636.13 810.379 641.569 806.139 641.929 800.169C642.14 796.819 640.63 793.429 638.079 791.249C636.219 789.659 633.729 788.699 631.319 789.079ZM653.689 799.859C651.579 802.639 650.349 806.299 651.28 809.659C651.77 811.419 652.92 813.069 654.589 813.789C656.65 814.679 659.05 814.019 661.079 813.069C663.819 811.789 666.37 809.949 668.059 807.439C671.01 803.049 670.65 796.019 665.179 793.669C660.819 791.799 656.089 796.709 653.689 799.859ZM677.969 832.259C674.42 832.819 670.49 830.929 669.099 827.609C665.939 820.089 675.76 812.919 682.579 815.619C691.089 818.979 684.939 831.159 677.969 832.259ZM681.319 854.469C689.77 856.079 690.199 844.799 683.02 842.739C674.01 840.149 671.799 852.659 681.319 854.469ZM966.252 621.66C965.058 618.136 966.068 614.318 968.009 611.328C970.259 607.963 974.568 602.52 979.49 604.019C985.676 605.869 986.984 613.365 984.132 618.428C982.522 621.286 979.875 623.462 976.985 624.977C974.838 626.091 972.281 626.874 970.028 625.974C968.201 625.239 966.883 623.504 966.252 621.66ZM986.168 640.526C987.714 644.161 992.006 646.128 996.001 645.217C999.882 644.323 1003.57 640.164 1004.94 635.848C1006.34 631.538 1005.4 627.193 1000.61 625.872C992.916 623.852 982.714 632.365 986.168 640.526ZM1006.59 665.104C1006.06 668.544 1003.27 671.608 998.524 670.823C993.202 669.935 991.509 665.776 992.289 662.275C993.071 658.752 996.327 655.785 1001.35 656.95C1005.36 657.887 1007.11 661.651 1006.59 665.104ZM842.479 634.079C836.28 630.889 829.01 630.389 822.079 631.129C818.04 631.559 813.969 632.409 810.449 634.429C806.929 636.449 804 639.779 803.219 643.759C802.03 649.809 805.87 655.679 810.12 660.159C815.099 665.399 820.91 669.829 827.28 673.239C831.53 675.509 836.339 677.369 841.069 676.469C862.14 672.469 857.569 641.859 842.479 634.079ZM845.689 609.859C843.579 612.639 842.349 616.299 843.28 619.659C843.77 621.419 844.92 623.069 846.589 623.789C848.65 624.679 851.05 624.019 853.079 623.069C855.819 621.789 858.37 619.949 860.059 617.439C863.01 613.049 862.65 606.019 857.179 603.669C852.819 601.799 848.089 606.709 845.689 609.859ZM869.969 642.259C866.42 642.819 862.49 640.929 861.099 637.609C857.939 630.089 867.76 622.919 874.579 625.619C883.089 628.979 876.939 641.159 869.969 642.259ZM873.319 664.469C881.77 666.079 882.199 654.799 875.02 652.739C866.01 650.149 863.799 662.659 873.319 664.469ZM1486.25 188.66C1485.06 185.136 1486.07 181.318 1488.01 178.328C1490.26 174.963 1494.57 169.52 1499.49 171.019C1505.68 172.869 1506.98 180.365 1504.13 185.428C1502.52 188.286 1499.87 190.462 1496.99 191.977C1494.84 193.091 1492.28 193.874 1490.03 192.974C1488.2 192.239 1486.88 190.504 1486.25 188.66ZM1506.17 207.526C1507.71 211.161 1512.01 213.128 1516 212.217C1519.88 211.323 1523.57 207.164 1524.94 202.848C1526.34 198.538 1525.4 194.193 1520.61 192.872C1512.92 190.852 1502.71 199.365 1506.17 207.526ZM1526.59 232.104C1526.06 235.544 1523.27 238.608 1518.52 237.823C1513.2 236.935 1511.51 232.776 1512.29 229.275C1513.07 225.752 1516.33 222.785 1521.35 223.95C1525.36 224.887 1527.11 228.651 1526.59 232.104ZM1643.85 208.008C1637.15 204.504 1629.39 203.744 1622.11 203.905C1617.87 204.011 1613.63 204.445 1609.93 206.014C1606.25 207.602 1603.12 210.447 1602.07 214.335C1600.47 220.213 1603.78 226.941 1607.66 232.391C1612.21 238.769 1617.66 244.539 1623.95 249.201C1628.14 252.3 1633.08 255.054 1638.48 254.544C1650.58 253.43 1656.72 243.422 1657 233.098C1657.37 222.725 1652.01 212.238 1643.85 208.008ZM1621.34 171.745C1617.64 172.261 1615.39 175.591 1615.06 179.146C1614.64 183.941 1615.89 190.833 1622.05 192.082C1628.2 193.32 1633.81 189.037 1633.62 182.919C1633.52 179.499 1631.55 176.102 1628.63 173.946C1626.49 172.371 1623.78 171.411 1621.34 171.745ZM1646.01 182.328C1644.07 185.318 1643.06 189.136 1644.25 192.66C1644.88 194.504 1646.2 196.239 1648.03 196.974C1650.28 197.874 1652.84 197.091 1654.99 195.977C1657.87 194.462 1660.52 192.286 1662.13 189.428C1664.98 184.365 1663.68 176.869 1657.49 175.019C1652.57 173.52 1648.26 178.963 1646.01 182.328ZM1674 216.217C1670.01 217.128 1665.71 215.161 1664.17 211.526C1660.71 203.365 1670.92 194.852 1678.61 196.872C1683.4 198.193 1684.34 202.538 1682.94 206.848C1681.57 211.164 1677.88 215.323 1674 216.217ZM1676.52 241.823C1681.27 242.608 1684.06 239.544 1684.59 236.104C1685.11 232.651 1683.36 228.887 1679.35 227.95C1674.33 226.785 1671.07 229.752 1670.29 233.275C1669.51 236.776 1671.2 240.935 1676.52 241.823ZM1342.08 198.129C1349.01 197.389 1356.28 197.889 1362.48 201.079C1377.57 208.859 1382.14 239.469 1361.07 243.469C1356.34 244.369 1351.53 242.509 1347.28 240.239C1340.91 236.829 1335.1 232.399 1330.12 227.159C1325.87 222.679 1322.03 216.809 1323.22 210.759C1324 206.779 1326.93 203.449 1330.45 201.429C1333.97 199.409 1338.04 198.559 1342.08 198.129ZM1363.28 186.659C1362.35 183.299 1363.58 179.639 1365.69 176.859C1368.09 173.709 1372.82 168.799 1377.18 170.669C1382.65 173.019 1383.01 180.049 1380.06 184.439C1378.37 186.949 1375.82 188.789 1373.08 190.069C1371.05 191.019 1368.65 191.679 1366.59 190.789C1364.92 190.069 1363.77 188.419 1363.28 186.659ZM1381.1 204.609C1382.49 207.929 1386.42 209.819 1389.97 209.259C1396.94 208.159 1403.09 195.979 1394.58 192.619C1387.76 189.919 1377.94 197.089 1381.1 204.609ZM1393.32 231.469C1401.77 233.079 1402.2 221.799 1395.02 219.739C1386.01 217.149 1383.8 229.659 1393.32 231.469ZM1631.01 49.328C1629.07 52.3181 1628.06 56.1362 1629.25 59.6597C1629.88 61.5042 1631.2 63.2387 1633.03 63.974C1635.28 64.8743 1637.84 64.0909 1639.99 62.9774C1642.87 61.4616 1645.52 59.2857 1647.13 56.4276C1649.98 51.3654 1648.68 43.8694 1642.49 42.019C1637.57 40.5197 1633.26 45.9627 1631.01 49.328ZM1659 83.2174C1655.01 84.1275 1650.71 82.1607 1649.17 78.5258C1645.71 70.3646 1655.92 61.8522 1663.61 63.8717C1668.4 65.1928 1669.34 69.5385 1667.94 73.8478C1666.57 78.1636 1662.88 82.3228 1659 83.2174ZM1661.52 108.823C1666.27 109.608 1669.06 106.544 1669.59 103.104C1670.11 99.6506 1668.36 95.8867 1664.35 94.9498C1659.33 93.7849 1656.07 96.7522 1655.29 100.275C1654.51 103.776 1656.2 107.935 1661.52 108.823ZM1485.08 69.1293C1492.01 68.3893 1499.28 68.8893 1505.48 72.0793C1520.57 79.8593 1525.14 110.469 1504.07 114.469C1499.34 115.369 1494.53 113.509 1490.28 111.239C1483.91 107.829 1478.1 103.399 1473.12 98.1593C1468.87 93.6793 1465.03 87.8093 1466.22 81.7593C1467 77.7793 1469.93 74.4493 1473.45 72.4293C1476.97 70.4093 1481.04 69.5593 1485.08 69.1293ZM1506.28 57.6593C1505.35 54.2993 1506.58 50.6393 1508.69 47.8593C1511.09 44.7093 1515.82 39.7993 1520.18 41.6693C1525.65 44.0193 1526.01 51.0493 1523.06 55.4393C1521.37 57.9493 1518.82 59.7893 1516.08 61.0693C1514.05 62.0193 1511.65 62.6793 1509.59 61.7893C1507.92 61.0693 1506.77 59.4193 1506.28 57.6593ZM1524.1 75.6093C1525.49 78.9293 1529.42 80.8193 1532.97 80.2593C1539.94 79.1593 1546.09 66.9793 1537.58 63.6193C1530.76 60.9193 1520.94 68.0893 1524.1 75.6093ZM1536.32 102.469C1544.77 104.079 1545.2 92.7993 1538.02 90.7393C1529.01 88.1493 1526.8 100.659 1536.32 102.469ZM1444.85 815.008C1438.15 811.504 1430.39 810.744 1423.11 810.905C1418.87 811.011 1414.63 811.445 1410.93 813.014C1407.25 814.602 1404.12 817.447 1403.07 821.335C1401.47 827.213 1404.78 833.941 1408.66 839.391C1413.21 845.769 1418.66 851.539 1424.95 856.201C1429.14 859.3 1434.08 862.054 1439.48 861.544C1451.58 860.43 1457.72 850.422 1458 840.098C1458.37 829.725 1453.01 819.238 1444.85 815.008ZM1422.34 778.745C1418.64 779.261 1416.39 782.591 1416.06 786.146C1415.64 790.941 1416.89 797.833 1423.05 799.082C1429.2 800.32 1434.81 796.037 1434.62 789.919C1434.53 786.499 1432.55 783.102 1429.63 780.946C1427.49 779.371 1424.78 778.411 1422.34 778.745ZM1447.01 789.328C1445.07 792.318 1444.06 796.136 1445.25 799.66C1445.88 801.504 1447.2 803.239 1449.03 803.974C1451.28 804.874 1453.84 804.091 1455.99 802.977C1458.87 801.462 1461.52 799.286 1463.13 796.428C1465.98 791.365 1464.68 783.869 1458.49 782.019C1453.57 780.52 1449.26 785.963 1447.01 789.328ZM1475 823.217C1471.01 824.128 1466.71 822.161 1465.17 818.526C1461.71 810.365 1471.92 801.852 1479.61 803.872C1484.4 805.193 1485.34 809.538 1483.94 813.848C1482.57 818.164 1478.88 822.323 1475 823.217ZM1477.52 848.823C1482.27 849.608 1485.06 846.544 1485.59 843.104C1486.11 839.651 1484.36 835.887 1480.35 834.95C1475.33 833.785 1472.07 836.752 1471.29 840.275C1470.51 843.776 1472.2 847.935 1477.52 848.823ZM1301.08 809.129C1308.01 808.389 1315.28 808.889 1321.48 812.079C1336.57 819.859 1341.14 850.469 1320.07 854.469C1315.34 855.369 1310.53 853.509 1306.28 851.239C1299.91 847.829 1294.1 843.399 1289.12 838.159C1284.87 833.679 1281.03 827.809 1282.22 821.759C1283 817.779 1285.93 814.449 1289.45 812.429C1292.97 810.409 1297.04 809.559 1301.08 809.129ZM1295.39 784.909C1296.04 781.249 1298.65 777.669 1302.32 777.079C1304.73 776.699 1307.22 777.659 1309.08 779.249C1311.63 781.429 1313.14 784.819 1312.93 788.169C1312.57 794.139 1307.13 798.379 1301.27 797.539C1295.39 796.699 1294.5 789.889 1295.39 784.909ZM1322.28 797.659C1321.35 794.299 1322.58 790.639 1324.69 787.859C1327.09 784.709 1331.82 779.799 1336.18 781.669C1341.65 784.019 1342.01 791.049 1339.06 795.439C1337.37 797.949 1334.82 799.789 1332.08 801.069C1330.05 802.019 1327.65 802.679 1325.59 801.789C1323.92 801.069 1322.77 799.419 1322.28 797.659ZM1340.1 815.609C1341.49 818.929 1345.42 820.819 1348.97 820.259C1355.94 819.159 1362.09 806.979 1353.58 803.619C1346.76 800.919 1336.94 808.089 1340.1 815.609ZM1352.32 842.469C1360.77 844.079 1361.2 832.799 1354.02 830.739C1345.01 828.149 1342.8 840.659 1352.32 842.469ZM1094.85 830.008C1088.15 826.504 1080.39 825.744 1073.11 825.905C1068.87 826.011 1064.63 826.445 1060.93 828.014C1057.25 829.602 1054.12 832.447 1053.07 836.335C1051.47 842.213 1054.78 848.941 1058.66 854.391C1063.21 860.769 1068.66 866.539 1074.95 871.201C1079.14 874.3 1084.08 877.054 1089.48 876.544C1101.58 875.43 1107.72 865.422 1108 855.098C1108.37 844.725 1103.01 834.238 1094.85 830.008ZM1072.34 793.745C1068.64 794.261 1066.39 797.591 1066.06 801.146C1065.64 805.941 1066.89 812.833 1073.05 814.082C1079.2 815.32 1084.81 811.037 1084.62 804.919C1084.53 801.499 1082.55 798.102 1079.63 795.946C1077.49 794.371 1074.78 793.411 1072.34 793.745ZM1097.01 804.328C1095.07 807.318 1094.06 811.136 1095.25 814.66C1095.88 816.504 1097.2 818.239 1099.03 818.974C1101.28 819.874 1103.84 819.091 1105.99 817.977C1108.87 816.462 1111.52 814.286 1113.13 811.428C1115.98 806.365 1114.68 798.869 1108.49 797.019C1103.57 795.52 1099.26 800.963 1097.01 804.328ZM1125 838.217C1121.01 839.128 1116.71 837.161 1115.17 833.526C1111.71 825.365 1121.92 816.852 1129.61 818.872C1134.4 820.193 1135.34 824.538 1133.94 828.848C1132.57 833.164 1128.88 837.323 1125 838.217ZM1127.52 863.823C1132.27 864.608 1135.06 861.544 1135.59 858.104C1136.11 854.651 1134.36 850.887 1130.35 849.95C1125.33 848.785 1122.07 851.752 1121.29 855.275C1120.51 858.776 1122.2 862.935 1127.52 863.823ZM951.079 824.129C958.01 823.389 965.28 823.889 971.479 827.079C986.569 834.859 991.14 865.469 970.069 869.469C965.339 870.369 960.53 868.509 956.28 866.239C949.91 862.829 944.099 858.399 939.12 853.159C934.87 848.679 931.03 842.809 932.219 836.759C933 832.779 935.929 829.449 939.449 827.429C942.969 825.409 947.04 824.559 951.079 824.129ZM945.39 799.909C946.04 796.249 948.65 792.669 952.319 792.079C954.729 791.699 957.219 792.659 959.079 794.249C961.63 796.429 963.14 799.819 962.929 803.169C962.569 809.139 957.13 813.379 951.27 812.539C945.39 811.699 944.5 804.889 945.39 799.909ZM972.28 812.659C971.349 809.299 972.579 805.639 974.689 802.859C977.089 799.709 981.819 794.799 986.179 796.669C991.65 799.019 992.01 806.049 989.059 810.439C987.37 812.949 984.819 814.789 982.079 816.069C980.05 817.019 977.65 817.679 975.589 816.789C973.92 816.069 972.77 814.419 972.28 812.659ZM990.099 830.609C991.49 833.929 995.42 835.819 998.969 835.259C1005.94 834.159 1012.09 821.979 1003.58 818.619C996.76 815.919 986.939 823.089 990.099 830.609ZM1002.32 857.469C1010.77 859.079 1011.2 847.799 1004.02 845.739C995.01 843.149 992.799 855.659 1002.32 857.469ZM1722.85 826.008C1716.15 822.504 1708.39 821.744 1701.11 821.905C1696.87 822.011 1692.63 822.445 1688.93 824.014C1685.25 825.602 1682.12 828.447 1681.07 832.335C1679.47 838.213 1682.78 844.941 1686.66 850.391C1691.21 856.769 1696.66 862.539 1702.95 867.201C1707.14 870.3 1712.08 873.054 1717.48 872.544C1729.58 871.43 1735.72 861.422 1736 851.098C1736.37 840.725 1731.01 830.238 1722.85 826.008ZM1700.34 789.745C1696.64 790.261 1694.39 793.591 1694.06 797.146C1693.64 801.941 1694.89 808.833 1701.05 810.082C1707.2 811.32 1712.81 807.037 1712.62 800.919C1712.53 797.499 1710.55 794.102 1707.63 791.946C1705.49 790.371 1702.78 789.411 1700.34 789.745ZM1725.01 800.328C1723.07 803.318 1722.06 807.136 1723.25 810.66C1723.88 812.504 1725.2 814.239 1727.03 814.974C1729.28 815.874 1731.84 815.091 1733.99 813.977C1736.87 812.462 1739.52 810.286 1741.13 807.428C1743.98 802.365 1742.68 794.869 1736.49 793.019C1731.57 791.52 1727.26 796.963 1725.01 800.328ZM1753 834.217C1749.01 835.128 1744.71 833.161 1743.17 829.526C1739.71 821.365 1749.92 812.852 1757.61 814.872C1762.4 816.193 1763.34 820.538 1761.94 824.848C1760.57 829.164 1756.88 833.323 1753 834.217ZM1755.52 859.823C1760.27 860.608 1763.06 857.544 1763.59 854.104C1764.11 850.651 1762.36 846.887 1758.35 845.95C1753.33 844.785 1750.07 847.752 1749.29 851.275C1748.51 854.776 1750.2 858.935 1755.52 859.823ZM1579.08 820.129C1586.01 819.389 1593.28 819.889 1599.48 823.079C1614.57 830.859 1619.14 861.469 1598.07 865.469C1593.34 866.369 1588.53 864.509 1584.28 862.239C1577.91 858.829 1572.1 854.399 1567.12 849.159C1562.87 844.679 1559.03 838.809 1560.22 832.759C1561 828.779 1563.93 825.449 1567.45 823.429C1570.97 821.409 1575.04 820.559 1579.08 820.129ZM1573.39 795.909C1574.04 792.249 1576.65 788.669 1580.32 788.079C1582.73 787.699 1585.22 788.659 1587.08 790.249C1589.63 792.429 1591.14 795.819 1590.93 799.169C1590.57 805.139 1585.13 809.379 1579.27 808.539C1573.39 807.699 1572.5 800.889 1573.39 795.909ZM1600.28 808.659C1599.35 805.299 1600.58 801.639 1602.69 798.859C1605.09 795.709 1609.82 790.799 1614.18 792.669C1619.65 795.019 1620.01 802.049 1617.06 806.439C1615.37 808.949 1612.82 810.789 1610.08 812.069C1608.05 813.019 1605.65 813.679 1603.59 812.789C1601.92 812.069 1600.77 810.419 1600.28 808.659ZM1618.1 826.609C1619.49 829.929 1623.42 831.819 1626.97 831.259C1633.94 830.159 1640.09 817.979 1631.58 814.619C1624.76 811.919 1614.94 819.089 1618.1 826.609ZM1630.32 853.469C1638.77 855.079 1639.2 843.799 1632.02 841.739C1623.01 839.149 1620.8 851.659 1630.32 853.469ZM1042.85 478.008C1036.15 474.504 1028.39 473.744 1021.11 473.905C1016.87 474.011 1012.63 474.445 1008.93 476.014C1005.25 477.602 1002.12 480.447 1001.07 484.335C999.47 490.213 1002.78 496.941 1006.66 502.391C1011.21 508.769 1016.66 514.539 1022.95 519.201C1027.14 522.3 1032.08 525.054 1037.48 524.544C1049.58 523.43 1055.72 513.422 1056 503.098C1056.37 492.725 1051.01 482.238 1042.85 478.008ZM1020.34 441.745C1016.64 442.261 1014.39 445.591 1014.06 449.146C1013.64 453.941 1014.89 460.833 1021.05 462.082C1027.2 463.32 1032.81 459.037 1032.62 452.919C1032.53 449.499 1030.55 446.102 1027.63 443.946C1025.49 442.371 1022.78 441.411 1020.34 441.745ZM1045.01 452.328C1043.07 455.318 1042.06 459.136 1043.25 462.66C1043.88 464.504 1045.2 466.239 1047.03 466.974C1049.28 467.874 1051.84 467.091 1053.99 465.977C1056.87 464.462 1059.52 462.286 1061.13 459.428C1063.98 454.365 1062.68 446.869 1056.49 445.019C1051.57 443.52 1047.26 448.963 1045.01 452.328ZM1073 486.217C1069.01 487.128 1064.71 485.161 1063.17 481.526C1059.71 473.365 1069.92 464.852 1077.61 466.872C1082.4 468.193 1083.34 472.538 1081.94 476.848C1080.57 481.164 1076.88 485.323 1073 486.217ZM1075.52 511.823C1080.27 512.608 1083.06 509.544 1083.59 506.104C1084.11 502.651 1082.36 498.887 1078.35 497.95C1073.33 496.785 1070.07 499.752 1069.29 503.275C1068.51 506.776 1070.2 510.935 1075.52 511.823ZM899.079 472.129C906.01 471.389 913.28 471.889 919.479 475.079C934.569 482.859 939.14 513.469 918.069 517.469C913.339 518.369 908.53 516.509 904.28 514.239C897.91 510.829 892.099 506.399 887.12 501.159C882.87 496.679 879.03 490.809 880.219 484.759C881 480.779 883.929 477.449 887.449 475.429C890.969 473.409 895.04 472.559 899.079 472.129ZM893.39 447.909C894.04 444.249 896.65 440.669 900.319 440.079C902.729 439.699 905.219 440.659 907.079 442.249C909.63 444.429 911.14 447.819 910.929 451.169C910.569 457.139 905.13 461.379 899.27 460.539C893.39 459.699 892.5 452.889 893.39 447.909ZM920.28 460.659C919.349 457.299 920.579 453.639 922.689 450.859C925.089 447.709 929.819 442.799 934.179 444.669C939.65 447.019 940.01 454.049 937.059 458.439C935.37 460.949 932.819 462.789 930.079 464.069C928.05 465.019 925.65 465.679 923.589 464.789C921.92 464.069 920.77 462.419 920.28 460.659ZM938.099 478.609C939.49 481.929 943.42 483.819 946.969 483.259C953.939 482.159 960.089 469.979 951.579 466.619C944.76 463.919 934.939 471.089 938.099 478.609ZM950.319 505.469C958.77 507.079 959.199 495.799 952.02 493.739C943.01 491.149 940.799 503.659 950.319 505.469ZM1238.85 277.008C1232.15 273.504 1224.39 272.744 1217.11 272.905C1212.87 273.011 1208.63 273.445 1204.93 275.014C1201.25 276.602 1198.12 279.447 1197.07 283.335C1195.47 289.213 1198.78 295.941 1202.66 301.391C1207.21 307.769 1212.66 313.539 1218.95 318.201C1223.14 321.3 1228.08 324.054 1233.48 323.544C1245.58 322.43 1251.72 312.422 1252 302.098C1252.37 291.725 1247.01 281.238 1238.85 277.008ZM1216.34 240.745C1212.64 241.261 1210.39 244.591 1210.06 248.146C1209.64 252.941 1210.89 259.833 1217.05 261.082C1223.2 262.32 1228.81 258.037 1228.62 251.919C1228.53 248.499 1226.55 245.102 1223.63 242.946C1221.49 241.371 1218.78 240.411 1216.34 240.745ZM1241.01 251.328C1239.07 254.318 1238.06 258.136 1239.25 261.66C1239.88 263.504 1241.2 265.239 1243.03 265.974C1245.28 266.874 1247.84 266.091 1249.99 264.977C1252.87 263.462 1255.52 261.286 1257.13 258.428C1259.98 253.365 1258.68 245.869 1252.49 244.019C1247.57 242.52 1243.26 247.963 1241.01 251.328ZM1269 285.217C1265.01 286.128 1260.71 284.161 1259.17 280.526C1255.71 272.365 1265.92 263.852 1273.61 265.872C1278.4 267.193 1279.34 271.538 1277.94 275.848C1276.57 280.164 1272.88 284.323 1269 285.217ZM1271.52 310.823C1276.27 311.608 1279.06 308.544 1279.59 305.104C1280.11 301.651 1278.36 297.887 1274.35 296.95C1269.33 295.785 1266.07 298.752 1265.29 302.275C1264.51 305.776 1266.2 309.935 1271.52 310.823ZM1095.08 271.129C1102.01 270.389 1109.28 270.889 1115.48 274.079C1130.57 281.859 1135.14 312.469 1114.07 316.469C1109.34 317.369 1104.53 315.509 1100.28 313.239C1093.91 309.829 1088.1 305.399 1083.12 300.159C1078.87 295.679 1075.03 289.809 1076.22 283.759C1077 279.779 1079.93 276.449 1083.45 274.429C1086.97 272.409 1091.04 271.559 1095.08 271.129ZM1089.39 246.909C1090.04 243.249 1092.65 239.669 1096.32 239.079C1098.73 238.699 1101.22 239.659 1103.08 241.249C1105.63 243.429 1107.14 246.819 1106.93 250.169C1106.57 256.139 1101.13 260.379 1095.27 259.539C1089.39 258.699 1088.5 251.889 1089.39 246.909ZM1116.28 259.659C1115.35 256.299 1116.58 252.639 1118.69 249.859C1121.09 246.709 1125.82 241.799 1130.18 243.669C1135.65 246.019 1136.01 253.049 1133.06 257.439C1131.37 259.949 1128.82 261.789 1126.08 263.069C1124.05 264.019 1121.65 264.679 1119.59 263.789C1117.92 263.069 1116.77 261.419 1116.28 259.659ZM1134.1 277.609C1135.49 280.929 1139.42 282.819 1142.97 282.259C1149.94 281.159 1156.09 268.979 1147.58 265.619C1140.76 262.919 1130.94 270.089 1134.1 277.609ZM1146.32 304.469C1154.77 306.079 1155.2 294.799 1148.02 292.739C1139.01 290.149 1136.8 302.659 1146.32 304.469ZM1583.85 342.008C1577.15 338.504 1569.39 337.744 1562.11 337.905C1557.87 338.011 1553.63 338.445 1549.93 340.014C1546.25 341.602 1543.12 344.447 1542.07 348.335C1540.47 354.213 1543.78 360.941 1547.66 366.391C1552.21 372.769 1557.66 378.539 1563.95 383.201C1568.14 386.3 1573.08 389.054 1578.48 388.544C1590.58 387.43 1596.72 377.422 1597 367.098C1597.37 356.725 1592.01 346.238 1583.85 342.008ZM1561.34 305.745C1557.64 306.261 1555.39 309.591 1555.06 313.146C1554.64 317.941 1555.89 324.833 1562.05 326.082C1568.2 327.32 1573.81 323.037 1573.62 316.919C1573.53 313.499 1571.55 310.102 1568.63 307.946C1566.49 306.371 1563.78 305.411 1561.34 305.745ZM1586.01 316.328C1584.07 319.318 1583.06 323.136 1584.25 326.66C1584.88 328.504 1586.2 330.239 1588.03 330.974C1590.28 331.874 1592.84 331.091 1594.99 329.977C1597.87 328.462 1600.52 326.286 1602.13 323.428C1604.98 318.365 1603.68 310.869 1597.49 309.019C1592.57 307.52 1588.26 312.963 1586.01 316.328ZM1614 350.217C1610.01 351.128 1605.71 349.161 1604.17 345.526C1600.71 337.365 1610.92 328.852 1618.61 330.872C1623.4 332.193 1624.34 336.538 1622.94 340.848C1621.57 345.164 1617.88 349.323 1614 350.217ZM1616.52 375.823C1621.27 376.608 1624.06 373.544 1624.59 370.104C1625.11 366.651 1623.36 362.887 1619.35 361.95C1614.33 360.785 1611.07 363.752 1610.29 367.275C1609.51 370.776 1611.2 374.935 1616.52 375.823ZM1440.08 336.129C1447.01 335.389 1454.28 335.889 1460.48 339.079C1475.57 346.859 1480.14 377.469 1459.07 381.469C1454.34 382.369 1449.53 380.509 1445.28 378.239C1438.91 374.829 1433.1 370.399 1428.12 365.159C1423.87 360.679 1420.03 354.809 1421.22 348.759C1422 344.779 1424.93 341.449 1428.45 339.429C1431.97 337.409 1436.04 336.559 1440.08 336.129ZM1434.39 311.909C1435.04 308.249 1437.65 304.669 1441.32 304.079C1443.73 303.699 1446.22 304.659 1448.08 306.249C1450.63 308.429 1452.14 311.819 1451.93 315.169C1451.57 321.139 1446.13 325.379 1440.27 324.539C1434.39 323.699 1433.5 316.889 1434.39 311.909ZM1461.28 324.659C1460.35 321.299 1461.58 317.639 1463.69 314.859C1466.09 311.709 1470.82 306.799 1475.18 308.669C1480.65 311.019 1481.01 318.049 1478.06 322.439C1476.37 324.949 1473.82 326.789 1471.08 328.069C1469.05 329.019 1466.65 329.679 1464.59 328.789C1462.92 328.069 1461.77 326.419 1461.28 324.659ZM1479.1 342.609C1480.49 345.929 1484.42 347.819 1487.97 347.259C1494.94 346.159 1501.09 333.979 1492.58 330.619C1485.76 327.919 1475.94 335.089 1479.1 342.609ZM1491.32 369.469C1499.77 371.079 1500.2 359.799 1493.02 357.739C1484.01 355.149 1481.8 367.659 1491.32 369.469ZM1614.85 533.008C1608.15 529.504 1600.39 528.744 1593.11 528.905C1588.87 529.011 1584.63 529.445 1580.93 531.014C1577.25 532.602 1574.12 535.447 1573.07 539.335C1571.47 545.213 1574.78 551.941 1578.66 557.391C1583.21 563.769 1588.66 569.539 1594.95 574.201C1599.14 577.3 1604.08 580.054 1609.48 579.544C1621.58 578.43 1627.72 568.422 1628 558.098C1628.37 547.725 1623.01 537.238 1614.85 533.008ZM1592.34 496.745C1588.64 497.261 1586.39 500.591 1586.06 504.146C1585.64 508.941 1586.89 515.833 1593.05 517.082C1599.2 518.32 1604.81 514.037 1604.62 507.919C1604.53 504.499 1602.55 501.102 1599.63 498.946C1597.49 497.371 1594.78 496.411 1592.34 496.745ZM1617.01 507.328C1615.07 510.318 1614.06 514.136 1615.25 517.66C1615.88 519.504 1617.2 521.239 1619.03 521.974C1621.28 522.874 1623.84 522.091 1625.99 520.977C1628.87 519.462 1631.52 517.286 1633.13 514.428C1635.98 509.365 1634.68 501.869 1628.49 500.019C1623.57 498.52 1619.26 503.963 1617.01 507.328ZM1645 541.217C1641.01 542.128 1636.71 540.161 1635.17 536.526C1631.71 528.365 1641.92 519.852 1649.61 521.872C1654.4 523.193 1655.34 527.538 1653.94 531.848C1652.57 536.164 1648.88 540.323 1645 541.217ZM1647.52 566.823C1652.27 567.608 1655.06 564.544 1655.59 561.104C1656.11 557.651 1654.36 553.887 1650.35 552.95C1645.33 551.785 1642.07 554.752 1641.29 558.275C1640.51 561.776 1642.2 565.935 1647.52 566.823ZM1471.08 527.129C1478.01 526.389 1485.28 526.889 1491.48 530.079C1506.57 537.859 1511.14 568.469 1490.07 572.469C1485.34 573.369 1480.53 571.509 1476.28 569.239C1469.91 565.829 1464.1 561.399 1459.12 556.159C1454.87 551.679 1451.03 545.809 1452.22 539.759C1453 535.779 1455.93 532.449 1459.45 530.429C1462.97 528.409 1467.04 527.559 1471.08 527.129ZM1465.39 502.909C1466.04 499.249 1468.65 495.669 1472.32 495.079C1474.73 494.699 1477.22 495.659 1479.08 497.249C1481.63 499.429 1483.14 502.819 1482.93 506.169C1482.57 512.139 1477.13 516.379 1471.27 515.539C1465.39 514.699 1464.5 507.889 1465.39 502.909ZM1492.28 515.659C1491.35 512.299 1492.58 508.639 1494.69 505.859C1497.09 502.709 1501.82 497.799 1506.18 499.669C1511.65 502.019 1512.01 509.049 1509.06 513.439C1507.37 515.949 1504.82 517.789 1502.08 519.069C1500.05 520.019 1497.65 520.679 1495.59 519.789C1493.92 519.069 1492.77 517.419 1492.28 515.659ZM1510.1 533.609C1511.49 536.929 1515.42 538.819 1518.97 538.259C1525.94 537.159 1532.09 524.979 1523.58 521.619C1516.76 518.919 1506.94 526.089 1510.1 533.609ZM1522.32 560.469C1530.77 562.079 1531.2 550.799 1524.02 548.739C1515.01 546.149 1512.8 558.659 1522.32 560.469ZM1115.85 376.008C1109.15 372.504 1101.39 371.744 1094.11 371.905C1089.87 372.011 1085.63 372.445 1081.93 374.014C1078.25 375.602 1075.12 378.447 1074.07 382.335C1072.47 388.213 1075.78 394.941 1079.66 400.391C1084.21 406.769 1089.66 412.539 1095.95 417.201C1100.14 420.3 1105.08 423.054 1110.48 422.544C1122.58 421.43 1128.72 411.422 1129 401.098C1129.37 390.725 1124.01 380.238 1115.85 376.008ZM1093.34 339.745C1089.64 340.261 1087.39 343.591 1087.06 347.146C1086.64 351.941 1087.89 358.833 1094.05 360.082C1100.2 361.32 1105.81 357.037 1105.62 350.919C1105.53 347.499 1103.55 344.102 1100.63 341.946C1098.49 340.371 1095.78 339.411 1093.34 339.745ZM1118.01 350.328C1116.07 353.318 1115.06 357.136 1116.25 360.66C1116.88 362.504 1118.2 364.239 1120.03 364.974C1122.28 365.874 1124.84 365.091 1126.99 363.977C1129.87 362.462 1132.52 360.286 1134.13 357.428C1136.98 352.365 1135.68 344.869 1129.49 343.019C1124.57 341.52 1120.26 346.963 1118.01 350.328ZM1146 384.217C1142.01 385.128 1137.71 383.161 1136.17 379.526C1132.71 371.365 1142.92 362.852 1150.61 364.872C1155.4 366.193 1156.34 370.538 1154.94 374.848C1153.57 379.164 1149.88 383.323 1146 384.217ZM1148.52 409.823C1153.27 410.608 1156.06 407.544 1156.59 404.104C1157.11 400.651 1155.36 396.887 1151.35 395.95C1146.33 394.785 1143.07 397.752 1142.29 401.275C1141.51 404.776 1143.2 408.935 1148.52 409.823ZM972.079 370.129C979.01 369.389 986.28 369.889 992.479 373.079C1007.57 380.859 1012.14 411.469 991.069 415.469C986.339 416.369 981.53 414.509 977.28 412.239C970.91 408.829 965.099 404.399 960.12 399.159C955.87 394.679 952.03 388.809 953.219 382.759C954 378.779 956.929 375.449 960.449 373.429C963.969 371.409 968.04 370.559 972.079 370.129ZM966.39 345.909C967.04 342.249 969.65 338.669 973.319 338.079C975.729 337.699 978.219 338.659 980.079 340.249C982.63 342.429 984.14 345.819 983.929 349.169C983.569 355.139 978.13 359.379 972.27 358.539C966.39 357.699 965.5 350.889 966.39 345.909ZM993.28 358.659C992.349 355.299 993.579 351.639 995.689 348.859C998.089 345.709 1002.82 340.799 1007.18 342.669C1012.65 345.019 1013.01 352.049 1010.06 356.439C1008.37 358.949 1005.82 360.789 1003.08 362.069C1001.05 363.019 998.65 363.679 996.589 362.789C994.92 362.069 993.77 360.419 993.28 358.659ZM1011.1 376.609C1012.49 379.929 1016.42 381.819 1019.97 381.259C1026.94 380.159 1033.09 367.979 1024.58 364.619C1017.76 361.919 1007.94 369.089 1011.1 376.609ZM1023.32 403.469C1031.77 405.079 1032.2 393.799 1025.02 391.739C1016.01 389.149 1013.8 401.659 1023.32 403.469Z" fill="url(#paint1_linear_59_212)" fill-opacity="0.2"/>
<path d="M58.7037 187.925C50.9541 184.117 42.8689 179.975 38.0691 172.802C33.2693 165.629 33.2982 154.456 40.4433 149.595C44.4923 146.842 49.9288 146.724 54.5478 148.346C59.1669 149.969 63.0888 153.134 66.5656 156.584C66.0152 149.559 72.6189 143.15 79.6625 142.961C86.7138 142.778 93.2478 148.009 95.6537 154.636C98.0595 161.263 96.7247 168.867 93.1883 174.964C90.0161 180.431 81.7507 191.043 79.5079 200.341C73.6379 194.424 64.3406 190.709 58.7037 187.925Z" fill="white"/>
<path d="M1237.71 516.239C1235.45 514.352 1233.11 512.327 1232.09 509.562C1231.08 506.797 1231.99 503.097 1234.75 502.063C1236.32 501.477 1238.13 501.876 1239.53 502.787C1240.93 503.697 1241.97 505.063 1242.85 506.487C1243.23 504.114 1245.94 502.523 1248.29 503.029C1250.64 503.537 1252.38 505.798 1252.65 508.189C1252.91 510.58 1251.85 512.992 1250.19 514.727C1248.7 516.283 1245.1 519.133 1243.61 522.033C1242.14 519.599 1239.36 517.617 1237.71 516.239Z" fill="#FBD3A4"/>
<path d="M418.243 764.299C412.573 756.429 406.513 748.129 405.193 738.409C403.863 728.699 409.483 717.279 419.583 716.099C425.293 715.429 431.103 718.219 435.033 722.349C438.963 726.489 441.273 731.789 442.913 737.139C446.193 729.829 456.613 727.159 463.933 731.069C471.253 734.959 474.763 743.939 473.233 751.789C471.713 759.649 465.953 766.259 459.053 770.219C452.843 773.739 438.953 779.649 431.863 787.749C429.473 778.669 422.383 770.019 418.243 764.299Z" fill="white"/>
<path d="M1653.24 290.299C1647.57 282.429 1641.51 274.129 1640.19 264.409C1638.86 254.699 1644.48 243.279 1654.58 242.099C1660.29 241.429 1666.1 244.219 1670.03 248.349C1673.96 252.489 1676.27 257.789 1677.91 263.139C1681.19 255.829 1691.61 253.159 1698.93 257.069C1706.25 260.959 1709.76 269.939 1708.23 277.789C1706.71 285.649 1700.95 292.259 1694.05 296.219C1687.84 299.739 1673.95 305.649 1666.86 313.749C1664.47 304.669 1657.38 296.019 1653.24 290.299Z" fill="white"/>
<path d="M991.075 232.985C987.19 227.611 983.037 221.942 982.132 215.304C981.221 208.673 985.072 200.874 991.993 200.068C995.906 199.61 999.888 201.516 1002.58 204.336C1005.27 207.164 1006.86 210.783 1007.98 214.437C1010.23 209.445 1017.37 207.621 1022.39 210.291C1027.4 212.948 1029.81 219.081 1028.76 224.442C1027.72 229.81 1023.77 234.324 1019.04 237.028C1014.79 239.432 1005.27 243.468 1000.41 249C998.771 242.799 993.912 236.892 991.075 232.985Z" fill="white"/>
<path d="M386.502 893.244C367.359 862.801 309.592 849.067 266.723 857.308C245.747 817.251 181.101 795.048 133.763 839.453C91.0094 835.677 34.3878 849.753 29 893.244H386.502Z" fill="#FDBC70" fill-opacity="0.53"/>
<path d="M411.713 823.478C380.193 763.621 299.156 771.518 245.972 808.141C149.92 781.933 -14.5604 819.587 -7.79782 894.321H670.068C642.216 824.05 495.73 790.058 411.713 823.478Z" fill="#FAC78B"/>
<path d="M680.833 852.017C663.122 816.545 617.588 821.225 587.704 842.929C533.734 827.397 441.314 849.711 445.114 894H826C810.35 852.356 728.041 832.212 680.833 852.017Z" fill="#FFBE72"/>
<path d="M1433.87 827.321C1409.7 770.984 1347.55 778.416 1306.77 812.886C1233.11 788.219 1106.97 823.659 1112.16 894H1632C1610.64 827.86 1498.3 795.866 1433.87 827.321Z" fill="#FFBE72"/>
<path d="M1557.51 895.244C1576.65 864.801 1634.42 851.067 1677.29 859.308C1698.26 819.251 1762.91 797.048 1810.25 841.453C1853 837.677 1909.62 851.753 1915.01 895.244H1557.51Z" fill="#FDBC70" fill-opacity="0.53"/>
<path d="M1303.61 894.321C1228.42 819.128 1077 815.696 997.114 835.952C932.811 766.368 802.258 745.538 721.565 791.547C634.34 841.332 616 894.321 616 894.321H1303.61Z" fill="#FAC78B"/>
<path d="M1403.36 823.902C1434.88 764.046 1515.91 771.942 1569.1 808.566C1665.15 782.357 1829.63 820.011 1822.87 894.745H1145C1172.85 824.474 1319.34 790.483 1403.36 823.902Z" fill="#FAC78B"/>
<defs>
<linearGradient id="paint0_linear_59_212" x1="1711" y1="262.5" x2="878" y2="834" gradientUnits="userSpaceOnUse">
<stop offset="0.515556" stop-color="#FFDFBA"/>
<stop offset="1" stop-color="#FFD5A3"/>
</linearGradient>
<linearGradient id="paint1_linear_59_212" x1="1028.99" y1="394.808" x2="1021.28" y2="398.314" gradientUnits="userSpaceOnUse">
<stop stop-color="white" stop-opacity="0"/>
<stop offset="1" stop-color="white" stop-opacity="0.48"/>
</linearGradient>
</defs>
</svg>
