<svg width="220" height="101" viewBox="0 0 220 101" fill="none" xmlns="http://www.w3.org/2000/svg">
<path d="M70.3582 41.0665C55.6644 -3.427 6.95843 -2.3106 -0.180168 -1.90074C-0.695843 -1.87114 -1.05664 -1.44459 -1.05664 -0.928068V107C-1.05664 107.552 -0.608923 108 -0.0566387 108H142.837C143.991 108 144.323 106.16 143.244 105.753C126.68 99.4911 83.1217 79.7147 70.3582 41.0665Z" fill="#FBD3A4"/>
<ellipse cx="138.117" cy="89.7861" rx="71.3457" ry="25.6845" fill="#DFDFF7"/>
<path d="M192.947 38.6904L138.108 6.72539L83.0074 38.2356L137.846 70.2006L192.947 38.6904Z" fill="#BAD5DB"/>
<path opacity="0.4" d="M192.947 38.6904L138.108 6.72539L83.0074 38.2356L137.846 70.2006L192.947 38.6904Z" fill="white"/>
<path opacity="0.1" d="M192.947 38.6904L138.108 6.72539L83.0074 38.2356L137.846 70.2006L192.947 38.6904Z" fill="black"/>
<path opacity="0.1" d="M137.917 52.8886L138.108 6.72539L83.0074 38.2356L82.8164 84.3988L137.917 52.8886Z" fill="black"/>
<path opacity="0.2" d="M137.917 52.8887L82.816 84.3989L137.654 116.364L192.755 84.8537L137.917 52.8887Z" fill="black"/>
<path d="M183.479 23.9298C179.847 21.8167 177.469 23.1098 174.45 26.2311C172.259 28.6346 169.753 30.7303 167 32.461C166.598 29.6864 166.047 27.0449 165.966 25.7349C165.803 23.2219 165.927 20.5765 167.606 18.6391C169.284 16.7016 169.997 15.562 172.008 14.087C172.749 13.5627 173.439 12.9681 174.066 12.3115C174.664 11.6458 175.799 10.0803 175.262 9.15595C174.218 9.97519 172.914 10.3919 171.589 10.3301C171.049 10.268 170.535 10.0629 170.101 9.73596C170.066 9.71681 170.035 9.68896 170.013 9.655C169.991 9.62103 169.978 9.58205 169.975 9.54167C169.975 9.44144 170.089 9.38846 170.183 9.35544C170.516 9.26039 170.856 9.18812 171.199 9.13915C172.239 8.97795 173.225 8.57211 174.078 7.95503C174.676 7.48809 175.118 6.84853 175.341 6.12279C175.511 5.5355 175.377 5.45476 175.346 4.86664C175.309 4.39667 175.203 3.93472 175.031 3.49558C174.542 2.31089 173.514 1.9926 172.414 1.48024C169.913 0.247139 169.039 1.59991 165.456 1.95926C162.782 2.22883 156.588 -0.850337 151.778 2.15658C146.539 5.429 146.176 10.8196 145.159 16.1207C144.933 17.297 144.614 18.4531 144.202 19.5779C142.631 23.0526 140.891 23.7403 138.643 30.9138C135.319 41.4305 136.077 47.1799 130.304 55.134C125.11 62.3087 123.71 67.802 123.681 71.724C123.653 78.4056 124.822 80.2011 130.241 84.9141C134.156 88.3113 136.024 88.8936 139.837 94.2748C141.073 96.0105 141.138 102.853 140.203 105.929C139.269 109.006 138.44 110.539 139.353 112.962C140.265 115.384 141.109 106.156 142.683 108.621C144.256 111.087 137.411 111.325 142.683 109.763C147.861 108.241 144.534 105.73 142.683 105.929C141.106 106.148 144.225 107.084 142.683 107.48C142.683 107.48 146.092 110.806 146.107 108.621C146.123 106.436 151.765 102.229 155.346 97.446C158.927 92.6633 157.589 85.0273 155.437 75.3165C153.286 65.6058 153.183 64.6164 154.961 59.5991C156.651 54.8354 160.708 52.9412 162.94 48.1797C165.691 46.9883 168.295 45.8298 169.323 44.4109C171.42 41.533 175.766 34.3481 177.573 31.9235C180.012 28.6461 181.697 26.7488 184.272 27.6815C186.627 28.5399 186.944 27.9599 186.944 27.9599C187.217 26.6313 185.599 25.168 183.479 23.9298Z" fill="#5F5F5F"/>
<path d="M153.297 1.34104C150.808 0.56235 149.47 0.997807 147.277 2.83957C145.085 4.68134 144.515 5.1467 144.305 7.43098C144.095 9.71526 144.75 14.5689 147.225 13.8174C149.701 13.0659 153.297 1.34104 153.297 1.34104Z" fill="#5F5F5F"/>
<path d="M164.093 35.6162C163.982 35.1413 163.857 34.6864 163.725 34.2783C164.514 37.2349 161.494 45.3808 155.909 51.6184C150.324 57.8561 152.729 62.6969 154.158 69.4046C153.302 64.7974 153.582 63.3018 154.914 59.5322C157.591 51.9795 166.218 51.6611 164.093 35.6162Z" fill="#5F5F5F"/>
<path opacity="0.4" d="M183.479 23.9298C179.847 21.8167 177.469 23.1098 174.45 26.2311C172.259 28.6346 169.753 30.7303 167 32.461C166.598 29.6865 166.047 27.0449 165.966 25.7349C165.803 23.2219 165.927 20.5765 167.606 18.6391C169.284 16.7016 169.997 15.562 172.008 14.087C172.749 13.5627 173.439 12.9681 174.066 12.3115C174.664 11.6458 175.799 10.0803 175.262 9.15596C174.218 9.97519 172.914 10.3919 171.589 10.3301C171.049 10.268 170.535 10.0629 170.101 9.73596C170.066 9.71681 170.035 9.68896 170.013 9.655C169.991 9.62103 169.978 9.58205 169.975 9.54167C169.975 9.44144 170.089 9.38846 170.183 9.35544C170.516 9.26039 170.856 9.18812 171.199 9.13915C172.239 8.97795 173.225 8.57211 174.078 7.95503C174.676 7.48809 175.118 6.84853 175.341 6.12279C175.511 5.5355 175.377 5.45476 175.346 4.86664C175.309 4.39667 175.203 3.93472 175.031 3.49558C174.542 2.31089 173.514 1.9926 172.414 1.48024C169.913 0.247139 169.039 1.59991 165.456 1.95926C162.782 2.22883 156.588 -0.850337 151.778 2.15658C146.539 5.429 146.176 10.8196 145.159 16.1207C144.933 17.297 144.614 18.4531 144.202 19.5779C142.631 23.0526 140.891 23.7403 138.643 30.9138C135.319 41.4305 136.077 47.1799 130.304 55.134C125.11 62.3087 123.71 67.802 123.681 71.724C123.653 78.4056 124.822 80.2011 130.241 84.9141C134.156 88.3113 136.024 88.8936 139.837 94.2748C141.073 96.0105 141.138 102.853 140.203 105.929C139.269 109.006 138.44 110.539 139.353 112.962C140.265 115.384 130.182 88.1461 139.353 108.623C140.926 111.088 134.932 107.491 140.203 105.929C145.381 104.407 147.01 106.71 145.159 106.909C143.582 107.128 144.795 104.23 143.254 104.626C143.254 104.626 147.233 111.948 147.249 109.763C147.265 107.578 151.765 102.229 155.346 97.446C158.927 92.6633 157.589 85.0273 155.437 75.3165C153.286 65.6058 153.183 64.6165 154.961 59.5992C156.651 54.8354 160.708 52.9412 162.94 48.1797C165.691 46.9883 168.295 45.8298 169.323 44.4109C171.42 41.533 175.766 34.3481 177.573 31.9235C180.012 28.6461 181.697 26.7488 184.272 27.6816C186.627 28.5399 186.944 27.9599 186.944 27.9599C187.217 26.6313 185.599 25.168 183.479 23.9298Z" fill="black"/>
<path d="M154.915 59.5321C153.563 63.3017 153.303 64.7973 154.159 69.4046C152.763 62.9242 150.463 58.2375 155.399 52.2444C157.023 50.6274 160.042 49.3704 162.893 48.1394C160.662 52.8809 156.605 54.775 154.915 59.5321Z" fill="#FAFAFA"/>
<path d="M174.532 7.55598C175.59 7.57677 176.602 7.98793 177.374 8.71031C177.906 9.23369 179.604 12.3811 178.591 13.4594C177.577 14.5376 175.014 13.792 174.523 11.438C174.523 11.438 170.686 11.8832 169.416 10.3545C168.146 8.82581 169.96 8.16514 171.671 7.95172L174.532 7.55598Z" fill="#F28F8F"/>
<path d="M175.262 9.15593C175.262 9.15593 173.767 10.4193 174.09 11.4028C174.358 11.4039 174.525 11.4046 174.525 11.4046C174.648 12.047 174.963 12.6373 175.426 13.0988C175.915 13.5125 176.541 13.7273 177.181 13.7008C178.518 13.5927 177.854 12.5075 177.485 11.2565C177.116 10.0055 175.965 8.89825 175.262 9.15593Z" fill="#874C4C"/>
<path d="M175.26 9.15592C175.798 10.0802 174.655 11.6791 174.071 12.3115C173.44 12.9687 172.749 13.5654 172.006 14.0936C169.995 15.5553 169.262 16.7549 167.604 18.6457C165.946 20.5364 165.808 23.2219 165.964 25.7349C166.046 27.0716 166.616 29.6865 167.006 32.461C166.791 32.5871 166.57 32.7131 166.336 32.8257C165.42 29.9127 164.249 27.0861 162.836 24.3789C161.51 21.8344 160.331 19.4842 161.951 15.4151C163.072 12.5934 162.786 10.7413 167.537 9.08388C171.786 7.61811 169.759 4.94372 168.479 4.17671C167.199 3.4097 166.282 2.32346 166.866 1.70448C168.92 1.0448 170.492 0.483369 172.212 1.34575C173.313 1.89152 174.473 2.31059 174.963 3.48859C175.134 3.93025 175.24 4.3943 175.278 4.86633C175.336 5.46124 175.469 5.5353 175.306 6.12261C175.076 6.84677 174.633 7.48506 174.036 7.95483C173.185 8.57248 172.198 8.97632 171.158 9.13227C170.817 9.20436 170.489 9.24977 170.141 9.35524C170.048 9.38826 169.947 9.4413 169.94 9.54149C169.933 9.64169 170 9.68874 170.06 9.74244C170.507 10.0318 171.028 10.1849 171.561 10.183C172.878 10.298 174.191 9.93322 175.26 9.15592Z" fill="#FAFAFA"/>
<path d="M171.763 2.25257L171.73 2.25244C171.597 2.10233 171.45 1.96525 171.291 1.84303C171.056 1.74891 170.812 1.67851 170.563 1.63289C170.383 1.57201 170.157 1.39067 170.204 1.16369C170.205 1.03674 170.339 0.977149 170.453 0.917485C170.812 0.672036 171.221 0.507336 171.651 0.434678C172.173 0.418225 172.692 0.53293 173.159 0.768328C174.493 1.3752 175.086 1.74514 175.372 2.20068C175.657 2.65622 175.176 4.20439 175.176 4.20439C175.175 3.96907 175.111 3.73831 174.992 3.53545C174.648 2.73222 173.565 2.74779 172.844 2.67131C172.451 2.63705 172.077 2.49182 171.763 2.25257Z" fill="#263238"/>
<path opacity="0.1" d="M165.967 25.735C165.803 23.222 165.928 20.5765 167.606 18.6391C169.285 16.7017 169.998 15.562 172.008 14.087C172.276 13.8944 172.538 13.6883 172.793 13.4822C169.308 15.8866 166.52 14.6389 164.623 16.2547C162.725 17.8706 163.991 21.9115 165.259 23.8745C165.542 24.4757 165.779 25.0977 165.967 25.735Z" fill="black"/>
<path d="M157.503 9.18264C158.303 8.07679 161.875 5.4857 163.467 4.85752C165.06 4.22935 167.891 7.96278 167.872 11.0096C167.853 14.0564 165.717 19.9408 163.372 19.7707C161.028 19.6007 158.692 10.8714 157.592 11.8958C156.492 12.9202 156.045 11.1878 157.503 9.18264Z" fill="#5F5F5F"/>
<path d="M137.656 116.364L192.757 84.8537L192.948 38.6905L137.847 70.2008L137.656 116.364Z" fill="#BAD5DB"/>
<path opacity="0.6" d="M137.657 116.091L192.758 84.692L192.948 38.6905L137.848 70.0896L137.657 116.091Z" fill="white"/>
<path opacity="0.1" d="M137.847 70.2008L147.719 90.4003L192.841 64.6552L192.948 38.6905L137.847 70.2008Z" fill="black"/>
<path d="M137.655 116.364L82.8168 84.3989L83.0078 38.2357L137.846 70.2007L137.655 116.364Z" fill="#BAD5DB"/>
<path opacity="0.4" d="M137.655 116.364L82.8168 84.3989L83.0078 38.2357L137.846 70.2007L137.655 116.364Z" fill="white"/>
<path opacity="0.1" d="M137.846 70.2007L127.814 90.318L82.9004 64.2004L83.0078 38.2357L137.846 70.2007Z" fill="black"/>
<path opacity="0.1" d="M86.6093 74.2383L86.587 79.6237C86.6342 80.5494 86.8991 81.451 87.3602 82.2551C87.8212 83.0593 88.4655 83.7433 89.2406 84.2517L101.372 91.3244C102.845 92.1791 104.044 91.4958 104.051 89.7987L104.073 84.4066C104.026 83.4819 103.761 82.5815 103.299 81.7785C102.838 80.9755 102.194 80.2926 101.42 79.7853L89.2883 72.7126C87.8152 71.8579 86.6163 72.5412 86.6093 74.2383Z" fill="black"/>
<path d="M83.0075 38.2357L70.4539 54.0528L125.332 85.9846L137.846 70.2007L83.0075 38.2357Z" fill="#BAD5DB"/>
<path opacity="0.6" d="M83.0075 38.2357L70.4539 54.0528L125.332 85.9846L137.846 70.2007L83.0075 38.2357Z" fill="white"/>
<path d="M192.948 38.6905L205.377 54.611L150.236 86.0877L137.847 70.2008L192.948 38.6905Z" fill="#BAD5DB"/>
<path opacity="0.4" d="M192.948 38.6905L205.377 54.611L150.236 86.0877L137.847 70.2008L192.948 38.6905Z" fill="white"/>
<path d="M111.598 41.1335C112.734 44.479 118.18 46.0183 121.835 52.488C123.387 55.3048 123.914 58.5728 123.326 61.7349L91.2714 43.0472L89.0938 38.0603L111.598 41.1335Z" fill="#F9F9F9"/>
<path d="M79.1153 48.8033C79.1817 47.2735 80.1123 45.226 81.3153 43.5405C83.2522 40.9251 85.9804 39.0034 89.0954 38.0603L96.5261 42.7683C88.5694 42.4681 85.8193 46.6461 85.0679 48.9816C84.5535 50.5898 84.1207 51.8375 83.1786 51.8336C82.9377 51.8507 82.6993 51.7766 82.5105 51.626C82.3218 51.4755 82.1965 51.2595 82.1596 51.0209C82.0369 51.1618 81.8754 51.2634 81.6952 51.3129C81.515 51.3623 81.3242 51.3575 81.1468 51.299C80.9693 51.2404 80.8131 51.1308 80.6977 50.9838C80.5823 50.8368 80.5129 50.6591 80.4982 50.4728C80.3342 50.5568 80.1471 50.5842 79.966 50.5508C79.7849 50.5174 79.6199 50.4251 79.4967 50.2882C79.3326 50.0813 79.2138 49.8421 79.1481 49.5863C79.0824 49.3305 79.0712 49.0637 79.1153 48.8033Z" fill="#FCFBFB"/>
<path d="M79.496 50.2615C79.573 50.2883 79.6547 50.2989 79.736 50.2924C79.8173 50.2859 79.8963 50.2626 79.9681 50.2239C80.0399 50.1853 80.1029 50.1321 80.153 50.0678C80.2032 50.0035 80.2394 49.9295 80.2594 49.8504C80.3722 49.4893 80.5308 49.1441 80.7314 48.8234C80.5692 49.3531 80.4947 49.9058 80.5108 50.4595C80.344 50.5452 80.1532 50.5723 79.9691 50.5364C79.785 50.5005 79.6183 50.4037 79.496 50.2615Z" fill="#E0E0E0"/>
<path d="M81.0632 51.2302C81.2618 51.2113 81.4489 51.1284 81.5965 50.9941C81.744 50.8598 81.844 50.6812 81.8814 50.4852C81.9437 50.1278 82.0969 49.7925 82.3265 49.5115C82.1879 49.9906 82.1316 50.4896 82.16 50.9875C82.0194 51.1285 81.8414 51.2262 81.6471 51.2693C81.4527 51.3123 81.2501 51.2987 81.0632 51.2302Z" fill="#E0E0E0"/>
<path d="M93.4192 55.4106C93.7221 53.4145 94.4998 51.5204 95.6871 49.8875C97.3241 47.4868 99.5257 45.5249 102.098 44.1744L102.107 42.1699C102.107 42.1699 111.406 44.1127 111.555 50.2872C103.453 49.5053 100.389 53.5819 99.504 55.9502C98.8826 57.5646 98.363 58.8053 97.4011 58.7478C97.1547 58.7515 96.916 58.6624 96.7323 58.4982C96.5486 58.3341 96.4332 58.1069 96.4092 57.8617C96.2734 57.9959 96.1013 58.0872 95.9141 58.1245C95.727 58.1618 95.533 58.1434 95.3562 58.0715C95.1795 57.9997 95.0276 57.8776 94.9195 57.7203C94.8115 57.563 94.7519 57.3775 94.7482 57.1867C94.5754 57.2614 94.383 57.2779 94.2 57.2337C94.017 57.1896 93.8533 57.0872 93.7336 56.942C93.5773 56.7227 93.4686 56.4732 93.4145 56.2095C93.3603 55.9458 93.3619 55.6736 93.4192 55.4106Z" fill="#F9F9F9"/>
<path d="M93.7266 56.9286C93.8039 56.9606 93.8869 56.9763 93.9705 56.9748C94.054 56.9733 94.1364 56.9545 94.2124 56.9197C94.2885 56.8849 94.3565 56.8348 94.4123 56.7725C94.468 56.7102 94.5104 56.6371 94.5366 56.5578C94.6721 56.1941 94.8531 55.8491 95.0754 55.531C94.8759 56.0632 94.7674 56.6252 94.7545 57.1934C94.578 57.2691 94.3814 57.2842 94.1954 57.2363C94.0094 57.1884 93.8446 57.0802 93.7266 56.9286Z" fill="#E0E0E0"/>
<path d="M95.2723 58.0107C95.4745 58.0042 95.6691 57.9319 95.8264 57.8047C95.9837 57.6775 96.0952 57.5024 96.1439 57.3061C96.2301 56.9424 96.4087 56.6071 96.6624 56.3327C96.4914 56.8152 96.4035 57.3231 96.4023 57.835C96.2511 57.9705 96.0639 58.0592 95.8634 58.0903C95.6628 58.1215 95.4575 58.0939 95.2723 58.0107Z" fill="#E0E0E0"/>
<path d="M89.1081 38.0603C88.6264 38.2187 88.1378 38.4038 87.6559 38.6089C90.2175 41.1951 93.3423 43.1541 96.7862 44.3328C100.282 45.5233 105.505 46.2331 110.149 44.5752C111.126 44.2238 112.009 43.6512 112.728 42.9021C112.321 42.4599 111.987 41.9555 111.739 41.4079" fill="#E0E0E0"/>
<path d="M99.631 22.0611C98.4736 19.1632 94.1047 15.724 90.7382 17.0665C88.8442 17.8204 90.1511 24.9218 90.1511 24.9218C90.1511 24.9218 96.4853 24.9413 99.631 22.0611Z" fill="#E0E0E0"/>
<path d="M96.8057 23.7265C94.6567 24.4859 92.3981 24.8896 90.1191 24.9216C90.1191 24.9216 88.8121 17.8202 90.7061 17.0663C91.9835 16.7843 95.177 18.4813 96.8057 23.7265Z" fill="#FFA8A7"/>
<path d="M92.5374 21.3903C92.6263 20.7611 92.4816 20.1211 92.1306 19.5913C93.2869 19.5025 94.8927 20.5849 95.1721 22.5037C95.1721 22.5037 93.4349 25.7105 90.8947 24.377C90.6338 23.8954 90.2921 23.4623 89.8844 23.0966C89.8263 22.6019 89.7751 22.0471 89.7441 21.479C90.6596 21.2606 91.6099 21.2304 92.5374 21.3903Z" fill="#F28F8F"/>
<path d="M108.246 24.6491C110.839 22.9226 116.387 22.5781 118.399 25.5998C119.528 27.295 113.571 33.03 113.571 33.03C113.571 33.03 109.185 28.8023 108.246 24.6491Z" fill="#E0E0E0"/>
<path d="M109.61 27.6282C111.476 30.3821 113.563 33.03 113.563 33.03C113.563 33.03 119.52 27.295 118.391 25.5999C117.527 24.6542 113.94 24.2384 109.61 27.6282Z" fill="#FFA8A7"/>
<path d="M113.33 31.6325C113.627 31.4022 113.963 31.225 114.321 31.1088C114.676 30.7361 115.079 30.2901 115.489 29.8174C114.861 29.1154 114.097 28.5485 113.244 28.151C113.525 27.5854 114.001 27.1409 114.585 26.9004C113.673 26.1683 111.601 26.3335 110.573 27.7658C110.573 28.5015 110.722 29.2294 111.012 29.9057C111.457 30.4354 111.869 30.8982 112.215 31.2471C112.555 31.4536 112.935 31.585 113.33 31.6325Z" fill="#F28F8F"/>
<path d="M97.1781 43.0916C100.294 44.1536 104.949 44.7875 109.084 43.3079C114.009 41.5443 114.312 34.4228 113.143 31.1907C111.974 27.9586 109.522 24.6878 103.91 22.7803C98.299 20.8729 94.3856 21.9726 91.4981 23.8248C88.6106 25.6771 84.5641 31.5202 87.439 35.9286C89.7957 39.6334 94.0554 42.0364 97.1781 43.0916Z" fill="#FAFAFA"/>
<path d="M97.2079 42.3501C90.9826 40.233 91.3327 36.3724 92.9161 34.7887C94.4996 33.205 97.1071 32.8015 100.083 33.7894C103.059 34.7772 104.875 36.7358 105.18 38.9621C105.485 41.1883 103.427 44.4672 97.2079 42.3501Z" fill="#E0E0E0"/>
<path d="M98.974 37.0989L100.438 36.8845C100.494 36.8734 100.543 36.842 100.577 36.7964C100.61 36.7508 100.626 36.6943 100.62 36.638C100.617 36.6112 100.61 36.5852 100.597 36.5616C100.584 36.5379 100.566 36.5172 100.545 36.5008C100.524 36.4844 100.499 36.4726 100.473 36.4661C100.447 36.4597 100.42 36.4587 100.393 36.4634L99.1162 36.6519L98.1779 35.7326C98.1598 35.7124 98.1377 35.6963 98.113 35.6852C98.0883 35.6741 98.0616 35.6684 98.0345 35.6682C98.0074 35.6681 97.9806 35.6737 97.9558 35.6846C97.9311 35.6954 97.9088 35.7114 97.8906 35.7314C97.8538 35.7728 97.8333 35.8261 97.8331 35.8815C97.8329 35.9368 97.8529 35.9904 97.8893 36.0321L98.974 37.0989Z" fill="#455A64"/>
<path d="M100.019 40.2571C100.269 40.2474 100.514 40.1798 100.735 40.0596C101.139 39.8419 101.444 39.4772 101.587 39.0408C101.605 38.9894 101.603 38.9331 101.581 38.8833C101.559 38.8335 101.518 38.7941 101.468 38.773C101.415 38.7581 101.358 38.7642 101.31 38.7902C101.261 38.8161 101.224 38.8599 101.207 38.9123C101.09 39.2457 100.85 39.5219 100.536 39.6846C100.391 39.7636 100.231 39.8118 100.066 39.8261C99.9019 39.8403 99.7362 39.8204 99.5798 39.7675C99.4201 39.7129 99.2739 39.6248 99.151 39.509C99.0282 39.3933 98.9316 39.2526 98.8676 39.0964C98.7198 38.7794 98.7021 38.4171 98.8184 38.0872L99.2107 36.9195C99.2205 36.8941 99.2252 36.8671 99.2245 36.8398C99.2238 36.8126 99.2177 36.7858 99.2066 36.761C99.1956 36.7361 99.1797 36.7136 99.16 36.6949C99.1402 36.6762 99.117 36.6615 99.0916 36.6518C99.0385 36.6368 98.9817 36.643 98.933 36.6689C98.8843 36.6949 98.8476 36.7386 98.8304 36.791L98.438 37.9587C98.2884 38.3959 98.3103 38.8736 98.4993 39.2953C98.5888 39.4958 98.7181 39.6759 98.8795 39.8248C99.0409 39.9736 99.2308 40.0881 99.4379 40.1611C99.6237 40.2294 99.8208 40.262 100.019 40.2571Z" fill="#455A64"/>
<path d="M97.2729 39.3236C97.5241 39.3173 97.7698 39.2495 97.9887 39.1261C98.3944 38.9101 98.7002 38.5448 98.8415 38.1074L99.2339 36.9397C99.2436 36.9143 99.2483 36.8872 99.2476 36.86C99.2469 36.8328 99.2408 36.806 99.2298 36.7811C99.2187 36.7562 99.2029 36.7338 99.1831 36.7151C99.1634 36.6963 99.1401 36.6817 99.1147 36.6719C99.0616 36.657 99.0048 36.6631 98.9561 36.6891C98.9075 36.715 98.8707 36.7588 98.8535 36.8112L98.4612 37.9788C98.3438 38.3123 98.1037 38.5885 97.7898 38.7511C97.6448 38.8302 97.4851 38.8784 97.3206 38.8926C97.1561 38.9069 96.9904 38.887 96.834 38.8341C96.5136 38.7139 96.2538 38.4719 96.1111 38.1609C95.9685 37.8499 95.9546 37.4951 96.0724 37.1738C96.0832 37.1485 96.0886 37.1213 96.0884 37.0938C96.0881 37.0663 96.0822 37.0392 96.071 37.0141C96.0599 36.989 96.0436 36.9664 96.0234 36.9478C96.0031 36.9292 95.9793 36.915 95.9533 36.9061C95.9002 36.8911 95.8434 36.8973 95.7947 36.9232C95.746 36.9492 95.7093 36.9929 95.6921 37.0453C95.5387 37.4702 95.5583 37.9383 95.7465 38.349C95.9347 38.7596 96.2766 39.0799 96.6987 39.2411C96.883 39.3053 97.078 39.3333 97.2729 39.3236Z" fill="#455A64"/>
<path d="M92.967 30.5662C92.8924 30.8396 92.8996 31.129 92.9877 31.3984C93.0757 31.6678 93.2409 31.9055 93.4626 32.0821C93.6843 32.2587 93.953 32.3664 94.2353 32.3919C94.5176 32.4174 94.8012 32.3596 95.051 32.2257C95.3008 32.0917 95.5059 31.8875 95.6408 31.6383C95.7758 31.389 95.8347 31.1056 95.8104 30.8232C95.786 30.5408 95.6794 30.2718 95.5037 30.0493C95.3281 29.8268 95.0911 29.6608 94.822 29.5716C94.6349 29.5144 94.4384 29.4948 94.2437 29.5139C94.049 29.533 93.86 29.5904 93.6876 29.6829C93.5151 29.7753 93.3627 29.9009 93.2391 30.0525C93.1154 30.2041 93.023 30.3787 92.967 30.5662Z" fill="#455A64"/>
<path d="M107.675 35.5915C107.567 35.8527 107.385 36.0767 107.152 36.236C106.919 36.3953 106.644 36.483 106.362 36.4883C106.079 36.4935 105.801 36.4162 105.562 36.2657C105.323 36.1151 105.133 35.898 105.016 35.6411C104.898 35.3841 104.859 35.0984 104.901 34.8191C104.944 34.5398 105.068 34.2791 105.256 34.0691C105.445 33.859 105.692 33.7087 105.965 33.6366C106.238 33.5646 106.526 33.5739 106.794 33.6635C106.979 33.7313 107.149 33.8351 107.294 33.969C107.439 34.1029 107.555 34.2642 107.637 34.4436C107.719 34.6229 107.765 34.8167 107.771 35.0137C107.778 35.2108 107.745 35.4072 107.675 35.5915Z" fill="#455A64"/>
<path d="M111.647 37.8529C111.73 37.8472 111.807 37.8091 111.862 37.7469C112.514 36.9312 113.403 36.3371 114.407 36.0459C115.41 35.7546 116.479 35.7804 117.468 36.1197C117.507 36.1311 117.547 36.1345 117.588 36.13C117.628 36.1254 117.667 36.1129 117.703 36.0932C117.738 36.0735 117.769 36.0469 117.795 36.015C117.82 35.9831 117.838 35.9466 117.849 35.9075C117.864 35.8699 117.872 35.8297 117.871 35.7892C117.87 35.7487 117.861 35.7088 117.844 35.6719C117.827 35.6351 117.803 35.6019 117.773 35.5745C117.744 35.5471 117.709 35.526 117.67 35.5125C114.761 34.5316 112.671 35.9529 111.436 37.3175C111.377 37.3772 111.344 37.4574 111.344 37.541C111.343 37.6246 111.376 37.7051 111.434 37.7652C111.462 37.7932 111.495 37.8153 111.532 37.8304C111.568 37.8454 111.608 37.8531 111.647 37.8529Z" fill="#455A64"/>
<path d="M112.31 38.624C112.368 38.6208 112.423 38.6026 112.471 38.5712C113.044 38.2524 113.677 38.0575 114.33 37.9992C114.983 37.9409 115.641 38.0205 116.261 38.2328C116.298 38.2478 116.339 38.2551 116.379 38.2542C116.42 38.2533 116.459 38.2442 116.496 38.2275C116.533 38.2108 116.566 38.1868 116.594 38.157C116.621 38.1272 116.642 38.0922 116.656 38.054C116.69 37.9788 116.694 37.893 116.665 37.8153C116.637 37.7376 116.579 37.6743 116.504 37.6391C115.793 37.3921 115.038 37.2997 114.289 37.3681C113.539 37.4364 112.813 37.6639 112.159 38.0354C112.09 38.0827 112.041 38.1542 112.022 38.2358C112.003 38.3174 112.016 38.4031 112.057 38.476C112.081 38.5216 112.118 38.5596 112.163 38.5858C112.207 38.6119 112.259 38.6251 112.31 38.624Z" fill="#455A64"/>
<path d="M116.979 41.1557C117.025 41.1554 117.07 41.1445 117.11 41.1237C117.151 41.103 117.186 41.0731 117.213 41.0364C117.266 40.9718 117.292 40.8895 117.286 40.8063C117.28 40.723 117.243 40.6452 117.182 40.5886C116.437 39.9404 115.547 39.4819 114.587 39.2522C113.627 39.0225 112.625 39.0285 111.668 39.2696C111.589 39.2981 111.524 39.3546 111.484 39.4284C111.444 39.5022 111.433 39.5881 111.453 39.6696C111.462 39.7085 111.48 39.7451 111.504 39.7771C111.529 39.8091 111.559 39.836 111.594 39.8561C111.629 39.8761 111.667 39.889 111.707 39.894C111.747 39.899 111.787 39.8959 111.826 39.8849C112.688 39.6674 113.59 39.6633 114.455 39.873C115.319 40.0826 116.119 40.4997 116.785 41.0881C116.839 41.1348 116.908 41.1591 116.979 41.1557Z" fill="#455A64"/>
<path d="M89.0473 30.2492C89.1288 30.2333 89.2015 30.1877 89.2511 30.1212C89.3008 30.0547 89.324 29.9721 89.3161 29.8895C89.1566 28.0514 88.3514 25.6493 85.449 24.6484C85.3701 24.6274 85.2862 24.6372 85.2143 24.6758C85.1424 24.7145 85.088 24.7792 85.0621 24.8566C85.0362 24.934 85.0408 25.0184 85.075 25.0925C85.1092 25.1667 85.1704 25.225 85.246 25.2556C86.2332 25.5912 87.0944 26.2203 87.7142 27.0588C88.3341 27.8972 88.6831 28.905 88.7145 29.9472C88.7129 29.9899 88.7207 30.0325 88.7374 30.072C88.754 30.1114 88.779 30.1468 88.8107 30.1755C88.8424 30.2043 88.88 30.2258 88.9209 30.2385C88.9617 30.2513 89.0049 30.2549 89.0473 30.2492Z" fill="#455A64"/>
<path d="M88.0496 30.4589L88.1499 30.4593C88.2277 30.4269 88.2904 30.3663 88.3254 30.2896C88.3604 30.213 88.3652 30.1259 88.3387 30.0458C88.0423 29.3526 87.6026 28.7299 87.0485 28.2186C86.4945 27.7073 85.8385 27.319 85.1237 27.0792C85.0414 27.0576 84.9538 27.0696 84.8804 27.1125C84.8069 27.1555 84.7534 27.2258 84.7318 27.3081C84.7102 27.3904 84.7222 27.478 84.7651 27.5514C84.8081 27.6249 84.8784 27.6784 84.9607 27.7C85.5825 27.9105 86.1535 28.2484 86.6372 28.6922C87.1209 29.1361 87.5067 29.6759 87.7698 30.2774C87.7917 30.333 87.8305 30.3804 87.8806 30.4129C87.9308 30.4455 87.9899 30.4615 88.0496 30.4589Z" fill="#455A64"/>
<path d="M87.7379 31.814C87.8021 31.8141 87.864 31.7906 87.9119 31.7478C87.9788 31.6965 88.0232 31.6213 88.036 31.5379C88.0488 31.4546 88.029 31.3695 87.9806 31.3005C87.3698 30.5259 86.5808 29.9104 85.6808 29.5065C84.7809 29.1025 83.7966 28.9221 82.8119 28.9806C82.7286 28.9887 82.6515 29.0284 82.5966 29.0915C82.5416 29.1547 82.513 29.2365 82.5165 29.3201C82.5154 29.3599 82.5224 29.3994 82.537 29.4363C82.5516 29.4733 82.5736 29.5069 82.6016 29.5351C82.6296 29.5633 82.663 29.5856 82.6998 29.6005C82.7367 29.6155 82.7762 29.6228 82.8159 29.622C83.7035 29.5644 84.5918 29.7227 85.4048 30.0833C86.2179 30.4439 86.9315 30.9961 87.4845 31.6926C87.5128 31.7329 87.551 31.7651 87.5954 31.7864C87.6398 31.8076 87.6888 31.8171 87.7379 31.814Z" fill="#455A64"/>
<path d="M95.4333 22.2709C95.1645 21.0136 93.9816 19.4653 92.819 19.4605C93.1268 20.0162 93.2215 20.6651 93.0854 21.2857C93.0854 21.2857 90.122 20.4917 89.074 21.8704C89.589 22.0415 90.0528 22.3394 90.4225 22.7368C90.7921 23.1342 91.0559 23.6182 91.1893 24.1443C93.5818 25.6642 95.4333 22.2709 95.4333 22.2709Z" fill="#F5F5F5"/>
<path d="M110.907 27.7605C111.912 26.9495 113.584 26.7559 114.503 27.4881C113.919 27.7286 113.442 28.173 113.161 28.7387C113.161 28.7387 115.962 29.993 115.935 31.7435C115.473 31.5734 114.973 31.5316 114.49 31.6225C114.006 31.7135 113.555 31.9338 113.187 32.26C110.328 31.9074 110.907 27.7605 110.907 27.7605Z" fill="#F5F5F5"/>
<path d="M147.719 51.4057C147.702 51.5258 147.662 51.6415 147.6 51.7461C147.539 51.8507 147.457 51.9422 147.361 52.0153C147.264 52.0884 147.154 52.1418 147.036 52.1723C146.919 52.2028 146.796 52.2099 146.676 52.1932C146.556 52.1764 146.44 52.1362 146.336 52.0748C146.231 52.0133 146.14 51.9319 146.067 51.8351C145.994 51.7383 145.94 51.6281 145.91 51.5107C145.879 51.3933 145.872 51.271 145.889 51.1509C146.247 48.5265 145.28 46.5447 143.239 45.7277C142.104 45.3168 140.866 45.2912 139.716 45.6548C138.566 46.0185 137.568 46.7511 136.876 47.7393C135.727 49.3182 135.819 51.156 135.924 53.2879C136.06 55.9612 136.208 58.9819 133.764 61.9118C132.396 63.401 130.59 64.4162 128.607 64.8103L126.061 63.3298C128.393 63.1858 130.982 62.368 132.345 60.7299C134.36 58.3529 134.209 55.9335 134.08 53.3872C133.969 51.1149 133.852 48.7692 135.377 46.6641C136.313 45.3448 137.659 44.3712 139.205 43.8944C140.75 43.4176 142.41 43.4641 143.927 44.0267C146.129 44.8978 148.277 47.3054 147.719 51.4057Z" fill="#F7F7F7"/>
<path d="M147.071 98.7231C147.353 98.3431 147.698 98.0145 148.091 97.7517C148.318 97.5925 148.575 97.4821 148.847 97.4275C148.937 97.4041 149.032 97.4154 149.113 97.4591C149.195 97.5028 149.257 97.5757 149.287 97.6631C149.406 97.9844 149.532 98.3323 149.67 98.7939C149.808 99.2556 149.94 99.6704 150.079 100.132C150.217 100.594 150.355 101.055 150.487 101.51C150.619 101.965 150.731 102.373 150.83 102.721C150.756 102.885 150.656 103.036 150.534 103.167C150.391 103.323 150.229 103.459 150.051 103.573C149.946 103.646 149.831 103.704 149.71 103.745C149.634 103.77 149.552 103.77 149.476 103.744C149.423 103.72 149.379 103.68 149.349 103.63C149.303 103.545 149.265 103.455 149.237 103.362L149.059 102.694L147.518 103.683C147.477 103.93 147.443 104.19 147.408 104.451C147.374 104.711 147.332 104.978 147.291 105.225C147.214 105.314 147.131 105.399 147.043 105.478C146.948 105.572 146.842 105.654 146.728 105.724C146.636 105.803 146.53 105.862 146.415 105.9C146.3 105.937 146.179 105.951 146.059 105.942C145.912 105.901 145.839 105.767 145.833 105.54C145.821 105.429 145.821 105.317 145.835 105.206C145.835 105.086 145.876 104.952 145.897 104.792C145.917 104.632 145.979 104.284 146.041 103.944C146.102 103.603 146.164 103.236 146.239 102.836L146.471 101.607C146.56 101.186 146.635 100.786 146.71 100.412C146.785 100.038 146.853 99.6977 146.915 99.4039C146.976 99.1102 147.037 98.8766 147.071 98.7231ZM148.144 99.4959C148.075 99.8564 148 100.257 147.911 100.704C147.823 101.152 147.754 101.586 147.685 102.04L148.737 101.376C148.645 101.028 148.553 100.707 148.454 100.359C148.355 100.011 148.27 99.7436 148.197 99.4827L148.144 99.4959Z" fill="#455A64"/>
<path d="M153.499 101.442L153.164 101.641C153.039 101.716 152.909 101.782 152.776 101.84C152.645 101.907 152.511 101.966 152.374 102.019C152.253 102.065 152.127 102.098 151.999 102.118C151.685 102.163 151.519 101.989 151.507 101.608L151.321 96.4421C151.312 96.2965 151.342 96.1509 151.41 96.0215C151.478 95.8846 151.564 95.7569 151.665 95.6417C151.902 95.398 152.16 95.1755 152.436 94.9768C152.67 94.7908 152.914 94.6178 153.167 94.4586C153.538 94.2064 153.947 94.0163 154.379 93.8957C154.692 93.801 155.028 93.8213 155.327 93.9531C155.632 94.0996 155.869 94.356 155.992 94.6707C156.171 95.1266 156.262 95.6121 156.26 96.1017C156.28 96.6645 156.231 97.2276 156.113 97.7782C155.994 98.291 155.81 98.7864 155.566 99.2526C155.328 99.7063 155.032 100.127 154.685 100.505C154.329 100.865 153.931 101.179 153.499 101.442ZM152.963 100.104L153.197 99.9912C153.285 99.948 153.37 99.8993 153.452 99.8452C153.855 99.586 154.179 99.2194 154.385 98.7867C154.505 98.5396 154.589 98.2768 154.636 98.006C154.695 97.6935 154.717 97.3751 154.7 97.0575C154.702 96.3893 154.544 95.9677 154.291 95.7862C154.037 95.6048 153.717 95.6369 153.321 95.8891L153.08 96.0552C153 96.115 152.913 96.1814 152.832 96.2546L152.963 100.104Z" fill="#455A64"/>
<path d="M161.275 93.53C161.293 93.9785 161.253 94.4276 161.156 94.8658C161.063 95.2768 160.923 95.6755 160.737 96.0534C160.558 96.4169 160.332 96.7552 160.064 97.0596C159.798 97.3553 159.493 97.6147 159.159 97.8309C158.883 98.0204 158.571 98.1511 158.242 98.2147C157.995 98.2585 157.74 98.215 157.521 98.0914C157.298 97.9457 157.127 97.7317 157.036 97.4814C156.903 97.1334 156.834 96.764 156.833 96.3914C156.816 95.9584 156.856 95.5249 156.952 95.1023C157.045 94.6883 157.188 94.2872 157.378 93.9081C157.557 93.5408 157.783 93.1981 158.05 92.8885C158.313 92.5871 158.618 92.3251 158.956 92.1105C159.228 91.9156 159.542 91.7865 159.872 91.7335C160.12 91.6896 160.375 91.7332 160.594 91.8567C160.819 92.0006 160.989 92.2152 161.079 92.4668C161.208 92.8064 161.274 93.1666 161.275 93.53ZM158.3 95.4353C158.274 95.7566 158.357 96.0774 158.537 96.345C158.677 96.4993 158.864 96.5001 159.105 96.3474C159.36 96.1744 159.549 95.9211 159.643 95.628C159.766 95.2583 159.818 94.8684 159.794 94.4793C159.818 94.1613 159.737 93.8442 159.564 93.5764C159.425 93.4221 159.237 93.4213 158.996 93.574C158.745 93.7478 158.557 93.9976 158.459 94.2867C158.33 94.6552 158.276 95.0457 158.3 95.4353Z" fill="#455A64"/>
<path d="M163.677 94.6959C163.616 94.7625 163.516 94.8422 163.388 94.9553C163.261 95.0683 163.12 95.1546 162.993 95.2409C162.882 95.3096 162.765 95.3694 162.645 95.4199C162.562 95.4476 162.473 95.4472 162.391 95.4189C162.352 95.4021 162.317 95.3773 162.288 95.3461C162.26 95.3149 162.238 95.278 162.224 95.2378C162.182 95.0968 162.16 94.9504 162.159 94.8032L161.974 89.5974C161.964 89.4496 161.995 89.3019 162.063 89.1701C162.131 89.0353 162.217 88.9099 162.318 88.797C162.525 88.5736 162.749 88.3668 162.989 88.1784C163.224 87.9845 163.47 87.8048 163.726 87.6402C164.51 87.1423 165.118 86.9778 165.545 87.1466C165.972 87.3154 166.211 87.7707 166.208 88.5191C166.225 88.8756 166.194 89.2327 166.117 89.5811C166.034 89.9298 165.911 90.2678 165.752 90.5885C165.566 90.9172 165.34 91.2215 165.08 91.4945C164.808 91.7834 164.502 92.0379 164.168 92.2524L163.565 92.6374L163.677 94.6959ZM163.993 90.8619C164.221 90.7242 164.408 90.5292 164.537 90.2962C164.661 90.0554 164.718 89.7855 164.7 89.5151C164.702 89.2345 164.629 89.0604 164.482 88.993C164.342 88.9323 164.148 88.9916 163.887 89.1442L163.666 89.2903L163.485 89.4366L163.544 91.154L163.993 90.8619Z" fill="#455A64"/>
<path d="M168.402 89.8311C168.401 90.0182 168.461 90.1253 168.561 90.1458C168.704 90.154 168.846 90.1067 168.956 90.0138C169.048 89.9546 169.138 89.8903 169.224 89.8211C169.311 89.7413 169.391 89.6681 169.458 89.5949C169.516 89.6488 169.563 89.7123 169.598 89.7825C169.646 89.8825 169.669 89.9928 169.663 90.1036C169.671 90.3987 169.596 90.69 169.446 90.9446C169.236 91.2828 168.946 91.5638 168.601 91.7629C168.105 92.0816 167.71 92.1802 167.437 92.0588C167.164 91.9374 167.005 91.5425 166.981 90.8742L166.813 86.1429C166.896 86.0562 166.983 85.974 167.075 85.8967C167.192 85.7979 167.315 85.7069 167.444 85.6243C167.61 85.4898 167.818 85.4174 168.032 85.4196C168.179 85.4202 168.259 85.641 168.271 86.0086L168.268 86.7168L169.38 86.0065C169.425 86.0829 169.463 86.1636 169.492 86.2475C169.529 86.3691 169.548 86.495 169.551 86.6219C169.572 86.8502 169.534 87.0802 169.441 87.2896C169.364 87.4525 169.243 87.5907 169.092 87.6891L168.315 88.187L168.402 89.8311Z" fill="#455A64"/>
<path d="M175.741 85.3312C175.583 85.6211 175.351 85.8644 175.07 86.0367C174.918 86.1466 174.745 86.2233 174.561 86.2618C174.502 86.2736 174.44 86.262 174.389 86.2294C174.338 86.1968 174.302 86.1457 174.288 86.0869C174.11 85.5383 173.958 85.0967 173.839 84.7487C173.72 84.4008 173.635 84.1131 173.569 83.8456L173.522 83.8454C173.52 84.293 173.519 84.6939 173.517 85.0614C173.516 85.4289 173.514 85.7764 173.513 86.1171C173.511 86.4579 173.51 86.7853 173.508 87.1528C173.507 87.5203 173.505 87.9011 173.504 88.3287C173.416 88.4301 173.319 88.5236 173.215 88.6082C173.103 88.7052 172.984 88.794 172.86 88.874C172.691 89.0058 172.485 89.082 172.271 89.092C172.131 89.0915 172.051 88.9374 172.046 88.6635L172.07 82.8638C172.142 82.6844 172.239 82.5161 172.359 82.3639C172.53 82.1302 172.747 81.9334 172.996 81.7852C173.203 81.627 173.452 81.5328 173.712 81.5142C173.805 81.5264 173.892 81.5662 173.962 81.6284C174.032 81.6906 174.082 81.7725 174.105 81.8633C174.164 82.0106 174.224 82.1778 174.297 82.3652C174.369 82.5526 174.429 82.7533 174.495 82.9607C174.561 83.1681 174.633 83.3689 174.699 83.5763C174.765 83.7837 174.818 83.9643 174.871 84.1249L174.917 84.1251C175.027 83.4173 175.144 82.7296 175.26 82.0619C175.376 81.3942 175.486 80.8334 175.581 80.366C175.68 80.2393 175.788 80.1192 175.903 80.0066C176.043 79.8793 176.193 79.7637 176.352 79.661C176.55 79.5168 176.78 79.4237 177.022 79.3898C177.06 79.3853 177.1 79.3885 177.137 79.3993C177.174 79.4101 177.209 79.4282 177.24 79.4525C177.27 79.4769 177.295 79.5071 177.314 79.5413C177.332 79.5755 177.344 79.613 177.348 79.6517C177.347 79.7854 177.407 79.9927 177.445 80.3203C177.484 80.6479 177.516 80.9353 177.562 81.303C177.607 81.6707 177.645 82.0517 177.69 82.4661C177.736 82.8806 177.774 83.2683 177.813 83.6493C177.851 84.0303 177.883 84.3712 177.915 84.6921C177.947 85.0129 177.966 85.2535 177.972 85.4273C177.886 85.5548 177.787 85.673 177.677 85.7802C177.554 85.896 177.419 85.9985 177.275 86.0859C177.115 86.2053 176.925 86.2763 176.726 86.2908C176.572 86.2901 176.493 86.1562 176.467 85.8821C176.403 85.1001 176.36 84.3916 176.329 83.7501C176.298 83.1085 176.267 82.5872 176.235 82.1595L176.188 82.1593C176.147 82.4865 176.072 82.9004 175.983 83.4079C175.894 83.9153 175.871 84.5567 175.741 85.3312Z" fill="#455A64"/>
<path d="M181.068 83.7897C180.784 83.986 180.466 84.1274 180.13 84.2068C179.874 84.2705 179.603 84.2459 179.362 84.1368C179.119 84.0065 178.928 83.7954 178.824 83.5399C178.673 83.1659 178.595 82.7664 178.595 82.363C178.578 81.9024 178.625 81.4417 178.734 80.9938C178.839 80.5863 178.991 80.1923 179.186 79.8197C179.368 79.4805 179.594 79.1669 179.858 78.887C180.088 78.6325 180.349 78.4089 180.636 78.2221C180.884 78.0525 181.165 77.9354 181.46 77.8781C181.685 77.8333 181.918 77.86 182.127 77.9543C182.325 78.0589 182.482 78.2265 182.573 78.4306C182.691 78.6959 182.754 78.9827 182.757 79.2732C182.764 79.5041 182.715 79.7333 182.614 79.9408C182.505 80.1497 182.354 80.3335 182.17 80.4802L180.085 82.2355C180.105 82.3251 180.156 82.4046 180.23 82.46C180.303 82.5153 180.393 82.5429 180.485 82.5379C180.726 82.5246 180.958 82.4421 181.154 82.3001C181.397 82.1461 181.622 81.9655 181.824 81.7616C182.007 81.5767 182.173 81.3761 182.321 81.1624C182.42 81.1855 182.506 81.2457 182.561 81.3304C182.634 81.4344 182.673 81.5581 182.673 81.685C182.677 82.038 182.56 82.3816 182.342 82.6591C182.166 82.903 181.963 83.1263 181.738 83.3248C181.526 83.496 181.302 83.6514 181.068 83.7897ZM180.677 79.5987C180.544 79.6816 180.426 79.7874 180.329 79.9113C180.232 80.0258 180.153 80.1538 180.093 80.2912C180.036 80.4203 179.991 80.5543 179.958 80.6915C179.935 80.8195 179.921 80.9489 179.916 81.0789L181.365 79.8354C181.353 79.7708 181.329 79.7092 181.294 79.654C181.259 79.5988 181.213 79.5511 181.159 79.5138C181.046 79.4332 180.885 79.4659 180.677 79.5987Z" fill="#455A64"/>
<path d="M184.917 76.6763C184.91 76.3601 184.978 76.0467 185.115 75.7617C185.24 75.4764 185.445 75.2335 185.705 75.0625C185.96 74.8966 186.167 74.8707 186.321 74.9849C186.414 75.0674 186.486 75.1716 186.529 75.2882C186.573 75.4049 186.588 75.5305 186.572 75.6541C186.581 75.9705 186.513 76.2844 186.374 76.5687C186.247 76.8436 186.041 77.075 185.783 77.2344C185.529 77.4004 185.322 77.4263 185.168 77.3121C185.08 77.2327 185.012 77.134 184.968 77.0237C184.924 76.9133 184.907 76.7944 184.917 76.6763ZM185.043 80.1513C185.035 79.8336 185.1 79.5182 185.234 79.23C185.366 78.9559 185.573 78.725 185.831 78.5643C186.086 78.3983 186.293 78.3724 186.446 78.4867C186.533 78.5654 186.6 78.6632 186.643 78.7723C186.685 78.8815 186.702 78.9991 186.691 79.1157C186.703 79.4338 186.638 79.7501 186.5 80.037C186.371 80.3106 186.166 80.5416 185.909 80.7028C185.648 80.8687 185.448 80.8946 185.294 80.7804C185.207 80.702 185.138 80.6045 185.095 80.4953C185.051 80.3862 185.034 80.2684 185.043 80.1513Z" fill="#455A64"/>
<path d="M189.473 75.733C189.505 76.4466 189.477 77.1617 189.391 77.8708C189.319 78.4556 189.2 79.0338 189.036 79.5999C188.944 79.9163 188.819 80.2225 188.665 80.5138C188.536 80.7813 188.339 81.0108 188.094 81.1796C188.036 81.2239 187.969 81.255 187.897 81.2709C187.825 81.2868 187.751 81.2869 187.68 81.2714C187.568 81.2449 187.468 81.1837 187.393 81.0965C187.521 80.7429 187.63 80.3892 187.725 80.0355C187.82 79.6817 187.895 79.3279 187.956 78.9674C188.019 78.596 188.061 78.2214 188.081 77.8453C188.103 77.4403 188.105 77.0345 188.086 76.6293C188.073 76.2445 188.039 75.8607 187.984 75.4796C187.945 75.1691 187.879 74.8626 187.788 74.5634C187.715 74.3101 187.615 74.0655 187.49 73.8339C187.383 73.6221 187.254 73.4223 187.105 73.2376C187.169 73.0526 187.255 72.8758 187.361 72.7108C187.462 72.5408 187.599 72.3953 187.764 72.2848C187.844 72.2143 187.942 72.1677 188.047 72.1504C188.152 72.1332 188.26 72.1459 188.359 72.1871C188.531 72.2855 188.675 72.4264 188.778 72.5964C188.99 72.9749 189.144 73.3833 189.234 73.8077C189.378 74.4398 189.458 75.0848 189.473 75.733Z" fill="#455A64"/>
<path d="M60.5621 43.2896C60.0373 42.5307 59.254 41.989 58.3588 41.7658C57.8389 41.6386 57.2981 41.6224 56.7716 41.7182C56.2451 41.8141 55.7447 42.0198 55.303 42.322C53.7034 43.4019 53.5776 46.0607 54.4352 47.7355C53.176 46.3311 50.6633 45.4816 49.0733 46.5729C48.6303 46.8744 48.2562 47.2663 47.9756 47.7228C47.695 48.1793 47.5143 48.69 47.4453 49.2214C47.3337 50.1353 47.5599 51.0585 48.0814 51.8173C49.7763 54.2981 53.0086 54.0976 56.0506 54.4116L59.2449 54.7295L60.0532 51.6558C60.8934 48.7119 62.257 45.7705 60.5621 43.2896Z" fill="#9998D3"/>
<path d="M218.014 93.4386C218.418 92.6098 218.509 91.6627 218.27 90.772C218.131 90.255 217.883 89.7736 217.543 89.3596C217.203 88.9456 216.78 88.6084 216.3 88.3705C214.577 87.5001 212.194 88.6863 211.15 90.2514C211.767 88.4724 211.28 85.8593 209.552 85.003C209.078 84.7587 208.557 84.6171 208.025 84.5874C207.492 84.5577 206.96 84.6405 206.461 84.8305C205.611 85.1827 204.917 85.8291 204.505 86.6513C203.17 89.336 204.92 92.07 206.129 94.8697L207.408 97.8137L210.532 97.0702C213.441 96.371 216.674 96.1278 218.014 93.4386Z" fill="#9998D3"/>
<path d="M79.0792 12.0182C79.0195 11.4531 78.7497 10.9378 78.3207 10.5696C78.0731 10.3593 77.7804 10.2049 77.4621 10.1167C77.1437 10.0285 76.807 10.0085 76.4742 10.058C75.2766 10.2288 74.4197 11.6463 74.3898 12.7964C74.1216 11.687 72.999 10.5484 71.8013 10.7193C71.4695 10.7656 71.1486 10.8802 70.8598 11.0556C70.571 11.231 70.321 11.463 70.1264 11.7364C69.7927 12.2098 69.6415 12.779 69.7008 13.3374C69.8875 15.1514 71.7213 15.9128 73.288 16.8981L74.9547 17.921L76.3445 16.4577C77.6468 15.0794 79.2681 13.8356 79.0792 12.0182Z" fill="#9998D3"/>
<path d="M214.275 27.0308C214.679 26.1986 214.758 25.2453 214.495 24.3581C214.346 23.8484 214.09 23.3762 213.745 22.973C213.399 22.5698 212.972 22.2448 212.491 22.0195C210.774 21.1977 208.448 22.4004 207.433 23.9639C208.014 22.2 207.493 19.6275 205.769 18.8057C205.292 18.5782 204.772 18.4541 204.243 18.4414C203.715 18.4288 203.19 18.5278 202.702 18.7322C201.856 19.089 201.169 19.7424 200.771 20.5696C199.495 23.2423 201.272 25.915 202.508 28.6611L203.845 31.5476L206.918 30.7525C209.811 29.9975 212.999 29.7101 214.275 27.0308Z" fill="#9998D3"/>
<path d="M31.9992 49.4499L62.7852 31.68V-26L31.9992 -8.22331V49.4499Z" fill="#BAD5DB"/>
<path opacity="0.55" d="M31.9992 49.4499L62.7852 31.68V-26L31.9992 -8.22331V49.4499Z" fill="white"/>
<path d="M35.9259 18.8659C36.0755 18.8665 36.2222 18.8252 36.3496 18.7466C36.4769 18.6681 36.5797 18.5555 36.6464 18.4215L47.6558 -3.34818L58.342 5.45936C58.4242 5.527 58.519 5.57779 58.6208 5.60882C58.7227 5.63984 58.8297 5.6505 58.9357 5.64019C59.0416 5.62987 59.1446 5.59878 59.2385 5.54869C59.3325 5.4986 59.4157 5.43049 59.4833 5.34825C59.551 5.26602 59.6018 5.17126 59.6328 5.0694C59.6638 4.96753 59.6745 4.86056 59.6642 4.75457C59.6538 4.64859 59.6227 4.54568 59.5726 4.45171C59.5226 4.35774 59.4545 4.27456 59.3722 4.20691L47.9251 -5.22012C47.8327 -5.29687 47.7242 -5.35184 47.6076 -5.38098C47.4911 -5.41012 47.3694 -5.41268 47.2518 -5.38846C47.1326 -5.36223 47.0207 -5.30999 46.9241 -5.23549C46.8275 -5.16099 46.7485 -5.06607 46.6929 -4.95751L35.2458 17.7078C35.1971 17.8027 35.1677 17.9064 35.1593 18.0128C35.1509 18.1191 35.1637 18.2261 35.1969 18.3276C35.23 18.429 35.283 18.5228 35.3526 18.6037C35.4223 18.6845 35.5072 18.7508 35.6026 18.7986C35.7043 18.8438 35.8145 18.8668 35.9259 18.8659Z" fill="#37474F"/>
<path d="M39.009 29.8956C39.1504 29.8934 39.2892 29.8564 39.413 29.7878L43.1434 27.6802C43.2612 27.6102 43.3598 27.512 43.4303 27.3945C43.5008 27.277 43.541 27.1438 43.5474 27.0069V18.6101C43.5474 14.9874 45.4934 10.7991 47.7963 9.47259C48.0782 9.26441 48.4118 9.13741 48.7608 9.10536C49.1098 9.07331 49.4609 9.13744 49.776 9.29078C50.685 9.816 51.2305 11.3109 51.2305 13.2434V21.5729C51.235 21.7102 51.2745 21.8441 51.3452 21.9619C51.4159 22.0797 51.5154 22.1776 51.6344 22.2462C51.7585 22.3171 51.899 22.3543 52.0418 22.3543C52.1847 22.3543 52.3251 22.3171 52.4492 22.2462L56.1864 20.1049C56.3054 20.0363 56.405 19.9385 56.4757 19.8206C56.5464 19.7028 56.5858 19.5689 56.5904 19.4316V2.25417C56.6007 2.14141 56.5873 2.02774 56.5512 1.92041C56.5151 1.81309 56.457 1.71447 56.3807 1.63084C56.3044 1.54722 56.2114 1.48042 56.1078 1.43472C56.0042 1.38902 55.8922 1.36542 55.779 1.36542C55.6657 1.36542 55.5537 1.38902 55.4501 1.43472C55.3465 1.48042 55.2536 1.54722 55.1773 1.63084C55.1009 1.71447 55.0428 1.81309 55.0067 1.92041C54.9706 2.02774 54.9573 2.14141 54.9676 2.25417V18.9266L52.86 20.1521V13.2434C52.86 10.6712 52.0317 8.71842 50.5908 7.85652C50.0309 7.55912 49.4009 7.41898 48.7678 7.45099C48.1346 7.483 47.522 7.68598 46.995 8.03833C44.1534 9.6746 41.9381 14.3073 41.9381 18.5831V26.4682L39.8237 27.6802V11.9304C39.8237 11.716 39.7386 11.5105 39.5871 11.359C39.4355 11.2075 39.23 11.1223 39.0157 11.1223C38.8014 11.1223 38.5959 11.2075 38.4443 11.359C38.2928 11.5105 38.2077 11.716 38.2077 11.9304V29.0808C38.2122 29.2181 38.2517 29.352 38.3224 29.4699C38.3931 29.5877 38.4926 29.6855 38.6117 29.7542C38.73 29.8343 38.8667 29.8829 39.009 29.8956Z" fill="#37474F"/>
<path d="M45.2709 21.62C45.6345 20.2732 46.7186 17.9771 47.392 17.5798C48.0654 17.1825 49.1562 18.1858 49.5198 19.1353C49.8834 20.0847 49.7892 21.4988 48.9407 22.1654C48.0923 22.832 47.8499 21.8826 47.3987 22.1654C46.9476 22.4482 46.7254 23.6602 45.8635 23.9835C45.0016 24.3067 44.914 22.9667 45.2709 21.62Z" fill="#9998D3"/>
<path d="M47.7362 14.5564C47.6756 15.4587 47.9718 16.0445 48.4095 15.9031C48.8472 15.7617 49.2377 14.8594 49.3051 13.9639C49.3724 13.0683 49.0694 12.469 48.6317 12.6171C48.194 12.7653 47.8035 13.6541 47.7362 14.5564Z" fill="#9998D3"/>
<path d="M49.581 16.0648C49.4868 16.893 49.7292 17.4788 50.113 17.3576C50.4968 17.2364 50.8873 16.4755 50.9816 15.6405C51.0759 14.8056 50.8335 14.2332 50.4429 14.3477C50.0524 14.4622 49.6686 15.2298 49.581 16.0648Z" fill="#9998D3"/>
<path d="M47.028 14.9672C47.0706 15.3419 47.0325 15.7215 46.9164 16.0803C46.8002 16.4392 46.6087 16.7691 46.3547 17.0479C45.9237 17.3778 45.5197 16.9738 45.4524 16.1523C45.409 15.7775 45.4466 15.3977 45.5628 15.0387C45.679 14.6797 45.871 14.3499 46.1257 14.0716C46.5567 13.7417 46.9607 14.1457 47.028 14.9672Z" fill="#9998D3"/>
<path d="M45.2046 18.6168C45.2586 18.955 45.239 19.3009 45.1472 19.6309C45.0554 19.961 44.8935 20.2673 44.6727 20.5291C44.2889 20.8658 43.8983 20.5291 43.804 19.8558C43.7508 19.5169 43.7702 19.1707 43.8607 18.8398C43.9512 18.509 44.111 18.2012 44.3293 17.9367C44.74 17.5798 45.1036 17.8895 45.2046 18.6168Z" fill="#9998D3"/>
<path d="M60.8586 22.5567C60.8998 22.4222 60.9314 22.2849 60.9528 22.1459C60.9852 21.9818 61.001 21.8149 61 21.6477C61 21.3379 60.9596 21.1494 60.8653 21.0618C60.817 21.0219 60.7563 21 60.6936 21C60.6309 21 60.5702 21.0219 60.5219 21.0618L57.1551 22.9944C57.108 23.1276 57.0742 23.2652 57.0541 23.4051C57.0217 23.5692 57.0059 23.7361 57.0069 23.9034C56.9807 24.1085 57.0284 24.3162 57.1416 24.4892C57.2292 24.57 57.3436 24.57 57.4918 24.4892L58.3402 24.0044V29.4519L58.6028 29.3711C58.7262 29.3223 58.8456 29.2637 58.9597 29.196C59.0687 29.1329 59.1723 29.0608 59.2694 28.9805C59.36 28.8988 59.4373 28.8033 59.4984 28.6977C59.5643 28.583 59.6099 28.4577 59.633 28.3274C59.6682 28.1546 59.684 27.9784 59.6802 27.8022V23.23L60.8586 22.5567Z" fill="#455A64"/>
<path d="M46.0021 32.5023C45.9872 33.0162 46.0508 33.5294 46.1907 34.0241C46.2784 34.3609 46.4552 34.6679 46.7024 34.9129C46.8054 35.0084 46.9262 35.0825 47.058 35.1311C47.1897 35.1796 47.3298 35.2016 47.4701 35.1957C47.8079 35.1811 48.1356 35.0765 48.4195 34.8927C48.7789 34.6811 49.1018 34.4128 49.3757 34.0982C49.6811 33.7424 49.9391 33.3486 50.1433 32.9265C50.3733 32.4523 50.5473 31.9529 50.6618 31.4384C50.7916 30.8708 50.8549 30.2901 50.8503 29.7079C50.8626 29.1923 50.8014 28.6776 50.6685 28.1793C50.5813 27.8403 50.4045 27.531 50.1568 27.2838C50.0538 27.1883 49.933 27.1142 49.8012 27.0656C49.6695 27.0171 49.5294 26.9951 49.3891 27.0009C49.045 27.0212 48.7116 27.1277 48.4195 27.3107C48.0576 27.5271 47.7325 27.7999 47.4566 28.1187C47.1503 28.4763 46.8922 28.8725 46.689 29.2971C46.4645 29.7723 46.2951 30.2716 46.1839 30.7852C46.0604 31.3492 45.9994 31.925 46.0021 32.5023ZM47.3488 31.7077C47.3319 31.1066 47.4302 30.5077 47.6384 29.9435C47.7736 29.5447 48.0393 29.2031 48.3926 28.9739C48.4479 28.9274 48.5121 28.8926 48.5814 28.8717C48.6506 28.8508 48.7234 28.8443 48.7952 28.8525C48.867 28.8607 48.9365 28.8834 48.9992 28.9194C49.062 28.9553 49.1167 29.0036 49.1602 29.0614C49.3943 29.5034 49.4927 30.0047 49.443 30.5024C49.4606 31.0981 49.3669 31.6918 49.1669 32.2532C49.0277 32.6555 48.7574 32.9993 48.3993 33.2295C48.3441 33.275 48.2803 33.3089 48.2118 33.3291C48.1432 33.3494 48.0713 33.3556 48.0002 33.3474C47.9292 33.3393 47.8606 33.3169 47.7984 33.2816C47.7362 33.2463 47.6818 33.1988 47.6384 33.142C47.4106 32.7005 47.3192 32.2013 47.3758 31.7077H47.3488Z" fill="#455A64"/>
<path d="M42.7666 30.4043C42.6646 30.4595 42.5657 30.5202 42.4703 30.5861C42.3558 30.6602 42.2414 30.741 42.1202 30.8352C41.999 30.9295 41.8778 31.0238 41.7565 31.1315C41.6366 31.2335 41.5262 31.3462 41.4266 31.4682C41.1541 31.7715 41.003 32.1647 41.0024 32.5725V38.0536C40.9908 38.1727 41.0218 38.292 41.0899 38.3903C41.123 38.4187 41.1617 38.4399 41.2034 38.4527C41.2451 38.4654 41.289 38.4694 41.3323 38.4644C41.5654 38.4422 41.7931 38.3808 42.0057 38.2826C42.2369 38.187 42.4618 38.0768 42.679 37.9526C43.08 37.7244 43.4453 37.4385 43.7632 37.1042C44.0988 36.7579 44.3803 36.3629 44.5981 35.9326C44.843 35.4643 45.0264 34.9664 45.1435 34.4512C45.2748 33.8633 45.338 33.2623 45.3321 32.66C45.3456 32.1422 45.2844 31.6251 45.1503 31.1248C45.0653 30.7876 44.8826 30.4831 44.6251 30.2494C44.5126 30.1562 44.3824 30.0867 44.2424 30.045C44.1024 30.0034 43.9554 29.9904 43.8103 30.007C43.4366 30.058 43.0796 30.1939 42.7666 30.4043ZM42.3356 32.3705L42.5444 32.2089C42.6252 32.155 42.6993 32.1011 42.7733 32.0607C42.9173 31.9691 43.0813 31.9136 43.2514 31.8991C43.3216 31.8973 43.3913 31.9102 43.4563 31.9368C43.5212 31.9635 43.5798 32.0034 43.6285 32.054C43.7527 32.1952 43.8365 32.3674 43.8709 32.5523C43.9373 32.846 43.9667 33.1469 43.9584 33.4479C43.9762 34.0581 43.8685 34.6654 43.642 35.2323C43.4722 35.6607 43.1703 36.024 42.78 36.2692L42.5646 36.3837L42.3356 36.478V32.3705Z" fill="#455A64"/>
<path d="M39.1778 33.0228C39.0494 32.9924 38.9157 32.9924 38.7873 33.0228C38.5983 33.0541 38.4175 33.1228 38.2553 33.2248C38.0007 33.3714 37.7729 33.5604 37.582 33.7837C37.3925 33.9978 37.2625 34.2578 37.2049 34.5378C37.1106 35.0025 37.0096 35.5344 36.9019 36.1404C36.7941 36.7465 36.6931 37.3659 36.5854 38.0056C36.4777 38.6453 36.3699 39.2783 36.2689 39.8978C36.1679 40.5173 36.0804 41.0694 35.9996 41.5475C36.034 41.5854 36.0771 41.6144 36.1252 41.632C36.1733 41.6496 36.2249 41.6553 36.2756 41.6485C36.4314 41.6354 36.5816 41.5845 36.7133 41.5004C36.8239 41.4345 36.9276 41.3578 37.0231 41.2714C37.1041 41.1961 37.1743 41.11 37.2318 41.0156C37.2888 40.9117 37.3318 40.8007 37.3597 40.6856C37.3597 40.5711 37.4204 40.4297 37.4473 40.2816L37.5887 39.3928L38.9758 38.5915C39.0162 38.8002 39.0566 39.0224 39.097 39.2648C39.1374 39.5072 39.1778 39.716 39.2182 39.9382C39.2944 39.9444 39.371 39.9444 39.4472 39.9382C39.547 39.9091 39.6423 39.8661 39.73 39.8102C39.9677 39.6857 40.1676 39.4996 40.3091 39.2716C40.4332 39.069 40.4985 38.8358 40.4976 38.5982C40.5005 38.4917 40.4892 38.3852 40.4639 38.2817C40.4639 38.1874 40.4235 38.0662 40.3966 37.9316C40.3697 37.7969 40.3158 37.5074 40.2485 37.2582C40.1811 37.0091 40.1138 36.6791 40.0397 36.3559C39.9657 36.0327 39.8781 35.6825 39.7906 35.3728L39.5482 34.4234C39.4741 34.1271 39.4 33.8645 39.3394 33.6288C39.2788 33.3931 39.2182 33.144 39.1778 33.0228ZM38.262 35.0429L38.5045 36.0058C38.5898 36.3649 38.6706 36.7285 38.7469 37.0966L37.7974 37.6488C37.8648 37.1841 37.9388 36.7263 38.0129 36.302L38.2149 35.0967L38.262 35.0429Z" fill="#455A64"/>
<path d="M46.2886 1.41921C46.8475 1.096 47.3189 1.46635 47.3929 2.26091C47.4123 1.84941 47.5212 1.44708 47.7119 1.08193C47.9026 0.716779 48.1706 0.397584 48.4972 0.146562C49.1033 -0.210319 49.6016 0.267767 49.6016 1.21047C49.6016 2.99487 48.4299 4.82641 47.9855 5.51997L47.3929 6.44921L46.7936 6.2068C46.2906 6.03746 45.8584 5.70506 45.5657 5.26229C45.2729 4.81951 45.1364 4.2917 45.1776 3.7625C45.1689 3.31259 45.2647 2.8668 45.4575 2.46019C45.6503 2.05358 45.9348 1.69725 46.2886 1.41921Z" fill="#9998D3"/>
<path d="M32.9685 46.568C32.9646 46.3855 33.0033 46.2046 33.0816 46.0398C33.16 45.875 33.2757 45.7307 33.4197 45.6185C33.6688 45.4704 33.8708 45.6657 33.8708 46.0495C33.8748 46.2329 33.8361 46.4147 33.7578 46.5806C33.6795 46.7466 33.5638 46.8921 33.4197 47.0056C33.1705 47.147 32.9685 46.9518 32.9685 46.568Z" fill="#37474F"/>
<path d="M61.8084 29.9225C61.8084 29.5387 61.6064 29.3434 61.3573 29.4848C61.214 29.5991 61.0988 29.7447 61.0206 29.9105C60.9424 30.0762 60.9032 30.2577 60.9061 30.441C60.9061 30.8248 61.1081 31.0201 61.3573 30.8787C61.5006 30.7644 61.6158 30.6188 61.694 30.453C61.7722 30.2872 61.8114 30.1057 61.8084 29.9225Z" fill="#37474F"/>
<path d="M53.6303 31.1892C53.5733 31.252 53.4785 31.3271 53.3584 31.4337C53.2383 31.5403 53.1057 31.6216 52.9857 31.703C52.8808 31.7677 52.7711 31.8241 52.6575 31.8717C52.5798 31.8978 52.4956 31.8974 52.4181 31.8707C52.3815 31.8549 52.3485 31.8315 52.3215 31.8021C52.2945 31.7727 52.274 31.7379 52.2614 31.7C52.2211 31.5672 52.2004 31.4292 52.2001 31.2904L52.0252 26.3831C52.0162 26.2438 52.0451 26.1047 52.1087 25.9804C52.1735 25.8533 52.2545 25.7351 52.3495 25.6287C52.5447 25.4181 52.7561 25.2231 52.9818 25.0455C53.2031 24.8628 53.4352 24.6934 53.6767 24.5382C54.4156 24.0689 54.9894 23.9138 55.3918 24.0729C55.7942 24.2321 56.0192 24.6613 56.0163 25.3667C56.0323 25.7027 56.0034 26.0394 55.9303 26.3678C55.8523 26.6965 55.7369 27.0151 55.5862 27.3175C55.4113 27.6273 55.1986 27.9141 54.9528 28.1714C54.6966 28.4438 54.4079 28.6837 54.0933 28.8859L53.5249 29.2488L53.6303 31.1892ZM53.9287 27.5751C54.1433 27.4454 54.32 27.2615 54.441 27.0419C54.5581 26.8149 54.6114 26.5605 54.5953 26.3056C54.5963 26.0411 54.5277 25.877 54.3894 25.8135C54.2574 25.7562 54.0745 25.8122 53.8283 25.956L53.6199 26.0937L53.4492 26.2316L53.5055 27.8505L53.9287 27.5751Z" fill="#455A64"/>
</svg>
