<svg width="24" height="25" viewBox="0 0 24 25" fill="none" xmlns="http://www.w3.org/2000/svg">
<path d="M13.8956 4.25487C13.8303 4.77938 13.3811 5.32873 12.6923 5.53492C11.2128 5.97393 10.0833 4.98152 10.0833 4.06733C10.0833 3.78176 10.1682 3.51606 10.3208 3.28033L11.98 0.770476L13.641 3.28311L13.651 3.29816L13.6616 3.31272C13.8517 3.57227 13.9398 3.89147 13.8956 4.25487ZM12.5833 9.88196V10.632H13.3333H20C21.8988 10.632 23.2465 11.9462 23.2367 13.3772H23.2367V13.3824V15.0337C23.2367 15.7974 22.6076 16.574 21.6486 16.6842C21.0095 16.7559 20.4251 16.5724 20.0263 16.2245L17.1863 13.7475L16.6945 13.3185L16.2017 13.7464L13.3483 16.2234L13.347 16.2245C12.6162 16.862 11.3705 16.862 10.6396 16.2245L7.79965 13.7475L7.30782 13.3185L6.815 13.7464L3.96167 16.2234L3.96163 16.2233L3.95493 16.2293C3.49082 16.642 2.71258 16.821 1.95474 16.6041C1.19491 16.3826 0.75 15.7222 0.75 15.0686V13.3707C0.75 11.9475 2.10128 10.632 4 10.632H10.6667H11.4167V9.88196V8.71904C11.4167 8.58667 11.5813 8.30611 12 8.30611C12.4187 8.30611 12.5833 8.58668 12.5833 8.71904V9.88196ZM15.7596 18.576L16.7044 17.7597L17.547 18.4946C18.2691 19.1244 19.174 19.6257 20.2066 19.8175C21.291 20.0281 22.3301 19.9393 23.25 19.6357V22.6741C23.25 23.4461 22.4854 24.25 21.3333 24.25H2.66667C1.51461 24.25 0.75 23.4461 0.75 22.6741V19.6365C1.3297 19.8286 1.95622 19.9354 2.61333 19.9354C4.00682 19.9354 5.3444 19.4603 6.35699 18.5784L7.31546 17.7577L8.25369 18.576C9.28736 19.4776 10.6698 19.9007 12.0126 19.899C13.3545 19.8974 14.7322 19.4715 15.7583 18.5772C15.7588 18.5768 15.7592 18.5764 15.7596 18.576Z" stroke="black" stroke-width="1.5"/>
</svg>
