<svg width="33" height="30" viewBox="0 0 33 30" fill="none" xmlns="http://www.w3.org/2000/svg">
<path d="M2.7194 3L16.4337 15L29.386 3M31.0527 7.3999V22.5999C31.0527 24.8401 31.0531 25.9604 30.6898 26.8161C30.3702 27.5687 29.8596 28.1805 29.2324 28.564C28.5193 28.9999 27.5866 29 25.7197 29H6.38639C4.51955 29 3.58543 28.9999 2.8724 28.564C2.24519 28.1805 1.73562 27.5687 1.41605 26.8161C1.05273 25.9604 1.05273 24.8401 1.05273 22.5999V7.3999C1.05273 5.15969 1.05273 4.03973 1.41605 3.18408C1.73562 2.43143 2.24519 1.81947 2.8724 1.43597C3.58543 1 4.51955 1 6.38639 1H25.7197C27.5866 1 28.5193 1 29.2324 1.43597C29.8596 1.81947 30.3702 2.43143 30.6898 3.18408C31.0531 4.03973 31.0527 5.15969 31.0527 7.3999Z" stroke="black" stroke-width="2" stroke-linecap="round" stroke-linejoin="round"/>
</svg>
