<svg width="33" height="32" viewBox="0 0 33 32" fill="none" xmlns="http://www.w3.org/2000/svg">
<path d="M8.56982 29.003C10.7723 30.2733 13.3278 31 16.053 31C24.3372 31 31.0527 24.2843 31.0527 16C31.0527 7.71575 24.337 1 16.0527 1C7.76846 1 1.05273 7.71575 1.05273 16C1.05273 18.7252 1.77947 21.2807 3.04972 23.4832L3.05076 23.485C3.17556 23.7014 3.23812 23.8099 3.26633 23.9119C3.29266 24.0072 3.30136 24.0922 3.29462 24.1908C3.28746 24.2954 3.25131 24.4039 3.17988 24.6182L3.1772 24.6262L1.89583 28.4703L1.89483 28.4733C1.62408 29.2855 1.48864 29.6919 1.58506 29.9623C1.66908 30.1979 1.85473 30.3833 2.09033 30.4674C2.36107 30.5639 2.76861 30.4282 3.58284 30.1568L7.42696 28.8754L7.42956 28.8746C7.64739 28.802 7.75626 28.7657 7.86177 28.7585C7.96037 28.7517 8.04569 28.7602 8.14095 28.7865C8.24329 28.8148 8.35223 28.8775 8.56982 29.003Z" stroke="black" stroke-width="2" stroke-linecap="round" stroke-linejoin="round"/>
</svg>
