<svg width="78" height="78" viewBox="0 0 78 78" fill="none" xmlns="http://www.w3.org/2000/svg">
<path d="M61.75 63.635H19.1425C17.519 63.635 15.9616 62.9923 14.8105 61.8474C13.6595 60.7025 13.0086 59.1485 13 57.525V29.51C13 29.079 13.1712 28.6657 13.476 28.361C13.7807 28.0562 14.194 27.885 14.625 27.885H66.0725C66.5035 27.885 66.9168 28.0562 67.2216 28.361C67.5263 28.6657 67.6975 29.079 67.6975 29.51V57.525C67.6981 59.1177 67.0767 60.6477 65.9658 61.789C64.8548 62.9303 63.3421 63.5926 61.75 63.635ZM16.25 31.135V57.525C16.25 57.9033 16.325 58.2779 16.4708 58.627C16.6165 58.9762 16.8301 59.2929 17.0991 59.5589C17.3682 59.8249 17.6873 60.0349 18.038 60.1767C18.3888 60.3185 18.7642 60.3893 19.1425 60.385H61.75C62.1268 60.3894 62.5007 60.3184 62.8496 60.1762C63.1986 60.034 63.5156 59.8235 63.782 59.557C64.0485 59.2906 64.259 58.9736 64.4012 58.6246C64.5434 58.2757 64.6144 57.9018 64.61 57.525V31.135H16.25Z" fill="#5452A0"/>
<path d="M49.595 47.385C49.164 47.385 48.7507 47.2138 48.4459 46.9091C48.1412 46.6043 47.97 46.191 47.97 45.76V29.835L43.29 17.615H9.35998L16.0225 28.6975C16.2334 29.0677 16.2906 29.506 16.1815 29.9179C16.0725 30.3298 15.806 30.6824 15.4395 30.8998C15.073 31.1171 14.6358 31.1818 14.222 31.0799C13.8083 30.978 13.4511 30.7177 13.2275 30.355L5.10248 16.8025C4.96593 16.5535 4.89435 16.274 4.89435 15.99C4.89435 15.706 4.96593 15.4265 5.10248 15.1775C5.24427 14.9319 5.44786 14.7277 5.69303 14.5851C5.93819 14.4426 6.21639 14.3667 6.49998 14.365H44.4275C44.7542 14.3599 45.0743 14.4576 45.3425 14.6442C45.6107 14.8308 45.8136 15.0969 45.9225 15.405L51.1225 28.925C51.1535 29.1188 51.1535 29.3162 51.1225 29.51V45.76C51.1232 46.1746 50.9655 46.5738 50.6815 46.8759C50.3975 47.178 50.0088 47.3601 49.595 47.385Z" fill="#5452A0"/>
<path d="M66.0725 31.135H49.8225C49.5585 31.1356 49.2986 31.0706 49.066 30.9458C48.8334 30.8209 48.6354 30.6403 48.49 30.42C48.3445 30.2023 48.2537 29.9527 48.2254 29.6924C48.1971 29.4321 48.2321 29.1689 48.3275 28.925L53.755 15.3725C53.8732 15.0732 54.0793 14.8167 54.3462 14.6368C54.6131 14.457 54.9282 14.3622 55.25 14.365H71.5C71.7645 14.3614 72.0256 14.4252 72.2587 14.5503C72.4918 14.6753 72.6892 14.8576 72.8325 15.08C72.9924 15.2911 73.092 15.5417 73.1206 15.805C73.1492 16.0683 73.1058 16.3345 72.995 16.575L67.6 30.1275C67.476 30.4294 67.264 30.687 66.9915 30.8667C66.7191 31.0464 66.3988 31.1399 66.0725 31.135ZM52.2275 27.885H65L69.1275 17.615H56.355L52.2275 27.885Z" fill="#5452A0"/>
</svg>
