<svg width="250" height="101" viewBox="0 0 250 101" fill="none" xmlns="http://www.w3.org/2000/svg">
<path d="M70.3582 41.0665C55.6644 -3.427 6.95843 -2.3106 -0.180168 -1.90074C-0.695843 -1.87114 -1.05664 -1.44459 -1.05664 -0.928068V107C-1.05664 107.552 -0.608923 108 -0.0566387 108H142.837C143.991 108 144.323 106.16 143.244 105.753C126.68 99.4911 83.1217 79.7147 70.3582 41.0665Z" fill="#FBD3A4"/>
<path d="M6.60612 185.702C62.084 215.433 152.032 215.433 207.51 185.702C262.988 155.971 262.982 107.774 207.51 78.0426C152.038 48.3116 62.084 48.3116 6.60612 78.0426C-48.8718 107.774 -48.8656 155.977 6.60612 185.702Z" fill="#F5F4FF"/>
<path d="M23.0341 82.2847L-24.8438 109.928V112.231L19.0438 137.566L66.9216 109.928V107.626L23.0341 82.2847Z" fill="#FBD3A4"/>
<path d="M62.6616 99.3143L60.7695 103.042L61.0761 103.198L62.9682 99.4699L62.6616 99.3143Z" fill="#455A64"/>
<path d="M59.1654 99.022L58.873 99.2029L60.7181 102.183L61.0104 102.002L59.1654 99.022Z" fill="#455A64"/>
<path d="M61.2135 98.6757V107.663C61.2123 107.688 61.2042 107.712 61.1901 107.733C61.176 107.753 61.1565 107.77 61.1337 107.78C61.0714 107.813 61.0018 107.831 60.9311 107.831C60.8604 107.831 60.7909 107.813 60.7285 107.78C60.7046 107.77 60.6838 107.755 60.6686 107.734C60.6534 107.713 60.6443 107.689 60.6426 107.663V98.6757H61.2135Z" fill="#455A64"/>
<path d="M68.0092 95.8824C68.0092 96.7081 67.7643 97.5152 67.3056 98.2017C66.8469 98.8882 66.195 99.4232 65.4322 99.7392C64.6694 100.055 63.83 100.138 63.0203 99.9767C62.2105 99.8157 61.4667 99.4181 60.8828 98.8343C60.299 98.2505 59.9014 97.5066 59.7404 96.6969C59.5793 95.8871 59.662 95.0477 59.9779 94.2849C60.2939 93.5221 60.8289 92.8702 61.5154 92.4115C62.2019 91.9528 63.009 91.7079 63.8347 91.7079C64.9413 91.7096 66.0022 92.1499 66.7847 92.9324C67.5672 93.7149 68.0075 94.7758 68.0092 95.8824V95.8824Z" fill="#BAD5DB"/>
<path opacity="0.2" d="M65.1403 94.8143C65.6806 93.1199 66.2515 92.4569 65.8893 92.2482C65.198 91.8559 64.4091 91.669 63.6153 91.7097C62.8215 91.7503 62.0558 92.0168 61.4082 92.4777C60.7606 92.9386 60.2581 93.5748 59.9597 94.3115C59.6613 95.0482 59.5794 95.8548 59.7236 96.6364C59.8679 97.4181 60.2323 98.1423 60.7741 98.7239C61.3158 99.3056 62.0124 99.7204 62.7818 99.9198C63.5512 100.119 64.3616 100.095 65.1176 99.8493C65.8736 99.6039 66.5439 99.1478 67.0496 98.5345C65.7911 98.8967 64.4405 97.012 65.1403 94.8143Z" fill="black"/>
<path d="M60.1931 97.0611C60.1931 97.6415 60.021 98.2089 59.6985 98.6914C59.3761 99.174 58.9178 99.5501 58.3816 99.7722C57.8454 99.9943 57.2554 100.052 56.6862 99.9392C56.1169 99.826 55.5941 99.5465 55.1837 99.1361C54.7733 98.7257 54.4938 98.2028 54.3806 97.6336C54.2674 97.0644 54.3255 96.4744 54.5476 95.9382C54.7697 95.402 55.1458 94.9437 55.6284 94.6212C56.1109 94.2988 56.6783 94.1267 57.2587 94.1267C58.0369 94.1267 58.7833 94.4359 59.3336 94.9862C59.8839 95.5365 60.1931 96.2829 60.1931 97.0611V97.0611Z" fill="#BAD5DB"/>
<path opacity="0.2" d="M57.2583 94.1267C56.6426 94.1266 56.0428 94.3223 55.5456 94.6854C55.4657 96.4718 56.9882 98.2214 56.5585 98.8107C56.1288 99.4001 55.0913 99.0379 54.7168 98.5345C54.9753 98.9798 55.3465 99.3492 55.7929 99.6057C56.2394 99.8621 56.7455 99.9966 57.2604 99.9956C57.7753 99.9945 58.2809 99.858 58.7263 99.5998C59.1718 99.3415 59.5414 98.9706 59.7982 98.5243C60.0549 98.0779 60.1897 97.5719 60.189 97.057C60.1882 96.5421 60.052 96.0365 59.794 95.5909C59.5361 95.1453 59.1654 94.7754 58.7192 94.5184C58.273 94.2614 57.7671 94.1263 57.2522 94.1267H57.2583Z" fill="black"/>
<path d="M60.9308 99.2834C63.9042 99.2834 66.3146 96.873 66.3146 93.8996C66.3146 90.9261 63.9042 88.5157 60.9308 88.5157C57.9573 88.5157 55.5469 90.9261 55.5469 93.8996C55.5469 96.873 57.9573 99.2834 60.9308 99.2834Z" fill="#BAD5DB"/>
<path opacity="0.1" d="M66.1681 95.1274C65.9648 95.9991 65.5474 96.8064 64.9536 97.4762C64.3599 98.146 63.6084 98.6572 62.7674 98.9635C61.9263 99.2698 61.0222 99.3616 60.1367 99.2306C59.2513 99.0996 58.4125 98.7498 57.6962 98.213C56.9799 97.6763 56.4088 96.9693 56.0344 96.1563C55.6601 95.3432 55.4944 94.4496 55.5523 93.5564C55.6102 92.6632 55.8899 91.7985 56.3661 91.0406C56.8423 90.2826 57.4999 89.6554 58.2795 89.2156C57.8246 89.4839 57.411 89.8168 57.0517 90.204C56.7841 91.3548 56.903 92.5618 57.3899 93.6383C57.8769 94.7149 58.7048 95.6011 59.7458 96.16C60.7868 96.719 61.9829 96.9195 63.1493 96.7306C64.3157 96.5418 65.3874 95.974 66.1988 95.1151L66.1681 95.1274Z" fill="black"/>
<path d="M-12.8669 109.928L-12.873 89.1971L19.0496 107.62V128.358L-12.8669 109.928Z" fill="#F0F0F0"/>
<path d="M-12.873 97.4234L19.0496 115.859V107.62L-12.873 89.1971V97.4234Z" fill="#E0E0E0"/>
<path d="M54.9515 107.62V87.466L42.9805 84.5868V82.2847L19.0508 107.62V128.358L54.9515 107.62Z" fill="#FAFAFA"/>
<path d="M42.9805 82.2847V84.5868L56.9466 88.043V85.7409L42.9805 82.2847Z" fill="#263238"/>
<path d="M25.0368 67.3117L56.9471 85.7409L42.981 82.2847L11.0645 63.8555L25.0368 67.3117Z" fill="#37474F"/>
<path d="M17.0499 111.089L42.987 82.2847V79.9825L15.0547 112.231L17.0499 111.089Z" fill="#37474F"/>
<path d="M11.069 61.5533L42.9856 79.9825L15.1023 112.261L-16.8633 93.8014L11.069 61.5533Z" fill="#455A64"/>
<path d="M1.05664 91.4133L5.07766 93.7339V99.5597L1.05664 97.2576V91.4133Z" fill="#263238"/>
<path d="M5.07812 93.7339L9.09301 91.4133V94.9555L5.07812 99.5597V93.7339Z" fill="#37474F"/>
<path d="M5.07715 87.4659L0.638672 90.0259V91.1862L5.07715 93.7338L9.50948 91.1862V90.0259L5.07715 87.4659Z" fill="#F5F5F5"/>
<path d="M0.638672 91.1861L5.07715 93.7338V92.5735L0.638672 90.0259V91.1861Z" fill="#E0E0E0"/>
<path d="M9.51046 91.1861L5.07812 93.7338V92.5735L9.51046 90.0259V91.1861Z" fill="#EBEBEB"/>
<path d="M2.13086 90.0259L5.07756 88.3254L8.02427 90.0259L5.07756 91.7202L2.13086 90.0259Z" fill="#FBD3A4"/>
<path d="M5.07756 88.3254V91.7202L2.13086 90.0259L5.07756 88.3254Z" fill="#37474F"/>
<path d="M5.07812 88.3254L8.02483 90.0259L5.07812 91.7202V88.3254Z" fill="#263238"/>
<path d="M43.582 100.364L52.5572 95.1827V102.095L43.582 107.276V100.364Z" fill="#455A64"/>
<path d="M52.1582 101.862V95.416L43.582 100.364V106.816L52.1582 101.862Z" fill="#E0E0E0"/>
<path d="M43.582 103.82L52.5572 98.6389V98.1723L43.582 103.36V103.82Z" fill="#455A64"/>
<path d="M189.099 80.2711L141.221 107.915V110.217L189.099 137.861L236.983 110.217V107.915L189.099 80.2711Z" fill="#FBD3A4"/>
<path d="M232.855 99.6781L230.963 103.406L231.269 103.562L233.162 99.8337L232.855 99.6781Z" fill="#455A64"/>
<path d="M229.839 98.3376L229.547 98.5198L231.405 101.499L231.697 101.317L229.839 98.3376Z" fill="#455A64"/>
<path d="M231.415 99.044V108.031C231.413 108.056 231.405 108.08 231.391 108.101C231.377 108.122 231.358 108.138 231.335 108.148C231.273 108.181 231.203 108.199 231.132 108.199C231.062 108.199 230.992 108.181 230.93 108.148C230.906 108.138 230.886 108.122 230.871 108.102C230.856 108.081 230.846 108.057 230.844 108.031V99.044H231.415Z" fill="#455A64"/>
<path d="M238.21 96.2508C238.21 97.0764 237.966 97.8835 237.507 98.57C237.048 99.2565 236.396 99.7916 235.633 100.108C234.871 100.423 234.031 100.506 233.221 100.345C232.412 100.184 231.668 99.7864 231.084 99.2026C230.5 98.6188 230.103 97.875 229.942 97.0652C229.78 96.2554 229.863 95.4161 230.179 94.6533C230.495 93.8905 231.03 93.2385 231.717 92.7798C232.403 92.3211 233.21 92.0763 234.036 92.0763C235.143 92.0763 236.205 92.5161 236.988 93.299C237.771 94.0818 238.21 95.1437 238.21 96.2508V96.2508Z" fill="#BAD5DB"/>
<path opacity="0.2" d="M235.343 95.1826C235.883 93.4882 236.46 92.8252 236.092 92.6165C235.4 92.225 234.611 92.0391 233.818 92.0806C233.024 92.1221 232.259 92.3893 231.612 92.8509C230.965 93.3124 230.463 93.9491 230.165 94.686C229.867 95.4229 229.786 96.2295 229.931 97.011C230.076 97.7924 230.441 98.5162 230.984 99.0973C231.526 99.6784 232.223 100.093 232.992 100.291C233.762 100.49 234.572 100.465 235.328 100.219C236.084 99.973 236.753 99.5164 237.259 98.9028C236.018 99.265 234.649 97.3619 235.343 95.1826Z" fill="black"/>
<path d="M230.396 97.4294C230.396 98.0098 230.224 98.5771 229.902 99.0597C229.579 99.5423 229.121 99.9184 228.585 100.14C228.049 100.363 227.459 100.421 226.889 100.307C226.32 100.194 225.797 99.9148 225.387 99.5044C224.976 99.094 224.697 98.5711 224.584 98.0019C224.47 97.4327 224.529 96.8427 224.751 96.3065C224.973 95.7703 225.349 95.312 225.831 94.9895C226.314 94.6671 226.881 94.495 227.462 94.495C228.24 94.495 228.986 94.8042 229.537 95.3545C230.087 95.9048 230.396 96.6512 230.396 97.4294V97.4294Z" fill="#BAD5DB"/>
<path opacity="0.2" d="M227.461 94.495C226.846 94.4958 226.246 94.6913 225.748 95.0536C225.669 96.8401 227.191 98.5897 226.767 99.179C226.344 99.7684 225.294 99.4062 224.926 98.9028C225.184 99.3481 225.555 99.7175 226.002 99.974C226.448 100.23 226.955 100.365 227.469 100.364C227.984 100.363 228.49 100.226 228.935 99.9681C229.381 99.7098 229.75 99.3389 230.007 98.8926C230.264 98.4462 230.399 97.9402 230.398 97.4253C230.397 96.9104 230.261 96.4048 230.003 95.9592C229.745 95.5136 229.374 95.1437 228.928 94.8867C228.482 94.6297 227.976 94.4946 227.461 94.495V94.495Z" fill="black"/>
<path d="M231.132 99.6518C234.105 99.6518 236.516 97.2413 236.516 94.2679C236.516 91.2945 234.105 88.884 231.132 88.884C228.158 88.884 225.748 91.2945 225.748 94.2679C225.748 97.2413 228.158 99.6518 231.132 99.6518Z" fill="#BAD5DB"/>
<path opacity="0.1" d="M236.369 95.5202C236.161 96.3887 235.74 97.1917 235.145 97.8569C234.549 98.5222 233.797 99.0288 232.957 99.3311C232.116 99.6335 231.214 99.7221 230.331 99.5889C229.448 99.4557 228.612 99.105 227.898 98.5683C227.184 98.0316 226.615 97.3258 226.242 96.5144C225.869 95.7031 225.704 94.8116 225.761 93.9204C225.818 93.0292 226.096 92.1663 226.57 91.4093C227.044 90.6522 227.698 90.0249 228.475 89.5839C228.006 89.848 227.58 90.1812 227.21 90.5722C226.942 91.7231 227.061 92.9301 227.548 94.0066C228.035 95.0832 228.863 95.9694 229.904 96.5283C230.945 97.0872 232.141 97.2878 233.308 97.0989C234.474 96.91 235.546 96.3423 236.357 95.4834L236.369 95.5202Z" fill="black"/>
<path d="M148.943 99.4814L147.051 103.209L147.357 103.365L149.249 99.637L148.943 99.4814Z" fill="#455A64"/>
<path d="M145.948 98.439L145.656 98.6212L147.514 101.601L147.806 101.419L145.948 98.439Z" fill="#455A64"/>
<path d="M147.501 98.8476V107.835C147.498 107.86 147.488 107.884 147.473 107.905C147.458 107.925 147.438 107.941 147.415 107.952C147.351 107.982 147.282 107.998 147.212 107.998C147.142 107.998 147.073 107.982 147.009 107.952C146.988 107.94 146.969 107.923 146.955 107.903C146.941 107.883 146.933 107.859 146.93 107.835V98.8476H147.501Z" fill="#455A64"/>
<path d="M154.296 96.0482C154.296 96.8739 154.051 97.681 153.593 98.3674C153.134 99.0539 152.482 99.589 151.719 99.905C150.957 100.221 150.117 100.304 149.307 100.143C148.498 99.9814 147.754 99.5838 147.17 99C146.586 98.4162 146.189 97.6724 146.027 96.8626C145.866 96.0529 145.949 95.2135 146.265 94.4507C146.581 93.6879 147.116 93.036 147.803 92.5773C148.489 92.1186 149.296 91.8737 150.122 91.8737C151.228 91.8753 152.289 92.3157 153.072 93.0982C153.854 93.8807 154.295 94.9416 154.296 96.0482V96.0482Z" fill="#BAD5DB"/>
<path opacity="0.2" d="M151.43 94.98C151.97 93.2856 152.541 92.6226 152.179 92.4139C151.488 92.0224 150.699 91.8363 149.905 91.8775C149.112 91.9187 148.347 92.1854 147.7 92.6463C147.053 93.1072 146.551 93.7432 146.252 94.4796C145.954 95.2159 145.872 96.0221 146.016 96.8034C146.161 97.5846 146.525 98.3086 147.066 98.8902C147.607 99.4718 148.303 99.8869 149.072 100.087C149.841 100.287 150.651 100.263 151.407 100.018C152.162 99.7738 152.833 99.3186 153.339 98.7063C152.105 99.0624 150.73 97.1777 151.43 94.98Z" fill="black"/>
<path d="M146.482 97.2269C146.483 97.8075 146.312 98.3755 145.991 98.8588C145.669 99.3422 145.211 99.7193 144.675 99.9423C144.139 100.165 143.549 100.224 142.979 100.112C142.409 99.9993 141.886 99.7203 141.475 99.3101C141.064 98.9 140.784 98.3771 140.67 97.8078C140.556 97.2384 140.614 96.648 140.836 96.1115C141.058 95.5749 141.434 95.1163 141.917 94.7936C142.399 94.4708 142.967 94.2986 143.548 94.2986C144.325 94.2986 145.07 94.6069 145.62 95.1559C146.171 95.7049 146.481 96.4497 146.482 97.2269V97.2269Z" fill="#BAD5DB"/>
<path opacity="0.2" d="M143.547 94.2924C142.932 94.2901 142.332 94.4836 141.835 94.8449C141.755 96.6375 143.277 98.381 142.848 98.9703C142.418 99.5597 141.374 99.1975 141.006 98.7002C141.264 99.1455 141.636 99.5149 142.082 99.7714C142.528 100.028 143.035 100.162 143.55 100.161C144.064 100.16 144.57 100.024 145.015 99.7655C145.461 99.5072 145.831 99.1363 146.087 98.69C146.344 98.2437 146.479 97.7376 146.478 97.2227C146.477 96.7078 146.341 96.2022 146.083 95.7566C145.825 95.311 145.454 94.9411 145.008 94.6841C144.562 94.4271 144.056 94.292 143.541 94.2924H143.547Z" fill="black"/>
<path d="M147.212 99.4492C150.185 99.4492 152.596 97.0388 152.596 94.0653C152.596 91.0919 150.185 88.6815 147.212 88.6815C144.239 88.6815 141.828 91.0919 141.828 94.0653C141.828 97.0388 144.239 99.4492 147.212 99.4492Z" fill="#BAD5DB"/>
<path opacity="0.1" d="M152.456 95.2992C152.251 96.1703 151.833 96.9766 151.239 97.6455C150.644 98.3143 149.893 98.8245 149.052 99.1299C148.211 99.4354 147.307 99.5264 146.422 99.3948C145.537 99.2631 144.699 98.9131 143.983 98.3761C143.267 97.8392 142.697 97.1324 142.323 96.3196C141.949 95.5068 141.783 94.6136 141.841 93.7207C141.899 92.8279 142.179 91.9636 142.655 91.2059C143.131 90.4482 143.788 89.8211 144.567 89.3812C144.101 89.6471 143.677 89.9801 143.308 90.3696C143.046 91.5191 143.169 92.723 143.657 93.7962C144.145 94.8695 144.972 95.7528 146.011 96.3105C147.049 96.8683 148.243 97.0696 149.407 96.8836C150.571 96.6975 151.642 96.1344 152.456 95.2808V95.2992Z" fill="black"/>
<path d="M198.742 68.2509L202.757 70.5714V75.2125L198.742 72.892V68.2509Z" fill="#E0E0E0"/>
<path d="M202.758 70.5714L206.779 68.2509V77.5269L202.758 75.2125V70.5714Z" fill="#F0F0F0"/>
<path d="M202.758 64.3036L198.326 66.8574V68.0177L202.758 70.5715L207.197 68.0177V66.8574L202.758 64.3036Z" fill="#455A64"/>
<path d="M198.326 68.0177L202.758 70.5715V69.4112L198.326 66.8574V68.0177Z" fill="#37474F"/>
<path d="M207.196 68.0177L202.758 70.5715V69.4112L207.196 66.8574V68.0177Z" fill="#263238"/>
<path d="M199.811 66.8574L202.757 65.163L205.71 66.8574L202.757 68.5579L199.811 66.8574Z" fill="#FBD3A4"/>
<path d="M202.757 65.163V68.5579L199.811 66.8574L202.757 65.163Z" fill="#37474F"/>
<path d="M202.758 65.163L205.711 66.8574L202.758 68.5579V65.163Z" fill="#263238"/>
<path d="M189.106 114.827L189.1 94.096L201.052 101.002V121.734L189.106 114.827Z" fill="#F0F0F0"/>
<path d="M189.1 94.096L201.052 101.002V109.259L189.1 102.365V94.096Z" fill="#E0E0E0"/>
<path d="M225.011 107.915V87.1835L213.016 80.2711L201.051 101.002V121.734L225.011 107.915Z" fill="#FAFAFA"/>
<path d="M199.075 104.459L213.017 80.271V77.9689L197.08 105.613L199.075 104.459Z" fill="#37474F"/>
<path d="M189.1 64.1501L213.017 77.9689L197.08 105.613L189.106 101.002L189.1 64.1501Z" fill="#455A64"/>
<path d="M213.016 80.271L227.006 88.3315L229.001 87.1835L213.016 77.9689V80.271Z" fill="#263238"/>
<path d="M218.02 98.559L222.71 95.8702V102.783L218.02 105.472V98.559Z" fill="#455A64"/>
<path d="M222.311 102.549V96.1035L218.02 98.559V105.005L222.311 102.549Z" fill="#E0E0E0"/>
<path d="M218.02 102.015L222.71 99.3264V98.8599L218.02 101.549V102.015Z" fill="#455A64"/>
<path d="M210.027 90.6398L216.013 87.1835V92.3648L210.027 95.8211V90.6398Z" fill="#455A64"/>
<path d="M215.614 92.1315V87.4106L210.027 90.6397V95.3606L215.614 92.1315Z" fill="#E0E0E0"/>
<path d="M216.013 92.3648L215.614 92.1315L210.027 95.3606V95.8211L216.013 92.3648Z" fill="#37474F"/>
<path d="M227.007 88.3315H225.012V87.1835L227.007 88.3315Z" fill="black"/>
<path d="M209.676 116.749V102.93L216.361 99.0747V112.894L209.676 116.749Z" fill="#37474F"/>
<path d="M216.128 112.715V99.2097L209.676 102.93V116.436L216.128 112.715Z" fill="#455A64"/>
<path d="M216.362 99.0747L216.129 99.2098V112.716L216.362 112.894V99.0747Z" fill="#263238"/>
<path d="M189.099 114.827V94.096L177.152 101.002V121.734L189.099 114.827Z" fill="#FAFAFA"/>
<path d="M189.099 94.096L177.152 101.002V109.259L189.105 102.365L189.099 94.096Z" fill="#F5F5F5"/>
<path d="M153.191 107.915V87.1835L165.181 80.2711L177.152 101.002V121.734L153.191 107.915Z" fill="#EBEBEB"/>
<path d="M179.129 104.459L165.182 80.271V77.9689L181.125 105.613L179.129 104.459Z" fill="#455A64"/>
<path d="M189.099 64.1501L165.182 77.9689L181.125 105.613L189.099 101.002V64.1501Z" fill="#37474F"/>
<path d="M165.181 80.271L151.196 88.3315L149.201 87.1835L165.181 77.9689V80.271Z" fill="#263238"/>
<path d="M161.872 99.087L157.182 96.3981V103.311L161.872 105.993V99.087Z" fill="#455A64"/>
<path d="M157.582 103.077V96.6252L161.873 99.087V105.533L157.582 103.077Z" fill="#FAFAFA"/>
<path d="M157.582 96.6252L161.873 99.1054V99.9587L157.582 97.497V96.6252Z" fill="#F5F5F5"/>
<path d="M161.872 102.543L157.182 99.8544V99.3878L161.872 102.077V102.543Z" fill="#455A64"/>
<path d="M168.177 90.6398L162.191 87.1835V92.3648L168.177 95.8211V90.6398Z" fill="#455A64"/>
<path d="M162.592 92.1315V87.4106L168.178 90.6397V95.3606L162.592 92.1315Z" fill="#FAFAFA"/>
<path d="M162.592 87.4106L168.178 90.6398V91.4931L162.592 88.2885V87.4106Z" fill="#F5F5F5"/>
<path d="M162.191 92.3648L162.59 92.1315L168.177 95.3606V95.8211L162.191 92.3648Z" fill="#37474F"/>
<path d="M151.197 88.3315H153.192V87.1835L151.197 88.3315Z" fill="black"/>
<path d="M85.8558 82.069L67.9023 113.165L115.033 140.376L132.987 109.28L85.8558 82.069Z" fill="#BAD5DB"/>
<path d="M77.375 112.795V103.464L82.7466 100.364L88.0998 109.634V118.996L77.375 112.795Z" fill="#F0F0F0"/>
<path opacity="0.2" d="M82.7468 100.364L76.1167 104.188L75.2695 103.697L82.7468 99.3817V100.364Z" fill="black"/>
<path d="M89.3781 111.844L82.748 100.364V99.3817L90.2069 112.323L89.3781 111.844Z" fill="#BAD5DB"/>
<path opacity="0.1" d="M89.3781 111.844L82.748 100.364V99.3817L90.2069 112.323L89.3781 111.844Z" fill="black"/>
<path d="M90.2069 112.323L82.748 99.3817L90.4647 94.9248L97.9236 107.866L90.2069 112.323Z" fill="#BAD5DB"/>
<path opacity="0.3" d="M90.2069 112.323L82.748 99.3817L90.4647 94.9248L97.9236 107.866L90.2069 112.323Z" fill="white"/>
<path d="M192.524 1.2563C192.49 -0.369496 192.073 -1.96431 191.307 -3.39886C190.541 -4.83341 189.448 -6.06734 188.117 -7.00061C186.889 -7.78026 185.71 -7.8969 184.851 -7.4549C179.663 -4.85197 143.21 18.5191 140.883 19.6732H140.853C140.607 19.8359 140.41 20.061 140.28 20.3254C140.151 20.5897 140.094 20.8837 140.116 21.1773C140.13 21.9968 140.338 22.8013 140.724 23.5247C141.109 24.2482 141.66 24.8701 142.332 25.3395C142.565 25.5211 142.841 25.6373 143.134 25.6761C143.426 25.715 143.724 25.675 143.996 25.5605H144.033C147.716 23.5285 183.696 8.19334 191.051 4.25212C191.917 3.77328 192.475 2.74193 192.524 1.2563Z" fill="#9998D3"/>
<path opacity="0.1" d="M191.094 -3.7838C190.373 -5.07839 189.352 -6.18142 188.117 -7.00062C186.889 -7.78027 185.723 -7.89691 184.863 -7.46105L184.753 -7.39966C180.02 -4.9809 152.892 12.3249 143.763 17.9543L143.702 17.9911L143.333 18.2183L143.223 18.2858L143.014 18.4147L142.769 18.5621C141.805 19.176 141.154 19.532 140.927 19.6609H140.896C140.818 19.7072 140.746 19.7629 140.681 19.8267C140.509 20.0034 140.374 20.213 140.284 20.4429C140.195 20.6728 140.152 20.9183 140.159 21.165C140.147 21.3387 140.147 21.5131 140.159 21.6868C140.159 21.7543 140.159 21.8218 140.19 21.8894C140.221 21.9569 140.227 22.0981 140.252 22.2086C140.276 22.3191 140.295 22.3805 140.319 22.4603C140.344 22.5401 140.38 22.6629 140.417 22.7611C140.454 22.8593 140.473 22.9084 140.497 22.9821V23.019L191.094 -3.7838Z" fill="black"/>
<path d="M142.326 25.3456C141.657 24.8774 141.108 24.2582 140.723 23.5383C140.338 22.8184 140.128 22.018 140.109 21.2018C140.165 19.7039 141.233 19.1268 142.504 19.9188C143.173 20.3876 143.723 21.0077 144.108 21.7288C144.493 22.4498 144.703 23.2515 144.72 24.0687C144.671 25.5666 143.596 26.1498 142.326 25.3456Z" fill="#9998D3"/>
<path d="M131.431 26.3524C131.446 26.9795 131.607 27.5944 131.902 28.1478C132.198 28.7011 132.619 29.1775 133.132 29.5385C133.31 29.6762 133.521 29.7642 133.745 29.7933C133.968 29.8224 134.195 29.7917 134.403 29.7042V29.7042L143.218 25.0079C143.405 24.8836 143.556 24.7119 143.656 24.5102C143.755 24.3085 143.799 24.0841 143.783 23.8599C143.769 23.2327 143.609 22.6174 143.313 22.0638C143.018 21.5103 142.596 21.0341 142.082 20.6738C141.905 20.5345 141.694 20.4451 141.47 20.4149C141.247 20.3846 141.02 20.4147 140.812 20.5019V20.5019L131.996 25.1982C131.808 25.3231 131.656 25.4958 131.557 25.6987C131.458 25.9015 131.414 26.1272 131.431 26.3524Z" fill="#37474F"/>
<path d="M132.008 25.1982C131.817 25.3216 131.663 25.4936 131.562 25.6966C131.46 25.8996 131.415 26.126 131.431 26.3524C131.428 26.8183 131.519 27.2799 131.701 27.7091L143.07 21.6438C142.813 21.2588 142.481 20.9291 142.094 20.6738C141.917 20.5345 141.706 20.4451 141.482 20.4149C141.259 20.3846 141.031 20.4147 140.823 20.5019L132.008 25.1982Z" fill="#263238"/>
<path d="M142.745 34.1735C142.745 28.5256 139.012 22.8777 131.541 18.5682C116.611 9.94293 92.3992 9.94293 77.4631 18.5682C69.9981 22.8655 66.2656 28.5256 66.2656 34.1735V44.6097C66.2656 50.2576 69.9981 55.9054 77.4692 60.2211C92.3992 68.8157 116.611 68.8157 131.541 60.2211C139.012 55.9238 142.745 50.2576 142.745 44.6097V34.1735ZM79.2987 21.7666C85.9656 17.9175 94.9101 15.7995 104.468 15.7995C114.027 15.7995 122.99 17.9175 129.638 21.7666C135.667 25.2474 138.988 29.6552 138.988 34.1796C138.988 38.704 135.667 43.1057 129.638 46.5864C122.971 50.4356 114.027 52.5535 104.468 52.5535C94.9101 52.5535 85.9472 50.4356 79.2987 46.5864C73.2641 43.1057 69.949 38.6979 69.949 34.1796C69.949 29.6613 73.2825 25.2474 79.2987 21.7666Z" fill="#9998D3"/>
<path opacity="0.3" d="M77.4573 49.7849C92.3934 58.4101 116.599 58.4101 131.535 49.7849C146.472 41.1596 146.472 27.1873 131.535 18.5682C116.599 9.94909 92.3934 9.94295 77.4573 18.5682C62.5211 27.1935 62.5334 41.1658 77.4573 49.7849ZM69.9554 34.1796C69.9554 29.6552 73.2766 25.2474 79.3051 21.7666C85.9781 17.9175 94.9226 15.7995 104.475 15.7995C114.027 15.7995 122.996 17.9175 129.645 21.7666C135.673 25.2474 138.994 29.6552 138.994 34.1796C138.994 38.704 135.673 43.1057 129.645 46.5865C122.972 50.4356 114.027 52.5535 104.475 52.5535C94.9226 52.5535 85.9536 50.4356 79.3051 46.5865C73.2827 43.1057 69.9616 38.6979 69.9616 34.1796H69.9554Z" fill="white"/>
<path d="M69.9609 34.1734C69.9827 36.013 70.4979 37.8129 71.4527 39.3854C72.969 36.7579 75.6395 34.2962 79.3167 32.1783C85.9775 28.323 94.9281 26.2051 104.487 26.2051C114.045 26.2051 123.008 28.323 129.656 32.1783C133.34 34.2962 136.004 36.7579 137.526 39.3854C138.477 37.8112 138.989 36.012 139.012 34.1734C139.012 29.6552 135.691 25.2474 129.656 21.7666C122.996 17.9174 114.045 15.7995 104.487 15.7995C94.9281 15.7995 85.9591 17.9174 79.3167 21.7666C73.2821 25.2474 69.9609 29.6552 69.9609 34.1734Z" fill="#9998D3"/>
<path opacity="0.1" d="M69.9609 34.1734C69.9827 36.013 70.4979 37.8129 71.4527 39.3854C72.969 36.7579 75.6395 34.2962 79.3167 32.1783C85.9775 28.323 94.9281 26.2051 104.487 26.2051C114.045 26.2051 123.008 28.323 129.656 32.1783C133.34 34.2962 136.004 36.7579 137.526 39.3854C138.477 37.8112 138.989 36.012 139.012 34.1734C139.012 29.6552 135.691 25.2474 129.656 21.7666C122.996 17.9174 114.045 15.7995 104.487 15.7995C94.9281 15.7995 85.9591 17.9174 79.3167 21.7666C73.2821 25.2474 69.9609 29.6552 69.9609 34.1734Z" fill="black"/>
<path opacity="0.4" d="M79.2986 26.4813C85.9716 22.6322 94.9161 20.5081 104.468 20.5081C114.021 20.5081 122.99 22.6322 129.638 26.4813C134.611 29.3544 137.735 32.8536 138.681 36.5308C137.735 40.2142 134.611 43.7134 129.638 46.5865C122.965 50.4356 114.021 52.5535 104.468 52.5535C94.9161 52.5535 85.9471 50.4356 79.2986 46.5865C74.326 43.7134 71.2013 40.2081 70.2559 36.5308C71.2135 32.8536 74.3383 29.3544 79.2986 26.4813Z" fill="white"/>
<path opacity="0.1" d="M95.4924 55.6169V66.0531C88.8869 65.1323 82.6006 63.1862 77.4684 60.2088C69.9973 55.9116 66.2648 50.2453 66.2648 44.5913V34.155C66.2674 33.0044 66.4201 31.859 66.719 30.7479V30.7479C64.8774 37.4701 68.4871 44.5852 77.4561 49.7787C82.6251 52.7684 88.8869 54.7145 95.4924 55.6169Z" fill="black"/>
<g opacity="0.3">
<path d="M104.841 45.651C104.798 44.3365 104.879 43.0209 105.083 41.7216C105.417 39.6347 104.592 37.318 101.969 37.2249C99.345 37.1319 96.7958 37.0688 95.0878 37.2493C93.3798 37.4299 91.5298 39.1413 91.9848 41.3055C92.4398 43.4697 93.853 43.5598 95.7334 45.4216C97.6139 47.2834 97.8193 49.1266 99.0653 49.9762C100.311 50.8257 102.95 50.9243 104.098 49.1702C104.781 48.1332 105.047 46.8759 104.841 45.651Z" fill="#59AABC"/>
<path d="M100.779 32.7807C100.779 32.7807 101.387 31.1532 100.824 29.8643C100.262 28.5755 98.289 29.2403 96.9144 30.1637C95.5398 31.0871 94.8762 33.4817 95.4914 34.8888C96.1066 36.2958 98.1697 36.4276 98.923 35.7669C99.6762 35.1061 100.779 32.7807 100.779 32.7807Z" fill="#59AABC"/>
<path d="M107.828 29.5042C107.828 29.5042 105.229 29.4974 103.584 30.5C101.94 31.5026 101.056 33.1845 101.801 34.7854C102.545 36.3864 104.623 36.2436 106.056 35.6006C107.489 34.9577 109.118 33.0138 109.549 31.7306C109.98 30.4473 108.363 29.6026 107.828 29.5042Z" fill="#59AABC"/>
<path d="M111.801 33.4535C111.801 33.4535 110.577 33.7353 108.871 35.1348C107.166 36.5343 106.473 38.076 106.585 39.2956C106.696 40.5151 108.026 41.6818 109.671 41.4442C111.317 41.2067 113.073 39.0393 113.36 37.7723C113.646 36.5053 113.604 34.6049 113.17 33.9802C112.736 33.3555 112.373 33.2417 111.801 33.4535Z" fill="#59AABC"/>
<path d="M111.611 42.1986C111.611 42.1986 108.796 42.3784 107.361 43.421C105.926 44.4635 105.897 46.4699 106.586 47.1945C107.275 47.9192 108.818 48.4973 110.883 47.4746C112.948 46.4518 113.579 43.6908 113.23 43.0876C112.88 42.4843 111.611 42.1986 111.611 42.1986Z" fill="#59AABC"/>
</g>
</svg>
