<svg width="78" height="78" viewBox="0 0 78 78" fill="none" xmlns="http://www.w3.org/2000/svg">
<path d="M39 69.7125C38.738 69.7141 38.4803 69.6469 38.2525 69.5175C37.245 68.9975 13.455 56.355 8.51499 39.455C5.68749 29.705 6.62999 20.67 10.985 14.8525C12.5537 12.7579 14.605 11.0731 16.9646 9.94141C19.3241 8.80973 21.9221 8.26464 24.5375 8.35251C27.6088 8.21803 30.6466 9.03571 33.2354 10.6937C35.8242 12.3517 37.8375 14.769 39 17.615C40.178 14.7873 42.1979 12.3907 44.7854 10.751C47.3729 9.11128 50.4025 8.3079 53.4625 8.45001C56.0779 8.36214 58.6759 8.90723 61.0354 10.0389C63.395 11.1706 65.4463 12.8554 67.015 14.95C71.37 20.7675 72.3125 29.965 69.485 39.5525C64.545 56.4525 40.755 69.095 39.7475 69.615C39.5107 69.7108 39.2534 69.7444 39 69.7125ZM24.5375 11.7C22.4352 11.6004 20.3402 12.0127 18.4324 12.9015C16.5247 13.7903 14.8612 15.129 13.585 16.8025C9.84749 21.8075 9.09999 29.8025 11.635 38.545C15.73 52.52 34.9375 63.9275 39 66.235C43.0625 63.9275 62.27 52.4875 66.365 38.545C68.9 29.9325 68.1525 21.8075 64.415 16.8025C63.1388 15.129 61.4753 13.7903 59.5676 12.9015C57.6598 12.0127 55.5648 11.6004 53.4625 11.7C41.3725 11.7 40.6575 23.92 40.625 24.44C40.625 24.871 40.4538 25.2843 40.149 25.5891C39.8443 25.8938 39.431 26.065 39 26.065C38.569 26.065 38.1557 25.8938 37.8509 25.5891C37.5462 25.2843 37.375 24.871 37.375 24.44C37.3425 23.92 36.6275 11.7 24.5375 11.7Z" fill="#5452A0"/>
<path d="M39 49.985C38.569 49.985 38.1557 49.8138 37.851 49.5091C37.5462 49.2043 37.375 48.791 37.375 48.36V40.0725L25.285 34.1575C25.0349 34.0158 24.8269 33.8103 24.6822 33.5619C24.5375 33.3135 24.4612 33.0312 24.4612 32.7438C24.4612 32.4563 24.5375 32.174 24.6822 31.9256C24.8269 31.6773 25.0349 31.4717 25.285 31.33L38.285 23.01C38.6464 22.8038 39.0732 22.7442 39.4773 22.8433C39.8814 22.9424 40.2321 23.1928 40.4571 23.5428C40.6821 23.8928 40.7643 24.3158 40.6867 24.7246C40.6091 25.1334 40.3776 25.4968 40.04 25.74L29.25 32.5L39.65 37.6025C39.9211 37.7395 40.1494 37.9484 40.3099 38.2063C40.4704 38.4642 40.5569 38.7613 40.56 39.065V48.36C40.5603 48.78 40.3981 49.1837 40.1073 49.4867C39.8164 49.7896 39.4196 49.9682 39 49.985Z" fill="#5452A0"/>
</svg>
