<svg width="23" height="25" viewBox="0 0 23 25" fill="none" xmlns="http://www.w3.org/2000/svg">
<path d="M22.0238 18.8338L22.0233 18.8337C21.883 18.8242 21.7606 18.7648 21.6794 18.6797C21.6007 18.5973 21.5666 18.4984 21.5715 18.4045C21.5852 18.2494 21.5851 18.0871 21.5851 17.9579V17.9493V6.55293C21.5851 5.52723 21.5333 4.67486 21.3741 3.9793C21.2131 3.27632 20.936 2.70516 20.4667 2.27409C20.001 1.8463 19.3904 1.59748 18.6401 1.45231C17.8927 1.30768 16.9713 1.25946 15.8514 1.25946H7.14865C6.02874 1.25946 5.10731 1.30768 4.35988 1.45231C3.60964 1.59748 2.99902 1.8463 2.53329 2.27409C2.06399 2.70516 1.78687 3.27632 1.62591 3.9793C1.46665 4.67486 1.41486 5.52723 1.41486 6.55293V19.089C1.41486 19.2716 1.23129 19.4937 0.932432 19.4937C0.633573 19.4937 0.45 19.2716 0.45 19.089V6.55293C0.45 4.06251 0.869309 2.59716 1.82239 1.7235C2.78806 0.838307 4.41708 0.45 7.14865 0.45H15.8514C18.5829 0.45 20.2119 0.838307 21.1776 1.7235C22.1307 2.59716 22.55 4.06251 22.55 6.55293V17.9493C22.55 18.1325 22.5498 18.2876 22.5388 18.4512C22.5222 18.6415 22.3059 18.8531 22.0238 18.8338Z" stroke="black" stroke-width="0.9"/>
<path d="M21.5851 16.5248V16.0748H21.1351H4.47568C3.67592 16.0748 2.90189 16.3657 2.32548 16.8941C1.74775 17.4236 1.41486 18.1507 1.41486 18.9181V19.6588C1.41486 21.6757 3.18318 23.2428 5.28378 23.2428H17.7162C19.8168 23.2428 21.5851 21.6757 21.5851 19.6588V16.5248ZM17.7152 24.0523H5.28475C5.28447 24.0523 5.28418 24.0523 5.2839 24.0523C3.99088 24.0493 2.75874 23.5768 1.85529 22.7486C0.953071 21.9216 0.453105 20.8095 0.45 19.6582V18.9181C0.45 16.9355 2.22408 15.2654 4.47568 15.2654H22.0676C22.3664 15.2654 22.55 15.4874 22.55 15.6701L22.55 19.6577C22.55 19.6579 22.55 19.6582 22.55 19.6584C22.5468 20.8096 22.0469 21.9216 21.1447 22.7486C20.2413 23.5768 19.0091 24.0493 17.7161 24.0523C17.7158 24.0523 17.7155 24.0523 17.7152 24.0523ZM16.473 6.9577H6.52703C6.22817 6.9577 6.04459 6.73564 6.04459 6.55297C6.04459 6.3703 6.22817 6.14824 6.52703 6.14824H16.473C16.7718 6.14824 16.9554 6.3703 16.9554 6.55297C16.9554 6.73564 16.7718 6.9577 16.473 6.9577ZM12.7432 10.9464H6.52703C6.22817 10.9464 6.04459 10.7244 6.04459 10.5417C6.04459 10.359 6.22817 10.137 6.52703 10.137H12.7432C13.0421 10.137 13.2257 10.359 13.2257 10.5417C13.2257 10.7244 13.0421 10.9464 12.7432 10.9464Z" stroke="black" stroke-width="0.9"/>
</svg>
