<svg width="34" height="34" viewBox="0 0 34 34" fill="none" xmlns="http://www.w3.org/2000/svg">
<path d="M31.5155 14.83V21.565C31.5155 28.3 28.8305 31 22.0805 31H13.9955C13.1255 31 12.3305 30.955 11.5955 30.85M4.56055 21.28V14.83M18.0455 16C20.7905 16 22.8155 13.765 22.5455 11.02L21.5405 1H14.5355L13.5305 11.02C13.2605 13.765 15.3005 16 18.0455 16Z" stroke="black" stroke-width="2" stroke-linecap="round" stroke-linejoin="round"/>
<path d="M27.4957 16C30.5257 16 32.7457 13.54 32.4457 10.525L32.0257 6.4C31.4857 2.5 29.9857 1 26.0557 1H21.4807L22.5307 11.515C22.8007 13.99 25.0207 16 27.4957 16ZM8.50567 16C10.9807 16 13.2157 13.99 13.4557 11.515L13.7857 8.2L14.5057 1H9.93067C6.00067 1 4.50067 2.5 3.96067 6.4L3.54067 10.525C3.24067 13.54 5.47567 16 8.50567 16Z" stroke="black" stroke-width="2" stroke-linecap="round" stroke-linejoin="round"/>
<path d="M9.735 26.47H5.265M7.5 24.28V28.765M13.5 26.5C13.5 27.625 13.185 28.69 12.63 29.59C12.345 30.07 12 30.505 11.595 30.85C11.55 30.91 11.505 30.955 11.445 31C10.395 31.945 9.015 32.5 7.5 32.5C5.67 32.5 4.035 31.675 2.955 30.385C2.925 30.34 2.88 30.31 2.85 30.265C2.67 30.055 2.505 29.83 2.37 29.59C1.815 28.69 1.5 27.625 1.5 26.5C1.5 24.61 2.37 22.915 3.75 21.82C4.005 21.61 4.275 21.43 4.56 21.28C5.43 20.785 6.435 20.5 7.5 20.5C9 20.5 10.35 21.04 11.4 21.955C11.58 22.09 11.745 22.255 11.895 22.42C12.885 23.5 13.5 24.925 13.5 26.5Z" stroke="black" stroke-width="2" stroke-miterlimit="10" stroke-linecap="round" stroke-linejoin="round"/>
</svg>
