<svg width="171" height="66" viewBox="0 0 171 66" fill="none" xmlns="http://www.w3.org/2000/svg">
<path d="M78.7042 52.6V31.656H82.2602V38.292L81.7842 38.264C81.8588 36.7333 82.1762 35.4453 82.7362 34.4C83.2962 33.336 84.0522 32.5427 85.0042 32.02C85.9562 31.4787 87.0295 31.208 88.2242 31.208C89.2882 31.208 90.2495 31.404 91.1082 31.796C91.9855 32.188 92.7322 32.7387 93.3482 33.448C93.9828 34.1387 94.4588 34.96 94.7762 35.912C95.1122 36.8453 95.2802 37.872 95.2802 38.992V39.636C95.2802 40.7373 95.1215 41.7733 94.8042 42.744C94.4868 43.696 94.0202 44.5267 93.4042 45.236C92.8068 45.9453 92.0695 46.5053 91.1922 46.916C90.3335 47.308 89.3442 47.504 88.2242 47.504C87.0668 47.504 86.0215 47.2707 85.0882 46.804C84.1735 46.3187 83.4362 45.5907 82.8762 44.62C82.3162 43.6307 82.0082 42.38 81.9522 40.868L83.1842 42.548V52.6H78.7042ZM86.9642 43.752C87.7295 43.752 88.3922 43.5653 88.9522 43.192C89.5308 42.8187 89.9788 42.296 90.2962 41.624C90.6135 40.952 90.7722 40.1773 90.7722 39.3C90.7722 38.4227 90.6135 37.6573 90.2962 37.004C89.9788 36.3507 89.5402 35.8467 88.9802 35.492C88.4202 35.1187 87.7482 34.932 86.9642 34.932C86.2922 34.932 85.6575 35.0907 85.0602 35.408C84.4628 35.7253 83.9775 36.1827 83.6042 36.78C83.2495 37.3587 83.0722 38.068 83.0722 38.908V39.944C83.0722 40.7467 83.2588 41.4373 83.6322 42.016C84.0242 42.576 84.5188 43.0053 85.1162 43.304C85.7135 43.6027 86.3295 43.752 86.9642 43.752ZM105.42 47.532C104.113 47.532 102.956 47.308 101.948 46.86C100.958 46.412 100.128 45.8147 99.4557 45.068C98.8023 44.3027 98.2983 43.4533 97.9437 42.52C97.6077 41.568 97.4397 40.5973 97.4397 39.608V39.048C97.4397 38.0213 97.6077 37.0413 97.9437 36.108C98.2983 35.156 98.8023 34.3067 99.4557 33.56C100.109 32.8133 100.921 32.2253 101.892 31.796C102.881 31.348 104.001 31.124 105.252 31.124C106.894 31.124 108.276 31.4973 109.396 32.244C110.534 32.972 111.402 33.9333 112 35.128C112.597 36.304 112.896 37.592 112.896 38.992V40.504H99.3157V37.956H110.18L108.724 39.132C108.724 38.2173 108.593 37.4333 108.332 36.78C108.07 36.1267 107.678 35.632 107.156 35.296C106.652 34.9413 106.017 34.764 105.252 34.764C104.468 34.764 103.805 34.9413 103.264 35.296C102.722 35.6507 102.312 36.1733 102.032 36.864C101.752 37.536 101.612 38.3667 101.612 39.356C101.612 40.2707 101.742 41.0733 102.004 41.764C102.265 42.436 102.676 42.9587 103.236 43.332C103.796 43.7053 104.524 43.892 105.42 43.892C106.241 43.892 106.913 43.7333 107.436 43.416C107.958 43.0987 108.313 42.7067 108.5 42.24H112.616C112.392 43.2667 111.953 44.1813 111.3 44.984C110.646 45.7867 109.825 46.412 108.836 46.86C107.846 47.308 106.708 47.532 105.42 47.532ZM122.836 47.196C121.287 47.196 120.036 47.0093 119.084 46.636C118.132 46.244 117.432 45.6 116.984 44.704C116.555 43.7893 116.34 42.5573 116.34 41.008V27.512H120.512V41.176C120.512 41.904 120.699 42.464 121.072 42.856C121.464 43.2293 122.015 43.416 122.724 43.416H124.992V47.196H122.836ZM114.016 34.932V31.656H124.992V34.932H114.016ZM134.612 47V31.656H139.092V47H134.612ZM132.568 34.96V31.656H139.092V34.96H132.568ZM136.348 30.144C135.508 30.144 134.883 29.9293 134.472 29.5C134.08 29.052 133.884 28.492 133.884 27.82C133.884 27.1293 134.08 26.5693 134.472 26.14C134.883 25.692 135.508 25.468 136.348 25.468C137.188 25.468 137.804 25.692 138.196 26.14C138.607 26.5693 138.812 27.1293 138.812 27.82C138.812 28.492 138.607 29.052 138.196 29.5C137.804 29.9293 137.188 30.144 136.348 30.144ZM150.207 47.196C148.658 47.196 147.407 47.0093 146.455 46.636C145.503 46.244 144.803 45.6 144.355 44.704C143.926 43.7893 143.711 42.5573 143.711 41.008V27.512H147.883V41.176C147.883 41.904 148.07 42.464 148.443 42.856C148.835 43.2293 149.386 43.416 150.095 43.416H152.363V47.196H150.207ZM141.387 34.932V31.656H152.363V34.932H141.387ZM156.104 47V31.656H160.584V47H156.104ZM154.06 34.96V31.656H160.584V34.96H154.06ZM157.84 30.144C157 30.144 156.375 29.9293 155.964 29.5C155.572 29.052 155.376 28.492 155.376 27.82C155.376 27.1293 155.572 26.5693 155.964 26.14C156.375 25.692 157 25.468 157.84 25.468C158.68 25.468 159.296 25.692 159.688 26.14C160.099 26.5693 160.304 27.1293 160.304 27.82C160.304 28.492 160.099 29.052 159.688 29.5C159.296 29.9293 158.68 30.144 157.84 30.144Z" fill="black"/>
<path d="M1 15C1 7.26802 7.26801 1 15 1H51C58.732 1 65 7.26801 65 15V51C65 58.732 58.732 65 51 65H15C7.26802 65 1 58.732 1 51V15Z" fill="#FFFB9F" stroke="black" stroke-width="2"/>
<mask id="mask0_742_1551" style="mask-type:alpha" maskUnits="userSpaceOnUse" x="0" y="0" width="66" height="66">
<rect width="66" height="66" rx="25" fill="#FFFB9F"/>
</mask>
<g mask="url(#mask0_742_1551)">
<path d="M15.9964 61.3906C16.1961 61.3409 16.397 61.2923 16.5967 61.2426C16.7986 61.1887 17.0005 61.1887 17.2035 61.2426C17.2946 61.2804 17.3856 61.3183 17.4756 61.3561C17.6468 61.4554 17.784 61.5893 17.8849 61.7589C17.9233 61.8485 17.9617 61.9382 18.0001 62.0267C18.0473 62.1758 18.055 62.3248 18.021 62.4738C18.0133 62.6229 17.9683 62.7622 17.886 62.8918C17.8147 63.0225 17.7159 63.1272 17.5919 63.2071C17.4822 63.3065 17.3527 63.3734 17.2035 63.408C17.175 63.4156 17.1453 63.422 17.1168 63.4296C17.401 64.1413 17.4427 65.2267 17.4559 66.2905C17.5963 65.8649 17.7379 65.4394 17.8783 65.0139C18.0759 64.4156 18.6552 64.0895 19.2818 64.2299C19.554 64.2903 19.825 64.5128 19.9633 64.745C20.1059 64.9858 20.1674 65.3412 20.0785 65.6101C19.8283 66.3682 19.577 67.1274 19.3268 67.8856C19.1293 68.4839 18.5499 68.81 17.9233 68.6696C17.7895 68.6394 17.6556 68.5703 17.5371 68.4796C17.5524 68.6016 17.57 68.7172 17.593 68.8219C17.6786 69.215 17.7895 69.633 18.0967 69.8997C18.4237 70.1849 18.8363 70.2108 19.2588 70.1028C19.2588 69.7313 19.2588 69.3597 19.2588 68.9882C19.2588 68.3586 19.7811 67.8931 20.3989 67.8661C20.6831 67.8543 21.0079 68.0001 21.2054 68.1944C21.4128 68.3975 21.539 68.701 21.539 68.9882C21.539 69.9051 21.539 70.822 21.539 71.74C21.539 72.131 21.3371 72.4593 21.0353 72.658C21.4051 72.9993 21.8956 73.1893 22.3774 73.0565C22.8536 72.9247 23.2026 72.5306 23.5383 72.132C23.2914 71.9582 23.0303 71.8059 22.7505 71.686C22.6078 71.6299 22.4761 71.5553 22.3642 71.4463C22.3049 71.3707 22.2457 71.2951 22.1864 71.2195C22.0196 70.9646 22.0054 70.6417 22.0712 70.3544C22.1327 70.0866 22.3587 69.8198 22.5946 69.6837C22.8251 69.5509 23.2135 69.471 23.4736 69.5703C23.7995 69.6945 24.1221 69.8306 24.4206 70.0099C24.7169 70.187 24.9967 70.3987 25.2568 70.6244C25.4532 70.795 25.6331 70.984 25.7955 71.1871C26.0117 71.4581 26.2169 71.7303 26.3815 72.0359C26.4737 72.2076 26.5176 72.3848 26.5253 72.5662C26.613 72.4636 26.7151 72.374 26.8215 72.3124C27.1035 72.1504 27.3889 72.1482 27.7005 72.199C29.2082 72.4452 30.5448 73.3848 31.3809 74.6257C31.6245 74.9875 31.5686 75.4303 31.3491 75.7748C31.4073 75.8169 31.4621 75.8655 31.5214 75.9055C32.0229 75.0285 32.4003 74.0825 32.6396 73.104C33.2925 73.995 34.0375 74.9486 35.1228 75.2013C35.6704 75.3288 36.2893 75.1452 36.7216 74.7985C36.6645 74.7499 36.6108 74.697 36.5537 74.6495C36.4703 74.5803 36.3847 74.5112 36.298 74.4464C36.2487 74.4119 36.1707 74.3557 36.1389 74.333C35.7329 74.0468 35.3071 73.7887 34.866 73.5587C34.6378 73.4399 34.4062 73.3319 34.1725 73.2271C34.1615 73.2217 34.1582 73.2206 34.1506 73.2174C34.1089 73.2001 34.0672 73.1839 34.0266 73.1677C33.9004 73.1191 33.7731 73.0716 33.6447 73.0273C33.174 72.8632 32.6922 72.7325 32.2039 72.631C31.5795 72.5014 31.2767 71.8134 31.4073 71.2497C31.5499 70.6341 32.2281 70.3447 32.8107 70.4656C35.0482 70.93 37.1298 72.0413 38.7758 73.5997C39.0413 73.8514 39.1324 74.1959 39.0863 74.5264C39.6569 74.8201 40.3406 74.9853 40.9112 74.7089C41.0824 74.6257 41.2195 74.4864 41.3216 74.3255C41.1021 74.2283 40.8816 74.1332 40.6577 74.0468C40.0816 73.8244 39.6833 73.3027 39.861 72.6656C40.0125 72.1245 40.6906 71.6601 41.2645 71.8815C42.0425 72.1828 42.7909 72.5381 43.5129 72.9345C43.5184 72.8945 43.5206 72.8556 43.5294 72.8146C43.6578 72.2616 44.3732 71.8221 44.9329 72.0305C46.8378 72.7422 48.5705 73.7401 50.1309 75.0307C50.6192 75.4346 50.5183 76.2025 50.1309 76.6183C49.6898 77.0913 48.9743 76.9952 48.5178 76.6183C48.4246 76.5405 48.3302 76.4638 48.2347 76.3882C48.1963 76.358 48.1568 76.3278 48.1184 76.2975C47.9527 76.1755 47.787 76.0534 47.618 75.9368C47.5676 75.9012 47.5127 75.872 47.4611 75.8374C48.9546 77.276 50.2033 78.9586 51.1317 80.8269C51.2513 80.8701 51.3742 80.895 51.4993 80.868C52.0051 80.761 52.0852 80.0623 51.902 79.586C51.7198 79.1098 51.3884 78.6389 51.4883 78.1389C51.8844 78.4953 52.2992 78.8614 52.8106 79.0201C53.3219 79.18 53.9617 79.073 54.2568 78.6313C54.4094 78.4024 54.4511 78.1216 54.4796 77.8505C54.6574 76.2187 54.552 74.5577 54.1713 72.9593C54.7287 73.6548 55.9533 73.4507 56.502 72.7487C57.0495 72.0467 57.0627 71.0704 56.8893 70.2021C56.716 69.3338 56.3813 68.4936 56.3132 67.6113C56.9365 68.1675 57.7584 68.5033 58.5979 68.5454C58.5913 65.9395 58.002 63.3367 56.8827 60.9748C57.4786 61.2427 58.2259 61.4964 58.7394 61.0979C59.3155 60.6508 59.1334 59.7588 58.859 59.0892C58.1128 57.2683 57.0748 55.5631 55.7953 54.0554C56.9222 54.5263 58.1776 54.6948 59.3912 54.5382C58.566 52.5651 57.3963 50.7323 55.95 49.1426C56.919 49.2873 57.9076 49.3068 58.8821 49.1998C59.0587 49.1804 59.2486 49.1502 59.377 49.0281C59.6392 48.7776 59.4746 48.3445 59.2892 48.0356C58.2346 46.2731 56.9222 44.6607 55.4057 43.2632C56.074 43.7481 57.043 42.8507 56.9069 42.0439C56.7708 41.2372 56.0224 40.6864 55.3147 40.2598C54.5334 39.7889 51.598 38.9563 51.2381 38.2327C50.8519 37.454 52.6273 35.469 52.9455 34.5467C53.0125 34.3534 53.0717 34.1385 52.9949 33.9495C52.906 33.7324 52.669 33.618 52.4485 33.5316C51.3676 33.105 50.2143 32.8598 49.0522 32.808C50.5589 32.1805 51.789 30.9375 52.387 29.4385C52.5011 29.1533 52.5911 28.8261 52.4605 28.5475C52.3552 28.3228 52.1291 28.1814 51.9119 28.055C50.966 27.5075 49.9806 27.028 48.9644 26.6219C50.1386 26.5679 51.2315 25.7169 51.5552 24.6045C51.6112 24.4112 51.6452 24.2038 51.5882 24.0105C51.5091 23.7448 51.2732 23.558 51.0483 23.3928C49.884 22.5428 48.6309 21.8117 47.3141 21.2155C48.1272 21.3289 49.0808 21.0147 49.3803 20.263C49.7205 19.4098 49.0698 18.4908 48.2786 17.9767C48.0943 18.6754 47.8682 19.3634 47.5928 20.0308C47.3602 20.5945 46.8422 20.9909 46.1893 20.8149C45.644 20.668 45.1611 19.9962 45.3927 19.4347C45.7273 18.6225 45.9907 17.7898 46.1849 16.9421C46.1147 16.901 46.0467 16.8568 45.9786 16.8125C46.0543 16.8254 46.1334 16.8254 46.2135 16.8179C46.4263 15.8513 46.5448 14.8664 46.5547 13.8674C46.558 13.5423 46.5481 13.2162 46.5306 12.8911C46.1794 12.6481 45.6154 12.8241 45.2884 13.1416C44.923 13.4959 44.6915 13.9819 44.2701 14.2691C44.7134 13.1157 45.0547 11.6059 44.1077 10.8132C42.3344 12.1902 40.7598 13.7907 39.6866 15.7833C38.9985 17.0619 37.0299 15.9258 37.7169 14.6504C38.0867 13.9646 38.5124 13.3198 38.981 12.7096C39.5066 11.2052 40.0311 9.70084 40.5568 8.19643C38.5728 10.0345 36.9575 12.2571 35.8328 14.699C35.7889 13.1287 36.2465 11.5919 36.6997 10.0864C37.267 8.20291 37.8332 6.31943 38.4005 4.43488C36.3277 6.8389 34.6564 9.57772 33.4757 12.5099C33.4373 10.9774 33.1015 9.45244 32.4914 8.04307C31.4435 9.14681 32.6867 11.3575 31.4885 12.3014C29.4266 9.64468 26.7535 7.22553 23.9268 5.35069C24.9693 6.93934 26.0106 8.5269 27.052 10.1155C25.8252 9.35956 24.5457 8.68566 23.2245 8.10247C22.3982 7.73744 21.3953 7.43721 20.5931 7.7288C23.3178 9.5626 25.8515 11.7474 27.4152 14.6514C28.1032 15.928 26.1335 17.0609 25.4455 15.7843C24.0815 13.2464 21.9066 11.3456 19.543 9.73431C19.5836 10.0119 19.6659 10.2851 19.7943 10.5303C20.2288 11.3554 21.0123 11.9375 21.7717 12.4904C20.6908 12.4019 19.5924 12.5919 18.596 13.0142C18.5839 13.2972 18.5762 13.5801 18.5795 13.8641C18.585 14.403 18.6245 14.9387 18.6904 15.469C19.2423 15.8718 19.7954 16.2746 20.3473 16.6764C19.9139 16.9356 19.4969 17.2196 19.0942 17.522C19.2698 18.1678 19.4848 18.805 19.7427 19.4303C19.9753 19.9952 19.487 20.6647 18.946 20.8105C18.303 20.9844 17.7752 20.5881 17.5426 20.0265C17.4295 19.7522 17.3253 19.4746 17.2276 19.1938C16.6779 19.7802 16.1786 20.4131 15.7364 21.0816C16.3388 21.5503 17.1376 21.7652 17.8981 21.6637C16.2839 23.328 14.8366 25.1488 13.5834 27.0895C13.9532 27.2483 14.3384 27.3692 14.7323 27.4535C14.6983 27.3509 14.6742 27.2461 14.6687 27.1435C14.639 26.4977 15.2173 26.0754 15.8088 26.0214C17.7511 25.8411 19.7416 26.0571 21.6016 26.6348C21.7179 26.6705 21.8199 26.7256 21.9154 26.7871C21.9165 26.786 21.9165 26.785 21.9165 26.7839C23.5965 24.1693 27.7828 27.8563 25.2831 29.4503C25.0164 29.621 24.7026 29.7117 24.3877 29.7517C23.5811 29.8543 22.7099 29.6037 22.1678 29.0076C22.0701 28.8996 21.99 28.7775 21.9187 28.6501C21.6444 28.824 21.302 28.8952 20.9947 28.8002C20.5525 28.663 20.1059 28.5453 19.6516 28.4514C19.4333 28.406 19.2138 28.366 18.9932 28.3315C18.9493 28.325 18.8495 28.311 18.8177 28.3056C18.7222 28.2937 18.6267 28.2829 18.5313 28.2732C17.6951 28.1889 16.8545 28.1857 16.0173 28.2516C14.6753 30.0432 16.7283 31.6978 18.303 32.9495C20.6392 31.053 23.4791 29.8953 26.5066 29.5821C27.1233 29.5184 27.6467 30.1469 27.6467 30.7042C27.6467 31.3565 27.1189 31.7636 26.5066 31.8263C25.9371 31.8846 25.1701 32.0315 24.5084 32.2129C23.8577 32.3911 23.1883 32.6265 22.6451 32.8739C21.3371 33.4711 20.1915 34.2249 19.1754 35.1645C18.7255 35.5814 18.01 35.6051 17.5623 35.1645C17.1991 34.807 17.1322 34.2076 17.3977 33.781C16.2378 34.4236 15.1098 35.1019 14.0882 35.9907C14.6467 36.4129 15.4116 36.5577 16.0897 36.3708C14.7773 37.2607 13.6767 38.4509 12.8987 39.8192C13.3815 40.1702 14.0662 40.2296 14.6028 39.965C12.891 40.8074 11.1474 43.166 10.6503 44.9361C11.3547 45.3983 12.0131 45.5755 12.8526 45.7105C11.3438 47.2084 10.0544 48.9191 9.035 50.7745C8.89564 51.0293 8.75738 51.336 8.88357 51.5974C9.02842 51.8998 9.4454 51.9635 9.7768 51.8912C10.1082 51.8188 10.422 51.6525 10.7622 51.646C10.1652 52.2875 9.63963 52.9916 9.19192 53.7411C9.2007 53.753 9.21167 53.7627 9.21935 53.7757C11.1506 56.5836 13.4353 59.1313 15.9964 61.3906ZM31.6465 68.9882C31.6157 65.7915 32.4278 62.6337 33.9783 59.8257C34.6795 58.5546 36.6492 59.6896 35.948 60.9597C34.5873 63.4253 33.9004 66.1857 33.9278 68.9893C33.9421 70.4354 31.6607 70.4322 31.6465 68.9882ZM46.1663 46.4276C43.9047 49.0303 42.0491 51.9646 40.6369 55.0933C39.951 56.6117 39.3903 58.1863 38.9338 59.7858C38.4477 61.4921 37.9528 63.3216 37.9265 65.1014C37.9045 66.5475 35.6232 66.5464 35.6451 65.1014C35.6737 63.1855 36.1696 61.2113 36.6832 59.37C37.1836 57.5783 37.8321 55.8331 38.5892 54.1321C40.0926 50.7583 42.1215 47.6382 44.5532 44.84C44.9559 44.3778 45.7559 44.4361 46.1663 44.84C46.6261 45.2925 46.5668 45.9675 46.1663 46.4276ZM46.8894 35.3567C46.5953 35.8524 45.836 36.1041 45.329 35.7596C42.5583 33.8772 39.4397 32.6341 36.1192 32.0822C35.508 31.9807 35.1722 31.2399 35.3225 30.701C35.497 30.0746 36.1192 29.8165 36.726 29.9169C40.2133 30.4968 43.57 31.8436 46.4801 33.821C46.9893 34.1666 47.2208 34.7995 46.8894 35.3567ZM41.6014 26.786C41.7517 27.0193 41.8275 27.2861 41.8472 27.5593C42.0645 27.325 42.3783 27.1727 42.702 27.1662C44.8374 27.1241 46.9168 27.5701 48.8712 28.4038C49.4561 28.6533 49.5405 29.4557 49.2805 29.9396C49.1499 30.1826 48.8635 30.3834 48.599 30.4558C48.2786 30.5422 48.012 30.4677 47.7201 30.3424C47.708 30.337 47.7025 30.3348 47.6937 30.3305C47.6356 30.3068 47.5774 30.2841 47.5193 30.2614C47.4238 30.2247 47.3272 30.189 47.2318 30.1545C47.0068 30.0735 46.7797 29.999 46.5503 29.9309C46.1246 29.8035 45.6922 29.6977 45.2566 29.6123C45.0371 29.5691 44.8155 29.5335 44.5938 29.5022C44.551 29.4968 44.4808 29.4881 44.4446 29.4849C44.3425 29.473 44.2405 29.4633 44.1384 29.4547C43.6611 29.4147 43.1826 29.4017 42.7031 29.4104C42.1808 29.4212 41.7726 29.0616 41.6245 28.6047C41.5487 28.7494 41.4599 28.8877 41.3501 29.0086C40.808 29.6048 39.9368 29.8553 39.1302 29.7527C38.8153 29.7128 38.5015 29.621 38.2348 29.4514C35.734 27.8595 39.9214 24.1714 41.6014 26.786ZM34.9856 25.0818C36.0215 24.1606 37.3098 23.6314 38.7023 23.5418C39.0029 23.5224 39.2937 23.6768 39.5088 23.8701C39.7327 24.0731 39.8292 24.3734 39.8435 24.6639C39.8556 24.9436 39.7074 25.2633 39.5088 25.4577C39.2882 25.6747 39.0062 25.7665 38.7023 25.7871C38.6562 25.7903 38.6101 25.7957 38.5651 25.8C38.2348 25.8529 37.9133 25.9393 37.6006 26.0549C37.301 26.1899 37.0168 26.3519 36.7512 26.5431C36.7008 26.5852 36.6492 26.6251 36.5998 26.6683C36.1258 27.0895 35.4608 27.0971 34.9867 26.6683C34.5478 26.2731 34.5423 25.4771 34.9856 25.0818ZM29.0864 27.1014C29.1523 26.8152 29.3673 26.5852 29.6098 26.4307C29.8523 26.2774 30.2156 26.2439 30.4888 26.3173C30.7335 26.3843 31.0638 26.5927 31.1702 26.8336C31.1801 26.8573 31.1977 26.8768 31.2097 26.8984C31.2635 26.9545 31.3173 27.0107 31.3765 27.0604C31.3996 27.0744 31.4204 27.0917 31.4435 27.1046C31.449 27.1014 31.4544 27.0982 31.4599 27.0949C31.5741 26.9912 31.6816 26.88 31.7793 26.7612C31.8736 26.6284 31.9877 26.5139 32.1326 26.4307C32.2237 26.3929 32.3147 26.3551 32.4058 26.3173C32.6988 26.2245 33.0192 26.2936 33.2848 26.4307C33.5317 26.5592 33.7358 26.8411 33.8093 27.1014C33.8795 27.3541 33.8587 27.7451 33.6941 27.9665C33.3792 28.3909 33.0587 28.7527 32.6121 29.0475C32.5858 29.0648 32.554 29.0778 32.5265 29.094C32.5584 29.1739 32.577 29.257 32.5825 29.3434C32.5979 29.4169 32.6165 29.4892 32.6406 29.5605C32.6681 29.6134 32.6977 29.6663 32.7306 29.716C32.8063 29.8035 32.8886 29.8856 32.9775 29.9601C33.0302 29.9925 33.0851 30.0227 33.141 30.0508C33.2178 30.0756 33.2958 30.0962 33.3759 30.1113C33.6688 30.134 33.919 30.2376 34.1374 30.4342C34.3613 30.6372 34.4578 30.9375 34.471 31.228C34.4831 31.5077 34.3349 31.8274 34.1374 32.0218C33.941 32.2151 33.614 32.3641 33.3309 32.3501C33.1081 32.3393 32.881 32.3112 32.6637 32.2572C32.4585 32.2054 32.2599 32.1179 32.0689 32.0326C31.7683 31.8976 31.4896 31.687 31.2536 31.4623C31.2284 31.4386 31.2075 31.4083 31.1823 31.3824C30.8048 31.7885 30.3165 32.0682 29.792 32.2486C29.5034 32.3479 29.1742 32.2712 28.913 32.1352C28.6497 31.998 28.4785 31.7356 28.3885 31.4645C28.3413 31.3155 28.3337 31.1664 28.3688 31.0163C28.3753 30.8673 28.4203 30.728 28.5037 30.5984C28.642 30.3651 28.8549 30.2171 29.1007 30.1178C29.1907 30.0767 29.2773 30.0292 29.3618 29.9774C29.454 29.8996 29.5396 29.8154 29.6186 29.7247C29.6592 29.6631 29.6954 29.5994 29.7294 29.5335C29.7492 29.4773 29.7711 29.4223 29.7865 29.365C29.8337 29.1803 29.939 29.0227 30.0707 28.8909C30.0685 28.8888 30.0652 28.8877 30.063 28.8855C29.7316 28.6371 29.375 28.3498 29.2027 27.9632C29.0996 27.7883 29.048 27.5993 29.0469 27.3962C29.059 27.3012 29.0721 27.2018 29.0864 27.1014ZM27.0794 26.9426C27.03 26.8984 26.9785 26.8584 26.9269 26.8163C26.6613 26.6251 26.3771 26.4642 26.0786 26.3292C25.7659 26.2126 25.4433 26.1262 25.113 26.0733C25.0669 26.0689 25.0208 26.0635 24.9758 26.0603C24.6609 26.0398 24.3997 25.9404 24.1693 25.7309C23.9455 25.5279 23.8489 25.2276 23.8357 24.9371C23.8225 24.6574 23.9718 24.3377 24.1693 24.1433C24.3635 23.9522 24.6949 23.7967 24.9758 23.815C26.3672 23.9036 27.6566 24.4328 28.6925 25.3551C28.9174 25.5549 29.0129 25.8594 29.0261 26.1489C29.0392 26.448 28.8911 26.7288 28.6925 26.9426C28.4993 27.1489 28.1658 27.271 27.8859 27.271C27.5787 27.272 27.3033 27.1424 27.0794 26.9426ZM25.1426 42.5537C25.7846 42.3798 26.3157 42.7751 26.5461 43.3377C28.992 49.3338 30.7906 55.5706 31.9109 61.9371C32.0163 62.5365 31.7562 63.1445 31.1143 63.3184C31.0045 63.3475 30.8871 63.3529 30.7686 63.3464C30.9958 64.1024 31.2207 64.8584 31.449 65.6133C31.8703 67.0032 29.668 67.5918 29.2499 66.2105C28.789 64.6878 28.3391 63.1607 27.864 61.6422C27.447 60.3106 26.9675 59.0222 26.1533 57.871C25.7999 57.3709 26.0633 56.6225 26.5626 56.3352C27.1244 56.0123 27.7707 56.2413 28.123 56.7381C28.3435 57.0502 28.5432 57.3753 28.7265 57.709C27.6347 53.0143 26.1719 48.4082 24.3482 43.9361C24.1155 43.3691 24.5995 42.7006 25.1426 42.5537Z" fill="#9998D3"/>
<g clip-path="url(#clip0_742_1551)">
<path d="M38.2207 29.4492C38.4873 29.6199 38.8012 29.7106 39.1161 29.7506C39.9226 29.8532 40.7939 29.6026 41.336 29.0065C41.4457 28.8855 41.5346 28.7473 41.6103 28.6025C41.5774 28.5 41.5533 28.3952 41.5478 28.2861C41.5346 28.0053 41.6509 27.7526 41.8331 27.5561C41.8133 27.2828 41.7365 27.0161 41.5873 26.7828C39.9073 24.1693 35.7199 27.8563 38.2207 29.4492Z" fill="#FF7B9B"/>
<path d="M22.3852 28.015C22.3237 28.2807 22.1394 28.501 21.9056 28.649C21.977 28.7764 22.0571 28.8985 22.1547 29.0065C22.6968 29.6026 23.5681 29.8532 24.3746 29.7506C24.6895 29.7106 25.0034 29.6188 25.27 29.4492C27.7697 27.8563 23.5823 24.1693 21.9034 26.7828C21.9023 26.7839 21.9023 26.785 21.9023 26.786C22.3018 27.0506 22.4993 27.5204 22.3852 28.015Z" fill="#FF7B9B"/>
<path d="M30.0477 28.8866C30.0499 28.8887 30.0532 28.8898 30.0554 28.892C29.9237 29.0248 29.8183 29.1814 29.7711 29.3661C29.7569 29.4233 29.7338 29.4784 29.7141 29.5345C29.6801 29.5993 29.6439 29.6641 29.6033 29.7257C29.5243 29.8164 29.4387 29.9007 29.3465 29.9784C29.2631 30.0313 29.1764 30.0778 29.0853 30.1199C28.8395 30.2182 28.6277 30.3672 28.4884 30.6005C28.405 30.729 28.36 30.8683 28.3534 31.0184C28.3194 31.1675 28.326 31.3165 28.3732 31.4666C28.4631 31.7377 28.6343 32.0001 28.8977 32.1373C29.1588 32.2723 29.488 32.349 29.7766 32.2507C30.3012 32.0703 30.7895 31.7906 31.1669 31.3845C31.1922 31.4094 31.213 31.4396 31.2383 31.4645C31.4742 31.6891 31.7529 31.8986 32.0536 32.0347C32.2445 32.12 32.4431 32.2086 32.6483 32.2593C32.8656 32.3133 33.0928 32.3414 33.3155 32.3522C33.5986 32.3662 33.9245 32.2172 34.122 32.0239C34.3196 31.8295 34.4688 31.5098 34.4556 31.2301C34.4425 30.9396 34.3459 30.6383 34.122 30.4363C33.9037 30.2398 33.6546 30.1372 33.3605 30.1134C33.2815 30.0983 33.2025 30.0778 33.1257 30.0529C33.0697 30.0248 33.0148 29.9946 32.9622 29.9622C32.8733 29.8877 32.791 29.8056 32.7153 29.7181C32.6834 29.6674 32.6538 29.6155 32.6253 29.5626C32.6012 29.4913 32.5825 29.419 32.5671 29.3455C32.5616 29.2591 32.5419 29.176 32.5112 29.0961C32.5386 29.0799 32.5704 29.0669 32.5968 29.0496C33.0434 28.7548 33.3627 28.393 33.6787 27.9686C33.8433 27.7472 33.8642 27.3562 33.7939 27.1035C33.7204 26.8432 33.5163 26.5614 33.2694 26.4329C33.005 26.2957 32.6835 26.2255 32.3905 26.3195C32.2994 26.3573 32.2083 26.3951 32.1172 26.4329C31.9724 26.5171 31.8594 26.6305 31.7639 26.7633C31.6662 26.8832 31.5587 26.9934 31.4446 27.097C31.4391 27.1003 31.4336 27.1035 31.4281 27.1068C31.4051 27.0927 31.3842 27.0765 31.3612 27.0625C31.3019 27.0117 31.2471 26.9566 31.1944 26.9005C31.1823 26.8789 31.1658 26.8594 31.1549 26.8357C31.0484 26.5959 30.7181 26.3864 30.4734 26.3195C30.2002 26.246 29.837 26.2795 29.5945 26.4329C29.3509 26.5873 29.1369 26.8173 29.0711 27.1035C29.0568 27.2029 29.0436 27.3022 29.0305 27.4027C29.0316 27.6057 29.0831 27.7947 29.1863 27.9697C29.3597 28.3509 29.7163 28.6382 30.0477 28.8866Z" fill="#32100F"/>
<path d="M28.6798 26.9405C28.8795 26.7266 29.0277 26.4459 29.0145 26.1467C29.0013 25.8573 28.9048 25.5527 28.6798 25.3529C27.644 24.4317 26.3546 23.9025 24.9632 23.8129C24.6823 23.7945 24.3498 23.95 24.1567 24.1412C23.9591 24.3356 23.8099 24.6553 23.8231 24.935C23.8362 25.2255 23.9328 25.5257 24.1567 25.7288C24.3882 25.9372 24.6483 26.0365 24.9632 26.0581C25.0093 26.0614 25.0554 26.0668 25.1004 26.0711C25.4307 26.124 25.7533 26.2104 26.066 26.3271C26.3645 26.4621 26.6487 26.6241 26.9142 26.8141C26.9647 26.8562 27.0174 26.8962 27.0668 26.9405C27.2906 27.1403 27.566 27.2688 27.8733 27.2688C28.1531 27.2699 28.4867 27.1468 28.6798 26.9405Z" fill="#32100F"/>
<path d="M36.5856 26.6672C36.635 26.624 36.6866 26.584 36.7371 26.5419C37.0037 26.3508 37.2879 26.1888 37.5864 26.0538C37.8991 25.9371 38.2206 25.8507 38.5509 25.7989C38.597 25.7946 38.642 25.7892 38.6881 25.7859C38.9921 25.7665 39.2741 25.6736 39.4946 25.4576C39.6922 25.2632 39.8414 24.9436 39.8293 24.6638C39.8162 24.3733 39.7196 24.072 39.4946 23.8701C39.2796 23.6768 38.9899 23.5223 38.6881 23.5418C37.2956 23.6303 36.0073 24.1595 34.9715 25.0818C34.5282 25.4771 34.5325 26.273 34.9715 26.6694C35.4466 27.096 36.1116 27.0884 36.5856 26.6672Z" fill="#32100F"/>
<path d="M46.4667 33.8188C43.5566 31.8414 40.1999 30.4946 36.7126 29.9147C36.1058 29.8143 35.4847 30.0724 35.3091 30.6988C35.1588 31.2377 35.4946 31.9785 36.1058 32.08C39.4263 32.633 42.5438 33.875 45.3156 35.7574C45.8226 36.1019 46.5819 35.8502 46.876 35.3545C47.2074 34.7973 46.9748 34.1633 46.4667 33.8188Z" fill="#32100F"/>
<path d="M41.6104 28.6036C41.7586 29.0615 42.1657 29.4201 42.6891 29.4093C43.1675 29.3996 43.6471 29.4125 44.1244 29.4536C44.2265 29.4622 44.3285 29.4719 44.4306 29.4838C44.4668 29.487 44.537 29.4957 44.5798 29.5011C44.8015 29.5324 45.0231 29.568 45.2426 29.6112C45.6782 29.6955 46.1106 29.8024 46.5363 29.9298C46.7657 29.9979 46.9928 30.0724 47.2178 30.1534C47.3143 30.1879 47.4098 30.2236 47.5053 30.2603C47.5634 30.283 47.6216 30.3057 47.6797 30.3294C47.6896 30.3337 47.6951 30.3359 47.7061 30.3413C47.998 30.4655 48.2646 30.5411 48.585 30.4547C48.8495 30.3823 49.1359 30.1815 49.2665 29.9385C49.5265 29.4546 49.442 28.6522 48.8572 28.4027C46.9028 27.569 44.8234 27.123 42.688 27.1651C42.3643 27.1716 42.0505 27.3238 41.8332 27.5582C41.651 27.7548 41.5347 28.0075 41.5479 28.2883C41.5523 28.3963 41.5775 28.501 41.6104 28.6036Z" fill="#32100F"/>
<path d="M17.5526 35.1645C18.0003 35.6051 18.7147 35.5813 19.1657 35.1645C20.1818 34.2249 21.3274 33.4711 22.6354 32.8738C23.1786 32.6265 23.8469 32.3911 24.4987 32.2129C25.1604 32.0315 25.9263 31.8846 26.4969 31.8263C27.1092 31.7625 27.637 31.3554 27.637 30.7042C27.637 30.1469 27.1136 29.5173 26.4969 29.5821C23.4694 29.8953 20.6295 31.053 18.2933 32.9494C18.0431 33.1525 17.7929 33.3577 17.5548 33.578C17.489 33.6385 17.4363 33.7087 17.3902 33.7821C17.1214 34.2076 17.1894 34.807 17.5526 35.1645Z" fill="#32100F"/>
<path d="M18.5199 28.272C18.6154 28.2818 18.7109 28.2926 18.8063 28.3044C18.8382 28.3098 18.938 28.3239 18.9819 28.3304C19.2025 28.3649 19.4219 28.4049 19.6403 28.4502C20.0935 28.5442 20.5412 28.6619 20.9834 28.7991C21.2907 28.8952 21.633 28.8228 21.9074 28.649C22.1411 28.501 22.3254 28.2796 22.3869 28.015C22.501 27.5204 22.3046 27.0506 21.9041 26.7871C21.8097 26.7244 21.7066 26.6704 21.5902 26.6348C19.7303 26.057 17.7397 25.841 15.7975 26.0214C15.2049 26.0765 14.6277 26.4976 14.6573 27.1435C14.6617 27.2471 14.687 27.3508 14.721 27.4534C14.8702 27.9081 15.2795 28.3142 15.7986 28.2656C15.8677 28.2591 15.9379 28.2569 16.0081 28.2504C16.8432 28.1856 17.6838 28.1878 18.5199 28.272Z" fill="#32100F"/>
<path d="M39.6736 15.7779C40.7467 13.7853 42.3214 12.1848 44.0947 10.8078C44.6839 10.3499 45.2952 9.91575 45.9184 9.50212C46.128 10.0399 46.2257 10.6491 46.3211 11.1664C46.4265 11.7344 46.4868 12.309 46.5176 12.8868C46.534 13.2118 46.545 13.5369 46.5417 13.8631C46.5318 14.862 46.4133 15.847 46.2004 16.8136C46.1917 16.8546 46.1807 16.8967 46.1708 16.9377C45.9766 17.7844 45.7132 18.6182 45.3785 19.4303C45.147 19.9919 45.6298 20.6637 46.1752 20.8105C46.827 20.9866 47.3461 20.5902 47.5787 20.0265C47.8541 19.3591 48.0791 18.6711 48.2645 17.9724C48.6541 16.5014 48.8461 14.9787 48.822 13.4613C48.789 11.3683 48.529 8.77854 47.0827 7.13481C46.7656 6.77518 46.1017 6.70606 45.7001 6.95986C43.196 8.53554 40.761 10.3618 38.968 12.7032C38.5005 13.3144 38.0737 13.9581 37.7039 14.6439C37.0169 15.9204 38.9855 17.0555 39.6736 15.7779Z" fill="#32100F"/>
<path d="M18.9309 20.8094C19.4719 20.6626 19.9602 19.9941 19.7275 19.4292C19.4697 18.805 19.2546 18.1678 19.079 17.5209C18.8958 16.8459 18.7608 16.1601 18.6752 15.4668C18.6094 14.9365 18.5699 14.4009 18.5644 13.862C18.5611 13.579 18.5688 13.295 18.5808 13.012C18.6072 12.3932 18.6697 11.7754 18.7838 11.1663C18.8804 10.649 18.9781 10.0399 19.1866 9.5021C19.3007 9.5777 19.4148 9.65546 19.5278 9.73321C21.8926 11.3435 24.0675 13.2442 25.4314 15.7778C26.1195 17.0544 28.0892 15.9215 27.4011 14.6449C25.8374 11.7409 23.3048 9.55502 20.5791 7.7223C20.1917 7.46095 19.8 7.20715 19.406 6.95876C19.0077 6.70712 18.3427 6.77192 18.0245 7.13371C16.5782 8.77636 16.3182 11.3672 16.2852 13.4602C16.2545 15.402 16.5716 17.3557 17.2136 19.1927C17.3112 19.4724 17.4155 19.7511 17.5285 20.0254C17.7589 20.5859 18.2879 20.9833 18.9309 20.8094Z" fill="#32100F"/>
<path d="M28.7109 57.7057C28.5287 57.372 28.329 57.0469 28.1073 56.7348C27.7562 56.238 27.1088 56.0091 26.5469 56.332C26.0466 56.6193 25.7832 57.3677 26.1376 57.8677C26.9519 59.019 27.4325 60.3074 27.8484 61.639C28.3235 63.1574 28.7723 64.6845 29.2343 66.2073C29.6524 67.5886 31.8547 67 31.4333 65.6101C31.2051 64.8552 30.9801 64.0992 30.753 63.3432C30.8715 63.3497 30.9889 63.3443 31.0986 63.3151C31.7406 63.1412 32.0006 62.5343 31.8953 61.9338C30.7749 55.5674 28.9764 49.3305 26.5305 43.3345C26.3011 42.7718 25.77 42.3766 25.127 42.5504C24.5838 42.6973 24.0999 43.3658 24.3303 43.9317C26.1563 48.405 27.6201 53.0111 28.7109 57.7057Z" fill="#32100F"/>
<path d="M33.9655 59.8224C32.4149 62.6304 31.6029 65.7893 31.6337 68.9849C31.6479 70.4289 33.9282 70.4321 33.915 68.9849C33.8876 66.1813 34.5745 63.4209 35.9352 60.9553C36.6353 59.6864 34.6667 58.5513 33.9655 59.8224Z" fill="#32100F"/>
<path d="M44.541 44.8378C42.1094 47.636 40.0804 50.755 38.5771 54.1299C37.8188 55.8309 37.1703 57.5761 36.671 59.3678C36.1575 61.2081 35.6615 63.1833 35.633 65.0992C35.611 66.5442 37.8924 66.5453 37.9143 65.0992C37.9406 63.3194 38.4355 61.4899 38.9217 59.7836C39.377 58.1852 39.9389 56.6095 40.6247 55.0911C42.0381 51.9635 43.8925 49.0281 46.1541 46.4254C46.5546 45.9653 46.6139 45.2903 46.1541 44.8378C45.7437 44.4339 44.9427 44.3756 44.541 44.8378Z" fill="#32100F"/>
</g>
</g>
<path d="M64.964 52.3333C64.4519 59.4143 58.5449 65 51.3333 65H14.6667C7.45509 65 1.5481 59.4143 1.03603 52.3333H64.964Z" fill="white" stroke="black" stroke-width="2"/>
<circle cx="7.66667" cy="57" r="1.66667" fill="black"/>
<circle cx="13.0007" cy="57" r="1.66667" fill="black"/>
<circle cx="18.3327" cy="57" r="1.66667" fill="black"/>
<defs>
<clipPath id="clip0_742_1551">
<rect width="34.7523" height="63.2628" fill="white" transform="translate(14.6543 6.80756)"/>
</clipPath>
</defs>
</svg>
