<svg width="412" height="151" viewBox="0 0 412 151" fill="none" xmlns="http://www.w3.org/2000/svg">
<path d="M179.672 110.8V62.928H187.8V78.096L186.712 78.032C186.883 74.5333 187.608 71.5893 188.888 69.2C190.168 66.768 191.896 64.9547 194.072 63.76C196.248 62.5227 198.701 61.904 201.432 61.904C203.864 61.904 206.061 62.352 208.024 63.248C210.029 64.144 211.736 65.4027 213.144 67.024C214.595 68.6027 215.683 70.48 216.408 72.656C217.176 74.7893 217.56 77.136 217.56 79.696V81.168C217.56 83.6853 217.197 86.0533 216.472 88.272C215.747 90.448 214.68 92.3467 213.272 93.968C211.907 95.5893 210.221 96.8693 208.216 97.808C206.253 98.704 203.992 99.152 201.432 99.152C198.787 99.152 196.397 98.6187 194.264 97.552C192.173 96.4427 190.488 94.7787 189.208 92.56C187.928 90.2987 187.224 87.44 187.096 83.984L189.912 87.824V110.8H179.672ZM198.552 90.576C200.301 90.576 201.816 90.1493 203.096 89.296C204.419 88.4427 205.443 87.248 206.168 85.712C206.893 84.176 207.256 82.4053 207.256 80.4C207.256 78.3947 206.893 76.6453 206.168 75.152C205.443 73.6587 204.44 72.5067 203.16 71.696C201.88 70.8427 200.344 70.416 198.552 70.416C197.016 70.416 195.565 70.7787 194.2 71.504C192.835 72.2293 191.725 73.2747 190.872 74.64C190.061 75.9627 189.656 77.584 189.656 79.504V81.872C189.656 83.7067 190.083 85.2853 190.936 86.608C191.832 87.888 192.963 88.8693 194.328 89.552C195.693 90.2347 197.101 90.576 198.552 90.576ZM240.736 99.216C237.749 99.216 235.104 98.704 232.8 97.68C230.539 96.656 228.64 95.2907 227.104 93.584C225.611 91.8347 224.459 89.8933 223.648 87.76C222.88 85.584 222.496 83.3653 222.496 81.104V79.824C222.496 77.4773 222.88 75.2373 223.648 73.104C224.459 70.928 225.611 68.9867 227.104 67.28C228.597 65.5733 230.453 64.2293 232.672 63.248C234.933 62.224 237.493 61.712 240.352 61.712C244.107 61.712 247.264 62.5653 249.824 64.272C252.427 65.936 254.411 68.1333 255.776 70.864C257.141 73.552 257.824 76.496 257.824 79.696V83.152H226.784V77.328H251.616L248.288 80.016C248.288 77.9253 247.989 76.1333 247.392 74.64C246.795 73.1467 245.899 72.016 244.704 71.248C243.552 70.4373 242.101 70.032 240.352 70.032C238.56 70.032 237.045 70.4373 235.808 71.248C234.571 72.0587 233.632 73.2533 232.992 74.832C232.352 76.368 232.032 78.2667 232.032 80.528C232.032 82.6187 232.331 84.4533 232.928 86.032C233.525 87.568 234.464 88.7627 235.744 89.616C237.024 90.4693 238.688 90.896 240.736 90.896C242.613 90.896 244.149 90.5333 245.344 89.808C246.539 89.0827 247.349 88.1867 247.776 87.12H257.184C256.672 89.4667 255.669 91.5573 254.176 93.392C252.683 95.2267 250.805 96.656 248.544 97.68C246.283 98.704 243.68 99.216 240.736 99.216ZM280.546 98.448C277.004 98.448 274.146 98.0213 271.97 97.168C269.794 96.272 268.194 94.8 267.17 92.752C266.188 90.6613 265.698 87.8453 265.698 84.304V53.456H275.234V84.688C275.234 86.352 275.66 87.632 276.514 88.528C277.41 89.3813 278.668 89.808 280.29 89.808H285.474V98.448H280.546ZM260.386 70.416V62.928H285.474V70.416H260.386ZM307.461 98V62.928H317.701V98H307.461ZM302.789 70.48V62.928H317.701V70.48H302.789ZM311.429 59.472C309.509 59.472 308.08 58.9813 307.141 58C306.245 56.976 305.797 55.696 305.797 54.16C305.797 52.5813 306.245 51.3013 307.141 50.32C308.08 49.296 309.509 48.784 311.429 48.784C313.349 48.784 314.757 49.296 315.653 50.32C316.592 51.3013 317.061 52.5813 317.061 54.16C317.061 55.696 316.592 56.976 315.653 58C314.757 58.9813 313.349 59.472 311.429 59.472ZM343.108 98.448C339.567 98.448 336.708 98.0213 334.532 97.168C332.356 96.272 330.756 94.8 329.732 92.752C328.751 90.6613 328.26 87.8453 328.26 84.304V53.456H337.796V84.688C337.796 86.352 338.223 87.632 339.076 88.528C339.972 89.3813 341.231 89.808 342.852 89.808H348.036V98.448H343.108ZM322.948 70.416V62.928H348.036V70.416H322.948ZM356.586 98V62.928H366.826V98H356.586ZM351.914 70.48V62.928H366.826V70.48H351.914ZM360.554 59.472C358.634 59.472 357.205 58.9813 356.266 58C355.37 56.976 354.922 55.696 354.922 54.16C354.922 52.5813 355.37 51.3013 356.266 50.32C357.205 49.296 358.634 48.784 360.554 48.784C362.474 48.784 363.882 49.296 364.778 50.32C365.717 51.3013 366.186 52.5813 366.186 54.16C366.186 55.696 365.717 56.976 364.778 58C363.882 58.9813 362.474 59.472 360.554 59.472Z" fill="black"/>
<rect x="1" y="1" width="149" height="149" rx="24" fill="#FFFB9F" stroke="black" stroke-width="2"/>
<mask id="mask0_89_416" style="mask-type:alpha" maskUnits="userSpaceOnUse" x="0" y="0" width="151" height="151">
<rect width="151" height="151" rx="25" fill="#FFFB9F"/>
</mask>
<g mask="url(#mask0_89_416)">
<path d="M36.5975 140.454C37.0545 140.341 37.5139 140.229 37.9708 140.116C38.4327 139.992 38.8947 139.992 39.3591 140.116C39.5675 140.202 39.7759 140.289 39.9818 140.375C40.3734 140.603 40.6872 140.909 40.9182 141.297C41.0061 141.502 41.0939 141.707 41.1818 141.91C41.2897 142.251 41.3073 142.592 41.2295 142.933C41.2119 143.274 41.109 143.592 40.9207 143.889C40.7575 144.188 40.5316 144.427 40.2479 144.61C39.9968 144.838 39.7006 144.991 39.3591 145.07C39.2939 145.087 39.2261 145.102 39.1608 145.119C39.811 146.748 39.9064 149.231 39.9366 151.665C40.2579 150.691 40.5818 149.718 40.9031 148.744C41.355 147.375 42.6806 146.629 44.1141 146.95C44.7367 147.089 45.3568 147.598 45.6732 148.129C45.9995 148.68 46.1401 149.493 45.9368 150.108C45.3644 151.842 44.7894 153.579 44.217 155.314C43.7651 156.683 42.4396 157.429 41.0061 157.108C40.6998 157.039 40.3935 156.881 40.1223 156.673C40.1575 156.952 40.1977 157.217 40.2504 157.456C40.4462 158.356 40.6998 159.312 41.4027 159.922C42.1509 160.574 43.0948 160.634 44.0614 160.387C44.0614 159.537 44.0614 158.687 44.0614 157.837C44.0614 156.396 45.2564 155.331 46.6698 155.27C47.3201 155.242 48.0632 155.576 48.5151 156.021C48.9896 156.485 49.2783 157.18 49.2783 157.837C49.2783 159.935 49.2783 162.032 49.2783 164.133C49.2783 165.027 48.8164 165.778 48.126 166.233C48.972 167.014 50.0942 167.448 51.1964 167.144C52.2859 166.843 53.0843 165.941 53.8525 165.029C53.2876 164.632 52.6901 164.283 52.0499 164.009C51.7236 163.88 51.4223 163.71 51.1662 163.46C51.0307 163.287 50.8951 163.115 50.7595 162.942C50.3779 162.358 50.3453 161.62 50.4959 160.962C50.6365 160.35 51.1537 159.739 51.6934 159.428C52.2207 159.124 53.1094 158.941 53.7044 159.169C54.45 159.453 55.1881 159.764 55.871 160.174C56.5488 160.579 57.189 161.064 57.784 161.58C58.2334 161.971 58.6451 162.403 59.0167 162.867C59.5113 163.488 59.9808 164.11 60.3573 164.81C60.5682 165.202 60.6686 165.608 60.6862 166.023C60.8871 165.788 61.1205 165.583 61.3641 165.442C62.0093 165.071 62.662 165.066 63.375 165.183C66.8245 165.746 69.8824 167.896 71.7954 170.735C72.3527 171.562 72.2247 172.575 71.7226 173.364C71.8556 173.46 71.9812 173.571 72.1167 173.663C73.2641 171.656 74.1277 169.492 74.675 167.253C76.1688 169.292 77.8734 171.473 80.3563 172.052C81.6091 172.343 83.0251 171.923 84.0142 171.13C83.8837 171.019 83.7606 170.898 83.6301 170.789C83.4393 170.631 83.2435 170.473 83.0451 170.324C82.9322 170.245 82.7539 170.117 82.6811 170.065C81.7522 169.41 80.7781 168.82 79.7689 168.293C79.2467 168.022 78.717 167.775 78.1822 167.535C78.1571 167.523 78.1496 167.52 78.132 167.513C78.0366 167.473 77.9412 167.436 77.8483 167.399C77.5596 167.288 77.2684 167.179 76.9746 167.078C75.8976 166.702 74.7955 166.403 73.6783 166.171C72.2498 165.874 71.5569 164.301 71.8556 163.011C72.182 161.602 73.7335 160.94 75.0666 161.217C80.1856 162.279 84.9481 164.822 88.714 168.387C89.3215 168.963 89.5299 169.751 89.4244 170.507C90.7299 171.179 92.294 171.557 93.5995 170.925C93.9911 170.735 94.3049 170.416 94.5384 170.048C94.0363 169.825 93.5317 169.608 93.0195 169.41C91.7015 168.901 90.7902 167.708 91.1969 166.25C91.5433 165.012 93.0949 163.95 94.4079 164.456C96.1879 165.146 97.9 165.958 99.552 166.865C99.5645 166.774 99.5696 166.685 99.5896 166.591C99.8834 165.326 101.52 164.32 102.801 164.797C107.159 166.425 111.123 168.709 114.693 171.661C115.81 172.585 115.579 174.342 114.693 175.293C113.684 176.376 112.047 176.156 111.003 175.293C110.789 175.115 110.573 174.94 110.355 174.767C110.267 174.698 110.177 174.629 110.089 174.56C109.71 174.28 109.331 174.001 108.944 173.734C108.828 173.653 108.703 173.586 108.585 173.507C112.002 176.798 114.859 180.648 116.983 184.922C117.256 185.021 117.538 185.078 117.824 185.016C118.981 184.772 119.164 183.173 118.745 182.083C118.328 180.994 117.57 179.916 117.799 178.772C118.705 179.588 119.654 180.425 120.824 180.789C121.994 181.154 123.457 180.91 124.133 179.899C124.482 179.375 124.577 178.733 124.642 178.113C125.049 174.379 124.808 170.579 123.937 166.922C125.212 168.513 128.014 168.046 129.269 166.44C130.522 164.834 130.552 162.601 130.156 160.614C129.759 158.627 128.993 156.705 128.838 154.686C130.263 155.959 132.144 156.727 134.064 156.824C134.049 150.862 132.701 144.907 130.14 139.503C131.504 140.116 133.213 140.696 134.388 139.785C135.706 138.762 135.29 136.721 134.662 135.189C132.955 131.023 130.58 127.122 127.653 123.672C130.231 124.75 133.103 125.135 135.88 124.777C133.992 120.263 131.315 116.069 128.007 112.432C130.223 112.763 132.485 112.808 134.715 112.563C135.119 112.519 135.553 112.45 135.847 112.17C136.447 111.597 136.07 110.606 135.646 109.9C133.233 105.867 130.231 102.178 126.761 98.9811C128.29 100.09 130.507 98.0372 130.196 96.1915C129.884 94.3458 128.172 93.0856 126.553 92.1096C124.765 91.0323 118.05 89.1273 117.226 87.4718C116.343 85.6904 120.405 81.1489 121.133 79.0388C121.286 78.5965 121.421 78.1049 121.246 77.6724C121.042 77.1758 120.5 76.9139 119.995 76.7162C117.522 75.7402 114.884 75.1794 112.225 75.0608C115.672 73.6252 118.487 70.7812 119.855 67.3517C120.116 66.6994 120.322 65.9507 120.023 65.3132C119.782 64.7993 119.265 64.4756 118.768 64.1865C116.604 62.9338 114.349 61.8368 112.024 60.9077C114.711 60.7842 117.211 58.8371 117.952 56.2922C118.08 55.8499 118.158 55.3755 118.027 54.9332C117.846 54.3254 117.307 53.8979 116.792 53.5199C114.128 51.5753 111.261 49.9025 108.249 48.5386C110.109 48.7981 112.29 48.079 112.976 46.3593C113.754 44.4074 112.265 42.3047 110.455 41.1285C110.034 42.7272 109.516 44.3011 108.886 45.8281C108.354 47.1179 107.169 48.0247 105.675 47.6219C104.427 47.2859 103.323 45.749 103.853 44.4642C104.618 42.6061 105.221 40.7011 105.665 38.7615C105.504 38.6676 105.349 38.5663 105.193 38.465C105.366 38.4946 105.547 38.4946 105.73 38.4773C106.217 36.2659 106.489 34.0125 106.511 31.7269C106.519 30.9832 106.496 30.237 106.456 29.4933C105.653 28.9374 104.362 29.3401 103.614 30.0665C102.778 30.877 102.248 31.9889 101.284 32.6461C102.299 30.0072 103.079 26.553 100.913 24.7394C96.8557 27.8897 93.253 31.5515 90.7977 36.1102C89.2236 39.0357 84.7197 36.4364 86.2913 33.5183C87.1373 31.9493 88.1114 30.4742 89.1834 29.0782C90.386 25.6363 91.586 22.1944 92.7886 18.7525C88.2495 22.9579 84.554 28.0429 81.9807 33.6295C81.8802 30.0369 82.9271 26.5209 83.964 23.0765C85.262 18.7673 86.5574 14.4582 87.8553 10.1465C83.1129 15.6466 79.2894 21.9127 76.588 28.6211C76.5001 25.1149 75.7319 21.6261 74.3361 18.4016C71.9385 20.9268 74.7829 25.9847 72.0414 28.1442C67.3241 22.0659 61.2084 16.5312 54.7412 12.2418C57.1263 15.8764 59.5088 19.5086 61.8913 23.1432C59.0845 21.4136 56.1572 19.8718 53.1345 18.5375C51.2441 17.7024 48.9494 17.0155 47.1142 17.6826C53.3479 21.8781 59.1447 26.8767 62.7223 33.5208C64.2964 36.4413 59.79 39.0333 58.2158 36.1127C55.0952 30.3062 50.1193 25.9575 44.7116 22.271C44.8045 22.906 44.9928 23.5311 45.2865 24.092C46.2807 25.9797 48.0732 27.3115 49.8105 28.5766C47.3377 28.374 44.8246 28.8089 42.545 29.775C42.5174 30.4223 42.4998 31.0697 42.5074 31.7195C42.5199 32.9525 42.6103 34.178 42.7609 35.3912C44.0237 36.3128 45.289 37.2345 46.5518 38.1536C45.5602 38.7466 44.6062 39.3965 43.6848 40.0883C44.0865 41.5659 44.5786 43.0237 45.1685 44.4543C45.7008 45.7466 44.5836 47.2785 43.3459 47.6121C41.8747 48.0099 40.6671 47.1031 40.1349 45.8182C39.8763 45.1906 39.6378 44.5556 39.4144 43.9132C38.1566 45.2549 37.0143 46.7028 36.0025 48.2322C37.3808 49.3046 39.2085 49.7963 40.9483 49.564C37.2553 53.3716 33.9439 57.5375 31.0768 61.9776C31.9229 62.3408 32.8041 62.6175 33.7054 62.8103C33.6276 62.5755 33.5723 62.3359 33.5598 62.1011C33.492 60.6236 34.815 59.6575 36.1682 59.5339C40.6119 59.1213 45.166 59.6155 49.4214 60.9374C49.6875 61.0189 49.921 61.1449 50.1394 61.2858C50.1419 61.2833 50.1419 61.2808 50.1419 61.2783C53.9856 55.2964 63.5633 63.7319 57.8443 67.3789C57.2342 67.7693 56.5162 67.9768 55.7957 68.0682C53.9504 68.303 51.9571 67.7297 50.7168 66.3658C50.4934 66.1187 50.3101 65.8395 50.1469 65.548C49.5193 65.9458 48.736 66.1089 48.0331 65.8914C47.0213 65.5776 45.9995 65.3083 44.9602 65.0933C44.4606 64.9896 43.9585 64.8981 43.4538 64.8191C43.3534 64.8042 43.125 64.7721 43.0521 64.7598C42.8337 64.7326 42.6153 64.7079 42.3969 64.6856C40.4839 64.4929 38.5608 64.4855 36.6452 64.6362C33.5748 68.7354 38.2721 72.5207 41.8747 75.3844C47.2197 71.0456 53.7169 68.3969 60.6435 67.6803C62.0545 67.5345 63.252 68.9726 63.252 70.2475C63.252 71.7399 62.0444 72.6714 60.6435 72.8148C59.3406 72.9482 57.5857 73.2842 56.0718 73.6993C54.5831 74.107 53.0517 74.6457 51.8089 75.2115C48.8164 76.5779 46.1954 78.3025 43.8706 80.4522C42.8413 81.4059 41.2044 81.4603 40.1801 80.4522C39.3491 79.6343 39.1959 78.263 39.8035 77.287C37.1499 78.7572 34.569 80.3089 32.2317 82.3424C33.5096 83.3085 35.2594 83.6396 36.8109 83.2121C33.8083 85.2481 31.2902 87.971 29.5103 91.1015C30.6149 91.9046 32.1815 92.0405 33.4091 91.4351C29.4927 93.3624 25.5034 98.7587 24.3662 102.808C25.9779 103.866 27.4843 104.271 29.4048 104.58C25.9528 108.007 23.0029 111.921 20.6706 116.166C20.3518 116.749 20.0355 117.451 20.3242 118.049C20.6556 118.74 21.6096 118.886 22.3678 118.721C23.1259 118.555 23.844 118.175 24.6222 118.16C23.2565 119.628 22.0539 121.239 21.0296 122.953C21.0497 122.98 21.0748 123.003 21.0924 123.032C25.511 129.457 30.7379 135.285 36.5975 140.454ZM72.4029 157.837C72.3326 150.523 74.1904 143.298 77.7378 136.874C79.3421 133.966 83.8485 136.563 82.2443 139.468C79.1312 145.109 77.5596 151.425 77.6224 157.839C77.655 161.148 72.4356 161.14 72.4029 157.837ZM105.622 106.221C100.448 112.175 96.2029 118.889 92.9718 126.047C91.4028 129.521 90.1199 133.123 89.0755 136.783C87.9633 140.687 86.831 144.872 86.7708 148.944C86.7206 152.253 81.5012 152.25 81.5514 148.944C81.6166 144.561 82.7514 140.044 83.9263 135.831C85.0712 131.732 86.5549 127.739 88.2872 123.848C91.7266 116.129 96.3686 108.991 101.932 102.589C102.853 101.531 104.684 101.664 105.622 102.589C106.674 103.624 106.539 105.168 105.622 106.221ZM107.277 80.892C106.604 82.0261 104.867 82.6018 103.707 81.8136C97.3678 77.5069 90.2328 74.6629 82.6359 73.4003C81.2375 73.1681 80.4693 71.4731 80.8133 70.2401C81.2124 68.807 82.6359 68.2165 84.0243 68.4463C92.0028 69.7731 99.6825 72.8543 106.34 77.3784C107.505 78.1691 108.035 79.617 107.277 80.892ZM95.1786 61.2833C95.5226 61.817 95.6958 62.4273 95.741 63.0524C96.2381 62.5162 96.9561 62.1678 97.6967 62.153C102.582 62.0567 107.34 63.0771 111.811 64.9846C113.149 65.5554 113.342 67.3912 112.747 68.4982C112.449 69.0541 111.793 69.5137 111.188 69.6792C110.455 69.8769 109.845 69.7064 109.177 69.4198C109.15 69.4074 109.137 69.4025 109.117 69.3926C108.984 69.3383 108.851 69.2864 108.718 69.2345C108.5 69.1505 108.279 69.0689 108.06 68.9899C107.546 68.8046 107.026 68.6341 106.501 68.4784C105.527 68.1868 104.538 67.9447 103.541 67.7495C103.039 67.6507 102.532 67.5691 102.025 67.4975C101.927 67.4851 101.766 67.4654 101.683 67.4579C101.45 67.4308 101.216 67.4085 100.983 67.3888C99.8909 67.2973 98.7963 67.2677 97.6992 67.2874C96.5042 67.3122 95.5703 66.4894 95.2313 65.4442C95.0581 65.7753 94.8548 66.0916 94.6037 66.3683C93.3635 67.7322 91.3701 68.3055 89.5249 68.0707C88.8043 67.9793 88.0863 67.7693 87.4763 67.3813C81.7547 63.7393 91.335 55.3013 95.1786 61.2833ZM80.0425 57.3843C82.4125 55.2766 85.3599 54.0659 88.5458 53.8608C89.2336 53.8164 89.8989 54.1697 90.391 54.612C90.9032 55.0765 91.1241 55.7634 91.1567 56.4281C91.1843 57.068 90.8454 57.7994 90.391 58.2441C89.8864 58.7408 89.2412 58.9508 88.5458 58.9977C88.4403 59.0052 88.3349 59.0175 88.2319 59.0274C87.4763 59.1485 86.7407 59.3461 86.0252 59.6105C85.3398 59.9194 84.6896 60.29 84.082 60.7273C83.9665 60.8237 83.8485 60.9151 83.7355 61.014C82.651 61.9776 81.1296 61.9949 80.045 61.014C79.0408 60.1096 79.0283 58.2886 80.0425 57.3843ZM66.5458 62.0048C66.6965 61.35 67.1885 60.8237 67.7434 60.4704C68.2982 60.1195 69.1292 60.0429 69.7543 60.2109C70.3142 60.3641 71.0698 60.841 71.3134 61.392C71.336 61.4464 71.3761 61.4908 71.4037 61.5403C71.5268 61.6687 71.6498 61.7972 71.7853 61.9109C71.8381 61.943 71.8858 61.9825 71.9385 62.0122C71.951 62.0048 71.9636 61.9974 71.9761 61.9899C72.2372 61.7527 72.4833 61.4982 72.7067 61.2265C72.9226 60.9225 73.1837 60.6606 73.5151 60.4704C73.7235 60.3839 73.9319 60.2974 74.1402 60.2109C74.8106 59.9984 75.5436 60.1566 76.1512 60.4704C76.7161 60.7644 77.183 61.4093 77.3512 62.0048C77.5119 62.583 77.4642 63.4774 77.0876 63.9839C76.3671 64.955 75.634 65.7827 74.6122 66.4572C74.552 66.4968 74.4792 66.5264 74.4164 66.5635C74.4892 66.7463 74.5319 66.9366 74.5444 67.1343C74.5796 67.3023 74.6223 67.4678 74.6775 67.6309C74.7403 67.752 74.808 67.873 74.8834 67.9867C75.0566 68.1868 75.2449 68.3746 75.4482 68.5451C75.5687 68.6192 75.6943 68.6884 75.8223 68.7527C75.998 68.8095 76.1763 68.8564 76.3596 68.891C77.0299 68.9429 77.6023 69.1801 78.1019 69.6298C78.614 70.0943 78.835 70.7812 78.8651 71.4459C78.8927 72.0858 78.5538 72.8172 78.1019 73.262C77.6525 73.7043 76.9043 74.0452 76.2566 74.0131C75.747 73.9884 75.2273 73.9242 74.7302 73.8006C74.2607 73.682 73.8063 73.4819 73.3695 73.2867C72.6816 72.9778 72.0439 72.496 71.5042 71.9821C71.4464 71.9277 71.3987 71.8585 71.341 71.7992C70.4773 72.7283 69.3602 73.3682 68.1601 73.7809C67.4998 74.0082 66.7467 73.8327 66.1492 73.5214C65.5466 73.2076 65.155 72.6072 64.9491 71.987C64.8412 71.646 64.8236 71.3051 64.9039 70.9616C64.919 70.6206 65.0219 70.3019 65.2127 70.0054C65.5291 69.4717 66.0161 69.1332 66.5785 68.9059C66.7843 68.812 66.9827 68.7033 67.176 68.5847C67.3869 68.4067 67.5827 68.214 67.7635 68.0065C67.8563 67.8656 67.9392 67.7199 68.017 67.5691C68.0622 67.4406 68.1124 67.3146 68.1476 67.1837C68.2555 66.7612 68.4965 66.4004 68.7978 66.099C68.7928 66.094 68.7852 66.0916 68.7802 66.0866C68.022 65.5183 67.2061 64.8611 66.812 63.9765C66.576 63.5762 66.458 63.1438 66.4555 62.6793C66.4831 62.4619 66.5132 62.2346 66.5458 62.0048ZM61.954 61.6416C61.8411 61.5402 61.7231 61.4488 61.6051 61.3525C60.9975 60.9151 60.3473 60.547 59.6644 60.2381C58.9489 59.9713 58.2108 59.7736 57.4552 59.6525C57.3497 59.6426 57.2443 59.6303 57.1413 59.6229C56.4208 59.5759 55.8233 59.3486 55.2961 58.8693C54.7839 58.4047 54.563 57.7178 54.5329 57.0532C54.5027 56.4132 54.8442 55.6819 55.2961 55.2371C55.7404 54.7998 56.4986 54.444 57.1413 54.486C60.3247 54.6886 63.2746 55.8993 65.6446 58.0094C66.1592 58.4665 66.3776 59.1633 66.4078 59.8255C66.4379 60.5099 66.099 61.1523 65.6446 61.6416C65.2027 62.1135 64.4395 62.3927 63.7993 62.3927C63.0963 62.3952 62.4662 62.0987 61.954 61.6416ZM57.5229 97.3577C58.9916 96.9599 60.2067 97.8643 60.7339 99.1516C66.3299 112.87 70.4447 127.139 73.008 141.705C73.249 143.076 72.654 144.467 71.1853 144.865C70.9343 144.932 70.6656 144.944 70.3945 144.929C70.9142 146.659 71.4288 148.388 71.951 150.115C72.9151 153.295 67.8764 154.642 66.9199 151.482C65.8655 147.998 64.8362 144.504 63.7491 141.03C62.7951 137.983 61.698 135.036 59.8351 132.402C59.0267 131.258 59.6293 129.546 60.7716 128.888C62.057 128.149 63.5357 128.673 64.3416 129.81C64.8462 130.524 65.3031 131.268 65.7224 132.031C63.2244 121.29 59.8778 110.752 55.7053 100.52C55.1731 99.2232 56.2802 97.6938 57.5229 97.3577Z" fill="#9998D3"/>
<g clip-path="url(#clip0_89_416)">
<path d="M87.4438 67.3764C88.0538 67.7668 88.7718 67.9743 89.4924 68.0657C91.3376 68.3005 93.331 67.7272 94.5712 66.3633C94.8223 66.0866 95.0256 65.7703 95.1988 65.4392C95.1235 65.2045 95.0683 64.9648 95.0557 64.7153C95.0256 64.0728 95.2917 63.4947 95.7085 63.045C95.6633 62.4198 95.4875 61.8095 95.1461 61.2758C91.3025 55.2964 81.7222 63.7319 87.4438 67.3764Z" fill="#FF7B9B"/>
<path d="M51.2116 64.0951C51.071 64.7029 50.6492 65.207 50.1145 65.5455C50.2777 65.837 50.4609 66.1162 50.6844 66.3633C51.9246 67.7272 53.9179 68.3005 55.7632 68.0657C56.4837 67.9743 57.2017 67.7643 57.8118 67.3764C63.5308 63.7319 53.9506 55.2964 50.1094 61.2758C50.1069 61.2783 50.1069 61.2808 50.1069 61.2833C51.0208 61.8886 51.4727 62.9634 51.2116 64.0951Z" fill="#FF7B9B"/>
<path d="M68.7427 66.0891C68.7477 66.094 68.7553 66.0965 68.7603 66.1014C68.459 66.4053 68.218 66.7636 68.1101 67.1861C68.0774 67.3171 68.0247 67.4431 67.9795 67.5716C67.9017 67.7198 67.8188 67.8681 67.726 68.0089C67.5452 68.2165 67.3494 68.4092 67.1385 68.5871C66.9477 68.7082 66.7493 68.8144 66.541 68.9108C65.9786 69.1356 65.4941 69.4766 65.1752 70.0103C64.9844 70.3043 64.8815 70.6231 64.8664 70.9665C64.7886 71.3075 64.8037 71.6485 64.9116 71.9919C65.1175 72.6121 65.5091 73.2125 66.1117 73.5263C66.7092 73.8352 67.4623 74.0106 68.1226 73.7858C69.3227 73.3731 70.4399 72.7332 71.3035 71.8041C71.3612 71.861 71.4089 71.9302 71.4667 71.987C72.0064 72.5009 72.6441 72.9803 73.332 73.2916C73.7688 73.4868 74.2232 73.6894 74.6927 73.8055C75.1898 73.9291 75.7095 73.9933 76.2191 74.018C76.8668 74.0502 77.6125 73.7092 78.0644 73.2669C78.5163 72.8221 78.8577 72.0908 78.8276 71.4508C78.7975 70.7862 78.5765 70.0968 78.0644 69.6347C77.5648 69.185 76.9949 68.9503 76.3221 68.896C76.1413 68.8614 75.9605 68.8144 75.7848 68.7576C75.6568 68.6933 75.5312 68.6242 75.4107 68.55C75.2074 68.3795 75.0191 68.1918 74.8459 67.9916C74.7731 67.8755 74.7053 67.7569 74.64 67.6358C74.5848 67.4727 74.5421 67.3072 74.5069 67.1392C74.4944 66.9415 74.4492 66.7513 74.3789 66.5684C74.4417 66.5313 74.5145 66.5017 74.5747 66.4622C75.5965 65.7876 76.3271 64.9599 77.0501 63.9888C77.4267 63.4823 77.4744 62.5879 77.3137 62.0097C77.1455 61.4142 76.6786 60.7693 76.1137 60.4753C75.5086 60.1615 74.7731 60.0009 74.1027 60.2158C73.8944 60.3023 73.686 60.3888 73.4776 60.4753C73.1462 60.668 72.8876 60.9275 72.6692 61.2314C72.4458 61.5056 72.1997 61.7577 71.9386 61.9949C71.9261 62.0023 71.9135 62.0097 71.901 62.0171C71.8483 61.985 71.8006 61.9479 71.7478 61.9158C71.6123 61.7997 71.4867 61.6737 71.3662 61.5452C71.3386 61.4958 71.301 61.4513 71.2759 61.3969C71.0323 60.8484 70.2767 60.369 69.7168 60.2158C69.0917 60.0478 68.2607 60.1244 67.7059 60.4753C67.1485 60.8286 66.659 61.3549 66.5083 62.0097C66.4757 62.237 66.4456 62.4643 66.4154 62.6941C66.418 63.1586 66.536 63.591 66.7719 63.9913C67.1686 64.8635 67.9845 65.5208 68.7427 66.0891Z" fill="#32100F"/>
<path d="M65.6121 61.6366C66.069 61.1473 66.4079 60.5049 66.3778 59.8205C66.3476 59.1583 66.1267 58.4615 65.6121 58.0044C63.2421 55.8968 60.2922 54.6861 57.1088 54.481C56.4661 54.439 55.7054 54.7948 55.2636 55.2321C54.8117 55.6769 54.4703 56.4083 54.5004 57.0482C54.5305 57.7129 54.7514 58.3998 55.2636 58.8643C55.7933 59.3412 56.3883 59.5685 57.1088 59.6179C57.2143 59.6253 57.3197 59.6377 57.4227 59.6475C58.1783 59.7686 58.9164 59.9663 59.6319 60.2331C60.3148 60.542 60.965 60.9126 61.5726 61.3475C61.6881 61.4438 61.8086 61.5353 61.9216 61.6366C62.4337 62.0937 63.0639 62.3877 63.7668 62.3877C64.407 62.3902 65.1702 62.1085 65.6121 61.6366Z" fill="#32100F"/>
<path d="M83.7005 61.0115C83.8135 60.9126 83.9315 60.8212 84.047 60.7248C84.6571 60.2875 85.3073 59.9169 85.9902 59.608C86.7057 59.3412 87.4413 59.1435 88.1969 59.0249C88.3024 59.015 88.4053 59.0027 88.5107 58.9952C89.2062 58.9508 89.8514 58.7383 90.356 58.2441C90.8079 57.7994 91.1493 57.068 91.1217 56.428C91.0916 55.7634 90.8707 55.074 90.356 54.612C89.8639 54.1697 89.2011 53.8163 88.5107 53.8608C85.3249 54.0634 82.3775 55.2741 80.0075 57.3842C78.9933 58.2886 79.0033 60.1096 80.0075 61.0164C81.0946 61.9924 82.616 61.9751 83.7005 61.0115Z" fill="#32100F"/>
<path d="M106.308 77.3734C99.65 72.8493 91.9703 69.7682 83.9918 68.4413C82.6034 68.2115 81.1825 68.8021 80.7808 70.2351C80.4368 71.4681 81.2051 73.1631 82.6034 73.3954C90.2003 74.6604 97.3328 77.5019 103.674 81.8086C104.834 82.5968 106.572 82.0211 107.244 80.887C108.003 79.612 107.47 78.1616 106.308 77.3734Z" fill="#32100F"/>
<path d="M95.1988 65.4417C95.5377 66.4893 96.4692 67.3097 97.6667 67.2849C98.7613 67.2627 99.8584 67.2924 100.95 67.3862C101.184 67.406 101.417 67.4283 101.651 67.4554C101.734 67.4628 101.894 67.4826 101.992 67.495C102.499 67.5666 103.007 67.6482 103.509 67.747C104.505 67.9397 105.495 68.1843 106.469 68.4759C106.993 68.6316 107.513 68.802 108.028 68.9874C108.249 69.0664 108.467 69.148 108.685 69.232C108.819 69.2839 108.952 69.3358 109.085 69.3901C109.107 69.4 109.12 69.4049 109.145 69.4173C109.813 69.7014 110.423 69.8744 111.156 69.6767C111.761 69.5112 112.416 69.0516 112.715 68.4957C113.31 67.3887 113.117 65.5529 111.778 64.9821C107.307 63.0746 102.55 62.0541 97.6642 62.1505C96.9236 62.1653 96.2056 62.5137 95.7085 63.0499C95.2917 63.4996 95.0256 64.0778 95.0557 64.7202C95.0658 64.9673 95.1235 65.207 95.1988 65.4417Z" fill="#32100F"/>
<path d="M40.1551 80.4521C41.1794 81.4602 42.8138 81.4059 43.8456 80.4521C46.1704 78.3025 48.7914 76.5778 51.784 75.2114C53.0267 74.6456 54.5556 74.107 56.0469 73.6993C57.5607 73.2842 59.3131 72.9481 60.6186 72.8147C62.0195 72.6689 63.227 71.7374 63.227 70.2475C63.227 68.9725 62.0295 67.532 60.6186 67.6803C53.692 68.3968 47.1947 71.0456 41.8497 75.3844C41.2773 75.8489 40.7049 76.3184 40.1601 76.8224C40.0095 76.9608 39.889 77.1214 39.7836 77.2894C39.1685 78.2629 39.3241 79.6343 40.1551 80.4521Z" fill="#32100F"/>
<path d="M42.3669 64.6831C42.5854 64.7054 42.8038 64.7301 43.0222 64.7573C43.095 64.7696 43.3235 64.8017 43.4239 64.8166C43.9285 64.8956 44.4306 64.9871 44.9302 65.0908C45.9671 65.3058 46.9914 65.5751 48.0031 65.8889C48.7061 66.1088 49.4894 65.9433 50.117 65.5455C50.6517 65.207 51.0735 64.7004 51.2141 64.0951C51.4752 62.9634 51.0258 61.8886 50.1095 61.2857C49.8935 61.1424 49.6576 61.0189 49.3914 60.9373C45.1361 59.6154 40.5819 59.1213 36.1383 59.5339C34.7826 59.6599 33.462 60.6235 33.5298 62.1011C33.5399 62.3383 33.5976 62.5755 33.6754 62.8102C34.0169 63.8505 34.9533 64.7795 36.1408 64.6683C36.2989 64.6535 36.4596 64.6486 36.6203 64.6337C38.5308 64.4855 40.4539 64.4904 42.3669 64.6831Z" fill="#32100F"/>
<path d="M90.7652 36.0979C93.2205 31.5391 96.8232 27.8773 100.88 24.727C102.228 23.6794 103.627 22.6861 105.053 21.7397C105.532 22.9702 105.756 24.3638 105.974 25.5473C106.215 26.847 106.353 28.1615 106.423 29.4834C106.461 30.2271 106.486 30.9708 106.479 31.717C106.456 34.0026 106.185 36.256 105.698 38.4674C105.678 38.5613 105.653 38.6577 105.63 38.7516C105.186 40.6887 104.583 42.5962 103.818 44.4543C103.288 45.7391 104.392 47.276 105.64 47.612C107.131 48.0148 108.319 47.108 108.851 45.8182C109.481 44.2912 109.996 42.7173 110.42 41.1186C111.312 37.7533 111.751 34.2694 111.696 30.7979C111.62 26.0094 111.025 20.0843 107.716 16.3236C106.991 15.5008 105.472 15.3427 104.553 15.9234C98.8241 19.5283 93.2532 23.7065 89.1509 29.0633C88.0815 30.4619 87.1048 31.9345 86.2588 33.5035C84.6872 36.424 89.1911 39.0209 90.7652 36.0979Z" fill="#32100F"/>
<path d="M43.3109 47.6095C44.5486 47.2735 45.6658 45.744 45.1335 44.4518C44.5436 43.0236 44.0515 41.5658 43.6498 40.0858C43.2305 38.5415 42.9217 36.9725 42.7259 35.3862C42.5753 34.173 42.4849 32.9475 42.4724 31.7145C42.4648 31.0672 42.4824 30.4173 42.51 29.77C42.5703 28.3542 42.7134 26.9409 42.9745 25.5473C43.1954 24.3638 43.4188 22.9702 43.8958 21.7397C44.1569 21.9127 44.418 22.0906 44.6766 22.2685C50.0868 25.9525 55.0627 30.3012 58.1834 36.0978C59.7575 39.0184 64.2639 36.4265 62.6898 33.5059C59.1123 26.8618 53.3179 21.8608 47.0817 17.6677C46.1955 17.0698 45.2992 16.4892 44.3979 15.9209C43.4866 15.3451 41.9652 15.4934 41.2372 16.3211C37.9283 20.0793 37.3333 26.0069 37.258 30.7954C37.1877 35.238 37.9132 39.7078 39.3819 43.9107C39.6053 44.5506 39.8438 45.1881 40.1024 45.8157C40.6296 47.0981 41.8397 48.0073 43.3109 47.6095Z" fill="#32100F"/>
<path d="M65.6849 132.024C65.2681 131.26 64.8112 130.517 64.3041 129.802C63.5007 128.666 62.0195 128.142 60.7341 128.881C59.5893 129.538 58.9867 131.25 59.7976 132.394C61.6605 135.028 62.7601 137.976 63.7116 141.023C64.7986 144.497 65.8255 147.99 66.8824 151.474C67.8389 154.635 72.8776 153.288 71.9135 150.108C71.3913 148.381 70.8767 146.651 70.357 144.922C70.6281 144.936 70.8968 144.924 71.1478 144.857C72.6165 144.46 73.2115 143.071 72.9705 141.697C70.4072 127.131 66.2924 112.862 60.6964 99.1441C60.1717 97.8568 58.9566 96.9525 57.4854 97.3503C56.2427 97.6863 55.1356 99.2158 55.6628 100.51C59.8403 110.745 63.1894 121.283 65.6849 132.024Z" fill="#32100F"/>
<path d="M77.7054 136.867C74.158 143.291 72.3002 150.518 72.3705 157.829C72.4031 161.133 77.62 161.14 77.5899 157.829C77.5271 151.415 79.0987 145.1 82.2118 139.459C83.8135 136.555 79.3096 133.958 77.7054 136.867Z" fill="#32100F"/>
<path d="M101.902 102.584C96.3386 108.986 91.6966 116.121 88.2572 123.843C86.5224 127.734 85.0387 131.727 83.8964 135.826C82.7214 140.037 81.5867 144.556 81.5214 148.939C81.4712 152.245 86.6906 152.248 86.7408 148.939C86.8011 144.867 87.9333 140.682 89.0455 136.778C90.0874 133.121 91.3728 129.516 92.9419 126.042C96.1754 118.886 100.418 112.17 105.592 106.216C106.509 105.163 106.644 103.619 105.592 102.584C104.654 101.659 102.821 101.526 101.902 102.584Z" fill="#32100F"/>
</g>
</g>
<path d="M1 118.444H150V126C150 139.255 139.255 150 126 150H25C11.7452 150 1 139.255 1 126V118.444Z" fill="white" stroke="black" stroke-width="2"/>
<circle cx="17.5404" cy="130.409" r="3.81313" fill="black"/>
<circle cx="29.7424" cy="130.409" r="3.81313" fill="black"/>
<circle cx="41.9444" cy="130.409" r="3.81313" fill="black"/>
<defs>
<clipPath id="clip0_89_416">
<rect width="79.509" height="144.738" fill="white" transform="translate(33.5248 15.575)"/>
</clipPath>
</defs>
</svg>
