<svg width="293" height="101" viewBox="0 0 293 101" fill="none" xmlns="http://www.w3.org/2000/svg">
<path d="M70.3602 41.0665C55.6663 -3.427 6.96038 -2.3106 -0.178215 -1.90074C-0.69389 -1.87114 -1.05469 -1.44459 -1.05469 -0.928068L-1.05469 107C-1.05469 107.552 -0.606972 108 -0.0546871 108L142.839 108C143.993 108 144.325 106.16 143.246 105.753C126.682 99.4911 83.1236 79.7147 70.3602 41.0665Z" fill="#FBD3A4"/>
<g opacity="0.3">
<path d="M166.207 43.7226C130.444 45.2942 111.428 66.4751 132.412 89.2877C103.428 68.7238 56.8717 65.9981 35.8161 80.3372C17.9838 92.4942 20.4322 111.068 46.346 129.001C72.6488 147.213 90.8083 152.937 137.576 162.03C174.59 169.247 193.629 167.862 232.628 176.225C237.371 156.576 241.081 147.335 247.429 127.938C255.474 103.489 253.179 83.7366 240.422 70.7472C221.427 51.3317 196.484 42.3622 166.207 43.7226Z" fill="#9998D3"/>
<path d="M38.9949 63.9831C37.2438 75.6045 28.1125 76.4876 20.843 86.1406C12.1136 97.7104 18.2836 111.069 26.4182 115.975C26.4182 115.975 13.9703 112.905 11.1056 101.479C8.24099 90.0534 14.1586 82.0957 21.4107 77.5922C28.6627 73.0887 37.0961 70.382 38.9949 63.9831Z" fill="#9998D3"/>
</g>
<path opacity="0.15" d="M235.026 150.768C227.933 142.788 225.595 140.994 225.851 137.633C226.23 133.34 235.284 117.69 227.153 100.992C224.395 95.1065 220.564 89.6943 215.812 84.969C209.963 79.213 201.535 73.2421 188.797 67.3803C187.246 66.6816 185.703 65.9531 184.068 65.3004C181.002 63.7763 178.902 62.4905 177.854 61.2712C177.698 61.0801 177.554 60.8816 177.422 60.6765C178.006 60.4779 178.567 60.2281 179.098 59.9308C181.221 58.6265 182.834 56.7568 183.698 54.602C184.976 51.767 185.014 47.2619 182.852 42.9206L182.449 42.1659C182.145 41.6113 181.807 41.0723 181.438 40.5511L181.369 40.4578C179.119 37.2284 178.05 31.492 173.398 28.0371C169.686 25.4304 165.268 23.7199 160.551 23.0625C155.834 22.4051 150.968 22.822 146.4 24.2747C139.109 26.5915 129.841 33.1406 126.104 41.1917C120.841 52.9407 119.709 65.7331 122.862 77.8288C123.897 81.6562 125.275 85.3939 126.982 89.0064C121.691 86.9218 117.201 85.0729 115.249 84.0941C112.18 82.5775 110.083 81.2843 109.035 80.0649C108.876 79.8736 108.73 79.6745 108.595 79.4686C109.179 79.2769 109.741 79.0294 110.269 78.7303C112.398 77.4284 114.014 75.5544 114.87 73.3941C116.23 70.4019 116.2 65.5272 113.63 60.9597C113.325 60.4056 112.984 59.8683 112.609 59.3506L112.55 59.2516C110.3 56.0222 109.231 50.2858 104.579 46.8309C100.865 44.2258 96.4471 42.5168 91.7296 41.8608C87.0121 41.2047 82.1465 41.6226 77.5788 43.0759C70.2817 45.3836 61.0215 51.9344 57.2845 59.9855C52.0194 71.7332 50.8847 84.525 54.0347 96.6208C57.4086 109.415 74.7406 128.07 94.9823 139.46C115.224 150.849 137.607 157.716 150.267 158.567C162.926 159.418 165.668 158.812 172.054 160.633C178.441 162.453 184.872 167.839 194.612 173.558C199.997 176.729 206.675 178.096 213.668 178.112C215.957 185.048 219.83 190.445 222.008 190.893C227.739 192.073 236.395 183.327 239.642 172.243C241.465 165.869 240.577 157 235.026 150.768ZM207.472 157.205C197.322 157.353 182.543 152.074 180.751 148.149C179.94 146.362 180.198 142.155 180.158 137.136C188.052 139.685 195.117 140.476 201.514 141.033C207.91 141.591 214.213 142.857 216.085 146.719C217.011 148.593 215.145 152.477 213.588 157.492C211.564 157.268 209.521 157.173 207.472 157.205Z" fill="black"/>
<path d="M170.827 24.1149C173.28 22.3724 179.401 23.6504 179.963 26.879C180.164 27.7385 180.054 28.6475 179.648 29.4747C179.242 30.3018 178.561 31.0043 177.703 31.4808C177.703 31.4808 171.098 27.699 170.827 24.1149Z" fill="#BAD5DB"/>
<path opacity="0.45" d="M170.827 24.1149C173.28 22.3724 179.401 23.6504 179.963 26.879C180.164 27.7385 180.054 28.6475 179.648 29.4747C179.242 30.3018 178.561 31.0043 177.703 31.4808C177.703 31.4808 171.098 27.699 170.827 24.1149Z" fill="black"/>
<path d="M235.221 147.314C228.307 139.377 226.018 137.599 226.312 134.235C226.738 129.941 235.875 114.235 228.04 97.5872C225.384 91.7215 221.663 86.3356 217.024 81.642C211.313 75.9221 203.056 70.0032 190.54 64.22C189.015 63.5309 187.499 62.8119 185.891 62.1693C182.879 60.6641 180.82 59.3913 179.799 58.1784C179.636 57.9711 179.49 57.7672 179.371 57.5847C179.954 57.3853 180.515 57.1325 181.045 56.8304C183.158 55.5131 184.775 53.6335 185.654 51.4734C186.952 48.6306 187.043 44.1253 184.959 39.7974L184.571 39.0453C184.279 38.4913 183.952 37.9542 183.591 37.4367L183.517 37.3662C181.332 34.1508 180.345 28.4211 175.79 24.9949C172.153 22.4111 167.808 20.7279 163.154 20.0995C158.5 19.4712 153.687 19.918 149.155 21.3988C141.922 23.7605 132.684 30.3665 128.894 38.4405C123.552 50.2216 122.279 63.0207 125.249 75.0966C128.42 87.8684 138.271 106.477 155.984 120.293C174.683 134.886 189.743 136.795 202.217 137.825C208.614 138.328 214.745 139.57 216.551 143.413C218.083 146.639 211.358 155.83 212.134 166.548C212.877 176.998 218.879 186.928 221.835 187.527C227.484 188.671 236.144 179.872 239.488 168.761C241.399 162.382 240.631 153.511 235.221 147.314Z" fill="#BAD5DB"/>
<path opacity="0.3" d="M235.221 147.314C228.307 139.377 226.018 137.599 226.312 134.235C226.738 129.941 235.875 114.235 228.04 97.5872C225.384 91.7215 221.663 86.3356 217.024 81.642C211.313 75.9221 203.056 70.0032 190.54 64.22C189.015 63.5309 187.499 62.8119 185.891 62.1693C182.879 60.6641 180.82 59.3913 179.799 58.1784C179.636 57.9711 179.49 57.7672 179.371 57.5847C179.954 57.3853 180.515 57.1325 181.045 56.8304C183.158 55.5131 184.775 53.6335 185.654 51.4734C186.952 48.6306 187.043 44.1253 184.959 39.7974L184.571 39.0453C184.279 38.4913 183.952 37.9542 183.591 37.4367L183.517 37.3662C181.332 34.1508 180.345 28.4211 175.79 24.9949C172.153 22.4111 167.808 20.7279 163.154 20.0995C158.5 19.4712 153.687 19.918 149.155 21.3988C141.922 23.7605 132.684 30.3665 128.894 38.4405C123.552 50.2216 122.279 63.0207 125.249 75.0966C128.42 87.8684 138.271 106.477 155.984 120.293C174.683 134.886 189.743 136.795 202.217 137.825C208.614 138.328 214.745 139.57 216.551 143.413C218.083 146.639 211.358 155.83 212.134 166.548C212.877 176.998 218.879 186.928 221.835 187.527C227.484 188.671 236.144 179.872 239.488 168.761C241.399 162.382 240.631 153.511 235.221 147.314Z" fill="black"/>
<path opacity="0.15" d="M219.431 150.856C224.417 142.606 222.644 139.097 217.234 136.796C211.825 134.495 195.862 133.224 192.12 126.888C188.377 120.553 181.546 108.736 175.054 103.661C159.042 91.1132 146.67 89.6485 135.7 80.3346C124.729 71.0206 123.306 56.0935 127.834 40.57C123.445 51.6577 122.567 63.4831 125.304 74.6756C128.482 87.4665 138.354 106.103 156.105 119.94C174.845 134.555 189.937 136.468 202.439 137.499C208.85 138.003 214.994 139.247 216.804 143.096C218.339 146.327 211.599 155.531 212.376 166.265C212.98 174.75 217.049 182.913 220.145 186.007C213.634 176.874 214.446 159.106 219.431 150.856Z" fill="black"/>
<path d="M215.152 89.1756C215.413 87.4417 214.329 86.1138 212.008 84.0493C214.436 84.309 215.812 83.3669 216.011 82.0114C210.254 76.253 201.93 70.2942 189.313 64.4719C187.24 63.614 185.605 62.9244 184.626 62.4073C181.59 60.892 179.514 59.6106 178.485 58.3896C178.32 58.1809 178.173 57.9755 178.054 57.7919C178.641 57.5912 179.206 57.3366 179.741 57.0325C181.903 55.7088 183.558 53.8014 184.45 51.6044C185.938 48.1168 185.605 43.8621 183.698 39.8474L183.306 39.0902C183.012 38.5324 182.683 37.9918 182.319 37.4707L182.233 37.4374C180.886 37.9501 179.741 38.8392 178.973 39.9683C177.962 41.2951 177.128 42.7855 175.72 43.7769C174.178 44.768 172.309 45.2233 170.48 45.054C167.381 44.7808 164.438 43.8353 161.898 42.2972C159.938 41.1828 158.185 39.7835 156.076 38.9022C153.253 37.817 150.044 37.6861 147.016 38.5327C143.987 39.3793 141.334 41.149 139.522 43.5299C138.837 44.3629 138.478 45.3688 138.506 46.3791C138.544 46.876 138.787 47.3331 139.186 47.6616C139.586 47.9901 140.114 48.1664 140.669 48.1564C139.146 49.4435 137.71 50.8759 138.07 52.895C138.253 53.9688 139.421 54.9309 140.591 54.5852C140.048 55.7466 139.877 57.0072 140.098 58.2183C140.455 59.383 141.89 60.3274 143.165 59.8355C142.921 59.9217 142.757 61.42 142.728 61.6614C142.646 62.2785 142.697 62.898 142.877 63.486C143.069 63.9941 143.474 64.4062 144.009 64.6375C144.544 64.8688 145.167 64.9016 145.75 64.7292C145.146 65.5024 144.77 66.3953 144.66 67.3182C144.551 68.241 144.711 69.1614 145.126 69.9867C145.486 70.7628 146.175 71.3658 147.047 71.6673C147.478 71.8013 147.953 71.8019 148.4 71.669C148.847 71.5362 149.241 71.2772 149.521 70.9316C149.491 71.8317 149.511 72.7303 149.583 73.6239C149.612 74.7397 149.922 75.8222 150.488 76.7901C150.881 77.4362 151.478 77.9569 152.208 78.2899C152.938 78.6228 153.769 78.7538 154.603 78.6671C154.751 78.6412 154.894 78.5985 155.046 78.5575C155.303 80.3116 155.831 82.0127 156.614 83.6122C157.421 85.0196 158.781 87.1691 160.7 87.4376C161.193 87.5486 161.723 87.4815 162.182 87.2504C162.64 87.0192 162.991 86.6417 163.161 86.1966C163.041 87.101 163.182 88.0061 163.57 88.8237C163.957 89.6413 164.578 90.3436 165.372 90.8624C166.166 91.3811 167.106 91.6986 168.101 91.7838C169.095 91.8691 170.11 91.7193 171.047 91.349C171.155 92.0425 171.423 92.7009 171.834 93.282C172.246 93.8631 172.791 94.3543 173.437 94.7242C174.082 95.0941 174.812 95.3345 175.582 95.4303C176.351 95.526 177.142 95.4749 177.904 95.2803C179.455 98.1303 184.475 98.6271 186.982 96.1911C188.366 97.8241 190.432 98.8716 192.738 99.1101C193.132 99.186 193.543 99.1856 193.945 99.109C194.347 99.0323 194.731 98.8811 195.073 98.6651C195.216 98.5593 195.336 98.4296 195.426 98.2838C195.515 98.138 195.572 97.979 195.594 97.8161C195.615 97.6533 195.601 97.4898 195.551 97.3354C195.501 97.181 195.416 97.0388 195.303 96.9171C196.788 97.9274 198.439 98.9393 200.343 98.8219C202.247 98.7045 204.246 96.6204 203.243 95.1413C204.569 95.8302 206.07 96.2239 207.628 96.2916C209.18 96.2705 210.612 95.9539 211.238 94.629C211.813 93.4453 211.125 92.5722 209.794 91.5133C212.312 91.7037 214.823 91.5417 215.152 89.1756Z" fill="#F0F0F0"/>
<path d="M189.16 125.796C187.839 121.291 185.042 112.938 187.61 104.392C189.235 98.983 194.493 93.1407 198.258 95.4852C201.28 97.3154 198.667 101.015 198.667 101.015C198.667 101.015 201.255 98.4328 202.865 100.111C204.474 101.789 202.404 105.551 202.404 105.551C202.404 105.551 204.572 103.619 205.574 105.941C206.576 108.262 204.048 112.627 204.048 112.627C206.541 110.216 208.964 112.952 207.331 116.549C205.698 120.147 206.656 124.538 208.027 127.757C209.399 130.976 212.445 136.028 206.059 139.507C199.868 142.884 179.883 135.653 174.661 131.211C180.532 132.259 191.125 132.526 189.16 125.796Z" fill="#BAD5DB"/>
<path opacity="0.45" d="M189.16 125.796C187.839 121.291 185.042 112.938 187.61 104.392C189.235 98.983 194.493 93.1407 198.258 95.4852C201.28 97.3154 198.667 101.015 198.667 101.015C198.667 101.015 201.255 98.4328 202.865 100.111C204.474 101.789 202.404 105.551 202.404 105.551C202.404 105.551 204.572 103.619 205.574 105.941C206.576 108.262 204.048 112.627 204.048 112.627C206.541 110.216 208.964 112.952 207.331 116.549C205.698 120.147 206.656 124.538 208.027 127.757C209.399 130.976 212.445 136.028 206.059 139.507C199.868 142.884 179.883 135.653 174.661 131.211C180.532 132.259 191.125 132.526 189.16 125.796Z" fill="black"/>
<g opacity="0.15">
<path d="M195.318 106.167C196.04 104.412 196.968 102.726 198.084 101.141C198.084 101.141 200.626 97.4656 197.703 95.6591C197.432 95.4943 197.135 95.3674 196.82 95.2823C198.188 95.9939 197.784 97.3308 196.194 100.754C194.604 104.178 195.318 106.167 195.318 106.167Z" fill="black"/>
<path d="M202.528 100.338C202.353 100.142 202.128 99.9887 201.873 99.8904C202.526 100.346 202.179 102.827 201.636 103.999C201.094 105.171 199.783 107.493 199.659 109.159C200.244 107.905 201.061 106.747 202.07 105.74C202.07 105.74 204.063 101.993 202.528 100.338Z" fill="black"/>
</g>
<path d="M228.383 131.602C229.43 129.746 229.584 123.952 227.403 120.525C225.221 117.098 219.536 114.736 220.04 111.823C220.544 108.909 223.798 110.51 223.798 110.51C223.798 110.51 218.965 108.636 218.503 106.277C217.957 103.419 221.674 104.023 221.674 104.023C220.197 103.229 218.865 102.241 217.718 101.089C216.023 99.1661 217.322 97.2747 219.714 97.3025C219.714 97.3025 215.73 93.8333 219.391 92.0111C223.052 90.1889 228.977 93.8467 232.483 97.132C236.514 100.903 239.578 106.467 239.02 114.784C238.537 120.899 233.614 134.243 228.383 131.602Z" fill="#BAD5DB"/>
<path opacity="0.45" d="M228.383 131.602C229.43 129.746 229.584 123.952 227.403 120.525C225.221 117.098 219.536 114.736 220.04 111.823C220.544 108.909 223.798 110.51 223.798 110.51C223.798 110.51 218.965 108.636 218.503 106.277C217.957 103.419 221.674 104.023 221.674 104.023C220.197 103.229 218.865 102.241 217.718 101.089C216.023 99.1661 217.322 97.2747 219.714 97.3025C219.714 97.3025 215.73 93.8333 219.391 92.0111C223.052 90.1889 228.977 93.8467 232.483 97.132C236.514 100.903 239.578 106.467 239.02 114.784C238.537 120.899 233.614 134.243 228.383 131.602Z" fill="black"/>
<g opacity="0.15">
<path d="M218.914 97.3554C221.223 97.6003 223.399 98.3535 225.255 99.5502C224.463 98.2865 223.331 97.2348 221.958 96.4859C219.463 95.0159 218.321 94.3061 218.283 93.3458C218.298 93.0359 218.389 92.7288 218.552 92.448C218.715 92.1672 218.944 91.9199 219.223 91.7252C219.022 91.7906 218.826 91.869 218.637 91.9598C214.882 93.8472 218.914 97.3554 218.914 97.3554Z" fill="black"/>
<path d="M217.103 101.072C218.261 102.24 219.608 103.24 221.102 104.043C222.59 104.289 224.026 104.71 225.374 105.295C225.374 105.295 224.922 104.458 222.093 103.03C219.263 101.603 218.398 100.834 217.677 99.7906C216.957 98.7467 217.231 97.7904 217.811 97.409C216.315 97.9914 215.753 99.5163 217.103 101.072Z" fill="black"/>
</g>
<path opacity="0.1" d="M133.474 35.0191L128.723 33.1473C127.799 34.3062 126.978 35.5266 126.268 36.7962C128.766 37.0938 131.445 36.7332 133.474 35.0191Z" fill="black"/>
<path d="M138.26 29.1599C136.389 26.9041 132.187 24.4074 127.435 26.9699C122.683 29.5324 123.61 36.5369 131.422 35.6115C133.669 35.3502 137.107 33.7072 138.26 29.1599Z" fill="#BAD5DB"/>
<path opacity="0.4" d="M138.26 29.1599C136.389 26.9041 132.187 24.4074 127.435 26.9699C122.683 29.5324 123.61 36.5369 131.422 35.6115C133.669 35.3502 137.107 33.7072 138.26 29.1599Z" fill="black"/>
<path d="M135.739 30.0637C133.27 28.0562 129.671 27.8548 128.131 29.7456C126.723 31.5193 127.905 33.394 130.274 33.1551C133.007 32.8701 134.208 30.9428 135.739 30.0637Z" fill="#37474F"/>
<path d="M135.348 88.5389C130.761 85.8195 127.194 79.2819 129.368 71.9738C131.542 64.6657 138.503 62.1143 139.67 65.4325C140.154 65.1655 140.707 65.0271 141.261 65.0339C141.816 65.0407 142.348 65.1925 142.794 65.471C143.293 65.7518 143.661 66.1843 143.837 66.6959C144.013 67.2075 143.985 67.7671 143.758 68.2808C143.758 68.2808 147.2 68.1856 145.811 71.62C144.422 75.0544 143.332 80.2289 146.352 83.2016C149.373 86.1743 151.611 89.242 148.345 91.1713C145.079 93.1005 139.53 91.018 135.348 88.5389Z" fill="#BAD5DB"/>
<path opacity="0.45" d="M135.348 88.5389C130.761 85.8195 127.194 79.2819 129.368 71.9738C131.542 64.6657 138.503 62.1143 139.67 65.4325C140.154 65.1655 140.707 65.0271 141.261 65.0339C141.816 65.0407 142.348 65.1925 142.794 65.471C143.293 65.7518 143.661 66.1843 143.837 66.6959C144.013 67.2075 143.985 67.7671 143.758 68.2808C143.758 68.2808 147.2 68.1856 145.811 71.62C144.422 75.0544 143.332 80.2289 146.352 83.2016C149.373 86.1743 151.611 89.242 148.345 91.1713C145.079 93.1005 139.53 91.018 135.348 88.5389Z" fill="black"/>
<g opacity="0.15">
<path d="M146.482 83.271C143.525 80.3027 144.627 75.15 146.015 71.7306C146.702 70.0275 146.21 69.201 145.547 68.7984C146.035 69.2446 145.15 71.8801 144.3 72.91C143.449 73.94 142.506 72.548 142.506 72.548C142.506 72.548 140.582 73.7407 140.609 75.0029C140.597 75.5383 140.623 76.0717 140.688 76.5998C140.688 76.5998 140.025 76.3634 139.451 77.694C138.876 79.0246 140.72 80.9382 140.72 80.9382C140.72 80.9382 139.122 81.9279 140.078 84.0655C141.034 86.203 144.467 86.8168 146.247 87.0573C148.026 87.2979 150.187 88.6431 149.098 90.6841C151.25 88.7706 149.201 85.9857 146.482 83.271Z" fill="black"/>
<path d="M143.471 68.421C143.655 67.9702 143.695 67.4874 143.587 67.0318C143.478 66.5762 143.225 66.1677 142.858 65.8564C142.862 66.6721 142.527 67.477 141.92 68.1064C141.264 68.8953 140.754 69.7746 140.414 70.7054C140.414 70.7054 141.84 68.8774 143.471 68.421Z" fill="black"/>
<path d="M139.209 65.5078C139.118 65.2106 138.953 64.9405 138.726 64.7182C138.499 64.4959 138.216 64.3273 137.899 64.2254C137.985 64.4702 137.99 64.737 137.913 64.9932C137.835 65.2493 137.679 65.4836 137.464 65.6672C136.67 66.4998 136.085 67.4766 135.753 68.5229C136.651 67.3006 137.834 66.2686 139.209 65.5078Z" fill="black"/>
</g>
<path d="M151.588 75.3166C148.966 71.7112 146.506 70.9595 143.8 71.7188C143.348 71.808 142.92 71.9928 142.553 72.2579C142.186 72.5229 141.89 72.8603 141.691 73.242C141.491 73.6236 141.393 74.0384 141.405 74.4514C141.417 74.8645 141.539 75.2639 141.761 75.6162C141.482 75.6347 141.209 75.7067 140.958 75.8274C140.707 75.9482 140.486 76.1148 140.308 76.316C140.13 76.5172 140 76.7484 139.926 76.994C139.853 77.2395 139.838 77.4938 139.883 77.7396C140.004 78.3491 140.275 78.9201 140.675 79.4119C141.075 79.9037 141.594 80.3044 142.197 80.5853C141.895 80.6804 141.62 80.8403 141.396 81.0508C141.172 81.2612 141.006 81.5158 140.914 81.7918C140.821 82.0679 140.805 82.3568 140.865 82.633C140.926 82.9093 141.062 83.1642 141.262 83.3752C142.618 85.3454 146.089 86.6506 149.39 85.9879C152.691 85.3253 154.203 78.9204 151.588 75.3166Z" fill="#37474F"/>
<path d="M144.474 79.6167C143.163 79.2385 142.202 78.8987 141.269 78.5809C140.857 78.4317 140.503 78.1824 140.244 77.8593C139.985 77.5361 139.832 77.1513 139.799 76.7453C139.706 77.0387 139.681 77.3432 139.724 77.6398C139.848 78.2591 140.122 78.8392 140.528 79.3388C140.934 79.8385 141.461 80.2455 142.072 80.5309C143.55 80.34 145.035 80.543 146.344 81.1147C146.344 81.1147 146.553 80.2151 144.474 79.6167Z" fill="#263238"/>
<path d="M145.682 76.6432C145.682 76.6432 145.57 75.5375 143.738 74.8482C141.905 74.1589 141.884 72.7529 142.565 72.142C141.923 72.5017 141.452 73.0694 141.255 73.7209C141.059 74.3723 141.153 75.0544 141.518 75.6177C143.545 75.4863 145.252 75.9271 145.682 76.6432Z" fill="#263238"/>
<path opacity="0.15" d="M207.532 76.1697C207.544 75.9586 207.545 75.2945 207.511 74.6312C203.066 71.5189 198.341 68.739 193.378 66.3171C193.662 68.0423 193.548 69.82 193.043 71.5399C192.307 75.4554 188.403 80.3976 185.801 82.535C185.357 82.8271 185.02 83.2343 184.839 83.6982C184.657 84.1621 184.641 84.6586 184.791 85.1164C184.941 85.5742 185.251 85.9695 185.676 86.2456C186.1 86.5217 186.618 86.6642 187.153 86.6527C186.948 86.912 186.801 87.2039 186.721 87.5105C186.642 87.8171 186.632 88.1319 186.692 88.4358C186.752 88.7396 186.88 89.026 187.07 89.2775C187.259 89.5289 187.505 89.7402 187.793 89.8982C188.365 90.2788 189.052 90.5012 189.776 90.5403C190.5 90.5794 191.232 90.4337 191.889 90.1197C191.889 90.1197 194.599 92.7964 199.381 90.1597C204.163 87.5231 207.227 82.0392 207.532 76.1697Z" fill="black"/>
<path d="M198.819 88.9214C194.002 91.5656 191.802 89.0091 191.802 89.0091C191.139 89.323 190.402 89.4682 189.673 89.4286C188.944 89.389 188.252 89.1661 187.675 88.785C187.385 88.6256 187.138 88.4128 186.948 88.1596C186.758 87.9063 186.63 87.6181 186.57 87.3125C186.511 87.0069 186.523 86.6904 186.604 86.3825C186.685 86.0746 186.834 85.7817 187.043 85.5219C186.506 85.5316 185.988 85.3878 185.563 85.1112C185.138 84.8346 184.828 84.4392 184.677 83.9817C184.526 83.5241 184.541 83.0277 184.721 82.5634C184.902 82.0992 185.237 81.6908 185.68 81.3967C188.298 79.2517 191.269 75.3846 192.006 71.4383C192.744 67.492 191.657 65.6212 191.594 65.5132C190.987 65.2236 190.371 64.9323 189.737 64.6452C187.675 63.7914 186.05 63.1052 185.076 62.5906C182.056 61.0826 179.991 59.8075 178.968 58.5923C178.805 58.3847 178.658 58.1804 178.539 57.9976C184.1 57.8136 195.305 59.2796 199.821 62.305C204.065 65.1402 206.31 68.6424 206.321 73.9386C206.309 74.2935 206.304 74.6575 206.286 75.0348C206.006 80.8913 203.631 86.268 198.819 88.9214Z" fill="#BAD5DB"/>
<path opacity="0.45" d="M198.819 88.9214C194.002 91.5656 191.802 89.0091 191.802 89.0091C191.139 89.323 190.402 89.4682 189.673 89.4286C188.944 89.389 188.252 89.1661 187.675 88.785C187.385 88.6256 187.138 88.4128 186.948 88.1596C186.758 87.9063 186.63 87.6181 186.57 87.3125C186.511 87.0069 186.523 86.6904 186.604 86.3825C186.685 86.0746 186.834 85.7817 187.043 85.5219C186.506 85.5316 185.988 85.3878 185.563 85.1112C185.138 84.8346 184.828 84.4392 184.677 83.9817C184.526 83.5241 184.541 83.0277 184.721 82.5634C184.902 82.0992 185.237 81.6908 185.68 81.3967C188.298 79.2517 191.269 75.3846 192.006 71.4383C192.744 67.492 191.657 65.6212 191.594 65.5132C190.987 65.2236 190.371 64.9323 189.737 64.6452C187.675 63.7914 186.05 63.1052 185.076 62.5906C182.056 61.0826 179.991 59.8075 178.968 58.5923C178.805 58.3847 178.658 58.1804 178.539 57.9976C184.1 57.8136 195.305 59.2796 199.821 62.305C204.065 65.1402 206.31 68.6424 206.321 73.9386C206.309 74.2935 206.304 74.6575 206.286 75.0348C206.006 80.8913 203.631 86.268 198.819 88.9214Z" fill="black"/>
<g opacity="0.15">
<path d="M186.661 84.0894C185.614 84.0474 184.776 83.6075 184.781 83.0808C184.772 83.6986 185.027 84.2813 185.491 84.708C185.955 85.1346 186.594 85.3724 187.275 85.3719C188.801 84.2513 190.208 83.0014 191.475 81.6408C190.04 82.6963 187.835 84.1409 186.661 84.0894Z" fill="black"/>
<path d="M196.969 84.7974C195.646 86.0276 194.052 86.9875 192.304 87.6059C189.38 88.623 187.486 88.0427 186.962 87.3364C187.115 87.9184 187.513 88.4113 188.073 88.7135C188.65 89.0962 189.343 89.3188 190.074 89.3564C190.805 89.394 191.546 89.2451 192.213 88.9265C194.417 87.9574 196.969 84.7974 196.969 84.7974Z" fill="black"/>
<path d="M193.534 89.8613C194.614 90.3165 196.475 90.5433 199.235 88.997C203.943 86.3475 206.292 81.0054 206.634 75.1626C206.654 74.7882 206.662 74.4272 206.675 74.0751C206.253 78.2465 203.354 88.9715 193.534 89.8613Z" fill="black"/>
</g>
<path d="M162.995 46.6342C162.945 46.7897 162.831 46.9248 162.677 47.0102C162.523 47.0957 162.342 47.1246 162.173 47.0906C162.004 47.0569 161.862 46.9628 161.776 46.8292C161.691 46.6955 161.669 46.5332 161.717 46.378C161.765 46.222 161.877 46.0857 162.03 45.9986C162.183 45.9114 162.364 45.8805 162.533 45.9124C162.703 45.9484 162.846 46.0441 162.932 46.1789C163.018 46.3138 163.041 46.4771 162.995 46.6342Z" fill="#455A64"/>
<path d="M175.368 51.9928C175.719 52.0631 176.083 51.858 176.182 51.5347C176.281 51.2115 176.077 50.8924 175.727 50.8221C175.376 50.7518 175.012 50.9568 174.913 51.2801C174.814 51.6034 175.018 51.9225 175.368 51.9928Z" fill="#455A64"/>
<path d="M180.991 43.4013C180.955 43.5188 180.882 43.6262 180.781 43.7096C180.68 43.793 180.556 43.8487 180.424 43.8697C180.293 43.8907 180.16 43.876 180.042 43.8274C179.924 43.7789 179.827 43.6987 179.763 43.5971C179.699 43.4954 179.671 43.3769 179.683 43.2567C179.694 43.1364 179.745 43.0197 179.828 42.9215C179.911 42.8234 180.023 42.7481 180.149 42.7053C180.275 42.6625 180.411 42.654 180.538 42.6811C180.622 42.698 180.7 42.73 180.769 42.7755C180.837 42.8209 180.894 42.8788 180.936 42.9458C180.979 43.0128 181.005 43.0876 181.015 43.1657C181.024 43.2439 181.016 43.324 180.991 43.4013Z" fill="#455A64"/>
<path d="M162.344 53.9816C162.295 54.1371 162.18 54.2722 162.026 54.3577C161.872 54.4431 161.691 54.472 161.522 54.438C161.354 54.4043 161.211 54.3102 161.126 54.1766C161.04 54.0429 161.019 53.8806 161.066 53.7254C161.114 53.5694 161.227 53.4331 161.38 53.346C161.532 53.2588 161.713 53.2279 161.883 53.2598C162.052 53.2958 162.195 53.3915 162.282 53.5263C162.368 53.6612 162.39 53.8246 162.344 53.9816Z" fill="#455A64"/>
<path d="M154.233 47.8547C154.584 47.925 154.949 47.72 155.048 47.3967C155.147 47.0734 154.943 46.7543 154.592 46.684C154.241 46.6137 153.877 46.8188 153.778 47.1421C153.679 47.4653 153.883 47.7844 154.233 47.8547Z" fill="#455A64"/>
<path d="M155.376 51.3576C155.342 51.4755 155.27 51.5835 155.17 51.668C155.071 51.7525 154.947 51.8097 154.816 51.8322C154.684 51.8547 154.551 51.8415 154.432 51.7944C154.314 51.7472 154.215 51.6682 154.15 51.5674C154.085 51.4666 154.055 51.3486 154.065 51.2283C154.074 51.1079 154.123 50.9908 154.205 50.8918C154.287 50.7927 154.398 50.7162 154.524 50.6719C154.65 50.6277 154.785 50.6177 154.913 50.6433C155.082 50.6772 155.225 50.7712 155.312 50.9049C155.399 51.0386 155.422 51.2012 155.376 51.3576Z" fill="#455A64"/>
<path d="M166.48 51.0818C166.444 51.1993 166.37 51.3066 166.269 51.39C166.169 51.4735 166.044 51.5292 165.913 51.5502C165.781 51.5712 165.648 51.5565 165.53 51.5079C165.412 51.4594 165.315 51.3792 165.251 51.2776C165.187 51.1759 165.159 51.0574 165.171 50.9371C165.182 50.8169 165.233 50.7002 165.316 50.602C165.399 50.5038 165.511 50.4286 165.637 50.3857C165.764 50.3429 165.899 50.3345 166.026 50.3616C166.11 50.3784 166.189 50.4105 166.257 50.4559C166.326 50.5014 166.383 50.5593 166.425 50.6263C166.467 50.6933 166.493 50.768 166.503 50.8462C166.512 50.9244 166.504 51.0045 166.48 51.0818Z" fill="#455A64"/>
<path d="M179.263 54.0456C179.613 54.116 179.978 53.9109 180.077 53.5876C180.176 53.2643 179.972 52.9452 179.621 52.8749C179.271 52.8046 178.906 53.0097 178.807 53.333C178.708 53.6563 178.912 53.9753 179.263 54.0456Z" fill="#455A64"/>
<path d="M148.943 63.3625C148.829 63.3398 148.73 63.2779 148.667 63.1891C148.604 63.1003 148.581 62.991 148.604 62.8829C150.191 54.8555 155.995 51.4801 160.918 51.0021C160.982 50.9927 161.047 50.9952 161.109 51.0096C161.17 51.0239 161.227 51.0497 161.276 51.0854C161.325 51.1212 161.365 51.1661 161.393 51.2175C161.421 51.2688 161.437 51.3256 161.44 51.3842C161.443 51.4429 161.433 51.5022 161.411 51.5585C161.388 51.6149 161.353 51.6672 161.308 51.7122C161.264 51.7571 161.21 51.7938 161.151 51.8201C161.091 51.8463 161.027 51.8615 160.963 51.8648C156.4 52.3048 151.011 55.4635 149.539 63.0003C149.529 63.0575 149.506 63.1129 149.473 63.1633C149.439 63.2138 149.396 63.2583 149.344 63.2942C149.293 63.3302 149.235 63.3569 149.174 63.3729C149.112 63.3888 149.049 63.3936 148.987 63.3871L148.943 63.3625Z" fill="#455A64"/>
<path d="M143.632 57.9716L143.575 57.9602C143.457 57.9208 143.365 57.8395 143.318 57.7344C143.27 57.6292 143.272 57.5087 143.323 57.3994C147.744 47.6267 156.832 47.7503 159.963 48.6252C160.082 48.6612 160.178 48.7389 160.23 48.8417C160.283 48.9446 160.288 49.0644 160.244 49.1758C160.223 49.231 160.19 49.2824 160.147 49.327C160.104 49.3716 160.053 49.4086 159.995 49.4357C159.938 49.4628 159.876 49.4795 159.813 49.4849C159.749 49.4902 159.686 49.484 159.627 49.4667C156.733 48.6634 148.338 48.567 144.203 57.6876C144.16 57.7887 144.077 57.8737 143.971 57.9262C143.866 57.9787 143.745 57.9949 143.632 57.9716Z" fill="#455A64"/>
<path d="M142.759 47.8399C142.67 47.8219 142.591 47.7805 142.531 47.7207C142.488 47.6789 142.455 47.6294 142.434 47.5748C142.413 47.5202 142.404 47.4617 142.408 47.4027C142.412 47.3436 142.429 47.2852 142.458 47.2307C142.486 47.1762 142.526 47.1267 142.575 47.0851C148.21 42.2243 157 44.001 159.901 46.5828C159.993 46.663 160.044 46.7754 160.043 46.8953C160.042 47.0151 159.989 47.1327 159.896 47.222C159.802 47.3113 159.676 47.3651 159.544 47.3716C159.413 47.378 159.287 47.3366 159.195 47.2564C156.584 44.9368 148.333 43.3256 143.221 47.7371C143.157 47.7883 143.082 47.8247 143.001 47.8427C142.92 47.8606 142.836 47.8597 142.759 47.8399Z" fill="#455A64"/>
<path d="M178.874 46.9158C178.783 46.897 178.701 46.855 178.638 46.7946C178.553 46.7106 178.51 46.5976 178.518 46.4798C178.526 46.362 178.583 46.2489 178.679 46.1647C181.639 43.5703 189.84 41.5491 195.631 46.7574C195.723 46.8389 195.773 46.9525 195.771 47.0733C195.77 47.1941 195.715 47.3122 195.62 47.4016C195.526 47.491 195.398 47.5444 195.266 47.55C195.134 47.5556 195.008 47.513 194.916 47.4315C189.561 42.6138 182.037 44.436 179.328 46.811C179.265 46.8602 179.191 46.8954 179.112 46.9137C179.033 46.9319 178.951 46.9326 178.874 46.9158Z" fill="#455A64"/>
<path d="M177.63 49.338C177.505 49.3107 177.4 49.2392 177.337 49.1388C177.305 49.0886 177.284 49.0324 177.276 48.9736C177.268 48.9147 177.273 48.8543 177.291 48.7958C177.309 48.7373 177.338 48.6819 177.379 48.6328C177.419 48.5836 177.469 48.5418 177.526 48.5096C181.771 46.1296 189.847 45.6777 193.793 50.9744C193.864 51.0708 193.89 51.1918 193.863 51.3108C193.836 51.4298 193.76 51.537 193.65 51.6089C193.541 51.6807 193.408 51.7113 193.28 51.694C193.152 51.6766 193.04 51.6127 192.968 51.5163C189.339 46.6626 181.948 47.0964 177.982 49.3104C177.87 49.3607 177.744 49.3706 177.63 49.338Z" fill="#455A64"/>
<path d="M190.97 57.9119C190.872 57.8899 190.786 57.8412 190.723 57.7722C190.659 57.7032 190.622 57.6171 190.615 57.5251C190.569 56.5186 190.28 55.5469 189.769 54.6783C189.258 53.8097 188.536 53.0653 187.656 52.4975C185.46 51.0856 182.699 50.5316 179.945 50.9506C179.819 50.9753 179.69 50.9547 179.586 50.893C179.482 50.8313 179.411 50.7335 179.389 50.6205C179.377 50.5636 179.378 50.5043 179.391 50.4462C179.405 50.3882 179.432 50.3325 179.469 50.2826C179.506 50.2327 179.554 50.1895 179.609 50.1557C179.664 50.1219 179.725 50.0981 179.789 50.0858C182.813 49.5888 185.86 50.1797 188.275 51.7317C189.259 52.3758 190.066 53.2141 190.64 54.1895C191.214 55.1648 191.543 56.2543 191.604 57.3838C191.61 57.4999 191.566 57.6166 191.481 57.7085C191.395 57.8003 191.276 57.8601 191.147 57.8748C191.09 57.8957 191.03 57.9083 190.97 57.9119Z" fill="#455A64"/>
<path d="M176.459 45.3867C176.534 44.3512 173.79 42.2091 172.253 42.2112C170.717 42.2134 167.783 44.6652 167.008 45.7593C166.233 46.8533 168.012 47.441 168.012 47.441C168.133 47.6085 169.029 47.4459 169.518 46.6368C170.091 45.6933 170.895 46.5071 170.403 47.045C169.91 47.5829 169.455 47.6031 168.368 47.8547C167.55 48.359 169.318 48.841 170.773 51.0509C173.737 49.823 174.986 48.3384 174.698 47.8985C173.748 47.6445 173.338 47.5463 173.331 46.7251C173.352 46.0926 174.336 45.7807 174.27 46.7304C174.237 46.946 174.292 47.1603 174.423 47.3331C174.555 47.5059 174.754 47.6254 174.983 47.6694C175.405 47.4123 175.759 47.071 176.015 46.6739C176.272 46.2769 176.424 45.8355 176.459 45.3867Z" fill="#37474F"/>
<path d="M158.884 38.6303C157.085 36.8608 154.086 37.7573 154.178 38.9994C154.269 40.2415 156.686 39.5907 157.766 40.8296C158.845 42.0684 160.859 40.5396 158.884 38.6303Z" fill="#37474F"/>
<path d="M177.645 38.2958C179.228 36.6281 181.794 37.1744 181.691 38.2458C181.588 39.3173 179.512 38.9491 178.531 40.0916C177.549 41.2342 175.911 40.1165 177.645 38.2958Z" fill="#37474F"/>
<path opacity="0.15" d="M180.627 60.0505C179.162 61.0063 177.395 61.4511 175.668 61.299C175.668 61.299 171.349 66.0588 162.223 64.9644C153.097 63.8699 148.148 59.8912 146.645 57.7164C145.715 57.5287 142.329 54.3252 144.18 50.7338C143.836 53.1272 145.158 55.2574 147.464 56.7569C147.54 56.8754 147.631 56.9847 147.736 57.0827C147.776 57.1357 147.824 57.1839 147.877 57.2262C148.83 58.1049 149.943 58.8259 151.172 59.3605L151.222 59.3705C151.946 59.7143 152.692 60.021 153.456 60.2893C155.3 60.9442 157.218 61.4329 159.184 61.7489C160.439 61.9624 161.716 62.0856 163.003 62.1174C167.168 62.2189 169.848 61.6022 171.559 60.7817C171.794 60.6733 171.999 60.5504 172.196 60.4507C172.729 60.1745 173.202 59.8066 173.589 59.3687C173.975 58.9307 174.267 58.4315 174.447 57.9004C175.566 58.0779 176.739 57.9272 177.803 57.4693C177.922 57.6576 178.07 57.868 178.234 58.0818C178.918 58.8456 179.724 59.5085 180.627 60.0505Z" fill="black"/>
<path opacity="0.07" d="M174.192 58.0824C174.017 58.6117 173.728 59.1098 173.342 59.5466C172.956 59.9834 172.481 60.3498 171.946 60.6238C171.75 60.7216 171.547 60.8422 171.313 60.9486C169.615 61.7534 166.956 62.3573 162.826 62.2551C161.549 62.2231 160.283 62.1014 159.038 61.8909C157.088 61.5794 155.186 61.0982 153.358 60.4539C152.6 60.1899 151.86 59.8883 151.143 59.5502L151.093 59.5403C149.683 58.9684 148.453 58.1071 147.493 57.0203C149.344 58.1251 151.454 58.8503 153.686 59.1492C155.918 59.448 158.223 59.3138 160.452 58.7553C169.917 56.3949 171.127 50.525 171.127 50.525C171.334 53.5341 173.856 55.0638 174.192 58.0824Z" fill="black"/>
<path d="M101.797 41.8281C105.096 40.4701 110.827 42.5146 111.425 45.7453C112.118 49.4736 109.057 49.9548 109.057 49.9548L101.797 41.8281Z" fill="#37474F"/>
<path d="M232.951 159.977C225.592 155.777 216.951 153.619 208.042 153.758C197.891 153.971 183.179 148.726 181.434 144.768C179.689 140.81 183.274 124.938 177.39 114.527C172.447 105.526 164.064 98.5417 153.708 94.7945C150.662 93.7616 145.791 91.9826 140.507 90.0001C130.921 86.3857 120.053 82.1114 116.694 80.4303C113.645 78.9159 111.563 77.6215 110.53 76.3951C110.374 76.2025 110.229 76.0021 110.097 75.7948C110.684 75.5974 111.248 75.3436 111.78 75.0379C113.924 73.7082 115.562 71.8033 116.444 69.6136C117.839 66.5796 117.868 61.6509 115.353 57.0486C115.054 56.4902 114.72 55.9491 114.351 55.4279L114.293 55.3281C112.082 52.0769 111.083 46.2833 106.473 42.819C102.791 40.2081 98.3936 38.5078 93.6848 37.8739C88.9761 37.24 84.1063 37.6928 79.5222 39.1909C72.1988 41.5697 62.8621 48.2513 59.0294 56.4153C53.6248 68.3265 52.3374 81.2678 55.3422 93.4785C58.5625 106.394 75.6682 125.148 95.7699 136.538C115.872 147.928 138.168 154.732 150.815 155.513C163.462 156.295 166.21 155.665 172.574 157.466C178.938 159.266 185.303 164.672 194.973 170.394C204.643 176.116 218.423 175.901 230.817 172.426C243.211 168.95 238.979 163.416 232.951 159.977Z" fill="#455A64"/>
<path opacity="0.15" d="M236.829 170.645C236.829 170.645 223.126 174.178 208.716 171.448C194.306 168.718 188.876 160.852 185.518 156.706C182.159 152.56 174.228 146.041 159.863 146.379C145.498 146.717 126.223 144.597 111.81 137.759C84.2464 124.686 76.2368 114.642 68.5554 102.087L62.0625 104.851C69.5449 115.721 82.2414 127.516 96.4236 135.639C116.694 147.256 139.209 154.193 151.967 154.983C164.725 155.772 167.496 155.128 173.917 156.963C180.338 158.798 186.763 164.314 196.523 170.152C206.283 175.99 220.182 175.761 232.682 172.203C234.109 171.805 235.498 171.283 236.829 170.645Z" fill="black"/>
<path d="M63.4782 52.9657C62.7826 53.7934 61.7686 54.3576 60.6542 54.537C59.4922 54.8381 58.2746 54.8235 57.157 54.4951L58.0836 52.9891L63.4782 52.9657Z" fill="#37474F"/>
<path d="M63.3006 53.0789C55.8055 55.4395 52.951 48.5455 57.1892 45.3035C61.4273 42.0614 66.1215 43.051 69.2197 45.3544C69.2106 45.3843 69.4579 49.0096 63.3006 53.0789Z" fill="#455A64"/>
<path d="M66.5253 47.0023C63.6965 45.4271 60.0864 45.7794 58.9214 47.8522C57.8195 49.8024 59.3808 51.4476 61.6883 50.8477C64.345 50.1593 65.1775 48.0909 66.5253 47.0023Z" fill="#37474F"/>
<path d="M146.765 104.289C147.027 101.797 144.825 99.6293 142.475 98.4124C144.153 98.8155 145.707 96.9047 145.431 95.3575C145.154 93.8103 143.742 92.7031 142.403 91.7544C141.39 91.031 140.355 90.3194 139.312 89.6378C129.76 86.0388 118.931 81.7825 115.584 80.1087C112.545 78.6007 110.471 77.3119 109.442 76.0908C109.286 75.8991 109.142 75.6996 109.011 75.4932C109.595 75.2967 110.158 75.044 110.687 74.7397C112.573 73.6696 114.128 72.2457 115.467 69.2227C117.048 65.6585 116.602 61.0784 114.254 56.8152C113.954 56.2606 113.621 55.722 113.256 55.2016L113.198 55.1023C111.851 55.616 110.704 56.5038 109.93 57.6312C108.928 58.9596 108.094 60.4499 106.687 61.4412C105.143 62.4332 103.275 62.8909 101.444 62.7255C98.3455 62.4467 95.4033 61.4988 92.8637 59.9609C90.9028 58.8465 89.15 57.4472 87.0403 56.5659C84.2173 55.4774 81.0075 55.3448 77.9783 56.1915C74.9491 57.0381 72.2955 58.8095 70.4867 61.1925C69.8034 62.026 69.4424 63.0298 69.4629 64.0399C69.5023 64.5377 69.7462 64.9953 70.1473 65.3239C70.5483 65.6526 71.0781 65.829 71.6339 65.8189C70.1109 67.1059 68.6729 68.5456 69.0361 70.5571C69.2191 71.6309 70.3875 72.593 71.557 72.2474C71.0096 73.4078 70.8387 74.6695 71.065 75.8802C71.4191 77.0524 72.8549 77.9968 74.1236 77.4958C73.9135 78.0879 73.7688 78.6945 73.6915 79.3066C73.6087 79.9237 73.6593 80.5434 73.8404 81.1311C74.035 81.6378 74.44 82.049 74.9732 82.2812C75.5065 82.5135 76.1281 82.5495 76.712 82.3819C76.1089 83.154 75.734 84.0457 75.6249 84.9672C75.5159 85.8887 75.6766 86.8075 76.0908 87.6315C76.4477 88.4096 77.1381 89.0136 78.0121 89.3122C78.4435 89.4462 78.9189 89.4468 79.3657 89.314C79.8125 89.1812 80.2062 88.9222 80.4867 88.5766C80.0491 89.3334 80.4849 90.4664 80.5488 91.2688C80.5679 92.3847 80.8753 93.468 81.4467 94.4332C81.8396 95.0793 82.4368 95.6 83.1666 95.933C83.8964 96.2659 84.728 96.3969 85.5617 96.3103C85.7088 96.2815 85.8541 96.2444 85.9969 96.199C85.3878 96.3948 87.3215 100.845 87.5653 101.254C88.3725 102.661 89.7311 104.818 91.6499 105.086C92.1436 105.177 92.6663 105.101 93.1199 104.871C93.5734 104.641 93.9266 104.274 94.1131 103.838C93.9937 104.742 94.1346 105.647 94.5223 106.465C94.9099 107.283 95.531 107.985 96.3251 108.504C97.1192 109.023 98.0592 109.34 99.0538 109.425C100.048 109.511 101.063 109.361 102 108.991C102.106 109.685 102.372 110.345 102.783 110.927C103.194 111.51 103.74 112.002 104.386 112.372C105.032 112.742 105.763 112.983 106.534 113.077C107.304 113.172 108.096 113.119 108.859 112.922C110.408 115.779 115.428 116.277 117.928 113.832C119.316 115.462 121.379 116.511 123.683 116.758C124.078 116.831 124.49 116.829 124.893 116.753C125.296 116.677 125.682 116.528 126.026 116.315C126.169 116.208 126.289 116.078 126.378 115.931C126.467 115.785 126.524 115.626 126.545 115.462C126.567 115.299 126.553 115.135 126.503 114.98C126.454 114.825 126.371 114.682 126.258 114.56C127.744 115.57 129.393 116.589 131.299 116.464C133.205 116.34 135.202 114.263 134.198 112.784C135.808 113.415 137.587 113.666 139.375 113.512C141.605 113.27 143.146 112.592 143.728 111.267C144.303 110.083 143.523 107.979 142.239 107.225C145.088 107.825 146.523 106.656 146.765 104.289Z" fill="#EBEBEB"/>
<path d="M136.13 88.8317C127.451 85.526 118.562 81.9843 115.574 80.4847C112.587 78.985 110.426 77.661 109.389 76.4279C109.233 76.2343 109.088 76.0329 108.955 75.8244C109.544 75.6258 110.11 75.3705 110.643 75.0631C111.261 74.7119 111.844 74.3095 112.384 73.8614C117.563 75.3356 123.146 75.5486 128.585 74.4796C127.987 80.6649 131.229 85.9454 135.251 88.3314C135.534 88.5016 135.825 88.6734 136.13 88.8317Z" fill="#37474F"/>
<path opacity="0.15" d="M54.4205 92.2537C56.0022 98.5764 60.9254 106.308 67.9035 113.873C70.8856 113.216 73.7307 112.06 76.2876 110.466C81.2218 107.428 89.056 103.098 94.4083 103.734C99.7606 104.371 100.333 101.024 98.9385 100.272C98.9385 100.272 102.35 98.2954 98.0381 96.4041C98.0381 96.4041 101.256 94.0855 93.7024 92.7406C86.1487 91.3956 75.8967 93.7401 69.7543 93.4688C63.6118 93.1975 59.3258 88.8196 60.5332 84.8125L54.9936 70.5639C54.4618 71.9839 53.8217 73.3734 53.078 74.7222C52.5789 80.6368 53.0311 86.5421 54.4205 92.2537Z" fill="black"/>
<path d="M53.6818 69.2778C51.2629 75.9472 45.6852 81.3651 44.4593 91.561C43.2335 101.757 46.1554 109.547 54.5322 112.037C57.8634 113.066 61.462 113.342 65.0221 112.839C68.5822 112.337 71.9984 111.071 74.9801 109.15C79.9096 106.115 87.7364 101.788 93.0836 102.425C98.4309 103.061 99.0031 99.7166 97.6096 98.9653C97.6096 98.9653 101.02 96.9827 96.71 95.1006C96.71 95.1006 99.925 92.784 92.3785 91.4402C84.832 90.0964 74.5815 92.4372 68.453 92.1678C62.3246 91.8983 61.0717 85.7666 62.2781 81.7631C63.4844 77.7596 56.0889 62.5901 53.6818 69.2778Z" fill="#455A64"/>
<path d="M97.7232 94.7039C97.4663 94.8251 97.0552 94.8067 96.3792 94.5431C94.6374 93.9667 92.7474 93.8024 90.8753 94.0645C93.0227 94.3046 95.1141 94.7995 97.0987 95.5373C97.3822 95.3134 97.5981 95.0252 97.7232 94.7039Z" fill="#37474F"/>
<path d="M99.407 97.5111C99.407 97.5111 99.1493 98.3721 97.7545 98.2668C96.3596 98.1614 94.6551 97.767 92.3246 98.5224C94.3244 98.369 96.3111 98.6558 98.1145 99.3582C98.1145 99.3582 99.4675 98.574 99.407 97.5111Z" fill="#37474F"/>
<path d="M98.2767 100.368C98.0141 101.644 94.3172 100.403 88.8916 100.356C83.4661 100.309 76.0739 104.793 71.0652 107.442C65.3313 110.501 57.2472 109.383 55.2861 107.936C55.2861 107.936 58.5677 108.791 58.3416 106.619C58.178 105.137 55.0927 103.486 55.0927 103.486C55.0927 103.486 57.4172 103.67 56.9854 102.412C56.4609 100.913 54.1503 99.9599 52.4756 98.4588C49.6172 96.027 47.86 92.7153 47.5161 89.1121C47.3095 85.7187 49.6374 80.4814 51.1339 77.1061C52.1666 74.6187 52.9864 72.0721 53.5859 69.4896C51.1142 76.0432 45.6635 81.4608 44.4608 91.5273C43.2443 101.726 46.1772 109.524 54.5597 112.024C57.8941 113.055 61.4962 113.33 65.0596 112.827C68.6231 112.324 72.0425 111.058 75.027 109.135C79.9612 106.097 87.7954 101.766 93.1478 102.403C96.6577 102.819 98.1041 101.519 98.2767 100.368Z" fill="#37474F"/>
<path opacity="0.15" d="M92.5029 91.618C84.8553 90.2484 74.4704 92.6465 68.2605 92.3743C62.0505 92.1022 60.7766 85.8352 61.9961 81.7423C61.7235 86.4182 63.4232 89.4793 68.2731 90.4665C73.1229 91.4536 83.0617 88.9241 92.5029 91.618Z" fill="black"/>
<path d="M107.42 63.0865C107.496 62.0511 104.751 59.9089 103.214 59.911C101.678 59.9131 98.744 62.3647 97.9714 63.4512C97.1988 64.5378 98.9756 65.1329 98.9756 65.1329C99.0888 65.2989 99.9901 65.1454 100.482 64.3288C101.053 63.3929 101.857 64.2067 101.364 64.7446C100.872 65.2824 100.417 65.3026 99.33 65.5542C98.5112 66.0584 100.279 66.5404 101.735 68.7503C104.702 67.515 105.948 66.038 105.671 65.5607C104.722 65.3066 104.312 65.2085 104.304 64.3872C104.325 63.7548 105.301 63.4413 105.243 64.3926C105.207 64.6075 105.259 64.8222 105.389 64.9953C105.52 65.1683 105.719 65.2875 105.949 65.3299C106.365 65.078 106.716 64.7432 106.972 64.3532C107.228 63.9631 107.382 63.5289 107.42 63.0865Z" fill="#37474F"/>
<path d="M89.8841 56.3914C87.9853 54.7133 85.021 55.747 85.1854 56.9807C85.3498 58.2144 87.7416 57.4528 88.8921 58.6344C90.0426 59.816 91.9599 58.2339 89.8841 56.3914Z" fill="#263238"/>
<path d="M108.941 56.0536C110.712 54.5473 113.187 55.3549 112.946 56.4249C112.705 57.4949 110.702 56.9017 109.616 57.9542C108.531 59.0067 106.996 57.6767 108.941 56.0536Z" fill="#263238"/>
<path d="M94.0679 64.5361C94.0335 64.654 93.9618 64.7621 93.862 64.8466C93.7622 64.9311 93.6387 64.9882 93.5073 65.0107C93.3758 65.0332 93.2423 65.02 93.1238 64.9729C93.0053 64.9257 92.907 64.8468 92.8415 64.7459C92.7761 64.6451 92.7463 64.5271 92.7561 64.4068C92.7659 64.2865 92.8148 64.1693 92.8965 64.0703C92.9782 63.9712 93.0891 63.8947 93.2151 63.8505C93.3411 63.8062 93.4765 63.7963 93.604 63.8218C93.7732 63.8557 93.9167 63.9497 94.0035 64.0834C94.0904 64.2171 94.1135 64.3798 94.0679 64.5361Z" fill="#455A64"/>
<path d="M107.262 69.4478C107.2 69.589 107.084 69.7077 106.936 69.7811C106.789 69.8545 106.62 69.8776 106.462 69.8459C106.304 69.8142 106.168 69.73 106.079 69.6093C105.991 69.4886 105.957 69.3399 105.984 69.1915C105.999 69.1065 106.034 69.0243 106.086 68.9503C106.137 68.8763 106.205 68.8121 106.285 68.7619C106.364 68.7118 106.453 68.6768 106.546 68.6593C106.639 68.6417 106.734 68.6421 106.825 68.6602C106.915 68.6784 106.999 68.714 107.072 68.7646C107.144 68.8153 107.202 68.8799 107.244 68.9543C107.285 69.0286 107.308 69.111 107.311 69.1961C107.314 69.2811 107.297 69.3669 107.262 69.4478Z" fill="#455A64"/>
<path d="M112.058 61.3253C112.035 61.4031 111.996 61.4769 111.943 61.5425C111.889 61.6082 111.822 61.6643 111.746 61.7076C111.67 61.751 111.586 61.7807 111.5 61.795C111.413 61.8094 111.325 61.8081 111.241 61.7912C111.148 61.7825 111.059 61.756 110.98 61.7133C110.902 61.6706 110.835 61.6128 110.784 61.5436C110.734 61.4744 110.701 61.3953 110.687 61.3117C110.673 61.228 110.679 61.1416 110.705 61.058C110.731 60.9745 110.775 60.8957 110.835 60.8269C110.896 60.758 110.971 60.7007 111.055 60.6586C111.14 60.6165 111.233 60.5906 111.327 60.5825C111.421 60.5745 111.515 60.5845 111.602 60.612C111.77 60.6458 111.913 60.7399 111.999 60.8737C112.084 61.0075 112.106 61.1699 112.058 61.3253Z" fill="#455A64"/>
<path d="M92.5949 72.3408C92.9456 72.4111 93.3101 72.2061 93.4091 71.8828C93.508 71.5595 93.304 71.2404 92.9533 71.1701C92.6026 71.0998 92.2381 71.3049 92.1392 71.6281C92.0402 71.9514 92.2442 72.2705 92.5949 72.3408Z" fill="#455A64"/>
<path d="M86.1284 65.3009C86.0939 65.4191 86.022 65.5274 85.9217 65.612C85.8215 65.6966 85.6975 65.7536 85.5657 65.7758C85.4338 65.7979 85.3 65.7842 85.1815 65.7364C85.0629 65.6886 84.9649 65.6089 84.9 65.5074C84.8351 65.4059 84.8062 65.2873 84.8171 65.1667C84.828 65.046 84.8781 64.9289 84.961 64.8302C85.0439 64.7316 85.156 64.6559 85.2827 64.6127C85.4095 64.5696 85.5452 64.5611 85.6727 64.5882C85.8411 64.622 85.9837 64.716 86.0692 64.8497C86.1546 64.9833 86.1759 65.1456 86.1284 65.3009Z" fill="#455A64"/>
<path d="M85.6066 69.7209C85.9573 69.7912 86.3218 69.5861 86.4208 69.2628C86.5198 68.9396 86.3157 68.6205 85.965 68.5502C85.6144 68.4799 85.2498 68.6849 85.1509 69.0082C85.0519 69.3315 85.2559 69.6505 85.6066 69.7209Z" fill="#455A64"/>
<path d="M97.5502 68.9838C97.5275 69.0616 97.4883 69.1354 97.4348 69.201C97.3813 69.2667 97.3146 69.3228 97.2385 69.3662C97.1625 69.4095 97.0786 69.4392 96.9918 69.4535C96.905 69.4679 96.8169 69.4666 96.7328 69.4497C96.6398 69.441 96.5511 69.4145 96.4725 69.3718C96.3939 69.3291 96.3271 69.2713 96.2766 69.2021C96.226 69.1329 96.1928 69.0539 96.1791 68.9702C96.1654 68.8865 96.1716 68.8001 96.1972 68.7165C96.2228 68.633 96.2672 68.5542 96.3276 68.4854C96.388 68.4165 96.463 68.3592 96.5476 68.3171C96.6323 68.275 96.7247 68.2491 96.8188 68.241C96.913 68.233 97.0067 68.2431 97.0939 68.2705C97.2625 68.3043 97.4053 68.3984 97.4909 68.5322C97.5764 68.666 97.5978 68.8284 97.5502 68.9838Z" fill="#455A64"/>
<path d="M111.154 71.4988C111.118 71.616 111.045 71.7231 110.944 71.8064C110.844 71.8897 110.72 71.9456 110.589 71.9669C110.458 71.9882 110.325 71.974 110.207 71.9261C110.089 71.8782 109.992 71.7988 109.927 71.6978C109.863 71.5969 109.834 71.479 109.844 71.359C109.855 71.239 109.904 71.1224 109.986 71.0238C110.068 70.9252 110.178 70.8492 110.304 70.8052C110.43 70.7613 110.565 70.7515 110.692 70.777C110.862 70.8112 111.007 70.9064 111.094 71.0418C111.18 71.1772 111.202 71.3416 111.154 71.4988Z" fill="#455A64"/>
<path d="M80.0159 81.2641C79.9032 81.2418 79.8063 81.1812 79.7444 81.094C79.6826 81.0069 79.6602 80.8997 79.6818 80.7937C81.268 72.7668 87.0633 69.3902 91.9866 68.9124C92.1084 68.9063 92.2252 68.943 92.313 69.015C92.4009 69.087 92.453 69.1888 92.4587 69.2994C92.4645 69.41 92.4233 69.521 92.3438 69.6095C92.2643 69.698 92.1524 69.7572 92.0313 69.775C87.4767 70.2165 82.0826 73.3658 80.6091 80.9094C80.5864 81.0232 80.5159 81.1269 80.413 81.1979C80.31 81.269 80.183 81.3016 80.0595 81.2887L80.0159 81.2641Z" fill="#455A64"/>
<path d="M74.6997 75.8815L74.6426 75.8701C74.5845 75.8515 74.5317 75.8225 74.4874 75.7845C74.443 75.7465 74.408 75.7005 74.3843 75.649C74.3606 75.5975 74.3488 75.5416 74.3494 75.4846C74.3501 75.4276 74.3633 75.3706 74.3882 75.3169C78.8085 65.5443 87.8968 65.6683 91.0285 66.5432C91.088 66.5592 91.1428 66.586 91.1894 66.6221C91.2361 66.6582 91.2737 66.7029 91.3001 66.7535C91.3266 66.8041 91.3412 66.8597 91.3432 66.9168C91.3453 66.974 91.3346 67.0316 91.3119 67.0864C91.2907 67.1415 91.2578 67.1929 91.2151 67.2376C91.1724 67.2822 91.1208 67.3191 91.0633 67.3462C91.0058 67.3734 90.9436 67.3901 90.8804 67.3954C90.8172 67.4007 90.7542 67.3945 90.6952 67.3773C87.8093 66.5755 79.4052 66.4771 75.277 75.6066C75.2296 75.7063 75.145 75.7891 75.0388 75.8397C74.9326 75.8903 74.8121 75.9051 74.6997 75.8815Z" fill="#455A64"/>
<path d="M71.9389 68.8779C71.8958 68.8771 71.8538 68.8686 71.8153 68.8531C71.706 68.7972 71.6274 68.7036 71.5963 68.5919C71.5651 68.4802 71.5837 68.3592 71.6482 68.2545C72.6339 66.8174 73.9527 65.5829 75.5053 64.644C77.0579 63.7052 78.8037 63.0864 80.6111 62.8345C84.624 62.1295 88.9105 62.8196 91.0248 64.5191C91.0801 64.5535 91.126 64.5987 91.1595 64.6517C91.193 64.7046 91.2132 64.7641 91.219 64.8262C91.2247 64.8883 91.2158 64.9516 91.1928 65.012C91.1698 65.0723 91.1333 65.1283 91.0856 65.1763C91.0379 65.2242 90.9801 65.263 90.9161 65.2901C90.8521 65.3172 90.7834 65.332 90.7144 65.3335C90.6453 65.335 90.5776 65.3232 90.5158 65.2988C90.4539 65.2745 90.3992 65.2381 90.3553 65.1921C88.4736 63.6765 84.4298 63.0513 80.7403 63.7C79.0778 63.9275 77.471 64.4925 76.0411 65.3525C74.6111 66.2125 73.3953 67.345 72.4854 68.6645C72.4281 68.7474 72.344 68.813 72.2456 68.8514C72.1471 68.8898 72.0396 68.8991 71.9389 68.8779Z" fill="#455A64"/>
<path d="M109.924 64.786C109.833 64.7672 109.751 64.7251 109.687 64.6644C109.603 64.5786 109.56 64.4637 109.568 64.3443C109.576 64.2248 109.634 64.11 109.731 64.0244C111.507 62.4615 115.1 61.7416 118.27 62.3075C119.614 62.4801 120.867 62.9662 121.913 63.7201C122.959 64.474 123.762 65.4712 124.249 66.6183C124.278 66.6737 124.293 66.7348 124.294 66.7976C124.295 66.8604 124.282 66.9235 124.255 66.9828C124.228 67.0422 124.189 67.0965 124.139 67.1422C124.088 67.188 124.029 67.2242 123.964 67.2485C123.9 67.2729 123.831 67.2848 123.762 67.2835C123.694 67.2822 123.628 67.2678 123.567 67.2411C123.507 67.2144 123.454 67.1761 123.412 67.1286C123.371 67.0812 123.341 67.0256 123.324 66.9654C122.879 65.9635 122.161 65.0943 121.237 64.4362C120.312 63.778 119.21 63.3514 118.028 63.1948C115.193 62.6883 111.91 63.3148 110.386 64.6576C110.325 64.7125 110.25 64.753 110.169 64.7755C110.089 64.798 110.004 64.8016 109.924 64.786Z" fill="#455A64"/>
<path d="M122.096 71.0114C122.013 70.9963 121.938 70.9606 121.878 70.9081C121.818 70.8556 121.775 70.7882 121.755 70.7132C121.382 69.6246 120.714 68.6539 119.812 67.8875C118.91 67.1211 117.801 66.5829 116.584 66.3206C113.879 65.6277 110.714 65.9563 109.207 67.0941C109.156 67.1328 109.097 67.1622 109.035 67.1806C108.972 67.1991 108.907 67.2063 108.843 67.2017C108.779 67.1972 108.717 67.181 108.661 67.1541C108.605 67.1273 108.557 67.0902 108.518 67.0452C108.479 67.001 108.45 66.9496 108.434 66.894C108.417 66.8384 108.413 66.7796 108.422 66.7211C108.43 66.6627 108.452 66.6057 108.484 66.5534C108.517 66.5012 108.56 66.4548 108.611 66.4169C110.381 65.0782 113.859 64.6736 116.9 65.4505C118.285 65.7372 119.546 66.3454 120.566 67.2186C121.587 68.0918 122.333 69.2014 122.735 70.4439C122.751 70.4993 122.755 70.5578 122.747 70.6161C122.739 70.6744 122.718 70.7313 122.685 70.7834C122.653 70.8356 122.611 70.882 122.56 70.92C122.509 70.958 122.451 70.9869 122.389 71.0049C122.293 71.0376 122.19 71.0399 122.096 71.0114Z" fill="#455A64"/>
<path d="M119.21 76.7739C119.105 76.7529 119.013 76.7006 118.948 76.6253C118.883 76.5499 118.848 76.4555 118.85 76.3569C118.947 73.7374 118.191 71.7411 116.627 70.4249C115.877 69.8279 114.992 69.3831 114.026 69.1177C113.059 68.8523 112.031 68.7719 111.004 68.8813C110.94 68.8872 110.876 68.8815 110.816 68.8646C110.755 68.8478 110.7 68.82 110.653 68.783C110.606 68.746 110.569 68.7005 110.542 68.6491C110.515 68.5976 110.501 68.5413 110.499 68.4833C110.496 68.3679 110.543 68.2532 110.631 68.1642C110.718 68.0751 110.839 68.0189 110.967 68.0076C112.129 67.8826 113.293 67.9738 114.387 68.2757C115.481 68.5776 116.481 69.0837 117.326 69.7629C119.069 71.2352 119.936 73.4943 119.842 76.3311C119.839 76.3891 119.825 76.4468 119.798 76.501C119.772 76.5552 119.734 76.6047 119.687 76.6468C119.64 76.6888 119.585 76.7225 119.525 76.746C119.465 76.7694 119.401 76.7822 119.337 76.7835L119.21 76.7739Z" fill="#455A64"/>
<path opacity="0.07" d="M105.148 75.7896C104.849 76.9956 102.856 80.1681 93.7825 79.9617C86.8412 79.7877 79.7964 76.7789 78.4116 74.7031C80.2686 75.8146 82.3864 76.5444 84.6275 76.8451C86.8686 77.1457 89.1831 77.0106 91.421 76.4484C100.886 74.0884 102.095 68.2188 102.095 68.2188C102.288 71.2489 104.778 72.7964 105.148 75.7896Z" fill="black"/>
<path opacity="0.15" d="M108.774 75.1949C107.71 75.6537 106.537 75.8069 105.416 75.6335C105.116 76.8615 103.109 80.0924 93.9614 79.8879C86.9635 79.715 79.8588 76.6562 78.461 74.5439C76.1554 73.0445 74.8061 70.9173 75.1567 68.5012C73.3057 72.0919 76.7026 75.2888 77.6223 75.4826C79.1235 77.6322 84.1043 81.6249 93.2001 82.7299C102.296 83.835 106.644 79.0659 106.644 79.0659C108.373 79.2162 110.141 78.7688 111.606 77.8101C110.715 77.2617 109.919 76.5984 109.24 75.8389C109.071 75.6332 108.915 75.4182 108.774 75.1949Z" fill="black"/>
</svg>
