<svg width="23" height="22" viewBox="0 0 23 22" fill="none" xmlns="http://www.w3.org/2000/svg">
<path d="M15.7551 13.6252C15.364 13.2352 14.7308 13.2362 14.3409 13.6273C13.9509 14.0184 13.9519 14.6516 14.343 15.0415L15.7551 13.6252ZM21.0296 21.7082C21.4207 22.0981 22.0539 22.0972 22.4438 21.706C22.8338 21.3149 22.8328 20.6818 22.4417 20.2918L21.0296 21.7082ZM9.47685 15.5556C5.7179 15.5556 2.67578 12.5182 2.67578 8.77778H0.675781C0.675781 13.6284 4.61897 17.5556 9.47685 17.5556V15.5556ZM2.67578 8.77778C2.67578 5.03733 5.7179 2 9.47685 2V0C4.61897 0 0.675781 3.92713 0.675781 8.77778H2.67578ZM9.47685 2C13.2358 2 16.2779 5.03733 16.2779 8.77778H18.2779C18.2779 3.92713 14.3347 0 9.47685 0V2ZM16.2779 8.77778C16.2779 12.5182 13.2358 15.5556 9.47685 15.5556V17.5556C14.3347 17.5556 18.2779 13.6284 18.2779 8.77778H16.2779ZM14.343 15.0415L21.0296 21.7082L22.4417 20.2918L15.7551 13.6252L14.343 15.0415Z" fill="#3837A1"/>
</svg>
