<svg width="29" height="31" viewBox="0 0 29 31" fill="none" xmlns="http://www.w3.org/2000/svg">
<path d="M1.67486 19.666L2.30969 19.0385C2.51452 18.836 2.62984 18.5614 2.62984 18.275V12.2778C2.62984 6.04924 7.7378 1.00002 14.0388 1C20.3397 0.999985 25.4477 6.04922 25.4477 12.2778V18.275C25.4477 18.5613 25.5628 18.836 25.7676 19.0385L26.4024 19.6661C26.5969 19.8583 26.6943 19.9544 26.7718 20.061C26.9182 20.2626 27.0154 20.495 27.056 20.7398C27.0775 20.8694 27.0778 21.0053 27.0778 21.2771C27.0778 21.8983 27.0778 22.2089 26.9924 22.4595C26.8297 22.9361 26.4511 23.3102 25.9689 23.471C25.7154 23.5555 25.4007 23.5556 24.7723 23.5556H3.3047C2.67632 23.5556 2.36203 23.5555 2.10858 23.471C1.62636 23.3102 1.24814 22.9361 1.08549 22.4594C1 22.2089 1 21.8983 1 21.2772C1 21.0054 1 20.8694 1.02151 20.7398C1.06217 20.495 1.15916 20.2626 1.3056 20.061C1.38308 19.9544 1.48041 19.8582 1.67486 19.666ZM18.9283 23.5556V25.1667C18.9283 27.836 16.7392 30 14.0388 30C11.3383 30 9.14922 27.836 9.14922 25.1667V23.5556H18.9283Z" stroke="black" stroke-width="2" stroke-linecap="round" stroke-linejoin="round"/>
</svg>
