<svg width="31" height="30" viewBox="0 0 31 30" fill="none" xmlns="http://www.w3.org/2000/svg">
<path fill-rule="evenodd" clip-rule="evenodd" d="M10.9778 8.23805C12.5904 8.26659 13.9296 6.4876 13.969 4.26457C14.0083 2.04153 12.7329 0.216272 11.1203 0.18773C9.50767 0.159188 8.16849 1.93817 8.12914 4.16121C8.08979 6.38424 9.36518 8.2095 10.9778 8.23805ZM2.86075 15.9139C4.31211 15.9395 5.51828 14.287 5.55482 12.2227C5.59136 10.1585 4.44442 8.46425 2.99306 8.43857C1.5417 8.41288 0.33552 10.0655 0.298984 12.1297C0.262449 14.1939 1.40939 15.8882 2.86075 15.9139ZM23.3127 4.42995C23.2733 6.65298 21.9341 8.43197 20.3215 8.40342C18.7089 8.37488 17.4335 6.54962 17.4728 4.32658C17.5122 2.10355 18.8514 0.324565 20.464 0.353107C22.0766 0.38165 23.352 2.20691 23.3127 4.42995ZM27.607 15.9675C29.0584 15.9932 30.2646 14.3406 30.3011 12.2763C30.3376 10.2121 29.1907 8.51787 27.7393 8.49218C26.288 8.4665 25.0818 10.1191 25.0453 12.1833C25.0087 14.2476 26.1557 15.9418 27.607 15.9675ZM24.6682 23.0914C24.6549 30.4098 17.1045 31.0349 14.958 25.3134C12.7906 31.0436 5.24241 30.449 5.25569 23.1307C5.26897 15.8124 14.9863 9.6942 14.9863 9.6942C14.9863 9.6942 24.6815 15.7731 24.6682 23.0914Z" fill="black"/>
<path fill-rule="evenodd" clip-rule="evenodd" d="M10.9778 8.23805C12.5904 8.26659 13.9296 6.4876 13.969 4.26457C14.0083 2.04153 12.7329 0.216272 11.1203 0.18773C9.50767 0.159188 8.16849 1.93817 8.12914 4.16121C8.08979 6.38424 9.36518 8.2095 10.9778 8.23805ZM2.86075 15.9139C4.31211 15.9395 5.51828 14.287 5.55482 12.2227C5.59136 10.1585 4.44442 8.46425 2.99306 8.43857C1.5417 8.41288 0.33552 10.0655 0.298984 12.1297C0.262449 14.1939 1.40939 15.8882 2.86075 15.9139ZM23.3127 4.42995C23.2733 6.65298 21.9341 8.43197 20.3215 8.40342C18.7089 8.37488 17.4335 6.54962 17.4728 4.32658C17.5122 2.10355 18.8514 0.324565 20.464 0.353107C22.0766 0.38165 23.352 2.20691 23.3127 4.42995ZM27.607 15.9675C29.0584 15.9932 30.2646 14.3406 30.3011 12.2763C30.3376 10.2121 29.1907 8.51787 27.7393 8.49218C26.288 8.4665 25.0818 10.1191 25.0453 12.1833C25.0087 14.2476 26.1557 15.9418 27.607 15.9675ZM24.6682 23.0914C24.6549 30.4098 17.1045 31.0349 14.958 25.3134C12.7906 31.0436 5.24241 30.449 5.25569 23.1307C5.26897 15.8124 14.9863 9.6942 14.9863 9.6942C14.9863 9.6942 24.6815 15.7731 24.6682 23.0914Z" fill="#EE6069"/>
</svg>
