<svg width="31" height="30" viewBox="0 0 31 30" fill="none" xmlns="http://www.w3.org/2000/svg">
<path fill-rule="evenodd" clip-rule="evenodd" d="M10.9954 8.23805C12.608 8.26659 13.9472 6.4876 13.9865 4.26457C14.0259 2.04153 12.7505 0.216272 11.1379 0.18773C9.52525 0.159188 8.18606 1.93817 8.14672 4.16121C8.10737 6.38424 9.38276 8.2095 10.9954 8.23805ZM2.87833 15.9139C4.32969 15.9395 5.53586 14.287 5.5724 12.2227C5.60893 10.1585 4.46199 8.46425 3.01063 8.43857C1.55928 8.41288 0.353098 10.0655 0.316562 12.1297C0.280027 14.1939 1.42697 15.8882 2.87833 15.9139ZM23.3302 4.42995C23.2909 6.65298 21.9517 8.43197 20.3391 8.40342C18.7265 8.37488 17.4511 6.54962 17.4904 4.32658C17.5298 2.10355 18.869 0.324565 20.4816 0.353107C22.0942 0.38165 23.3696 2.20691 23.3302 4.42995ZM27.6246 15.9675C29.076 15.9932 30.2821 14.3406 30.3187 12.2763C30.3552 10.2121 29.2083 8.51787 27.7569 8.49218C26.3055 8.4665 25.0994 10.1191 25.0628 12.1833C25.0263 14.2476 26.1732 15.9418 27.6246 15.9675ZM24.6858 23.0914C24.6725 30.4098 17.1221 31.0349 14.9755 25.3134C12.8082 31.0436 5.25998 30.449 5.27326 23.1307C5.28654 15.8124 15.0039 9.6942 15.0039 9.6942C15.0039 9.6942 24.6991 15.7731 24.6858 23.0914Z" fill="black"/>
<path fill-rule="evenodd" clip-rule="evenodd" d="M10.9954 8.23805C12.608 8.26659 13.9472 6.4876 13.9865 4.26457C14.0259 2.04153 12.7505 0.216272 11.1379 0.18773C9.52525 0.159188 8.18606 1.93817 8.14672 4.16121C8.10737 6.38424 9.38276 8.2095 10.9954 8.23805ZM2.87833 15.9139C4.32969 15.9395 5.53586 14.287 5.5724 12.2227C5.60893 10.1585 4.46199 8.46425 3.01063 8.43857C1.55928 8.41288 0.353098 10.0655 0.316562 12.1297C0.280027 14.1939 1.42697 15.8882 2.87833 15.9139ZM23.3302 4.42995C23.2909 6.65298 21.9517 8.43197 20.3391 8.40342C18.7265 8.37488 17.4511 6.54962 17.4904 4.32658C17.5298 2.10355 18.869 0.324565 20.4816 0.353107C22.0942 0.38165 23.3696 2.20691 23.3302 4.42995ZM27.6246 15.9675C29.076 15.9932 30.2821 14.3406 30.3187 12.2763C30.3552 10.2121 29.2083 8.51787 27.7569 8.49218C26.3055 8.4665 25.0994 10.1191 25.0628 12.1833C25.0263 14.2476 26.1732 15.9418 27.6246 15.9675ZM24.6858 23.0914C24.6725 30.4098 17.1221 31.0349 14.9755 25.3134C12.8082 31.0436 5.25998 30.449 5.27326 23.1307C5.28654 15.8124 15.0039 9.6942 15.0039 9.6942C15.0039 9.6942 24.6991 15.7731 24.6858 23.0914Z" fill="black"/>
</svg>
