<svg width="31" height="31" viewBox="0 0 31 31" fill="none" xmlns="http://www.w3.org/2000/svg">
<path fill-rule="evenodd" clip-rule="evenodd" d="M3.57271 12.1873C3.56085 12.8576 3.35742 13.3757 3.14045 13.6729C3.03656 13.8153 2.95774 13.8767 2.91393 13.902C2.87106 13.8752 2.79445 13.811 2.69567 13.6651C2.48936 13.3603 2.30439 12.8354 2.31625 12.1651C2.32811 11.4948 2.53154 10.9768 2.74851 10.6795C2.8524 10.5372 2.93122 10.4757 2.97503 10.4504C3.01791 10.4773 3.09451 10.5414 3.19329 10.6874C3.3996 10.9921 3.58457 11.5171 3.57271 12.1873ZM2.87501 13.9184C2.87491 13.918 2.87858 13.9166 2.88628 13.9155C2.87895 13.9183 2.8751 13.9188 2.87501 13.9184ZM2.9411 13.9165C2.94875 13.9179 2.95237 13.9194 2.95226 13.9198C2.95215 13.9202 2.94832 13.9195 2.9411 13.9165ZM3.01395 10.434C3.01405 10.4344 3.01038 10.4358 3.00268 10.4369C3.01001 10.4341 3.01386 10.4336 3.01395 10.434ZM2.94786 10.4359C2.94021 10.4346 2.9366 10.4331 2.9367 10.4326C2.93681 10.4322 2.94064 10.4329 2.94786 10.4359ZM11.9868 4.22917C11.9738 4.9651 11.7442 5.54591 11.4831 5.89281C11.2204 6.24172 11.0376 6.23848 11.0308 6.23836L11.0308 6.23836L11.0308 6.23836C11.024 6.23824 10.8411 6.235 10.591 5.87702C10.3423 5.5211 10.1334 4.93253 10.1464 4.1966C10.1594 3.46067 10.389 2.87986 10.6502 2.53297C10.9128 2.18406 11.0957 2.1873 11.1025 2.18742L11.1025 2.18742L11.1025 2.18742C11.1093 2.18754 11.2921 2.19077 11.5423 2.54876C11.791 2.90467 11.9999 3.49325 11.9868 4.22917ZM21.3306 4.39455C21.3175 5.13048 21.0879 5.71129 20.8268 6.05818C20.564 6.40726 20.3811 6.40385 20.3745 6.40374C20.3678 6.40362 20.185 6.40055 19.9347 6.0424C19.686 5.68648 19.4771 5.09791 19.4901 4.36198C19.5031 3.62605 19.7328 3.04524 19.9939 2.69834C20.2567 2.34927 20.4395 2.35268 20.4462 2.35279C20.4528 2.35291 20.6357 2.35598 20.886 2.71413C21.1347 3.07005 21.3436 3.65862 21.3306 4.39455ZM28.319 12.2409C28.3071 12.9112 28.1037 13.4293 27.8867 13.7265C27.7828 13.8689 27.704 13.9303 27.6602 13.9556C27.6173 13.9288 27.5407 13.8646 27.4419 13.7187C27.2356 13.4139 27.0507 12.889 27.0625 12.2187C27.0744 11.5485 27.2778 11.0304 27.4948 10.7331C27.5987 10.5908 27.6775 10.5293 27.7213 10.504C27.7642 10.5309 27.8408 10.5951 27.9396 10.741C28.1459 11.0457 28.3308 11.5707 28.319 12.2409ZM27.6213 13.972C27.6212 13.9716 27.6248 13.9702 27.6325 13.9692C27.6252 13.9719 27.6214 13.9725 27.6213 13.972ZM27.6874 13.9701C27.695 13.9715 27.6986 13.973 27.6985 13.9734C27.6984 13.9738 27.6946 13.9731 27.6874 13.9701ZM27.7602 10.4876C27.7603 10.488 27.7566 10.4894 27.749 10.4905C27.7563 10.4877 27.7601 10.4872 27.7602 10.4876ZM27.6941 10.4895C27.6865 10.4882 27.6829 10.4867 27.683 10.4863C27.6831 10.4858 27.6869 10.4865 27.6941 10.4895ZM13.9865 4.26457C13.9472 6.4876 12.608 8.26659 10.9954 8.23805C9.38276 8.2095 8.10737 6.38424 8.14672 4.16121C8.18606 1.93817 9.52525 0.159188 11.1379 0.18773C12.7505 0.216272 14.0259 2.04153 13.9865 4.26457ZM5.5724 12.2227C5.53586 14.287 4.32969 15.9395 2.87833 15.9139C1.42697 15.8882 0.280027 14.1939 0.316562 12.1297C0.353098 10.0655 1.55928 8.41288 3.01063 8.43857C4.46199 8.46425 5.60893 10.1585 5.5724 12.2227ZM20.3391 8.40342C21.9517 8.43197 23.2909 6.65298 23.3302 4.42995C23.3696 2.20691 22.0942 0.38165 20.4816 0.353107C18.869 0.324565 17.5298 2.10355 17.4904 4.32658C17.4511 6.54962 18.7265 8.37488 20.3391 8.40342ZM30.3187 12.2763C30.2821 14.3406 29.076 15.9932 27.6246 15.9675C26.1732 15.9418 25.0263 14.2476 25.0628 12.1833C25.0994 10.1191 26.3055 8.4665 27.7569 8.49218C29.2083 8.51787 30.3552 10.2121 30.3187 12.2763ZM23.6858 23.0935C23.6798 26.3807 22.0371 27.8475 20.4716 28.1057C18.843 28.3743 16.84 27.4327 15.912 24.959C15.7659 24.5697 15.3937 24.3125 14.9774 24.3134C14.5611 24.3142 14.1878 24.5729 14.0404 24.9628C13.1033 27.4402 11.097 28.39 9.46931 28.128C7.90471 27.8761 6.2673 26.4159 6.27326 23.1287C6.27914 19.8869 8.46001 16.7762 10.8512 14.3719C12.0246 13.1921 13.2012 12.2297 14.0859 11.5618C14.4486 11.2879 14.7608 11.0647 15.0017 10.8974C15.242 11.0637 15.5533 11.2857 15.9151 11.5581C16.7974 12.2224 17.9705 13.1801 19.1396 14.3551C21.5221 16.7498 23.6917 19.8516 23.6858 23.0935ZM15.538 8.84674C15.5377 8.84655 15.5374 8.84639 15.0039 9.6942L15.5374 8.84639C15.2126 8.6427 14.799 8.64354 14.4734 8.84854L15.0039 9.6942C14.4734 8.84854 14.4731 8.84871 14.4728 8.84889L14.4721 8.84939L14.4698 8.8508L14.4627 8.8553L14.4382 8.87098C14.4173 8.88438 14.3875 8.90366 14.3493 8.92868C14.2728 8.97871 14.1629 9.05169 14.0243 9.14643C13.7471 9.33584 13.3545 9.61265 12.8848 9.96726C11.9471 10.6752 10.6935 11.6997 9.43586 12.9643C6.96511 15.4486 4.28066 19.0562 4.27327 23.1327C4.26595 27.1639 6.396 29.6601 9.14403 30.1026C11.2818 30.4467 13.5251 29.4911 14.9717 27.4455C16.4108 29.4853 18.6507 30.4318 20.7897 30.079C23.5394 29.6255 25.6785 27.1206 25.6858 23.0894C25.6932 19.0129 23.0218 15.4161 20.5601 12.9418C19.307 11.6823 18.0572 10.6628 17.122 9.95869C16.6536 9.60598 16.262 9.33076 15.9855 9.14247C15.8472 9.04828 15.7375 8.97574 15.6613 8.92603C15.6232 8.90117 15.5934 8.882 15.5726 8.86868L15.5481 8.8531L15.541 8.84863L15.5388 8.84723L15.538 8.84674Z" fill="black"/>
</svg>
