<svg width="202" height="35" viewBox="0 0 202 35" fill="none" xmlns="http://www.w3.org/2000/svg">
<rect x="0.5" y="0.5" width="89" height="29" rx="14.5" fill="white" stroke="#3837A1"/>
<path d="M23.11 20V9.35H25.18V18.185H30.61V20H23.11ZM35.2462 20.15C34.6062 20.15 34.0312 20.045 33.5212 19.835C33.0112 19.615 32.5762 19.315 32.2162 18.935C31.8662 18.555 31.5962 18.12 31.4062 17.63C31.2162 17.14 31.1212 16.625 31.1212 16.085C31.1212 15.535 31.2162 15.015 31.4062 14.525C31.5962 14.035 31.8662 13.6 32.2162 13.22C32.5762 12.84 33.0112 12.545 33.5212 12.335C34.0312 12.115 34.6062 12.005 35.2462 12.005C35.8862 12.005 36.4562 12.115 36.9562 12.335C37.4662 12.545 37.9012 12.84 38.2612 13.22C38.6212 13.6 38.8912 14.035 39.0712 14.525C39.2612 15.015 39.3562 15.535 39.3562 16.085C39.3562 16.625 39.2612 17.14 39.0712 17.63C38.8912 18.12 38.6212 18.555 38.2612 18.935C37.9112 19.315 37.4812 19.615 36.9712 19.835C36.4612 20.045 35.8862 20.15 35.2462 20.15ZM33.1912 16.085C33.1912 16.545 33.2812 16.955 33.4612 17.315C33.6412 17.665 33.8862 17.94 34.1962 18.14C34.5062 18.34 34.8562 18.44 35.2462 18.44C35.6262 18.44 35.9712 18.34 36.2812 18.14C36.5912 17.93 36.8362 17.65 37.0162 17.3C37.2062 16.94 37.3012 16.53 37.3012 16.07C37.3012 15.62 37.2062 15.215 37.0162 14.855C36.8362 14.495 36.5912 14.215 36.2812 14.015C35.9712 13.815 35.6262 13.715 35.2462 13.715C34.8562 13.715 34.5062 13.82 34.1962 14.03C33.8862 14.23 33.6412 14.51 33.4612 14.87C33.2812 15.22 33.1912 15.625 33.1912 16.085ZM48.0179 20H46.0079V15.59C46.0079 14.96 45.8979 14.5 45.6779 14.21C45.4579 13.92 45.1529 13.775 44.7629 13.775C44.4929 13.775 44.2179 13.845 43.9379 13.985C43.6679 14.125 43.4229 14.32 43.2029 14.57C42.9829 14.81 42.8229 15.09 42.7229 15.41V20H40.7129V12.14H42.5279V13.595C42.7279 13.255 42.9829 12.97 43.2929 12.74C43.6029 12.5 43.9579 12.32 44.3579 12.2C44.7679 12.07 45.1979 12.005 45.6479 12.005C46.1379 12.005 46.5379 12.095 46.8479 12.275C47.1679 12.445 47.4079 12.68 47.5679 12.98C47.7379 13.27 47.8529 13.6 47.9129 13.97C47.9829 14.34 48.0179 14.715 48.0179 15.095V20ZM54.4316 19.595C54.2616 19.665 54.0566 19.745 53.8166 19.835C53.5766 19.925 53.3166 19.995 53.0366 20.045C52.7666 20.105 52.4916 20.135 52.2116 20.135C51.8416 20.135 51.5016 20.07 51.1916 19.94C50.8816 19.81 50.6316 19.605 50.4416 19.325C50.2616 19.035 50.1716 18.66 50.1716 18.2V13.685H49.1366V12.14H50.1716V9.59H52.1816V12.14H53.8316V13.685H52.1816V17.525C52.1916 17.795 52.2666 17.99 52.4066 18.11C52.5466 18.23 52.7216 18.29 52.9316 18.29C53.1416 18.29 53.3466 18.255 53.5466 18.185C53.7466 18.115 53.9066 18.055 54.0266 18.005L54.4316 19.595ZM60.1585 13.88C59.5485 13.88 59.0035 14 58.5235 14.24C58.0435 14.47 57.6985 14.805 57.4885 15.245V20H55.4785V12.14H57.3235V13.82C57.6035 13.28 57.9585 12.855 58.3885 12.545C58.8185 12.235 59.2735 12.065 59.7535 12.035C59.8635 12.035 59.9485 12.035 60.0085 12.035C60.0685 12.035 60.1185 12.04 60.1585 12.05V13.88ZM60.6953 17.675C60.6953 17.165 60.8353 16.72 61.1153 16.34C61.4053 15.95 61.8053 15.65 62.3153 15.44C62.8253 15.23 63.4103 15.125 64.0703 15.125C64.4003 15.125 64.7353 15.15 65.0753 15.2C65.4153 15.25 65.7103 15.33 65.9603 15.44V15.02C65.9603 14.52 65.8103 14.135 65.5103 13.865C65.2203 13.595 64.7853 13.46 64.2053 13.46C63.7753 13.46 63.3653 13.535 62.9753 13.685C62.5853 13.835 62.1753 14.055 61.7453 14.345L61.1003 13.025C61.6203 12.685 62.1503 12.43 62.6903 12.26C63.2403 12.09 63.8153 12.005 64.4153 12.005C65.5353 12.005 66.4053 12.285 67.0253 12.845C67.6553 13.405 67.9703 14.205 67.9703 15.245V17.75C67.9703 17.96 68.0053 18.11 68.0753 18.2C68.1553 18.29 68.2803 18.345 68.4503 18.365V20C68.2703 20.03 68.1053 20.055 67.9553 20.075C67.8153 20.095 67.6953 20.105 67.5953 20.105C67.1953 20.105 66.8903 20.015 66.6803 19.835C66.4803 19.655 66.3553 19.435 66.3053 19.175L66.2603 18.77C65.9203 19.21 65.4953 19.55 64.9853 19.79C64.4753 20.03 63.9553 20.15 63.4253 20.15C62.9053 20.15 62.4353 20.045 62.0153 19.835C61.6053 19.615 61.2803 19.32 61.0403 18.95C60.8103 18.57 60.6953 18.145 60.6953 17.675ZM65.5853 18.08C65.6953 17.96 65.7853 17.84 65.8553 17.72C65.9253 17.6 65.9603 17.49 65.9603 17.39V16.595C65.7203 16.495 65.4603 16.42 65.1803 16.37C64.9003 16.31 64.6353 16.28 64.3853 16.28C63.8653 16.28 63.4353 16.395 63.0953 16.625C62.7653 16.845 62.6003 17.14 62.6003 17.51C62.6003 17.71 62.6553 17.9 62.7653 18.08C62.8753 18.26 63.0353 18.405 63.2453 18.515C63.4553 18.625 63.7053 18.68 63.9953 18.68C64.2953 18.68 64.5903 18.625 64.8803 18.515C65.1703 18.395 65.4053 18.25 65.5853 18.08Z" fill="black"/>
<g filter="url(#filter0_d_1360_404)">
<path fill-rule="evenodd" clip-rule="evenodd" d="M85.1406 22.9986C85.1399 22.447 84.6924 22 84.1406 22C83.5883 22 83.1406 22.4477 83.1406 23V24L83.1406 24.75C83.1406 24.8881 83.0287 25 82.8906 25C82.7526 25 82.6406 24.8881 82.6406 24.75V24H82.6406V19C82.6406 18.4477 82.1928 18 81.6406 18C81.0883 18 80.6406 18.4477 80.6406 19V24V26V27.2547L79.8746 25.8744C79.6066 25.3915 78.9979 25.2172 78.5149 25.4852C78.032 25.7532 77.8578 26.3619 78.1258 26.8449L80.8897 31.8254C81.1828 32.3534 81.722 32.6585 82.2847 32.6768C82.6919 32.8835 83.1526 33 83.6406 33H87.1406C88.7974 33 90.1406 31.6569 90.1406 30V26.0113L90.1406 26V24C90.1406 23.4477 89.6929 23 89.1406 23C88.5883 23 88.1406 23.4477 88.1406 24L88.1406 24.75C88.1406 24.8881 88.0287 25 87.8906 25C87.7526 25 87.6406 24.8881 87.6406 24.75L87.6406 24V23L87.6406 22.9986C87.6399 22.447 87.1924 22 86.6406 22C86.0883 22 85.6406 22.4477 85.6406 23V24L85.6406 24.75C85.6406 24.8881 85.5287 25 85.3906 25C85.2526 25 85.1406 24.8881 85.1406 24.75V22.9986Z" fill="url(#paint0_linear_1360_404)"/>
</g>
<path fill-rule="evenodd" clip-rule="evenodd" d="M85.6408 23C85.6408 22.9995 85.6408 22.9991 85.6408 22.9986C85.6408 22.9984 85.6408 22.9988 85.6408 22.9986C85.6414 22.6951 85.7772 22.4227 85.9912 22.2397C86.166 22.0902 86.3928 22 86.6408 22C87.0968 22 87.4816 22.3053 87.6018 22.7226C87.6271 22.8103 87.6407 22.9029 87.6408 22.9986V24.75C87.6408 24.8881 87.7527 25 87.8908 25C88.0289 25 88.1408 24.8881 88.1408 24.75L88.1408 24C88.1408 23.6299 88.3419 23.3067 88.6408 23.1338C88.7879 23.0487 88.9587 23 89.1408 23C89.6931 23 90.1408 23.4477 90.1408 24V26L90.1407 26.0113V30C90.1407 31.6569 88.7976 33 87.1407 33H83.6407C83.1528 33 82.6921 32.8835 82.2849 32.6768C81.7222 32.6585 81.183 32.3534 80.8899 31.8254L78.126 26.8449C77.858 26.3619 78.0322 25.7532 78.5151 25.4852C78.8867 25.279 79.3327 25.3346 79.6407 25.5912C79.733 25.6681 79.813 25.763 79.8747 25.8744L80.6407 27.2547V19C80.6407 18.4477 81.0885 18 81.6407 18C82.193 18 82.6407 18.4477 82.6407 19V24L82.6408 24.75C82.6408 24.8881 82.7527 25 82.8908 25C83.0289 25 83.1408 24.8881 83.1408 24.75L83.1408 23C83.1408 22.6299 83.3419 22.3067 83.6407 22.1338C83.7878 22.0487 83.9586 22 84.1408 22C84.3888 22 84.6156 22.0902 84.7904 22.2397C85.0045 22.4228 85.1404 22.6948 85.1408 22.9986V24.75C85.1408 24.8881 85.2527 25 85.3908 25C85.5289 25 85.6408 24.8881 85.6408 24.75L85.6408 23ZM85.3908 21.4387C85.7332 21.1642 86.1678 21 86.6408 21C87.432 21 88.1159 21.4594 88.4403 22.1261C88.6583 22.0446 88.8943 22 89.1408 22C90.2454 22 91.1408 22.8954 91.1408 24V26.0056L91.1407 26.0141V30C91.1407 32.2091 89.3499 34 87.1407 34H83.6407C83.0663 34 82.5181 33.8783 82.0222 33.6588C81.2073 33.5608 80.4459 33.0862 80.0155 32.3106L77.2516 27.3301C76.7156 26.3643 77.0641 25.1468 78.0299 24.6109C78.5425 24.3264 79.1259 24.2911 79.6407 24.4649V19C79.6407 17.8954 80.5362 17 81.6407 17C82.7453 17 83.6407 17.8954 83.6407 19V21.063C83.8006 21.0219 83.9681 21 84.1408 21C84.6138 21 85.0484 21.1642 85.3908 21.4387Z" fill="black"/>
<mask id="mask0_1360_404" style="mask-type:alpha" maskUnits="userSpaceOnUse" x="112" y="0" width="90" height="30">
<rect x="112.5" y="0.5" width="89" height="29" rx="14.5" fill="white" stroke="#3837A1"/>
</mask>
<g mask="url(#mask0_1360_404)">
<rect x="112.5" y="0.5" width="89" height="29" rx="14.5" fill="white" stroke="#3837A1"/>
<path d="M128 -1.48777C128 -1.82134 127.602 -2.07818 127.234 -1.97811C122.225 -0.643819 117.254 1.30425 113.937 4.69336C110.167 8.56281 108.934 14.2236 110.985 19.2905C113.457 25.3883 119.973 28.7407 126.781 30.9656C127.135 31.0824 127.498 30.8889 127.503 30.582L122.938 25.5C122.938 25.5 118.95 18.246 119 15C119.05 11.754 122.938 4.5 122.938 4.5L128 -1.48777Z" fill="#3837A1"/>
<path d="M135.11 20V9.35H137.18V18.185H142.61V20H135.11ZM147.246 20.15C146.606 20.15 146.031 20.045 145.521 19.835C145.011 19.615 144.576 19.315 144.216 18.935C143.866 18.555 143.596 18.12 143.406 17.63C143.216 17.14 143.121 16.625 143.121 16.085C143.121 15.535 143.216 15.015 143.406 14.525C143.596 14.035 143.866 13.6 144.216 13.22C144.576 12.84 145.011 12.545 145.521 12.335C146.031 12.115 146.606 12.005 147.246 12.005C147.886 12.005 148.456 12.115 148.956 12.335C149.466 12.545 149.901 12.84 150.261 13.22C150.621 13.6 150.891 14.035 151.071 14.525C151.261 15.015 151.356 15.535 151.356 16.085C151.356 16.625 151.261 17.14 151.071 17.63C150.891 18.12 150.621 18.555 150.261 18.935C149.911 19.315 149.481 19.615 148.971 19.835C148.461 20.045 147.886 20.15 147.246 20.15ZM145.191 16.085C145.191 16.545 145.281 16.955 145.461 17.315C145.641 17.665 145.886 17.94 146.196 18.14C146.506 18.34 146.856 18.44 147.246 18.44C147.626 18.44 147.971 18.34 148.281 18.14C148.591 17.93 148.836 17.65 149.016 17.3C149.206 16.94 149.301 16.53 149.301 16.07C149.301 15.62 149.206 15.215 149.016 14.855C148.836 14.495 148.591 14.215 148.281 14.015C147.971 13.815 147.626 13.715 147.246 13.715C146.856 13.715 146.506 13.82 146.196 14.03C145.886 14.23 145.641 14.51 145.461 14.87C145.281 15.22 145.191 15.625 145.191 16.085ZM160.018 20H158.008V15.59C158.008 14.96 157.898 14.5 157.678 14.21C157.458 13.92 157.153 13.775 156.763 13.775C156.493 13.775 156.218 13.845 155.938 13.985C155.668 14.125 155.423 14.32 155.203 14.57C154.983 14.81 154.823 15.09 154.723 15.41V20H152.713V12.14H154.528V13.595C154.728 13.255 154.983 12.97 155.293 12.74C155.603 12.5 155.958 12.32 156.358 12.2C156.768 12.07 157.198 12.005 157.648 12.005C158.138 12.005 158.538 12.095 158.848 12.275C159.168 12.445 159.408 12.68 159.568 12.98C159.738 13.27 159.853 13.6 159.913 13.97C159.983 14.34 160.018 14.715 160.018 15.095V20ZM166.432 19.595C166.262 19.665 166.057 19.745 165.817 19.835C165.577 19.925 165.317 19.995 165.037 20.045C164.767 20.105 164.492 20.135 164.212 20.135C163.842 20.135 163.502 20.07 163.192 19.94C162.882 19.81 162.632 19.605 162.442 19.325C162.262 19.035 162.172 18.66 162.172 18.2V13.685H161.137V12.14H162.172V9.59H164.182V12.14H165.832V13.685H164.182V17.525C164.192 17.795 164.267 17.99 164.407 18.11C164.547 18.23 164.722 18.29 164.932 18.29C165.142 18.29 165.347 18.255 165.547 18.185C165.747 18.115 165.907 18.055 166.027 18.005L166.432 19.595ZM172.158 13.88C171.548 13.88 171.003 14 170.523 14.24C170.043 14.47 169.698 14.805 169.488 15.245V20H167.478V12.14H169.323V13.82C169.603 13.28 169.958 12.855 170.388 12.545C170.818 12.235 171.273 12.065 171.753 12.035C171.863 12.035 171.948 12.035 172.008 12.035C172.068 12.035 172.118 12.04 172.158 12.05V13.88ZM172.695 17.675C172.695 17.165 172.835 16.72 173.115 16.34C173.405 15.95 173.805 15.65 174.315 15.44C174.825 15.23 175.41 15.125 176.07 15.125C176.4 15.125 176.735 15.15 177.075 15.2C177.415 15.25 177.71 15.33 177.96 15.44V15.02C177.96 14.52 177.81 14.135 177.51 13.865C177.22 13.595 176.785 13.46 176.205 13.46C175.775 13.46 175.365 13.535 174.975 13.685C174.585 13.835 174.175 14.055 173.745 14.345L173.1 13.025C173.62 12.685 174.15 12.43 174.69 12.26C175.24 12.09 175.815 12.005 176.415 12.005C177.535 12.005 178.405 12.285 179.025 12.845C179.655 13.405 179.97 14.205 179.97 15.245V17.75C179.97 17.96 180.005 18.11 180.075 18.2C180.155 18.29 180.28 18.345 180.45 18.365V20C180.27 20.03 180.105 20.055 179.955 20.075C179.815 20.095 179.695 20.105 179.595 20.105C179.195 20.105 178.89 20.015 178.68 19.835C178.48 19.655 178.355 19.435 178.305 19.175L178.26 18.77C177.92 19.21 177.495 19.55 176.985 19.79C176.475 20.03 175.955 20.15 175.425 20.15C174.905 20.15 174.435 20.045 174.015 19.835C173.605 19.615 173.28 19.32 173.04 18.95C172.81 18.57 172.695 18.145 172.695 17.675ZM177.585 18.08C177.695 17.96 177.785 17.84 177.855 17.72C177.925 17.6 177.96 17.49 177.96 17.39V16.595C177.72 16.495 177.46 16.42 177.18 16.37C176.9 16.31 176.635 16.28 176.385 16.28C175.865 16.28 175.435 16.395 175.095 16.625C174.765 16.845 174.6 17.14 174.6 17.51C174.6 17.71 174.655 17.9 174.765 18.08C174.875 18.26 175.035 18.405 175.245 18.515C175.455 18.625 175.705 18.68 175.995 18.68C176.295 18.68 176.59 18.625 176.88 18.515C177.17 18.395 177.405 18.25 177.585 18.08Z" fill="black"/>
</g>
<defs>
<filter id="filter0_d_1360_404" x="77" y="18" width="14.1406" height="17" filterUnits="userSpaceOnUse" color-interpolation-filters="sRGB">
<feFlood flood-opacity="0" result="BackgroundImageFix"/>
<feColorMatrix in="SourceAlpha" type="matrix" values="0 0 0 0 0 0 0 0 0 0 0 0 0 0 0 0 0 0 127 0" result="hardAlpha"/>
<feOffset dy="1"/>
<feGaussianBlur stdDeviation="0.5"/>
<feComposite in2="hardAlpha" operator="out"/>
<feColorMatrix type="matrix" values="0 0 0 0 0 0 0 0 0 0 0 0 0 0 0 0 0 0 0.1 0"/>
<feBlend mode="normal" in2="BackgroundImageFix" result="effect1_dropShadow_1360_404"/>
<feBlend mode="normal" in="SourceGraphic" in2="effect1_dropShadow_1360_404" result="shape"/>
</filter>
<linearGradient id="paint0_linear_1360_404" x1="84.0703" y1="18" x2="84.0703" y2="33" gradientUnits="userSpaceOnUse">
<stop offset="0.353422" stop-color="white"/>
<stop offset="1" stop-color="#E7E7E7"/>
</linearGradient>
</defs>
</svg>
