<svg width="30" height="28" viewBox="0 0 30 28" fill="none" xmlns="http://www.w3.org/2000/svg">
<path d="M21.5048 7.5C21.5048 3.91015 18.5926 1 15.0002 1C11.4077 1 8.49551 3.91015 8.49551 7.5M28.6252 13.5549L27.1074 22.6549C26.85 24.1986 26.7211 24.9704 26.3356 25.5496C25.9959 26.0602 25.519 26.4644 24.9591 26.7153C24.324 27.0001 23.5414 27 21.9753 27H8.02545C6.45934 27 5.67661 27.0001 5.04151 26.7153C4.48166 26.4644 4.0043 26.0602 3.66453 25.5496C3.27908 24.9704 3.14992 24.1986 2.89246 22.6549L1.37471 13.5549C1.02727 11.4717 0.853294 10.4301 1.15502 9.61833C1.41979 8.90599 1.92676 8.30895 2.58639 7.93085C3.33806 7.5 4.39388 7.5 6.50727 7.5H23.4926C25.606 7.5 26.6631 7.5 27.4148 7.93085C28.0744 8.30895 28.5803 8.90599 28.845 9.61833C29.1468 10.4301 28.9726 11.4717 28.6252 13.5549Z" stroke="black" stroke-width="2" stroke-linecap="round" stroke-linejoin="round"/>
</svg>
