<svg width="202" height="189" viewBox="0 0 202 189" fill="none" xmlns="http://www.w3.org/2000/svg">
<ellipse cx="101" cy="129.559" rx="94.7435" ry="39.1007" transform="rotate(-12.6286 101 129.559)" fill="#F5F4FF"/>
<path d="M139.774 122.891L155.804 113.723C156.065 113.573 156.065 113.333 155.804 113.188L124.164 95.1046C124.021 95.0358 123.865 95 123.706 95C123.548 95 123.392 95.0358 123.249 95.1046L107.196 104.273C106.935 104.423 106.935 104.663 107.196 104.808L138.832 122.891C138.978 122.963 139.139 123 139.303 123C139.466 123 139.627 122.963 139.774 122.891Z" fill="#E0E0E0"/>
<path d="M133.7 46.5849C134.728 45.9814 135.995 46.0434 137.274 46.7632C140.213 48.4219 142.639 53.2762 142.681 57.5946L142.779 67.7449C142.768 67.8594 142.715 67.9659 142.63 68.0437C142.546 68.1216 142.435 68.1653 142.32 68.1664C142.205 68.1675 142.094 68.126 142.008 68.0497C141.922 67.9735 141.867 67.8681 141.854 67.7538L141.756 57.6134C141.717 53.6017 139.502 49.1015 136.816 47.5839C135.822 47.0246 134.911 46.9641 134.173 47.4016C133.076 48.0454 132.458 49.669 132.48 51.8702L132.577 61.9809C132.566 62.0954 132.513 62.2019 132.429 62.2798C132.344 62.3576 132.233 62.4013 132.118 62.4024C132.003 62.4035 131.892 62.362 131.806 62.2858C131.72 62.2096 131.665 62.1041 131.652 61.9898L131.554 51.8395C131.53 49.3019 132.313 47.4046 133.7 46.5849Z" fill="#263238"/>
<path d="M111.566 105.049L113.94 56.1898L122.042 51.422L125.153 97.0331L111.566 105.049Z" fill="#BAD5DB"/>
<path opacity="0.2" d="M111.566 105.049L113.94 56.1898L122.042 51.422L125.153 97.0331L111.566 105.049Z" fill="black"/>
<path d="M150.816 67.6678L153.926 113.279L125.152 97.0329L122.041 51.4219L150.816 67.6678Z" fill="#BAD5DB"/>
<path opacity="0.3" d="M150.816 67.6678L153.926 113.279L125.152 97.0329L122.041 51.4219L150.816 67.6678Z" fill="black"/>
<path d="M150.815 67.6681L142.714 72.4359L140.34 121.296L153.926 113.279L150.815 67.6681Z" fill="#BAD5DB"/>
<path opacity="0.15" d="M150.815 67.6681L142.714 72.4359L140.34 121.296L153.926 113.279L150.815 67.6681Z" fill="black"/>
<path opacity="0.15" d="M140.341 121.295L146.133 112.998L146.593 84.2069L147.597 112.484L153.927 113.279L140.341 121.295Z" fill="black"/>
<path d="M111.566 105.049L140.341 121.295L142.715 72.4456L113.945 56.1996L111.566 105.049ZM133.167 71.8994C133.16 71.2415 133.618 70.9699 134.185 71.291C134.485 71.482 134.735 71.741 134.916 72.047C135.097 72.353 135.203 72.6973 135.226 73.052C135.232 73.7 134.775 73.9765 134.208 73.6604C133.907 73.4702 133.656 73.2114 133.475 72.9053C133.294 72.5991 133.188 72.2543 133.167 71.8994ZM122.97 66.0958C122.963 65.4379 123.421 65.1663 123.988 65.4874C124.287 65.6787 124.537 65.9379 124.717 66.2439C124.897 66.5499 125.002 66.8941 125.024 67.2484C125.03 67.8964 124.578 68.1729 124.011 67.8568C123.71 67.6666 123.459 67.4078 123.278 67.1017C123.097 66.7955 122.991 66.4508 122.97 66.0958Z" fill="#BAD5DB"/>
<path d="M125.583 51.3086C126.611 50.7002 127.878 50.7671 129.156 51.4869C132.096 53.1456 134.517 58 134.559 62.3183L134.657 72.4785C134.658 72.6005 134.611 72.718 134.525 72.8051C134.44 72.8922 134.323 72.9418 134.201 72.943C134.079 72.9442 133.962 72.8968 133.875 72.8114C133.787 72.7259 133.738 72.6094 133.737 72.4874L133.639 62.3173C133.6 58.3057 131.385 53.8054 128.699 52.2878C127.704 51.7285 126.793 51.668 126.056 52.1006C124.959 52.7493 124.341 54.3729 124.362 56.5692L124.46 66.6848C124.449 66.7994 124.396 66.9058 124.311 66.9837C124.227 67.0616 124.116 67.1053 124.001 67.1064C123.886 67.1075 123.775 67.0659 123.689 66.9897C123.602 66.9135 123.548 66.808 123.535 66.6937L123.437 56.5632C123.413 54.0405 124.196 52.1284 125.583 51.3086Z" fill="#37474F"/>
<path d="M46.4922 140.907V46.575C46.5164 46.1112 46.6479 45.6592 46.8764 45.2548C47.1049 44.8504 47.4241 44.5045 47.8089 44.2444L116.583 4.53107C117.334 4.10971 117.9 4.4521 117.9 5.30799V99.6534C117.878 100.118 117.747 100.57 117.518 100.975C117.29 101.38 116.969 101.725 116.583 101.984L47.8089 141.684C47.1374 142.119 46.4922 141.776 46.4922 140.907Z" fill="#FAFAFA"/>
<path d="M116.701 5.93994V99.6533C116.676 99.898 116.599 100.135 116.477 100.348C116.354 100.561 116.188 100.746 115.989 100.891L47.7553 140.288V46.575C47.7786 46.3299 47.8542 46.0926 47.9768 45.8791C48.0994 45.6656 48.2664 45.4808 48.4664 45.3372L116.701 5.93994ZM117.214 4.34668C117 4.35795 116.792 4.42121 116.608 4.531L47.8343 44.2443C47.4495 44.5044 47.1303 44.8503 46.9018 45.2548C46.6733 45.6592 46.5418 46.1111 46.5176 46.575V140.907C46.5176 141.526 46.8204 141.868 47.2681 141.868C47.479 141.863 47.6842 141.799 47.8607 141.684L116.635 101.984C117.021 101.725 117.341 101.38 117.57 100.975C117.799 100.57 117.929 100.118 117.951 99.6533V5.37375C117.951 4.76804 117.649 4.4125 117.201 4.4125L117.214 4.34668Z" fill="#FBC78A"/>
<path d="M117.939 5.07079C117.834 4.38608 117.281 4.14906 116.622 4.53092L47.8481 44.2442C47.4561 44.4966 47.1309 44.8399 46.9 45.245L39.3945 40.9655C39.6198 40.5746 39.9417 40.2482 40.3294 40.0174L109.103 0.304154C109.514 0.104009 109.964 0 110.42 0C110.877 0 111.327 0.104009 111.737 0.304154L116.556 3.00352C116.922 3.22799 117.235 3.52896 117.474 3.8858C117.713 4.24265 117.871 4.64688 117.939 5.07079Z" fill="#FBC78A"/>
<g opacity="0.5">
<path d="M117.939 5.07079C117.834 4.38608 117.281 4.14906 116.622 4.53092L47.8481 44.2442C47.4561 44.4966 47.1309 44.8399 46.9 45.245L39.3945 40.9655C39.6198 40.5746 39.9417 40.2482 40.3294 40.0174L109.103 0.304154C109.514 0.104009 109.964 0 110.42 0C110.877 0 111.327 0.104009 111.737 0.304154L116.556 3.00352C116.922 3.22799 117.235 3.52896 117.474 3.8858C117.713 4.24265 117.871 4.64688 117.939 5.07079Z" fill="white"/>
</g>
<path d="M47.8354 141.684C47.4135 141.892 46.9495 142 46.4791 142C46.0088 142 45.5448 141.892 45.1229 141.684L40.3168 138.945C39.9308 138.689 39.6104 138.346 39.3816 137.943C39.1529 137.541 39.0222 137.09 39 136.627V42.3479C39.0224 41.8571 39.1722 41.3807 39.4345 40.9653L46.9268 45.2448C46.6809 45.641 46.5446 46.0954 46.5318 46.5615V140.894C46.4923 141.697 47.0454 142.145 47.8354 141.684Z" fill="#FBC78A"/>
<path d="M53.8125 49.1294L109.985 16.7109V57.9648L53.8257 90.3965L53.8125 49.1294Z" fill="white"/>
<path d="M53.8274 91.0287C53.7158 91.0265 53.6067 90.9947 53.5114 90.9366C53.4146 90.8839 53.334 90.8057 53.2783 90.7106C53.2226 90.6155 53.1939 90.5069 53.1954 90.3967V49.1297C53.1939 49.0194 53.2226 48.9109 53.2783 48.8157C53.334 48.7206 53.4146 48.6425 53.5114 48.5898L109.671 16.1581C109.766 16.1063 109.872 16.0791 109.98 16.0791C110.088 16.0791 110.195 16.1063 110.29 16.1581C110.386 16.2119 110.465 16.2903 110.521 16.3852C110.577 16.4801 110.606 16.5881 110.606 16.698V57.9651C110.605 58.0767 110.576 58.1863 110.521 58.2833C110.465 58.3802 110.386 58.4611 110.29 58.5181L54.1302 90.9629C54.0363 91.0097 53.9323 91.0323 53.8274 91.0287ZM54.4463 49.4984V89.3038L109.355 57.6096V17.7909L54.4463 49.4984Z" fill="#455A64"/>
<path d="M98.385 39.886C96.9893 36.8311 96.8181 36.1464 95.3433 35.2905L68.4552 50.8019C66.9805 53.3696 66.8093 54.265 65.4136 58.9263C63.7544 64.4961 62.4903 69.908 63.2804 70.777C64.3996 73.6212 72.3002 71.7778 81.8861 66.2474C91.4721 60.717 99.3726 53.4354 100.492 49.2744C101.308 47.51 100.044 43.5597 98.385 39.886Z" fill="#BAD5DB"/>
<path opacity="0.15" d="M81.8993 66.2736C86.7961 63.4923 91.3408 60.1324 95.4355 56.2662C94.3294 56.9773 93.3024 57.8464 92.2621 58.6496C89.5364 60.7619 86.5035 62.4449 83.2687 63.6401C81.3031 64.4711 79.1694 64.8274 77.0405 64.6803C75.9773 64.6001 74.952 64.251 74.0607 63.666C73.1694 63.081 72.4412 62.2792 71.9446 61.3358C71.3326 59.5827 71.2775 57.6832 71.7866 55.8976C72.2869 53.4364 72.9826 51.0191 73.8671 48.6686L72.6425 48.3921L68.4552 50.8017C66.9805 53.3694 66.8093 54.2648 65.4136 58.9261C63.7544 64.496 62.4903 69.9078 63.2804 70.7769C64.4128 73.6474 72.3133 71.8039 81.8993 66.2736Z" fill="black"/>
<path d="M96.0816 36.5675C96.0816 39.5302 89.7348 45.6004 81.9002 50.1169C74.0655 54.6334 67.7188 55.9106 67.7188 52.9479C67.7188 49.9852 74.0655 43.915 81.9002 39.3985C89.7348 34.882 96.0816 33.618 96.0816 36.5675Z" fill="#BAD5DB"/>
<g opacity="0.3">
<path d="M96.0797 36.5675C96.0797 39.5302 89.7329 45.6004 81.8982 50.1169C74.0635 54.6334 67.7168 55.9106 67.7168 52.9479C67.7168 49.9852 74.0635 43.915 81.8982 39.3985C89.7329 34.882 96.0797 33.618 96.0797 36.5675Z" fill="white"/>
</g>
<path opacity="0.5" d="M93.2244 38.2927C93.2244 40.3468 88.1681 44.9423 81.9267 48.5502C75.6852 52.1581 70.6289 53.3958 70.6289 51.3285C70.6289 49.2612 75.6852 44.6789 81.9267 41.0842C88.1681 37.4894 93.2244 36.1727 93.2244 38.2927Z" fill="#BAD5DB"/>
<path opacity="0.15" d="M73.75 52.0393C76.6155 51.2351 79.3577 50.0434 81.9007 48.4972C84.8211 46.8388 87.5539 44.8698 90.0514 42.6245C87.1879 43.4402 84.4466 44.6359 81.9007 46.1797C78.9837 47.8384 76.2515 49.8027 73.75 52.0393Z" fill="black"/>
<path d="M76.7782 59.2555C76.8188 59.3615 76.8188 59.4787 76.7782 59.5847C76.5807 60.1641 76.1067 61.8232 77.2391 62.2182C78.3715 62.6132 79.1221 61.1121 79.4381 60.4537C79.5188 60.2594 79.6565 60.0941 79.8331 59.9797L81.9004 58.7814L83.9677 57.5964C84.0227 57.5491 84.0927 57.5231 84.1652 57.5231C84.2377 57.5231 84.3078 57.5491 84.3627 57.5964C84.6788 57.8861 85.5083 58.3733 86.5617 56.8195C86.9379 56.4029 87.1824 55.8842 87.2644 55.3289C87.3464 54.7735 87.2623 54.2064 87.0226 53.6988C86.9832 53.5926 86.9832 53.4758 87.0226 53.3696C87.2201 52.7771 87.6941 51.1311 86.5617 50.7361C85.4293 50.3411 84.6788 51.829 84.3627 52.5005C84.2787 52.6928 84.1417 52.8572 83.9677 52.9746L81.9004 54.1596L79.8331 55.3579C79.7771 55.4027 79.7074 55.4272 79.6356 55.4272C79.5638 55.4272 79.4941 55.4027 79.4381 55.3579C79.1221 55.055 78.2925 54.581 77.2391 56.1348C76.8629 56.5514 76.6184 57.0701 76.5364 57.6254C76.4544 58.1807 76.5385 58.7479 76.7782 59.2555Z" fill="white"/>
<path d="M56.9213 116.336C57.1591 116.277 57.4078 116.277 57.6456 116.336C57.8503 116.395 58.0392 116.498 58.1986 116.639C58.3463 116.788 58.4666 116.962 58.5541 117.153C58.6425 117.361 58.6916 117.585 58.699 117.811C58.6956 117.894 58.673 117.975 58.6331 118.048C58.6068 118.113 58.5663 118.172 58.5146 118.219L57.3559 118.878C57.3011 118.924 57.2303 118.948 57.1584 118.943C57.099 118.933 57.044 118.906 57.0004 118.864L56.9213 118.785C56.8736 118.737 56.8149 118.701 56.7502 118.68C56.6637 118.658 56.5733 118.658 56.4868 118.68C56.352 118.705 56.2227 118.754 56.105 118.825C55.9902 118.892 55.8802 118.967 55.7758 119.049C55.6815 119.13 55.5935 119.218 55.5124 119.312C55.4343 119.414 55.368 119.524 55.3149 119.641C55.2609 119.761 55.2339 119.892 55.2359 120.023C55.2298 120.075 55.2349 120.128 55.2508 120.178C55.2666 120.228 55.293 120.274 55.3281 120.313C55.4044 120.379 55.5039 120.412 55.6046 120.405C55.7825 120.398 55.9592 120.372 56.1313 120.326L56.9477 120.115C57.2192 120.026 57.5053 119.99 57.7904 120.01C58.0119 120.014 58.2255 120.093 58.3961 120.234C58.5706 120.397 58.6941 120.608 58.7517 120.84C58.8403 121.179 58.8802 121.529 58.8702 121.88C58.8748 122.258 58.826 122.635 58.7253 122.999C58.6334 123.372 58.501 123.734 58.3303 124.079C58.1616 124.422 57.9539 124.744 57.7114 125.04C57.4789 125.34 57.2139 125.614 56.9213 125.856V126.818C56.9183 126.922 56.896 127.024 56.8555 127.12C56.8165 127.2 56.7575 127.268 56.6843 127.318L55.5256 127.99C55.4598 127.99 55.4071 127.99 55.3676 127.99C55.3397 127.962 55.3181 127.929 55.3045 127.893C55.2908 127.857 55.2854 127.818 55.2886 127.779V126.765C55.0374 126.824 54.776 126.824 54.5249 126.765C54.3119 126.715 54.1135 126.615 53.9455 126.475C53.7773 126.325 53.6504 126.135 53.5768 125.922C53.4794 125.684 53.4302 125.429 53.432 125.172C53.4133 125.089 53.4133 125.004 53.432 124.921C53.4578 124.856 53.504 124.801 53.5636 124.763L54.7224 124.092C54.7827 124.075 54.8464 124.075 54.9067 124.092C54.9542 124.08 55.0041 124.08 55.0516 124.092L55.1569 124.21C55.2152 124.265 55.2819 124.309 55.3544 124.342C55.4489 124.371 55.5497 124.371 55.6441 124.342C55.805 124.331 55.9598 124.277 56.0918 124.184C56.3829 124.021 56.6489 123.817 56.8818 123.578C57.0729 123.375 57.1809 123.107 57.1847 122.828C57.1912 122.779 57.1849 122.729 57.1665 122.682C57.148 122.636 57.118 122.596 57.0794 122.564C56.9639 122.526 56.8393 122.526 56.7238 122.564C56.5279 122.582 56.334 122.617 56.1445 122.67L55.3017 122.894C55.0811 122.975 54.8426 122.997 54.611 122.955C54.3794 122.913 54.1633 122.81 53.985 122.657C53.6556 122.184 53.5061 121.61 53.5636 121.037C53.5656 120.704 53.6053 120.373 53.6821 120.049C53.8417 119.352 54.1321 118.69 54.538 118.101C54.7496 117.803 54.9876 117.526 55.2491 117.271V116.27C55.2502 116.165 55.2773 116.06 55.3281 115.968C55.3548 115.885 55.411 115.814 55.4861 115.77L56.6448 115.098C56.6687 115.078 56.699 115.067 56.7304 115.067C56.7618 115.067 56.7922 115.078 56.816 115.098C56.8646 115.163 56.888 115.242 56.8818 115.322L56.9213 116.336Z" fill="#455A64"/>
<path d="M63.5433 112.518C63.7766 112.458 64.0211 112.458 64.2543 112.518C64.4605 112.573 64.6503 112.677 64.8074 112.821C64.9635 112.963 65.0851 113.138 65.1629 113.334C65.2572 113.541 65.3066 113.765 65.3077 113.993C65.3262 114.071 65.3262 114.152 65.3077 114.23C65.2819 114.299 65.236 114.358 65.1761 114.401L64.0173 115.059C63.9599 115.101 63.8909 115.124 63.8198 115.125C63.7654 115.112 63.7154 115.085 63.675 115.046L63.5828 114.967C63.5378 114.922 63.484 114.886 63.4248 114.862C63.3383 114.84 63.2479 114.84 63.1614 114.862C63.0228 114.889 62.8895 114.937 62.7664 115.007L62.4504 115.23C62.349 115.308 62.2562 115.396 62.1739 115.494C62.0923 115.593 62.0258 115.704 61.9763 115.823C61.9489 115.949 61.9489 116.079 61.9763 116.205C61.9662 116.308 61.9943 116.411 62.0554 116.495C62.1317 116.561 62.2311 116.594 62.3319 116.587C62.5099 116.581 62.6866 116.554 62.8586 116.508L63.675 116.297C63.9476 116.212 64.2322 116.172 64.5177 116.179C64.7397 116.191 64.952 116.274 65.1234 116.416C65.2994 116.58 65.4269 116.789 65.4921 117.021C65.5807 117.361 65.6206 117.711 65.6106 118.061C65.6086 118.439 65.56 118.815 65.4657 119.181C65.3714 119.553 65.239 119.915 65.0707 120.26C64.8972 120.601 64.6899 120.923 64.4518 121.222C64.2088 121.513 63.9447 121.786 63.6618 122.038V122.999C63.6587 123.105 63.6317 123.208 63.5828 123.302C63.5479 123.38 63.4935 123.448 63.4248 123.5L62.266 124.171C62.2422 124.192 62.2118 124.203 62.1804 124.203C62.1491 124.203 62.1187 124.192 62.0949 124.171C62.0949 124.171 62.029 124.053 62.029 123.947V122.947C61.7778 123.006 61.5165 123.006 61.2653 122.947C61.0493 122.894 60.8473 122.795 60.6728 122.657C60.5104 122.502 60.3845 122.313 60.3041 122.104C60.2131 121.864 60.1641 121.61 60.1592 121.353C60.1396 121.271 60.1396 121.185 60.1592 121.103C60.1852 121.042 60.2259 120.987 60.2777 120.945L61.4365 120.274C61.4939 120.232 61.5629 120.209 61.634 120.208C61.6858 120.221 61.7349 120.243 61.7788 120.274L61.8842 120.392C61.935 120.449 61.998 120.494 62.0685 120.524C62.1674 120.553 62.2725 120.553 62.3714 120.524C62.5315 120.509 62.6854 120.455 62.8191 120.366C63.1039 120.199 63.3651 119.996 63.596 119.76C63.7964 119.562 63.9101 119.292 63.912 119.01C63.92 118.959 63.9131 118.907 63.892 118.86C63.871 118.813 63.8367 118.774 63.7935 118.746C63.6824 118.709 63.5622 118.709 63.4511 118.746C63.2499 118.756 63.0507 118.791 62.8586 118.852L62.0159 119.075C61.7952 119.157 61.5567 119.178 61.3251 119.137C61.0936 119.095 60.8774 118.992 60.6991 118.838C60.3754 118.364 60.2307 117.79 60.2909 117.219C60.2948 116.887 60.3301 116.556 60.3962 116.231C60.4786 115.888 60.5932 115.552 60.7386 115.23C60.8778 114.896 61.0545 114.578 61.2653 114.282C61.4735 113.982 61.7118 113.704 61.9763 113.453V112.452C61.9728 112.347 61.9955 112.243 62.0422 112.149C62.0776 112.067 62.1374 111.998 62.2134 111.952L63.3721 111.28C63.3938 111.261 63.422 111.25 63.4511 111.25C63.4803 111.25 63.5084 111.261 63.5301 111.28C63.558 111.307 63.5796 111.34 63.5933 111.377C63.6069 111.413 63.6123 111.452 63.6091 111.491L63.5433 112.518Z" fill="#455A64"/>
<path d="M109.34 70.9083L54.5628 102.51C53.7991 102.945 53.2461 102.51 53.2461 101.457V101.181C53.2491 100.67 53.3694 100.167 53.5977 99.7104C53.8261 99.2537 54.1563 98.8557 54.5628 98.547L109.34 66.9449C110.104 66.5104 110.657 66.9449 110.657 67.9983V68.2748C110.654 68.7853 110.533 69.2883 110.305 69.7449C110.077 70.2016 109.746 70.5996 109.34 70.9083Z" fill="#E0E0E0"/>
<path d="M109.34 79.4015L54.5628 111.004C53.7991 111.438 53.2461 111.004 53.2461 109.95V109.674C53.2491 109.163 53.3694 108.66 53.5977 108.204C53.8261 107.747 54.1563 107.349 54.5628 107.04L109.34 75.4381C110.104 75.0035 110.657 75.4381 110.657 76.4915V76.768C110.654 77.2785 110.533 77.7815 110.305 78.2381C110.077 78.6948 109.746 79.0928 109.34 79.4015Z" fill="#E0E0E0"/>
<path d="M78.4089 107.133L79.0541 108.449C79.0614 108.47 79.0727 108.488 79.0874 108.504C79.102 108.52 79.1198 108.532 79.1395 108.541C79.1593 108.55 79.1806 108.554 79.2021 108.554C79.2236 108.554 79.245 108.55 79.2648 108.542L80.7132 107.989C80.9502 107.896 81.0424 108.212 80.8712 108.528L79.8178 110.49C79.755 110.607 79.7276 110.74 79.7388 110.872L79.989 112.65C79.989 112.926 79.7915 113.308 79.5808 113.282L78.264 113.124C78.2113 113.123 78.1593 113.136 78.1131 113.161C78.0669 113.187 78.0282 113.224 78.0007 113.269L76.6839 114.928C76.4733 115.178 76.2362 115.086 76.2758 114.757L76.5259 112.703C76.5367 112.651 76.5351 112.599 76.5214 112.548C76.5076 112.498 76.4821 112.451 76.4469 112.413L75.3935 111.662C75.2355 111.544 75.3277 111.109 75.5515 110.938L76.9999 109.819C77.1025 109.734 77.1761 109.619 77.2106 109.49L77.8559 107.37C78.0139 107.093 78.3035 106.922 78.4089 107.133Z" fill="#BAD5DB"/>
<path d="M85.7292 102.945L86.3744 104.262C86.3812 104.283 86.3926 104.301 86.4075 104.317C86.4225 104.332 86.4407 104.344 86.4609 104.352C86.4811 104.359 86.5027 104.362 86.5242 104.361C86.5457 104.359 86.5665 104.352 86.5851 104.341L88.0335 103.788C88.2705 103.709 88.3495 104.025 88.1915 104.341L87.1381 106.303C87.0746 106.42 87.0471 106.553 87.0591 106.685L87.3093 108.463C87.3093 108.739 87.1118 109.108 86.9011 109.081L85.5844 108.923C85.5306 108.925 85.4783 108.941 85.4322 108.968C85.3861 108.996 85.3478 109.035 85.321 109.081L84.0043 110.727C83.7936 110.991 83.5566 110.899 83.5961 110.569L83.8463 108.502C83.857 108.453 83.8554 108.402 83.8416 108.354C83.8279 108.306 83.8023 108.261 83.7672 108.226L82.7138 107.475C82.5558 107.343 82.648 106.922 82.8718 106.738L84.3203 105.632C84.4199 105.544 84.4928 105.43 84.5309 105.302L85.1762 103.182C85.321 102.893 85.6239 102.722 85.7292 102.945Z" fill="#BAD5DB"/>
<path d="M93.0515 98.7579L93.6967 100.075C93.7052 100.094 93.7175 100.111 93.7327 100.125C93.748 100.14 93.7659 100.151 93.7855 100.158C93.8051 100.166 93.826 100.169 93.8469 100.168C93.8678 100.167 93.8884 100.162 93.9074 100.154L95.3558 99.6006C95.5796 99.5084 95.6718 99.8376 95.5138 100.154L94.4604 102.116C94.3979 102.228 94.3704 102.356 94.3814 102.484L94.6316 104.262C94.6316 104.552 94.4341 104.92 94.2234 104.894L92.9066 104.736C92.8539 104.735 92.8019 104.748 92.7557 104.773C92.7095 104.799 92.6708 104.836 92.6433 104.881L91.3265 106.54C91.1158 106.803 90.8788 106.711 90.9183 106.382L91.1685 104.315C91.1685 104.183 91.1685 104.078 91.0895 104.038L90.0361 103.274C89.8781 103.156 89.9703 102.721 90.1941 102.55L91.6425 101.431C91.7448 101.351 91.8187 101.24 91.8532 101.115L92.4984 98.9949C92.6564 98.7052 92.9461 98.534 93.0515 98.7579Z" fill="#BAD5DB"/>
<path d="M100.371 94.5574L101.016 95.8742C101.036 95.9106 101.068 95.9386 101.107 95.9531C101.145 95.9676 101.188 95.9677 101.227 95.9532L102.675 95.4001C102.899 95.3079 102.991 95.6371 102.833 95.94L101.78 97.9019C101.719 98.0194 101.691 98.1516 101.701 98.2838L101.951 100.061C101.951 100.351 101.754 100.72 101.543 100.693L100.226 100.535C100.173 100.535 100.121 100.547 100.075 100.573C100.029 100.598 99.9903 100.635 99.9628 100.68L98.646 102.339C98.4354 102.603 98.1983 102.497 98.2378 102.181L98.488 100.18C98.4988 100.129 98.4972 100.076 98.4835 100.026C98.4698 99.9752 98.4442 99.9288 98.409 99.8902L97.3556 99.1397C97.1844 99.0212 97.2766 98.5867 97.5136 98.4155L98.9621 97.2962C99.0646 97.2109 99.1382 97.0959 99.1727 96.967L99.8179 94.8471C99.976 94.5179 100.266 94.3467 100.371 94.5574Z" fill="#BAD5DB"/>
<path d="M107.707 90.3702L108.352 91.6869C108.359 91.7072 108.371 91.7258 108.385 91.7415C108.4 91.7573 108.418 91.7699 108.438 91.7785C108.457 91.7871 108.479 91.7916 108.5 91.7917C108.522 91.7918 108.543 91.7875 108.563 91.7791L110.011 91.2129C110.235 91.1339 110.327 91.4499 110.169 91.7659L109.116 93.7279C109.053 93.8449 109.026 93.9775 109.037 94.1098L109.287 95.8874C109.287 96.1639 109.09 96.5326 108.879 96.5063L107.562 96.3482C107.509 96.3532 107.458 96.37 107.412 96.3974C107.367 96.4247 107.328 96.4619 107.299 96.5063L105.982 98.1522C105.771 98.4155 105.534 98.3234 105.574 97.9942L105.824 95.9401C105.835 95.889 105.833 95.836 105.819 95.7857C105.806 95.7353 105.78 95.6889 105.745 95.6504L104.692 94.8998C104.52 94.7681 104.613 94.3468 104.85 94.1624L106.298 93.0564C106.398 92.9685 106.471 92.8544 106.509 92.7272L107.154 90.6072C107.299 90.3175 107.588 90.1463 107.707 90.3702Z" fill="#BAD5DB"/>
</svg>
