<svg width="148" height="135" viewBox="0 0 148 135" fill="none" xmlns="http://www.w3.org/2000/svg">
<path d="M3.32799 20.2957L5.17884 21.0535L3.32799 20.2957ZM9.40079 13.1211L10.4527 14.8221L9.40079 13.1211ZM19.0596 131.244L19.8212 129.395L19.8212 129.395L19.0596 131.244ZM11.902 125.152L10.1989 126.2L10.1989 126.2L11.902 125.152ZM144.873 114.279L143.022 113.521L144.873 114.279ZM138.795 121.453L137.743 119.752L138.795 121.453ZM136.299 9.42273L134.596 10.4712L136.299 9.42273ZM129.137 3.33042L129.898 1.4811L129.898 1.4811L129.137 3.33042ZM7.44666 109.635C6.79966 110.53 7.0009 111.78 7.89614 112.427C8.79139 113.074 10.0416 112.873 10.6886 111.978L7.44666 109.635ZM41.7118 65.6369L40.0908 64.4654L41.7118 65.6369ZM60.2242 64.2528L61.653 62.8532L60.2242 64.2528ZM82.3962 86.8863L80.9675 88.2859L82.3962 86.8863ZM100.336 86.2373L101.863 87.5297L100.336 86.2373ZM121.897 81.6848L123.353 80.314L121.897 81.6848ZM144.505 108.624C145.262 109.428 146.528 109.467 147.332 108.71C148.137 107.953 148.175 106.687 147.418 105.882L144.505 108.624ZM110.182 76.075L109.471 74.2055L110.182 76.075ZM115.191 75.9443L115.803 74.0402L115.191 75.9443ZM89.0947 92.4057L88.5097 94.3182L89.0947 92.4057ZM94.0531 92.226L93.3313 90.3608L94.0531 92.226ZM47.9092 58.7835L47.0881 56.9598L47.9092 58.7835ZM53.0769 58.3973L53.6177 56.4718L53.0769 58.3973ZM137.262 25.4489L143.22 98.308L147.207 97.982L141.249 25.1229L137.262 25.4489ZM122.812 122.419L34.9936 129.6L35.3196 133.587L123.138 126.406L122.812 122.419ZM10.9368 109.125L4.9792 36.2656L0.992501 36.5916L6.95014 109.451L10.9368 109.125ZM25.3902 12.1549L113.209 4.97403L112.883 0.987339L25.0643 8.16819L25.3902 12.1549ZM4.9792 36.2656C4.62895 31.9823 4.3776 28.8894 4.37695 26.4419C4.37632 24.0178 4.62607 22.4035 5.17884 21.0535L1.47714 19.5378C0.645125 21.5697 0.37625 23.7714 0.376955 26.443C0.377653 29.0913 0.647623 32.3739 0.992501 36.5916L4.9792 36.2656ZM25.0643 8.16819C20.8573 8.51219 17.581 8.77852 14.9728 9.20823C12.3414 9.64176 10.2153 10.2659 8.34888 11.4201L10.4527 14.8221C11.6898 14.0571 13.237 13.5481 15.6231 13.155C18.0322 12.7581 21.1174 12.5043 25.3902 12.1549L25.0643 8.16819ZM5.17884 21.0535C6.23735 18.4684 8.08299 16.2876 10.4527 14.8221L8.34887 11.4201C5.25861 13.3311 2.8548 16.1733 1.47714 19.5378L5.17884 21.0535ZM34.9936 129.6C30.7208 129.949 27.6354 130.2 25.1938 130.2C22.7756 130.199 21.1662 129.948 19.8212 129.395L18.298 133.093C20.3271 133.929 22.5264 134.199 25.1932 134.2C27.8366 134.2 31.1127 133.931 35.3196 133.587L34.9936 129.6ZM6.95014 109.451C7.29501 113.668 7.56192 116.952 7.99148 119.565C8.4248 122.202 9.04778 124.331 10.1989 126.2L13.6052 124.104C12.8405 122.861 12.3317 121.309 11.9385 118.916C11.5415 116.501 11.2871 113.408 10.9368 109.125L6.95014 109.451ZM19.8212 129.395C17.2447 128.334 15.0694 126.482 13.6052 124.104L10.1989 126.2C12.1049 129.297 14.9386 131.71 18.298 133.093L19.8212 129.395ZM143.22 98.308C143.57 102.591 143.822 105.685 143.823 108.133C143.824 110.557 143.575 112.171 143.022 113.521L146.724 115.037C147.556 113.005 147.824 110.803 147.823 108.131C147.822 105.482 147.552 102.199 147.207 97.982L143.22 98.308ZM123.138 126.406C127.345 126.062 130.62 125.796 133.227 125.366C135.857 124.932 137.981 124.308 139.847 123.154L137.743 119.752C136.506 120.517 134.96 121.026 132.576 121.419C130.169 121.816 127.085 122.07 122.812 122.419L123.138 126.406ZM143.022 113.521C141.964 116.105 140.115 118.286 137.743 119.752L139.847 123.154C142.936 121.244 145.346 118.403 146.724 115.037L143.022 113.521ZM141.249 25.1229C140.904 20.9054 140.638 17.6225 140.209 15.0094C139.776 12.3732 139.153 10.2443 138.002 8.37426L134.596 10.4712C135.36 11.7132 135.869 13.2653 136.262 15.6575C136.658 18.0727 136.912 21.1653 137.262 25.4489L141.249 25.1229ZM113.209 4.97403C117.482 4.62464 120.565 4.37405 123.005 4.37444C125.422 4.37483 127.03 4.62574 128.375 5.17973L129.898 1.4811C127.869 0.645522 125.672 0.374872 123.006 0.374442C120.364 0.374016 117.09 0.643343 112.883 0.987339L113.209 4.97403ZM138.002 8.37426C136.095 5.27697 133.256 2.86414 129.898 1.4811L128.375 5.17973C130.953 6.24129 133.132 8.09367 134.596 10.4712L138.002 8.37426ZM10.6886 111.978L43.3328 66.8084L40.0908 64.4654L7.44666 109.635L10.6886 111.978ZM58.7955 65.6524L80.9675 88.2859L83.8249 85.4868L61.653 62.8532L58.7955 65.6524ZM101.863 87.5297L105.317 83.4495L102.264 80.8648L98.8098 84.945L101.863 87.5297ZM120.441 83.0555L144.505 108.624L147.418 105.882L123.353 80.314L120.441 83.0555ZM105.317 83.4495C106.86 81.6273 107.937 80.358 108.851 79.4475C109.751 78.5514 110.354 78.149 110.892 77.9445L109.471 74.2055C108.179 74.6966 107.107 75.5397 106.029 76.613C104.966 77.6718 103.762 79.0957 102.264 80.8648L105.317 83.4495ZM123.353 80.314C121.764 78.6253 120.486 77.2661 119.368 76.2641C118.234 75.2486 117.118 74.463 115.803 74.0402L114.579 77.8484C115.128 78.0247 115.752 78.3956 116.699 79.2436C117.661 80.1052 118.804 81.3168 120.441 83.0555L123.353 80.314ZM110.892 77.9445C112.075 77.4949 113.373 77.461 114.579 77.8484L115.803 74.0402C113.734 73.3753 111.503 73.4333 109.471 74.2055L110.892 77.9445ZM80.9675 88.2859C82.5604 89.912 83.841 91.2224 84.9588 92.1866C86.0927 93.1647 87.2048 93.919 88.5097 94.3182L89.6798 90.4932C89.1354 90.3266 88.5157 89.9723 87.5714 89.1578C86.611 88.3293 85.4669 87.1629 83.8249 85.4868L80.9675 88.2859ZM98.8098 84.945C97.2943 86.7349 96.2372 87.9808 95.339 88.8762C94.4557 89.7567 93.8626 90.1552 93.3313 90.3608L94.7749 94.0912C96.0469 93.5989 97.1021 92.7666 98.163 91.7091C99.2089 90.6664 100.392 89.2669 101.863 87.5297L98.8098 84.945ZM88.5097 94.3182C90.5631 94.9464 92.7729 94.8659 94.7749 94.0912L93.3313 90.3608C92.1649 90.8121 90.8756 90.859 89.6798 90.4932L88.5097 94.3182ZM43.3328 66.8084C44.8046 64.7719 45.8335 63.3502 46.7195 62.3235C47.5933 61.3108 48.1906 60.8502 48.7303 60.6072L47.0881 56.9598C45.7793 57.5491 44.7286 58.5079 43.6911 59.7103C42.6658 60.8986 41.5203 62.4874 40.0908 64.4654L43.3328 66.8084ZM61.653 62.8532C59.9451 61.1099 58.5762 59.709 57.3858 58.6865C56.1811 57.6519 54.9997 56.86 53.6177 56.4718L52.5361 60.3228C53.1059 60.4828 53.7649 60.8495 54.7795 61.7209C55.8082 62.6045 57.0371 63.8573 58.7955 65.6524L61.653 62.8532ZM48.7303 60.6072C49.9242 60.0696 51.2752 59.9687 52.5361 60.3228L53.6177 56.4718C51.4534 55.8639 49.1382 56.0367 47.0881 56.9598L48.7303 60.6072ZM95.4072 48.2577C92.3316 48.5092 89.6255 46.213 89.3724 43.1176L85.3857 43.4436C85.818 48.7314 90.4465 52.6767 95.7331 52.2444L95.4072 48.2577ZM100.527 42.2055C100.78 45.3009 98.4827 48.0062 95.4072 48.2577L95.7331 52.2444C101.02 51.8121 104.946 47.1673 104.513 41.8795L100.527 42.2055ZM94.492 37.0654C97.5675 36.8139 100.274 39.1102 100.527 42.2055L104.513 41.8795C104.081 36.5918 99.4527 32.6464 94.166 33.0787L94.492 37.0654ZM94.166 33.0787C88.8793 33.511 84.9533 38.1558 85.3857 43.4436L89.3724 43.1176C89.1193 40.0222 91.4165 37.3169 94.492 37.0654L94.166 33.0787Z" fill="black"/>
</svg>
