<svg width="315" height="205" viewBox="0 0 315 205" fill="none" xmlns="http://www.w3.org/2000/svg">
<path d="M4.06089 26.3709L5.91174 27.1288L4.06089 26.3709ZM12.0455 16.9377L13.0974 18.6387L12.0455 16.9377ZM24.7451 172.248L25.5067 170.399L24.7451 172.248ZM15.3342 164.238L13.631 165.287L13.631 165.287L15.3342 164.238ZM190.167 149.942L188.316 149.184L190.167 149.942ZM182.176 159.375L181.124 157.674L182.176 159.375ZM178.894 12.0749L177.191 13.1234L178.894 12.0749ZM169.477 4.06466L170.238 2.21534L170.238 2.21534L169.477 4.06466ZM9.98651 144.204C9.33951 145.1 9.54075 146.35 10.436 146.997C11.3312 147.644 12.5815 147.443 13.2285 146.547L9.98651 144.204ZM54.5287 85.9865L52.9077 84.815L54.5287 85.9865ZM78.8692 84.1666L80.2979 82.7671L78.8692 84.1666ZM108.021 113.926L106.593 115.325L108.021 113.926ZM131.609 113.072L133.136 114.365L131.609 113.072ZM159.958 107.087L161.414 105.716L159.958 107.087ZM190.142 142.075C190.899 142.879 192.165 142.918 192.969 142.161C193.774 141.404 193.812 140.138 193.055 139.334L190.142 142.075ZM144.554 99.7107L143.844 97.8412L144.554 99.7107ZM151.14 99.5388L151.752 97.6347L151.14 99.5388ZM116.829 121.183L116.244 123.095L116.829 121.183ZM123.348 120.946L122.626 119.081L123.348 120.946ZM62.6771 76.9755L61.856 75.1518L62.6771 76.9755ZM69.4718 76.4677L70.0126 74.5422L69.4718 76.4677ZM180.788 33.0951L188.621 128.892L192.608 128.566L184.775 32.7691L180.788 33.0951ZM161.212 161.272L45.7468 170.714L46.0728 174.701L161.538 165.259L161.212 161.272ZM13.4376 143.216L5.60438 47.4198L1.61769 47.7458L9.4509 143.542L13.4376 143.216ZM33.0175 15.0397L148.483 5.59817L148.157 1.61148L32.6915 11.053L33.0175 15.0397ZM5.60438 47.4198C5.14472 41.7983 4.8113 37.7018 4.81045 34.4523C4.8096 31.226 5.14099 29.0111 5.91174 27.1288L2.21004 25.613C1.16004 28.1773 0.809531 30.9796 0.810448 34.4534C0.811358 37.9038 1.16339 42.1899 1.61769 47.7458L5.60438 47.4198ZM32.6915 11.053C27.1497 11.5061 22.8721 11.8544 19.4741 12.4142C16.0529 12.9778 13.3486 13.7803 10.9936 15.2366L13.0974 18.6387C14.8231 17.5716 16.9485 16.8842 20.1243 16.361C23.3233 15.8339 27.4098 15.4982 33.0175 15.0397L32.6915 11.053ZM5.91174 27.1288C7.35373 23.6071 9.86827 20.6356 13.0974 18.6387L10.9936 15.2366C7.04389 17.6792 3.97117 21.312 2.21004 25.613L5.91174 27.1288ZM45.7468 170.714C40.1392 171.173 36.0524 171.505 32.8104 171.505C29.5918 171.504 27.3828 171.171 25.5067 170.399L23.9835 174.097C26.5438 175.152 29.3425 175.504 32.8098 175.505C36.2537 175.505 40.531 175.154 46.0728 174.701L45.7468 170.714ZM9.4509 143.542C9.9052 149.098 10.2542 153.385 10.8138 156.79C11.3773 160.218 12.1784 162.927 13.631 165.287L17.0373 163.19C15.9711 161.458 15.2842 159.325 14.7609 156.141C14.2338 152.935 13.8973 148.838 13.4376 143.216L9.4509 143.542ZM25.5067 170.399C21.9958 168.953 19.0321 166.43 17.0373 163.19L13.631 165.287C16.0676 169.245 19.6897 172.329 23.9835 174.097L25.5067 170.399ZM188.621 128.892C189.081 134.513 189.415 138.61 189.416 141.86C189.418 145.087 189.087 147.302 188.316 149.184L192.018 150.7C193.068 148.135 193.418 145.333 193.416 141.859C193.415 138.408 193.062 134.121 192.608 128.566L188.621 128.892ZM161.538 165.259C167.08 164.806 171.356 164.458 174.752 163.898C178.171 163.335 180.873 162.532 183.228 161.076L181.124 157.674C179.398 158.741 177.275 159.428 174.101 159.951C170.904 160.478 166.82 160.814 161.212 161.272L161.538 165.259ZM188.316 149.184C186.875 152.704 184.355 155.676 181.124 157.674L183.228 161.076C187.176 158.634 190.256 155.003 192.018 150.7L188.316 149.184ZM184.775 32.7691C184.321 27.2135 183.972 22.927 183.413 19.5224C182.85 16.0947 182.05 13.3863 180.597 11.0265L177.191 13.1234C178.257 14.8553 178.943 16.9868 179.466 20.1705C179.993 23.3772 180.328 27.4735 180.788 33.0951L184.775 32.7691ZM148.483 5.59817C154.091 5.13963 158.175 4.8072 161.415 4.80772C164.632 4.80824 166.839 5.14125 168.715 5.91397L170.238 2.21534C167.678 1.16103 164.882 0.808279 161.416 0.807721C157.974 0.807166 153.699 1.15833 148.157 1.61148L148.483 5.59817ZM180.597 11.0265C178.16 7.0674 174.531 3.98319 170.238 2.21534L168.715 5.91397C172.227 7.36033 175.197 9.8841 177.191 13.1234L180.597 11.0265ZM13.2285 146.547L56.1496 87.158L52.9077 84.815L9.98651 144.204L13.2285 146.547ZM77.4405 85.5662L106.593 115.325L109.45 112.526L80.2979 82.7671L77.4405 85.5662ZM133.136 114.365L137.678 109L134.625 106.415L130.083 111.78L133.136 114.365ZM158.502 108.457L190.142 142.075L193.055 139.334L161.414 105.716L158.502 108.457ZM137.678 109C139.699 106.613 141.135 104.919 142.361 103.699C143.572 102.493 144.439 101.894 145.265 101.58L143.844 97.8412C142.264 98.4418 140.928 99.4809 139.539 100.864C138.164 102.233 136.601 104.081 134.625 106.415L137.678 109ZM161.414 105.716C159.317 103.488 157.658 101.724 156.212 100.428C154.751 99.1195 153.361 98.1518 151.752 97.6347L150.529 101.443C151.371 101.714 152.269 102.266 153.543 103.408C154.833 104.563 156.357 106.179 158.502 108.457L161.414 105.716ZM145.265 101.58C146.954 100.938 148.808 100.89 150.529 101.443L151.752 97.6347C149.168 96.8042 146.382 96.8767 143.844 97.8412L145.265 101.58ZM106.593 115.325C108.695 117.471 110.357 119.171 111.802 120.418C113.263 121.678 114.648 122.607 116.244 123.095L117.414 119.27C116.578 119.014 115.686 118.486 114.415 117.389C113.127 116.278 111.601 114.722 109.45 112.526L106.593 115.325ZM130.083 111.78C128.097 114.125 126.688 115.787 125.483 116.988C124.294 118.174 123.441 118.766 122.626 119.081L124.07 122.812C125.626 122.209 126.94 121.183 128.307 119.821C129.659 118.473 131.195 116.657 133.136 114.365L130.083 111.78ZM116.244 123.095C118.809 123.88 121.569 123.779 124.07 122.812L122.626 119.081C120.961 119.725 119.121 119.792 117.414 119.27L116.244 123.095ZM56.1496 87.158C58.0781 84.4896 59.4494 82.594 60.6362 81.2186C61.8109 79.8573 62.6676 79.1732 63.4983 78.7992L61.856 75.1518C60.2563 75.8721 58.9461 77.0544 57.6078 78.6054C56.2816 80.1423 54.7939 82.2051 52.9077 84.815L56.1496 87.158ZM80.2979 82.7671C78.0445 80.4667 76.2666 78.6482 74.7269 77.3256C73.1729 75.9909 71.7017 75.0167 70.0126 74.5422L68.931 78.3932C69.808 78.6395 70.7568 79.1885 72.1206 80.36C73.4987 81.5436 75.1364 83.2142 77.4405 85.5662L80.2979 82.7671ZM63.4983 78.7992C65.2029 78.0316 67.1309 77.8876 68.931 78.3932L70.0126 74.5422C67.3091 73.7829 64.4168 73.9988 61.856 75.1518L63.4983 78.7992ZM125.18 63.7635C120.788 64.1226 116.927 60.8439 116.566 56.429L112.58 56.755C113.12 63.3623 118.903 68.2901 125.506 67.7502L125.18 63.7635ZM132.487 55.1271C132.848 59.5421 129.572 63.4044 125.18 63.7635L125.506 67.7502C132.109 67.2103 137.014 61.4085 136.474 54.8011L132.487 55.1271ZM123.874 47.7926C128.266 47.4335 132.126 50.7122 132.487 55.1271L136.474 54.8011C135.934 48.1938 130.151 43.266 123.548 43.8059L123.874 47.7926ZM123.548 43.8059C116.945 44.3458 112.039 50.1476 112.58 56.755L116.566 56.429C116.205 52.014 119.482 48.1517 123.874 47.7926L123.548 43.8059Z" fill="black"/>
<rect x="148.796" y="28.1012" width="165.094" height="154.525" rx="13" transform="rotate(7.46157 148.796 28.1012)" fill="white" stroke="black" stroke-width="4"/>
<path d="M179.142 109.942C176.142 132.848 192.279 153.848 215.185 156.848C238.09 159.848 259.091 143.712 262.091 120.806C265.091 97.9004 248.954 76.8999 226.048 73.8999C203.143 70.9 182.142 87.0367 179.142 109.942Z" stroke="black" stroke-width="4" stroke-linecap="round" stroke-linejoin="round"/>
</svg>
