<svg width="286" height="286" viewBox="0 0 286 286" fill="none" xmlns="http://www.w3.org/2000/svg">
<path d="M73.342 231.014C113.811 252.612 179.425 252.612 219.894 231.014C260.363 209.415 260.369 174.386 219.894 152.787C179.419 131.188 113.811 131.182 73.342 152.787C32.873 174.391 32.873 209.409 73.342 231.014Z" fill="#EBEBEB"/>
<path d="M231.797 177.423L225.894 173.991C225.894 173.991 224.447 161.344 225.408 151.551C226.763 137.783 235.652 121.235 246.251 125.114C256.85 128.992 241.384 143.046 237.952 154.715C234.52 166.383 231.797 177.423 231.797 177.423Z" fill="#BAD5DB"/>
<path opacity="0.1" d="M231.797 177.423L225.894 173.991C225.894 173.991 224.447 161.344 225.408 151.551C226.763 137.783 235.652 121.235 246.251 125.114C256.85 128.992 241.384 143.046 237.952 154.715C234.52 166.383 231.797 177.423 231.797 177.423Z" fill="black"/>
<path d="M228.726 175.873C228.671 175.873 228.617 175.854 228.575 175.818C228.533 175.783 228.506 175.733 228.497 175.678C226.49 160.234 231.987 136.891 243.083 128.036C243.106 128.018 243.133 128.004 243.161 127.996C243.189 127.988 243.219 127.985 243.248 127.988C243.277 127.991 243.305 128 243.331 128.014C243.357 128.029 243.38 128.048 243.398 128.071C243.436 128.118 243.453 128.178 243.447 128.238C243.44 128.298 243.41 128.353 243.364 128.391C232.387 137.154 226.959 160.314 228.949 175.615C228.957 175.675 228.942 175.736 228.905 175.784C228.869 175.832 228.815 175.864 228.755 175.873H228.726Z" fill="white"/>
<path d="M234.949 179.865L230.75 177.434C230.75 177.434 230.035 168.757 234.291 158.215C237.992 149.063 247.184 141.421 251.806 143.023C256.427 144.624 256.313 147.902 254.059 151.34C251.806 154.777 238.095 162.974 234.949 179.865Z" fill="#BAD5DB"/>
<path d="M232.347 180.088C232.317 180.087 232.288 180.08 232.261 180.067C232.234 180.054 232.21 180.036 232.19 180.013C232.171 179.991 232.156 179.965 232.146 179.936C232.137 179.908 232.133 179.878 232.135 179.848C233.52 158.25 244.445 147.627 251.011 146.009C251.071 145.995 251.133 146.004 251.185 146.035C251.237 146.066 251.276 146.116 251.292 146.175C251.306 146.233 251.296 146.294 251.265 146.346C251.234 146.397 251.184 146.434 251.126 146.449C244.21 148.165 233.892 159.662 232.599 179.877C232.597 179.907 232.588 179.937 232.574 179.965C232.561 179.992 232.541 180.016 232.518 180.036C232.494 180.056 232.467 180.071 232.438 180.08C232.408 180.089 232.378 180.092 232.347 180.088Z" fill="white"/>
<path d="M61.7767 179.105C61.7767 179.105 62.5603 166.423 55.193 157.729C47.8256 149.035 38.2332 149.069 35.0586 150.688C31.884 152.306 29.7504 156.934 35.213 160.246C40.6756 163.558 52.2929 170.187 54.2263 176.102L61.7767 179.105Z" fill="#BAD5DB"/>
<path opacity="0.1" d="M61.7767 179.105C61.7767 179.105 62.5603 166.423 55.193 157.729C47.8256 149.035 38.2332 149.069 35.0586 150.688C31.884 152.306 29.7504 156.934 35.213 160.246C40.6756 163.558 52.2929 170.187 54.2263 176.102L61.7767 179.105Z" fill="black"/>
<path d="M58.3104 175.93C58.2396 175.929 58.1716 175.903 58.119 175.855C58.0663 175.808 58.0327 175.743 58.0244 175.673C56.5086 161.641 42.4832 153.868 36.8947 152.987C36.8572 152.981 36.8211 152.969 36.7886 152.949C36.756 152.929 36.7276 152.904 36.7051 152.873C36.6825 152.842 36.6662 152.808 36.657 152.771C36.6478 152.734 36.646 152.696 36.6516 152.658C36.6573 152.621 36.6702 152.585 36.6898 152.552C36.7094 152.52 36.7352 152.491 36.7657 152.469C36.7963 152.446 36.831 152.43 36.8678 152.42C36.9047 152.411 36.943 152.409 36.9805 152.415C42.7005 153.313 57.0406 161.264 58.5964 175.61C58.6004 175.647 58.5968 175.685 58.586 175.722C58.5752 175.758 58.5573 175.791 58.5333 175.821C58.5094 175.85 58.4799 175.874 58.4466 175.892C58.4132 175.91 58.3766 175.921 58.339 175.924L58.3104 175.93Z" fill="white"/>
<path d="M55.5816 172.71C53.734 168.5 51.6462 166.612 45.6402 167.619C39.6342 168.626 40.4922 168.471 33.142 166.589C30.0418 165.8 26.5583 165.674 23.5839 167.013C21.0728 168.157 19.1966 170.445 21.6276 172.881C24.3618 175.604 28.4402 176.536 31.4603 178.933C32.1455 179.417 32.6901 180.075 33.039 180.838C33.8341 182.863 32.244 185.145 32.7073 187.267C33.1706 189.389 35.4014 190.522 37.4949 190.659C39.5884 190.796 41.6534 190.167 43.7412 189.927C45.829 189.687 48.1742 189.927 49.6156 191.477C51.16 193.119 51.2 195.744 52.6358 197.489C54.7865 200.103 60.0718 200.829 62.9318 199.205L70.4192 194.886C75.367 188.217 67.5592 182.931 63.4694 177.755C61.4846 175.232 56.6912 175.244 55.5816 172.71Z" fill="#BAD5DB"/>
<path d="M65.7808 190.859C65.7321 190.86 65.684 190.848 65.6417 190.824C65.5994 190.8 65.5644 190.764 65.5406 190.722C57.0006 176.885 33.7488 169.884 25.5235 169.312C25.4486 169.306 25.379 169.271 25.3298 169.214C25.2805 169.158 25.2556 169.084 25.2603 169.009C25.2662 168.933 25.3011 168.863 25.3576 168.813C25.4142 168.763 25.488 168.737 25.5635 168.74C33.8975 169.312 57.3724 176.416 66.0268 190.436C66.0651 190.501 66.0764 190.579 66.0582 190.653C66.0401 190.727 65.9939 190.79 65.9295 190.831C65.8828 190.851 65.8319 190.861 65.7808 190.859Z" fill="white"/>
<path d="M38.7313 184.338C38.6868 184.339 38.6426 184.329 38.6028 184.31C38.5629 184.29 38.5285 184.26 38.5025 184.224C38.457 184.163 38.4375 184.087 38.4482 184.012C38.4589 183.937 38.499 183.869 38.5597 183.824C38.8572 183.601 45.95 178.395 52.8597 178.292C52.897 178.292 52.9341 178.298 52.9687 178.312C53.0034 178.326 53.035 178.346 53.0616 178.372C53.0882 178.399 53.1094 178.43 53.1238 178.464C53.1383 178.498 53.1457 178.535 53.1457 178.573C53.1465 178.61 53.1398 178.648 53.1261 178.683C53.1125 178.718 53.092 178.75 53.066 178.777C53.04 178.804 53.0089 178.825 52.9745 178.84C52.94 178.856 52.903 178.864 52.8654 178.864C46.1559 178.962 38.9887 184.23 38.9144 184.281C38.8627 184.323 38.7973 184.343 38.7313 184.338Z" fill="white"/>
<path d="M65.248 195.721C65.3092 196.553 65.5652 197.359 65.9955 198.073C66.4258 198.788 67.0182 199.391 67.7248 199.834L137.126 239.903C137.893 240.292 138.742 240.495 139.602 240.495C140.463 240.495 141.312 240.292 142.079 239.903L237.031 185.076C237.78 184.681 238.406 184.09 238.843 183.365C239.28 182.64 239.511 181.81 239.511 180.964C239.511 180.117 239.28 179.287 238.843 178.562C238.406 177.838 237.78 177.246 237.031 176.851L167.636 136.811C166.869 136.422 166.02 136.219 165.159 136.219C164.299 136.219 163.45 136.422 162.683 136.811L67.7248 191.62C67.0197 192.062 66.4282 192.663 65.998 193.376C65.5678 194.088 65.3109 194.891 65.248 195.721Z" fill="#37474F"/>
<path d="M93.8814 176.508L67.7239 191.62C66.9754 192.015 66.349 192.607 65.912 193.331C65.4751 194.056 65.2441 194.886 65.2441 195.733C65.2441 196.579 65.4751 197.409 65.912 198.134C66.349 198.859 66.9754 199.45 67.7239 199.845L137.125 239.914C137.888 240.313 138.741 240.51 139.601 240.486V176.508H93.8814Z" fill="#263238"/>
<path d="M62.92 191.7C62.2306 191.23 61.6613 190.605 61.2579 189.875C60.8545 189.144 60.6284 188.33 60.5977 187.496V104.676C60.6437 103.816 60.892 102.98 61.3224 102.234C61.7528 101.489 62.3531 100.856 63.0744 100.386L158.026 45.5598C158.743 45.1102 159.569 44.8645 160.415 44.8489C161.261 44.8333 162.095 45.0485 162.828 45.4713C163.56 45.8942 164.164 46.5088 164.574 47.2489C164.984 47.9891 165.184 48.827 165.154 49.6725V132.498C165.107 133.357 164.858 134.194 164.428 134.939C163.997 135.684 163.397 136.318 162.677 136.788L67.7248 191.62C66.9864 192.009 66.1666 192.22 65.3319 192.234C64.4972 192.247 63.671 192.065 62.92 191.7Z" fill="#455A64"/>
<path d="M72.2215 108.526L61.3249 102.234C60.891 102.976 60.6528 103.816 60.6328 104.676V187.496C60.6635 188.33 60.8897 189.144 61.2931 189.875C61.6965 190.605 62.2658 191.23 62.9551 191.7C63.7063 192.062 64.532 192.242 65.3656 192.226C66.1992 192.21 67.0174 191.999 67.7542 191.609L78.5879 185.357L72.2215 108.526Z" fill="#263238"/>
<path d="M65.248 107.364V190.179C65.248 191.757 66.3577 192.398 67.7248 191.609L162.677 136.788C163.398 136.318 163.997 135.684 164.428 134.939C164.858 134.194 165.107 133.357 165.154 132.498V49.6782C165.154 48.0995 164.044 47.4588 162.677 48.2482L67.7248 103.074C67.0035 103.544 66.4032 104.177 65.9728 104.923C65.5424 105.668 65.2941 106.505 65.248 107.364Z" fill="#37474F"/>
<path d="M67.7249 194.48L137.126 234.52C137.893 234.909 138.742 235.112 139.602 235.112C140.463 235.112 141.312 234.909 142.079 234.52L237.031 179.694C238.404 178.904 238.404 177.623 237.031 176.834L167.636 136.794C166.869 136.404 166.02 136.201 165.159 136.201C164.299 136.201 163.45 136.404 162.683 136.794L67.7249 191.62C66.3521 192.398 66.3521 193.679 67.7249 194.48Z" fill="#455A64"/>
<path d="M69.0575 107.668L161.35 54.3858C162.168 53.911 162.837 54.2942 162.837 55.2438V126.933C162.808 127.448 162.658 127.95 162.4 128.397C162.142 128.844 161.782 129.224 161.35 129.507L69.0575 182.788C68.2338 183.263 67.5703 182.88 67.5703 181.93V110.242C67.5978 109.726 67.7469 109.224 68.0053 108.776C68.2638 108.329 68.6243 107.949 69.0575 107.668Z" fill="white"/>
<path d="M75.778 192.324L163.918 141.416C164.301 141.221 164.726 141.12 165.156 141.12C165.586 141.12 166.01 141.221 166.394 141.416L170.907 144.018C171.057 144.069 171.187 144.165 171.278 144.293C171.37 144.422 171.42 144.575 171.42 144.733C171.42 144.891 171.37 145.045 171.278 145.173C171.187 145.301 171.057 145.397 170.907 145.448L82.7507 196.35C82.3669 196.545 81.9426 196.646 81.5124 196.646C81.0821 196.646 80.6578 196.545 80.274 196.35L75.778 193.754C75.6286 193.703 75.4989 193.607 75.407 193.478C75.315 193.35 75.2656 193.196 75.2656 193.039C75.2656 192.881 75.315 192.727 75.407 192.599C75.4989 192.47 75.6286 192.374 75.778 192.324Z" fill="#263238"/>
<path d="M87.4018 199.056L175.536 148.148C175.92 147.953 176.346 147.852 176.777 147.852C177.208 147.852 177.633 147.953 178.018 148.148L205.743 164.164C205.892 164.215 206.022 164.311 206.114 164.439C206.206 164.567 206.255 164.721 206.255 164.879C206.255 165.037 206.206 165.191 206.114 165.319C206.022 165.447 205.892 165.543 205.743 165.594L117.706 216.399C117.321 216.594 116.896 216.695 116.465 216.695C116.034 216.695 115.609 216.594 115.224 216.399L87.4018 200.457C87.2595 200.404 87.1371 200.308 87.0507 200.182C86.9643 200.057 86.918 199.909 86.918 199.757C86.918 199.605 86.9643 199.456 87.0507 199.331C87.1371 199.206 87.2595 199.11 87.4018 199.056Z" fill="#263238"/>
<path d="M166.407 171.028L169.17 169.432C169.284 169.363 169.278 169.255 169.17 169.18L165.978 167.339C165.91 167.303 165.834 167.285 165.758 167.285C165.681 167.285 165.605 167.303 165.537 167.339L162.78 168.934C162.66 169.003 162.666 169.112 162.78 169.186L165.972 171.028C166.039 171.062 166.114 171.08 166.189 171.08C166.265 171.08 166.339 171.062 166.407 171.028ZM160.961 164.736L158.204 166.332C158.084 166.395 158.09 166.509 158.204 166.584L161.396 168.425C161.464 168.461 161.54 168.479 161.616 168.479C161.693 168.479 161.768 168.461 161.836 168.425L164.599 166.83C164.714 166.761 164.708 166.646 164.599 166.578L161.402 164.736C161.334 164.701 161.258 164.683 161.182 164.683C161.105 164.683 161.029 164.701 160.961 164.736ZM152.05 169.884L147.376 172.578C147.262 172.647 147.268 172.761 147.376 172.836L150.568 174.677C150.636 174.712 150.712 174.731 150.788 174.731C150.865 174.731 150.94 174.712 151.009 174.677L155.676 171.983C155.796 171.915 155.785 171.8 155.676 171.732L152.484 169.884C152.417 169.849 152.343 169.831 152.267 169.831C152.191 169.831 152.117 169.849 152.05 169.884ZM156.929 167.064L154.172 168.66C154.052 168.729 154.057 168.843 154.172 168.912L157.363 170.753C157.432 170.789 157.507 170.807 157.584 170.807C157.66 170.807 157.736 170.789 157.804 170.753L160.567 169.158C160.681 169.089 160.675 168.98 160.567 168.906L157.369 167.024C157.301 166.989 157.226 166.971 157.149 166.971C157.072 166.971 156.997 166.989 156.929 167.024V167.064ZM146.101 173.316L143.344 174.906C143.224 174.975 143.235 175.089 143.344 175.164L146.535 177.005C146.603 177.039 146.677 177.057 146.753 177.057C146.828 177.057 146.903 177.039 146.97 177.005L149.733 175.41C149.847 175.341 149.842 175.226 149.733 175.158L146.541 173.316C146.473 173.281 146.398 173.263 146.321 173.263C146.244 173.263 146.169 173.281 146.101 173.316ZM142.097 175.644L139.34 177.24C139.22 177.303 139.231 177.417 139.34 177.492L142.531 179.333C142.6 179.369 142.675 179.387 142.752 179.387C142.828 179.387 142.904 179.369 142.972 179.333L145.735 177.738C145.849 177.669 145.843 177.555 145.735 177.486L142.509 175.604C142.441 175.569 142.365 175.551 142.288 175.551C142.212 175.551 142.136 175.569 142.068 175.604L142.097 175.644ZM154.652 183.137L157.409 181.541C157.529 181.473 157.518 181.364 157.409 181.29L154.217 179.448C154.15 179.413 154.076 179.394 154 179.394C153.924 179.394 153.85 179.413 153.783 179.448L151.02 181.044C150.906 181.112 150.911 181.221 151.02 181.295L154.212 183.137C154.278 183.163 154.35 183.174 154.421 183.169C154.492 183.164 154.561 183.144 154.624 183.109L154.652 183.137ZM150.614 185.465L153.377 183.869C153.491 183.806 153.485 183.692 153.377 183.618L150.185 181.776C150.117 181.741 150.041 181.722 149.965 181.722C149.888 181.722 149.812 181.741 149.744 181.776L146.987 183.372C146.867 183.44 146.879 183.555 146.987 183.623L150.179 185.465C150.245 185.491 150.315 185.502 150.385 185.497C150.456 185.492 150.524 185.472 150.585 185.437L150.614 185.465ZM146.581 187.793L149.344 186.203C149.458 186.135 149.453 186.02 149.344 185.946L146.152 184.104C146.084 184.07 146.008 184.053 145.932 184.053C145.856 184.053 145.78 184.07 145.712 184.104L142.955 185.7C142.835 185.768 142.846 185.883 142.955 185.951L146.141 187.793C146.207 187.819 146.279 187.83 146.35 187.826C146.421 187.821 146.49 187.8 146.553 187.765L146.581 187.793ZM142.577 190.121L145.34 188.531C145.454 188.463 145.449 188.348 145.34 188.274L142.148 186.432C142.08 186.397 142.005 186.379 141.928 186.379C141.851 186.379 141.776 186.397 141.708 186.432L138.951 188.022C138.831 188.091 138.836 188.205 138.951 188.28L142.143 190.121C142.267 190.162 142.403 190.152 142.52 190.093L142.577 190.121ZM162.431 173.396L165.194 171.8C165.309 171.737 165.303 171.623 165.194 171.549L162.002 169.707C161.934 169.673 161.859 169.655 161.782 169.655C161.706 169.655 161.63 169.673 161.562 169.707L158.805 171.303C158.685 171.371 158.69 171.486 158.805 171.554L161.997 173.396C162.058 173.417 162.123 173.425 162.188 173.421C162.253 173.416 162.316 173.398 162.374 173.367L162.431 173.396ZM158.713 180.832L164.868 177.274C164.982 177.211 164.977 177.097 164.868 177.023L157.117 172.55C157.049 172.514 156.974 172.496 156.897 172.496C156.821 172.496 156.745 172.514 156.677 172.55L153.497 174.391C153.377 174.454 153.388 174.569 153.497 174.643L157.604 177.011C157.73 177.085 157.735 177.2 157.604 177.269L155.013 178.676C154.898 178.739 154.904 178.853 155.013 178.927L158.216 180.752C158.282 180.792 158.356 180.815 158.432 180.82C158.509 180.825 158.586 180.811 158.656 180.781L158.713 180.832ZM138.093 177.972L135.336 179.568C135.216 179.637 135.221 179.745 135.336 179.82L138.527 181.661C138.596 181.697 138.671 181.715 138.748 181.715C138.824 181.715 138.9 181.697 138.968 181.661L141.731 180.066C141.845 179.997 141.839 179.888 141.731 179.814L138.539 177.972C138.466 177.921 138.38 177.892 138.291 177.886C138.202 177.881 138.114 177.901 138.036 177.943L138.093 177.972ZM134.089 180.3L131.24 181.896C131.126 181.965 131.132 182.079 131.24 182.148L134.432 183.99C134.5 184.025 134.576 184.043 134.652 184.043C134.729 184.043 134.804 184.025 134.872 183.99L137.635 182.394C137.75 182.331 137.744 182.216 137.635 182.142L134.421 180.283C134.356 180.25 134.285 180.231 134.213 180.229C134.141 180.228 134.069 180.242 134.003 180.272L134.089 180.3ZM113.829 206.383C113.897 206.418 113.972 206.437 114.049 206.437C114.125 206.437 114.201 206.418 114.269 206.383L117.032 204.787C117.146 204.725 117.14 204.61 117.032 204.536L113.829 202.705C113.76 202.67 113.685 202.652 113.608 202.652C113.532 202.652 113.456 202.67 113.388 202.705L110.631 204.301C110.511 204.37 110.517 204.484 110.631 204.553L113.829 206.383ZM101.719 198.902L98.9565 200.497C98.8421 200.566 98.8478 200.675 98.9565 200.749L102.148 202.591C102.216 202.626 102.292 202.644 102.368 202.644C102.445 202.644 102.521 202.626 102.589 202.591L105.351 200.995C105.466 200.926 105.46 200.818 105.351 200.743L102.16 198.902C102.094 198.869 102.021 198.852 101.948 198.852C101.875 198.852 101.802 198.869 101.736 198.902H101.719ZM108.211 204.364C108.28 204.399 108.355 204.418 108.432 204.418C108.508 204.418 108.584 204.399 108.652 204.364L111.409 202.768C111.529 202.705 111.518 202.591 111.409 202.517L108.223 200.675C108.155 200.64 108.079 200.621 108.003 200.621C107.926 200.621 107.851 200.64 107.782 200.675L105.02 202.271C104.905 202.339 104.911 202.454 105.02 202.522L108.211 204.364ZM120.95 207.796L123.713 206.2C123.827 206.132 123.821 206.023 123.713 205.949L120.521 204.107C120.453 204.072 120.377 204.053 120.301 204.053C120.224 204.053 120.149 204.072 120.08 204.107L117.323 205.703C117.203 205.766 117.215 205.88 117.323 205.954L120.509 207.796C120.579 207.835 120.658 207.856 120.738 207.857C120.817 207.858 120.896 207.839 120.967 207.802L120.95 207.796ZM116.477 210.084C116.545 210.119 116.62 210.138 116.697 210.138C116.774 210.138 116.849 210.119 116.917 210.084L119.68 208.488C119.794 208.425 119.789 208.311 119.68 208.237L116.488 206.395C116.42 206.36 116.345 206.341 116.268 206.341C116.191 206.341 116.116 206.36 116.048 206.395L113.291 207.991C113.171 208.059 113.176 208.174 113.291 208.242L116.477 210.084ZM105.752 196.539L102.995 198.135C102.875 198.198 102.88 198.312 102.995 198.387L106.187 200.229C106.255 200.264 106.33 200.282 106.407 200.282C106.483 200.282 106.559 200.264 106.627 200.229L109.39 198.633C109.504 198.564 109.498 198.45 109.39 198.381L106.198 196.539C106.129 196.511 106.054 196.5 105.979 196.506C105.905 196.512 105.833 196.535 105.769 196.574L105.752 196.539ZM125.921 184.899L123.158 186.489C123.043 186.558 123.049 186.672 123.158 186.741L126.35 188.588C126.418 188.622 126.493 188.64 126.57 188.64C126.646 188.64 126.722 188.622 126.79 188.588L129.547 186.998C129.667 186.93 129.661 186.815 129.547 186.741L126.355 184.899C126.288 184.873 126.215 184.862 126.143 184.868C126.07 184.874 126 184.896 125.938 184.933L125.921 184.899ZM109.825 194.245L107.067 195.836C106.947 195.904 106.953 196.019 107.067 196.093L110.259 197.935C110.328 197.969 110.403 197.986 110.479 197.986C110.556 197.986 110.631 197.969 110.7 197.935L113.462 196.339C113.577 196.27 113.571 196.156 113.462 196.087L110.271 194.24C110.201 194.206 110.124 194.189 110.047 194.19C109.969 194.191 109.893 194.21 109.825 194.245ZM129.993 182.6L127.208 184.184C127.093 184.253 127.099 184.367 127.208 184.436L130.399 186.278C130.467 186.313 130.543 186.331 130.62 186.331C130.696 186.331 130.772 186.313 130.84 186.278L133.597 184.687C133.717 184.619 133.711 184.504 133.597 184.43L130.417 182.611C130.348 182.575 130.272 182.554 130.195 182.552C130.117 182.55 130.04 182.567 129.97 182.6H129.993ZM121.928 187.261L119.165 188.852C119.051 188.92 119.057 189.035 119.165 189.109L122.357 190.951C122.426 190.985 122.501 191.002 122.577 191.002C122.654 191.002 122.729 190.985 122.797 190.951L125.555 189.361C125.675 189.292 125.663 189.178 125.555 189.103L122.368 187.261C122.297 187.224 122.218 187.204 122.137 187.204C122.056 187.204 121.977 187.224 121.905 187.261H121.928ZM117.89 189.589L115.133 191.18C115.013 191.248 115.024 191.363 115.133 191.437L118.324 193.279C118.393 193.313 118.468 193.33 118.545 193.33C118.621 193.33 118.696 193.313 118.765 193.279L121.522 191.689C121.636 191.62 121.631 191.506 121.522 191.431L118.33 189.589C118.259 189.552 118.179 189.532 118.098 189.532C118.018 189.532 117.938 189.552 117.867 189.589H117.89ZM113.829 191.917L111.071 193.508C110.951 193.576 110.963 193.691 111.071 193.765L114.258 195.607C114.326 195.642 114.401 195.66 114.478 195.66C114.554 195.66 114.63 195.642 114.698 195.607L117.461 194.017C117.575 193.948 117.569 193.834 117.461 193.759L114.269 191.917C114.2 191.884 114.125 191.866 114.049 191.866C113.972 191.866 113.897 191.884 113.829 191.917ZM134.449 194.777L137.206 193.187C137.326 193.119 137.321 193.004 137.206 192.93L134.009 191.048C133.94 191.014 133.865 190.997 133.788 190.997C133.712 190.997 133.637 191.014 133.568 191.048L130.805 192.638C130.691 192.707 130.697 192.821 130.805 192.896L133.997 194.737C134.067 194.777 134.145 194.799 134.225 194.801C134.304 194.803 134.384 194.785 134.455 194.749L134.449 194.777ZM169.885 159.588L167.122 161.184C167.007 161.253 167.013 161.361 167.122 161.436L170.314 163.277C170.382 163.313 170.457 163.331 170.534 163.331C170.61 163.331 170.686 163.313 170.754 163.277L173.511 161.682C173.631 161.613 173.625 161.504 173.511 161.43L170.319 159.588C170.252 159.554 170.177 159.536 170.102 159.536C170.026 159.536 169.952 159.554 169.885 159.588ZM165 162.408L162.243 164.004C162.122 164.067 162.134 164.181 162.243 164.256L165.429 166.097C165.497 166.131 165.572 166.149 165.649 166.149C165.725 166.149 165.801 166.131 165.869 166.097L168.632 164.501C168.746 164.433 168.741 164.318 168.632 164.25L165.44 162.408C165.374 162.367 165.298 162.344 165.221 162.339C165.143 162.334 165.065 162.348 164.994 162.379L165 162.408ZM173.917 157.26L171.16 158.856C171.04 158.919 171.046 159.033 171.16 159.108L174.352 160.949C174.42 160.984 174.495 161.003 174.572 161.003C174.649 161.003 174.724 160.984 174.792 160.949L177.555 159.353C177.669 159.285 177.664 159.17 177.555 159.102L174.363 157.26C174.293 157.214 174.213 157.188 174.13 157.183C174.046 157.178 173.963 157.195 173.889 157.231L173.917 157.26ZM153.039 178.79L155.802 177.194C155.916 177.126 155.911 177.011 155.802 176.942L152.61 175.101C152.542 175.066 152.467 175.047 152.39 175.047C152.313 175.047 152.238 175.066 152.17 175.101L149.413 176.697C149.293 176.759 149.298 176.874 149.413 176.948L152.604 178.79C152.673 178.819 152.748 178.831 152.822 178.826C152.897 178.821 152.969 178.799 153.033 178.761L153.039 178.79ZM178.39 154.943C178.322 154.908 178.247 154.89 178.17 154.89C178.093 154.89 178.018 154.908 177.95 154.943L175.193 156.539C175.073 156.602 175.078 156.717 175.193 156.791L178.384 158.633C178.453 158.667 178.528 158.684 178.605 158.684C178.681 158.684 178.756 158.667 178.825 158.633L181.588 157.037C181.702 156.968 181.696 156.854 181.588 156.785L178.39 154.943ZM138.487 192.421L141.25 190.831C141.365 190.762 141.359 190.648 141.25 190.573L138.041 188.76C137.973 188.725 137.898 188.707 137.821 188.707C137.744 188.707 137.669 188.725 137.601 188.76L134.844 190.35C134.724 190.419 134.729 190.533 134.844 190.608L138.036 192.449C138.108 192.481 138.186 192.494 138.265 192.489C138.343 192.485 138.42 192.461 138.487 192.421ZM187.948 163.867L190.711 162.271C190.825 162.208 190.82 162.093 190.711 162.019L187.502 160.16C187.434 160.125 187.359 160.107 187.282 160.107C187.205 160.107 187.13 160.125 187.062 160.16L184.305 161.756C184.185 161.825 184.19 161.939 184.305 162.008L187.496 163.849C187.565 163.889 187.641 163.911 187.72 163.914C187.799 163.917 187.877 163.901 187.948 163.867ZM179.368 163.563L182.131 161.968C182.245 161.899 182.24 161.79 182.131 161.716L178.939 159.874C178.871 159.839 178.796 159.821 178.719 159.821C178.642 159.821 178.567 159.839 178.499 159.874L175.742 161.47C175.622 161.539 175.627 161.647 175.742 161.722L178.934 163.563C178.997 163.6 179.068 163.622 179.142 163.627C179.215 163.632 179.289 163.62 179.357 163.592L179.368 163.563ZM182.955 157.546C182.887 157.511 182.811 157.493 182.734 157.493C182.658 157.493 182.582 157.511 182.514 157.546L179.757 159.142C179.637 159.205 179.643 159.319 179.757 159.394L182.949 161.235C183.017 161.27 183.093 161.289 183.169 161.289C183.246 161.289 183.321 161.27 183.389 161.235L186.152 159.639C186.267 159.571 186.261 159.456 186.152 159.388L182.955 157.546ZM183.807 157.054L191.552 161.527C191.62 161.562 191.695 161.581 191.772 161.581C191.849 161.581 191.924 161.562 191.992 161.527L194.755 159.931C194.869 159.863 194.864 159.754 194.755 159.68L187.004 155.206C186.936 155.171 186.861 155.153 186.784 155.153C186.708 155.153 186.632 155.171 186.564 155.206L183.807 156.802C183.658 156.865 183.67 156.98 183.796 157.054H183.807ZM174.449 162.202L171.686 163.798C171.572 163.867 171.578 163.981 171.686 164.05L174.878 165.891C174.946 165.927 175.022 165.945 175.098 165.945C175.175 165.945 175.25 165.927 175.319 165.891L178.076 164.296C178.196 164.233 178.19 164.118 178.076 164.044L174.884 162.202C174.819 162.168 174.747 162.149 174.673 162.147C174.6 162.145 174.527 162.16 174.461 162.191L174.449 162.202ZM144.093 179.728L141.319 181.324C141.204 181.393 141.21 181.507 141.319 181.576L144.511 183.418C144.579 183.453 144.654 183.471 144.731 183.471C144.807 183.471 144.883 183.453 144.951 183.418L147.708 181.822C147.828 181.759 147.822 181.644 147.708 181.57L144.516 179.728C144.45 179.692 144.376 179.672 144.3 179.67C144.225 179.668 144.15 179.684 144.082 179.717L144.093 179.728ZM183.487 166.195C183.555 166.23 183.63 166.248 183.707 166.248C183.784 166.248 183.859 166.23 183.927 166.195L186.69 164.599C186.804 164.536 186.799 164.421 186.69 164.347L183.498 162.505C183.43 162.471 183.354 162.454 183.278 162.454C183.202 162.454 183.126 162.471 183.058 162.505L180.301 164.101C180.181 164.17 180.186 164.284 180.301 164.353L183.487 166.195ZM148.126 177.4L145.369 178.996C145.248 179.065 145.254 179.173 145.369 179.248L148.56 181.089C148.628 181.125 148.704 181.143 148.781 181.143C148.857 181.143 148.933 181.125 149.001 181.089L151.764 179.494C151.878 179.425 151.872 179.316 151.764 179.242L148.572 177.4C148.502 177.36 148.424 177.338 148.344 177.336C148.265 177.334 148.185 177.352 148.114 177.389L148.126 177.4ZM117.89 204.067C117.958 204.102 118.033 204.12 118.11 204.12C118.187 204.12 118.262 204.102 118.33 204.067L121.093 202.471C121.207 202.402 121.202 202.294 121.093 202.219L117.901 200.377C117.833 200.342 117.758 200.324 117.681 200.324C117.604 200.324 117.529 200.342 117.461 200.377L114.704 201.973C114.584 202.042 114.595 202.151 114.704 202.225L117.89 204.067ZM111.827 198.347L109.064 199.943C108.949 200.011 108.955 200.12 109.064 200.194L112.256 202.036C112.324 202.071 112.399 202.09 112.476 202.09C112.552 202.09 112.628 202.071 112.696 202.036L115.453 200.44C115.573 200.372 115.567 200.263 115.453 200.189L112.261 198.347C112.192 198.311 112.116 198.292 112.038 198.292C111.96 198.292 111.884 198.311 111.815 198.347H111.827ZM122.368 201.739L125.126 200.143C125.24 200.074 125.234 199.96 125.126 199.891L121.934 198.049C121.866 198.014 121.79 197.996 121.714 197.996C121.637 197.996 121.561 198.014 121.493 198.049L118.708 199.628C118.593 199.691 118.599 199.805 118.708 199.88L121.899 201.722C121.968 201.762 122.046 201.785 122.126 201.788C122.206 201.791 122.285 201.774 122.357 201.739H122.368ZM126.401 199.411L129.158 197.815C129.278 197.746 129.267 197.632 129.158 197.563L125.972 195.721C125.904 195.686 125.828 195.668 125.752 195.668C125.675 195.668 125.6 195.686 125.532 195.721L122.769 197.311C122.654 197.38 122.66 197.494 122.769 197.569L125.961 199.411C126.031 199.446 126.108 199.465 126.187 199.465C126.265 199.465 126.343 199.446 126.413 199.411H126.401ZM130.405 197.077L133.162 195.487C133.282 195.418 133.277 195.304 133.162 195.235L129.97 193.387C129.902 193.354 129.827 193.336 129.75 193.336C129.674 193.336 129.598 193.354 129.53 193.387L126.767 194.978C126.653 195.046 126.658 195.161 126.767 195.235L129.959 197.077C130.029 197.115 130.108 197.135 130.188 197.135C130.268 197.135 130.346 197.115 130.417 197.077H130.405ZM115.831 196.019L113.068 197.615C112.953 197.677 112.959 197.792 113.068 197.866L116.26 199.708C116.328 199.743 116.403 199.762 116.48 199.762C116.556 199.762 116.632 199.743 116.7 199.708L119.463 198.112C119.577 198.044 119.571 197.929 119.463 197.861L116.271 196.019C116.205 195.986 116.133 195.97 116.059 195.97C115.986 195.97 115.914 195.986 115.848 196.019H115.831ZM119.863 193.691L117.106 195.281C116.986 195.349 116.992 195.464 117.106 195.538L120.298 197.38C120.366 197.414 120.442 197.431 120.518 197.431C120.594 197.431 120.67 197.414 120.738 197.38L123.553 195.796C123.667 195.727 123.661 195.613 123.553 195.544L120.361 193.702C120.289 193.658 120.206 193.634 120.122 193.632C120.038 193.63 119.954 193.65 119.88 193.691H119.863ZM135.999 184.378L133.277 185.969C133.162 186.037 133.168 186.152 133.277 186.226L136.468 188.068C136.537 188.102 136.612 188.119 136.688 188.119C136.765 188.119 136.84 188.102 136.909 188.068L139.666 186.478C139.786 186.409 139.774 186.295 139.666 186.22L136.48 184.378C136.409 184.339 136.329 184.319 136.248 184.319C136.167 184.319 136.087 184.339 136.016 184.378H135.999ZM131.961 186.707L129.204 188.297C129.089 188.365 129.095 188.48 129.204 188.554L132.396 190.396C132.464 190.43 132.539 190.447 132.616 190.447C132.692 190.447 132.768 190.43 132.836 190.396L135.593 188.806C135.713 188.737 135.702 188.623 135.593 188.548L132.401 186.707C132.335 186.675 132.263 186.659 132.19 186.659C132.117 186.659 132.044 186.675 131.978 186.707H131.961ZM140.032 182.045L137.281 183.641C137.166 183.709 137.172 183.824 137.281 183.892L140.472 185.74C140.541 185.774 140.616 185.791 140.692 185.791C140.769 185.791 140.844 185.774 140.913 185.74L143.67 184.144C143.79 184.081 143.784 183.967 143.67 183.892L140.478 182.05C140.411 182.018 140.338 182 140.264 181.999C140.19 181.998 140.116 182.014 140.049 182.045H140.032ZM123.896 191.363L121.139 192.953C121.019 193.021 121.024 193.136 121.139 193.21L124.33 195.052C124.399 195.086 124.474 195.103 124.551 195.103C124.627 195.103 124.702 195.086 124.771 195.052L127.534 193.456C127.648 193.387 127.642 193.273 127.534 193.204L124.342 191.357C124.274 191.326 124.201 191.31 124.127 191.311C124.052 191.312 123.979 191.33 123.913 191.363H123.896ZM127.928 189.035L125.171 190.625C125.051 190.693 125.063 190.808 125.171 190.882L128.363 192.724C128.43 192.759 128.505 192.777 128.58 192.777C128.656 192.777 128.731 192.759 128.798 192.724L131.561 191.134C131.675 191.065 131.669 190.951 131.561 190.876L128.369 189.035C128.303 189.003 128.23 188.987 128.157 188.987C128.084 188.987 128.012 189.003 127.945 189.035H127.928ZM124.988 205.474L127.745 203.878C127.86 203.809 127.854 203.695 127.745 203.626L124.554 201.784C124.485 201.749 124.41 201.731 124.333 201.731C124.257 201.731 124.181 201.749 124.113 201.784L121.356 203.38C121.236 203.443 121.247 203.558 121.356 203.632L124.548 205.474C124.618 205.512 124.697 205.532 124.777 205.532C124.856 205.532 124.935 205.512 125.005 205.474H124.988ZM101.336 203.06L98.1443 201.218C98.0762 201.183 98.0007 201.165 97.9241 201.165C97.8474 201.165 97.7719 201.183 97.7038 201.218L94.9525 202.825C94.8381 202.894 94.8438 203.003 94.9525 203.077L98.1443 204.919C98.2124 204.954 98.2879 204.972 98.3645 204.972C98.4411 204.972 98.5166 204.954 98.5847 204.919L101.342 203.323C101.468 203.272 101.462 203.157 101.336 203.06ZM107.376 204.833L104.185 202.991C104.117 202.958 104.043 202.94 103.967 202.94C103.892 202.94 103.817 202.958 103.75 202.991L99.5285 205.457C99.4141 205.525 99.4198 205.64 99.5285 205.708L102.72 207.55C102.788 207.585 102.864 207.604 102.94 207.604C103.017 207.604 103.093 207.585 103.161 207.55L107.405 205.102C107.537 205.045 107.502 204.93 107.376 204.856V204.833ZM96.4397 199.496L93.2365 197.677C93.1684 197.642 93.0929 197.624 93.0163 197.624C92.9397 197.624 92.8642 197.642 92.7961 197.677L89.4098 199.628C89.2954 199.697 89.3012 199.811 89.4098 199.885L92.6016 201.727C92.6697 201.762 92.7452 201.781 92.8218 201.781C92.8984 201.781 92.9739 201.762 93.042 201.727L96.434 199.771C96.5713 199.708 96.5656 199.594 96.4397 199.519V199.496ZM99.0423 197.992C99.1104 198.027 99.1859 198.046 99.2625 198.046C99.3392 198.046 99.4147 198.027 99.4828 197.992L102.24 196.396C102.36 196.333 102.354 196.219 102.24 196.145L99.048 194.303C98.9799 194.268 98.9044 194.249 98.8278 194.249C98.7512 194.249 98.6757 194.268 98.6076 194.303L95.8448 195.899C95.7304 195.967 95.7362 196.082 95.8448 196.15L99.0423 197.992ZM112.999 206.852L109.825 205.033C109.756 205 109.681 204.982 109.604 204.982C109.528 204.982 109.453 205 109.384 205.033L104.076 208.099C103.962 208.168 103.967 208.282 104.076 208.351L107.268 210.199C107.336 210.232 107.412 210.25 107.488 210.25C107.564 210.25 107.64 210.232 107.708 210.199L113.016 207.133C113.131 207.064 113.125 206.95 112.999 206.875V206.852ZM115.647 210.588L112.456 208.78C112.388 208.745 112.312 208.727 112.235 208.727C112.159 208.727 112.083 208.745 112.015 208.78L108.618 210.742C108.503 210.811 108.509 210.925 108.618 210.999L111.809 212.841C111.878 212.875 111.953 212.893 112.03 212.893C112.106 212.893 112.181 212.875 112.25 212.841L115.647 210.879C115.779 210.799 115.773 210.685 115.647 210.61V210.588ZM129.032 180.678C129.1 180.713 129.176 180.731 129.252 180.731C129.329 180.731 129.405 180.713 129.473 180.678L132.23 179.087C132.35 179.019 132.338 178.904 132.23 178.83L129.038 176.988C128.97 176.954 128.894 176.937 128.818 176.937C128.741 176.937 128.666 176.954 128.598 176.988L125.841 178.607C125.726 178.676 125.732 178.79 125.841 178.859L129.032 180.678ZM120.961 185.339C121.03 185.373 121.105 185.391 121.182 185.391C121.258 185.391 121.333 185.373 121.402 185.339L124.165 183.749C124.279 183.681 124.273 183.566 124.165 183.492L120.973 181.65C120.904 181.616 120.829 181.599 120.753 181.599C120.676 181.599 120.601 181.616 120.532 181.65L117.775 183.24C117.655 183.309 117.667 183.423 117.775 183.498L120.961 185.339ZM103.075 195.687C103.143 195.722 103.219 195.74 103.295 195.74C103.372 195.74 103.447 195.722 103.515 195.687L106.272 194.091C106.393 194.022 106.387 193.914 106.272 193.839L103.081 191.998C103.013 191.962 102.937 191.944 102.86 191.944C102.784 191.944 102.708 191.962 102.64 191.998L99.8774 193.593C99.763 193.662 99.7688 193.771 99.8774 193.845L103.075 195.687ZM125 183.04C125.067 183.074 125.142 183.091 125.217 183.091C125.292 183.091 125.367 183.074 125.434 183.04L128.197 181.45C128.312 181.381 128.306 181.267 128.197 181.192L125.005 179.351C124.937 179.315 124.862 179.297 124.785 179.297C124.709 179.297 124.633 179.315 124.565 179.351L121.808 180.941C121.688 181.009 121.699 181.124 121.808 181.198L125 183.04ZM116.929 187.696C116.997 187.731 117.072 187.75 117.149 187.75C117.226 187.75 117.301 187.731 117.369 187.696L120.132 186.106C120.246 186.037 120.241 185.923 120.132 185.849L116.94 184.007C116.872 183.973 116.796 183.955 116.72 183.955C116.644 183.955 116.568 183.973 116.5 184.007L113.743 185.597C113.623 185.665 113.628 185.78 113.743 185.854L116.929 187.696ZM117.861 210.914C117.793 210.88 117.717 210.862 117.641 210.862C117.565 210.862 117.489 210.88 117.421 210.914L113.176 213.356C113.062 213.425 113.068 213.539 113.176 213.613L116.368 215.455C116.436 215.49 116.512 215.509 116.588 215.509C116.665 215.509 116.741 215.49 116.809 215.455L121.053 213.007C121.173 212.938 121.162 212.824 121.053 212.75L117.861 210.914ZM111.14 191.048C111.209 191.082 111.284 191.099 111.36 191.099C111.437 191.099 111.512 191.082 111.581 191.048L114.343 189.452C114.458 189.383 114.452 189.269 114.343 189.2L111.152 187.359C111.083 187.323 111.008 187.305 110.931 187.305C110.855 187.305 110.779 187.323 110.711 187.359L107.954 188.954C107.834 189.017 107.84 189.132 107.954 189.206L111.14 191.048ZM107.108 193.336C107.176 193.371 107.251 193.389 107.328 193.389C107.404 193.389 107.48 193.371 107.548 193.336L110.311 191.74C110.425 191.671 110.419 191.557 110.311 191.488L107.119 189.647C107.051 189.611 106.975 189.593 106.899 189.593C106.822 189.593 106.747 189.611 106.679 189.647L103.921 191.242C103.801 191.305 103.807 191.42 103.921 191.494L107.108 193.336ZM192.587 167.768C192.519 167.732 192.444 167.714 192.367 167.714C192.29 167.714 192.215 167.732 192.147 167.768L185.329 171.68C185.214 171.749 185.22 171.863 185.329 171.937L188.52 173.779C188.589 173.813 188.664 173.831 188.74 173.831C188.817 173.831 188.892 173.813 188.961 173.779L195.79 169.884C195.911 169.815 195.905 169.701 195.79 169.627L192.587 167.768ZM183.67 172.916C183.602 172.88 183.526 172.862 183.449 172.862C183.373 172.862 183.297 172.88 183.229 172.916L180.472 174.506C180.352 174.574 180.358 174.689 180.472 174.763L183.664 176.605C183.732 176.639 183.808 176.656 183.884 176.656C183.961 176.656 184.036 176.639 184.104 176.605L186.867 175.015C186.982 174.946 186.976 174.832 186.867 174.757L183.67 172.916ZM129.038 203.146L131.795 201.55C131.915 201.481 131.904 201.367 131.795 201.298L128.609 199.451C128.541 199.417 128.465 199.399 128.389 199.399C128.312 199.399 128.237 199.417 128.169 199.451L125.406 201.041C125.291 201.109 125.297 201.224 125.406 201.298L128.598 203.14C128.666 203.175 128.741 203.193 128.817 203.194C128.893 203.195 128.969 203.179 129.038 203.146ZM175.605 177.572C175.536 177.538 175.461 177.52 175.384 177.52C175.308 177.52 175.233 177.538 175.164 177.572L172.401 179.162C172.287 179.23 172.293 179.345 172.401 179.419L175.593 181.261C175.661 181.296 175.737 181.315 175.813 181.315C175.89 181.315 175.965 181.296 176.034 181.261L178.791 179.671C178.911 179.602 178.905 179.488 178.791 179.414L175.605 177.572ZM196.62 165.44C196.551 165.406 196.476 165.388 196.4 165.388C196.323 165.388 196.248 165.406 196.179 165.44L193.422 167.024C193.302 167.093 193.308 167.207 193.422 167.276L196.614 169.123C196.683 169.157 196.758 169.175 196.834 169.175C196.911 169.175 196.986 169.157 197.055 169.123L199.817 167.533C199.932 167.464 199.926 167.35 199.817 167.276L196.62 165.44ZM203.844 164.953L196.094 160.48C196.025 160.445 195.95 160.427 195.873 160.427C195.797 160.427 195.721 160.445 195.653 160.48L192.896 162.076C192.776 162.145 192.782 162.259 192.896 162.328L200.647 166.801C200.715 166.836 200.79 166.854 200.867 166.854C200.944 166.854 201.019 166.836 201.087 166.801L203.85 165.205C203.976 165.142 203.97 165.028 203.844 164.953ZM160.532 186.278C160.464 186.242 160.389 186.224 160.312 186.224C160.235 186.224 160.16 186.242 160.092 186.278L156.694 188.239C156.58 188.308 156.586 188.423 156.694 188.491L159.886 190.333C159.954 190.368 160.03 190.386 160.106 190.386C160.183 190.386 160.258 190.368 160.326 190.333L163.724 188.371C163.838 188.302 163.833 188.188 163.724 188.119L160.532 186.278ZM170.72 180.392C170.652 180.357 170.576 180.338 170.499 180.338C170.423 180.338 170.347 180.357 170.279 180.392L166.035 182.84C165.921 182.908 165.926 183.023 166.035 183.091L169.227 184.939C169.295 184.973 169.371 184.99 169.447 184.99C169.523 184.99 169.599 184.973 169.667 184.939L173.911 182.491C174.026 182.422 174.02 182.308 173.911 182.233L170.72 180.392ZM151.192 191.666C151.123 191.632 151.048 191.614 150.971 191.614C150.895 191.614 150.82 191.632 150.751 191.666L128.037 204.776C127.923 204.845 127.928 204.959 128.037 205.033L131.229 206.875C131.297 206.909 131.373 206.927 131.449 206.927C131.525 206.927 131.601 206.909 131.669 206.875L154.383 193.759C154.498 193.691 154.492 193.576 154.383 193.502L151.192 191.666ZM127.202 205.52C127.134 205.484 127.058 205.466 126.982 205.466C126.905 205.466 126.83 205.484 126.761 205.52L123.369 207.482C123.249 207.55 123.255 207.665 123.369 207.733L126.561 209.575C126.629 209.61 126.705 209.629 126.781 209.629C126.858 209.629 126.934 209.61 127.002 209.575L130.417 207.636C130.531 207.567 130.525 207.453 130.417 207.384L127.202 205.52ZM155.859 188.972C155.791 188.938 155.715 188.92 155.639 188.92C155.562 188.92 155.487 188.938 155.419 188.972L152.027 190.934C151.907 191.002 151.912 191.117 152.027 191.191L155.218 193.033C155.287 193.067 155.362 193.084 155.439 193.084C155.515 193.084 155.59 193.067 155.659 193.033L159.057 191.071C159.177 191.008 159.165 190.894 159.057 190.819L155.859 188.972ZM122.534 208.208C122.466 208.174 122.391 208.157 122.314 208.157C122.238 208.157 122.162 208.174 122.094 208.208L118.696 210.17C118.582 210.239 118.588 210.353 118.696 210.427L121.888 212.269C121.956 212.303 122.032 212.321 122.108 212.321C122.185 212.321 122.26 212.303 122.328 212.269L125.72 210.313C125.841 210.244 125.835 210.13 125.72 210.056L122.534 208.208ZM165.2 183.572C165.131 183.538 165.056 183.521 164.98 183.521C164.903 183.521 164.828 183.538 164.759 183.572L161.367 185.528C161.247 185.597 161.253 185.711 161.367 185.786L164.559 187.627C164.628 187.661 164.703 187.679 164.779 187.679C164.856 187.679 164.931 187.661 165 187.627L168.397 185.665C168.517 185.597 168.506 185.482 168.397 185.408L165.2 183.572ZM179.637 175.238C179.569 175.203 179.494 175.184 179.417 175.184C179.34 175.184 179.265 175.203 179.197 175.238L176.44 176.828C176.32 176.897 176.325 177.011 176.44 177.085L179.631 178.927C179.7 178.961 179.775 178.979 179.852 178.979C179.928 178.979 180.003 178.961 180.072 178.927L182.835 177.337C182.949 177.269 182.943 177.154 182.835 177.08L179.637 175.238ZM188.475 168.82L191.232 167.23C191.352 167.161 191.346 167.047 191.232 166.973L188.04 165.131C187.971 165.097 187.896 165.079 187.82 165.079C187.743 165.079 187.668 165.097 187.599 165.131L184.837 166.727C184.722 166.795 184.728 166.91 184.837 166.978L188.028 168.826C188.098 168.861 188.174 168.879 188.251 168.879C188.329 168.879 188.405 168.861 188.475 168.826V168.82ZM170.457 168.74L173.219 167.144C173.334 167.075 173.328 166.961 173.219 166.892L170.028 165.051C169.959 165.015 169.884 164.997 169.807 164.997C169.731 164.997 169.655 165.015 169.587 165.051L166.83 166.646C166.71 166.715 166.721 166.824 166.83 166.898L170.016 168.74C170.084 168.775 170.16 168.793 170.236 168.793C170.313 168.793 170.388 168.775 170.457 168.74ZM161.305 184.544L169.37 179.888C169.484 179.82 169.478 179.705 169.37 179.631L166.178 177.789C166.109 177.755 166.034 177.738 165.958 177.738C165.881 177.738 165.806 177.755 165.738 177.789L157.672 182.451C157.558 182.514 157.564 182.628 157.672 182.703L160.864 184.544C160.934 184.575 161.011 184.589 161.088 184.584C161.164 184.579 161.239 184.555 161.305 184.516V184.544ZM184.001 171.177C184.07 171.211 184.145 171.228 184.222 171.228C184.298 171.228 184.373 171.211 184.442 171.177L187.199 169.587C187.319 169.518 187.313 169.404 187.199 169.329L184.007 167.487C183.939 167.452 183.864 167.434 183.787 167.434C183.71 167.434 183.635 167.452 183.567 167.487L180.804 169.077C180.69 169.146 180.695 169.261 180.804 169.335L184.001 171.177ZM179.883 168.551L182.64 166.961C182.76 166.892 182.755 166.778 182.64 166.704L179.448 164.862C179.38 164.828 179.305 164.81 179.228 164.81C179.152 164.81 179.076 164.828 179.008 164.862L176.245 166.458C176.131 166.526 176.136 166.641 176.245 166.709L179.437 168.557C179.509 168.586 179.587 168.599 179.664 168.593C179.742 168.587 179.817 168.563 179.883 168.523V168.551ZM157.272 186.855L160.029 185.259C160.149 185.191 160.138 185.082 160.029 185.008L156.837 183.166C156.769 183.131 156.694 183.112 156.617 183.112C156.54 183.112 156.465 183.131 156.397 183.166L153.623 184.756C153.502 184.825 153.514 184.933 153.623 185.008L156.814 186.85C156.889 186.892 156.973 186.914 157.058 186.913C157.144 186.912 157.227 186.888 157.301 186.844L157.272 186.855ZM175.084 176.308C175.152 176.341 175.228 176.359 175.304 176.359C175.381 176.359 175.456 176.341 175.524 176.308L178.287 174.717C178.402 174.649 178.396 174.534 178.287 174.46L175.095 172.618C175.027 172.584 174.952 172.567 174.875 172.567C174.799 172.567 174.723 172.584 174.655 172.618L171.898 174.214C171.778 174.283 171.784 174.397 171.898 174.466L175.084 176.308ZM137.103 198.484L139.86 196.894C139.98 196.825 139.975 196.711 139.86 196.636L136.668 194.795C136.6 194.761 136.525 194.743 136.448 194.743C136.372 194.743 136.297 194.761 136.228 194.795L133.465 196.385C133.351 196.453 133.357 196.568 133.465 196.642L136.657 198.484C136.726 198.519 136.803 198.537 136.88 198.537C136.958 198.537 137.034 198.519 137.103 198.484ZM141.136 196.156L143.899 194.566C144.013 194.497 144.007 194.383 143.899 194.308L140.713 192.467C140.644 192.431 140.569 192.413 140.492 192.413C140.416 192.413 140.34 192.431 140.272 192.467L137.509 194.057C137.395 194.125 137.401 194.24 137.509 194.314L140.701 196.156C140.769 196.189 140.843 196.206 140.918 196.206C140.994 196.206 141.068 196.189 141.136 196.156ZM133.071 200.812L135.828 199.222C135.948 199.153 135.942 199.039 135.828 198.964L132.642 197.123C132.573 197.089 132.498 197.071 132.421 197.071C132.345 197.071 132.27 197.089 132.201 197.123L129.438 198.713C129.324 198.781 129.33 198.896 129.438 198.97L132.63 200.812C132.698 200.847 132.774 200.865 132.85 200.865C132.927 200.865 133.003 200.847 133.071 200.812ZM149.201 191.5L151.964 189.91C152.078 189.841 152.072 189.727 151.964 189.652L148.772 187.81C148.704 187.777 148.628 187.759 148.552 187.759C148.475 187.759 148.4 187.777 148.332 187.81L145.575 189.406C145.454 189.475 145.46 189.589 145.575 189.658L148.766 191.5C148.834 191.534 148.908 191.552 148.984 191.552C149.059 191.552 149.134 191.534 149.201 191.5ZM145.197 193.828L147.96 192.238C148.074 192.169 148.068 192.055 147.96 191.98L144.717 190.139C144.648 190.103 144.573 190.085 144.496 190.085C144.42 190.085 144.344 190.103 144.276 190.139L141.519 191.729C141.399 191.797 141.405 191.912 141.519 191.98L144.711 193.828C144.782 193.865 144.86 193.884 144.94 193.884C145.019 193.884 145.098 193.865 145.168 193.828H145.197ZM153.262 189.172L156.025 187.576C156.139 187.513 156.134 187.399 156.025 187.324L152.833 185.482C152.765 185.447 152.69 185.429 152.613 185.429C152.536 185.429 152.461 185.447 152.393 185.482L149.59 187.044C149.47 187.113 149.481 187.227 149.59 187.296L152.776 189.138C152.843 189.181 152.921 189.207 153 189.213C153.08 189.219 153.161 189.205 153.234 189.172H153.262ZM171.715 154.72C171.783 154.755 171.859 154.774 171.935 154.774C172.012 154.774 172.087 154.755 172.155 154.72L174.918 153.124C175.033 153.061 175.027 152.947 174.918 152.873L174.072 152.381C174.003 152.347 173.928 152.329 173.851 152.329C173.775 152.329 173.7 152.347 173.631 152.381L170.868 153.971C170.754 154.04 170.76 154.154 170.868 154.228L171.715 154.72ZM151.872 167.533C151.94 167.568 152.016 167.587 152.092 167.587C152.169 167.587 152.245 167.568 152.313 167.533L155.07 165.943C155.19 165.874 155.184 165.76 155.07 165.686L151.878 163.844C151.809 163.81 151.734 163.792 151.658 163.792C151.581 163.792 151.506 163.81 151.438 163.844L148.675 165.434C148.56 165.502 148.566 165.617 148.675 165.691L151.872 167.533ZM159.937 162.877C160.006 162.911 160.081 162.928 160.158 162.928C160.234 162.928 160.309 162.911 160.378 162.877L163.141 161.287C163.255 161.218 163.249 161.104 163.141 161.029L159.949 159.188C159.881 159.152 159.805 159.134 159.729 159.134C159.652 159.134 159.577 159.152 159.508 159.188L156.729 160.778C156.608 160.846 156.614 160.961 156.729 161.035L159.937 162.877ZM146.947 170.376C147.016 170.41 147.091 170.427 147.168 170.427C147.244 170.427 147.319 170.41 147.388 170.376L150.145 168.78C150.265 168.711 150.259 168.597 150.145 168.528L146.953 166.681C146.885 166.647 146.809 166.629 146.733 166.629C146.656 166.629 146.581 166.647 146.513 166.681L143.75 168.271C143.635 168.34 143.641 168.454 143.75 168.528L146.947 170.376ZM155.905 165.228C155.973 165.262 156.049 165.279 156.125 165.279C156.201 165.279 156.277 165.262 156.345 165.228L159.108 163.638C159.222 163.569 159.217 163.455 159.108 163.38L155.916 161.539C155.848 161.505 155.772 161.487 155.696 161.487C155.62 161.487 155.544 161.505 155.476 161.539L152.719 163.129C152.599 163.197 152.604 163.312 152.719 163.386L155.905 165.228ZM138.854 175.032C138.922 175.067 138.997 175.085 139.074 175.085C139.15 175.085 139.226 175.067 139.294 175.032L142.051 173.436C142.171 173.367 142.16 173.253 142.051 173.184L138.865 171.343C138.797 171.307 138.721 171.289 138.645 171.289C138.568 171.289 138.493 171.307 138.425 171.343L135.662 172.938C135.547 173.001 135.553 173.116 135.662 173.19L138.854 175.032ZM142.886 172.704C142.955 172.738 143.03 172.755 143.106 172.755C143.183 172.755 143.258 172.738 143.327 172.704L146.084 171.108C146.204 171.039 146.198 170.925 146.084 170.856L142.898 169.015C142.829 168.979 142.754 168.961 142.677 168.961C142.601 168.961 142.525 168.979 142.457 169.015L139.694 170.61C139.58 170.673 139.586 170.788 139.694 170.862L142.886 172.704ZM163.621 159.382C163.69 159.416 163.765 159.433 163.841 159.433C163.918 159.433 163.993 159.416 164.062 159.382L166.824 157.792C166.939 157.723 166.933 157.609 166.824 157.535L165.972 157.043C165.904 157.009 165.828 156.991 165.752 156.991C165.675 156.991 165.6 157.009 165.532 157.043L162.775 158.633C162.654 158.701 162.666 158.816 162.775 158.89L163.621 159.382ZM175.725 152.392C175.792 152.427 175.866 152.446 175.942 152.446C176.018 152.446 176.092 152.427 176.159 152.392L178.922 150.796C179.037 150.728 179.031 150.619 178.922 150.545L178.076 150.053C178.007 150.018 177.932 149.999 177.855 149.999C177.779 149.999 177.703 150.018 177.635 150.053L174.872 151.643C174.758 151.712 174.764 151.826 174.872 151.9L175.725 152.392ZM182.423 156.265C182.491 156.298 182.567 156.316 182.643 156.316C182.719 156.316 182.795 156.298 182.863 156.265L185.626 154.669C185.74 154.6 185.735 154.486 185.626 154.417L182.434 152.57C182.366 152.536 182.29 152.518 182.214 152.518C182.138 152.518 182.062 152.536 181.994 152.57L179.237 154.16C179.117 154.228 179.128 154.343 179.237 154.417L182.423 156.265ZM192.507 166.498L195.27 164.902C195.384 164.839 195.379 164.725 195.27 164.65L192.078 162.808C192.01 162.775 191.934 162.757 191.858 162.757C191.782 162.757 191.706 162.775 191.638 162.808L188.881 164.404C188.761 164.473 188.766 164.587 188.881 164.656L192.072 166.498C192.14 166.532 192.214 166.55 192.29 166.55C192.365 166.55 192.44 166.532 192.507 166.498ZM167.654 157.054C167.722 157.088 167.798 157.105 167.874 157.105C167.95 157.105 168.026 157.088 168.094 157.054L170.857 155.464C170.971 155.395 170.966 155.281 170.857 155.206L170.005 154.715C169.936 154.681 169.861 154.663 169.784 154.663C169.708 154.663 169.633 154.681 169.564 154.715L166.807 156.305C166.693 156.373 166.698 156.488 166.807 156.562L167.654 157.054ZM134.821 177.36C134.889 177.395 134.965 177.413 135.041 177.413C135.118 177.413 135.193 177.395 135.261 177.36L138.018 175.764C138.133 175.696 138.127 175.587 138.018 175.512L134.827 173.671C134.759 173.636 134.683 173.617 134.606 173.617C134.53 173.617 134.454 173.636 134.386 173.671L131.629 175.267C131.515 175.335 131.52 175.444 131.629 175.518L134.821 177.36Z" fill="#455A64"/>
<path d="M151.219 202.431L181.42 184.991L200.01 195.721L169.803 213.162L151.219 202.431Z" fill="#263238"/>
<path d="M84.0846 114.549L174.094 62.5825C175.851 61.5644 177.292 62.3995 177.292 64.4301V134.14C177.263 134.655 177.114 135.157 176.855 135.604C176.597 136.051 176.237 136.431 175.805 136.714L83.5126 190.001C82.6946 190.47 82.0254 190.087 82.0254 189.143V118.112C82.0665 117.399 82.2742 116.705 82.6317 116.086C82.9893 115.467 83.4869 114.941 84.0846 114.549Z" fill="#F5F5F5"/>
<path d="M177.321 66.1003V64.4301C177.321 62.3995 175.879 61.5701 174.123 62.5825L84.0846 114.549C83.4869 114.941 82.9893 115.467 82.6317 116.086C82.2742 116.705 82.0665 117.399 82.0254 118.112V121.104L177.321 66.1003Z" fill="#BAD5DB"/>
<path d="M163.889 69.9041C163.568 70.1132 163.3 70.3953 163.108 70.7272C162.917 71.0592 162.806 71.4317 162.785 71.8146C162.785 72.5181 163.277 72.8041 163.889 72.4495C164.209 72.241 164.476 71.9597 164.666 71.6287C164.857 71.2977 164.967 70.9263 164.987 70.5447C164.987 69.8412 164.495 69.5552 163.889 69.9041Z" fill="white"/>
<path d="M168.26 67.3816C167.94 67.5914 167.674 67.8737 167.483 68.2056C167.292 68.5375 167.182 68.9097 167.162 69.2921C167.162 69.9956 167.654 70.2759 168.26 69.927C168.582 69.7179 168.849 69.4358 169.041 69.1039C169.233 68.7719 169.344 68.3994 169.364 68.0165C169.364 67.313 168.872 67.027 168.26 67.3816Z" fill="white"/>
<path d="M172.635 64.8534C172.315 65.0635 172.048 65.3458 171.856 65.6775C171.665 66.0093 171.553 66.3813 171.531 66.7638C171.531 67.4674 172.029 67.7534 172.635 67.3988C172.956 67.1905 173.223 66.9095 173.415 66.5785C173.607 66.2475 173.718 65.876 173.739 65.494C173.739 64.7904 173.242 64.5044 172.635 64.8534Z" fill="white"/>
<path d="M104.252 155.233L100.75 153.211L92.1729 168.067L95.6751 170.089L104.252 155.233Z" fill="#37474F"/>
<path d="M104.258 155.229L102.51 154.219L93.9326 169.075L95.6813 170.085L104.258 155.229Z" fill="#263238"/>
<path d="M82.7686 197.077C81.1728 199.851 73.6166 195.447 75.2068 192.713L94.9122 161.979C94.9653 161.896 95.0484 161.836 95.1444 161.813C95.2403 161.789 95.3415 161.804 95.427 161.853L99.3852 164.141C99.4705 164.189 99.5336 164.269 99.5614 164.363C99.5891 164.457 99.5793 164.558 99.534 164.644L82.7686 197.077Z" fill="#BAD5DB"/>
<path opacity="0.1" d="M82.7677 197.077L99.5273 164.644C99.5726 164.558 99.5825 164.457 99.5547 164.363C99.527 164.269 99.4638 164.189 99.3786 164.141L97.5768 163.1L78.3633 197.254C80.1136 198.118 82.047 198.33 82.7677 197.077Z" fill="black"/>
<path d="M140.712 124.725C140.712 124.49 140.712 124.261 140.678 124.032C140.644 123.804 140.678 123.581 140.627 123.358C140.575 123.134 140.627 123.06 140.581 122.911C140.541 122.522 140.484 122.139 140.421 121.767C140.392 121.601 140.363 121.43 140.329 121.264C140.295 121.098 140.266 120.949 140.232 120.795C140.135 120.372 140.032 119.96 139.912 119.565C139.849 119.376 139.791 119.188 139.728 118.993C139.716 118.965 139.707 118.937 139.7 118.907C139.631 118.724 139.568 118.547 139.5 118.375C139.431 118.204 139.34 117.975 139.248 117.803C139.156 117.632 139.122 117.523 139.048 117.386C139.006 117.283 138.957 117.183 138.899 117.088C138.842 116.968 138.779 116.848 138.71 116.734C138.642 116.619 138.682 116.677 138.665 116.654C138.647 116.631 138.544 116.448 138.482 116.345C138.419 116.242 138.396 116.213 138.356 116.15C138.063 115.689 137.734 115.251 137.372 114.84L137.189 114.635L137.034 114.474C136.971 114.406 136.903 114.343 136.834 114.274C136.655 114.085 136.464 113.908 136.262 113.742C136.165 113.656 136.062 113.576 135.959 113.502L135.644 113.273C135.481 113.153 135.311 113.043 135.135 112.941L134.998 112.856H134.969L126.864 108.177L126.818 108.148C125.263 107.281 123.508 106.837 121.728 106.861C119.074 106.861 116.076 107.73 112.902 109.561C101.999 115.853 93.1562 131.171 93.1562 143.766C93.1562 150.058 95.3527 154.463 98.9049 156.534H98.9392L107.05 161.207H107.084L107.182 161.258C107.334 161.348 107.49 161.43 107.651 161.504C107.845 161.601 108.045 161.687 108.223 161.767C108.4 161.847 108.583 161.91 108.766 161.968L109.058 162.053C109.16 162.092 109.265 162.123 109.372 162.145C109.478 162.177 109.585 162.204 109.693 162.225C109.77 162.248 109.848 162.265 109.927 162.276C110.065 162.305 110.213 162.334 110.356 162.351C110.388 162.356 110.421 162.356 110.454 162.351C110.625 162.381 110.797 162.404 110.968 162.419C113.908 162.728 117.329 161.899 120.99 159.788C131.898 153.496 140.741 138.172 140.741 125.583C140.712 125.319 140.712 125.022 140.712 124.725ZM127.482 115.819C127.91 117.384 128.12 119.001 128.105 120.623C128.105 131.732 119.977 145.791 110.373 151.363C108.97 152.197 107.454 152.827 105.872 153.233C105.446 151.665 105.236 150.047 105.248 148.423C105.248 137.314 113.376 123.255 122.98 117.683C124.379 116.852 125.889 116.224 127.465 115.819H127.482Z" fill="#BAD5DB"/>
<path opacity="0.1" d="M106.719 161.047L98.8424 156.505C95.2902 154.429 93.0938 150.013 93.0938 143.744C93.0938 138.127 94.8555 131.972 97.767 126.32L105.878 130.988C102.961 136.639 101.205 142.794 101.205 148.411C101.205 154.566 103.298 158.919 106.719 161.047Z" fill="black"/>
<path opacity="0.4" d="M140.712 124.725C140.712 124.49 140.712 124.261 140.678 124.032C140.644 123.804 140.678 123.581 140.626 123.358C140.575 123.134 140.626 123.06 140.581 122.911C140.541 122.522 140.483 122.139 140.421 121.767C140.392 121.601 140.363 121.43 140.329 121.264C140.295 121.098 140.266 120.949 140.232 120.795C140.135 120.372 140.032 119.96 139.911 119.565C139.849 119.376 139.791 119.188 139.728 118.993C139.716 118.965 139.707 118.937 139.7 118.907C139.631 118.724 139.568 118.547 139.5 118.375C139.431 118.204 139.339 117.975 139.248 117.803C139.156 117.632 139.122 117.523 139.048 117.386C139.006 117.283 138.957 117.183 138.899 117.088C138.842 116.968 138.779 116.848 138.71 116.734C138.642 116.619 138.682 116.677 138.665 116.654C138.647 116.631 138.544 116.448 138.481 116.345C138.419 116.242 138.396 116.213 138.356 116.15C138.063 115.689 137.734 115.251 137.372 114.84L137.189 114.635L137.034 114.474C136.971 114.406 136.903 114.343 136.834 114.274C136.654 114.085 136.463 113.908 136.262 113.742C136.165 113.656 136.062 113.576 135.959 113.502L135.644 113.273C135.481 113.153 135.311 113.043 135.135 112.941C131.549 110.762 126.555 111.019 121.001 114.217C110.093 120.509 101.25 135.827 101.25 148.423C101.25 154.8 103.538 159.256 107.17 161.281C107.322 161.371 107.479 161.453 107.639 161.527C107.834 161.624 108.034 161.71 108.211 161.79C108.389 161.87 108.572 161.933 108.755 161.99L109.046 162.076C109.149 162.115 109.254 162.146 109.361 162.168C109.466 162.2 109.573 162.226 109.681 162.248C109.758 162.27 109.837 162.288 109.916 162.299C110.053 162.328 110.202 162.356 110.345 162.374C110.377 162.379 110.41 162.379 110.442 162.374C110.614 162.404 110.785 162.427 110.957 162.442C113.897 162.751 117.317 161.922 120.978 159.811C131.886 153.519 140.729 138.195 140.729 125.605C140.712 125.319 140.712 125.022 140.712 124.725ZM118.976 156.362C116.528 157.775 114.171 158.518 112.158 158.518C108.377 158.518 106.638 155.939 105.866 153.233C105.44 151.665 105.23 150.047 105.243 148.423C105.243 137.314 113.371 123.255 122.975 117.683C124.379 116.85 125.894 116.222 127.476 115.819C128.225 115.633 128.993 115.535 129.764 115.527C136.016 115.527 136.685 122.585 136.685 125.623C136.708 136.708 128.58 150.808 118.976 156.362Z" fill="white"/>
<path opacity="0.1" d="M136.707 125.623C136.707 136.731 128.585 150.791 118.975 156.362C116.527 157.775 114.171 158.518 112.157 158.518C108.376 158.518 106.637 155.939 105.865 153.233C107.447 152.827 108.963 152.197 110.367 151.363C119.988 145.809 128.099 131.732 128.099 120.623C128.114 119.001 127.904 117.384 127.475 115.819C128.224 115.633 128.992 115.535 129.763 115.527C136.033 115.544 136.707 122.585 136.707 125.623Z" fill="black"/>
<path opacity="0.7" d="M133.277 123.684C133.277 134.792 125.154 148.852 115.545 154.423C113.097 155.836 110.74 156.579 108.726 156.579C108.326 156.58 107.926 156.548 107.531 156.482C106.758 155.527 106.195 154.42 105.878 153.233C105.452 151.665 105.242 150.047 105.254 148.423C105.254 137.314 113.383 123.255 122.986 117.683C124.39 116.85 125.906 116.222 127.488 115.819C128.237 115.633 129.005 115.535 129.776 115.527C130.178 115.526 130.58 115.558 130.977 115.624C132.956 117.952 133.277 121.687 133.277 123.684Z" fill="white"/>
</svg>
