<svg width="60" height="60" viewBox="0 0 60 60" fill="none" xmlns="http://www.w3.org/2000/svg">
<circle cx="30" cy="26" r="26" fill="white"/>
<path d="M29 42.5C29 43.0523 29.4477 43.5 30 43.5C30.5523 43.5 31 43.0523 31 42.5L29 42.5ZM30 17.5L30.7071 16.7929C30.3166 16.4024 29.6834 16.4024 29.2929 16.7929L30 17.5ZM19.2929 26.7929C18.9024 27.1834 18.9024 27.8166 19.2929 28.2071C19.6834 28.5976 20.3166 28.5976 20.7071 28.2071L19.2929 26.7929ZM39.2929 28.2071C39.6834 28.5976 40.3166 28.5976 40.7071 28.2071C41.0976 27.8166 41.0976 27.1834 40.7071 26.7929L39.2929 28.2071ZM31 42.5L31 17.5L29 17.5L29 42.5L31 42.5ZM20.7071 28.2071L30.7071 18.2071L29.2929 16.7929L19.2929 26.7929L20.7071 28.2071ZM29.2929 18.2071L39.2929 28.2071L40.7071 26.7929L30.7071 16.7929L29.2929 18.2071Z" fill="#5452A0"/>
</svg>
