<svg width="168" height="220" viewBox="0 0 168 220" fill="none" xmlns="http://www.w3.org/2000/svg">
<ellipse cx="81.5" cy="139.5" rx="81.5" ry="26.5" fill="url(#paint0_linear_103_2761)"/>
<path d="M113.004 143.133C119.031 147.13 120.256 148.371 119.225 164.375C118.193 180.378 114.567 191.257 116.276 193.932C117.984 196.607 124.785 202.957 128.975 203.36C128.975 208.695 129.491 210.757 136.469 214.045C143.448 217.333 147.348 214.658 147.348 214.658C148.475 216.273 150.155 217.42 152.07 217.881C155.761 219.106 165.817 220.331 167.864 216.849C169.911 213.368 148.524 144.6 129.7 131.272C110.877 117.943 113.004 143.133 113.004 143.133Z" fill="#797979"/>
<path opacity="0.3" d="M127.428 161.345C127.057 157.718 126.783 154.012 126.058 150.434C126.058 150.353 125.961 150.434 125.961 150.434C126.122 153.657 126.573 156.88 126.847 160.023C127.121 163.166 127.331 166.47 127.508 169.693C127.884 176.139 128.088 182.618 128.121 189.129C128.121 192.804 128.121 196.494 128.217 200.185C128.217 200.346 128.411 200.411 128.427 200.185C128.953 193.666 129.045 187.119 128.701 180.588C128.475 174.152 128.051 167.737 127.428 161.345ZM146.928 199.105C146.396 194.544 145.655 190 144.817 185.487C143.238 176.569 140.936 167.794 137.935 159.249C136.236 154.4 134.184 149.681 131.795 145.132C131.795 145.003 131.618 145.212 131.666 145.309C135.388 153.538 138.407 162.067 140.691 170.805C142.954 179.585 144.661 188.499 145.8 197.494C146.493 202.909 146.815 208.372 147.025 213.836C147.025 214.013 147.299 214.255 147.331 213.948C147.771 209.002 147.636 204.021 146.928 199.105V199.105Z" fill="white"/>
<path d="M39.8523 59.457C35.5009 57.1523 36.0811 51.3988 38.4018 45.5808C40.7226 39.7627 47.5076 34.1542 49.9734 25.1935C52.4392 16.2328 51.585 7.46551 49.6833 3.93603C47.7816 0.406539 48.3779 -1.4146 52.2781 1.32518C56.1782 4.06496 60.5297 14.0571 59.3693 23.0178C58.2089 31.9785 55.3241 36.894 56.146 38.1995C56.9679 39.5049 59.3692 39.5049 62.3669 32.9939C65.3645 26.4828 67.5725 19.1177 67.2018 13.6542C66.8311 8.19075 69.0874 9.60899 70.5379 13.5092C71.9884 17.4093 72.2623 23.7753 70.973 30.4314C69.6837 37.0874 67.7498 39.6822 68.5072 40.1012C69.2647 40.5202 72.8426 38.6507 74.7282 34.6055C76.6138 30.5603 78.7734 28.3846 79.3536 31.7046C79.9338 35.0245 77.7419 41.6967 77.0489 44.5977C76.3559 47.4986 80.0788 46.3382 82.8347 46.6283C85.5906 46.9184 85.1394 50.2384 83.5438 51.2537C85.7195 53.1232 87.6696 54.5737 84.817 55.8791C87.17 57.7647 88.0403 60.5045 87.6051 64.5497C87.17 68.5949 94.3902 83.8894 108.137 98.3941C121.885 112.899 128.235 135.268 128.96 141.489C129.685 147.71 123.319 147.13 117.533 144.519C111.747 141.908 102.658 142.472 92.9558 140.909C77.613 138.459 67.1696 132.69 58.8213 124.793C50.473 116.896 44.3166 102.649 47.8783 89.0466C51.8913 73.8328 52.7132 73.0108 49.5705 70.4C46.081 66.9823 42.8337 63.3258 39.8523 59.457V59.457Z" fill="#E8E8E8"/>
<path opacity="0.3" d="M52.2777 1.32522C52.0114 1.16117 51.737 1.01056 51.4557 0.873962C51.2769 0.949884 51.1214 1.07198 51.0053 1.22774C50.8892 1.38349 50.8166 1.56731 50.7949 1.76037C50.7987 1.93865 50.8377 2.11443 50.9096 2.2776C50.9815 2.44078 51.0849 2.58814 51.214 2.71123C51.8499 3.33531 52.5169 3.927 53.2124 4.48404C53.5583 4.76497 53.8249 5.13123 53.986 5.54669C54.1471 5.96216 54.1971 6.41247 54.131 6.85315C54.0182 7.20771 53.8087 7.53003 53.6959 7.9007C53.3413 9.01273 54.1471 10.1409 54.8724 11.124C55.5976 12.1071 56.2745 13.2997 55.7265 14.3473C55.4364 14.8791 54.8724 15.2175 54.5984 15.7655C54.0343 16.8292 54.7918 18.0863 55.4848 19.0855C56.1778 20.0847 56.8386 21.4385 56.1134 22.4054C55.7427 22.9212 55.0496 23.179 54.7757 23.7431C54.3566 24.6779 55.2753 25.6126 55.6298 26.5635C55.7505 26.9067 55.7999 27.271 55.7749 27.634C55.75 27.9971 55.6513 28.3512 55.4848 28.6747C55.1625 29.271 54.6145 29.7706 54.5339 30.4475C54.4534 31.1244 55.227 32.0592 55.3075 33.0423C55.2219 33.9372 54.868 34.7854 54.2922 35.4758C53.8409 36.2494 53.5831 37.3614 54.2922 37.9577C54.5212 38.1292 54.7942 38.2324 55.0794 38.2552C55.3646 38.278 55.6504 38.2196 55.9038 38.0867C55.9557 38.0601 56.0044 38.0277 56.0489 37.99C55.7104 36.3783 58.2729 31.5434 59.3527 23.1468C60.5292 14.0572 56.1778 4.09724 52.2777 1.32522Z" fill="#FFE600"/>
<path opacity="0.3" d="M68.3306 39.7628C68.3306 38.828 69.8133 36.1043 70.9415 30.3991C72.2308 23.7431 71.9568 17.3771 70.5064 13.4769C69.7972 11.543 68.8947 10.2536 68.1695 10.028C68.0905 10.8973 68.3248 11.7661 68.8302 12.4777C69.3413 13.1877 69.7182 13.9851 69.9423 14.8307C69.9906 14.9992 69.9906 15.1779 69.9423 15.3464C69.8149 15.5127 69.649 15.6455 69.4588 15.7332C69.1889 15.9084 68.9656 16.1467 68.8084 16.4275C68.6511 16.7083 68.5646 17.0231 68.5562 17.3449C68.6287 18.2033 68.9291 19.0267 69.4265 19.7301C69.6718 20.0837 69.8252 20.4927 69.873 20.9203C69.9209 21.3479 69.8616 21.7808 69.7005 22.1798C69.4588 22.631 68.9753 22.9211 68.7013 23.3563C68.5123 23.8149 68.4259 24.3093 68.4481 24.8049C68.4704 25.3005 68.6008 25.7852 68.8302 26.225C69.0701 26.6621 69.1958 27.1527 69.1958 27.6513C69.1958 28.1499 69.0701 28.6404 68.8302 29.0776C68.5402 29.3999 68.1211 29.5933 67.8472 29.9318C66.7996 31.2855 68.8303 33.3968 67.9439 34.8634C67.7317 35.1378 67.5057 35.4014 67.267 35.6531C66.8711 36.3348 66.7071 37.1265 66.7996 37.9094C66.7705 38.3181 66.8425 38.7276 67.0091 39.102C67.1607 39.3095 67.3598 39.4778 67.5897 39.5927C67.8196 39.7077 68.0736 39.766 68.3306 39.7628V39.7628Z" fill="#EFE7A2"/>
<path opacity="0.3" d="M74.68 40.9393C74.68 41.2938 75.0345 41.5517 75.2279 41.8579C75.5092 42.5763 75.5654 43.3632 75.3891 44.1142C75.3891 44.8717 75.5986 45.8226 76.3561 45.9837C76.6114 46.0178 76.8711 45.9901 77.1135 45.9031C77.0023 45.7002 76.9361 45.4757 76.9194 45.2448C76.9027 45.014 76.9359 44.7823 77.0168 44.5655C77.7259 41.6806 79.9017 35.0246 79.3215 31.6724C79.1442 30.5926 78.7735 30.0607 78.3223 30.0607C78.0979 30.1115 77.8906 30.22 77.721 30.3755C77.5514 30.5309 77.4254 30.728 77.3553 30.9471C77.0491 31.9786 78.145 33.2034 77.4842 34.0576C77.1296 34.5088 76.4366 34.5572 76.0659 35.0084C75.1634 36.1044 77.2263 37.8288 76.4688 39.0537C76.0015 39.8434 74.551 40.0368 74.68 40.9393Z" fill="#EFE7A2"/>
<path d="M62.7385 47.3213C61.3889 47.9952 60.1759 48.9132 59.1607 50.0289C57.5567 51.6938 56.4416 53.7679 55.9374 56.0242C55.6747 57.1555 55.6596 58.3303 55.8933 59.468C56.1269 60.6058 56.6038 61.6795 57.2911 62.6158C58.0051 63.5343 58.9773 64.2184 60.0829 64.5803C61.1886 64.9421 62.3771 64.9652 63.496 64.6464C65.994 63.8084 67.3155 62.0356 68.4114 59.0541C69.5074 56.0725 70.1681 50.7541 67.2027 47.7726C66.5956 47.2469 65.841 46.9215 65.042 46.8407C64.243 46.7599 63.4385 46.9278 62.7385 47.3213V47.3213Z" fill="white"/>
<path d="M67.1196 65.7584C66.8703 66.4844 66.8703 67.2727 67.1196 67.9986C67.3371 68.6085 67.7205 69.1457 68.2265 69.5498C68.7326 69.9538 69.3414 70.2086 69.9843 70.2856C70.6273 70.3627 71.2791 70.2588 71.8662 69.9857C72.4534 69.7127 72.9528 69.2813 73.3083 68.74C73.7074 68.0894 73.8912 67.3295 73.8333 66.5685C73.7754 65.8074 73.4789 65.084 72.9859 64.5014C72.6132 64.0992 72.1515 63.7898 71.6378 63.5981C71.1242 63.4063 70.5727 63.3374 70.0276 63.3969C69.4825 63.4564 68.959 63.6427 68.4988 63.9408C68.0386 64.239 67.6546 64.6407 67.3774 65.1138C67.2755 65.3219 67.1892 65.5374 67.1196 65.7584V65.7584Z" fill="#E60D0D"/>
<path d="M62.4304 53.7679C62.0968 53.5638 61.7212 53.4381 61.3319 53.4006C60.9426 53.3631 60.5499 53.4146 60.1834 53.5512C59.817 53.6878 59.4864 53.9061 59.2167 54.1893C58.9471 54.4726 58.7454 54.8134 58.6269 55.1861C58.2972 56.0835 58.2301 57.0563 58.4335 57.9904C58.4709 58.3474 58.5829 58.6925 58.7621 59.0034C58.9414 59.3143 59.184 59.5841 59.4742 59.7953C59.7644 60.0065 60.0958 60.1544 60.4468 60.2294C60.7978 60.3043 61.1606 60.3048 61.5117 60.2306C61.9699 60.1422 62.4022 59.9513 62.7762 59.6722C63.1502 59.3931 63.4562 59.033 63.6713 58.6189C63.9208 57.978 64.0307 57.2912 63.9937 56.6044C64.06 56.2011 64.0097 55.7873 63.8486 55.4118C63.7731 55.2914 63.6868 55.1781 63.5908 55.0733C63.2556 54.5949 62.8662 54.1569 62.4304 53.7679V53.7679Z" fill="#37474F"/>
<path d="M63.2203 55.6696C63.2787 55.9606 63.2493 56.2623 63.136 56.5366C63.0227 56.8109 62.8304 57.0453 62.5837 57.2103C62.337 57.3752 62.0469 57.4631 61.7501 57.463C61.4533 57.4629 61.1633 57.3747 60.9167 57.2095C60.6702 57.0444 60.4782 56.8098 60.3651 56.5354C60.252 56.261 60.2229 55.9593 60.2814 55.6683C60.34 55.3774 60.4836 55.1104 60.6941 54.9012C60.9046 54.692 61.1724 54.55 61.4637 54.4931C61.6564 54.4533 61.8551 54.4523 62.0483 54.4901C62.2414 54.5279 62.425 54.6037 62.5885 54.7132C62.752 54.8227 62.8921 54.9637 63.0006 55.1279C63.1091 55.2921 63.1838 55.4762 63.2203 55.6696V55.6696Z" fill="#455A64"/>
<path d="M61.286 54.9121C61.3096 55.0189 61.3116 55.1292 61.2919 55.2367C61.2723 55.3443 61.2314 55.4468 61.1717 55.5383C61.112 55.6298 61.0346 55.7085 60.9441 55.7698C60.8536 55.8311 60.7517 55.8737 60.6445 55.8951C60.5374 55.9165 60.427 55.9164 60.3199 55.8946C60.2128 55.8729 60.1111 55.83 60.0207 55.7685C59.9304 55.707 59.8532 55.6281 59.7938 55.5364C59.7343 55.4447 59.6937 55.342 59.6744 55.2345C59.636 55.0212 59.6817 54.8014 59.8019 54.6211C59.9221 54.4408 60.1074 54.3141 60.319 54.2675C60.5328 54.2248 60.7547 54.2687 60.936 54.3896C61.1173 54.5105 61.2433 54.6984 61.286 54.9121V54.9121Z" fill="white"/>
<path d="M39.7548 73.188C41.8499 74.7997 47.1038 74.4612 49.2473 72.8979C51.3908 71.3347 53.4859 68.192 52.2449 65.6939C47.9741 64.2273 38.8522 66.951 39.7548 73.188Z" fill="#37474F"/>
<path d="M41.1576 56.4593C37.8538 57.668 33.3573 61.1652 33.0189 68.9494C32.7288 75.0898 35.8554 77.8296 37.1286 77.62C38.4017 77.4105 38.8369 75.0575 40.513 72.495C42.1891 69.9325 44.7194 68.1436 49.7961 67.096C53.4061 66.3386 52.8904 63.8728 51.7139 61.2619C50.5374 58.6511 45.5252 54.8637 41.1576 56.4593Z" fill="#455A64"/>
<path d="M91.7464 76.218C81.722 72.9947 75.211 79.2962 79.1757 96.573C83.1403 113.85 94.7763 122.794 106.574 127.581C118.371 132.367 134.455 137.347 140.289 146.711C146.123 156.075 144.447 142.553 140.289 137.766C140.901 132.932 135.712 124.035 129.668 118.201C129.668 109.047 123.141 99.764 115.018 91.6575C107.347 83.97 100.336 79.0545 91.7464 76.218Z" fill="#797979"/>
<path opacity="0.3" d="M99.4669 82.1004C99.5464 81.9658 99.6164 81.8258 99.6764 81.6814C99.6921 81.6179 99.6921 81.5516 99.6764 81.488C99.6689 81.461 99.6514 81.4377 99.6276 81.4228C99.6037 81.4078 99.5752 81.4024 99.5475 81.4075C99.5131 81.4256 99.4851 81.4537 99.4669 81.488C99.1918 81.9384 98.7794 82.2887 98.2904 82.4873C97.8037 82.6843 97.2844 82.7882 96.7593 82.7935C95.9068 82.8252 95.0568 82.6826 94.2613 82.3744C93.483 81.9989 92.7481 81.5395 92.0695 81.0045C92.0695 81.0045 91.8761 80.8917 91.7794 81.0045C91.6827 81.1174 91.7794 81.4719 91.86 81.617C92.1194 82.2508 92.1702 82.9508 92.005 83.6154C91.8244 84.4511 91.3425 85.1912 90.6513 85.6944C89.7927 86.2987 88.7475 86.5785 87.7019 86.4841C87.1825 86.4437 86.6691 86.3464 86.1709 86.194C85.913 86.194 85.6874 86.0006 85.4457 85.92C85.2039 85.8395 84.8655 85.8072 85.0105 86.1134C85.5585 87.1771 86.0903 88.2569 86.6222 89.3367C87.1676 90.4201 87.5737 91.5681 87.8309 92.7534C88.108 94.0327 88.0693 95.3603 87.7181 96.6213C87.3635 97.7334 86.3965 99.1032 85.075 98.4425C84.6559 98.2491 84.6721 98.8776 84.8494 99.071C86.8769 100.993 88.5181 103.285 89.6843 105.824C90.2736 107.083 90.3992 108.51 90.0388 109.853C89.4425 111.464 87.5569 111.207 86.2031 111.078C86.4801 111.358 86.8163 111.574 87.1872 111.707C87.5581 111.841 87.9543 111.89 88.3466 111.851C88.7263 111.874 89.1057 111.805 89.4534 111.651C89.801 111.496 90.1067 111.261 90.345 110.965C90.6882 110.333 90.8943 109.637 90.9498 108.92C91.0053 108.204 90.9091 107.484 90.6673 106.807C89.736 104.014 88.1437 101.487 86.0259 99.4417C88.0243 99.4417 88.7656 95.9444 88.7173 94.3167C88.4561 91.6914 87.5479 89.1719 86.0742 86.9837C86.9418 87.3411 87.8854 87.4739 88.8179 87.3697C89.7504 87.2654 90.6415 86.9276 91.4087 86.3874C91.9578 85.944 92.385 85.3681 92.65 84.7139C92.9151 84.0598 93.0092 83.349 92.9237 82.6484C93.7485 83.1569 94.6709 83.4863 95.6312 83.6154C96.4762 83.8057 97.3593 83.7326 98.1615 83.4059C98.7062 83.0962 99.1572 82.6451 99.4669 82.1004V82.1004Z" fill="white"/>
<path opacity="0.2" d="M136.872 134.93L136.663 134.769C135.515 133.886 134.315 133.073 133.069 132.335C128.637 129.676 123.883 127.581 119.241 125.308C113.638 122.678 108.249 119.611 103.125 116.138C100.073 114.02 97.2099 111.642 94.567 109.031C94.567 108.95 94.4381 109.144 94.567 109.192C103.125 118.862 115.228 124.148 126.606 129.628C128.637 130.611 130.635 131.626 132.618 132.674C134.6 133.721 136.324 135.091 138.21 136.219C137.847 135.711 137.394 135.274 136.872 134.93ZM126.88 117.089C127.025 117.089 127.025 116.831 126.88 116.751C124.314 114.895 121.621 113.22 118.822 111.738C116.115 110.127 113.407 108.66 110.764 107.081C105.803 104.271 101.095 101.036 96.6944 97.411C94.2199 95.2884 91.9087 92.9827 89.7804 90.5132C89.6998 90.5132 89.6676 90.626 89.6999 90.6905C96.5493 100.231 107.508 106.065 117.484 111.771C120.595 113.56 123.625 115.494 126.8 117.089H126.88ZM111.312 96.1378C115.477 98.7789 119.471 101.68 123.27 104.825C123.415 104.937 123.464 104.631 123.383 104.551C119.924 101.197 116.083 98.2596 111.94 95.7993C107.647 93.1552 103.5 90.2823 99.5147 87.1932C99.5147 87.1932 99.418 87.2899 99.5147 87.3221C103.134 90.6373 107.057 93.605 111.231 96.1861L111.312 96.1378Z" fill="white"/>
<path d="M65.9603 134.301C66.2698 133.789 66.6747 133.34 67.1529 132.98C67.9043 132.395 68.7564 131.952 69.6671 131.674C70.6644 131.315 71.7284 131.18 72.7839 131.277C73.8393 131.375 74.8605 131.703 75.7752 132.239C75.9525 132.367 76.5649 132.319 76.7905 132.351C77.1685 132.41 77.5405 132.502 77.9026 132.625C78.6118 132.844 79.2812 133.176 79.8849 133.608C81.1665 134.481 82.0615 135.815 82.3829 137.331C82.4232 137.484 82.4232 137.645 82.3829 137.799C82.1734 138.701 80.5779 137.911 80.0299 137.799C79.0415 137.718 78.0508 137.925 77.1773 138.395C76.4959 138.776 75.9016 139.296 75.4326 139.92C74.9636 140.545 74.6301 141.26 74.4536 142.021C74.3569 142.424 73.9863 143.246 73.6639 142.65C73.4356 141.987 73.3424 141.286 73.3899 140.587C73.3988 139.199 73.7711 137.838 74.4698 136.638C74.2473 136.577 74.0142 136.563 73.7862 136.599C73.5582 136.636 73.3406 136.72 73.1482 136.848C71.386 137.615 69.9727 139.011 69.1836 140.764C69.037 141.285 68.8315 141.788 68.5712 142.263C67.991 143.117 67.2819 141.57 67.2335 141.07C67.1933 140.647 67.1933 140.221 67.2335 139.797C67.3445 138.858 67.6228 137.946 68.0554 137.106C68.6213 136.002 69.3738 135.004 70.2795 134.156C69.8856 134.036 69.4646 134.036 69.0708 134.156C68.362 134.344 67.6875 134.644 67.0724 135.043C66.9273 135.123 65.5735 136.316 65.4607 135.8C65.4468 135.258 65.6236 134.727 65.9603 134.301V134.301Z" fill="#263238"/>
<path d="M46.3156 124.358C46.6338 123.852 47.0373 123.404 47.5082 123.036C48.2543 122.456 49.1012 122.019 50.0062 121.747C51.0062 121.387 52.0728 121.252 53.1309 121.349C54.1891 121.447 55.2129 121.775 56.1304 122.311C56.2916 122.44 56.9201 122.311 57.1296 122.424C57.5128 122.483 57.8903 122.574 58.2578 122.698C58.9671 122.917 59.6364 123.249 60.2401 123.681C61.5254 124.55 62.4214 125.885 62.7382 127.404C62.7785 127.557 62.7785 127.718 62.7382 127.871C62.5286 128.774 60.9331 127.984 60.3691 127.871C59.3806 127.791 58.3902 127.998 57.5165 128.467C56.836 128.844 56.243 129.36 55.7763 129.983C55.3097 130.605 54.9799 131.319 54.8089 132.077C54.7122 132.496 54.3415 133.318 54.0192 132.706C53.7815 132.051 53.6881 131.353 53.7452 130.659C53.7465 129.27 54.1193 127.907 54.825 126.711C54.6026 126.649 54.3695 126.636 54.1415 126.672C53.9135 126.708 53.6959 126.793 53.5035 126.92C51.7795 127.683 50.3968 129.054 49.6194 130.772C49.4686 131.287 49.2633 131.784 49.007 132.255C48.4268 133.125 47.7016 131.562 47.6693 131.078C47.6212 130.655 47.6212 130.228 47.6693 129.805C47.7803 128.866 48.0587 127.954 48.4913 127.114C49.0572 126.01 49.8096 125.012 50.7154 124.164C50.3215 124.044 49.9005 124.044 49.5066 124.164C48.7904 124.345 48.1095 124.645 47.4921 125.051C47.3632 125.131 46.0094 126.308 45.8804 125.808C45.8617 125.29 46.0147 124.78 46.3156 124.358V124.358Z" fill="#263238"/>
<defs>
<linearGradient id="paint0_linear_103_2761" x1="108" y1="113" x2="66.5" y2="183" gradientUnits="userSpaceOnUse">
<stop stop-color="white"/>
<stop offset="1" stop-color="white" stop-opacity="0"/>
</linearGradient>
</defs>
</svg>
