<svg width="260" height="290" viewBox="0 0 260 290" fill="none" xmlns="http://www.w3.org/2000/svg">
<g filter="url(#filter0_d_65_1514)">
<rect x="10" y="10" width="230" height="260" rx="25" fill="#BAD5DB"/>
</g>
<path d="M79.144 239.128V243H63.368V220.28H78.856V224.152H67.784V229.624H77.352V233.208H67.784V239.128H79.144ZM108.125 243H103.837V233.592C103.837 232.269 103.602 231.299 103.133 230.68C102.685 230.04 102.056 229.72 101.245 229.72C100.413 229.72 99.613 230.051 98.845 230.712C98.0983 231.352 97.565 232.195 97.245 233.24V243H92.957V233.592C92.957 232.248 92.7223 231.267 92.253 230.648C91.805 230.029 91.1757 229.72 90.365 229.72C89.533 229.72 88.733 230.04 87.965 230.68C87.2183 231.32 86.685 232.163 86.365 233.208V243H82.077V226.232H85.949V229.336C86.589 228.248 87.4423 227.416 88.509 226.84C89.5757 226.243 90.8023 225.944 92.189 225.944C93.5757 225.944 94.653 226.285 95.421 226.968C96.2103 227.651 96.7117 228.493 96.925 229.496C97.6077 228.344 98.4717 227.469 99.517 226.872C100.584 226.253 101.778 225.944 103.101 225.944C104.146 225.944 104.989 226.136 105.629 226.52C106.29 226.883 106.802 227.384 107.165 228.024C107.528 228.643 107.773 229.347 107.901 230.136C108.05 230.925 108.125 231.725 108.125 232.536V243ZM121.906 243.32C120.605 243.32 119.453 243.032 118.45 242.456C117.469 241.859 116.701 241.059 116.146 240.056V249.816H111.858V226.232H115.602V229.112C116.242 228.131 117.053 227.363 118.034 226.808C119.016 226.232 120.136 225.944 121.394 225.944C122.525 225.944 123.56 226.168 124.498 226.616C125.458 227.064 126.29 227.693 126.994 228.504C127.698 229.293 128.242 230.211 128.626 231.256C129.032 232.28 129.234 233.389 129.234 234.584C129.234 236.205 128.914 237.677 128.274 239C127.656 240.323 126.792 241.379 125.682 242.168C124.594 242.936 123.336 243.32 121.906 243.32ZM120.466 239.672C121.128 239.672 121.725 239.533 122.258 239.256C122.792 238.979 123.25 238.605 123.634 238.136C124.04 237.645 124.338 237.101 124.53 236.504C124.744 235.885 124.85 235.245 124.85 234.584C124.85 233.88 124.733 233.229 124.498 232.632C124.285 232.035 123.965 231.512 123.538 231.064C123.112 230.595 122.61 230.232 122.034 229.976C121.48 229.72 120.872 229.592 120.21 229.592C119.805 229.592 119.389 229.667 118.962 229.816C118.557 229.944 118.162 230.136 117.778 230.392C117.394 230.648 117.053 230.947 116.754 231.288C116.477 231.629 116.274 232.003 116.146 232.408V236.344C116.402 236.963 116.744 237.528 117.17 238.04C117.618 238.552 118.13 238.957 118.706 239.256C119.282 239.533 119.869 239.672 120.466 239.672ZM142.124 229.944C140.822 229.944 139.66 230.2 138.635 230.712C137.612 231.203 136.876 231.917 136.428 232.856V243H132.14V226.232H136.076V229.816C136.673 228.664 137.43 227.757 138.348 227.096C139.265 226.435 140.236 226.072 141.26 226.008C141.494 226.008 141.676 226.008 141.804 226.008C141.932 226.008 142.038 226.019 142.124 226.04V229.944ZM152.072 243.32C150.728 243.32 149.512 243.096 148.424 242.648C147.336 242.179 146.408 241.549 145.64 240.76C144.872 239.949 144.274 239.032 143.848 238.008C143.442 236.963 143.24 235.864 143.24 234.712C143.24 233.112 143.592 231.651 144.296 230.328C145.021 229.005 146.045 227.949 147.368 227.16C148.712 226.349 150.29 225.944 152.104 225.944C153.938 225.944 155.506 226.349 156.808 227.16C158.109 227.949 159.101 229.005 159.784 230.328C160.488 231.629 160.84 233.037 160.84 234.552C160.84 234.808 160.829 235.075 160.808 235.352C160.786 235.608 160.765 235.821 160.744 235.992H147.784C147.869 236.845 148.114 237.592 148.52 238.232C148.946 238.872 149.48 239.363 150.12 239.704C150.781 240.024 151.485 240.184 152.232 240.184C153.085 240.184 153.885 239.981 154.632 239.576C155.4 239.149 155.922 238.595 156.2 237.912L159.88 238.936C159.474 239.789 158.888 240.547 158.12 241.208C157.373 241.869 156.488 242.392 155.464 242.776C154.44 243.139 153.309 243.32 152.072 243.32ZM147.688 233.272H156.456C156.37 232.419 156.125 231.683 155.72 231.064C155.336 230.424 154.824 229.933 154.184 229.592C153.544 229.229 152.829 229.048 152.04 229.048C151.272 229.048 150.568 229.229 149.928 229.592C149.309 229.933 148.797 230.424 148.392 231.064C148.008 231.683 147.773 232.419 147.688 233.272ZM169.628 243.32C168.199 243.32 166.833 243.085 165.532 242.616C164.231 242.147 163.111 241.453 162.172 240.536L163.708 237.752C164.711 238.563 165.692 239.16 166.652 239.544C167.633 239.928 168.572 240.12 169.468 240.12C170.3 240.12 170.961 239.971 171.452 239.672C171.964 239.373 172.22 238.925 172.22 238.328C172.22 237.923 172.081 237.613 171.804 237.4C171.527 237.165 171.121 236.963 170.588 236.792C170.076 236.621 169.447 236.429 168.7 236.216C167.463 235.811 166.428 235.416 165.596 235.032C164.764 234.648 164.135 234.168 163.708 233.592C163.303 232.995 163.1 232.237 163.1 231.32C163.1 230.211 163.377 229.261 163.932 228.472C164.508 227.661 165.297 227.032 166.3 226.584C167.324 226.136 168.519 225.912 169.884 225.912C171.079 225.912 172.209 226.104 173.276 226.488C174.343 226.851 175.313 227.448 176.188 228.28L174.46 231C173.607 230.339 172.796 229.859 172.028 229.56C171.26 229.24 170.481 229.08 169.692 229.08C169.244 229.08 168.817 229.133 168.412 229.24C168.028 229.347 167.708 229.528 167.452 229.784C167.217 230.019 167.1 230.36 167.1 230.808C167.1 231.213 167.207 231.533 167.42 231.768C167.655 231.981 167.996 232.173 168.444 232.344C168.913 232.515 169.479 232.707 170.14 232.92C171.484 233.304 172.615 233.699 173.532 234.104C174.471 234.509 175.175 235.011 175.644 235.608C176.113 236.184 176.348 236.984 176.348 238.008C176.348 239.672 175.74 240.973 174.524 241.912C173.308 242.851 171.676 243.32 169.628 243.32ZM178.113 238.04C178.113 236.952 178.411 236.003 179.009 235.192C179.627 234.36 180.481 233.72 181.569 233.272C182.657 232.824 183.905 232.6 185.312 232.6C186.017 232.6 186.731 232.653 187.457 232.76C188.182 232.867 188.811 233.037 189.345 233.272V232.376C189.345 231.309 189.025 230.488 188.385 229.912C187.766 229.336 186.838 229.048 185.601 229.048C184.683 229.048 183.809 229.208 182.977 229.528C182.145 229.848 181.27 230.317 180.353 230.936L178.977 228.12C180.086 227.395 181.217 226.851 182.369 226.488C183.542 226.125 184.769 225.944 186.049 225.944C188.438 225.944 190.294 226.541 191.617 227.736C192.961 228.931 193.633 230.637 193.633 232.856V238.2C193.633 238.648 193.707 238.968 193.857 239.16C194.027 239.352 194.294 239.469 194.657 239.512V243C194.273 243.064 193.921 243.117 193.601 243.16C193.302 243.203 193.046 243.224 192.833 243.224C191.979 243.224 191.329 243.032 190.881 242.648C190.454 242.264 190.187 241.795 190.081 241.24L189.985 240.376C189.259 241.315 188.353 242.04 187.265 242.552C186.177 243.064 185.067 243.32 183.937 243.32C182.827 243.32 181.825 243.096 180.929 242.648C180.054 242.179 179.361 241.549 178.849 240.76C178.358 239.949 178.113 239.043 178.113 238.04ZM188.545 238.904C188.779 238.648 188.971 238.392 189.121 238.136C189.27 237.88 189.345 237.645 189.345 237.432V235.736C188.833 235.523 188.278 235.363 187.681 235.256C187.083 235.128 186.518 235.064 185.985 235.064C184.875 235.064 183.958 235.309 183.233 235.8C182.529 236.269 182.177 236.899 182.177 237.688C182.177 238.115 182.294 238.52 182.529 238.904C182.763 239.288 183.105 239.597 183.553 239.832C184.001 240.067 184.534 240.184 185.153 240.184C185.793 240.184 186.422 240.067 187.041 239.832C187.659 239.576 188.161 239.267 188.545 238.904Z" fill="black"/>
<circle cx="124.5" cy="122.5" r="74.5" fill="#9998D3"/>
<mask id="mask0_65_1514" style="mask-type:alpha" maskUnits="userSpaceOnUse" x="50" y="48" width="149" height="149">
<circle cx="124.5" cy="122.5" r="74.5" fill="#9998D3"/>
</mask>
<g mask="url(#mask0_65_1514)">
<path d="M204.222 28.7908C189.338 60.4038 182.62 73.5826 182.62 73.5826C182.62 73.5826 141.996 103.328 135.41 107.148C128.824 110.967 116.665 116.767 116.665 116.767C109.196 120.914 106.414 123.665 104.187 127.993C101.961 132.322 103.883 140.698 106.51 144.536C109.137 148.374 111.431 151.171 115.186 151.996C117.61 152.547 120.101 152.746 122.582 152.588C123.506 152.244 124.371 151.696 125.326 151.435C126.281 151.173 127.76 151.22 128.889 150.797C130.715 150.127 131.811 148.238 133.505 147.298C134.341 146.847 135.271 146.642 136.087 146.188C136.762 145.817 137.375 145.344 137.906 144.786C138.398 144.357 138.798 143.834 139.084 143.247C139.369 142.661 139.534 142.023 139.567 141.371C139.503 140.826 139.362 140.293 139.15 139.787L138.36 137.574C138.403 136.143 138.87 134.758 139.702 133.593C141.049 132.164 145.6 127.531 145.6 127.531L145.956 127.329C148.558 125.608 150.494 123.822 152.489 122.437C155.856 120.214 159.394 118.262 163.071 116.6C182.621 107.238 194.861 99.824 202.258 96.2036C209.654 92.5831 211.072 88.4321 217.094 80.1083C227.33 65.9516 239.213 44.7203 239.213 44.7203L244.936 -5.47435C223.477 -6.22722 213.956 8.09882 204.222 28.7908ZM115.382 152.016L116.252 152.22L115.382 152.016Z" fill="#B16668"/>
<path d="M159.473 89.9258L150.212 96.2098C153.742 98.7366 156.637 102.048 158.67 105.883C160.564 109.593 161.671 113.654 161.923 117.811L172.02 112.875C172.02 112.875 172.528 107.725 168.423 100.023C166.253 96.0166 163.191 92.5619 159.473 89.9258Z" fill="#BA68C8"/>
<path opacity="0.7" d="M159.473 89.9258L150.212 96.2098C153.742 98.7366 156.637 102.048 158.67 105.883C160.564 109.593 161.671 113.654 161.923 117.811L172.02 112.875C172.02 112.875 172.528 107.725 168.423 100.023C166.253 96.0166 163.191 92.5619 159.473 89.9258Z" fill="white"/>
<path d="M244.902 -6.13049C232.539 -5.68923 223.299 -4.03027 214.627 9.31169C205.955 22.6537 182.633 71.8436 182.633 71.8436L155.134 92.2262C158.788 94.7849 161.793 98.1624 163.909 102.089C166.055 106.321 167.288 110.956 167.53 115.695C167.53 115.695 193.658 102.197 202.287 97.9068C210.917 93.6171 213.9 88.6318 223.636 74.5248C233.373 60.4178 240.883 49.0374 240.883 49.0374L244.902 -6.13049Z" fill="#263238"/>
<path d="M147.685 126.036C146.86 126.336 146.003 126.544 145.132 126.654C137.987 128.058 130.599 127.575 123.697 125.251C123.188 125.13 122.714 124.892 122.311 124.558C121.909 124.223 121.589 123.8 121.377 123.322C121.26 122.664 121.327 121.986 121.57 121.363L122.871 116.588C123.492 114.636 123.845 112.608 123.921 110.562C123.983 109.266 123.592 107.99 122.814 106.952C121.98 105.98 121.339 105.66 120.161 106.177C119.366 106.938 118.786 107.898 118.483 108.957C116.695 113.25 114.395 114.921 111.476 119.853C108.557 124.786 106.509 127.906 97.2599 134.27C93.9929 136.518 62.9737 153.093 62.9737 153.093C62.9737 153.093 59.8859 148.715 44.6924 124.338C34.3318 107.694 31.1074 103.698 19.93 100.143C19.93 100.143 4.82914 114.71 12.1558 141.059C15.0672 148.228 33.5778 171.252 40.6701 178.734C52.3662 191.06 59.022 195.751 69.0296 188.314C79.8471 180.286 88.4726 171.626 97.7643 163.229C105.763 156.109 109.181 153.539 115.184 152.015C121.814 150.047 128.07 146.989 133.695 142.966C134.877 142.201 135.947 141.275 136.873 140.215C137.708 139.17 138.304 137.944 139.176 136.922C140.784 135.386 142.478 133.943 144.249 132.598C145.894 131.165 147.083 129.282 147.671 127.181C147.629 126.802 147.816 126.306 147.685 126.036Z" fill="#FFA8A7"/>
<path d="M89.7249 138.292L97.9853 133.333C101.952 134.876 105.235 137.788 107.24 141.543C109.222 145.369 110.364 149.573 110.591 153.876L104.204 158.486L89.7249 138.292Z" fill="#F0F0F0"/>
<path d="M18.6878 98.1028C30.0552 101.736 33.9814 103.428 39.155 111.116C44.3286 118.805 63.0402 151.617 63.0402 151.617L92.2555 136.09C96.1501 138.002 99.466 140.916 101.863 144.532C104.493 148.624 105.826 153.414 105.688 158.276C105.688 158.276 86.1307 176.121 74.8095 185.246C63.4884 194.372 58.4777 195.855 48.081 187.395C37.6842 178.934 15.6927 151.908 15.6927 151.908C15.6927 151.908 -2.51785 120.431 18.6878 98.1028Z" fill="#455A64"/>
<path d="M115.092 151.947C116.56 151.668 117.897 150.918 118.901 149.812C120.226 147.807 121.901 146.667 122.622 144.365C122.846 143.493 123.149 142.643 123.526 141.825C124.27 140.583 125.28 139.522 126.482 138.715C127.574 137.874 128.457 136.933 129.633 136.04C130.187 135.64 131.169 135.302 131.716 135.969C132.037 135.091 132.506 134.275 133.101 133.555C133.747 132.828 135.448 131.611 136.339 132.609C136.571 132.89 136.741 133.216 136.837 133.568C137.584 135.619 138.311 137.668 139.058 139.719C139.27 140.225 139.41 140.758 139.475 141.302C139.442 141.954 139.277 142.592 138.992 143.179C138.706 143.766 138.306 144.289 137.814 144.717C137.283 145.276 136.669 145.749 135.994 146.12C135.178 146.573 134.249 146.778 133.413 147.23C131.721 148.15 130.625 150.039 128.797 150.729C127.668 151.151 126.393 151.045 125.234 151.366C124.075 151.687 123.414 152.175 122.49 152.519C120.01 152.684 117.518 152.491 115.092 151.947Z" fill="#B16668"/>
<path d="M115.092 151.947C116.56 151.668 117.897 150.918 118.901 149.812C120.226 147.807 121.901 146.667 122.622 144.365C122.846 143.493 123.149 142.643 123.526 141.825C124.27 140.583 125.28 139.522 126.482 138.715C127.574 137.874 128.457 136.933 129.633 136.04C130.187 135.64 131.169 135.302 131.716 135.969C132.037 135.091 132.506 134.275 133.101 133.555C133.747 132.828 135.448 131.611 136.339 132.609C136.571 132.89 136.741 133.216 136.837 133.568C137.584 135.619 138.311 137.668 139.058 139.719C139.27 140.225 139.41 140.758 139.475 141.302C139.442 141.954 139.277 142.592 138.992 143.179C138.706 143.766 138.306 144.289 137.814 144.717C137.283 145.276 136.669 145.749 135.994 146.12C135.178 146.573 134.249 146.778 133.413 147.23C131.721 148.15 130.625 150.039 128.797 150.729C127.668 151.151 126.393 151.045 125.234 151.366C124.075 151.687 123.414 152.175 122.49 152.519C120.01 152.684 117.518 152.491 115.092 151.947Z" fill="#B16668"/>
<path d="M148.527 113.286C144.346 115.582 140.547 115.01 135.193 114.561C133.48 114.359 131.754 114.295 130.031 114.368C129.398 114.403 128.771 114.507 128.161 114.678C127.424 115.013 126.721 115.421 126.064 115.895C123.051 117.575 119.279 118.33 117.025 121.133C115.719 122.744 115.13 124.9 113.828 126.473C113.236 127.103 112.682 127.768 112.169 128.464C111.928 128.825 111.789 129.244 111.767 129.677C111.745 130.11 111.841 130.541 112.045 130.924C112.287 131.256 112.607 131.525 112.976 131.708C114.296 132.397 115.817 132.596 117.27 132.27C120.226 131.573 122.2 128.801 124.785 127.257C126.782 126.12 128.993 125.409 131.279 125.169C132.323 124.973 133.38 124.846 134.441 124.789C135.275 124.865 136.101 125.019 136.906 125.249C140.518 125.922 148.527 113.286 148.527 113.286Z" fill="#B16668"/>
</g>
<defs>
<filter id="filter0_d_65_1514" x="0" y="0" width="260" height="290" filterUnits="userSpaceOnUse" color-interpolation-filters="sRGB">
<feFlood flood-opacity="0" result="BackgroundImageFix"/>
<feColorMatrix in="SourceAlpha" type="matrix" values="0 0 0 0 0 0 0 0 0 0 0 0 0 0 0 0 0 0 127 0" result="hardAlpha"/>
<feOffset dx="5" dy="5"/>
<feGaussianBlur stdDeviation="7.5"/>
<feComposite in2="hardAlpha" operator="out"/>
<feColorMatrix type="matrix" values="0 0 0 0 0 0 0 0 0 0 0 0 0 0 0 0 0 0 0.15 0"/>
<feBlend mode="normal" in2="BackgroundImageFix" result="effect1_dropShadow_65_1514"/>
<feBlend mode="normal" in="SourceGraphic" in2="effect1_dropShadow_65_1514" result="shape"/>
</filter>
</defs>
</svg>
