<svg width="67" height="67" viewBox="0 0 67 67" fill="none" xmlns="http://www.w3.org/2000/svg">
<path d="M1 25C1 11.7452 11.7452 1 25 1H42C55.2548 1 66 11.7452 66 25V52C66 59.732 59.732 66 52 66H15C7.26802 66 1 59.732 1 52V25Z" fill="#FFFB9F" stroke="black" stroke-width="2"/>
<mask id="mask0_92_594" style="mask-type:alpha" maskUnits="userSpaceOnUse" x="0" y="0" width="67" height="67">
<rect width="67" height="67" rx="25" fill="#FFFB9F"/>
</mask>
<g mask="url(#mask0_92_594)">
<path d="M16.2387 62.3208C16.4415 62.2703 16.6453 62.221 16.8481 62.1706C17.053 62.1158 17.258 62.1158 17.4641 62.1706C17.5565 62.2089 17.649 62.2473 17.7403 62.2857C17.9141 62.3866 18.0534 62.5225 18.1559 62.6946C18.1948 62.7856 18.2338 62.8766 18.2728 62.9665C18.3207 63.1178 18.3285 63.2691 18.294 63.4204C18.2862 63.5717 18.2405 63.7131 18.157 63.8447C18.0846 63.9773 17.9843 64.0837 17.8584 64.1648C17.747 64.2657 17.6156 64.3336 17.4641 64.3687C17.4351 64.3764 17.405 64.383 17.3761 64.3907C17.6646 65.1131 17.7069 66.215 17.7203 67.2949C17.8629 66.8629 18.0066 66.4309 18.1492 65.999C18.3497 65.3916 18.9378 65.0605 19.5739 65.203C19.8502 65.2644 20.1253 65.4903 20.2657 65.726C20.4105 65.9705 20.4729 66.3312 20.3826 66.6042C20.1287 67.3738 19.8736 68.1445 19.6196 68.9141C19.4191 69.5215 18.8309 69.8526 18.1948 69.7101C18.0589 69.6794 17.923 69.6092 17.8027 69.5171C17.8183 69.641 17.8361 69.7583 17.8595 69.8647C17.9464 70.2637 18.0589 70.688 18.3708 70.9588C18.7028 71.2483 19.1216 71.2746 19.5505 71.1649C19.5505 70.7878 19.5505 70.4107 19.5505 70.0335C19.5505 69.3943 20.0808 68.9218 20.7079 68.8944C20.9964 68.8824 21.3262 69.0304 21.5267 69.2277C21.7372 69.4338 21.8653 69.7419 21.8653 70.0335C21.8653 70.9643 21.8653 71.8951 21.8653 72.827C21.8653 73.2239 21.6603 73.5571 21.354 73.7589C21.7294 74.1053 22.2273 74.2983 22.7164 74.1634C23.1998 74.0297 23.5541 73.6295 23.8949 73.225C23.6443 73.0484 23.3792 72.8939 23.0951 72.7722C22.9503 72.7152 22.8166 72.6395 22.703 72.5288C22.6428 72.452 22.5827 72.3753 22.5225 72.2985C22.3532 72.0398 22.3387 71.712 22.4056 71.4204C22.468 71.1485 22.6974 70.8777 22.9369 70.7396C23.1709 70.6047 23.5652 70.5236 23.8292 70.6244C24.16 70.7505 24.4875 70.8886 24.7905 71.0706C25.0913 71.2504 25.3754 71.4653 25.6394 71.6945C25.8388 71.8677 26.0215 72.0595 26.1863 72.2657C26.4058 72.5408 26.6141 72.8171 26.7812 73.1274C26.8747 73.3017 26.9193 73.4815 26.9271 73.6657C27.0162 73.5615 27.1198 73.4705 27.2279 73.408C27.5142 73.2436 27.8038 73.2414 28.1201 73.2929C29.6507 73.5429 31.0075 74.4967 31.8563 75.7564C32.1036 76.1237 32.0468 76.5732 31.824 76.9229C31.8831 76.9657 31.9388 77.015 31.9989 77.0556C32.508 76.1653 32.8912 75.2049 33.134 74.2117C33.7968 75.1161 34.5532 76.0842 35.6549 76.3407C36.2108 76.4701 36.839 76.2837 37.2779 75.9318C37.22 75.8825 37.1654 75.8288 37.1075 75.7805C37.0228 75.7104 36.9359 75.6402 36.8479 75.5744C36.7978 75.5393 36.7187 75.4823 36.6864 75.4593C36.2743 75.1688 35.842 74.9067 35.3942 74.6732C35.1625 74.5526 34.9275 74.443 34.6902 74.3366C34.6791 74.3312 34.6757 74.3301 34.6679 74.3268C34.6256 74.3092 34.5833 74.2928 34.5421 74.2763C34.414 74.227 34.2847 74.1788 34.1544 74.1338C33.6765 73.9672 33.1875 73.8345 32.6918 73.7315C32.058 73.5999 31.7505 72.9015 31.8831 72.3292C32.0279 71.7043 32.7163 71.4105 33.3078 71.5333C35.5792 72.0047 37.6923 73.1329 39.3632 74.7149C39.6328 74.9703 39.7253 75.3201 39.6785 75.6555C40.2577 75.9537 40.9517 76.1215 41.531 75.8408C41.7048 75.7564 41.844 75.615 41.9476 75.4516C41.7248 75.3529 41.5009 75.2565 41.2737 75.1688C40.6888 74.9429 40.2845 74.4134 40.4649 73.7665C40.6187 73.2173 41.3071 72.7458 41.8897 72.9706C42.6795 73.2765 43.4392 73.6372 44.1722 74.0395C44.1777 73.999 44.18 73.9595 44.1889 73.9178C44.3192 73.3565 45.0455 72.9103 45.6136 73.1219C47.5474 73.8444 49.3064 74.8574 50.8904 76.1675C51.3861 76.5776 51.2836 77.357 50.8904 77.7791C50.4426 78.2593 49.7163 78.1618 49.2529 77.7791C49.1582 77.7002 49.0624 77.6224 48.9655 77.5456C48.9265 77.5149 48.8864 77.4842 48.8474 77.4535C48.6792 77.3297 48.511 77.2058 48.3395 77.0873C48.2882 77.0512 48.2325 77.0216 48.1802 76.9865C49.6963 78.4468 50.9639 80.1549 51.9063 82.0516C52.0277 82.0954 52.1525 82.1206 52.2795 82.0932C52.793 81.9847 52.8744 81.2754 52.6883 80.7919C52.5034 80.3084 52.167 79.8304 52.2684 79.3228C52.6705 79.6846 53.0916 80.0562 53.6107 80.2174C54.1298 80.3797 54.7792 80.2711 55.0789 79.8227C55.2337 79.5903 55.276 79.3052 55.305 79.0301C55.4855 77.3735 55.3785 75.6873 54.992 74.0648C55.5579 74.7708 56.801 74.5636 57.358 73.851C57.9139 73.1384 57.9272 72.1472 57.7512 71.2658C57.5752 70.3843 57.2355 69.5314 57.1664 68.6357C57.7991 69.2003 58.6335 69.5413 59.4856 69.584C59.479 66.9385 58.8808 64.2964 57.7445 61.8987C58.3494 62.1706 59.108 62.4282 59.6293 62.0237C60.2142 61.5698 60.0293 60.6642 59.7508 59.9845C58.9933 58.1361 57.9395 56.4049 56.6406 54.8744C57.7846 55.3524 59.059 55.5235 60.291 55.3645C59.4533 53.3615 58.2659 51.501 56.7977 49.8872C57.7813 50.0341 58.785 50.0538 59.7742 49.9453C59.9535 49.9256 60.1462 49.8949 60.2766 49.771C60.5428 49.5166 60.3757 49.077 60.1874 48.7635C59.1169 46.9742 57.7846 45.3374 56.2452 43.9187C56.9236 44.411 57.9072 43.4999 57.7691 42.681C57.6309 41.862 56.8712 41.3029 56.1527 40.8698C55.3596 40.3918 52.3798 39.5465 52.0144 38.812C51.6223 38.0215 53.4246 36.0065 53.7477 35.0702C53.8156 34.8739 53.8758 34.6558 53.7978 34.4639C53.7076 34.2435 53.467 34.1273 53.2431 34.0396C52.1458 33.6066 50.9751 33.3577 49.7954 33.3051C51.3248 32.6681 52.5736 31.4062 53.1807 29.8845C53.2965 29.5951 53.3879 29.2629 53.2553 28.98C53.1484 28.752 52.9189 28.6084 52.6983 28.4801C51.7381 27.9243 50.7378 27.4375 49.7063 27.0253C50.8982 26.9704 52.0077 26.1065 52.3363 24.9773C52.3931 24.781 52.4277 24.5706 52.3697 24.3743C52.2895 24.1046 52.05 23.9149 51.8217 23.7472C50.6398 22.8844 49.3676 22.1422 48.0309 21.537C48.8563 21.6521 49.8244 21.3331 50.1285 20.57C50.4738 19.7039 49.8132 18.7709 49.0101 18.2491C48.8229 18.9584 48.5934 19.6568 48.3138 20.3343C48.0777 20.9066 47.5519 21.3089 46.8891 21.1302C46.3355 20.9811 45.8453 20.2992 46.0804 19.7291C46.4201 18.9047 46.6875 18.0594 46.8846 17.1988C46.8133 17.1571 46.7443 17.1122 46.6752 17.0672C46.7521 17.0804 46.8323 17.0804 46.9136 17.0727C47.1297 16.0915 47.25 15.0916 47.26 14.0775C47.2634 13.7475 47.2534 13.4164 47.2355 13.0864C46.8791 12.8397 46.3065 13.0184 45.9745 13.3408C45.6036 13.7004 45.3685 14.1937 44.9408 14.4853C45.3908 13.3144 45.7373 11.7818 44.7759 10.9771C42.9758 12.3749 41.3773 13.9997 40.2878 16.0224C39.5894 17.3205 37.5909 16.1671 38.2883 14.8723C38.6637 14.1762 39.0959 13.5217 39.5716 12.9022C40.1051 11.375 40.6376 9.84782 41.1712 8.32062C39.1572 10.1866 37.5174 12.4429 36.3756 14.9217C36.3311 13.3276 36.7956 11.7675 37.2556 10.2392C37.8316 8.3272 38.4064 6.41519 38.9823 4.50208C36.878 6.94252 35.1815 9.72284 33.9829 12.6994C33.9439 11.1437 33.603 9.59566 32.9836 8.16494C31.9198 9.2854 33.1819 11.5296 31.9655 12.4878C29.8724 9.79081 27.1588 7.33501 24.2893 5.43177C25.3475 7.04448 26.4047 8.6561 27.4618 10.2688C26.2164 9.50138 24.9175 8.81726 23.5763 8.22524C22.7375 7.85468 21.7194 7.5499 20.9051 7.84591C23.671 9.70749 26.2431 11.9254 27.8305 14.8734C28.529 16.1693 26.5294 17.3194 25.831 16.0235C24.4463 13.4471 22.2385 11.5175 19.839 9.88181C19.8802 10.1636 19.9638 10.4409 20.0941 10.6898C20.5352 11.5274 21.3306 12.1183 22.1015 12.6797C21.0042 12.5898 19.8892 12.7827 18.8777 13.2114C18.8654 13.4986 18.8576 13.7859 18.861 14.0742C18.8666 14.6213 18.9067 15.1651 18.9735 15.7034C19.5338 16.1123 20.0952 16.5212 20.6556 16.9291C20.2155 17.1922 19.7922 17.4805 19.3834 17.7875C19.5617 18.4431 19.78 19.09 20.0418 19.7247C20.2779 20.2981 19.7822 20.9778 19.233 21.1259C18.5803 21.3024 18.0445 20.9 17.8083 20.3299C17.6936 20.0514 17.5877 19.7697 17.4886 19.4846C16.9305 20.0799 16.4237 20.7224 15.9747 21.401C16.5863 21.8768 17.3973 22.095 18.1692 21.992C16.5306 23.6814 15.0613 25.5298 13.7892 27.5C14.1646 27.6611 14.5556 27.7839 14.9555 27.8694C14.9209 27.7653 14.8964 27.6589 14.8909 27.5548C14.8608 26.8992 15.4478 26.4705 16.0483 26.4157C18.0199 26.2326 20.0407 26.4519 21.9288 27.0384C22.0469 27.0746 22.1505 27.1305 22.2474 27.193C22.2485 27.1919 22.2485 27.1908 22.2485 27.1897C23.954 24.5355 28.2037 28.2784 25.6661 29.8966C25.3954 30.0698 25.0768 30.1619 24.7571 30.2024C23.9384 30.3066 23.0539 30.0522 22.5036 29.4471C22.4045 29.3374 22.3231 29.2135 22.2507 29.0842C21.9722 29.2607 21.6247 29.333 21.3128 29.2366C20.8639 29.0973 20.4105 28.9778 19.9493 28.8825C19.7276 28.8364 19.5048 28.7958 19.2809 28.7608C19.2364 28.7542 19.135 28.7399 19.1027 28.7344C19.0058 28.7224 18.9089 28.7114 18.812 28.7016C17.9631 28.616 17.1099 28.6128 16.2599 28.6796C14.8975 30.4985 16.9817 32.178 18.5803 33.4487C20.9519 31.5235 23.8348 30.3483 26.9082 30.0303C27.5342 29.9656 28.0656 30.6037 28.0656 31.1694C28.0656 31.8316 27.5297 32.2449 26.9082 32.3085C26.33 32.3677 25.5514 32.5168 24.8797 32.701C24.2191 32.8819 23.5396 33.1209 22.9882 33.372C21.6603 33.9782 20.4974 34.7435 19.4659 35.6973C19.0091 36.1205 18.2828 36.1446 17.8284 35.6973C17.4596 35.3344 17.3917 34.7259 17.6613 34.2929C16.4838 34.9452 15.3387 35.6337 14.3016 36.536C14.8686 36.9647 15.645 37.1116 16.3334 36.9219C15.0011 37.8253 13.8839 39.0335 13.0941 40.4225C13.5842 40.7788 14.2793 40.8391 14.824 40.5705C13.0863 41.4257 11.3162 43.8201 10.8116 45.617C11.5267 46.0862 12.1951 46.266 13.0473 46.403C11.5156 47.9237 10.2067 49.6603 9.17184 51.5438C9.03037 51.8025 8.89001 52.1139 9.01811 52.3792C9.16516 52.6862 9.58846 52.7508 9.92487 52.6774C10.2613 52.6039 10.5799 52.4351 10.9252 52.4285C10.3192 53.0797 9.78563 53.7945 9.33113 54.5554C9.34005 54.5675 9.35119 54.5773 9.35898 54.5905C11.3195 57.441 13.6388 60.0272 16.2387 62.3208ZM32.1259 70.0335C32.0947 66.7884 32.919 63.5827 34.4931 60.7322C35.2049 59.4418 37.2044 60.594 36.4926 61.8833C35.1113 64.3863 34.414 67.1885 34.4418 70.0346C34.4563 71.5026 32.1404 71.4993 32.1259 70.0335ZM46.8657 47.131C44.5698 49.7732 42.6862 52.7519 41.2525 55.928C40.5563 57.4695 39.9871 59.0679 39.5237 60.6916C39.0302 62.4238 38.5278 64.281 38.501 66.0878C38.4788 67.5558 36.1629 67.5547 36.1851 66.0878C36.2141 64.1429 36.7176 62.1388 37.2389 60.2695C37.7469 58.4507 38.4052 56.679 39.1739 54.9523C40.7 51.5273 42.7597 48.36 45.2282 45.5194C45.637 45.0502 46.4491 45.1094 46.8657 45.5194C47.3324 45.9788 47.2723 46.664 46.8657 47.131ZM47.5998 35.8924C47.3013 36.3957 46.5304 36.6511 46.0158 36.3014C43.203 34.3905 40.0372 33.1286 36.6664 32.5683C36.0459 32.4653 35.705 31.7132 35.8576 31.1661C36.0348 30.5302 36.6664 30.2682 37.2824 30.3702C40.8225 30.9589 44.2301 32.326 47.1843 34.3334C47.7012 34.6843 47.9362 35.3267 47.5998 35.8924ZM42.2317 27.1919C42.3843 27.4287 42.4611 27.6995 42.4812 27.9769C42.7018 27.739 43.0203 27.5844 43.349 27.5778C45.5167 27.535 47.6276 27.9878 49.6116 28.8342C50.2053 29.0875 50.2911 29.902 50.0271 30.3932C49.8945 30.6399 49.6038 30.8438 49.3353 30.9173C49.0101 31.005 48.7394 30.9293 48.4431 30.8021C48.4308 30.7967 48.4252 30.7945 48.4163 30.7901C48.3573 30.766 48.2982 30.7429 48.2392 30.7199C48.1423 30.6826 48.0443 30.6465 47.9473 30.6114C47.719 30.5292 47.4884 30.4535 47.2556 30.3844C46.8234 30.2551 46.3845 30.1476 45.9422 30.061C45.7194 30.0172 45.4944 29.981 45.2694 29.9492C45.226 29.9437 45.1547 29.9349 45.1179 29.9316C45.0143 29.9196 44.9107 29.9097 44.8071 29.9009C44.3226 29.8604 43.8369 29.8472 43.3501 29.856C42.8198 29.867 42.4054 29.5019 42.2551 29.0381C42.1782 29.185 42.088 29.3254 41.9766 29.4482C41.4263 30.0533 40.5418 30.3077 39.723 30.2035C39.4033 30.163 39.0848 30.0698 38.8141 29.8977C36.2754 28.2817 40.5262 24.5377 42.2317 27.1919ZM35.5157 25.4619C36.5672 24.5267 37.875 23.9895 39.2886 23.8985C39.5938 23.8788 39.889 24.0355 40.1074 24.2318C40.3346 24.4379 40.4326 24.7427 40.4471 25.0376C40.4594 25.3215 40.309 25.6461 40.1074 25.8434C39.8835 26.0638 39.5972 26.157 39.2886 26.1778C39.2418 26.1811 39.195 26.1866 39.1494 26.1909C38.8141 26.2447 38.4877 26.3324 38.1702 26.4497C37.8661 26.5867 37.5776 26.7512 37.308 26.9452C37.2568 26.988 37.2044 27.0285 37.1543 27.0724C36.6731 27.5 35.998 27.5076 35.5168 27.0724C35.0712 26.6711 35.0656 25.8631 35.5157 25.4619ZM29.5271 27.512C29.5939 27.2215 29.8122 26.988 30.0584 26.8312C30.3046 26.6755 30.6733 26.6415 30.9507 26.7161C31.1991 26.7841 31.5344 26.9957 31.6425 27.2401C31.6525 27.2643 31.6703 27.284 31.6826 27.3059C31.7371 27.3629 31.7917 27.4199 31.8519 27.4704C31.8753 27.4846 31.8964 27.5022 31.9198 27.5153C31.9254 27.512 31.931 27.5087 31.9365 27.5054C32.0524 27.4002 32.1616 27.2873 32.2607 27.1667C32.3565 27.0318 32.4723 26.9156 32.6194 26.8312C32.7118 26.7928 32.8043 26.7545 32.8968 26.7161C33.1942 26.6218 33.5195 26.692 33.789 26.8312C34.0397 26.9617 34.2469 27.2478 34.3215 27.512C34.3928 27.7686 34.3716 28.1654 34.2045 28.3902C33.8848 28.8211 33.5596 29.1883 33.1062 29.4876C33.0794 29.5052 33.0471 29.5183 33.0193 29.5348C33.0516 29.6159 33.0705 29.7003 33.0761 29.788C33.0917 29.8626 33.1106 29.936 33.1351 30.0084C33.163 30.0621 33.1931 30.1158 33.2265 30.1663C33.3034 30.2551 33.3869 30.3384 33.4771 30.414C33.5306 30.4469 33.5863 30.4776 33.6431 30.5061C33.7211 30.5313 33.8002 30.5522 33.8815 30.5675C34.1789 30.5905 34.4329 30.6958 34.6546 30.8953C34.8818 31.1014 34.9798 31.4062 34.9932 31.7011C35.0055 31.9851 34.8551 32.3096 34.6546 32.5069C34.4552 32.7032 34.1232 32.8545 33.8358 32.8402C33.6097 32.8293 33.3791 32.8008 33.1585 32.7459C32.9502 32.6933 32.7486 32.6045 32.5548 32.5179C32.2496 32.3809 31.9666 32.1671 31.7271 31.939C31.7015 31.9149 31.6803 31.8842 31.6547 31.8579C31.2715 32.2701 30.7758 32.5541 30.2433 32.7372C29.9504 32.838 29.6162 32.7602 29.3511 32.6221C29.0837 32.4828 28.9099 32.2164 28.8186 31.9412C28.7707 31.7899 28.7629 31.6386 28.7985 31.4863C28.8052 31.335 28.8509 31.1935 28.9356 31.062C29.0759 30.8252 29.292 30.675 29.5415 30.5741C29.6329 30.5324 29.7209 30.4842 29.8067 30.4316C29.9002 30.3526 29.9871 30.2671 30.0673 30.175C30.1085 30.1125 30.1453 30.0479 30.1798 29.981C30.1999 29.924 30.2222 29.8681 30.2378 29.81C30.2857 29.6225 30.3926 29.4624 30.5263 29.3287C30.524 29.3265 30.5207 29.3254 30.5185 29.3232C30.1821 29.071 29.82 28.7794 29.6451 28.3869C29.5404 28.2093 29.4881 28.0174 29.487 27.8113C29.4992 27.7148 29.5126 27.614 29.5271 27.512ZM27.4896 27.3509C27.4395 27.3059 27.3872 27.2654 27.3348 27.2226C27.0652 27.0285 26.7767 26.8652 26.4737 26.7281C26.1562 26.6097 25.8287 26.522 25.4934 26.4683C25.4467 26.4639 25.3999 26.4584 25.3542 26.4552C25.0345 26.4343 24.7694 26.3335 24.5354 26.1208C24.3082 25.9147 24.2102 25.6099 24.1968 25.315C24.1834 25.031 24.3349 24.7065 24.5354 24.5092C24.7326 24.3151 25.069 24.1572 25.3542 24.1759C26.7667 24.2658 28.0756 24.803 29.1272 25.7392C29.3555 25.9421 29.4524 26.2512 29.4658 26.5451C29.4792 26.8487 29.3288 27.1338 29.1272 27.3509C28.9311 27.5603 28.5925 27.6842 28.3084 27.6842C27.9965 27.6852 27.7169 27.5537 27.4896 27.3509ZM25.5235 43.1984C26.1752 43.0219 26.7143 43.4232 26.9483 43.9944C29.4313 50.0812 31.257 56.4126 32.3944 62.8755C32.5013 63.484 32.2373 64.1012 31.5856 64.2777C31.4742 64.3073 31.3551 64.3128 31.2347 64.3062C31.4653 65.0737 31.6937 65.8411 31.9254 66.6075C32.3532 68.0184 30.1175 68.6159 29.693 67.2137C29.2252 65.6679 28.7685 64.1177 28.2861 62.5762C27.8628 61.2244 27.376 59.9165 26.5495 58.7478C26.1908 58.2402 26.4581 57.4804 26.965 57.1888C27.5353 56.861 28.1914 57.0934 28.549 57.5977C28.7729 57.9146 28.9757 58.2446 29.1617 58.5834C28.0533 53.8176 26.5684 49.1417 24.717 44.6018C24.4809 44.0262 24.9721 43.3475 25.5235 43.1984Z" fill="#9998D3"/>
<g clip-path="url(#clip0_92_594)">
<path d="M38.7998 29.8955C39.0705 30.0687 39.3891 30.1608 39.7088 30.2013C40.5276 30.3055 41.4121 30.0511 41.9623 29.446C42.0737 29.3232 42.164 29.1828 42.2408 29.0359C42.2074 28.9318 42.1829 28.8254 42.1773 28.7147C42.164 28.4297 42.282 28.1731 42.467 27.9736C42.4469 27.6962 42.3689 27.4254 42.2174 27.1886C40.512 24.5355 36.2611 28.2784 38.7998 29.8955Z" fill="#FF7B9B"/>
<path d="M22.7235 28.4395C22.6612 28.7092 22.474 28.9329 22.2367 29.0831C22.3091 29.2124 22.3905 29.3363 22.4896 29.446C23.0399 30.0511 23.9244 30.3055 24.7431 30.2013C25.0628 30.1608 25.3814 30.0676 25.6521 29.8955C28.1897 28.2784 23.9389 24.5355 22.2345 27.1886C22.2334 27.1897 22.2334 27.1908 22.2334 27.1919C22.6389 27.4605 22.8394 27.9374 22.7235 28.4395Z" fill="#FF7B9B"/>
<path d="M30.5024 29.3243C30.5046 29.3265 30.508 29.3276 30.5102 29.3298C30.3765 29.4646 30.2696 29.6236 30.2217 29.8111C30.2072 29.8692 30.1838 29.9251 30.1637 29.9821C30.1292 30.0479 30.0924 30.1136 30.0512 30.1761C29.971 30.2682 29.8841 30.3537 29.7906 30.4327C29.7059 30.4864 29.6179 30.5335 29.5254 30.5763C29.2759 30.6761 29.0609 30.8274 28.9195 31.0642C28.8348 31.1946 28.7891 31.3361 28.7824 31.4884C28.7479 31.6397 28.7546 31.791 28.8025 31.9434C28.8938 32.2186 29.0676 32.485 29.335 32.6243C29.6001 32.7613 29.9343 32.8391 30.2272 32.7394C30.7597 32.5563 31.2554 32.2723 31.6386 31.8601C31.6642 31.8853 31.6854 31.916 31.711 31.9412C31.9505 32.1693 32.2335 32.382 32.5387 32.5201C32.7325 32.6067 32.9341 32.6966 33.1424 32.7481C33.363 32.803 33.5936 32.8315 33.8197 32.8424C34.1071 32.8567 34.438 32.7054 34.6385 32.5091C34.839 32.3118 34.9905 31.9873 34.9771 31.7033C34.9638 31.4084 34.8657 31.1025 34.6385 30.8975C34.4168 30.698 34.1639 30.5938 33.8654 30.5697C33.7852 30.5544 33.705 30.5335 33.627 30.5083C33.5702 30.4798 33.5145 30.4491 33.461 30.4162C33.3708 30.3406 33.2873 30.2573 33.2104 30.1685C33.1781 30.1169 33.148 30.0643 33.1191 30.0106C33.0945 29.9382 33.0756 29.8648 33.06 29.7902C33.0544 29.7025 33.0344 29.6181 33.0032 29.537C33.031 29.5205 33.0634 29.5074 33.0901 29.4898C33.5435 29.1905 33.8676 28.8233 34.1884 28.3924C34.3555 28.1676 34.3767 27.7708 34.3054 27.5142C34.2308 27.25 34.0236 26.9639 33.7729 26.8334C33.5045 26.6942 33.1781 26.6229 32.8807 26.7183C32.7882 26.7567 32.6958 26.795 32.6033 26.8334C32.4563 26.9189 32.3415 27.034 32.2446 27.1689C32.1455 27.2906 32.0363 27.4024 31.9204 27.5076C31.9149 27.5109 31.9093 27.5142 31.9037 27.5175C31.8803 27.5033 31.8592 27.4868 31.8358 27.4726C31.7756 27.421 31.7199 27.3651 31.6665 27.3081C31.6542 27.2862 31.6375 27.2665 31.6264 27.2423C31.5183 26.9989 31.183 26.7863 30.9346 26.7183C30.6572 26.6437 30.2885 26.6777 30.0423 26.8334C29.795 26.9902 29.5778 27.2237 29.511 27.5142C29.4965 27.6151 29.4831 27.7159 29.4697 27.8179C29.4709 28.024 29.5232 28.2159 29.6279 28.3935C29.8039 28.7805 30.166 29.0721 30.5024 29.3243Z" fill="#32100F"/>
<path d="M29.1138 27.3487C29.3165 27.1316 29.4669 26.8465 29.4535 26.5429C29.4402 26.249 29.3421 25.9399 29.1138 25.7371C28.0622 24.8019 26.7533 24.2647 25.3408 24.1737C25.0557 24.155 24.7181 24.3129 24.5221 24.507C24.3216 24.7043 24.1701 25.0288 24.1834 25.3128C24.1968 25.6077 24.2948 25.9125 24.5221 26.1186C24.7571 26.3302 25.0211 26.431 25.3408 26.453C25.3876 26.4563 25.4344 26.4617 25.4801 26.4661C25.8154 26.5198 26.1429 26.6075 26.4604 26.726C26.7633 26.863 27.0519 27.0274 27.3214 27.2204C27.3727 27.2632 27.4261 27.3037 27.4763 27.3487C27.7035 27.5515 27.9831 27.682 28.295 27.682C28.5791 27.6831 28.9177 27.5581 29.1138 27.3487Z" fill="#32100F"/>
<path d="M37.1395 27.0713C37.1896 27.0274 37.242 26.9869 37.2932 26.9441C37.5639 26.7501 37.8524 26.5856 38.1554 26.4486C38.4729 26.3302 38.7993 26.2425 39.1346 26.1898C39.1814 26.1855 39.2271 26.18 39.2738 26.1767C39.5824 26.157 39.8687 26.0627 40.0926 25.8434C40.2931 25.6461 40.4446 25.3215 40.4324 25.0376C40.419 24.7427 40.321 24.4368 40.0926 24.2318C39.8743 24.0355 39.5802 23.8788 39.2738 23.8985C37.8602 23.9884 36.5525 24.5256 35.5009 25.4619C35.0509 25.8631 35.0553 26.6711 35.5009 27.0735C35.9832 27.5065 36.6583 27.4989 37.1395 27.0713Z" fill="#32100F"/>
<path d="M47.1705 34.3312C44.2163 32.3238 40.8087 30.9567 37.2686 30.368C36.6526 30.266 36.0221 30.528 35.8438 31.1639C35.6912 31.711 36.0321 32.4631 36.6526 32.5661C40.0234 33.1275 43.1881 34.3883 46.002 36.2992C46.5166 36.6489 47.2875 36.3935 47.586 35.8902C47.9224 35.3245 47.6863 34.681 47.1705 34.3312Z" fill="#32100F"/>
<path d="M42.2413 29.037C42.3917 29.5019 42.8049 29.8659 43.3363 29.8549C43.822 29.845 44.3088 29.8582 44.7933 29.8999C44.8969 29.9086 45.0005 29.9185 45.1041 29.9306C45.1409 29.9338 45.2122 29.9426 45.2556 29.9481C45.4806 29.9799 45.7057 30.0161 45.9285 30.0599C46.3707 30.1454 46.8096 30.254 47.2418 30.3833C47.4746 30.4524 47.7052 30.5281 47.9336 30.6103C48.0316 30.6454 48.1285 30.6815 48.2254 30.7188C48.2845 30.7418 48.3435 30.7649 48.4025 30.789C48.4126 30.7934 48.4181 30.7956 48.4293 30.8011C48.7256 30.9271 48.9963 31.0039 49.3216 30.9162C49.59 30.8427 49.8808 30.6388 50.0133 30.3921C50.2773 29.901 50.1915 29.0864 49.5978 28.8331C47.6139 27.9868 45.5029 27.534 43.3352 27.5767C43.0066 27.5833 42.688 27.7379 42.4674 27.9758C42.2825 28.1753 42.1644 28.4319 42.1778 28.7169C42.1822 28.8265 42.2079 28.9329 42.2413 29.037Z" fill="#32100F"/>
<path d="M17.8183 35.6973C18.2728 36.1446 18.998 36.1205 19.4558 35.6973C20.4873 34.7435 21.6503 33.9782 22.9781 33.372C23.5295 33.1209 24.2079 32.8819 24.8696 32.701C25.5413 32.5168 26.3189 32.3677 26.8981 32.3085C27.5197 32.2438 28.0555 31.8305 28.0555 31.1694C28.0555 30.6037 27.5242 29.9645 26.8981 30.0303C23.8247 30.3483 20.9418 31.5235 18.5702 33.4487C18.3163 33.6548 18.0623 33.8631 17.8205 34.0868C17.7537 34.1482 17.7002 34.2194 17.6534 34.294C17.3805 34.7259 17.4496 35.3344 17.8183 35.6973Z" fill="#32100F"/>
<path d="M18.7992 28.7005C18.8961 28.7103 18.993 28.7213 19.0899 28.7333C19.1222 28.7388 19.2236 28.7531 19.2681 28.7597C19.492 28.7947 19.7148 28.8353 19.9365 28.8814C20.3966 28.9767 20.8511 29.0962 21.3 29.2355C21.6119 29.333 21.9594 29.2596 22.2379 29.0831C22.4752 28.9329 22.6623 28.7081 22.7247 28.4395C22.8406 27.9374 22.6412 27.4605 22.2346 27.193C22.1388 27.1294 22.0341 27.0746 21.916 27.0384C20.0279 26.4519 18.0071 26.2326 16.0355 26.4157C15.4339 26.4716 14.848 26.8992 14.8781 27.5548C14.8825 27.66 14.9081 27.7653 14.9427 27.8694C15.0942 28.331 15.5097 28.7432 16.0366 28.6939C16.1068 28.6873 16.178 28.6851 16.2493 28.6785C17.0971 28.6127 17.9503 28.6149 18.7992 28.7005Z" fill="#32100F"/>
<path d="M40.2739 16.0169C41.3634 13.9942 42.9619 12.3694 44.762 10.9716C45.3602 10.5067 45.9807 10.066 46.6134 9.64611C46.8262 10.1921 46.9253 10.8104 47.0222 11.3356C47.1292 11.9122 47.1905 12.4955 47.2216 13.082C47.2384 13.412 47.2495 13.742 47.2461 14.0731C47.2361 15.0872 47.1158 16.0871 46.8997 17.0683C46.8908 17.11 46.8797 17.1527 46.8696 17.1944C46.6725 18.0539 46.4051 18.9003 46.0654 19.7248C45.8303 20.2948 46.3205 20.9768 46.8741 21.1259C47.5358 21.3046 48.0627 20.9022 48.2988 20.3299C48.5784 19.6524 48.8068 18.954 48.9951 18.2447C49.3905 16.7515 49.5854 15.2056 49.5609 13.6653C49.5275 11.5406 49.2635 8.91157 47.7953 7.24294C47.4734 6.87786 46.7995 6.80769 46.3918 7.06533C43.8497 8.66489 41.3779 10.5188 39.5577 12.8957C39.0831 13.5162 38.6498 14.1696 38.2744 14.8658C37.5771 16.1617 39.5755 17.3139 40.2739 16.0169Z" fill="#32100F"/>
<path d="M19.2181 21.1248C19.7673 20.9757 20.263 20.297 20.0268 19.7236C19.765 19.09 19.5467 18.4431 19.3685 17.7864C19.1824 17.1012 19.0454 16.405 18.9585 15.7012C18.8917 15.1629 18.8516 14.6191 18.846 14.072C18.8427 13.7848 18.8505 13.4964 18.8627 13.2092C18.8895 12.581 18.953 11.9539 19.0688 11.3356C19.1668 10.8104 19.266 10.1921 19.4776 9.64611C19.5935 9.72285 19.7093 9.80179 19.8241 9.88072C22.2246 11.5154 24.4325 13.4449 25.8171 16.0169C26.5156 17.3128 28.5151 16.1627 27.8167 14.8669C26.2293 11.9188 23.6583 9.69983 20.8912 7.83934C20.498 7.57403 20.1003 7.31639 19.7004 7.06423C19.2961 6.80878 18.621 6.87456 18.298 7.24184C16.8298 8.90937 16.5658 11.5395 16.5323 13.6642C16.5012 15.6354 16.8231 17.6187 17.4747 19.4836C17.5739 19.7675 17.6797 20.0504 17.7944 20.3288C18.0284 20.8978 18.5653 21.3013 19.2181 21.1248Z" fill="#32100F"/>
<path d="M29.1453 58.5801C28.9604 58.2413 28.7577 57.9113 28.5326 57.5944C28.1762 57.0901 27.5189 56.8577 26.9486 57.1855C26.4406 57.4771 26.1733 58.2369 26.5331 58.7445C27.3597 59.9132 27.8476 61.2211 28.2697 62.5729C28.7521 64.1144 29.2077 65.6646 29.6767 67.2104C30.1011 68.6126 32.3368 68.0151 31.909 66.6042C31.6773 65.8378 31.449 65.0704 31.2184 64.3029C31.3387 64.3095 31.4579 64.304 31.5693 64.2744C32.2209 64.0979 32.4849 63.4818 32.378 62.8722C31.2407 56.4093 29.4149 50.0779 26.9319 43.9911C26.6991 43.4199 26.1599 43.0186 25.5072 43.1951C24.9557 43.3442 24.4645 44.0229 24.6984 44.5974C26.552 49.1384 28.038 53.8143 29.1453 58.5801Z" fill="#32100F"/>
<path d="M34.4793 60.7289C32.9053 63.5794 32.081 66.7861 32.1122 70.0302C32.1267 71.496 34.4415 71.4993 34.4281 70.0302C34.4002 67.1841 35.0976 64.3819 36.4789 61.8789C37.1896 60.5907 35.1911 59.4385 34.4793 60.7289Z" fill="#32100F"/>
<path d="M45.2151 45.5172C42.7466 48.3578 40.6869 51.524 39.1608 54.9501C38.391 56.6768 37.7327 58.4485 37.2258 60.2673C36.7045 62.1355 36.201 64.1407 36.172 66.0856C36.1498 67.5525 38.4657 67.5536 38.4879 66.0856C38.5147 64.2788 39.0171 62.4216 39.5105 60.6894C39.9728 59.0668 40.5432 57.4673 41.2394 55.9258C42.6742 52.7508 44.5567 49.771 46.8526 47.1288C47.2592 46.6618 47.3193 45.9766 46.8526 45.5172C46.436 45.1072 45.6228 45.048 45.2151 45.5172Z" fill="#32100F"/>
</g>
</g>
<path d="M65.9645 53.1111C65.452 60.315 59.4455 66 52.1111 66H14.8889C7.55452 66 1.54797 60.315 1.03545 53.1111H65.9645Z" fill="white" stroke="black" stroke-width="2"/>
<circle cx="7.78274" cy="57.8637" r="1.69192" fill="black"/>
<circle cx="13.1968" cy="57.8636" r="1.69192" fill="black"/>
<circle cx="18.6109" cy="57.8636" r="1.69192" fill="black"/>
<defs>
<clipPath id="clip0_92_594">
<rect width="35.2788" height="64.2213" fill="white" transform="translate(14.876 6.91074)"/>
</clipPath>
</defs>
</svg>
