<svg width="172" height="61" viewBox="0 0 172 61" fill="none" xmlns="http://www.w3.org/2000/svg">
<path d="M74.3536 47.3429V26.3989H77.9096V33.0349L77.4336 33.0069C77.5082 31.4762 77.8256 30.1882 78.3856 29.1429C78.9456 28.0789 79.7016 27.2855 80.6536 26.7629C81.6056 26.2215 82.6789 25.9509 83.8736 25.9509C84.9376 25.9509 85.8989 26.1469 86.7576 26.5389C87.6349 26.9309 88.3816 27.4815 88.9976 28.1909C89.6322 28.8815 90.1082 29.7029 90.4256 30.6549C90.7616 31.5882 90.9296 32.6149 90.9296 33.7349V34.3789C90.9296 35.4802 90.7709 36.5162 90.4536 37.4869C90.1362 38.4389 89.6696 39.2695 89.0536 39.9789C88.4562 40.6882 87.7189 41.2482 86.8416 41.6589C85.9829 42.0509 84.9936 42.2469 83.8736 42.2469C82.7162 42.2469 81.6709 42.0135 80.7376 41.5469C79.8229 41.0615 79.0856 40.3335 78.5256 39.3629C77.9656 38.3735 77.6576 37.1229 77.6016 35.6109L78.8336 37.2909V47.3429H74.3536ZM82.6136 38.4949C83.3789 38.4949 84.0416 38.3082 84.6016 37.9349C85.1802 37.5615 85.6282 37.0389 85.9456 36.3669C86.2629 35.6949 86.4216 34.9202 86.4216 34.0429C86.4216 33.1655 86.2629 32.4002 85.9456 31.7469C85.6282 31.0935 85.1896 30.5895 84.6296 30.2349C84.0696 29.8615 83.3976 29.6749 82.6136 29.6749C81.9416 29.6749 81.3069 29.8335 80.7096 30.1509C80.1122 30.4682 79.6269 30.9255 79.2536 31.5229C78.8989 32.1015 78.7216 32.8109 78.7216 33.6509V34.6869C78.7216 35.4895 78.9082 36.1802 79.2816 36.7589C79.6736 37.3189 80.1682 37.7482 80.7656 38.0469C81.3629 38.3455 81.9789 38.4949 82.6136 38.4949ZM101.069 42.2749C99.7624 42.2749 98.6051 42.0509 97.5971 41.6029C96.6077 41.1549 95.7771 40.5575 95.1051 39.8109C94.4517 39.0455 93.9477 38.1962 93.5931 37.2629C93.2571 36.3109 93.0891 35.3402 93.0891 34.3509V33.7909C93.0891 32.7642 93.2571 31.7842 93.5931 30.8509C93.9477 29.8989 94.4517 29.0495 95.1051 28.3029C95.7584 27.5562 96.5704 26.9682 97.5411 26.5389C98.5304 26.0909 99.6504 25.8669 100.901 25.8669C102.544 25.8669 103.925 26.2402 105.045 26.9869C106.184 27.7149 107.052 28.6762 107.649 29.8709C108.246 31.0469 108.545 32.3349 108.545 33.7349V35.2469H94.9651V32.6989H105.829L104.373 33.8749C104.373 32.9602 104.242 32.1762 103.981 31.5229C103.72 30.8695 103.328 30.3749 102.805 30.0389C102.301 29.6842 101.666 29.5069 100.901 29.5069C100.117 29.5069 99.4544 29.6842 98.9131 30.0389C98.3717 30.3935 97.9611 30.9162 97.6811 31.6069C97.4011 32.2789 97.2611 33.1095 97.2611 34.0989C97.2611 35.0135 97.3917 35.8162 97.6531 36.5069C97.9144 37.1789 98.3251 37.7015 98.8851 38.0749C99.4451 38.4482 100.173 38.6349 101.069 38.6349C101.89 38.6349 102.562 38.4762 103.085 38.1589C103.608 37.8415 103.962 37.4495 104.149 36.9829H108.265C108.041 38.0095 107.602 38.9242 106.949 39.7269C106.296 40.5295 105.474 41.1549 104.485 41.6029C103.496 42.0509 102.357 42.2749 101.069 42.2749ZM118.486 41.9389C116.936 41.9389 115.686 41.7522 114.734 41.3789C113.782 40.9869 113.082 40.3429 112.634 39.4469C112.204 38.5322 111.99 37.3002 111.99 35.7509V22.2549H116.162V35.9189C116.162 36.6469 116.348 37.2069 116.722 37.5989C117.114 37.9722 117.664 38.1589 118.374 38.1589H120.642V41.9389H118.486ZM109.666 29.6749V26.3989H120.642V29.6749H109.666ZM130.261 41.7429V26.3989H134.741V41.7429H130.261ZM128.217 29.7029V26.3989H134.741V29.7029H128.217ZM131.997 24.8869C131.157 24.8869 130.532 24.6722 130.121 24.2429C129.729 23.7949 129.533 23.2349 129.533 22.5629C129.533 21.8722 129.729 21.3122 130.121 20.8829C130.532 20.4349 131.157 20.2109 131.997 20.2109C132.837 20.2109 133.453 20.4349 133.845 20.8829C134.256 21.3122 134.461 21.8722 134.461 22.5629C134.461 23.2349 134.256 23.7949 133.845 24.2429C133.453 24.6722 132.837 24.8869 131.997 24.8869ZM145.857 41.9389C144.307 41.9389 143.057 41.7522 142.105 41.3789C141.153 40.9869 140.453 40.3429 140.005 39.4469C139.575 38.5322 139.361 37.3002 139.361 35.7509V22.2549H143.533V35.9189C143.533 36.6469 143.719 37.2069 144.093 37.5989C144.485 37.9722 145.035 38.1589 145.745 38.1589H148.013V41.9389H145.857ZM137.037 29.6749V26.3989H148.013V29.6749H137.037ZM151.753 41.7429V26.3989H156.233V41.7429H151.753ZM149.709 29.7029V26.3989H156.233V29.7029H149.709ZM153.489 24.8869C152.649 24.8869 152.024 24.6722 151.613 24.2429C151.221 23.7949 151.025 23.2349 151.025 22.5629C151.025 21.8722 151.221 21.3122 151.613 20.8829C152.024 20.4349 152.649 20.2109 153.489 20.2109C154.329 20.2109 154.945 20.4349 155.337 20.8829C155.748 21.3122 155.953 21.8722 155.953 22.5629C155.953 23.2349 155.748 23.7949 155.337 24.2429C154.945 24.6722 154.329 24.8869 153.489 24.8869Z" fill="black"/>
<rect x="1" y="1" width="58.7231" height="58.7231" rx="17" fill="#FFFB9F" stroke="black" stroke-width="2"/>
<mask id="mask0_103_2515" style="mask-type:alpha" maskUnits="userSpaceOnUse" x="0" y="0" width="61" height="61">
<rect width="60.7231" height="60.7231" rx="25" fill="#FFFB9F"/>
</mask>
<g mask="url(#mask0_103_2515)">
<path d="M14.7177 56.4823C14.9015 56.4366 15.0862 56.3919 15.27 56.3461C15.4557 56.2965 15.6415 56.2965 15.8283 56.3461C15.9121 56.3809 15.9959 56.4157 16.0786 56.4505C16.2361 56.5419 16.3623 56.6651 16.4552 56.8211C16.4906 56.9036 16.5259 56.986 16.5612 57.0675C16.6046 57.2046 16.6117 57.3418 16.5804 57.4789C16.5733 57.616 16.532 57.7442 16.4562 57.8634C16.3906 57.9837 16.2997 58.08 16.1857 58.1536C16.0847 58.245 15.9656 58.3066 15.8283 58.3384C15.802 58.3453 15.7748 58.3513 15.7485 58.3582C16.01 59.013 16.0484 60.0116 16.0605 60.9904C16.1897 60.5989 16.3199 60.2074 16.4492 59.8159C16.6309 59.2654 17.164 58.9654 17.7404 59.0945C17.9908 59.1502 18.2402 59.3549 18.3674 59.5685C18.4986 59.7901 18.5552 60.117 18.4734 60.3644C18.2432 61.0619 18.012 61.7604 17.7818 62.458C17.6001 63.0084 17.067 63.3085 16.4906 63.1793C16.3674 63.1515 16.2442 63.0879 16.1352 63.0044C16.1493 63.1167 16.1655 63.223 16.1867 63.3194C16.2654 63.6811 16.3674 64.0657 16.6501 64.3111C16.9509 64.5734 17.3305 64.5972 17.7192 64.4979C17.7192 64.1561 17.7192 63.8143 17.7192 63.4725C17.7192 62.8932 18.1998 62.4649 18.7682 62.4401C19.0297 62.4291 19.3285 62.5633 19.5102 62.7421C19.7011 62.9289 19.8172 63.2081 19.8172 63.4725C19.8172 64.316 19.8172 65.1596 19.8172 66.0042C19.8172 66.3639 19.6314 66.666 19.3538 66.8488C19.694 67.1628 20.1453 67.3377 20.5885 67.2155C21.0267 67.0942 21.3477 66.7316 21.6566 66.3649C21.4295 66.2049 21.1892 66.0648 20.9317 65.9545C20.8005 65.9029 20.6794 65.8343 20.5764 65.734C20.5219 65.6644 20.4673 65.5948 20.4128 65.5253C20.2594 65.2908 20.2462 64.9937 20.3068 64.7294C20.3633 64.483 20.5713 64.2375 20.7884 64.1123C21.0004 63.9901 21.3578 63.9166 21.5971 64.008C21.8969 64.1223 22.1937 64.2475 22.4683 64.4124C22.7409 64.5754 22.9984 64.7701 23.2377 64.9778C23.4184 65.1348 23.5839 65.3087 23.7334 65.4955C23.9323 65.7449 24.121 65.9953 24.2725 66.2765C24.3573 66.4345 24.3977 66.5974 24.4047 66.7643C24.4855 66.6699 24.5794 66.5875 24.6773 66.5308C24.9368 66.3818 25.1993 66.3798 25.486 66.4265C26.8732 66.6531 28.1029 67.5175 28.8722 68.6592C29.0963 68.9921 29.0448 69.3994 28.8429 69.7164C28.8964 69.7552 28.9469 69.7999 29.0014 69.8366C29.4628 69.0298 29.8101 68.1594 30.0302 67.2592C30.6309 68.0789 31.3164 68.9563 32.3149 69.1888C32.8187 69.306 33.3881 69.1371 33.7859 68.8182C33.7334 68.7735 33.6839 68.7248 33.6314 68.6811C33.5547 68.6175 33.4759 68.5539 33.3962 68.4942C33.3507 68.4624 33.279 68.4108 33.2498 68.3899C32.8762 68.1266 32.4845 67.8891 32.0786 67.6775C31.8686 67.5682 31.6556 67.4688 31.4406 67.3724C31.4305 67.3675 31.4275 67.3665 31.4204 67.3635C31.382 67.3476 31.3437 67.3327 31.3063 67.3178C31.1902 67.2731 31.0731 67.2294 30.955 67.1886C30.5219 67.0376 30.0786 66.9174 29.6294 66.824C29.0549 66.7047 28.7763 66.0718 28.8964 65.5531C29.0277 64.9867 29.6516 64.7204 30.1877 64.8317C32.2462 65.259 34.1614 66.2814 35.6758 67.7152C35.9201 67.9468 36.0039 68.2637 35.9615 68.5678C36.4865 68.838 37.1155 68.9901 37.6405 68.7357C37.798 68.6592 37.9242 68.531 38.0181 68.383C37.8161 68.2935 37.6132 68.2061 37.4073 68.1266C36.8772 67.9219 36.5107 67.442 36.6743 66.8558C36.8136 66.3579 37.4375 65.9307 37.9656 66.1344C38.6814 66.4116 39.3699 66.7385 40.0342 67.1032C40.0393 67.0664 40.0413 67.0306 40.0494 66.9929C40.1675 66.4841 40.8257 66.0797 41.3406 66.2715C43.0933 66.9263 44.6874 67.8444 46.1231 69.0318C46.5723 69.4034 46.4794 70.1099 46.1231 70.4924C45.7172 70.9276 45.0589 70.8392 44.639 70.4924C44.5531 70.4209 44.4663 70.3503 44.3785 70.2808C44.3431 70.253 44.3068 70.2252 44.2715 70.1973C44.119 70.0851 43.9666 69.9728 43.8111 69.8655C43.7646 69.8327 43.7142 69.8058 43.6667 69.774C45.0408 71.0976 46.1897 72.6456 47.0438 74.3646C47.1538 74.4044 47.2669 74.4272 47.382 74.4024C47.8474 74.304 47.9211 73.6611 47.7525 73.2229C47.5849 72.7847 47.28 72.3515 47.3719 71.8915C47.7364 72.2194 48.118 72.5562 48.5885 72.7023C49.0589 72.8493 49.6475 72.7509 49.9191 72.3446C50.0594 72.1339 50.0978 71.8756 50.1241 71.6262C50.2876 70.1248 50.1907 68.5966 49.8404 67.126C50.3532 67.7659 51.4799 67.5781 51.9847 66.9323C52.4885 66.2864 52.5006 65.3882 52.3411 64.5893C52.1816 63.7904 51.8737 63.0174 51.8111 62.2056C52.3845 62.7173 53.1407 63.0263 53.9131 63.0651C53.907 60.6674 53.3648 58.2728 52.3351 56.0997C52.8833 56.3461 53.5708 56.5797 54.0433 56.213C54.5733 55.8016 54.4057 54.9809 54.1533 54.3649C53.4668 52.6896 52.5117 51.1207 51.3346 49.7336C52.3714 50.1668 53.5264 50.3218 54.643 50.1777C53.8838 48.3624 52.8076 46.6762 51.4769 45.2135C52.3684 45.3467 53.278 45.3646 54.1745 45.2662C54.3371 45.2483 54.5117 45.2205 54.6299 45.1082C54.8712 44.8777 54.7197 44.4792 54.5491 44.1951C53.5789 42.5735 52.3714 41.09 50.9762 39.8042C51.591 40.2504 52.4825 39.4247 52.3573 38.6824C52.2321 37.9402 51.5435 37.4334 50.8924 37.0409C50.1735 36.6077 47.4729 35.8416 47.1417 35.1759C46.7864 34.4595 48.4199 32.6332 48.7127 31.7847C48.7742 31.6068 48.8288 31.4091 48.7581 31.2352C48.6763 31.0355 48.4582 30.9301 48.2553 30.8506C47.2609 30.4582 46.1998 30.2326 45.1306 30.1849C46.5168 29.6076 47.6485 28.4639 48.1988 27.0848C48.3038 26.8225 48.3866 26.5214 48.2664 26.265C48.1695 26.0584 47.9615 25.9282 47.7616 25.812C46.8914 25.3082 45.9847 24.867 45.0499 24.4934C46.1301 24.4437 47.1357 23.6607 47.4335 22.6373C47.485 22.4594 47.5163 22.2687 47.4638 22.0908C47.3911 21.8464 47.174 21.6745 46.9671 21.5225C45.8959 20.7405 44.7429 20.0678 43.5314 19.5193C44.2795 19.6236 45.1569 19.3345 45.4325 18.6429C45.7455 17.858 45.1468 17.0124 44.4189 16.5394C44.2493 17.1823 44.0413 17.8152 43.7879 18.4293C43.5738 18.948 43.0973 19.3126 42.4966 19.1507C41.9948 19.0155 41.5506 18.3975 41.7636 17.8808C42.0716 17.1336 42.3139 16.3675 42.4926 15.5875C42.428 15.5498 42.3654 15.509 42.3028 15.4683C42.3724 15.4802 42.4451 15.4802 42.5188 15.4733C42.7147 14.584 42.8237 13.6778 42.8328 12.7587C42.8358 12.4596 42.8267 12.1595 42.8106 11.8604C42.4875 11.6369 41.9686 11.7988 41.6677 12.0909C41.3315 12.4168 41.1185 12.864 40.7308 13.1283C41.1387 12.0671 41.4527 10.678 40.5814 9.94868C38.9499 11.2156 37.5012 12.6881 36.5138 14.5214C35.8808 15.6978 34.0696 14.6525 34.7016 13.479C35.0418 12.8481 35.4335 12.2549 35.8646 11.6935C36.3482 10.3094 36.8308 8.92524 37.3144 7.54111C35.489 9.23227 34.0029 11.2772 32.9681 13.5238C32.9277 12.079 33.3487 10.6651 33.7657 9.27996C34.2876 7.54708 34.8086 5.81419 35.3305 4.08031C33.4234 6.29212 31.8858 8.81197 30.7995 11.5097C30.7642 10.0997 30.4552 8.6967 29.8939 7.40002C28.9297 8.41551 30.0736 10.4495 28.9711 11.3179C27.0741 8.87357 24.6147 6.64784 22.014 4.9229C22.9731 6.38453 23.9312 7.84517 24.8893 9.30679C23.7606 8.61125 22.5834 7.99123 21.3679 7.45467C20.6077 7.11882 19.6849 6.84259 18.9469 7.11087C21.4537 8.79805 23.7849 10.8082 25.2235 13.48C25.8565 14.6545 24.0443 15.6968 23.4113 14.5223C22.1564 12.1873 20.1554 10.4385 17.9807 8.95604C18.0181 9.2114 18.0938 9.46279 18.2119 9.68835C18.6117 10.4475 19.3326 10.983 20.0312 11.4918C19.0367 11.4103 18.0261 11.5852 17.1094 11.9737C17.0983 12.234 17.0913 12.4944 17.0943 12.7557C17.0993 13.2515 17.1357 13.7443 17.1963 14.2322C17.7041 14.6028 18.2129 14.9735 18.7207 15.3431C18.322 15.5816 17.9383 15.8429 17.5678 16.1211C17.7293 16.7153 17.9272 17.3015 18.1645 17.8768C18.3785 18.3965 17.9292 19.0126 17.4315 19.1467C16.8399 19.3067 16.3543 18.942 16.1402 18.4253C16.0362 18.1729 15.9403 17.9176 15.8505 17.6592C15.3447 18.1988 14.8853 18.781 14.4784 19.3961C15.0327 19.8273 15.7677 20.0251 16.4673 19.9317C14.9822 21.4628 13.6506 23.1381 12.4976 24.9237C12.8379 25.0697 13.1922 25.181 13.5547 25.2585C13.5234 25.1641 13.5012 25.0677 13.4961 24.9733C13.4689 24.3791 14.0009 23.9906 14.5451 23.941C16.3321 23.775 18.1635 23.9737 19.8747 24.5053C19.9817 24.5381 20.0756 24.5888 20.1635 24.6454C20.1645 24.6444 20.1645 24.6434 20.1645 24.6425C21.7101 22.2369 25.5617 25.6291 23.2619 27.0957C23.0166 27.2527 22.7278 27.3362 22.4381 27.3729C21.696 27.4673 20.8944 27.2368 20.3957 26.6883C20.3058 26.589 20.2321 26.4767 20.1665 26.3594C19.9141 26.5194 19.5991 26.585 19.3164 26.4976C18.9095 26.3714 18.4986 26.2631 18.0807 26.1766C17.8798 26.1349 17.6778 26.0981 17.4749 26.0663C17.4345 26.0604 17.3427 26.0474 17.3134 26.0425C17.2255 26.0315 17.1377 26.0216 17.0499 26.0127C16.2806 25.9352 15.5072 25.9322 14.7369 25.9928C13.5022 27.6412 15.3911 29.1635 16.8399 30.3151C18.9893 28.5703 21.6021 27.5051 24.3876 27.2169C24.955 27.1583 25.4365 27.7366 25.4365 28.2493C25.4365 28.8495 24.9509 29.2241 24.3876 29.2817C23.8636 29.3354 23.1579 29.4705 22.5491 29.6374C21.9504 29.8014 21.3346 30.018 20.8348 30.2455C19.6314 30.795 18.5774 31.4886 17.6425 32.353C17.2286 32.7365 16.5703 32.7584 16.1584 32.353C15.8242 32.0241 15.7626 31.4727 16.007 31.0802C14.9398 31.6714 13.902 32.2954 12.962 33.1131C13.4759 33.5016 14.1796 33.6348 14.8035 33.4629C13.5961 34.2816 12.5834 35.3766 11.8676 36.6355C12.3119 36.9585 12.9419 37.0131 13.4355 36.7697C11.8606 37.5447 10.2563 39.7148 9.79899 41.3434C10.4472 41.7686 11.0529 41.9316 11.8252 42.0558C10.4371 43.434 9.25079 45.0079 8.31288 46.7149C8.18466 46.9494 8.05745 47.2316 8.17355 47.4721C8.30682 47.7503 8.69046 47.8089 8.99536 47.7423C9.30026 47.6758 9.589 47.5227 9.90197 47.5168C9.35276 48.107 8.86916 48.7548 8.45725 49.4444C8.46533 49.4553 8.47542 49.4643 8.48249 49.4762C10.2594 52.0596 12.3613 54.4036 14.7177 56.4823ZM29.1165 63.4725C29.0882 60.5313 29.8353 57.6259 31.2619 55.0425C31.907 53.873 33.7192 54.9173 33.0741 56.0858C31.8222 58.3543 31.1902 60.894 31.2154 63.4734C31.2286 64.8039 29.1296 64.8009 29.1165 63.4725ZM42.4754 42.7156C40.3946 45.1102 38.6874 47.8099 37.3881 50.6884C36.7571 52.0855 36.2412 53.5342 35.8212 55.0057C35.3739 56.5757 34.9186 58.2589 34.8944 59.8964C34.8742 61.2269 32.7753 61.2259 32.7954 59.8964C32.8217 58.1337 33.278 56.3173 33.7505 54.6232C34.2109 52.9748 34.8076 51.3691 35.5042 49.8041C36.8873 46.7 38.7541 43.8294 40.9913 41.2549C41.3618 40.8297 42.0978 40.8833 42.4754 41.2549C42.8984 41.6713 42.8439 42.2923 42.4754 42.7156ZM43.1407 32.5299C42.8702 32.986 42.1715 33.2175 41.7051 32.9005C39.1559 31.1686 36.2866 30.0249 33.2316 29.5172C32.6692 29.4238 32.3603 28.7422 32.4986 28.2463C32.6592 27.67 33.2316 27.4326 33.7899 27.525C36.9984 28.0585 40.0867 29.2976 42.7641 31.1169C43.2326 31.4349 43.4456 32.0172 43.1407 32.5299ZM38.2755 24.6444C38.4138 24.8591 38.4835 25.1045 38.5017 25.3559C38.7016 25.1403 38.9903 25.0002 39.2881 24.9942C41.2528 24.9554 43.166 25.3658 44.964 26.1329C45.5022 26.3624 45.5799 27.1007 45.3406 27.5458C45.2205 27.7694 44.957 27.9542 44.7137 28.0208C44.4189 28.1003 44.1735 28.0317 43.905 27.9165C43.8939 27.9115 43.8888 27.9095 43.8808 27.9055C43.8272 27.8837 43.7737 27.8628 43.7202 27.8419C43.6324 27.8082 43.5436 27.7754 43.4557 27.7436C43.2488 27.669 43.0398 27.6005 42.8288 27.5379C42.437 27.4206 42.0393 27.3233 41.6385 27.2448C41.4365 27.205 41.2326 27.1722 41.0287 27.1434C40.9893 27.1384 40.9247 27.1305 40.8914 27.1275C40.7975 27.1166 40.7036 27.1076 40.6097 27.0997C40.1705 27.0629 39.7303 27.051 39.2891 27.059C38.8086 27.0689 38.433 26.738 38.2967 26.3177C38.227 26.4509 38.1453 26.578 38.0443 26.6893C37.5456 27.2378 36.744 27.4683 36.0019 27.3739C35.7122 27.3372 35.4234 27.2527 35.1781 27.0967C32.8772 25.6321 36.7298 22.2389 38.2755 24.6444ZM32.1887 23.0765C33.1417 22.2289 34.327 21.7421 35.6082 21.6596C35.8848 21.6417 36.1523 21.7838 36.3502 21.9616C36.5562 22.1484 36.645 22.4247 36.6581 22.692C36.6692 22.9493 36.533 23.2434 36.3502 23.4223C36.1473 23.622 35.8878 23.7065 35.6082 23.7253C35.5658 23.7283 35.5234 23.7333 35.482 23.7373C35.1781 23.7859 34.8823 23.8654 34.5945 23.9718C34.3189 24.096 34.0574 24.245 33.8131 24.4209C33.7667 24.4596 33.7192 24.4964 33.6738 24.5361C33.2376 24.9236 32.6258 24.9306 32.1897 24.5361C31.7859 24.1725 31.7808 23.4402 32.1887 23.0765ZM26.7611 24.9346C26.8217 24.6713 27.0196 24.4596 27.2427 24.3175C27.4658 24.1764 27.8 24.1456 28.0514 24.2132C28.2765 24.2748 28.5804 24.4666 28.6783 24.6882C28.6874 24.71 28.7036 24.7279 28.7147 24.7478C28.7642 24.7994 28.8136 24.8511 28.8681 24.8968C28.8893 24.9097 28.9085 24.9256 28.9297 24.9376C28.9348 24.9346 28.9398 24.9316 28.9449 24.9286C29.0499 24.8332 29.1488 24.7309 29.2387 24.6216C29.3255 24.4994 29.4305 24.394 29.5637 24.3175C29.6475 24.2828 29.7313 24.248 29.8151 24.2132C30.0847 24.1278 30.3795 24.1913 30.6238 24.3175C30.851 24.4358 31.0388 24.6951 31.1064 24.9346C31.171 25.1671 31.1518 25.5268 31.0004 25.7305C30.7106 26.121 30.4158 26.4538 30.0049 26.7251C29.9807 26.741 29.9514 26.7529 29.9262 26.7678C29.9555 26.8414 29.9726 26.9179 29.9777 26.9974C29.9918 27.0649 30.009 27.1315 30.0312 27.1971C30.0564 27.2458 30.0837 27.2944 30.114 27.3402C30.1836 27.4206 30.2594 27.4962 30.3411 27.5647C30.3896 27.5945 30.4401 27.6223 30.4916 27.6482C30.5622 27.671 30.6339 27.6899 30.7076 27.7038C30.9772 27.7247 31.2074 27.8201 31.4083 28.0009C31.6142 28.1877 31.7031 28.4639 31.7152 28.7312C31.7263 28.9886 31.59 29.2827 31.4083 29.4615C31.2276 29.6394 30.9267 29.7765 30.6662 29.7636C30.4613 29.7537 30.2523 29.7278 30.0524 29.6782C29.8636 29.6305 29.6809 29.55 29.5052 29.4715C29.2286 29.3473 28.9721 29.1535 28.7551 28.9468C28.7318 28.925 28.7127 28.8972 28.6894 28.8733C28.3421 29.2469 27.8929 29.5043 27.4103 29.6702C27.1448 29.7616 26.8419 29.6911 26.6016 29.5659C26.3593 29.4397 26.2018 29.1982 26.119 28.9488C26.0756 28.8117 26.0685 28.6746 26.1009 28.5365C26.1069 28.3994 26.1483 28.2712 26.225 28.1519C26.3522 27.9373 26.5481 27.8012 26.7743 27.7098C26.857 27.672 26.9368 27.6283 27.0145 27.5806C27.0993 27.5091 27.1781 27.4316 27.2508 27.3481C27.2881 27.2915 27.3214 27.2328 27.3527 27.1722C27.3709 27.1206 27.3911 27.0699 27.4052 27.0172C27.4487 26.8473 27.5456 26.7022 27.6667 26.581C27.6647 26.579 27.6617 26.578 27.6597 26.5761C27.3548 26.3475 27.0266 26.0832 26.8681 25.7275C26.7732 25.5665 26.7258 25.3926 26.7248 25.2058C26.7359 25.1184 26.748 25.027 26.7611 24.9346ZM24.9146 24.7885C24.8692 24.7478 24.8217 24.711 24.7743 24.6723C24.5299 24.4964 24.2684 24.3483 23.9938 24.2241C23.7061 24.1168 23.4093 24.0373 23.1054 23.9886C23.063 23.9847 23.0206 23.9797 22.9792 23.9767C22.6894 23.9578 22.4492 23.8664 22.2372 23.6737C22.0312 23.4869 21.9423 23.2106 21.9302 22.9433C21.9181 22.686 22.0554 22.3919 22.2372 22.213C22.4158 22.0372 22.7207 21.8941 22.9792 21.911C24.2594 21.9924 25.4456 22.4793 26.3987 23.3279C26.6056 23.5117 26.6935 23.7919 26.7056 24.0582C26.7177 24.3334 26.5814 24.5918 26.3987 24.7885C26.221 24.9783 25.9141 25.0906 25.6566 25.0906C25.3739 25.0916 25.1205 24.9723 24.9146 24.7885ZM23.1327 39.1514C23.7233 38.9914 24.2119 39.3551 24.4239 39.8728C26.6743 45.3894 28.329 51.1276 29.3598 56.985C29.4567 57.5365 29.2175 58.0959 28.6268 58.2559C28.5259 58.2827 28.4179 58.2877 28.3088 58.2817C28.5178 58.9773 28.7248 59.6728 28.9348 60.3674C29.3225 61.6462 27.2962 62.1877 26.9116 60.9168C26.4875 59.5158 26.0736 58.1108 25.6364 56.7138C25.2528 55.4886 24.8116 54.3033 24.0625 53.244C23.7374 52.784 23.9797 52.0954 24.4391 51.8311C24.956 51.534 25.5506 51.7447 25.8747 52.2017C26.0776 52.4889 26.2614 52.788 26.43 53.095C25.4254 48.7757 24.0797 44.5379 22.4017 40.4233C22.1877 39.9016 22.6329 39.2865 23.1327 39.1514Z" fill="#9998D3"/>
<g clip-path="url(#clip0_103_2515)">
<path d="M35.1644 27.0947C35.4097 27.2517 35.6985 27.3352 35.9882 27.372C36.7303 27.4663 37.5319 27.2358 38.0306 26.6873C38.1316 26.5761 38.2134 26.4489 38.283 26.3157C38.2527 26.2213 38.2305 26.125 38.2255 26.0246C38.2134 25.7663 38.3204 25.5337 38.488 25.3529C38.4698 25.1015 38.3991 24.8561 38.2618 24.6415C36.7161 22.2369 32.8635 25.6291 35.1644 27.0947Z" fill="#FF7B9B"/>
<path d="M20.5936 25.7752C20.5371 26.0196 20.3675 26.2223 20.1524 26.3585C20.2181 26.4757 20.2918 26.588 20.3816 26.6873C20.8804 27.2358 21.682 27.4663 22.424 27.372C22.7138 27.3352 23.0025 27.2507 23.2478 27.0947C25.5477 25.6291 21.6951 22.2369 20.1504 24.6415C20.1494 24.6425 20.1494 24.6435 20.1494 24.6444C20.5169 24.8879 20.6986 25.3201 20.5936 25.7752Z" fill="#FF7B9B"/>
<path d="M27.6439 26.577C27.6459 26.579 27.649 26.58 27.651 26.582C27.5298 26.7042 27.4329 26.8483 27.3895 27.0182C27.3764 27.0709 27.3552 27.1216 27.337 27.1732C27.3057 27.2328 27.2724 27.2925 27.235 27.3491C27.1623 27.4326 27.0836 27.5101 26.9988 27.5816C26.922 27.6303 26.8423 27.673 26.7585 27.7118C26.5323 27.8022 26.3375 27.9393 26.2093 28.1539C26.1325 28.2722 26.0912 28.4004 26.0851 28.5385C26.0538 28.6756 26.0599 28.8127 26.1033 28.9508C26.1861 29.2002 26.3436 29.4417 26.5859 29.5679C26.8261 29.6921 27.129 29.7626 27.3945 29.6722C27.8771 29.5063 28.3264 29.2489 28.6737 28.8753C28.6969 28.8982 28.7161 28.926 28.7393 28.9488C28.9564 29.1555 29.2128 29.3483 29.4894 29.4735C29.6651 29.552 29.8478 29.6334 30.0366 29.6801C30.2365 29.7298 30.4455 29.7557 30.6505 29.7656C30.9109 29.7785 31.2108 29.6414 31.3925 29.4635C31.5742 29.2847 31.7115 28.9906 31.6994 28.7332C31.6873 28.4659 31.5985 28.1887 31.3925 28.0029C31.1916 27.8221 30.9624 27.7277 30.6919 27.7058C30.6192 27.6919 30.5465 27.673 30.4758 27.6502C30.4243 27.6243 30.3738 27.5965 30.3254 27.5667C30.2436 27.4981 30.1679 27.4226 30.0982 27.3421C30.0689 27.2954 30.0417 27.2477 30.0154 27.1991C29.9932 27.1335 29.9761 27.0669 29.9619 26.9993C29.9569 26.9198 29.9387 26.8433 29.9104 26.7698C29.9357 26.7549 29.965 26.743 29.9892 26.7271C30.4001 26.4558 30.6939 26.123 30.9846 25.7325C31.1361 25.5288 31.1553 25.1691 31.0906 24.9366C31.023 24.6971 30.8352 24.4378 30.6081 24.3195C30.3647 24.1933 30.0689 24.1287 29.7994 24.2152C29.7156 24.25 29.6318 24.2847 29.548 24.3195C29.4147 24.397 29.3107 24.5014 29.2229 24.6236C29.133 24.7339 29.0341 24.8352 28.9291 24.9306C28.9241 24.9336 28.919 24.9366 28.914 24.9395C28.8928 24.9266 28.8736 24.9117 28.8524 24.8988C28.7979 24.8521 28.7474 24.8014 28.6989 24.7498C28.6878 24.7299 28.6727 24.712 28.6626 24.6901C28.5647 24.4696 28.2608 24.2768 28.0356 24.2152C27.7842 24.1476 27.4501 24.1784 27.2269 24.3195C27.0028 24.4616 26.8059 24.6732 26.7454 24.9366C26.7322 25.028 26.7201 25.1194 26.708 25.2118C26.709 25.3986 26.7565 25.5725 26.8514 25.7335C27.0109 26.0842 27.339 26.3485 27.6439 26.577Z" fill="#32100F"/>
<path d="M26.3852 24.7865C26.569 24.5898 26.7052 24.3314 26.6931 24.0562C26.681 23.7899 26.5922 23.5097 26.3852 23.3259C25.4322 22.4783 24.2459 21.9915 22.9657 21.909C22.7073 21.8921 22.4014 22.0352 22.2237 22.211C22.0419 22.3899 21.9046 22.684 21.9168 22.9414C21.9289 23.2086 22.0177 23.4849 22.2237 23.6717C22.4367 23.8634 22.676 23.9549 22.9657 23.9747C23.0081 23.9777 23.0505 23.9827 23.0919 23.9867C23.3958 24.0353 23.6926 24.1148 23.9804 24.2221C24.255 24.3464 24.5165 24.4954 24.7608 24.6703C24.8072 24.709 24.8557 24.7458 24.9011 24.7865C25.1071 24.9703 25.3605 25.0886 25.6432 25.0886C25.9006 25.0896 26.2075 24.9763 26.3852 24.7865Z" fill="#32100F"/>
<path d="M33.6586 24.5351C33.7041 24.4954 33.7515 24.4586 33.798 24.4199C34.0433 24.244 34.3048 24.095 34.5794 23.9708C34.8671 23.8634 35.1629 23.784 35.4668 23.7363C35.5092 23.7323 35.5506 23.7273 35.593 23.7243C35.8727 23.7064 36.1321 23.621 36.3351 23.4223C36.5168 23.2434 36.6541 22.9493 36.643 22.692C36.6309 22.4247 36.542 22.1474 36.3351 21.9616C36.1372 21.7838 35.8707 21.6417 35.593 21.6596C34.3118 21.7411 33.1266 22.2279 32.1735 23.0765C31.7657 23.4402 31.7697 24.1725 32.1735 24.5371C32.6107 24.9296 33.2225 24.9226 33.6586 24.5351Z" fill="#32100F"/>
<path d="M42.7505 31.1149C40.0731 29.2956 36.9847 28.0566 33.7763 27.523C33.2179 27.4306 32.6465 27.668 32.485 28.2443C32.3467 28.7402 32.6556 29.4218 33.2179 29.5152C36.273 30.0239 39.1412 31.1666 41.6914 32.8985C42.1579 33.2155 42.8565 32.984 43.1271 32.5279C43.432 32.0152 43.2179 31.4319 42.7505 31.1149Z" fill="#32100F"/>
<path d="M38.2831 26.3167C38.4194 26.738 38.7939 27.0679 39.2755 27.058C39.7157 27.049 40.1569 27.0609 40.5961 27.0987C40.69 27.1067 40.7838 27.1156 40.8777 27.1265C40.9111 27.1295 40.9757 27.1375 41.015 27.1424C41.219 27.1712 41.4229 27.204 41.6248 27.2438C42.0256 27.3213 42.4234 27.4196 42.8151 27.5369C43.0261 27.5995 43.2351 27.6681 43.4421 27.7426C43.5309 27.7744 43.6188 27.8072 43.7066 27.8409C43.7601 27.8618 43.8136 27.8827 43.8671 27.9045C43.8762 27.9085 43.8813 27.9105 43.8914 27.9155C44.1599 28.0297 44.4052 28.0993 44.7 28.0198C44.9434 27.9532 45.2069 27.7684 45.327 27.5448C45.5663 27.0997 45.4885 26.3614 44.9504 26.1319C43.1523 25.3648 41.2392 24.9545 39.2745 24.9932C38.9767 24.9992 38.6879 25.1393 38.488 25.3549C38.3204 25.5357 38.2134 25.7682 38.2255 26.0266C38.2296 26.1259 38.2528 26.2223 38.2831 26.3167Z" fill="#32100F"/>
<path d="M16.1477 32.353C16.5596 32.7584 17.2168 32.7365 17.6318 32.353C18.5666 31.4885 19.6206 30.795 20.8241 30.2455C21.3238 30.018 21.9387 29.8014 22.5384 29.6374C23.1471 29.4705 23.8518 29.3354 24.3768 29.2817C24.9402 29.2231 25.4258 28.8485 25.4258 28.2493C25.4258 27.7366 24.9442 27.1573 24.3768 27.2169C21.5914 27.5051 18.9785 28.5703 16.8291 30.3151C16.5989 30.5019 16.3688 30.6907 16.1497 30.8934C16.0891 30.949 16.0406 31.0136 15.9982 31.0812C15.7509 31.4726 15.8135 32.0241 16.1477 32.353Z" fill="#32100F"/>
<path d="M17.0372 26.0117C17.125 26.0206 17.2129 26.0306 17.3007 26.0415C17.33 26.0465 17.4218 26.0594 17.4622 26.0653C17.6652 26.0971 17.8671 26.1339 18.068 26.1756C18.4849 26.2621 18.8969 26.3704 19.3037 26.4966C19.5864 26.585 19.9014 26.5184 20.1538 26.3585C20.3688 26.2223 20.5384 26.0186 20.595 25.7752C20.7 25.3201 20.5193 24.8879 20.1508 24.6454C20.0639 24.5878 19.969 24.5381 19.862 24.5053C18.1508 23.9737 16.3194 23.775 14.5324 23.941C13.9872 23.9916 13.4562 24.3791 13.4834 24.9733C13.4875 25.0687 13.5107 25.1641 13.542 25.2585C13.6793 25.6768 14.0559 26.0504 14.5334 26.0057C14.597 25.9998 14.6616 25.9978 14.7262 25.9918C15.4945 25.9322 16.2679 25.9342 17.0372 26.0117Z" fill="#32100F"/>
<path d="M36.4997 14.5164C37.4871 12.6831 38.9359 11.2106 40.5674 9.94371C41.1095 9.52241 41.6719 9.12297 42.2453 8.74241C42.4381 9.23724 42.528 9.79764 42.6158 10.2736C42.7128 10.7962 42.7683 11.3248 42.7966 11.8564C42.8117 12.1555 42.8218 12.4546 42.8188 12.7547C42.8097 13.6738 42.7006 14.58 42.5048 15.4693C42.4967 15.507 42.4866 15.5458 42.4775 15.5835C42.2988 16.3625 42.0565 17.1296 41.7486 17.8768C41.5356 18.3935 41.9798 19.0116 42.4816 19.1467C43.0813 19.3087 43.5588 18.944 43.7728 18.4253C44.0262 17.8113 44.2332 17.1783 44.4038 16.5354C44.7622 15.1821 44.9389 13.7811 44.9167 12.385C44.8864 10.4594 44.6471 8.07668 43.3165 6.56437C43.0247 6.2335 42.4139 6.1699 42.0444 6.40341C39.7405 7.85311 37.5002 9.53334 35.8506 11.6875C35.4205 12.2499 35.0278 12.8421 34.6875 13.4731C34.0555 14.6475 35.8667 15.6918 36.4997 14.5164Z" fill="#32100F"/>
<path d="M17.4165 19.1457C17.9142 19.0106 18.3635 18.3955 18.1494 17.8758C17.9122 17.3015 17.7143 16.7153 17.5528 16.1201C17.3842 15.4991 17.26 14.8681 17.1812 14.2302C17.1207 13.7423 17.0843 13.2495 17.0793 12.7537C17.0762 12.4934 17.0833 12.232 17.0944 11.9717C17.1186 11.4023 17.1762 10.834 17.2812 10.2736C17.37 9.79764 17.4599 9.23723 17.6517 8.7424C17.7567 8.81196 17.8617 8.8835 17.9657 8.95504C20.1413 10.4365 22.1424 12.1853 23.3973 14.5164C24.0303 15.6908 25.8425 14.6485 25.2095 13.4741C23.7708 10.8022 21.4407 8.79109 18.9329 7.1049C18.5765 6.86445 18.2161 6.63094 17.8536 6.40241C17.4871 6.17089 16.8753 6.23051 16.5825 6.56338C15.2519 8.07469 15.0126 10.4584 14.9823 12.3841C14.9541 14.1706 15.2458 15.9681 15.8365 17.6582C15.9263 17.9156 16.0222 18.1719 16.1262 18.4243C16.3382 18.94 16.8248 19.3057 17.4165 19.1457Z" fill="#32100F"/>
<path d="M26.4145 53.092C26.2469 52.785 26.0632 52.4859 25.8592 52.1987C25.5362 51.7417 24.9405 51.531 24.4236 51.8281C23.9632 52.0924 23.7209 52.781 24.047 53.2411C24.7961 54.3003 25.2383 55.4857 25.621 56.7108C26.0581 58.1079 26.4711 59.5128 26.8961 60.9139C27.2807 62.1847 29.307 61.6432 28.9193 60.3644C28.7093 59.6698 28.5024 58.9743 28.2934 58.2788C28.4024 58.2847 28.5104 58.2798 28.6114 58.2529C29.202 58.0929 29.4413 57.5345 29.3443 56.9821C28.3136 51.1246 26.6588 45.3864 24.4085 39.8698C24.1975 39.3521 23.7088 38.9885 23.1172 39.1484C22.6174 39.2836 22.1722 39.8986 22.3842 40.4193C24.0642 44.5349 25.411 48.7727 26.4145 53.092Z" fill="#32100F"/>
<path d="M31.2487 55.0395C29.8221 57.623 29.075 60.5293 29.1033 63.4695C29.1164 64.7979 31.2144 64.8009 31.2023 63.4695C31.177 60.89 31.809 58.3503 33.0609 56.0818C33.705 54.9143 31.8938 53.87 31.2487 55.0395Z" fill="#32100F"/>
<path d="M40.9782 41.2529C38.741 43.8274 36.8742 46.697 35.4911 49.8021C34.7935 51.3671 34.1968 52.9728 33.7374 54.6212C33.265 56.3144 32.8086 58.1317 32.7824 59.8944C32.7622 61.2239 34.8611 61.2249 34.8813 59.8944C34.9055 58.2569 35.3609 56.5737 35.8081 55.0038C36.2271 53.5332 36.744 52.0835 37.375 50.6864C38.6754 47.8089 40.3816 45.1082 42.4623 42.7136C42.8308 42.2903 42.8853 41.6693 42.4623 41.2529C42.0847 40.8813 41.3477 40.8277 40.9782 41.2529Z" fill="#32100F"/>
</g>
</g>
<path d="M59.6837 48.2291C59.1743 54.6618 53.7927 59.7231 47.2291 59.7231H13.494C6.93037 59.7231 1.54886 54.6618 1.03944 48.2291H59.6837Z" fill="white" stroke="black" stroke-width="2"/>
<circle cx="7.0549" cy="52.4427" r="1.53341" fill="black"/>
<circle cx="11.9611" cy="52.4427" r="1.53341" fill="black"/>
<circle cx="16.8684" cy="52.4427" r="1.53341" fill="black"/>
<defs>
<clipPath id="clip0_103_2515">
<rect width="31.9737" height="58.2048" fill="white" transform="translate(13.4814 6.26331)"/>
</clipPath>
</defs>
</svg>
