<svg width="442" height="241" viewBox="0 0 442 241" fill="none" xmlns="http://www.w3.org/2000/svg">
<path d="M0.5 18C0.5 8.33502 8.33502 0.5 18 0.5H424C433.665 0.5 441.5 8.33502 441.5 18V223C441.5 232.665 433.665 240.5 424 240.5H18C8.33502 240.5 0.5 232.665 0.5 223V18Z" fill="white" stroke="#9998D3"/>
<ellipse cx="44.1009" cy="198" rx="19.6009" ry="20" fill="#BAD5DB"/>
<path d="M33.8119 191.29L33.389 196.036L33.3877 196.05C33.3246 196.758 33.2929 197.114 33.3505 197.453C33.402 197.754 33.5045 198.045 33.6543 198.31C33.8224 198.608 34.0708 198.861 34.5643 199.365L34.5729 199.374L41.1893 206.124L41.1953 206.131C42.2064 207.162 42.7122 207.678 43.2963 207.872C43.8111 208.043 44.3657 208.043 44.8805 207.872C45.4658 207.678 45.9743 207.16 46.9894 206.124L52.0641 200.946C53.0792 199.911 53.5856 199.393 53.7758 198.796C53.9431 198.271 53.9431 197.705 53.7758 197.18C53.5856 196.583 53.0789 196.065 52.0639 195.029L45.4475 188.278C44.9482 187.769 44.6985 187.514 44.405 187.341C44.1448 187.189 43.8602 187.083 43.5645 187.031C43.2307 186.972 42.879 187.004 42.1759 187.07L37.524 187.501L37.5229 187.501C36.3129 187.613 35.7073 187.67 35.2337 187.938C34.816 188.175 34.4716 188.527 34.2393 188.953C33.9772 189.434 33.9225 190.048 33.8136 191.271L33.8119 191.29Z" stroke="#3837A1" stroke-width="2" stroke-linecap="round" stroke-linejoin="round"/>
<path d="M84.0969 190.25H87.5969L94.1219 208H90.5719L88.9219 203.575H82.7219L81.0969 208H77.5469L84.0969 190.25ZM88.2969 201.15L85.8469 193.825L83.2969 201.15H88.2969ZM98.4387 208L93.6137 194.9H97.0887L100.389 204.95L103.714 194.9H106.889L102.089 208H98.4387ZM114.294 208.25C113.244 208.25 112.294 208.075 111.444 207.725C110.594 207.358 109.869 206.867 109.269 206.25C108.669 205.617 108.203 204.9 107.869 204.1C107.553 203.283 107.394 202.425 107.394 201.525C107.394 200.275 107.669 199.133 108.219 198.1C108.786 197.067 109.586 196.242 110.619 195.625C111.669 194.992 112.903 194.675 114.319 194.675C115.753 194.675 116.978 194.992 117.994 195.625C119.011 196.242 119.786 197.067 120.319 198.1C120.869 199.117 121.144 200.217 121.144 201.4C121.144 201.6 121.136 201.808 121.119 202.025C121.103 202.225 121.086 202.392 121.069 202.525H110.944C111.011 203.192 111.203 203.775 111.519 204.275C111.853 204.775 112.269 205.158 112.769 205.425C113.286 205.675 113.836 205.8 114.419 205.8C115.086 205.8 115.711 205.642 116.294 205.325C116.894 204.992 117.303 204.558 117.519 204.025L120.394 204.825C120.078 205.492 119.619 206.083 119.019 206.6C118.436 207.117 117.744 207.525 116.944 207.825C116.144 208.108 115.261 208.25 114.294 208.25ZM110.869 200.4H117.719C117.653 199.733 117.461 199.158 117.144 198.675C116.844 198.175 116.444 197.792 115.944 197.525C115.444 197.242 114.886 197.1 114.269 197.1C113.669 197.1 113.119 197.242 112.619 197.525C112.136 197.792 111.736 198.175 111.419 198.675C111.119 199.158 110.936 199.733 110.869 200.4ZM128.01 208.25C126.893 208.25 125.827 208.067 124.81 207.7C123.793 207.333 122.918 206.792 122.185 206.075L123.385 203.9C124.168 204.533 124.935 205 125.685 205.3C126.452 205.6 127.185 205.75 127.885 205.75C128.535 205.75 129.052 205.633 129.435 205.4C129.835 205.167 130.035 204.817 130.035 204.35C130.035 204.033 129.927 203.792 129.71 203.625C129.493 203.442 129.177 203.283 128.76 203.15C128.36 203.017 127.868 202.867 127.285 202.7C126.318 202.383 125.51 202.075 124.86 201.775C124.21 201.475 123.718 201.1 123.385 200.65C123.068 200.183 122.91 199.592 122.91 198.875C122.91 198.008 123.127 197.267 123.56 196.65C124.01 196.017 124.627 195.525 125.41 195.175C126.21 194.825 127.143 194.65 128.21 194.65C129.143 194.65 130.027 194.8 130.86 195.1C131.693 195.383 132.452 195.85 133.135 196.5L131.785 198.625C131.118 198.108 130.485 197.733 129.885 197.5C129.285 197.25 128.677 197.125 128.06 197.125C127.71 197.125 127.377 197.167 127.06 197.25C126.76 197.333 126.51 197.475 126.31 197.675C126.127 197.858 126.035 198.125 126.035 198.475C126.035 198.792 126.118 199.042 126.285 199.225C126.468 199.392 126.735 199.542 127.085 199.675C127.452 199.808 127.893 199.958 128.41 200.125C129.46 200.425 130.343 200.733 131.06 201.05C131.793 201.367 132.343 201.758 132.71 202.225C133.077 202.675 133.26 203.3 133.26 204.1C133.26 205.4 132.785 206.417 131.835 207.15C130.885 207.883 129.61 208.25 128.01 208.25Z" fill="black"/>
<ellipse cx="46.0618" cy="149" rx="19.6009" ry="20" fill="#BAD5DB"/>
<path d="M35.7728 142.29L35.3499 147.036L35.3486 147.05C35.2856 147.758 35.2538 148.114 35.3115 148.453C35.3629 148.754 35.4654 149.045 35.6152 149.31C35.7833 149.608 36.0317 149.861 36.5252 150.365L36.5339 150.374L43.1502 157.124L43.1563 157.131C44.1673 158.162 44.6732 158.678 45.2573 158.872C45.772 159.043 46.3267 159.043 46.8415 158.872C47.4267 158.678 47.9353 158.16 48.9503 157.124L54.0251 151.946C55.0401 150.911 55.5466 150.393 55.7367 149.796C55.904 149.271 55.904 148.705 55.7367 148.18C55.5466 147.583 55.0398 147.065 54.0248 146.029L47.4084 139.278C46.9092 138.769 46.6594 138.514 46.3659 138.341C46.1058 138.189 45.8211 138.083 45.5254 138.031C45.1916 137.972 44.84 138.004 44.1368 138.07L39.485 138.501L39.4838 138.501C38.2738 138.613 37.6683 138.67 37.1947 138.938C36.777 139.175 36.4325 139.527 36.2002 139.953C35.9381 140.434 35.8834 141.048 35.7745 142.271L35.7728 142.29Z" stroke="#3837A1" stroke-width="2" stroke-linecap="round" stroke-linejoin="round"/>
<path d="M88.6078 159.125C87.4578 159.125 86.3661 158.892 85.3328 158.425C84.3161 157.958 83.4161 157.317 82.6328 156.5C81.8661 155.667 81.2661 154.7 80.8328 153.6C80.3995 152.5 80.1828 151.308 80.1828 150.025C80.1828 148.808 80.3995 147.667 80.8328 146.6C81.2661 145.517 81.8745 144.567 82.6578 143.75C83.4411 142.933 84.3578 142.292 85.4078 141.825C86.4578 141.358 87.5995 141.125 88.8328 141.125C90.4995 141.125 91.9245 141.483 93.1078 142.2C94.3078 142.9 95.2078 143.833 95.8078 145L93.2328 146.9C92.7828 146.017 92.1495 145.342 91.3328 144.875C90.5328 144.408 89.6578 144.175 88.7078 144.175C87.9578 144.175 87.2745 144.333 86.6578 144.65C86.0411 144.967 85.5078 145.4 85.0578 145.95C84.6078 146.5 84.2578 147.133 84.0078 147.85C83.7745 148.567 83.6578 149.325 83.6578 150.125C83.6578 150.975 83.7828 151.758 84.0328 152.475C84.2995 153.192 84.6661 153.817 85.1328 154.35C85.6161 154.883 86.1745 155.308 86.8078 155.625C87.4411 155.925 88.1411 156.075 88.9078 156.075C89.8078 156.075 90.6661 155.842 91.4828 155.375C92.3161 154.908 93.0911 154.225 93.8078 153.325V156.725C92.3245 158.325 90.5911 159.125 88.6078 159.125ZM93.5578 152.4H89.9828V149.875H96.4078V159H93.5578V152.4ZM98.123 155.125C98.123 154.275 98.3564 153.533 98.823 152.9C99.3064 152.25 99.973 151.75 100.823 151.4C101.673 151.05 102.648 150.875 103.748 150.875C104.298 150.875 104.856 150.917 105.423 151C105.99 151.083 106.481 151.217 106.898 151.4V150.7C106.898 149.867 106.648 149.225 106.148 148.775C105.665 148.325 104.94 148.1 103.973 148.1C103.256 148.1 102.573 148.225 101.923 148.475C101.273 148.725 100.59 149.092 99.873 149.575L98.798 147.375C99.6647 146.808 100.548 146.383 101.448 146.1C102.365 145.817 103.323 145.675 104.323 145.675C106.19 145.675 107.64 146.142 108.673 147.075C109.723 148.008 110.248 149.342 110.248 151.075V155.25C110.248 155.6 110.306 155.85 110.423 156C110.556 156.15 110.765 156.242 111.048 156.275V159C110.748 159.05 110.473 159.092 110.223 159.125C109.99 159.158 109.79 159.175 109.623 159.175C108.956 159.175 108.448 159.025 108.098 158.725C107.765 158.425 107.556 158.058 107.473 157.625L107.398 156.95C106.831 157.683 106.123 158.25 105.273 158.65C104.423 159.05 103.556 159.25 102.673 159.25C101.806 159.25 101.023 159.075 100.323 158.725C99.6397 158.358 99.098 157.867 98.698 157.25C98.3147 156.617 98.123 155.908 98.123 155.125ZM106.273 155.8C106.456 155.6 106.606 155.4 106.723 155.2C106.84 155 106.898 154.817 106.898 154.65V153.325C106.498 153.158 106.065 153.033 105.598 152.95C105.131 152.85 104.69 152.8 104.273 152.8C103.406 152.8 102.69 152.992 102.123 153.375C101.573 153.742 101.298 154.233 101.298 154.85C101.298 155.183 101.39 155.5 101.573 155.8C101.756 156.1 102.023 156.342 102.373 156.525C102.723 156.708 103.14 156.8 103.623 156.8C104.123 156.8 104.615 156.708 105.098 156.525C105.581 156.325 105.973 156.083 106.273 155.8ZM121.106 158.325C120.823 158.442 120.481 158.575 120.081 158.725C119.681 158.875 119.248 158.992 118.781 159.075C118.331 159.175 117.873 159.225 117.406 159.225C116.79 159.225 116.223 159.117 115.706 158.9C115.19 158.683 114.773 158.342 114.456 157.875C114.156 157.392 114.006 156.767 114.006 156V148.475H112.281V145.9H114.006V141.65H117.356V145.9H120.106V148.475H117.356V154.875C117.373 155.325 117.498 155.65 117.731 155.85C117.965 156.05 118.256 156.15 118.606 156.15C118.956 156.15 119.298 156.092 119.631 155.975C119.965 155.858 120.231 155.758 120.431 155.675L121.106 158.325ZM128.755 159.25C127.688 159.25 126.73 159.075 125.88 158.725C125.03 158.358 124.305 157.858 123.705 157.225C123.121 156.592 122.671 155.867 122.355 155.05C122.038 154.233 121.88 153.375 121.88 152.475C121.88 151.558 122.038 150.692 122.355 149.875C122.671 149.058 123.121 148.333 123.705 147.7C124.305 147.067 125.03 146.575 125.88 146.225C126.73 145.858 127.688 145.675 128.755 145.675C129.821 145.675 130.771 145.858 131.605 146.225C132.455 146.575 133.18 147.067 133.78 147.7C134.38 148.333 134.83 149.058 135.13 149.875C135.446 150.692 135.605 151.558 135.605 152.475C135.605 153.375 135.446 154.233 135.13 155.05C134.83 155.867 134.38 156.592 133.78 157.225C133.196 157.858 132.48 158.358 131.63 158.725C130.78 159.075 129.821 159.25 128.755 159.25ZM125.33 152.475C125.33 153.242 125.48 153.925 125.78 154.525C126.08 155.108 126.488 155.567 127.005 155.9C127.521 156.233 128.105 156.4 128.755 156.4C129.388 156.4 129.963 156.233 130.48 155.9C130.996 155.55 131.405 155.083 131.705 154.5C132.021 153.9 132.18 153.217 132.18 152.45C132.18 151.7 132.021 151.025 131.705 150.425C131.405 149.825 130.996 149.358 130.48 149.025C129.963 148.692 129.388 148.525 128.755 148.525C128.105 148.525 127.521 148.7 127.005 149.05C126.488 149.383 126.08 149.85 125.78 150.45C125.48 151.033 125.33 151.708 125.33 152.475ZM142.691 159.25C141.574 159.25 140.507 159.067 139.491 158.7C138.474 158.333 137.599 157.792 136.866 157.075L138.066 154.9C138.849 155.533 139.616 156 140.366 156.3C141.132 156.6 141.866 156.75 142.566 156.75C143.216 156.75 143.732 156.633 144.116 156.4C144.516 156.167 144.716 155.817 144.716 155.35C144.716 155.033 144.607 154.792 144.391 154.625C144.174 154.442 143.857 154.283 143.441 154.15C143.041 154.017 142.549 153.867 141.966 153.7C140.999 153.383 140.191 153.075 139.541 152.775C138.891 152.475 138.399 152.1 138.066 151.65C137.749 151.183 137.591 150.592 137.591 149.875C137.591 149.008 137.807 148.267 138.241 147.65C138.691 147.017 139.307 146.525 140.091 146.175C140.891 145.825 141.824 145.65 142.891 145.65C143.824 145.65 144.707 145.8 145.541 146.1C146.374 146.383 147.132 146.85 147.816 147.5L146.466 149.625C145.799 149.108 145.166 148.733 144.566 148.5C143.966 148.25 143.357 148.125 142.741 148.125C142.391 148.125 142.057 148.167 141.741 148.25C141.441 148.333 141.191 148.475 140.991 148.675C140.807 148.858 140.716 149.125 140.716 149.475C140.716 149.792 140.799 150.042 140.966 150.225C141.149 150.392 141.416 150.542 141.766 150.675C142.132 150.808 142.574 150.958 143.091 151.125C144.141 151.425 145.024 151.733 145.741 152.05C146.474 152.367 147.024 152.758 147.391 153.225C147.757 153.675 147.941 154.3 147.941 155.1C147.941 156.4 147.466 157.417 146.516 158.15C145.566 158.883 144.291 159.25 142.691 159.25Z" fill="black"/>
<ellipse cx="46.0618" cy="100" rx="19.6009" ry="20" fill="#BAD5DB"/>
<path d="M35.7728 93.2895L35.3499 98.036L35.3486 98.0501C35.2856 98.7581 35.2538 99.1143 35.3115 99.4526C35.3629 99.7543 35.4654 100.045 35.6152 100.31C35.7833 100.608 36.0317 100.861 36.5252 101.365L36.5339 101.374L43.1502 108.124L43.1563 108.131C44.1673 109.162 44.6732 109.678 45.2573 109.872C45.772 110.043 46.3267 110.043 46.8415 109.872C47.4267 109.678 47.9353 109.16 48.9503 108.124L54.0251 102.946C55.0401 101.911 55.5466 101.393 55.7367 100.796C55.904 100.271 55.904 99.7049 55.7367 99.1796C55.5466 98.5825 55.0398 98.0647 54.0248 97.029L47.4084 90.2781C46.9092 89.7687 46.6594 89.514 46.3659 89.3414C46.1058 89.1886 45.8211 89.0835 45.5254 89.031C45.1916 88.9718 44.84 89.0044 44.1368 89.0696L39.485 89.5011L39.4838 89.5012C38.2738 89.6134 37.6683 89.6696 37.1947 89.9383C36.777 90.1753 36.4325 90.5268 36.2002 90.953C35.9381 91.4339 35.8834 92.0478 35.7745 93.2706L35.7728 93.2895Z" stroke="#3837A1" stroke-width="2" stroke-linecap="round" stroke-linejoin="round"/>
<path d="M80.1578 101C80.1578 99.9167 80.3495 98.8583 80.7328 97.825C81.1328 96.775 81.7078 95.825 82.4578 94.975C83.2078 94.1083 84.1245 93.425 85.2078 92.925C86.2911 92.4083 87.5245 92.15 88.9078 92.15C90.5411 92.15 91.9495 92.5083 93.1328 93.225C94.3328 93.9417 95.2245 94.875 95.8078 96.025L93.1578 97.85C92.8578 97.1833 92.4661 96.6583 91.9828 96.275C91.4995 95.875 90.9828 95.6 90.4328 95.45C89.8828 95.2833 89.3411 95.2 88.8078 95.2C87.9411 95.2 87.1828 95.375 86.5328 95.725C85.8995 96.075 85.3661 96.5333 84.9328 97.1C84.4995 97.6667 84.1745 98.3 83.9578 99C83.7578 99.7 83.6578 100.4 83.6578 101.1C83.6578 101.883 83.7828 102.642 84.0328 103.375C84.2828 104.092 84.6328 104.733 85.0828 105.3C85.5495 105.85 86.0995 106.292 86.7328 106.625C87.3828 106.942 88.0911 107.1 88.8578 107.1C89.4078 107.1 89.9661 107.008 90.5328 106.825C91.0995 106.642 91.6245 106.35 92.1078 105.95C92.5911 105.55 92.9661 105.033 93.2328 104.4L96.0578 106.025C95.7078 106.908 95.1328 107.658 94.3328 108.275C93.5495 108.892 92.6661 109.358 91.6828 109.675C90.6995 109.992 89.7245 110.15 88.7578 110.15C87.4911 110.15 86.3328 109.892 85.2828 109.375C84.2328 108.842 83.3245 108.142 82.5578 107.275C81.8078 106.392 81.2161 105.408 80.7828 104.325C80.3661 103.225 80.1578 102.117 80.1578 101ZM97.1465 106.125C97.1465 105.275 97.3798 104.533 97.8465 103.9C98.3298 103.25 98.9965 102.75 99.8465 102.4C100.696 102.05 101.671 101.875 102.771 101.875C103.321 101.875 103.88 101.917 104.446 102C105.013 102.083 105.505 102.217 105.921 102.4V101.7C105.921 100.867 105.671 100.225 105.171 99.775C104.688 99.325 103.963 99.1 102.996 99.1C102.28 99.1 101.596 99.225 100.946 99.475C100.296 99.725 99.6132 100.092 98.8965 100.575L97.8215 98.375C98.6882 97.8083 99.5715 97.3833 100.471 97.1C101.388 96.8167 102.346 96.675 103.346 96.675C105.213 96.675 106.663 97.1417 107.696 98.075C108.746 99.0083 109.271 100.342 109.271 102.075V106.25C109.271 106.6 109.33 106.85 109.446 107C109.58 107.15 109.788 107.242 110.071 107.275V110C109.771 110.05 109.496 110.092 109.246 110.125C109.013 110.158 108.813 110.175 108.646 110.175C107.98 110.175 107.471 110.025 107.121 109.725C106.788 109.425 106.58 109.058 106.496 108.625L106.421 107.95C105.855 108.683 105.146 109.25 104.296 109.65C103.446 110.05 102.58 110.25 101.696 110.25C100.83 110.25 100.046 110.075 99.3465 109.725C98.6632 109.358 98.1215 108.867 97.7215 108.25C97.3382 107.617 97.1465 106.908 97.1465 106.125ZM105.296 106.8C105.48 106.6 105.63 106.4 105.746 106.2C105.863 106 105.921 105.817 105.921 105.65V104.325C105.521 104.158 105.088 104.033 104.621 103.95C104.155 103.85 103.713 103.8 103.296 103.8C102.43 103.8 101.713 103.992 101.146 104.375C100.596 104.742 100.321 105.233 100.321 105.85C100.321 106.183 100.413 106.5 100.596 106.8C100.78 107.1 101.046 107.342 101.396 107.525C101.746 107.708 102.163 107.8 102.646 107.8C103.146 107.8 103.638 107.708 104.121 107.525C104.605 107.325 104.996 107.083 105.296 106.8ZM118.502 110.25C117.435 110.25 116.477 110.075 115.627 109.725C114.777 109.358 114.052 108.858 113.452 108.225C112.852 107.575 112.385 106.842 112.052 106.025C111.735 105.208 111.577 104.35 111.577 103.45C111.577 102.217 111.852 101.092 112.402 100.075C112.969 99.0417 113.769 98.2167 114.802 97.6C115.835 96.9833 117.06 96.675 118.477 96.675C119.894 96.675 121.11 96.9833 122.127 97.6C123.144 98.2167 123.902 99.025 124.402 100.025L121.127 101.025C120.844 100.542 120.469 100.175 120.002 99.925C119.535 99.6583 119.019 99.525 118.452 99.525C117.819 99.525 117.235 99.6917 116.702 100.025C116.185 100.342 115.777 100.8 115.477 101.4C115.177 101.983 115.027 102.667 115.027 103.45C115.027 104.217 115.177 104.9 115.477 105.5C115.794 106.083 116.21 106.55 116.727 106.9C117.244 107.233 117.819 107.4 118.452 107.4C118.852 107.4 119.227 107.333 119.577 107.2C119.944 107.067 120.269 106.883 120.552 106.65C120.835 106.417 121.044 106.15 121.177 105.85L124.452 106.85C124.152 107.5 123.71 108.083 123.127 108.6C122.56 109.117 121.885 109.525 121.102 109.825C120.335 110.108 119.469 110.25 118.502 110.25ZM138.688 110H135.338V102.65C135.338 101.633 135.138 100.875 134.738 100.375C134.355 99.875 133.822 99.625 133.138 99.625C132.738 99.625 132.313 99.7417 131.863 99.975C131.413 100.208 131.005 100.533 130.638 100.95C130.288 101.35 130.03 101.817 129.863 102.35V110H126.513V91.75H129.863V99.325C130.347 98.4917 131.005 97.8417 131.838 97.375C132.672 96.9083 133.58 96.675 134.563 96.675C135.413 96.675 136.105 96.825 136.638 97.125C137.172 97.4083 137.588 97.8 137.888 98.3C138.188 98.7833 138.397 99.3333 138.513 99.95C138.63 100.55 138.688 101.175 138.688 101.825V110ZM147.651 110.25C146.585 110.25 145.626 110.075 144.776 109.725C143.926 109.358 143.201 108.858 142.601 108.225C142.018 107.592 141.568 106.867 141.251 106.05C140.935 105.233 140.776 104.375 140.776 103.475C140.776 102.558 140.935 101.692 141.251 100.875C141.568 100.058 142.018 99.3333 142.601 98.7C143.201 98.0667 143.926 97.575 144.776 97.225C145.626 96.8583 146.585 96.675 147.651 96.675C148.718 96.675 149.668 96.8583 150.501 97.225C151.351 97.575 152.076 98.0667 152.676 98.7C153.276 99.3333 153.726 100.058 154.026 100.875C154.343 101.692 154.501 102.558 154.501 103.475C154.501 104.375 154.343 105.233 154.026 106.05C153.726 106.867 153.276 107.592 152.676 108.225C152.093 108.858 151.376 109.358 150.526 109.725C149.676 110.075 148.718 110.25 147.651 110.25ZM144.226 103.475C144.226 104.242 144.376 104.925 144.676 105.525C144.976 106.108 145.385 106.567 145.901 106.9C146.418 107.233 147.001 107.4 147.651 107.4C148.285 107.4 148.86 107.233 149.376 106.9C149.893 106.55 150.301 106.083 150.601 105.5C150.918 104.9 151.076 104.217 151.076 103.45C151.076 102.7 150.918 102.025 150.601 101.425C150.301 100.825 149.893 100.358 149.376 100.025C148.86 99.6917 148.285 99.525 147.651 99.525C147.001 99.525 146.418 99.7 145.901 100.05C145.385 100.383 144.976 100.85 144.676 101.45C144.376 102.033 144.226 102.708 144.226 103.475ZM164.562 99.8C163.546 99.8 162.637 100 161.837 100.4C161.037 100.783 160.462 101.342 160.112 102.075V110H156.762V96.9H159.837V99.7C160.304 98.8 160.896 98.0917 161.612 97.575C162.329 97.0583 163.087 96.775 163.887 96.725C164.071 96.725 164.212 96.725 164.312 96.725C164.412 96.725 164.496 96.7333 164.562 96.75V99.8ZM174.23 99.8C173.214 99.8 172.305 100 171.505 100.4C170.705 100.783 170.13 101.342 169.78 102.075V110H166.43V96.9H169.505V99.7C169.972 98.8 170.564 98.0917 171.28 97.575C171.997 97.0583 172.755 96.775 173.555 96.725C173.739 96.725 173.88 96.725 173.98 96.725C174.08 96.725 174.164 96.7333 174.23 96.75V99.8ZM181.977 110.25C180.911 110.25 179.952 110.075 179.102 109.725C178.252 109.358 177.527 108.858 176.927 108.225C176.344 107.592 175.894 106.867 175.577 106.05C175.261 105.233 175.102 104.375 175.102 103.475C175.102 102.558 175.261 101.692 175.577 100.875C175.894 100.058 176.344 99.3333 176.927 98.7C177.527 98.0667 178.252 97.575 179.102 97.225C179.952 96.8583 180.911 96.675 181.977 96.675C183.044 96.675 183.994 96.8583 184.827 97.225C185.677 97.575 186.402 98.0667 187.002 98.7C187.602 99.3333 188.052 100.058 188.352 100.875C188.669 101.692 188.827 102.558 188.827 103.475C188.827 104.375 188.669 105.233 188.352 106.05C188.052 106.867 187.602 107.592 187.002 108.225C186.419 108.858 185.702 109.358 184.852 109.725C184.002 110.075 183.044 110.25 181.977 110.25ZM178.552 103.475C178.552 104.242 178.702 104.925 179.002 105.525C179.302 106.108 179.711 106.567 180.227 106.9C180.744 107.233 181.327 107.4 181.977 107.4C182.611 107.4 183.186 107.233 183.702 106.9C184.219 106.55 184.627 106.083 184.927 105.5C185.244 104.9 185.402 104.217 185.402 103.45C185.402 102.7 185.244 102.025 184.927 101.425C184.627 100.825 184.219 100.358 183.702 100.025C183.186 99.6917 182.611 99.525 181.977 99.525C181.327 99.525 180.744 99.7 180.227 100.05C179.711 100.383 179.302 100.85 179.002 101.45C178.702 102.033 178.552 102.708 178.552 103.475ZM195.913 110.25C194.797 110.25 193.73 110.067 192.713 109.7C191.697 109.333 190.822 108.792 190.088 108.075L191.288 105.9C192.072 106.533 192.838 107 193.588 107.3C194.355 107.6 195.088 107.75 195.788 107.75C196.438 107.75 196.955 107.633 197.338 107.4C197.738 107.167 197.938 106.817 197.938 106.35C197.938 106.033 197.83 105.792 197.613 105.625C197.397 105.442 197.08 105.283 196.663 105.15C196.263 105.017 195.772 104.867 195.188 104.7C194.222 104.383 193.413 104.075 192.763 103.775C192.113 103.475 191.622 103.1 191.288 102.65C190.972 102.183 190.813 101.592 190.813 100.875C190.813 100.008 191.03 99.2667 191.463 98.65C191.913 98.0167 192.53 97.525 193.313 97.175C194.113 96.825 195.047 96.65 196.113 96.65C197.047 96.65 197.93 96.8 198.763 97.1C199.597 97.3833 200.355 97.85 201.038 98.5L199.688 100.625C199.022 100.108 198.388 99.7333 197.788 99.5C197.188 99.25 196.58 99.125 195.963 99.125C195.613 99.125 195.28 99.1667 194.963 99.25C194.663 99.3333 194.413 99.475 194.213 99.675C194.03 99.8583 193.938 100.125 193.938 100.475C193.938 100.792 194.022 101.042 194.188 101.225C194.372 101.392 194.638 101.542 194.988 101.675C195.355 101.808 195.797 101.958 196.313 102.125C197.363 102.425 198.247 102.733 198.963 103.05C199.697 103.367 200.247 103.758 200.613 104.225C200.98 104.675 201.163 105.3 201.163 106.1C201.163 107.4 200.688 108.417 199.738 109.15C198.788 109.883 197.513 110.25 195.913 110.25Z" fill="black"/>
<path d="M27.1359 41.975C27.1359 40.8917 27.3359 39.8333 27.7359 38.8C28.1359 37.75 28.7193 36.8 29.4859 35.95C30.2526 35.1 31.1859 34.425 32.2859 33.925C33.3859 33.4083 34.6359 33.15 36.0359 33.15C37.7026 33.15 39.1443 33.5083 40.3609 34.225C41.5943 34.9417 42.5109 35.875 43.1109 37.025L39.9609 39.225C39.6943 38.5917 39.3359 38.1 38.8859 37.75C38.4526 37.4 37.9693 37.1583 37.4359 37.025C36.9193 36.875 36.4193 36.8 35.9359 36.8C35.1526 36.8 34.4693 36.9583 33.8859 37.275C33.3026 37.575 32.8193 37.9833 32.4359 38.5C32.0526 39.0167 31.7693 39.5917 31.5859 40.225C31.4026 40.8583 31.3109 41.4917 31.3109 42.125C31.3109 42.825 31.4193 43.5 31.6359 44.15C31.8526 44.8 32.1609 45.375 32.5609 45.875C32.9776 46.375 33.4776 46.775 34.0609 47.075C34.6443 47.3583 35.2859 47.5 35.9859 47.5C36.4859 47.5 36.9943 47.4167 37.5109 47.25C38.0276 47.0833 38.5026 46.825 38.9359 46.475C39.3859 46.1083 39.7276 45.6333 39.9609 45.05L43.3109 47.025C42.9609 47.8917 42.3859 48.6333 41.5859 49.25C40.7859 49.8667 39.8776 50.3417 38.8609 50.675C37.8609 50.9917 36.8693 51.15 35.8859 51.15C34.6026 51.15 33.4193 50.8917 32.3359 50.375C31.2693 49.8417 30.3443 49.1417 29.5609 48.275C28.7943 47.3917 28.1943 46.4083 27.7609 45.325C27.3443 44.225 27.1359 43.1083 27.1359 41.975ZM44.2229 47.075C44.2229 46.2083 44.4645 45.45 44.9479 44.8C45.4312 44.15 46.0979 43.6417 46.9479 43.275C47.7979 42.8917 48.7729 42.7 49.8729 42.7C50.4062 42.7 50.9312 42.75 51.4479 42.85C51.9645 42.9333 52.4145 43.0583 52.7979 43.225V42.65C52.7979 41.9333 52.5812 41.3833 52.1479 41C51.7145 40.6167 51.0562 40.425 50.1729 40.425C49.4395 40.425 48.7479 40.55 48.0979 40.8C47.4645 41.05 46.7895 41.4083 46.0729 41.875L44.8729 39.325C45.7395 38.7583 46.6395 38.3333 47.5729 38.05C48.5229 37.7667 49.5229 37.625 50.5729 37.625C52.5395 37.625 54.0645 38.1 55.1479 39.05C56.2479 39.9833 56.7979 41.3417 56.7979 43.125V46.55C56.7979 46.95 56.8562 47.2333 56.9729 47.4C57.1062 47.55 57.3312 47.6417 57.6479 47.675V51C57.3145 51.0667 56.9979 51.1167 56.6979 51.15C56.4145 51.1833 56.1645 51.2 55.9479 51.2C55.1979 51.2 54.6229 51.05 54.2229 50.75C53.8395 50.45 53.5979 50.0417 53.4979 49.525L53.4229 48.95C52.8395 49.7 52.1395 50.275 51.3229 50.675C50.5229 51.0583 49.6812 51.25 48.7979 51.25C47.9312 51.25 47.1479 51.0667 46.4479 50.7C45.7645 50.3333 45.2229 49.8333 44.8229 49.2C44.4229 48.5667 44.2229 47.8583 44.2229 47.075ZM52.1729 47.575C52.3562 47.425 52.5062 47.2583 52.6229 47.075C52.7395 46.8917 52.7979 46.7167 52.7979 46.55V45.375C52.4645 45.2417 52.0895 45.1417 51.6729 45.075C51.2729 44.9917 50.8979 44.95 50.5479 44.95C49.8145 44.95 49.2062 45.1167 48.7229 45.45C48.2395 45.7667 47.9979 46.1917 47.9979 46.725C47.9979 47.025 48.0812 47.3 48.2479 47.55C48.4145 47.8 48.6395 48 48.9229 48.15C49.2229 48.3 49.5729 48.375 49.9729 48.375C50.3729 48.375 50.7729 48.3 51.1729 48.15C51.5729 48 51.9062 47.8083 52.1729 47.575ZM68.0742 50.3C67.7076 50.45 67.2992 50.6 66.8492 50.75C66.4159 50.9 65.9576 51.0167 65.4742 51.1C64.9909 51.2 64.5159 51.25 64.0492 51.25C63.3826 51.25 62.7659 51.1417 62.1992 50.925C61.6492 50.6917 61.2076 50.3167 60.8742 49.8C60.5576 49.2833 60.3992 48.6 60.3992 47.75V40.9H58.7242V37.875H60.3992V33.7H64.3992V37.875H67.0742V40.9H64.3992V46.375C64.3992 46.8083 64.5076 47.125 64.7242 47.325C64.9409 47.5083 65.2159 47.6 65.5492 47.6C65.8326 47.6 66.1326 47.55 66.4492 47.45C66.7826 47.35 67.0659 47.2417 67.2992 47.125L68.0742 50.3ZM75.7613 51.25C74.6447 51.25 73.653 51.075 72.7863 50.725C71.9197 50.3583 71.178 49.8667 70.5613 49.25C69.9613 48.6333 69.503 47.925 69.1863 47.125C68.8697 46.3083 68.7113 45.4583 68.7113 44.575C68.7113 43.3083 68.9863 42.1583 69.5363 41.125C70.103 40.075 70.9113 39.2333 71.9613 38.6C73.0113 37.95 74.278 37.625 75.7613 37.625C77.2447 37.625 78.503 37.9417 79.5363 38.575C80.5863 39.2083 81.3863 40.0417 81.9363 41.075C82.4863 42.0917 82.7613 43.2 82.7613 44.4C82.7613 44.6333 82.7447 44.8667 82.7113 45.1C82.6947 45.3167 82.678 45.5083 82.6613 45.675H72.9613C73.0113 46.2583 73.1697 46.75 73.4363 47.15C73.7197 47.55 74.078 47.8583 74.5113 48.075C74.9447 48.275 75.403 48.375 75.8863 48.375C76.4863 48.375 77.0447 48.2333 77.5613 47.95C78.0947 47.6667 78.4613 47.2833 78.6613 46.8L82.0613 47.75C81.728 48.4333 81.253 49.0417 80.6363 49.575C80.0363 50.0917 79.3197 50.5 78.4863 50.8C77.6697 51.1 76.7613 51.25 75.7613 51.25ZM72.8613 43.225H78.5613C78.4947 42.675 78.3363 42.2 78.0863 41.8C77.8363 41.3833 77.503 41.0667 77.0863 40.85C76.6697 40.6167 76.2113 40.5 75.7113 40.5C75.1947 40.5 74.728 40.6167 74.3113 40.85C73.9113 41.0667 73.5863 41.3833 73.3363 41.8C73.0863 42.2 72.928 42.675 72.8613 43.225ZM89.6742 51.05C88.8076 51.05 88.0159 50.8833 87.2992 50.55C86.5826 50.2 85.9659 49.725 85.4492 49.125C84.9492 48.5083 84.5576 47.8 84.2742 47C83.9909 46.2 83.8492 45.3417 83.8492 44.425C83.8492 43.4583 83.9992 42.5667 84.2992 41.75C84.5992 40.9333 85.0159 40.2167 85.5492 39.6C86.0992 38.9667 86.7409 38.4833 87.4742 38.15C88.2242 37.8 89.0492 37.625 89.9492 37.625C90.9326 37.625 91.7992 37.8417 92.5492 38.275C93.2992 38.6917 93.8992 39.275 94.3492 40.025V37.875H97.8242V50.1C97.8242 51.4333 97.4992 52.5833 96.8492 53.55C96.2159 54.5167 95.3242 55.2583 94.1742 55.775C93.0409 56.3083 91.7242 56.575 90.2242 56.575C88.8242 56.575 87.6159 56.3417 86.5992 55.875C85.5992 55.425 84.7242 54.7833 83.9742 53.95L86.1242 51.775C86.6076 52.325 87.2076 52.7583 87.9242 53.075C88.6409 53.4083 89.4076 53.575 90.2242 53.575C90.8742 53.575 91.4742 53.4583 92.0242 53.225C92.5742 52.9917 93.0076 52.6167 93.3242 52.1C93.6576 51.5833 93.8242 50.9167 93.8242 50.1V48.825C93.4242 49.5417 92.8409 50.0917 92.0742 50.475C91.3242 50.8583 90.5242 51.05 89.6742 51.05ZM91.0492 47.875C91.3659 47.875 91.6576 47.8333 91.9242 47.75C92.2076 47.65 92.4659 47.525 92.6992 47.375C92.9326 47.2083 93.1492 47.0167 93.3492 46.8C93.5492 46.5667 93.7076 46.3167 93.8242 46.05V43.3C93.6576 42.8333 93.4159 42.4333 93.0992 42.1C92.7826 41.75 92.4326 41.4833 92.0492 41.3C91.6659 41.1167 91.2659 41.025 90.8492 41.025C90.4326 41.025 90.0409 41.1167 89.6742 41.3C89.3076 41.4833 88.9909 41.75 88.7242 42.1C88.4742 42.4333 88.2742 42.8083 88.1242 43.225C87.9909 43.6417 87.9242 44.075 87.9242 44.525C87.9242 45.0083 87.9992 45.45 88.1492 45.85C88.3159 46.25 88.5409 46.6083 88.8242 46.925C89.1076 47.225 89.4409 47.4583 89.8242 47.625C90.2076 47.7917 90.6159 47.875 91.0492 47.875ZM106.815 51.25C105.699 51.25 104.699 51.0667 103.815 50.7C102.949 50.3333 102.215 49.8333 101.615 49.2C101.015 48.5667 100.557 47.8417 100.24 47.025C99.9404 46.2083 99.7904 45.35 99.7904 44.45C99.7904 43.5333 99.9404 42.6667 100.24 41.85C100.557 41.0333 101.015 40.3083 101.615 39.675C102.215 39.0417 102.949 38.5417 103.815 38.175C104.699 37.8083 105.699 37.625 106.815 37.625C107.932 37.625 108.924 37.8083 109.79 38.175C110.657 38.5417 111.39 39.0417 111.99 39.675C112.59 40.3083 113.049 41.0333 113.365 41.85C113.682 42.6667 113.84 43.5333 113.84 44.45C113.84 45.35 113.682 46.2083 113.365 47.025C113.049 47.8417 112.59 48.5667 111.99 49.2C111.39 49.8333 110.657 50.3333 109.79 50.7C108.924 51.0667 107.932 51.25 106.815 51.25ZM103.89 44.45C103.89 45.1333 104.015 45.7333 104.265 46.25C104.532 46.7667 104.882 47.1667 105.315 47.45C105.749 47.7333 106.249 47.875 106.815 47.875C107.365 47.875 107.857 47.7333 108.29 47.45C108.74 47.15 109.09 46.7417 109.34 46.225C109.59 45.7083 109.715 45.1167 109.715 44.45C109.715 43.7667 109.59 43.1667 109.34 42.65C109.09 42.1333 108.74 41.7333 108.29 41.45C107.857 41.1667 107.365 41.025 106.815 41.025C106.249 41.025 105.749 41.1667 105.315 41.45C104.882 41.7333 104.532 42.1333 104.265 42.65C104.015 43.1667 103.89 43.7667 103.89 44.45ZM124.149 41.3C123.183 41.3 122.308 41.4583 121.524 41.775C120.741 42.075 120.174 42.525 119.824 43.125V51H115.824V37.875H119.499V40.525C119.949 39.6417 120.533 38.95 121.249 38.45C121.966 37.95 122.716 37.6917 123.499 37.675C123.683 37.675 123.816 37.675 123.899 37.675C123.999 37.675 124.083 37.6833 124.149 37.7V41.3ZM125.834 51V37.875H129.834V51H125.834ZM125.834 36.375V32.75H129.834V36.375H125.834ZM131.747 47.075C131.747 46.2083 131.989 45.45 132.472 44.8C132.956 44.15 133.622 43.6417 134.472 43.275C135.322 42.8917 136.297 42.7 137.397 42.7C137.931 42.7 138.456 42.75 138.972 42.85C139.489 42.9333 139.939 43.0583 140.322 43.225V42.65C140.322 41.9333 140.106 41.3833 139.672 41C139.239 40.6167 138.581 40.425 137.697 40.425C136.964 40.425 136.272 40.55 135.622 40.8C134.989 41.05 134.314 41.4083 133.597 41.875L132.397 39.325C133.264 38.7583 134.164 38.3333 135.097 38.05C136.047 37.7667 137.047 37.625 138.097 37.625C140.064 37.625 141.589 38.1 142.672 39.05C143.772 39.9833 144.322 41.3417 144.322 43.125V46.55C144.322 46.95 144.381 47.2333 144.497 47.4C144.631 47.55 144.856 47.6417 145.172 47.675V51C144.839 51.0667 144.522 51.1167 144.222 51.15C143.939 51.1833 143.689 51.2 143.472 51.2C142.722 51.2 142.147 51.05 141.747 50.75C141.364 50.45 141.122 50.0417 141.022 49.525L140.947 48.95C140.364 49.7 139.664 50.275 138.847 50.675C138.047 51.0583 137.206 51.25 136.322 51.25C135.456 51.25 134.672 51.0667 133.972 50.7C133.289 50.3333 132.747 49.8333 132.347 49.2C131.947 48.5667 131.747 47.8583 131.747 47.075ZM139.697 47.575C139.881 47.425 140.031 47.2583 140.147 47.075C140.264 46.8917 140.322 46.7167 140.322 46.55V45.375C139.989 45.2417 139.614 45.1417 139.197 45.075C138.797 44.9917 138.422 44.95 138.072 44.95C137.339 44.95 136.731 45.1167 136.247 45.45C135.764 45.7667 135.522 46.1917 135.522 46.725C135.522 47.025 135.606 47.3 135.772 47.55C135.939 47.8 136.164 48 136.447 48.15C136.747 48.3 137.097 48.375 137.497 48.375C137.897 48.375 138.297 48.3 138.697 48.15C139.097 48 139.431 47.8083 139.697 47.575ZM152.246 51.25C151.129 51.25 150.037 51.0667 148.971 50.7C147.904 50.3333 147.004 49.7917 146.271 49.075L147.646 46.55C148.446 47.1333 149.221 47.575 149.971 47.875C150.737 48.175 151.454 48.325 152.121 48.325C152.637 48.325 153.037 48.2417 153.321 48.075C153.604 47.9083 153.746 47.65 153.746 47.3C153.746 47.05 153.662 46.8583 153.496 46.725C153.329 46.575 153.071 46.4417 152.721 46.325C152.387 46.2083 151.971 46.0833 151.471 45.95C150.471 45.6167 149.637 45.2917 148.971 44.975C148.304 44.6583 147.804 44.275 147.471 43.825C147.137 43.3583 146.971 42.7583 146.971 42.025C146.971 41.1417 147.187 40.375 147.621 39.725C148.071 39.0583 148.704 38.5417 149.521 38.175C150.337 37.8083 151.312 37.625 152.446 37.625C153.346 37.625 154.221 37.7667 155.071 38.05C155.937 38.3333 156.746 38.8083 157.496 39.475L155.946 41.975C155.196 41.4583 154.529 41.0833 153.946 40.85C153.362 40.6167 152.796 40.5 152.246 40.5C151.962 40.5 151.704 40.5333 151.471 40.6C151.237 40.6667 151.046 40.7833 150.896 40.95C150.762 41.1 150.696 41.3 150.696 41.55C150.696 41.8 150.762 42 150.896 42.15C151.046 42.3 151.271 42.4333 151.571 42.55C151.887 42.65 152.279 42.775 152.746 42.925C153.829 43.2417 154.729 43.5667 155.446 43.9C156.162 44.2167 156.696 44.6167 157.046 45.1C157.412 45.5667 157.596 46.1917 157.596 46.975C157.596 48.3083 157.112 49.3583 156.146 50.125C155.196 50.875 153.896 51.25 152.246 51.25ZM171.757 51.25C170.641 51.25 169.649 51.075 168.782 50.725C167.916 50.3583 167.174 49.8667 166.557 49.25C165.957 48.6333 165.499 47.925 165.182 47.125C164.866 46.3083 164.707 45.4583 164.707 44.575C164.707 43.3083 164.982 42.1583 165.532 41.125C166.099 40.075 166.907 39.2333 167.957 38.6C169.007 37.95 170.274 37.625 171.757 37.625C173.241 37.625 174.499 37.9417 175.532 38.575C176.582 39.2083 177.382 40.0417 177.932 41.075C178.482 42.0917 178.757 43.2 178.757 44.4C178.757 44.6333 178.741 44.8667 178.707 45.1C178.691 45.3167 178.674 45.5083 178.657 45.675H168.957C169.007 46.2583 169.166 46.75 169.432 47.15C169.716 47.55 170.074 47.8583 170.507 48.075C170.941 48.275 171.399 48.375 171.882 48.375C172.482 48.375 173.041 48.2333 173.557 47.95C174.091 47.6667 174.457 47.2833 174.657 46.8L178.057 47.75C177.724 48.4333 177.249 49.0417 176.632 49.575C176.032 50.0917 175.316 50.5 174.482 50.8C173.666 51.1 172.757 51.25 171.757 51.25ZM168.857 43.225H174.557C174.491 42.675 174.332 42.2 174.082 41.8C173.832 41.3833 173.499 41.0667 173.082 40.85C172.666 40.6167 172.207 40.5 171.707 40.5C171.191 40.5 170.724 40.6167 170.307 40.85C169.907 41.0667 169.582 41.3833 169.332 41.8C169.082 42.2 168.924 42.675 168.857 43.225ZM201.32 51H197.32V43.625C197.32 42.775 197.162 42.15 196.845 41.75C196.529 41.35 196.12 41.15 195.62 41.15C195.087 41.15 194.562 41.3667 194.045 41.8C193.529 42.2333 193.162 42.7917 192.945 43.475V51H188.945V43.625C188.945 42.7583 188.787 42.1333 188.47 41.75C188.154 41.35 187.745 41.15 187.245 41.15C186.729 41.15 186.212 41.3667 185.695 41.8C185.179 42.2333 184.804 42.7917 184.57 43.475V51H180.57V37.875H184.17V40.075C184.654 39.2917 185.304 38.6917 186.12 38.275C186.954 37.8417 187.92 37.625 189.02 37.625C190.104 37.625 190.937 37.8833 191.52 38.4C192.104 38.9 192.479 39.4917 192.645 40.175C193.145 39.3583 193.804 38.7333 194.62 38.3C195.454 37.85 196.387 37.625 197.42 37.625C198.254 37.625 198.929 37.7833 199.445 38.1C199.962 38.4 200.354 38.8 200.62 39.3C200.887 39.8 201.07 40.3417 201.17 40.925C201.27 41.4917 201.32 42.05 201.32 42.6V51ZM208.945 47.075C208.945 46.2083 209.186 45.45 209.67 44.8C210.153 44.15 210.82 43.6417 211.67 43.275C212.52 42.8917 213.495 42.7 214.595 42.7C215.128 42.7 215.653 42.75 216.17 42.85C216.686 42.9333 217.136 43.0583 217.52 43.225V42.65C217.52 41.9333 217.303 41.3833 216.87 41C216.436 40.6167 215.778 40.425 214.895 40.425C214.161 40.425 213.47 40.55 212.82 40.8C212.186 41.05 211.511 41.4083 210.795 41.875L209.595 39.325C210.461 38.7583 211.361 38.3333 212.295 38.05C213.245 37.7667 214.245 37.625 215.295 37.625C217.261 37.625 218.786 38.1 219.87 39.05C220.97 39.9833 221.52 41.3417 221.52 43.125V46.55C221.52 46.95 221.578 47.2333 221.695 47.4C221.828 47.55 222.053 47.6417 222.37 47.675V51C222.036 51.0667 221.72 51.1167 221.42 51.15C221.136 51.1833 220.886 51.2 220.67 51.2C219.92 51.2 219.345 51.05 218.945 50.75C218.561 50.45 218.32 50.0417 218.22 49.525L218.145 48.95C217.561 49.7 216.861 50.275 216.045 50.675C215.245 51.0583 214.403 51.25 213.52 51.25C212.653 51.25 211.87 51.0667 211.17 50.7C210.486 50.3333 209.945 49.8333 209.545 49.2C209.145 48.5667 208.945 47.8583 208.945 47.075ZM216.895 47.575C217.078 47.425 217.228 47.2583 217.345 47.075C217.461 46.8917 217.52 46.7167 217.52 46.55V45.375C217.186 45.2417 216.811 45.1417 216.395 45.075C215.995 44.9917 215.62 44.95 215.27 44.95C214.536 44.95 213.928 45.1167 213.445 45.45C212.961 45.7667 212.72 46.1917 212.72 46.725C212.72 47.025 212.803 47.3 212.97 47.55C213.136 47.8 213.361 48 213.645 48.15C213.945 48.3 214.295 48.375 214.695 48.375C215.095 48.375 215.495 48.3 215.895 48.15C216.295 48 216.628 47.8083 216.895 47.575ZM224.368 32.75H228.368V46.325C228.368 46.875 228.468 47.2667 228.668 47.5C228.868 47.7333 229.151 47.85 229.518 47.85C229.768 47.85 230.018 47.8167 230.268 47.75C230.535 47.6667 230.768 47.575 230.968 47.475L231.493 50.475C230.993 50.7083 230.418 50.8917 229.768 51.025C229.118 51.1583 228.51 51.225 227.943 51.225C226.81 51.225 225.926 50.925 225.293 50.325C224.676 49.7083 224.368 48.8417 224.368 47.725V32.75ZM241.048 50.3C240.681 50.45 240.273 50.6 239.823 50.75C239.39 50.9 238.931 51.0167 238.448 51.1C237.965 51.2 237.49 51.25 237.023 51.25C236.356 51.25 235.74 51.1417 235.173 50.925C234.623 50.6917 234.181 50.3167 233.848 49.8C233.531 49.2833 233.373 48.6 233.373 47.75V40.9H231.698V37.875H233.373V33.7H237.373V37.875H240.048V40.9H237.373V46.375C237.373 46.8083 237.481 47.125 237.698 47.325C237.915 47.5083 238.19 47.6 238.523 47.6C238.806 47.6 239.106 47.55 239.423 47.45C239.756 47.35 240.04 47.2417 240.273 47.125L241.048 50.3ZM241.781 47.075C241.781 46.2083 242.023 45.45 242.506 44.8C242.99 44.15 243.656 43.6417 244.506 43.275C245.356 42.8917 246.331 42.7 247.431 42.7C247.965 42.7 248.49 42.75 249.006 42.85C249.523 42.9333 249.973 43.0583 250.356 43.225V42.65C250.356 41.9333 250.14 41.3833 249.706 41C249.273 40.6167 248.615 40.425 247.731 40.425C246.998 40.425 246.306 40.55 245.656 40.8C245.023 41.05 244.348 41.4083 243.631 41.875L242.431 39.325C243.298 38.7583 244.198 38.3333 245.131 38.05C246.081 37.7667 247.081 37.625 248.131 37.625C250.098 37.625 251.623 38.1 252.706 39.05C253.806 39.9833 254.356 41.3417 254.356 43.125V46.55C254.356 46.95 254.415 47.2333 254.531 47.4C254.665 47.55 254.89 47.6417 255.206 47.675V51C254.873 51.0667 254.556 51.1167 254.256 51.15C253.973 51.1833 253.723 51.2 253.506 51.2C252.756 51.2 252.181 51.05 251.781 50.75C251.398 50.45 251.156 50.0417 251.056 49.525L250.981 48.95C250.398 49.7 249.698 50.275 248.881 50.675C248.081 51.0583 247.24 51.25 246.356 51.25C245.49 51.25 244.706 51.0667 244.006 50.7C243.323 50.3333 242.781 49.8333 242.381 49.2C241.981 48.5667 241.781 47.8583 241.781 47.075ZM249.731 47.575C249.915 47.425 250.065 47.2583 250.181 47.075C250.298 46.8917 250.356 46.7167 250.356 46.55V45.375C250.023 45.2417 249.648 45.1417 249.231 45.075C248.831 44.9917 248.456 44.95 248.106 44.95C247.373 44.95 246.765 45.1167 246.281 45.45C245.798 45.7667 245.556 46.1917 245.556 46.725C245.556 47.025 245.64 47.3 245.806 47.55C245.973 47.8 246.198 48 246.481 48.15C246.781 48.3 247.131 48.375 247.531 48.375C247.931 48.375 248.331 48.3 248.731 48.15C249.131 48 249.465 47.8083 249.731 47.575Z" fill="black"/>
</svg>
