<svg width="1730" height="361" viewBox="0 0 1730 361" fill="none" xmlns="http://www.w3.org/2000/svg">
<rect width="1730" height="361" fill="#FBD3A4"/>
<path d="M1241 361C1049.96 228.711 665.268 222.672 462.292 258.31C298.917 135.888 -32.7768 99.2415 -237.792 180.187C-459.405 267.775 -506 361 -506 361H1241Z" fill="#FBC78A"/>
<path d="M1262.5 92C1257.65 92 1252.92 90.5631 1248.89 87.871C1244.86 85.1789 1241.72 81.3525 1239.86 76.8758C1238.01 72.399 1237.53 67.4729 1238.47 62.7203C1239.42 57.9678 1241.75 53.6023 1245.18 50.1759C1248.6 46.7495 1252.97 44.4161 1257.72 43.4708C1262.47 42.5254 1267.4 43.0106 1271.88 44.865C1276.35 46.7193 1280.18 49.8596 1282.87 53.8886C1285.56 57.9176 1287 62.6544 1287 67.5C1287 73.9978 1284.42 80.2295 1279.82 84.8241C1275.23 89.4188 1269 92 1262.5 92V92ZM1262.5 43.98C1257.85 43.98 1253.3 45.3602 1249.43 47.946C1245.56 50.5319 1242.54 54.2072 1240.76 58.5073C1238.98 62.8073 1238.51 67.539 1239.42 72.1039C1240.33 76.6689 1242.57 80.862 1245.86 84.1532C1249.15 87.4443 1253.34 89.6856 1257.91 90.5936C1262.47 91.5016 1267.21 91.0356 1271.51 89.2545C1275.81 87.4733 1279.48 84.4571 1282.07 80.5871C1284.65 76.7171 1286.03 72.1673 1286.03 67.5129C1286.03 61.2737 1283.54 55.292 1279.13 50.8802C1274.72 46.4684 1268.74 43.9868 1262.5 43.98V43.98Z" fill="#FCF892"/>
<path d="M1276.09 55.9306H1248.92C1248.65 55.9289 1248.38 55.982 1248.13 56.0869C1247.88 56.1917 1247.65 56.3463 1247.46 56.5416C1247.26 56.737 1247.11 56.9693 1247.01 57.2252C1246.9 57.4811 1246.85 57.7555 1246.85 58.0327V75.0062C1246.84 75.2877 1246.89 75.5677 1246.99 75.8297C1247.09 76.0916 1247.24 76.3302 1247.44 76.5311C1247.63 76.7321 1247.86 76.8913 1248.12 76.9994C1248.37 77.1075 1248.65 77.1623 1248.92 77.1605H1259.06L1261.75 82.6572C1261.82 82.806 1261.93 82.9312 1262.07 83.0188C1262.21 83.1063 1262.37 83.1528 1262.53 83.1528C1262.69 83.1528 1262.85 83.1063 1262.99 83.0188C1263.13 82.9312 1263.24 82.806 1263.31 82.6572L1265.95 77.1605H1276.09C1276.36 77.1605 1276.63 77.1061 1276.88 77.0005C1277.13 76.8948 1277.36 76.74 1277.55 76.5448C1277.74 76.3496 1277.89 76.1179 1278 75.8628C1278.1 75.6078 1278.15 75.3344 1278.15 75.0584V58.0849C1278.16 57.8045 1278.11 57.5255 1278.01 57.2644C1277.91 57.0033 1277.76 56.7654 1277.57 56.5646C1277.37 56.3639 1277.15 56.2044 1276.89 56.0955C1276.64 55.9866 1276.37 55.9305 1276.09 55.9306ZM1264.63 72.2382L1262.47 73.6483L1260.3 72.2382C1258.7 71.1937 1254.44 68.4126 1254.44 64.117C1254.45 63.0779 1254.84 62.0802 1255.54 61.3245C1256.24 60.5687 1257.19 60.1109 1258.21 60.0431C1259.23 59.9753 1260.23 60.3025 1261.02 60.959C1261.81 61.6154 1262.33 62.5525 1262.47 63.5817C1262.61 62.5525 1263.12 61.6154 1263.91 60.959C1264.7 60.3025 1265.71 59.9753 1266.73 60.0431C1267.74 60.1109 1268.7 60.5687 1269.4 61.3245C1270.1 62.0802 1270.49 63.0779 1270.5 64.117C1270.5 68.4126 1266.23 71.1937 1264.63 72.2382Z" fill="#FCF892"/>
<path d="M501.52 86C496.671 86.0039 491.93 84.5689 487.897 81.8765C483.864 79.1842 480.721 75.3556 478.865 70.8757C477.009 66.3958 476.525 61.4659 477.473 56.7104C478.421 51.9549 480.758 47.5877 484.19 44.1617C487.622 40.7357 491.993 38.4051 496.75 37.4649C501.507 36.5248 506.436 37.0174 510.913 38.8803C515.39 40.7433 519.213 43.8929 521.899 47.9302C524.585 51.9675 526.012 56.7111 526 61.5601C525.979 68.0424 523.392 74.2525 518.804 78.8325C514.217 83.4124 508.002 85.9894 501.52 86V86ZM501.52 38.5225C496.973 38.5225 492.528 39.8703 488.747 42.3955C484.966 44.9207 482.019 48.5101 480.277 52.71C478.535 56.9099 478.077 61.5319 478.961 65.9919C479.846 70.4519 482.032 74.5497 485.244 77.7676C488.456 80.9854 492.55 83.1789 497.009 84.0708C501.467 84.9627 506.09 84.513 510.293 82.7785C514.496 81.044 518.09 78.1026 520.622 74.3259C523.154 70.5493 524.51 66.1069 524.517 61.5601C524.52 58.5374 523.927 55.5438 522.773 52.7501C521.619 49.9565 519.925 47.4176 517.79 45.2783C515.654 43.1391 513.118 41.4414 510.327 40.2823C507.535 39.1231 504.543 38.5251 501.52 38.5225V38.5225Z" fill="#FCF892"/>
<path d="M494.874 58.8304C494.874 58.8304 497.375 52.8275 497.535 51.827C497.339 50.0218 496.97 48.2395 496.434 46.5045C496.294 45.8042 499.496 44.8837 501.037 47.1448C502.483 49.0913 503.192 51.4879 503.038 53.908L511.042 52.2673C511.688 52.1561 512.353 52.3036 512.892 52.6779C513.431 53.0522 513.801 53.6234 513.923 54.2682C514.026 54.7309 514.006 55.2125 513.866 55.6652C513.725 56.118 513.469 56.5262 513.122 56.8495C513.619 56.9009 514.085 57.1153 514.447 57.4592C514.809 57.8031 515.047 58.2571 515.123 58.7504C515.239 59.3092 515.161 59.8905 514.903 60.3993C514.645 60.9081 514.222 61.3144 513.703 61.5517C514.195 62.0352 514.512 62.6689 514.603 63.3526C514.639 63.9398 514.491 64.5236 514.179 65.0223C513.867 65.521 513.406 65.9097 512.862 66.1339C513.207 66.6582 513.451 67.2416 513.583 67.8547C513.657 68.5842 513.447 69.3143 512.996 69.8924C512.545 70.4704 511.887 70.8516 511.162 70.9562L498.035 73.6775L494.874 58.8304Z" fill="#FCF892"/>
<path d="M492.885 58.771L487.164 59.9589L490.752 77.2388L496.473 76.0509L492.885 58.771Z" fill="#FCF892"/>
<path d="M1373.02 137.404L1282.81 80L1282 81.2661L1372.22 138.67L1373.02 137.404Z" fill="#FCF892"/>
<path d="M479.437 71.1331L387 124.889L387.754 126.187L480.191 72.4304L479.437 71.1331Z" fill="#FCF892"/>
<path d="M1450.27 296.37C1430.08 296.37 1410.34 290.383 1393.56 279.167C1376.77 267.951 1363.69 252.009 1355.96 233.357C1348.24 214.705 1346.21 194.182 1350.15 174.381C1354.09 154.58 1363.81 136.392 1378.09 122.117C1392.36 107.841 1410.55 98.1198 1430.35 94.1812C1450.15 90.2427 1470.68 92.2641 1489.33 99.9899C1507.98 107.716 1523.92 120.799 1535.14 137.585C1546.36 154.371 1552.34 174.106 1552.34 194.295C1552.31 221.358 1541.55 247.305 1522.41 266.442C1503.28 285.578 1477.33 296.342 1450.27 296.37V296.37Z" fill="white"/>
<path d="M1450.27 94.878C1469.93 94.878 1489.15 100.709 1505.5 111.633C1521.85 122.557 1534.59 138.084 1542.12 156.25C1549.64 174.416 1551.61 194.405 1547.77 213.69C1543.94 232.975 1534.47 250.689 1520.57 264.593C1506.66 278.497 1488.95 287.965 1469.66 291.801C1450.38 295.637 1430.39 293.668 1412.22 286.144C1394.06 278.619 1378.53 265.877 1367.6 249.528C1356.68 233.179 1350.85 213.958 1350.85 194.295C1350.85 167.928 1361.32 142.641 1379.97 123.996C1398.61 105.352 1423.9 94.878 1450.27 94.878ZM1450.27 89.5616C1429.55 89.5616 1409.3 95.7042 1392.08 107.212C1374.86 118.721 1361.43 135.078 1353.51 154.215C1345.58 173.353 1343.51 194.411 1347.55 214.727C1351.59 235.043 1361.56 253.705 1376.21 268.352C1390.86 282.999 1409.52 292.974 1429.83 297.015C1450.15 301.057 1471.21 298.983 1490.35 291.056C1509.48 283.129 1525.84 269.705 1537.35 252.481C1548.86 235.258 1555 215.009 1555 194.295C1554.97 166.526 1543.93 139.904 1524.29 120.268C1504.66 100.633 1478.04 89.5898 1450.27 89.5616V89.5616Z" fill="#9998D3"/>
<path d="M1214.38 138.685C1216.81 138.111 1219.35 138.306 1221.66 139.243C1225.29 140.925 1228.78 142.88 1232.11 145.091C1237.42 147.989 1246.04 152.747 1252.2 152.481C1253.45 152.481 1256.06 151.923 1254.36 150.355C1252.01 148.441 1249.84 146.333 1247.84 144.055C1246.87 142.9 1246.14 141.556 1245.7 140.106C1245.27 138.655 1245.14 137.131 1245.32 135.628C1245.43 134.714 1245.88 133.872 1246.57 133.263C1247.61 132.492 1248.32 132.997 1249.23 133.608C1250.08 134.224 1250.96 134.783 1251.89 135.283L1257.68 138.605C1268.92 145.171 1280.14 152.88 1286.79 164.39C1287.74 166.065 1293.57 179.223 1297.29 186.639C1300.34 193.418 1323.44 235.816 1323.44 235.816L1364.62 195.677C1373.84 186.453 1383.07 177.894 1391.2 174.757C1396.14 172.627 1400.92 170.148 1405.5 167.341L1390.19 240.016C1390.19 240.016 1346.68 272.765 1340.48 277.231C1331.26 283.903 1312.84 294.695 1303.69 283.398C1291.31 268.086 1285.27 246.023 1279.48 229.17C1273.68 212.317 1270.6 202.083 1267.28 196.262C1263.95 190.44 1258.5 190.042 1254.68 188.845C1249.35 187.358 1244.26 185.139 1239.55 182.253C1235.32 179.917 1231.42 177.04 1227.93 173.694C1226.1 172.248 1224.58 170.438 1223.47 168.377C1223.21 166.446 1222.84 164.529 1222.38 162.636C1221.1 160.748 1219.94 158.786 1218.9 156.761C1218.54 155.013 1218.41 153.225 1218.52 151.445C1218.39 150.17 1217.98 148.94 1217.33 147.835C1216.68 146.731 1215.8 145.777 1214.75 145.038C1213.7 144.265 1212.84 143.254 1212.25 142.088C1211.43 140.068 1212.76 139.11 1214.38 138.685Z" fill="#FFBDA7"/>
<path d="M1407.36 165.719C1398.35 167.814 1389.92 171.901 1382.7 177.681C1372.81 185.39 1323.98 228.453 1323.98 228.453L1303.24 198.202C1303.24 198.202 1302.9 206.177 1291.31 212.929C1279.08 220.026 1274.67 217.607 1274.67 217.607C1274.67 217.607 1283.86 254.025 1293.73 272.021C1303.59 290.017 1309.41 295.785 1325.62 288.422C1341.84 281.059 1397.58 239.564 1397.58 239.564L1407.36 165.719Z" fill="#263238"/>
<path d="M1259.25 157.851C1262.12 164.819 1266.91 170.835 1273.04 175.209C1269.09 174.733 1265.45 172.845 1262.78 169.892C1261.38 168.245 1260.35 166.321 1259.74 164.247C1259.13 162.173 1258.96 159.994 1259.25 157.851V157.851Z" fill="#F0997A"/>
<path d="M1323.98 228.453C1330.94 240.521 1333.12 256.045 1331.68 263.993C1336.74 251.207 1337 238.049 1328.47 224.492L1323.98 228.453Z" fill="black"/>
<path d="M1523.1 222.126C1521.08 234.327 1516.62 254.397 1513.64 270.904C1495.14 286.164 1471.74 294.224 1447.77 293.599C1423.8 292.974 1400.85 283.705 1383.17 267.502V253.387C1383.17 253.387 1371.82 242.754 1373.55 223.11C1375.28 203.466 1400.72 172.125 1407.44 165.613C1412.76 163.513 1436.31 159.419 1436.31 159.419C1455.5 159.33 1474.61 161.643 1493.22 166.304C1500.4 168.165 1509.78 171.381 1509.78 171.381C1512.79 179.17 1526.56 200.993 1523.1 222.126Z" fill="#37474F"/>
<path d="M1399.63 85.7339C1388.68 45.3558 1425.89 24.5952 1462.95 31.2142C1475.15 33.3407 1490.88 40.3318 1492.59 57.7962C1508.69 62.8467 1516.51 84.3781 1506.49 107.451C1499.26 124.145 1484.85 132.465 1478.31 142.726L1399.63 85.7339Z" fill="#E0E0E0"/>
<path d="M1493.3 91.5022C1482.96 86.9832 1477.75 97.8022 1477.75 97.8022C1471 102.002 1467.12 88.4985 1465.66 84.5112C1463 77.4138 1460.63 67.286 1452.77 64.362C1446.92 62.1556 1440.3 64.362 1434.96 67.5518C1433.37 68.4932 1431.61 69.1034 1429.78 69.3455C1427.96 69.5877 1426.1 69.4567 1424.32 68.9607C1421.11 68.0835 1420.1 63.086 1417.17 61.5177C1408.77 56.9987 1403.03 71.034 1401.09 77.4669C1398.9 85.5967 1398.01 94.0194 1398.43 102.427C1399.04 132.518 1406.41 145.809 1414.83 149.371C1421.64 152.116 1429.04 153.032 1436.31 152.029L1436.18 160.988C1432.95 165.391 1430.65 170.403 1429.41 175.721C1428.17 181.039 1428.02 186.552 1428.97 191.929C1445.75 190.015 1470.31 180.844 1478.36 165.639V121.035C1480.25 124.969 1489.18 126.856 1494.71 119.785C1501.84 110.482 1503.24 95.835 1493.3 91.5022Z" fill="#FFBDA7"/>
<path d="M1426.08 128.637L1440.19 125.447C1440.45 126.399 1440.52 127.392 1440.39 128.37C1440.27 129.348 1439.95 130.292 1439.45 131.145C1438.96 131.998 1438.3 132.745 1437.51 133.341C1436.73 133.937 1435.83 134.371 1434.88 134.618C1432.92 134.97 1430.9 134.541 1429.26 133.423C1427.61 132.305 1426.47 130.587 1426.08 128.637Z" fill="#B16668"/>
<path d="M1431.79 134.565C1432.82 134.805 1433.88 134.805 1434.9 134.565C1436.22 134.256 1437.42 133.577 1438.36 132.606C1439.31 131.635 1439.95 130.415 1440.22 129.089C1438.41 128.945 1436.6 129.404 1435.07 130.394C1433.55 131.384 1432.4 132.851 1431.79 134.565V134.565Z" fill="#F28F8F"/>
<path d="M1436.34 151.976C1446.09 150.488 1463.88 145.729 1466.83 137.702C1466.83 137.702 1467.28 144.214 1459.76 149.956C1453.46 154.767 1436.23 157.771 1436.23 157.771L1436.34 151.976Z" fill="#F0997A"/>
<path d="M1405.77 81.6403L1415.82 78.7429C1415.66 78.081 1415.36 77.4583 1414.96 76.9122C1414.55 76.3661 1414.04 75.9079 1413.45 75.5653C1412.86 75.2226 1412.21 75.0025 1411.53 74.9181C1410.86 74.8338 1410.17 74.887 1409.52 75.0745C1408.17 75.4773 1407.03 76.3842 1406.33 77.6068C1405.63 78.8295 1405.43 80.2739 1405.77 81.6403V81.6403Z" fill="#455A64"/>
<path d="M1450.32 84.6175L1440.38 81.4277C1440.55 80.7664 1440.86 80.1475 1441.28 79.6094C1441.7 79.0712 1442.23 78.6252 1442.83 78.2989C1443.43 77.9725 1444.09 77.7727 1444.77 77.712C1445.45 77.6512 1446.14 77.7306 1446.78 77.9454C1448.12 78.3913 1449.23 79.3327 1449.89 80.5747C1450.54 81.8167 1450.7 83.2641 1450.32 84.6175Z" fill="#455A64"/>
<path d="M1406.46 97.1907C1406.4 97.7553 1406.46 98.3255 1406.63 98.8678C1406.79 99.41 1407.07 99.9132 1407.43 100.348C1407.8 100.783 1408.25 101.14 1408.75 101.399C1409.26 101.658 1409.81 101.813 1410.37 101.856C1410.94 101.899 1411.51 101.828 1412.04 101.647C1412.58 101.466 1413.08 101.18 1413.5 100.805C1413.93 100.429 1414.28 99.9728 1414.52 99.4617C1414.77 98.9506 1414.91 98.3954 1414.94 97.8287C1414.99 97.2647 1414.94 96.6956 1414.77 96.1537C1414.61 95.6118 1414.34 95.1078 1413.98 94.6707C1413.61 94.2336 1413.17 93.872 1412.67 93.6065C1412.17 93.341 1411.62 93.177 1411.06 93.1237C1409.91 93.0581 1408.78 93.4487 1407.92 94.2105C1407.06 94.9722 1406.53 96.0434 1406.46 97.1907V97.1907Z" fill="#263238"/>
<path d="M1438.52 99.5033C1438.41 100.645 1438.75 101.784 1439.48 102.671C1440.21 103.558 1441.26 104.121 1442.4 104.235C1443.55 104.293 1444.68 103.897 1445.54 103.131C1446.4 102.365 1446.92 101.291 1447 100.141C1447.05 99.5766 1447 99.0065 1446.83 98.4643C1446.66 97.922 1446.39 97.4187 1446.02 96.984C1445.66 96.5492 1445.21 96.1919 1444.71 95.9329C1444.2 95.6739 1443.65 95.5186 1443.08 95.476C1442.52 95.4334 1441.95 95.5044 1441.41 95.685C1440.87 95.8655 1440.38 96.1519 1439.95 96.5272C1439.53 96.9025 1439.18 97.3591 1438.93 97.8702C1438.69 98.3813 1438.55 98.9366 1438.52 99.5033V99.5033Z" fill="#263238"/>
<path d="M1448.41 97.3768C1448.55 97.156 1448.77 96.995 1449.02 96.9249L1450.37 96.4464L1452.18 95.8085C1452.69 95.6123 1453.2 95.4437 1453.72 95.3034L1454.68 95.0907C1455.1 95.0245 1455.53 95.0245 1455.96 95.0907C1456.3 95.0907 1456.35 95.5958 1456.27 95.8616C1456.23 96.0433 1456.13 96.2098 1456 96.3449C1455.87 96.4799 1455.71 96.579 1455.53 96.6325L1454.81 96.8451H1454.31H1454.09H1453.62L1452.02 97.3502C1451.34 97.6173 1450.62 97.7959 1449.89 97.8819C1449.52 97.9229 1449.15 97.868 1448.8 97.7224C1448.72 97.7001 1448.63 97.6572 1448.56 97.5971C1448.5 97.5371 1448.44 97.4616 1448.41 97.3768V97.3768Z" fill="#F0997A"/>
<path d="M1448.67 100.673C1449.05 100.189 1449.6 99.8743 1450.21 99.7957C1451.09 99.6703 1451.98 99.6258 1452.87 99.6627C1453.88 99.6627 1454.87 99.6627 1455.88 99.7957C1456.89 99.9286 1456.27 101.311 1455.56 101.391C1454.31 101.51 1453.06 101.51 1451.81 101.391H1449.15C1448.88 101.391 1448.91 101.391 1448.73 101.125C1448.69 101.099 1448.66 101.066 1448.64 101.03C1448.62 100.993 1448.61 100.952 1448.6 100.91C1448.6 100.868 1448.6 100.825 1448.61 100.785C1448.63 100.744 1448.65 100.706 1448.67 100.673Z" fill="#F0997A"/>
<path d="M1448.86 102.799C1449.1 102.56 1449.47 102.799 1449.79 102.799L1450.43 102.959L1451.78 103.384L1453.03 103.73L1453.56 103.863C1453.79 103.926 1454.01 104.006 1454.23 104.102C1454.34 104.132 1454.43 104.198 1454.5 104.29C1454.57 104.381 1454.6 104.493 1454.6 104.607V104.74C1454.6 104.887 1454.56 105.03 1454.48 105.157C1454.41 105.283 1454.3 105.387 1454.17 105.458C1453.98 105.552 1453.77 105.598 1453.56 105.591H1453.38H1452.79L1452.13 105.431L1450.77 105.006C1450.19 104.839 1449.65 104.559 1449.18 104.182C1449.01 104.05 1448.88 103.875 1448.8 103.677C1448.7 103.552 1448.65 103.391 1448.66 103.227C1448.67 103.064 1448.74 102.911 1448.86 102.799Z" fill="#F0997A"/>
<path d="M1387.88 87.0364C1388.12 88.6854 1388.82 90.2334 1389.9 91.5021C1390.29 91.9764 1390.57 92.5298 1390.72 93.1237C1391.4 97.1696 1392.38 101.159 1393.65 105.059C1394.67 107.668 1396.43 109.92 1398.72 111.536C1401 113.152 1403.71 114.061 1406.51 114.15C1407.95 114.273 1409.39 114.228 1410.82 114.017H1411.14C1412.36 113.805 1413.55 113.401 1414.65 112.821H1414.86L1415.15 112.635L1415.52 112.396L1415.87 112.156L1416.24 111.864L1416.61 111.545C1416.85 111.346 1417.07 111.133 1417.28 110.907C1418.4 109.618 1419.29 108.154 1419.94 106.574C1421.69 102.534 1421.13 96.7389 1424.14 96.2338H1424.88C1429 96.5262 1428.63 102.773 1430.99 107.398C1432.31 110.309 1434.44 112.781 1437.12 114.52C1439.8 116.259 1442.92 117.191 1446.12 117.207H1447.29H1448.19C1448.91 117.189 1449.63 117.127 1450.35 117.021L1451.01 116.888L1451.65 116.755H1452.05C1452.88 116.514 1453.69 116.175 1454.44 115.745L1455.24 115.24C1455.73 114.903 1456.2 114.52 1456.62 114.097C1457.75 112.939 1458.65 111.577 1459.28 110.083C1460.34 106.288 1461.09 102.412 1461.51 98.4932C1461.63 97.9084 1461.86 97.3501 1462.18 96.8451C1463.24 95.7072 1463.91 94.2669 1464.12 92.725C1464.14 91.9038 1463.92 91.0942 1463.46 90.4084C1463.01 89.7225 1462.36 89.1944 1461.59 88.8971L1459.38 88.4718C1452.37 87.249 1443.2 86.3718 1437.75 87.568C1430.89 89.0832 1428.55 91.13 1424.72 90.8908C1420.89 90.6515 1418.77 88.2326 1412.23 85.5744C1405.63 83.7087 1398.76 82.9894 1391.92 83.4478H1389.9C1388.86 83.5275 1387.72 85.149 1387.88 87.0364ZM1433.07 93.7882C1433.59 93.1436 1434.25 92.633 1435.01 92.2996L1435.35 92.1135H1435.54L1436.5 91.6882L1437.4 91.3692C1438.36 91.0556 1439.33 90.8069 1440.33 90.625L1441.47 90.4123C1442.47 90.2534 1443.48 90.1469 1444.5 90.0933H1445.19C1451.81 89.9072 1455.96 91.6882 1457.47 93.1237C1458.99 94.5591 1458.43 100.673 1457.87 103.756V103.996C1457.87 103.996 1457.87 104.155 1457.87 104.235C1457.87 104.315 1457.71 105.032 1457.6 105.458C1457.5 105.883 1457.6 105.963 1457.42 106.229C1457.31 106.665 1457.17 107.092 1456.99 107.505L1456.65 107.824V108.063L1456.51 108.355C1456.51 108.355 1456.38 108.594 1456.33 108.727C1456.27 108.866 1456.2 108.999 1456.11 109.126L1455.85 109.551L1455.58 109.95C1454.55 111.369 1453.14 112.478 1451.52 113.158C1449.9 113.837 1448.12 114.06 1446.39 113.804C1444.55 113.79 1442.74 113.409 1441.05 112.683C1439.37 111.957 1437.85 110.901 1436.58 109.578V109.578C1434.96 107.729 1433.83 105.51 1433.28 103.119C1432.4 99.6629 1431.87 95.5958 1433.12 93.7882H1433.07ZM1394.13 88.4718C1394.59 88.0527 1395.13 87.7356 1395.72 87.5414V87.5414C1395.95 87.4301 1396.19 87.3496 1396.44 87.3022L1396.86 87.1693H1397.21H1397.47H1397.85C1398.35 87.0843 1398.85 87.031 1399.36 87.0098H1401.06H1402.1H1402.87C1403.8 87.0098 1404.84 87.249 1405.93 87.4617C1410.63 88.4186 1415.6 90.8642 1416.91 92.7781C1418.21 94.692 1418 98.7857 1417.44 102.215C1417.32 102.992 1417.14 103.757 1416.88 104.501C1416.89 104.553 1416.89 104.608 1416.88 104.66V104.899V105.059V105.325C1416.8 105.516 1416.71 105.702 1416.61 105.883C1416.56 106.052 1416.48 106.213 1416.37 106.362V106.521L1416.19 106.84C1416.14 106.935 1416.07 107.024 1416 107.106V107.106C1414.94 108.633 1413.45 109.818 1411.72 110.516C1409.99 111.214 1408.1 111.396 1406.27 111.04C1404.53 110.927 1402.84 110.438 1401.3 109.605C1399.54 108.417 1398.04 106.875 1396.9 105.076C1395.76 103.278 1395 101.263 1394.68 99.1578C1393.81 95.8882 1392.85 89.6946 1394.18 88.4452L1394.13 88.4718Z" fill="#37474F"/>
<path d="M1461.96 89.2161L1482.38 92.9907C1480.84 94.1236 1479.52 95.5184 1478.47 97.1109L1461.96 94.2932V89.2161Z" fill="#37474F"/>
<path d="M1426.69 96.6325L1424.03 121.141L1409.6 116.09L1425.25 96.0742C1425.77 96.1525 1426.26 96.3432 1426.69 96.6325Z" fill="#F0997A"/>
<path d="M1482.4 116.011C1482.4 116.768 1482.63 117.508 1483.05 118.137C1483.47 118.767 1484.07 119.258 1484.77 119.547C1485.47 119.837 1486.24 119.913 1486.98 119.765C1487.72 119.617 1488.4 119.253 1488.94 118.717C1489.47 118.182 1489.84 117.5 1489.99 116.758C1490.13 116.015 1490.06 115.245 1489.77 114.546C1489.48 113.846 1488.99 113.249 1488.36 112.828C1487.73 112.407 1486.99 112.183 1486.23 112.183C1485.22 112.19 1484.25 112.595 1483.53 113.312C1482.82 114.028 1482.41 114.998 1482.4 116.011V116.011Z" fill="#FAFAFA"/>
<path d="M1409.04 306.63C1402.23 305.939 1395.75 299.666 1386.98 296.343C1378.2 293.02 1370.76 292.941 1364.78 290.495C1362.31 291.904 1363.58 297.114 1366.53 299.373C1371.08 302.856 1378.07 305.062 1376.4 306.923C1373.95 309.581 1364.54 307.773 1361.67 307.189C1352.87 305.354 1343.51 300.091 1334.34 302.032C1333.36 302.152 1332.46 302.636 1331.82 303.387C1331.51 304.005 1331.42 304.705 1331.55 305.382C1331.68 306.058 1332.02 306.674 1332.54 307.135C1333.58 308.029 1334.71 308.812 1335.91 309.475C1336.52 309.8 1337.04 310.258 1337.45 310.815C1337.85 311.372 1338.13 312.013 1338.25 312.691C1338.25 313.94 1337.59 315.137 1337.75 316.386C1337.91 317.182 1338.28 317.922 1338.81 318.539C1339.75 319.694 1340.85 320.706 1342.08 321.543C1343.15 322.145 1344.16 322.838 1345.11 323.616C1347.09 325.168 1348.87 326.953 1350.42 328.933C1355.24 336.774 1365.58 339.14 1373.95 340.576C1391.87 343.686 1400.11 339.938 1410.66 340.124C1421.21 340.31 1466.24 338.954 1489.34 337.306C1513.56 335.578 1516.48 331.059 1523.31 308.066C1531.1 281.01 1537.16 253.487 1541.44 225.662C1545.27 196.661 1541.44 181.695 1512.73 172.63C1504.76 178.106 1494.71 197.99 1489.85 236.427L1479.51 294.403C1479.51 294.403 1415.84 307.322 1409.04 306.63Z" fill="#FFBDA7"/>
<path d="M1509.81 171.275C1522.73 173.933 1534.61 177.442 1541.26 187.889C1547.9 198.335 1545.48 209.792 1542.75 231.456C1540.01 253.121 1525.07 309.581 1521.32 321.596C1517.57 333.611 1515.31 336.349 1502.47 338.582C1489.63 340.815 1423.92 341.426 1423.92 341.426C1423.92 341.426 1426.4 335.684 1425.39 323.111C1424.38 310.538 1420.31 305.408 1420.31 305.408L1478.79 293.419C1478.79 293.419 1487.77 239.218 1490.99 222.206C1494.21 205.193 1497.8 186.852 1509.81 171.275Z" fill="#263238"/>
<path d="M1478.74 293.419C1486.55 292.569 1499.71 297.832 1503.59 305.089C1501.97 297.46 1493.86 289.139 1479.53 289.139L1478.74 293.419Z" fill="black"/>
<path d="M381.81 270.811C422.645 229.976 422.645 163.771 381.81 122.937C340.976 82.1026 274.771 82.1027 233.937 122.937C193.103 163.771 193.103 229.976 233.937 270.81C274.771 311.645 340.976 311.645 381.81 270.811Z" fill="white"/>
<path d="M307.873 95.0115C328.015 95.0115 347.705 100.984 364.452 112.175C381.2 123.365 394.253 139.27 401.961 157.879C409.669 176.487 411.685 196.964 407.756 216.719C403.826 236.474 394.127 254.62 379.885 268.862C365.642 283.105 347.496 292.804 327.741 296.734C307.986 300.663 287.51 298.646 268.901 290.938C250.292 283.23 234.387 270.177 223.197 253.43C212.007 236.683 206.034 216.993 206.034 196.851C206.034 169.841 216.763 143.938 235.862 124.84C254.961 105.741 280.864 95.0115 307.873 95.0115M307.873 89.5656C286.655 89.5709 265.916 95.8677 248.276 107.66C230.637 119.452 216.89 136.209 208.774 155.813C200.658 175.418 198.537 196.988 202.68 217.798C206.823 238.608 217.043 257.721 232.048 272.723C247.053 287.724 266.17 297.94 286.98 302.077C307.791 306.214 329.361 304.088 348.963 295.967C368.565 287.846 385.32 274.095 397.107 256.453C408.895 238.81 415.186 218.069 415.186 196.851C415.15 168.403 403.831 141.132 383.713 121.019C363.595 100.906 336.321 89.5944 307.873 89.5656V89.5656Z" fill="#9998D3"/>
<path d="M374.641 207.199C370.42 218.826 361.87 228.792 352.149 237.151C345.851 242.794 338.69 247.391 330.937 250.766C324.375 253.233 317.564 254.977 310.624 255.967C283.067 260.569 239.826 260.242 225.013 231.079C223.124 227.555 222.075 223.643 221.948 219.647C221.82 215.651 222.618 211.68 224.278 208.043C226.483 203.659 230.268 199.874 230.677 194.918C231.194 188.356 225.476 183.1 223.515 176.81C220.438 166.898 227.981 158.484 235.306 152.848C244.292 145.959 245.517 142.174 245.898 134.087C245.898 130.383 244.836 126.735 244.619 123.195C244.379 115.313 246.17 107.502 249.819 100.512C253.516 94.0506 259.486 89.197 266.566 86.8973C266.784 86.8973 343.735 84.9368 343.735 84.9368C344.688 89.348 345.859 93.7865 346.458 98.1705C347.438 105.114 351.713 109.498 355.988 115.026C360.563 121.207 365.355 127.769 365.192 135.503C365.029 143.236 359.746 151.459 361.543 159.111C363.014 164.557 367.806 168.396 371.155 172.862C378.262 182.311 378.834 195.599 374.641 207.199Z" fill="#37474F"/>
<path d="M342.156 189.336C373.661 186.395 377.555 192.059 404.621 210.194C422.919 222.474 446.909 238.649 446.909 238.649C446.909 238.649 463.111 186.395 462.593 178.743C461.994 169.594 457.365 164.638 454.969 155.108C452.573 145.577 452.436 138.988 449.713 135.148C446.991 131.309 454.969 129.703 458.727 134.332C462.484 138.961 463.492 146.122 465.616 144.652C467.74 143.181 467.93 127.769 464.989 116.959C462.049 106.149 467.93 102.718 470.435 106.067C471.867 107.793 473.1 109.675 474.111 111.676C475.063 111.338 476.036 111.065 477.025 110.859C477.732 110.62 478.486 110.552 479.224 110.661C479.963 110.769 480.665 111.052 481.273 111.486C482.498 112.384 483.451 113.637 484.731 114.399C486.126 115.05 487.574 115.579 489.061 115.979C499.571 119.9 500.415 137.191 500.906 146.313C501.94 165.374 494.18 175.748 492.328 182.964C491.62 185.687 491.539 194.292 490.204 212.454C488.679 233.203 487.999 254.388 480.592 275.736C474.411 293.626 461.94 292.918 448.706 287.527C429.809 279.82 374.668 249.623 374.668 249.623C352.449 226.886 342.156 189.336 342.156 189.336Z" fill="#FFA8A7"/>
<path d="M471.279 149.063C471.279 149.063 483.723 155.244 481.763 173.406C481.763 173.406 487.209 163.522 482.308 156.061C477.406 148.6 471.279 149.063 471.279 149.063Z" fill="#F28F8F"/>
<path d="M446.909 238.649C446.909 238.649 441.899 249.541 445.33 268.602C442.609 263.621 440.961 258.126 440.492 252.47C440.023 246.815 440.743 241.123 442.607 235.763L446.909 238.649Z" fill="#F28F8F"/>
<path d="M389.971 257.056C381.766 268.285 371.343 277.709 359.347 284.746C347.351 291.782 334.038 296.281 320.233 297.963C306.428 299.645 292.425 298.475 279.09 294.526C265.756 290.576 253.374 283.93 242.712 275.001C241.918 263.854 241.791 252.67 242.331 241.508C242.405 235.481 243.099 229.477 244.401 223.591C245.599 218.787 247.527 214.195 250.119 209.976C254.094 203.55 261.256 200.527 268.935 198.648C275.089 197.123 281.597 196.307 287.043 195.054L294.83 193.23L329.14 190.289L341.475 189.227C357.078 196.851 377.309 218.935 386.595 240.501C389.04 245.666 390.199 251.346 389.971 257.056V257.056Z" fill="#BA68C8"/>
<path opacity="0.85" d="M389.971 257.056C381.766 268.285 371.343 277.709 359.347 284.746C347.351 291.782 334.038 296.281 320.233 297.963C306.428 299.645 292.425 298.475 279.09 294.526C265.756 290.576 253.374 283.93 242.712 275.001C241.918 263.854 241.791 252.67 242.331 241.508C242.405 235.481 243.099 229.477 244.401 223.591C245.599 218.787 247.527 214.195 250.119 209.976C254.094 203.55 261.256 200.527 268.935 198.648C275.089 197.123 281.597 196.307 287.043 195.054L294.83 193.23L329.14 190.289L341.475 189.227C357.078 196.851 377.309 218.935 386.595 240.501C389.04 245.666 390.199 251.346 389.971 257.056V257.056Z" fill="white"/>
<path d="M280.807 240.909C279.445 251.801 274.68 262.693 270.323 272.741L263.57 288.588C248.02 281.004 234.629 269.626 224.632 255.504C227.355 247.335 231.439 236.743 235.714 227.403C244.101 209.077 247.641 202.107 268.935 198.839C280.807 206.109 282.822 224.381 280.807 240.909Z" fill="#FFA8A7"/>
<path d="M286.144 173.542C286.852 170.547 280.698 159.928 277.294 155.435C266.838 142.446 261.583 139.097 257.498 122.35C254.775 111.186 256.681 98.7966 266.566 86.7611C274.081 68.2448 286.335 59.5312 308.118 56.427C317.675 55.332 327.342 55.6901 336.791 57.489C340.849 58.3876 344.96 59.6674 348.936 60.212C353.136 61.0158 357.477 60.658 361.489 59.1773C363.586 58.3059 366.091 56.9989 367.861 58.197C368.33 58.5993 368.703 59.1016 368.953 59.6671C369.203 60.2325 369.323 60.8467 369.304 61.4646C369.361 64.0258 368.754 66.5581 367.542 68.8152C366.33 71.0722 364.554 72.977 362.387 74.3443C365.158 73.7075 368.066 74.0983 370.571 75.4441C373.076 76.7899 375.006 78.9991 376.005 81.6614C377.003 84.3236 377.001 87.2577 375.999 89.9185C374.997 92.5793 373.063 94.7859 370.556 96.1281C372.125 97.6719 373.128 99.6985 373.404 101.882C373.681 104.065 373.215 106.278 372.081 108.164C369.561 111.705 366.099 114.469 362.088 116.142C350.189 122.323 340.113 131.391 329.63 139.587L299.677 163.059L289.902 170.711C289.357 171.01 286.144 173.052 286.144 173.542Z" fill="#37474F"/>
<path d="M346.649 77.8297C358.221 82.6494 368.432 89.9198 367.888 129.73C367.425 160.418 357.895 168.832 352.694 171.473C345.238 174.547 337.123 175.671 329.113 174.741V193.42C329.113 193.42 358.848 217.927 348.909 236.498C299.895 225.061 287.015 196.688 287.015 196.688L285.218 151.922C283.392 153.393 281.172 154.291 278.837 154.504C276.502 154.717 274.156 154.236 272.093 153.12C269.783 152.003 267.759 150.371 266.179 148.349C264.598 146.327 263.503 143.969 262.977 141.457C262.451 138.945 262.508 136.346 263.144 133.859C263.781 131.373 264.979 129.066 266.647 127.116C272.801 120.499 282.495 121.67 286.335 128.477C286.335 128.477 281.515 99.5591 298.724 86.4343C319.065 70.995 333.061 72.1931 346.649 77.8297Z" fill="#FFA8A7"/>
<path d="M281.461 130.438V129.975C281.008 128.397 280.052 127.01 278.738 126.026C277.825 125.116 276.703 124.443 275.47 124.066C273.89 123.71 272.242 123.816 270.721 124.372C269.2 124.927 267.871 125.908 266.893 127.197C264.978 129.45 263.633 132.131 262.971 135.012C262.544 133.208 262.638 131.319 263.244 129.566C264.371 126.039 266.717 123.028 269.861 121.071C271.426 120.113 273.189 119.527 275.016 119.357C276.842 119.187 278.684 119.438 280.399 120.09C281.981 120.758 283.364 121.823 284.414 123.183C285.464 124.543 286.144 126.151 286.389 127.851C287.043 132.126 284.646 134.686 281.787 137.49C281.437 137.881 281.011 138.196 280.535 138.416C280.299 138.524 280.037 138.561 279.781 138.522C279.524 138.483 279.285 138.371 279.092 138.198C278.919 137.945 278.827 137.646 278.827 137.34C278.827 137.034 278.919 136.736 279.092 136.483C279.554 135.53 280.208 134.631 280.753 133.76C281.306 132.744 281.552 131.59 281.461 130.438V130.438Z" fill="#F28F8F"/>
<path d="M282.795 142.691C282.885 143.371 282.772 144.063 282.468 144.679C281.46 146.449 278.656 146.394 277.022 145.877C274.887 145.237 272.991 143.977 271.576 142.255C269.125 139.206 267.737 133.841 271.576 131.227C272.15 130.79 272.805 130.471 273.503 130.288C274.201 130.106 274.929 130.064 275.643 130.166C276.358 130.267 277.045 130.509 277.665 130.879C278.285 131.248 278.825 131.737 279.255 132.317C280.034 133.952 280.363 135.767 280.208 137.572C280.184 138.375 280.433 139.162 280.916 139.805C281.595 140.391 282.166 141.091 282.604 141.874C282.699 142.138 282.763 142.412 282.795 142.691Z" fill="#FAFAFA"/>
<path d="M326.853 149.036C326.67 150.037 326.701 151.066 326.943 152.055C327.185 153.044 327.633 153.971 328.257 154.775C328.882 155.579 329.668 156.243 330.567 156.723C331.465 157.202 332.454 157.487 333.469 157.559C335.609 157.822 337.77 157.283 339.535 156.046C341.301 154.809 342.545 152.961 343.027 150.86L326.853 149.036Z" fill="#B16668"/>
<path d="M335.975 157.422C335.942 156.561 335.733 155.716 335.36 154.94C334.988 154.163 334.46 153.471 333.809 152.907C333.158 152.343 332.398 151.918 331.576 151.66C330.754 151.401 329.888 151.314 329.031 151.405C328.303 151.445 327.586 151.602 326.907 151.867C327.255 153.39 328.078 154.762 329.258 155.786C330.438 156.809 331.913 157.43 333.469 157.558C334.307 157.623 335.149 157.577 335.975 157.422V157.422Z" fill="#F28F8F"/>
<path d="M326.281 123.004C326.247 124.147 325.782 125.234 324.979 126.048C324.175 126.861 323.093 127.34 321.951 127.388C321.408 127.444 320.86 127.388 320.34 127.222C319.82 127.056 319.341 126.784 318.931 126.423C318.522 126.062 318.192 125.621 317.962 125.126C317.732 124.631 317.607 124.094 317.594 123.548C317.628 122.406 318.093 121.318 318.896 120.504C319.7 119.691 320.782 119.212 321.924 119.164C322.467 119.108 323.015 119.164 323.535 119.33C324.055 119.497 324.534 119.769 324.944 120.129C325.353 120.49 325.683 120.932 325.913 121.427C326.144 121.921 326.269 122.458 326.281 123.004V123.004Z" fill="#263238"/>
<path d="M358.548 119.028C358.508 120.169 358.041 121.253 357.239 122.065C356.437 122.878 355.359 123.358 354.219 123.412C353.674 123.469 353.123 123.412 352.601 123.244C352.08 123.076 351.599 122.802 351.189 122.438C350.779 122.075 350.449 121.63 350.221 121.132C349.992 120.634 349.87 120.094 349.862 119.546C349.902 118.408 350.37 117.327 351.173 116.519C351.976 115.711 353.054 115.236 354.191 115.189C354.735 115.128 355.285 115.182 355.807 115.346C356.328 115.511 356.81 115.782 357.22 116.144C357.63 116.506 357.96 116.949 358.189 117.446C358.418 117.942 358.54 118.482 358.548 119.028V119.028Z" fill="#263238"/>
<path d="M337.881 116.169L340.467 139.941L355.58 135.693L337.881 116.169Z" fill="#F28F8F"/>
<path d="M329.113 174.741C320.1 173.842 300.058 170.493 291.454 156.388C292.462 161.753 295.007 166.71 298.779 170.656C307.465 178.825 329.14 181.956 329.14 181.956L329.113 174.741Z" fill="#F28F8F"/>
<path d="M321.706 108.953L312.257 116.496C311.323 115.269 310.91 113.723 311.109 112.193C311.307 110.664 312.102 109.274 313.319 108.327C314.522 107.316 316.073 106.815 317.64 106.932C319.208 107.049 320.667 107.775 321.706 108.953V108.953Z" fill="#263238"/>
<path d="M360.89 108.872L349.644 105.277C350.199 103.787 351.305 102.566 352.734 101.866C354.162 101.167 355.805 101.043 357.323 101.52C358.056 101.745 358.734 102.118 359.317 102.617C359.899 103.116 360.372 103.729 360.707 104.419C361.041 105.109 361.23 105.86 361.262 106.626C361.293 107.392 361.167 108.157 360.89 108.872V108.872Z" fill="#263238"/>
<path d="M335.838 90.0286C330.774 91.1723 324.729 83.5752 314.599 87.5779C303.707 91.9075 307.22 103.29 299.432 110.124C293.55 115.298 299.432 128.259 293.115 131.336C290.392 132.698 286.471 128.613 286.471 128.613C286.471 128.613 281.025 121.207 282.223 103.317C283.421 85.4268 308.472 71.8936 326.689 70.0692C344.906 68.2448 363.586 78.4015 363.667 94.4126C363.667 94.4126 359.147 84.8005 350.597 84.0925C342.047 83.3845 340.304 88.9939 335.838 90.0286Z" fill="#37474F"/>
</svg>
