<svg width="439" height="47" viewBox="0 0 439 47" fill="none" xmlns="http://www.w3.org/2000/svg">
<rect x="0.5" y="0.5" width="438" height="46" rx="17.5" fill="white" stroke="#9998D3"/>
<path d="M135.496 22.24C135.496 21.5467 135.619 20.8693 135.864 20.208C136.12 19.536 136.488 18.928 136.968 18.384C137.448 17.8293 138.035 17.392 138.728 17.072C139.421 16.7413 140.211 16.576 141.096 16.576C142.141 16.576 143.043 16.8053 143.8 17.264C144.568 17.7227 145.139 18.32 145.512 19.056L143.816 20.224C143.624 19.7973 143.373 19.4613 143.064 19.216C142.755 18.96 142.424 18.784 142.072 18.688C141.72 18.5813 141.373 18.528 141.032 18.528C140.477 18.528 139.992 18.64 139.576 18.864C139.171 19.088 138.829 19.3813 138.552 19.744C138.275 20.1067 138.067 20.512 137.928 20.96C137.8 21.408 137.736 21.856 137.736 22.304C137.736 22.8053 137.816 23.2907 137.976 23.76C138.136 24.2187 138.36 24.6293 138.648 24.992C138.947 25.344 139.299 25.6267 139.704 25.84C140.12 26.0427 140.573 26.144 141.064 26.144C141.416 26.144 141.773 26.0853 142.136 25.968C142.499 25.8507 142.835 25.664 143.144 25.408C143.453 25.152 143.693 24.8213 143.864 24.416L145.672 25.456C145.448 26.0213 145.08 26.5013 144.568 26.896C144.067 27.2907 143.501 27.5893 142.872 27.792C142.243 27.9947 141.619 28.096 141 28.096C140.189 28.096 139.448 27.9307 138.776 27.6C138.104 27.2587 137.523 26.8107 137.032 26.256C136.552 25.6907 136.173 25.0613 135.896 24.368C135.629 23.664 135.496 22.9547 135.496 22.24ZM150.786 28.16C150.103 28.16 149.49 28.048 148.946 27.824C148.402 27.5893 147.938 27.2693 147.554 26.864C147.18 26.4587 146.892 25.9947 146.69 25.472C146.487 24.9493 146.386 24.4 146.386 23.824C146.386 23.2373 146.487 22.6827 146.69 22.16C146.892 21.6373 147.18 21.1733 147.554 20.768C147.938 20.3627 148.402 20.048 148.946 19.824C149.49 19.5893 150.103 19.472 150.786 19.472C151.468 19.472 152.076 19.5893 152.61 19.824C153.154 20.048 153.618 20.3627 154.002 20.768C154.386 21.1733 154.674 21.6373 154.866 22.16C155.068 22.6827 155.17 23.2373 155.17 23.824C155.17 24.4 155.068 24.9493 154.866 25.472C154.674 25.9947 154.386 26.4587 154.002 26.864C153.628 27.2693 153.17 27.5893 152.626 27.824C152.082 28.048 151.468 28.16 150.786 28.16ZM148.594 23.824C148.594 24.3147 148.69 24.752 148.882 25.136C149.074 25.5093 149.335 25.8027 149.666 26.016C149.996 26.2293 150.37 26.336 150.786 26.336C151.191 26.336 151.559 26.2293 151.89 26.016C152.22 25.792 152.482 25.4933 152.674 25.12C152.876 24.736 152.978 24.2987 152.978 23.808C152.978 23.328 152.876 22.896 152.674 22.512C152.482 22.128 152.22 21.8293 151.89 21.616C151.559 21.4027 151.191 21.296 150.786 21.296C150.37 21.296 149.996 21.408 149.666 21.632C149.335 21.8453 149.074 22.144 148.882 22.528C148.69 22.9013 148.594 23.3333 148.594 23.824ZM161.641 28.16C160.99 28.16 160.414 28.016 159.913 27.728C159.422 27.4293 159.038 27.0293 158.761 26.528V31.408H156.617V19.616H158.489V21.056C158.809 20.5653 159.214 20.1813 159.705 19.904C160.195 19.616 160.755 19.472 161.385 19.472C161.95 19.472 162.467 19.584 162.937 19.808C163.417 20.032 163.833 20.3467 164.185 20.752C164.537 21.1467 164.809 21.6053 165.001 22.128C165.203 22.64 165.305 23.1947 165.305 23.792C165.305 24.6027 165.145 25.3387 164.825 26C164.515 26.6613 164.083 27.1893 163.529 27.584C162.985 27.968 162.355 28.16 161.641 28.16ZM160.921 26.336C161.251 26.336 161.55 26.2667 161.817 26.128C162.083 25.9893 162.313 25.8027 162.505 25.568C162.707 25.3227 162.857 25.0507 162.953 24.752C163.059 24.4427 163.113 24.1227 163.113 23.792C163.113 23.44 163.054 23.1147 162.937 22.816C162.83 22.5173 162.67 22.256 162.457 22.032C162.243 21.7973 161.993 21.616 161.705 21.488C161.427 21.36 161.123 21.296 160.793 21.296C160.59 21.296 160.382 21.3333 160.169 21.408C159.966 21.472 159.769 21.568 159.577 21.696C159.385 21.824 159.214 21.9733 159.065 22.144C158.926 22.3147 158.825 22.5013 158.761 22.704V24.672C158.889 24.9813 159.059 25.264 159.273 25.52C159.497 25.776 159.753 25.9787 160.041 26.128C160.329 26.2667 160.622 26.336 160.921 26.336ZM166.652 29.632C166.844 29.6747 167.02 29.712 167.18 29.744C167.351 29.776 167.495 29.792 167.612 29.792C167.815 29.792 167.98 29.7387 168.108 29.632C168.247 29.536 168.38 29.3547 168.508 29.088C168.636 28.832 168.769 28.4693 168.908 28L165.596 19.616H167.82L170.076 25.808L172.06 19.616H174.108L170.588 29.664C170.46 30.0373 170.263 30.3733 169.996 30.672C169.74 30.9813 169.415 31.2213 169.02 31.392C168.636 31.5733 168.204 31.664 167.724 31.664C167.553 31.664 167.383 31.648 167.212 31.616C167.041 31.5947 166.855 31.552 166.652 31.488V29.632ZM180.265 21.472C179.614 21.472 179.033 21.6 178.521 21.856C178.009 22.1013 177.641 22.4587 177.417 22.928V28H175.273V19.616H177.241V21.408C177.54 20.832 177.918 20.3787 178.377 20.048C178.836 19.7173 179.321 19.536 179.833 19.504C179.95 19.504 180.041 19.504 180.105 19.504C180.169 19.504 180.222 19.5093 180.265 19.52V21.472ZM181.46 28V19.616H183.604V28H181.46ZM181.46 18.448V16.32H183.604V18.448H181.46ZM188.819 28.048C188.264 28.048 187.752 27.9413 187.283 27.728C186.824 27.504 186.424 27.1947 186.083 26.8C185.752 26.4053 185.496 25.952 185.315 25.44C185.133 24.928 185.043 24.384 185.043 23.808C185.043 23.2 185.139 22.6347 185.331 22.112C185.522 21.5893 185.789 21.1307 186.131 20.736C186.483 20.3307 186.893 20.0213 187.363 19.808C187.843 19.584 188.371 19.472 188.947 19.472C189.597 19.472 190.168 19.6213 190.659 19.92C191.149 20.208 191.555 20.5973 191.875 21.088V19.616H193.747V27.6C193.747 28.432 193.544 29.1413 193.139 29.728C192.744 30.3253 192.195 30.7787 191.491 31.088C190.787 31.408 189.987 31.568 189.091 31.568C188.184 31.568 187.416 31.4133 186.787 31.104C186.157 30.8053 185.619 30.3787 185.171 29.824L186.339 28.688C186.659 29.0827 187.059 29.392 187.539 29.616C188.029 29.84 188.547 29.952 189.091 29.952C189.549 29.952 189.965 29.8667 190.339 29.696C190.723 29.536 191.027 29.28 191.251 28.928C191.485 28.5867 191.603 28.144 191.603 27.6V26.544C191.325 27.024 190.931 27.3973 190.419 27.664C189.917 27.92 189.384 28.048 188.819 28.048ZM189.539 26.336C189.773 26.336 189.997 26.2987 190.211 26.224C190.424 26.1493 190.621 26.048 190.803 25.92C190.984 25.792 191.144 25.6427 191.283 25.472C191.421 25.2907 191.528 25.1093 191.603 24.928V22.928C191.475 22.5973 191.293 22.3093 191.059 22.064C190.835 21.8187 190.579 21.632 190.291 21.504C190.013 21.3653 189.72 21.296 189.411 21.296C189.08 21.296 188.781 21.3653 188.515 21.504C188.248 21.6427 188.019 21.84 187.827 22.096C187.635 22.3413 187.485 22.6187 187.379 22.928C187.283 23.2267 187.235 23.5413 187.235 23.872C187.235 24.2133 187.293 24.5333 187.411 24.832C187.528 25.1307 187.688 25.392 187.891 25.616C188.104 25.84 188.349 26.016 188.627 26.144C188.915 26.272 189.219 26.336 189.539 26.336ZM203.471 28H201.327V23.296C201.327 22.6453 201.199 22.16 200.943 21.84C200.698 21.52 200.356 21.36 199.919 21.36C199.663 21.36 199.391 21.4347 199.103 21.584C198.815 21.7333 198.554 21.9413 198.319 22.208C198.095 22.464 197.93 22.7627 197.823 23.104V28H195.679V16.32H197.823V21.168C198.132 20.6347 198.554 20.2187 199.087 19.92C199.62 19.6213 200.202 19.472 200.831 19.472C201.375 19.472 201.818 19.568 202.159 19.76C202.5 19.9413 202.767 20.192 202.959 20.512C203.151 20.8213 203.284 21.1733 203.359 21.568C203.434 21.952 203.471 22.352 203.471 22.768V28ZM210.313 27.568C210.131 27.6427 209.913 27.728 209.657 27.824C209.401 27.92 209.123 27.9947 208.825 28.048C208.537 28.112 208.243 28.144 207.945 28.144C207.55 28.144 207.187 28.0747 206.857 27.936C206.526 27.7973 206.259 27.5787 206.057 27.28C205.865 26.9707 205.769 26.5707 205.769 26.08V21.264H204.665V19.616H205.769V16.896H207.913V19.616H209.673V21.264H207.913V25.36C207.923 25.648 208.003 25.856 208.153 25.984C208.302 26.112 208.489 26.176 208.713 26.176C208.937 26.176 209.155 26.1387 209.369 26.064C209.582 25.9893 209.753 25.9253 209.881 25.872L210.313 27.568ZM220.969 28.112C220.116 28.112 219.321 27.968 218.585 27.68C217.86 27.392 217.225 26.9867 216.681 26.464C216.148 25.9413 215.732 25.328 215.433 24.624C215.134 23.92 214.985 23.152 214.985 22.32C214.985 21.4987 215.134 20.736 215.433 20.032C215.732 19.328 216.148 18.72 216.681 18.208C217.225 17.6853 217.86 17.28 218.585 16.992C219.321 16.704 220.116 16.56 220.969 16.56C221.844 16.56 222.649 16.704 223.385 16.992C224.132 17.28 224.782 17.6853 225.337 18.208C225.892 18.72 226.318 19.328 226.617 20.032C226.916 20.736 227.065 21.4987 227.065 22.32C227.065 23.152 226.916 23.92 226.617 24.624C226.318 25.328 225.892 25.9413 225.337 26.464C224.782 26.9867 224.132 27.392 223.385 27.68C222.649 27.968 221.844 28.112 220.969 28.112ZM220.969 27.264C221.705 27.264 222.382 27.1467 223.001 26.912C223.63 26.6667 224.18 26.3253 224.649 25.888C225.129 25.4507 225.497 24.9333 225.753 24.336C226.02 23.728 226.153 23.0613 226.153 22.336C226.153 21.6427 226.025 20.9973 225.769 20.4C225.513 19.8027 225.15 19.28 224.681 18.832C224.212 18.384 223.662 18.0373 223.033 17.792C222.404 17.536 221.716 17.408 220.969 17.408C220.254 17.408 219.588 17.536 218.969 17.792C218.35 18.0373 217.812 18.384 217.353 18.832C216.894 19.28 216.537 19.8027 216.281 20.4C216.025 20.9867 215.897 21.632 215.897 22.336C215.897 23.0187 216.02 23.6587 216.265 24.256C216.521 24.8533 216.878 25.3813 217.337 25.84C217.806 26.288 218.345 26.64 218.953 26.896C219.572 27.1413 220.244 27.264 220.969 27.264ZM221.113 26.064C220.526 26.064 219.988 25.9733 219.497 25.792C219.017 25.6 218.601 25.3333 218.249 24.992C217.897 24.6507 217.625 24.256 217.433 23.808C217.241 23.3493 217.145 22.8533 217.145 22.32C217.145 21.8507 217.225 21.392 217.385 20.944C217.556 20.496 217.806 20.096 218.137 19.744C218.468 19.3813 218.878 19.0987 219.369 18.896C219.86 18.6827 220.43 18.576 221.081 18.576C221.913 18.576 222.628 18.7573 223.225 19.12C223.822 19.4827 224.265 19.9733 224.553 20.592L222.521 21.216C222.414 21.0027 222.276 20.832 222.105 20.704C221.945 20.576 221.774 20.4853 221.593 20.432C221.412 20.3787 221.236 20.352 221.065 20.352C220.788 20.352 220.537 20.4053 220.313 20.512C220.1 20.6187 219.913 20.7627 219.753 20.944C219.604 21.1253 219.486 21.3333 219.401 21.568C219.326 21.8027 219.289 22.0533 219.289 22.32C219.289 22.64 219.337 22.9227 219.433 23.168C219.54 23.4133 219.678 23.6213 219.849 23.792C220.03 23.952 220.228 24.0747 220.441 24.16C220.654 24.2453 220.868 24.288 221.081 24.288C221.284 24.288 221.476 24.256 221.657 24.192C221.849 24.1173 222.025 24.016 222.185 23.888C222.345 23.7493 222.473 23.5893 222.569 23.408L224.601 24.016C224.441 24.368 224.201 24.704 223.881 25.024C223.561 25.3333 223.166 25.584 222.697 25.776C222.238 25.968 221.71 26.064 221.113 26.064ZM237.626 28.08C236.794 28.08 236.036 27.92 235.354 27.6C234.682 27.28 234.1 26.848 233.61 26.304C233.13 25.7493 232.756 25.1307 232.49 24.448C232.223 23.7547 232.09 23.0453 232.09 22.32C232.09 21.5627 232.228 20.8427 232.506 20.16C232.794 19.4667 233.183 18.8533 233.674 18.32C234.175 17.776 234.762 17.3493 235.434 17.04C236.116 16.72 236.863 16.56 237.674 16.56C238.495 16.56 239.242 16.7253 239.914 17.056C240.596 17.3867 241.178 17.8293 241.658 18.384C242.138 18.9387 242.511 19.5573 242.778 20.24C243.044 20.9227 243.178 21.6267 243.178 22.352C243.178 23.0987 243.039 23.8187 242.762 24.512C242.484 25.1947 242.095 25.808 241.594 26.352C241.103 26.8853 240.516 27.3067 239.834 27.616C239.162 27.9253 238.426 28.08 237.626 28.08ZM234.33 22.32C234.33 22.8107 234.404 23.2853 234.554 23.744C234.703 24.2027 234.916 24.6133 235.194 24.976C235.482 25.328 235.828 25.6107 236.234 25.824C236.65 26.0267 237.119 26.128 237.642 26.128C238.175 26.128 238.65 26.0213 239.066 25.808C239.482 25.584 239.828 25.2907 240.106 24.928C240.383 24.5547 240.591 24.144 240.73 23.696C240.879 23.2373 240.954 22.7787 240.954 22.32C240.954 21.8293 240.874 21.36 240.714 20.912C240.564 20.4533 240.346 20.048 240.058 19.696C239.78 19.3333 239.434 19.0507 239.018 18.848C238.612 18.6347 238.154 18.528 237.642 18.528C237.098 18.528 236.618 18.64 236.202 18.864C235.796 19.0773 235.455 19.3653 235.178 19.728C234.9 20.0907 234.687 20.496 234.538 20.944C234.399 21.392 234.33 21.8507 234.33 22.32ZM249.577 21.472C248.927 21.472 248.345 21.6 247.833 21.856C247.321 22.1013 246.953 22.4587 246.729 22.928V28H244.585V19.616H246.553V21.408C246.852 20.832 247.231 20.3787 247.689 20.048C248.148 19.7173 248.633 19.536 249.145 19.504C249.263 19.504 249.353 19.504 249.417 19.504C249.481 19.504 249.535 19.5093 249.577 19.52V21.472ZM250.773 28V19.616H252.917V28H250.773ZM250.773 18.448V16.32H252.917V18.448H250.773ZM258.723 28.16C258.04 28.16 257.427 28.048 256.883 27.824C256.339 27.5893 255.875 27.2693 255.491 26.864C255.118 26.4587 254.83 25.9947 254.627 25.472C254.424 24.9493 254.323 24.4 254.323 23.824C254.323 23.2373 254.424 22.6827 254.627 22.16C254.83 21.6373 255.118 21.1733 255.491 20.768C255.875 20.3627 256.339 20.048 256.883 19.824C257.427 19.5893 258.04 19.472 258.723 19.472C259.406 19.472 260.014 19.5893 260.547 19.824C261.091 20.048 261.555 20.3627 261.939 20.768C262.323 21.1733 262.611 21.6373 262.803 22.16C263.006 22.6827 263.107 23.2373 263.107 23.824C263.107 24.4 263.006 24.9493 262.803 25.472C262.611 25.9947 262.323 26.4587 261.939 26.864C261.566 27.2693 261.107 27.5893 260.563 27.824C260.019 28.048 259.406 28.16 258.723 28.16ZM256.531 23.824C256.531 24.3147 256.627 24.752 256.819 25.136C257.011 25.5093 257.272 25.8027 257.603 26.016C257.934 26.2293 258.307 26.336 258.723 26.336C259.128 26.336 259.496 26.2293 259.827 26.016C260.158 25.792 260.419 25.4933 260.611 25.12C260.814 24.736 260.915 24.2987 260.915 23.808C260.915 23.328 260.814 22.896 260.611 22.512C260.419 22.128 260.158 21.8293 259.827 21.616C259.496 21.4027 259.128 21.296 258.723 21.296C258.307 21.296 257.934 21.408 257.603 21.632C257.272 21.8453 257.011 22.144 256.819 22.528C256.627 22.9013 256.531 23.3333 256.531 23.824ZM272.346 28H270.202V23.296C270.202 22.624 270.085 22.1333 269.85 21.824C269.615 21.5147 269.29 21.36 268.874 21.36C268.586 21.36 268.293 21.4347 267.994 21.584C267.706 21.7333 267.445 21.9413 267.21 22.208C266.975 22.464 266.805 22.7627 266.698 23.104V28H264.554V19.616H266.49V21.168C266.703 20.8053 266.975 20.5013 267.306 20.256C267.637 20 268.015 19.808 268.442 19.68C268.879 19.5413 269.338 19.472 269.818 19.472C270.341 19.472 270.767 19.568 271.098 19.76C271.439 19.9413 271.695 20.192 271.866 20.512C272.047 20.8213 272.17 21.1733 272.234 21.568C272.309 21.9627 272.346 22.3627 272.346 22.768V28ZM274.402 29.84L274.834 27.936H274.162V25.696H276.018V27.936L275.362 29.84H274.402ZM281.405 28C281.405 27.52 281.442 27.088 281.517 26.704C281.592 26.32 281.72 25.9627 281.901 25.632C282.093 25.3013 282.349 24.992 282.669 24.704C283 24.4053 283.416 24.1173 283.917 23.84C284.354 23.6053 284.738 23.4027 285.069 23.232C285.4 23.0507 285.677 22.8853 285.901 22.736C286.136 22.5867 286.312 22.4373 286.429 22.288C286.546 22.128 286.605 21.9467 286.605 21.744C286.605 21.5307 286.546 21.3387 286.429 21.168C286.312 20.9867 286.146 20.8427 285.933 20.736C285.72 20.6293 285.453 20.576 285.133 20.576C284.877 20.576 284.637 20.608 284.413 20.672C284.2 20.736 283.997 20.8267 283.805 20.944C283.624 21.0613 283.453 21.1947 283.293 21.344C283.133 21.4827 282.989 21.632 282.861 21.792L281.501 20.224C281.65 20.0747 281.848 19.9147 282.093 19.744C282.349 19.5627 282.648 19.3973 282.989 19.248C283.341 19.088 283.725 18.96 284.141 18.864C284.568 18.7573 285.021 18.704 285.501 18.704C286.226 18.704 286.845 18.8213 287.357 19.056C287.869 19.28 288.258 19.5947 288.525 20C288.802 20.4053 288.941 20.88 288.941 21.424C288.941 21.7973 288.872 22.128 288.733 22.416C288.594 22.704 288.418 22.96 288.205 23.184C287.992 23.3973 287.757 23.5893 287.501 23.76C287.256 23.9307 287.016 24.08 286.781 24.208C286.45 24.3787 286.152 24.5387 285.885 24.688C285.618 24.8267 285.384 24.9707 285.181 25.12C284.978 25.2587 284.797 25.4027 284.637 25.552C284.488 25.7013 284.354 25.872 284.237 26.064H289.117V28H281.405ZM298.868 23.312C298.868 24.2507 298.687 25.088 298.324 25.824C297.972 26.5493 297.481 27.12 296.852 27.536C296.233 27.952 295.529 28.16 294.74 28.16C293.951 28.16 293.241 27.952 292.612 27.536C291.993 27.12 291.503 26.5493 291.14 25.824C290.788 25.088 290.612 24.2507 290.612 23.312C290.612 22.3733 290.788 21.5413 291.14 20.816C291.503 20.08 291.993 19.504 292.612 19.088C293.241 18.6613 293.951 18.448 294.74 18.448C295.529 18.448 296.233 18.6613 296.852 19.088C297.481 19.504 297.972 20.08 298.324 20.816C298.687 21.5413 298.868 22.3733 298.868 23.312ZM296.708 23.312C296.708 22.736 296.623 22.2347 296.452 21.808C296.292 21.3707 296.063 21.0293 295.764 20.784C295.465 20.5387 295.124 20.416 294.74 20.416C294.345 20.416 293.999 20.5387 293.7 20.784C293.401 21.0293 293.167 21.3707 292.996 21.808C292.836 22.2347 292.756 22.736 292.756 23.312C292.756 23.888 292.836 24.3893 292.996 24.816C293.167 25.2427 293.401 25.5787 293.7 25.824C293.999 26.0693 294.345 26.192 294.74 26.192C295.124 26.192 295.46 26.0693 295.748 25.824C296.047 25.5787 296.281 25.2427 296.452 24.816C296.623 24.3787 296.708 23.8773 296.708 23.312ZM300.264 28C300.264 27.52 300.302 27.088 300.376 26.704C300.451 26.32 300.579 25.9627 300.76 25.632C300.952 25.3013 301.208 24.992 301.528 24.704C301.859 24.4053 302.275 24.1173 302.776 23.84C303.214 23.6053 303.598 23.4027 303.928 23.232C304.259 23.0507 304.536 22.8853 304.76 22.736C304.995 22.5867 305.171 22.4373 305.288 22.288C305.406 22.128 305.464 21.9467 305.464 21.744C305.464 21.5307 305.406 21.3387 305.288 21.168C305.171 20.9867 305.006 20.8427 304.792 20.736C304.579 20.6293 304.312 20.576 303.992 20.576C303.736 20.576 303.496 20.608 303.272 20.672C303.059 20.736 302.856 20.8267 302.664 20.944C302.483 21.0613 302.312 21.1947 302.152 21.344C301.992 21.4827 301.848 21.632 301.72 21.792L300.36 20.224C300.51 20.0747 300.707 19.9147 300.952 19.744C301.208 19.5627 301.507 19.3973 301.848 19.248C302.2 19.088 302.584 18.96 303 18.864C303.427 18.7573 303.88 18.704 304.36 18.704C305.086 18.704 305.704 18.8213 306.216 19.056C306.728 19.28 307.118 19.5947 307.384 20C307.662 20.4053 307.8 20.88 307.8 21.424C307.8 21.7973 307.731 22.128 307.592 22.416C307.454 22.704 307.278 22.96 307.064 23.184C306.851 23.3973 306.616 23.5893 306.36 23.76C306.115 23.9307 305.875 24.08 305.64 24.208C305.31 24.3787 305.011 24.5387 304.744 24.688C304.478 24.8267 304.243 24.9707 304.04 25.12C303.838 25.2587 303.656 25.4027 303.496 25.552C303.347 25.7013 303.214 25.872 303.096 26.064H307.976V28H300.264ZM309.296 28C309.296 27.52 309.333 27.088 309.408 26.704C309.482 26.32 309.61 25.9627 309.792 25.632C309.984 25.3013 310.24 24.992 310.56 24.704C310.89 24.4053 311.306 24.1173 311.808 23.84C312.245 23.6053 312.629 23.4027 312.96 23.232C313.29 23.0507 313.568 22.8853 313.792 22.736C314.026 22.5867 314.202 22.4373 314.32 22.288C314.437 22.128 314.496 21.9467 314.496 21.744C314.496 21.5307 314.437 21.3387 314.32 21.168C314.202 20.9867 314.037 20.8427 313.824 20.736C313.61 20.6293 313.344 20.576 313.024 20.576C312.768 20.576 312.528 20.608 312.304 20.672C312.09 20.736 311.888 20.8267 311.696 20.944C311.514 21.0613 311.344 21.1947 311.184 21.344C311.024 21.4827 310.88 21.632 310.752 21.792L309.392 20.224C309.541 20.0747 309.738 19.9147 309.984 19.744C310.24 19.5627 310.538 19.3973 310.88 19.248C311.232 19.088 311.616 18.96 312.032 18.864C312.458 18.7573 312.912 18.704 313.391 18.704C314.117 18.704 314.736 18.8213 315.248 19.056C315.76 19.28 316.149 19.5947 316.416 20C316.693 20.4053 316.832 20.88 316.832 21.424C316.832 21.7973 316.762 22.128 316.624 22.416C316.485 22.704 316.309 22.96 316.096 23.184C315.882 23.3973 315.648 23.5893 315.392 23.76C315.146 23.9307 314.906 24.08 314.672 24.208C314.341 24.3787 314.042 24.5387 313.776 24.688C313.509 24.8267 313.274 24.9707 313.072 25.12C312.869 25.2587 312.688 25.4027 312.528 25.552C312.378 25.7013 312.245 25.872 312.128 26.064H317.008V28H309.296ZM318.647 28V25.696H320.407V28H318.647Z" fill="black"/>
</svg>
