<svg width="412" height="98" viewBox="0 0 412 98" fill="none" xmlns="http://www.w3.org/2000/svg">
<path d="M9.4 16.58V19H1.28V16.58H4.12V10.52C4 10.68 3.81333 10.8467 3.56 11.02C3.30667 11.18 3.02 11.3333 2.7 11.48C2.38 11.6267 2.06 11.7467 1.74 11.84C1.42 11.9333 1.13333 11.98 0.88 11.98V9.48C1.12 9.48 1.40667 9.40667 1.74 9.26C2.08667 9.1 2.42667 8.91333 2.76 8.7C3.10667 8.48667 3.4 8.28 3.64 8.08C3.89333 7.86667 4.05333 7.7 4.12 7.58H6.86V16.58H9.4ZM21.1828 13.14C21.1828 14.3133 20.9561 15.36 20.5028 16.28C20.0628 17.1867 19.4495 17.9 18.6628 18.42C17.8895 18.94 17.0095 19.2 16.0228 19.2C15.0361 19.2 14.1495 18.94 13.3628 18.42C12.5895 17.9 11.9761 17.1867 11.5228 16.28C11.0828 15.36 10.8628 14.3133 10.8628 13.14C10.8628 11.9667 11.0828 10.9267 11.5228 10.02C11.9761 9.1 12.5895 8.38 13.3628 7.86C14.1495 7.32667 15.0361 7.06 16.0228 7.06C17.0095 7.06 17.8895 7.32667 18.6628 7.86C19.4495 8.38 20.0628 9.1 20.5028 10.02C20.9561 10.9267 21.1828 11.9667 21.1828 13.14ZM18.4828 13.14C18.4828 12.42 18.3761 11.7933 18.1628 11.26C17.9628 10.7133 17.6761 10.2867 17.3028 9.98C16.9295 9.67333 16.5028 9.52 16.0228 9.52C15.5295 9.52 15.0961 9.67333 14.7228 9.98C14.3495 10.2867 14.0561 10.7133 13.8428 11.26C13.6428 11.7933 13.5428 12.42 13.5428 13.14C13.5428 13.86 13.6428 14.4867 13.8428 15.02C14.0561 15.5533 14.3495 15.9733 14.7228 16.28C15.0961 16.5867 15.5295 16.74 16.0228 16.74C16.5028 16.74 16.9228 16.5867 17.2828 16.28C17.6561 15.9733 17.9495 15.5533 18.1628 15.02C18.3761 14.4733 18.4828 13.8467 18.4828 13.14ZM23.628 21.3L24.168 18.92H23.328V16.12H25.648V18.92L24.828 21.3H23.628ZM38.1164 13.14C38.1164 14.3133 37.8897 15.36 37.4364 16.28C36.9964 17.1867 36.3831 17.9 35.5964 18.42C34.8231 18.94 33.9431 19.2 32.9564 19.2C31.9697 19.2 31.0831 18.94 30.2964 18.42C29.5231 17.9 28.9097 17.1867 28.4564 16.28C28.0164 15.36 27.7964 14.3133 27.7964 13.14C27.7964 11.9667 28.0164 10.9267 28.4564 10.02C28.9097 9.1 29.5231 8.38 30.2964 7.86C31.0831 7.32667 31.9697 7.06 32.9564 7.06C33.9431 7.06 34.8231 7.32667 35.5964 7.86C36.3831 8.38 36.9964 9.1 37.4364 10.02C37.8897 10.9267 38.1164 11.9667 38.1164 13.14ZM35.4164 13.14C35.4164 12.42 35.3097 11.7933 35.0964 11.26C34.8964 10.7133 34.6097 10.2867 34.2364 9.98C33.8631 9.67333 33.4364 9.52 32.9564 9.52C32.4631 9.52 32.0297 9.67333 31.6564 9.98C31.2831 10.2867 30.9897 10.7133 30.7764 11.26C30.5764 11.7933 30.4764 12.42 30.4764 13.14C30.4764 13.86 30.5764 14.4867 30.7764 15.02C30.9897 15.5533 31.2831 15.9733 31.6564 16.28C32.0297 16.5867 32.4631 16.74 32.9564 16.74C33.4364 16.74 33.8564 16.5867 34.2164 16.28C34.5897 15.9733 34.8831 15.5533 35.0964 15.02C35.3097 14.4733 35.4164 13.8467 35.4164 13.14ZM50.4016 13.14C50.4016 14.3133 50.1749 15.36 49.7216 16.28C49.2816 17.1867 48.6682 17.9 47.8816 18.42C47.1082 18.94 46.2282 19.2 45.2416 19.2C44.2549 19.2 43.3682 18.94 42.5816 18.42C41.8082 17.9 41.1949 17.1867 40.7416 16.28C40.3016 15.36 40.0816 14.3133 40.0816 13.14C40.0816 11.9667 40.3016 10.9267 40.7416 10.02C41.1949 9.1 41.8082 8.38 42.5816 7.86C43.3682 7.32667 44.2549 7.06 45.2416 7.06C46.2282 7.06 47.1082 7.32667 47.8816 7.86C48.6682 8.38 49.2816 9.1 49.7216 10.02C50.1749 10.9267 50.4016 11.9667 50.4016 13.14ZM47.7016 13.14C47.7016 12.42 47.5949 11.7933 47.3816 11.26C47.1816 10.7133 46.8949 10.2867 46.5216 9.98C46.1482 9.67333 45.7216 9.52 45.2416 9.52C44.7482 9.52 44.3149 9.67333 43.9416 9.98C43.5682 10.2867 43.2749 10.7133 43.0616 11.26C42.8616 11.7933 42.7616 12.42 42.7616 13.14C42.7616 13.86 42.8616 14.4867 43.0616 15.02C43.2749 15.5533 43.5682 15.9733 43.9416 16.28C44.3149 16.5867 44.7482 16.74 45.2416 16.74C45.7216 16.74 46.1416 16.5867 46.5016 16.28C46.8749 15.9733 47.1682 15.5533 47.3816 15.02C47.5949 14.4733 47.7016 13.8467 47.7016 13.14ZM62.6867 13.14C62.6867 14.3133 62.4601 15.36 62.0067 16.28C61.5667 17.1867 60.9534 17.9 60.1667 18.42C59.3934 18.94 58.5134 19.2 57.5267 19.2C56.5401 19.2 55.6534 18.94 54.8667 18.42C54.0934 17.9 53.4801 17.1867 53.0267 16.28C52.5867 15.36 52.3667 14.3133 52.3667 13.14C52.3667 11.9667 52.5867 10.9267 53.0267 10.02C53.4801 9.1 54.0934 8.38 54.8667 7.86C55.6534 7.32667 56.5401 7.06 57.5267 7.06C58.5134 7.06 59.3934 7.32667 60.1667 7.86C60.9534 8.38 61.5667 9.1 62.0067 10.02C62.4601 10.9267 62.6867 11.9667 62.6867 13.14ZM59.9867 13.14C59.9867 12.42 59.8801 11.7933 59.6667 11.26C59.4667 10.7133 59.1801 10.2867 58.8067 9.98C58.4334 9.67333 58.0067 9.52 57.5267 9.52C57.0334 9.52 56.6001 9.67333 56.2267 9.98C55.8534 10.2867 55.5601 10.7133 55.3467 11.26C55.1467 11.7933 55.0467 12.42 55.0467 13.14C55.0467 13.86 55.1467 14.4867 55.3467 15.02C55.5601 15.5533 55.8534 15.9733 56.2267 16.28C56.6001 16.5867 57.0334 16.74 57.5267 16.74C58.0067 16.74 58.4267 16.5867 58.7867 16.28C59.1601 15.9733 59.4534 15.5533 59.6667 15.02C59.8801 14.4733 59.9867 13.8467 59.9867 13.14ZM69.6966 19V8.52H72.3766V19H69.6966ZM69.6966 7.06V4.4H72.3766V7.06H69.6966ZM81.0742 18.46C80.8476 18.5533 80.5742 18.66 80.2542 18.78C79.9342 18.9 79.5876 18.9933 79.2142 19.06C78.8542 19.14 78.4876 19.18 78.1142 19.18C77.6209 19.18 77.1676 19.0933 76.7542 18.92C76.3409 18.7467 76.0076 18.4733 75.7542 18.1C75.5142 17.7133 75.3942 17.2133 75.3942 16.6V10.58H74.0142V8.52H75.3942V5.12H78.0742V8.52H80.2742V10.58H78.0742V15.7C78.0876 16.06 78.1876 16.32 78.3742 16.48C78.5609 16.64 78.7942 16.72 79.0742 16.72C79.3542 16.72 79.6276 16.6733 79.8942 16.58C80.1609 16.4867 80.3742 16.4067 80.5342 16.34L81.0742 18.46ZM82.47 19V8.52H85.15V19H82.47ZM82.47 7.06V4.4H85.15V7.06H82.47ZM103.848 19H101.168V13.12C101.168 12.2933 101.021 11.6867 100.728 11.3C100.448 10.9 100.054 10.7 99.5477 10.7C99.0277 10.7 98.5277 10.9067 98.0477 11.32C97.581 11.72 97.2477 12.2467 97.0477 12.9V19H94.3677V13.12C94.3677 12.28 94.221 11.6667 93.9277 11.28C93.6477 10.8933 93.2543 10.7 92.7477 10.7C92.2277 10.7 91.7277 10.9 91.2477 11.3C90.781 11.7 90.4477 12.2267 90.2477 12.88V19H87.5677V8.52H89.9877V10.46C90.3877 9.78 90.921 9.26 91.5877 8.9C92.2543 8.52667 93.021 8.34 93.8877 8.34C94.7543 8.34 95.4277 8.55333 95.9077 8.98C96.401 9.40667 96.7143 9.93333 96.8477 10.56C97.2743 9.84 97.8143 9.29333 98.4677 8.92C99.1343 8.53333 99.881 8.34 100.708 8.34C101.361 8.34 101.888 8.46 102.288 8.7C102.701 8.92667 103.021 9.24 103.248 9.64C103.474 10.0267 103.628 10.4667 103.708 10.96C103.801 11.4533 103.848 11.9533 103.848 12.46V19ZM105.461 15.9C105.461 15.22 105.648 14.6267 106.021 14.12C106.408 13.6 106.941 13.2 107.621 12.92C108.301 12.64 109.081 12.5 109.961 12.5C110.401 12.5 110.848 12.5333 111.301 12.6C111.754 12.6667 112.148 12.7733 112.481 12.92V12.36C112.481 11.6933 112.281 11.18 111.881 10.82C111.494 10.46 110.914 10.28 110.141 10.28C109.568 10.28 109.021 10.38 108.501 10.58C107.981 10.78 107.434 11.0733 106.861 11.46L106.001 9.7C106.694 9.24667 107.401 8.90667 108.121 8.68C108.854 8.45333 109.621 8.34 110.421 8.34C111.914 8.34 113.074 8.71333 113.901 9.46C114.741 10.2067 115.161 11.2733 115.161 12.66V16C115.161 16.28 115.208 16.48 115.301 16.6C115.408 16.72 115.574 16.7933 115.801 16.82V19C115.561 19.04 115.341 19.0733 115.141 19.1C114.954 19.1267 114.794 19.14 114.661 19.14C114.128 19.14 113.721 19.02 113.441 18.78C113.174 18.54 113.008 18.2467 112.941 17.9L112.881 17.36C112.428 17.9467 111.861 18.4 111.181 18.72C110.501 19.04 109.808 19.2 109.101 19.2C108.408 19.2 107.781 19.06 107.221 18.78C106.674 18.4867 106.241 18.0933 105.921 17.6C105.614 17.0933 105.461 16.5267 105.461 15.9ZM111.981 16.44C112.128 16.28 112.248 16.12 112.341 15.96C112.434 15.8 112.481 15.6533 112.481 15.52V14.46C112.161 14.3267 111.814 14.2267 111.441 14.16C111.068 14.08 110.714 14.04 110.381 14.04C109.688 14.04 109.114 14.1933 108.661 14.5C108.221 14.7933 108.001 15.1867 108.001 15.68C108.001 15.9467 108.074 16.2 108.221 16.44C108.368 16.68 108.581 16.8733 108.861 17.02C109.141 17.1667 109.474 17.24 109.861 17.24C110.261 17.24 110.654 17.1667 111.041 17.02C111.428 16.86 111.741 16.6667 111.981 16.44ZM117.645 4.4H120.325V15.64C120.325 16.12 120.405 16.4467 120.565 16.62C120.725 16.78 120.945 16.86 121.225 16.86C121.439 16.86 121.659 16.8333 121.885 16.78C122.112 16.7267 122.312 16.66 122.485 16.58L122.845 18.62C122.485 18.7933 122.065 18.9267 121.585 19.02C121.105 19.1133 120.672 19.16 120.285 19.16C119.445 19.16 118.792 18.94 118.325 18.5C117.872 18.0467 117.645 17.4067 117.645 16.58V4.4ZM124.013 19V8.52H126.693V19H124.013ZM124.013 7.06V4.4H126.693V7.06H124.013ZM128.391 15.9C128.391 15.22 128.577 14.6267 128.951 14.12C129.337 13.6 129.871 13.2 130.551 12.92C131.231 12.64 132.011 12.5 132.891 12.5C133.331 12.5 133.777 12.5333 134.231 12.6C134.684 12.6667 135.077 12.7733 135.411 12.92V12.36C135.411 11.6933 135.211 11.18 134.811 10.82C134.424 10.46 133.844 10.28 133.071 10.28C132.497 10.28 131.951 10.38 131.431 10.58C130.911 10.78 130.364 11.0733 129.791 11.46L128.931 9.7C129.624 9.24667 130.331 8.90667 131.051 8.68C131.784 8.45333 132.551 8.34 133.351 8.34C134.844 8.34 136.004 8.71333 136.831 9.46C137.671 10.2067 138.091 11.2733 138.091 12.66V16C138.091 16.28 138.137 16.48 138.231 16.6C138.337 16.72 138.504 16.7933 138.731 16.82V19C138.491 19.04 138.271 19.0733 138.071 19.1C137.884 19.1267 137.724 19.14 137.591 19.14C137.057 19.14 136.651 19.02 136.371 18.78C136.104 18.54 135.937 18.2467 135.871 17.9L135.811 17.36C135.357 17.9467 134.791 18.4 134.111 18.72C133.431 19.04 132.737 19.2 132.031 19.2C131.337 19.2 130.711 19.06 130.151 18.78C129.604 18.4867 129.171 18.0933 128.851 17.6C128.544 17.0933 128.391 16.5267 128.391 15.9ZM134.911 16.44C135.057 16.28 135.177 16.12 135.271 15.96C135.364 15.8 135.411 15.6533 135.411 15.52V14.46C135.091 14.3267 134.744 14.2267 134.371 14.16C133.997 14.08 133.644 14.04 133.311 14.04C132.617 14.04 132.044 14.1933 131.591 14.5C131.151 14.7933 130.931 15.1867 130.931 15.68C130.931 15.9467 131.004 16.2 131.151 16.44C131.297 16.68 131.511 16.8733 131.791 17.02C132.071 17.1667 132.404 17.24 132.791 17.24C133.191 17.24 133.584 17.1667 133.971 17.02C134.357 16.86 134.671 16.6667 134.911 16.44ZM144.455 19.2C143.562 19.2 142.708 19.0533 141.895 18.76C141.082 18.4667 140.382 18.0333 139.795 17.46L140.755 15.72C141.382 16.2267 141.995 16.6 142.595 16.84C143.208 17.08 143.795 17.2 144.355 17.2C144.875 17.2 145.288 17.1067 145.595 16.92C145.915 16.7333 146.075 16.4533 146.075 16.08C146.075 15.8267 145.988 15.6333 145.815 15.5C145.642 15.3533 145.388 15.2267 145.055 15.12C144.735 15.0133 144.342 14.8933 143.875 14.76C143.102 14.5067 142.455 14.26 141.935 14.02C141.415 13.78 141.022 13.48 140.755 13.12C140.502 12.7467 140.375 12.2733 140.375 11.7C140.375 11.0067 140.548 10.4133 140.895 9.92C141.255 9.41333 141.748 9.02 142.375 8.74C143.015 8.46 143.762 8.32 144.615 8.32C145.362 8.32 146.068 8.44 146.735 8.68C147.402 8.90667 148.008 9.28 148.555 9.8L147.475 11.5C146.942 11.0867 146.435 10.7867 145.955 10.6C145.475 10.4 144.988 10.3 144.495 10.3C144.215 10.3 143.948 10.3333 143.695 10.4C143.455 10.4667 143.255 10.58 143.095 10.74C142.948 10.8867 142.875 11.1 142.875 11.38C142.875 11.6333 142.942 11.8333 143.075 11.98C143.222 12.1133 143.435 12.2333 143.715 12.34C144.008 12.4467 144.362 12.5667 144.775 12.7C145.615 12.94 146.322 13.1867 146.895 13.44C147.482 13.6933 147.922 14.0067 148.215 14.38C148.508 14.74 148.655 15.24 148.655 15.88C148.655 16.92 148.275 17.7333 147.515 18.32C146.755 18.9067 145.735 19.2 144.455 19.2Z" fill="black"/>
<path d="M1.008 46.472V40.568H3.42V45.95C3.42 46.67 3.552 47.216 3.816 47.588C4.08 47.948 4.47 48.128 4.986 48.128C5.298 48.128 5.604 48.068 5.904 47.948C6.216 47.816 6.498 47.624 6.75 47.372C7.014 47.12 7.236 46.802 7.416 46.418V40.568H9.828V47.3C9.828 47.552 9.87 47.732 9.954 47.84C10.05 47.948 10.2 48.014 10.404 48.038V50C10.164 50.036 9.96 50.06 9.792 50.072C9.636 50.096 9.492 50.108 9.36 50.108C8.928 50.108 8.574 50.012 8.298 49.82C8.034 49.616 7.878 49.34 7.83 48.992L7.776 48.236C7.356 48.872 6.816 49.358 6.156 49.694C5.496 50.018 4.77 50.18 3.978 50.18C3.006 50.18 2.268 49.868 1.764 49.244C1.26 48.608 1.008 47.684 1.008 46.472ZM15.699 50.18C14.895 50.18 14.127 50.048 13.395 49.784C12.663 49.52 12.033 49.13 11.505 48.614L12.369 47.048C12.933 47.504 13.485 47.84 14.025 48.056C14.577 48.272 15.105 48.38 15.609 48.38C16.077 48.38 16.449 48.296 16.725 48.128C17.013 47.96 17.157 47.708 17.157 47.372C17.157 47.144 17.079 46.97 16.923 46.85C16.767 46.718 16.539 46.604 16.239 46.508C15.951 46.412 15.597 46.304 15.177 46.184C14.481 45.956 13.899 45.734 13.431 45.518C12.963 45.302 12.609 45.032 12.369 44.708C12.141 44.372 12.027 43.946 12.027 43.43C12.027 42.806 12.183 42.272 12.495 41.828C12.819 41.372 13.263 41.018 13.827 40.766C14.403 40.514 15.075 40.388 15.843 40.388C16.515 40.388 17.151 40.496 17.751 40.712C18.351 40.916 18.897 41.252 19.389 41.72L18.417 43.25C17.937 42.878 17.481 42.608 17.049 42.44C16.617 42.26 16.179 42.17 15.735 42.17C15.483 42.17 15.243 42.2 15.015 42.26C14.799 42.32 14.619 42.422 14.475 42.566C14.343 42.698 14.277 42.89 14.277 43.142C14.277 43.37 14.337 43.55 14.457 43.682C14.589 43.802 14.781 43.91 15.033 44.006C15.297 44.102 15.615 44.21 15.987 44.33C16.743 44.546 17.379 44.768 17.895 44.996C18.423 45.224 18.819 45.506 19.083 45.842C19.347 46.166 19.479 46.616 19.479 47.192C19.479 48.128 19.137 48.86 18.453 49.388C17.769 49.916 16.851 50.18 15.699 50.18ZM25.4935 50.18C24.7375 50.18 24.0535 50.054 23.4415 49.802C22.8295 49.538 22.3075 49.184 21.8755 48.74C21.4435 48.284 21.1075 47.768 20.8675 47.192C20.6395 46.604 20.5255 45.986 20.5255 45.338C20.5255 44.438 20.7235 43.616 21.1195 42.872C21.5275 42.128 22.1035 41.534 22.8475 41.09C23.6035 40.634 24.4915 40.406 25.5115 40.406C26.5435 40.406 27.4255 40.634 28.1575 41.09C28.8895 41.534 29.4475 42.128 29.8315 42.872C30.2275 43.604 30.4255 44.396 30.4255 45.248C30.4255 45.392 30.4195 45.542 30.4075 45.698C30.3955 45.842 30.3835 45.962 30.3715 46.058H23.0815C23.1295 46.538 23.2675 46.958 23.4955 47.318C23.7355 47.678 24.0355 47.954 24.3955 48.146C24.7675 48.326 25.1635 48.416 25.5835 48.416C26.0635 48.416 26.5135 48.302 26.9335 48.074C27.3655 47.834 27.6595 47.522 27.8155 47.138L29.8855 47.714C29.6575 48.194 29.3275 48.62 28.8955 48.992C28.4755 49.364 27.9775 49.658 27.4015 49.874C26.8255 50.078 26.1895 50.18 25.4935 50.18ZM23.0275 44.528H27.9595C27.9115 44.048 27.7735 43.634 27.5455 43.286C27.3295 42.926 27.0415 42.65 26.6815 42.458C26.3215 42.254 25.9195 42.152 25.4755 42.152C25.0435 42.152 24.6475 42.254 24.2875 42.458C23.9395 42.65 23.6515 42.926 23.4235 43.286C23.2075 43.634 23.0755 44.048 23.0275 44.528ZM37.5109 42.656C36.7789 42.656 36.1249 42.8 35.5489 43.088C34.9729 43.364 34.5589 43.766 34.3069 44.294V50H31.8949V40.568H34.1089V42.584C34.4449 41.936 34.8709 41.426 35.3869 41.054C35.9029 40.682 36.4489 40.478 37.0249 40.442C37.1569 40.442 37.2589 40.442 37.3309 40.442C37.4029 40.442 37.4629 40.448 37.5109 40.46V42.656ZM47.6218 50H45.2098V44.708C45.2098 43.952 45.0778 43.4 44.8138 43.052C44.5498 42.704 44.1838 42.53 43.7158 42.53C43.3918 42.53 43.0618 42.614 42.7258 42.782C42.4018 42.95 42.1078 43.184 41.8438 43.484C41.5798 43.772 41.3878 44.108 41.2678 44.492V50H38.8558V40.568H41.0338V42.314C41.2738 41.906 41.5798 41.564 41.9518 41.288C42.3238 41 42.7498 40.784 43.2298 40.64C43.7218 40.484 44.2378 40.406 44.7778 40.406C45.3658 40.406 45.8458 40.514 46.2178 40.73C46.6018 40.934 46.8898 41.216 47.0818 41.576C47.2858 41.924 47.4238 42.32 47.4958 42.764C47.5798 43.208 47.6218 43.658 47.6218 44.114V50ZM49.0711 47.21C49.0711 46.598 49.2391 46.064 49.5751 45.608C49.9231 45.14 50.4031 44.78 51.0151 44.528C51.6271 44.276 52.3291 44.15 53.1211 44.15C53.5171 44.15 53.9191 44.18 54.3271 44.24C54.7351 44.3 55.0891 44.396 55.3891 44.528V44.024C55.3891 43.424 55.2091 42.962 54.8491 42.638C54.5011 42.314 53.9791 42.152 53.2831 42.152C52.7671 42.152 52.2751 42.242 51.8071 42.422C51.3391 42.602 50.8471 42.866 50.3311 43.214L49.5571 41.63C50.1811 41.222 50.8171 40.916 51.4651 40.712C52.1251 40.508 52.8151 40.406 53.5351 40.406C54.8791 40.406 55.9231 40.742 56.6671 41.414C57.4231 42.086 57.8011 43.046 57.8011 44.294V47.3C57.8011 47.552 57.8431 47.732 57.9271 47.84C58.0231 47.948 58.1731 48.014 58.3771 48.038V50C58.1611 50.036 57.9631 50.066 57.7831 50.09C57.6151 50.114 57.4711 50.126 57.3511 50.126C56.8711 50.126 56.5051 50.018 56.2531 49.802C56.0131 49.586 55.8631 49.322 55.8031 49.01L55.7491 48.524C55.3411 49.052 54.8311 49.46 54.2191 49.748C53.6071 50.036 52.9831 50.18 52.3471 50.18C51.7231 50.18 51.1591 50.054 50.6551 49.802C50.1631 49.538 49.7731 49.184 49.4851 48.74C49.2091 48.284 49.0711 47.774 49.0711 47.21ZM54.9391 47.696C55.0711 47.552 55.1791 47.408 55.2631 47.264C55.3471 47.12 55.3891 46.988 55.3891 46.868V45.914C55.1011 45.794 54.7891 45.704 54.4531 45.644C54.1171 45.572 53.7991 45.536 53.4991 45.536C52.8751 45.536 52.3591 45.674 51.9511 45.95C51.5551 46.214 51.3571 46.568 51.3571 47.012C51.3571 47.252 51.4231 47.48 51.5551 47.696C51.6871 47.912 51.8791 48.086 52.1311 48.218C52.3831 48.35 52.6831 48.416 53.0311 48.416C53.3911 48.416 53.7451 48.35 54.0931 48.218C54.4411 48.074 54.7231 47.9 54.9391 47.696ZM74.707 50H72.295V44.708C72.295 43.964 72.163 43.418 71.899 43.07C71.647 42.71 71.293 42.53 70.837 42.53C70.369 42.53 69.919 42.716 69.487 43.088C69.067 43.448 68.767 43.922 68.587 44.51V50H66.175V44.708C66.175 43.952 66.043 43.4 65.779 43.052C65.527 42.704 65.173 42.53 64.717 42.53C64.249 42.53 63.799 42.71 63.367 43.07C62.947 43.43 62.647 43.904 62.467 44.492V50H60.055V40.568H62.233V42.314C62.593 41.702 63.073 41.234 63.673 40.91C64.273 40.574 64.963 40.406 65.743 40.406C66.523 40.406 67.129 40.598 67.561 40.982C68.005 41.366 68.287 41.84 68.407 42.404C68.791 41.756 69.277 41.264 69.865 40.928C70.465 40.58 71.137 40.406 71.881 40.406C72.469 40.406 72.943 40.514 73.303 40.73C73.675 40.934 73.963 41.216 74.167 41.576C74.371 41.924 74.509 42.32 74.581 42.764C74.665 43.208 74.707 43.658 74.707 44.114V50ZM81.181 50.18C80.425 50.18 79.741 50.054 79.129 49.802C78.517 49.538 77.995 49.184 77.563 48.74C77.131 48.284 76.795 47.768 76.555 47.192C76.327 46.604 76.213 45.986 76.213 45.338C76.213 44.438 76.411 43.616 76.807 42.872C77.215 42.128 77.791 41.534 78.535 41.09C79.291 40.634 80.179 40.406 81.199 40.406C82.231 40.406 83.113 40.634 83.845 41.09C84.577 41.534 85.135 42.128 85.519 42.872C85.915 43.604 86.113 44.396 86.113 45.248C86.113 45.392 86.107 45.542 86.095 45.698C86.083 45.842 86.071 45.962 86.059 46.058H78.769C78.817 46.538 78.955 46.958 79.183 47.318C79.423 47.678 79.723 47.954 80.083 48.146C80.455 48.326 80.851 48.416 81.271 48.416C81.751 48.416 82.201 48.302 82.621 48.074C83.053 47.834 83.347 47.522 83.503 47.138L85.573 47.714C85.345 48.194 85.015 48.62 84.583 48.992C84.163 49.364 83.665 49.658 83.089 49.874C82.513 50.078 81.877 50.18 81.181 50.18ZM78.715 44.528H83.647C83.599 44.048 83.461 43.634 83.233 43.286C83.017 42.926 82.729 42.65 82.369 42.458C82.009 42.254 81.607 42.152 81.163 42.152C80.731 42.152 80.335 42.254 79.975 42.458C79.627 42.65 79.339 42.926 79.111 43.286C78.895 43.634 78.763 44.048 78.715 44.528Z" fill="black"/>
<path d="M104.505 48.185V50H97.11V39.35H104.37V41.165H99.18V43.73H103.665V45.41H99.18V48.185H104.505ZM105.776 47.06V42.14H107.786V46.625C107.786 47.225 107.896 47.68 108.116 47.99C108.336 48.29 108.661 48.44 109.091 48.44C109.351 48.44 109.606 48.39 109.856 48.29C110.116 48.18 110.351 48.02 110.561 47.81C110.781 47.6 110.966 47.335 111.116 47.015V42.14H113.126V47.75C113.126 47.96 113.161 48.11 113.231 48.2C113.311 48.29 113.436 48.345 113.606 48.365V50C113.406 50.03 113.236 50.05 113.096 50.06C112.966 50.08 112.846 50.09 112.736 50.09C112.376 50.09 112.081 50.01 111.851 49.85C111.631 49.68 111.501 49.45 111.461 49.16L111.416 48.53C111.066 49.06 110.616 49.465 110.066 49.745C109.516 50.015 108.911 50.15 108.251 50.15C107.441 50.15 106.826 49.89 106.406 49.37C105.986 48.84 105.776 48.07 105.776 47.06ZM122.372 50.15C121.742 50.15 121.172 50.045 120.662 49.835C120.152 49.615 119.717 49.32 119.357 48.95C118.997 48.57 118.717 48.14 118.517 47.66C118.327 47.17 118.232 46.655 118.232 46.115C118.232 45.365 118.397 44.68 118.727 44.06C119.067 43.44 119.547 42.945 120.167 42.575C120.797 42.195 121.537 42.005 122.387 42.005C123.247 42.005 123.982 42.195 124.592 42.575C125.202 42.945 125.667 43.44 125.987 44.06C126.317 44.67 126.482 45.33 126.482 46.04C126.482 46.16 126.477 46.285 126.467 46.415C126.457 46.535 126.447 46.635 126.437 46.715H120.362C120.402 47.115 120.517 47.465 120.707 47.765C120.907 48.065 121.157 48.295 121.457 48.455C121.767 48.605 122.097 48.68 122.447 48.68C122.847 48.68 123.222 48.585 123.572 48.395C123.932 48.195 124.177 47.935 124.307 47.615L126.032 48.095C125.842 48.495 125.567 48.85 125.207 49.16C124.857 49.47 124.442 49.715 123.962 49.895C123.482 50.065 122.952 50.15 122.372 50.15ZM120.317 45.44H124.427C124.387 45.04 124.272 44.695 124.082 44.405C123.902 44.105 123.662 43.875 123.362 43.715C123.062 43.545 122.727 43.46 122.357 43.46C121.997 43.46 121.667 43.545 121.367 43.715C121.077 43.875 120.837 44.105 120.647 44.405C120.467 44.695 120.357 45.04 120.317 45.44ZM134.94 50.15C134.3 50.15 133.725 50.045 133.215 49.835C132.705 49.615 132.27 49.315 131.91 48.935C131.56 48.555 131.29 48.12 131.1 47.63C130.91 47.14 130.815 46.625 130.815 46.085C130.815 45.535 130.91 45.015 131.1 44.525C131.29 44.035 131.56 43.6 131.91 43.22C132.27 42.84 132.705 42.545 133.215 42.335C133.725 42.115 134.3 42.005 134.94 42.005C135.58 42.005 136.15 42.115 136.65 42.335C137.16 42.545 137.595 42.84 137.955 43.22C138.315 43.6 138.585 44.035 138.765 44.525C138.955 45.015 139.05 45.535 139.05 46.085C139.05 46.625 138.955 47.14 138.765 47.63C138.585 48.12 138.315 48.555 137.955 48.935C137.605 49.315 137.175 49.615 136.665 49.835C136.155 50.045 135.58 50.15 134.94 50.15ZM132.885 46.085C132.885 46.545 132.975 46.955 133.155 47.315C133.335 47.665 133.58 47.94 133.89 48.14C134.2 48.34 134.55 48.44 134.94 48.44C135.32 48.44 135.665 48.34 135.975 48.14C136.285 47.93 136.53 47.65 136.71 47.3C136.9 46.94 136.995 46.53 136.995 46.07C136.995 45.62 136.9 45.215 136.71 44.855C136.53 44.495 136.285 44.215 135.975 44.015C135.665 43.815 135.32 43.715 134.94 43.715C134.55 43.715 134.2 43.82 133.89 44.03C133.58 44.23 133.335 44.51 133.155 44.87C132.975 45.22 132.885 45.625 132.885 46.085ZM150.55 42.14C150.48 42.07 150.35 41.975 150.16 41.855C149.98 41.735 149.755 41.62 149.485 41.51C149.225 41.4 148.94 41.305 148.63 41.225C148.32 41.135 148.005 41.09 147.685 41.09C147.125 41.09 146.7 41.195 146.41 41.405C146.13 41.615 145.99 41.91 145.99 42.29C145.99 42.58 146.08 42.81 146.26 42.98C146.44 43.15 146.71 43.295 147.07 43.415C147.43 43.535 147.88 43.665 148.42 43.805C149.12 43.975 149.725 44.185 150.235 44.435C150.755 44.675 151.15 44.995 151.42 45.395C151.7 45.785 151.84 46.305 151.84 46.955C151.84 47.525 151.735 48.015 151.525 48.425C151.315 48.825 151.025 49.15 150.655 49.4C150.285 49.65 149.865 49.835 149.395 49.955C148.925 50.065 148.425 50.12 147.895 50.12C147.365 50.12 146.835 50.065 146.305 49.955C145.775 49.845 145.265 49.69 144.775 49.49C144.285 49.28 143.835 49.03 143.425 48.74L144.34 46.955C144.43 47.045 144.59 47.165 144.82 47.315C145.05 47.455 145.33 47.6 145.66 47.75C145.99 47.89 146.35 48.01 146.74 48.11C147.13 48.21 147.525 48.26 147.925 48.26C148.485 48.26 148.91 48.165 149.2 47.975C149.49 47.785 149.635 47.515 149.635 47.165C149.635 46.845 149.52 46.595 149.29 46.415C149.06 46.235 148.74 46.08 148.33 45.95C147.92 45.81 147.435 45.66 146.875 45.5C146.205 45.31 145.645 45.1 145.195 44.87C144.745 44.63 144.41 44.33 144.19 43.97C143.97 43.61 143.86 43.16 143.86 42.62C143.86 41.89 144.03 41.28 144.37 40.79C144.72 40.29 145.19 39.915 145.78 39.665C146.37 39.405 147.025 39.275 147.745 39.275C148.245 39.275 148.715 39.33 149.155 39.44C149.605 39.55 150.025 39.695 150.415 39.875C150.805 40.055 151.155 40.25 151.465 40.46L150.55 42.14ZM157.875 50.15C157.265 50.15 156.725 50.015 156.255 49.745C155.795 49.465 155.435 49.09 155.175 48.62V53.195H153.165V42.14H154.92V43.49C155.22 43.03 155.6 42.67 156.06 42.41C156.52 42.14 157.045 42.005 157.635 42.005C158.165 42.005 158.65 42.11 159.09 42.32C159.54 42.53 159.93 42.825 160.26 43.205C160.59 43.575 160.845 44.005 161.025 44.495C161.215 44.975 161.31 45.495 161.31 46.055C161.31 46.815 161.16 47.505 160.86 48.125C160.57 48.745 160.165 49.24 159.645 49.61C159.135 49.97 158.545 50.15 157.875 50.15ZM157.2 48.44C157.51 48.44 157.79 48.375 158.04 48.245C158.29 48.115 158.505 47.94 158.685 47.72C158.875 47.49 159.015 47.235 159.105 46.955C159.205 46.665 159.255 46.365 159.255 46.055C159.255 45.725 159.2 45.42 159.09 45.14C158.99 44.86 158.84 44.615 158.64 44.405C158.44 44.185 158.205 44.015 157.935 43.895C157.675 43.775 157.39 43.715 157.08 43.715C156.89 43.715 156.695 43.75 156.495 43.82C156.305 43.88 156.12 43.97 155.94 44.09C155.76 44.21 155.6 44.35 155.46 44.51C155.33 44.67 155.235 44.845 155.175 45.035V46.88C155.295 47.17 155.455 47.435 155.655 47.675C155.865 47.915 156.105 48.105 156.375 48.245C156.645 48.375 156.92 48.44 157.2 48.44ZM162.672 50V42.14H164.682V50H162.672ZM162.672 41.045V39.05H164.682V41.045H162.672ZM171.175 43.88C170.565 43.88 170.02 44 169.54 44.24C169.06 44.47 168.715 44.805 168.505 45.245V50H166.495V42.14H168.34V43.82C168.62 43.28 168.975 42.855 169.405 42.545C169.835 42.235 170.29 42.065 170.77 42.035C170.88 42.035 170.965 42.035 171.025 42.035C171.085 42.035 171.135 42.04 171.175 42.05V43.88ZM172.296 50V42.14H174.306V50H172.296ZM172.296 41.045V39.05H174.306V41.045H172.296ZM180.829 49.595C180.659 49.665 180.454 49.745 180.214 49.835C179.974 49.925 179.714 49.995 179.434 50.045C179.164 50.105 178.889 50.135 178.609 50.135C178.239 50.135 177.899 50.07 177.589 49.94C177.279 49.81 177.029 49.605 176.839 49.325C176.659 49.035 176.569 48.66 176.569 48.2V43.685H175.534V42.14H176.569V39.59H178.579V42.14H180.229V43.685H178.579V47.525C178.589 47.795 178.664 47.99 178.804 48.11C178.944 48.23 179.119 48.29 179.329 48.29C179.539 48.29 179.744 48.255 179.944 48.185C180.144 48.115 180.304 48.055 180.424 48.005L180.829 49.595ZM184.999 46.07C184.999 45.31 185.149 44.625 185.449 44.015C185.749 43.395 186.164 42.905 186.694 42.545C187.224 42.185 187.829 42.005 188.509 42.005C189.089 42.005 189.609 42.15 190.069 42.44C190.539 42.72 190.904 43.08 191.164 43.52V39.05H193.174V47.75C193.174 47.96 193.209 48.11 193.279 48.2C193.349 48.29 193.469 48.345 193.639 48.365V50C193.289 50.07 193.004 50.105 192.784 50.105C192.424 50.105 192.124 50.015 191.884 49.835C191.654 49.655 191.524 49.42 191.494 49.13L191.464 48.635C191.174 49.125 190.779 49.5 190.279 49.76C189.789 50.02 189.274 50.15 188.734 50.15C188.194 50.15 187.694 50.045 187.234 49.835C186.784 49.625 186.389 49.335 186.049 48.965C185.719 48.595 185.459 48.165 185.269 47.675C185.089 47.175 184.999 46.64 184.999 46.07ZM191.164 47.12V45.245C191.064 44.955 190.904 44.695 190.684 44.465C190.464 44.235 190.219 44.055 189.949 43.925C189.679 43.785 189.409 43.715 189.139 43.715C188.829 43.715 188.549 43.78 188.299 43.91C188.049 44.04 187.829 44.215 187.639 44.435C187.459 44.655 187.319 44.91 187.219 45.2C187.129 45.49 187.084 45.795 187.084 46.115C187.084 46.435 187.134 46.74 187.234 47.03C187.344 47.31 187.499 47.555 187.699 47.765C187.899 47.975 188.129 48.14 188.389 48.26C188.659 48.38 188.949 48.44 189.259 48.44C189.449 48.44 189.639 48.41 189.829 48.35C190.029 48.28 190.214 48.19 190.384 48.08C190.564 47.96 190.719 47.82 190.849 47.66C190.989 47.49 191.094 47.31 191.164 47.12ZM198.792 50.15C198.162 50.15 197.592 50.045 197.082 49.835C196.572 49.615 196.137 49.32 195.777 48.95C195.417 48.57 195.137 48.14 194.937 47.66C194.747 47.17 194.652 46.655 194.652 46.115C194.652 45.365 194.817 44.68 195.147 44.06C195.487 43.44 195.967 42.945 196.587 42.575C197.217 42.195 197.957 42.005 198.807 42.005C199.667 42.005 200.402 42.195 201.012 42.575C201.622 42.945 202.087 43.44 202.407 44.06C202.737 44.67 202.902 45.33 202.902 46.04C202.902 46.16 202.897 46.285 202.887 46.415C202.877 46.535 202.867 46.635 202.857 46.715H196.782C196.822 47.115 196.937 47.465 197.127 47.765C197.327 48.065 197.577 48.295 197.877 48.455C198.187 48.605 198.517 48.68 198.867 48.68C199.267 48.68 199.642 48.585 199.992 48.395C200.352 48.195 200.597 47.935 200.727 47.615L202.452 48.095C202.262 48.495 201.987 48.85 201.627 49.16C201.277 49.47 200.862 49.715 200.382 49.895C199.902 50.065 199.372 50.15 198.792 50.15ZM196.737 45.44H200.847C200.807 45.04 200.692 44.695 200.502 44.405C200.322 44.105 200.082 43.875 199.782 43.715C199.482 43.545 199.147 43.46 198.777 43.46C198.417 43.46 198.087 43.545 197.787 43.715C197.497 43.875 197.257 44.105 197.067 44.405C196.887 44.695 196.777 45.04 196.737 45.44ZM216.337 50H214.327V45.59C214.327 44.97 214.217 44.515 213.997 44.225C213.787 43.925 213.492 43.775 213.112 43.775C212.722 43.775 212.347 43.93 211.987 44.24C211.637 44.54 211.387 44.935 211.237 45.425V50H209.227V45.59C209.227 44.96 209.117 44.5 208.897 44.21C208.687 43.92 208.392 43.775 208.012 43.775C207.622 43.775 207.247 43.925 206.887 44.225C206.537 44.525 206.287 44.92 206.137 45.41V50H204.127V42.14H205.942V43.595C206.242 43.085 206.642 42.695 207.142 42.425C207.642 42.145 208.217 42.005 208.867 42.005C209.517 42.005 210.022 42.165 210.382 42.485C210.752 42.805 210.987 43.2 211.087 43.67C211.407 43.13 211.812 42.72 212.302 42.44C212.802 42.15 213.362 42.005 213.982 42.005C214.472 42.005 214.867 42.095 215.167 42.275C215.477 42.445 215.717 42.68 215.887 42.98C216.057 43.27 216.172 43.6 216.232 43.97C216.302 44.34 216.337 44.715 216.337 45.095V50ZM221.717 50.15C221.077 50.15 220.502 50.045 219.992 49.835C219.482 49.615 219.047 49.315 218.687 48.935C218.337 48.555 218.067 48.12 217.877 47.63C217.687 47.14 217.592 46.625 217.592 46.085C217.592 45.535 217.687 45.015 217.877 44.525C218.067 44.035 218.337 43.6 218.687 43.22C219.047 42.84 219.482 42.545 219.992 42.335C220.502 42.115 221.077 42.005 221.717 42.005C222.357 42.005 222.927 42.115 223.427 42.335C223.937 42.545 224.372 42.84 224.732 43.22C225.092 43.6 225.362 44.035 225.542 44.525C225.732 45.015 225.827 45.535 225.827 46.085C225.827 46.625 225.732 47.14 225.542 47.63C225.362 48.12 225.092 48.555 224.732 48.935C224.382 49.315 223.952 49.615 223.442 49.835C222.932 50.045 222.357 50.15 221.717 50.15ZM219.662 46.085C219.662 46.545 219.752 46.955 219.932 47.315C220.112 47.665 220.357 47.94 220.667 48.14C220.977 48.34 221.327 48.44 221.717 48.44C222.097 48.44 222.442 48.34 222.752 48.14C223.062 47.93 223.307 47.65 223.487 47.3C223.677 46.94 223.772 46.53 223.772 46.07C223.772 45.62 223.677 45.215 223.487 44.855C223.307 44.495 223.062 44.215 222.752 44.015C222.442 43.815 222.097 43.715 221.717 43.715C221.327 43.715 220.977 43.82 220.667 44.03C220.357 44.23 220.112 44.51 219.932 44.87C219.752 45.22 219.662 45.625 219.662 46.085ZM230.079 50.15C229.409 50.15 228.769 50.04 228.159 49.82C227.549 49.6 227.024 49.275 226.584 48.845L227.304 47.54C227.774 47.92 228.234 48.2 228.684 48.38C229.144 48.56 229.584 48.65 230.004 48.65C230.394 48.65 230.704 48.58 230.934 48.44C231.174 48.3 231.294 48.09 231.294 47.81C231.294 47.62 231.229 47.475 231.099 47.375C230.969 47.265 230.779 47.17 230.529 47.09C230.289 47.01 229.994 46.92 229.644 46.82C229.064 46.63 228.579 46.445 228.189 46.265C227.799 46.085 227.504 45.86 227.304 45.59C227.114 45.31 227.019 44.955 227.019 44.525C227.019 44.005 227.149 43.56 227.409 43.19C227.679 42.81 228.049 42.515 228.519 42.305C228.999 42.095 229.559 41.99 230.199 41.99C230.759 41.99 231.289 42.08 231.789 42.26C232.289 42.43 232.744 42.71 233.154 43.1L232.344 44.375C231.944 44.065 231.564 43.84 231.204 43.7C230.844 43.55 230.479 43.475 230.109 43.475C229.899 43.475 229.699 43.5 229.509 43.55C229.329 43.6 229.179 43.685 229.059 43.805C228.949 43.915 228.894 44.075 228.894 44.285C228.894 44.475 228.944 44.625 229.044 44.735C229.154 44.835 229.314 44.925 229.524 45.005C229.744 45.085 230.009 45.175 230.319 45.275C230.949 45.455 231.479 45.64 231.909 45.83C232.349 46.02 232.679 46.255 232.899 46.535C233.119 46.805 233.229 47.18 233.229 47.66C233.229 48.44 232.944 49.05 232.374 49.49C231.804 49.93 231.039 50.15 230.079 50.15ZM238.124 47.06V42.14H240.134V46.625C240.134 47.225 240.244 47.68 240.464 47.99C240.684 48.29 241.009 48.44 241.439 48.44C241.699 48.44 241.954 48.39 242.204 48.29C242.464 48.18 242.699 48.02 242.909 47.81C243.129 47.6 243.314 47.335 243.464 47.015V42.14H245.474V47.75C245.474 47.96 245.509 48.11 245.579 48.2C245.659 48.29 245.784 48.345 245.954 48.365V50C245.754 50.03 245.584 50.05 245.444 50.06C245.314 50.08 245.194 50.09 245.084 50.09C244.724 50.09 244.429 50.01 244.199 49.85C243.979 49.68 243.849 49.45 243.809 49.16L243.764 48.53C243.414 49.06 242.964 49.465 242.414 49.745C241.864 50.015 241.259 50.15 240.599 50.15C239.789 50.15 239.174 49.89 238.754 49.37C238.334 48.84 238.124 48.07 238.124 47.06ZM259.682 50H257.672V45.59C257.672 44.97 257.562 44.515 257.342 44.225C257.132 43.925 256.837 43.775 256.457 43.775C256.067 43.775 255.692 43.93 255.332 44.24C254.982 44.54 254.732 44.935 254.582 45.425V50H252.572V45.59C252.572 44.96 252.462 44.5 252.242 44.21C252.032 43.92 251.737 43.775 251.357 43.775C250.967 43.775 250.592 43.925 250.232 44.225C249.882 44.525 249.632 44.92 249.482 45.41V50H247.472V42.14H249.287V43.595C249.587 43.085 249.987 42.695 250.487 42.425C250.987 42.145 251.562 42.005 252.212 42.005C252.862 42.005 253.367 42.165 253.727 42.485C254.097 42.805 254.332 43.2 254.432 43.67C254.752 43.13 255.157 42.72 255.647 42.44C256.147 42.15 256.707 42.005 257.327 42.005C257.817 42.005 258.212 42.095 258.512 42.275C258.822 42.445 259.062 42.68 259.232 42.98C259.402 43.27 259.517 43.6 259.577 43.97C259.647 44.34 259.682 44.715 259.682 45.095V50ZM260.892 47.675C260.892 47.165 261.032 46.72 261.312 46.34C261.602 45.95 262.002 45.65 262.512 45.44C263.022 45.23 263.607 45.125 264.267 45.125C264.597 45.125 264.932 45.15 265.272 45.2C265.612 45.25 265.907 45.33 266.157 45.44V45.02C266.157 44.52 266.007 44.135 265.707 43.865C265.417 43.595 264.982 43.46 264.402 43.46C263.972 43.46 263.562 43.535 263.172 43.685C262.782 43.835 262.372 44.055 261.942 44.345L261.297 43.025C261.817 42.685 262.347 42.43 262.887 42.26C263.437 42.09 264.012 42.005 264.612 42.005C265.732 42.005 266.602 42.285 267.222 42.845C267.852 43.405 268.167 44.205 268.167 45.245V47.75C268.167 47.96 268.202 48.11 268.272 48.2C268.352 48.29 268.477 48.345 268.647 48.365V50C268.467 50.03 268.302 50.055 268.152 50.075C268.012 50.095 267.892 50.105 267.792 50.105C267.392 50.105 267.087 50.015 266.877 49.835C266.677 49.655 266.552 49.435 266.502 49.175L266.457 48.77C266.117 49.21 265.692 49.55 265.182 49.79C264.672 50.03 264.152 50.15 263.622 50.15C263.102 50.15 262.632 50.045 262.212 49.835C261.802 49.615 261.477 49.32 261.237 48.95C261.007 48.57 260.892 48.145 260.892 47.675ZM265.782 48.08C265.892 47.96 265.982 47.84 266.052 47.72C266.122 47.6 266.157 47.49 266.157 47.39V46.595C265.917 46.495 265.657 46.42 265.377 46.37C265.097 46.31 264.832 46.28 264.582 46.28C264.062 46.28 263.632 46.395 263.292 46.625C262.962 46.845 262.797 47.14 262.797 47.51C262.797 47.71 262.852 47.9 262.962 48.08C263.072 48.26 263.232 48.405 263.442 48.515C263.652 48.625 263.902 48.68 264.192 48.68C264.492 48.68 264.787 48.625 265.077 48.515C265.367 48.395 265.602 48.25 265.782 48.08ZM277.308 50.15C276.668 50.15 276.093 50.045 275.583 49.835C275.073 49.615 274.638 49.315 274.278 48.935C273.918 48.545 273.638 48.105 273.438 47.615C273.248 47.125 273.153 46.61 273.153 46.07C273.153 45.33 273.318 44.655 273.648 44.045C273.988 43.425 274.468 42.93 275.088 42.56C275.708 42.19 276.443 42.005 277.293 42.005C278.143 42.005 278.873 42.19 279.483 42.56C280.093 42.93 280.548 43.415 280.848 44.015L278.883 44.615C278.713 44.325 278.488 44.105 278.208 43.955C277.928 43.795 277.618 43.715 277.278 43.715C276.898 43.715 276.548 43.815 276.228 44.015C275.918 44.205 275.673 44.48 275.493 44.84C275.313 45.19 275.223 45.6 275.223 46.07C275.223 46.53 275.313 46.94 275.493 47.3C275.683 47.65 275.933 47.93 276.243 48.14C276.553 48.34 276.898 48.44 277.278 48.44C277.518 48.44 277.743 48.4 277.953 48.32C278.173 48.24 278.368 48.13 278.538 47.99C278.708 47.85 278.833 47.69 278.913 47.51L280.878 48.11C280.698 48.5 280.433 48.85 280.083 49.16C279.743 49.47 279.338 49.715 278.868 49.895C278.408 50.065 277.888 50.15 277.308 50.15ZM285.672 50.15C285.032 50.15 284.457 50.045 283.947 49.835C283.437 49.615 283.002 49.315 282.642 48.935C282.292 48.555 282.022 48.12 281.832 47.63C281.642 47.14 281.547 46.625 281.547 46.085C281.547 45.535 281.642 45.015 281.832 44.525C282.022 44.035 282.292 43.6 282.642 43.22C283.002 42.84 283.437 42.545 283.947 42.335C284.457 42.115 285.032 42.005 285.672 42.005C286.312 42.005 286.882 42.115 287.382 42.335C287.892 42.545 288.327 42.84 288.687 43.22C289.047 43.6 289.317 44.035 289.497 44.525C289.687 45.015 289.782 45.535 289.782 46.085C289.782 46.625 289.687 47.14 289.497 47.63C289.317 48.12 289.047 48.555 288.687 48.935C288.337 49.315 287.907 49.615 287.397 49.835C286.887 50.045 286.312 50.15 285.672 50.15ZM283.617 46.085C283.617 46.545 283.707 46.955 283.887 47.315C284.067 47.665 284.312 47.94 284.622 48.14C284.932 48.34 285.282 48.44 285.672 48.44C286.052 48.44 286.397 48.34 286.707 48.14C287.017 47.93 287.262 47.65 287.442 47.3C287.632 46.94 287.727 46.53 287.727 46.07C287.727 45.62 287.632 45.215 287.442 44.855C287.262 44.495 287.017 44.215 286.707 44.015C286.397 43.815 286.052 43.715 285.672 43.715C285.282 43.715 284.932 43.82 284.622 44.03C284.312 44.23 284.067 44.51 283.887 44.87C283.707 45.22 283.617 45.625 283.617 46.085ZM295.819 43.88C295.209 43.88 294.664 44 294.184 44.24C293.704 44.47 293.359 44.805 293.149 45.245V50H291.139V42.14H292.984V43.82C293.264 43.28 293.619 42.855 294.049 42.545C294.479 42.235 294.934 42.065 295.414 42.035C295.524 42.035 295.609 42.035 295.669 42.035C295.729 42.035 295.779 42.04 295.819 42.05V43.88ZM301.619 43.88C301.009 43.88 300.464 44 299.984 44.24C299.504 44.47 299.159 44.805 298.949 45.245V50H296.939V42.14H298.784V43.82C299.064 43.28 299.419 42.855 299.849 42.545C300.279 42.235 300.734 42.065 301.214 42.035C301.324 42.035 301.409 42.035 301.469 42.035C301.529 42.035 301.579 42.04 301.619 42.05V43.88ZM302.74 50V42.14H304.75V50H302.74ZM302.74 41.045V39.05H304.75V41.045H302.74ZM306.083 46.07C306.083 45.31 306.233 44.625 306.533 44.015C306.833 43.395 307.248 42.905 307.778 42.545C308.308 42.185 308.913 42.005 309.593 42.005C310.173 42.005 310.693 42.15 311.153 42.44C311.623 42.72 311.988 43.08 312.248 43.52V39.05H314.258V47.75C314.258 47.96 314.293 48.11 314.363 48.2C314.433 48.29 314.553 48.345 314.723 48.365V50C314.373 50.07 314.088 50.105 313.868 50.105C313.508 50.105 313.208 50.015 312.968 49.835C312.738 49.655 312.608 49.42 312.578 49.13L312.548 48.635C312.258 49.125 311.863 49.5 311.363 49.76C310.873 50.02 310.358 50.15 309.818 50.15C309.278 50.15 308.778 50.045 308.318 49.835C307.868 49.625 307.473 49.335 307.133 48.965C306.803 48.595 306.543 48.165 306.353 47.675C306.173 47.175 306.083 46.64 306.083 46.07ZM312.248 47.12V45.245C312.148 44.955 311.988 44.695 311.768 44.465C311.548 44.235 311.303 44.055 311.033 43.925C310.763 43.785 310.493 43.715 310.223 43.715C309.913 43.715 309.633 43.78 309.383 43.91C309.133 44.04 308.913 44.215 308.723 44.435C308.543 44.655 308.403 44.91 308.303 45.2C308.213 45.49 308.168 45.795 308.168 46.115C308.168 46.435 308.218 46.74 308.318 47.03C308.428 47.31 308.583 47.555 308.783 47.765C308.983 47.975 309.213 48.14 309.473 48.26C309.743 48.38 310.033 48.44 310.343 48.44C310.533 48.44 310.723 48.41 310.913 48.35C311.113 48.28 311.298 48.19 311.468 48.08C311.648 47.96 311.803 47.82 311.933 47.66C312.073 47.49 312.178 47.31 312.248 47.12ZM316.231 50V42.14H318.241V50H316.231ZM316.231 41.045V39.05H318.241V41.045H316.231ZM327.36 50H325.35V45.59C325.35 44.96 325.24 44.5 325.02 44.21C324.8 43.92 324.495 43.775 324.105 43.775C323.835 43.775 323.56 43.845 323.28 43.985C323.01 44.125 322.765 44.32 322.545 44.57C322.325 44.81 322.165 45.09 322.065 45.41V50H320.055V42.14H321.87V43.595C322.07 43.255 322.325 42.97 322.635 42.74C322.945 42.5 323.3 42.32 323.7 42.2C324.11 42.07 324.54 42.005 324.99 42.005C325.48 42.005 325.88 42.095 326.19 42.275C326.51 42.445 326.75 42.68 326.91 42.98C327.08 43.27 327.195 43.6 327.255 43.97C327.325 44.34 327.36 44.715 327.36 45.095V50ZM336.412 50H334.402V45.59C334.402 44.98 334.282 44.525 334.042 44.225C333.812 43.925 333.492 43.775 333.082 43.775C332.842 43.775 332.587 43.845 332.317 43.985C332.047 44.125 331.802 44.32 331.582 44.57C331.372 44.81 331.217 45.09 331.117 45.41V50H329.107V39.05H331.117V43.595C331.407 43.095 331.802 42.705 332.302 42.425C332.802 42.145 333.347 42.005 333.937 42.005C334.447 42.005 334.862 42.095 335.182 42.275C335.502 42.445 335.752 42.68 335.932 42.98C336.112 43.27 336.237 43.6 336.307 43.97C336.377 44.33 336.412 44.705 336.412 45.095V50ZM337.62 47.675C337.62 47.165 337.76 46.72 338.04 46.34C338.33 45.95 338.73 45.65 339.24 45.44C339.75 45.23 340.335 45.125 340.995 45.125C341.325 45.125 341.66 45.15 342 45.2C342.34 45.25 342.635 45.33 342.885 45.44V45.02C342.885 44.52 342.735 44.135 342.435 43.865C342.145 43.595 341.71 43.46 341.13 43.46C340.7 43.46 340.29 43.535 339.9 43.685C339.51 43.835 339.1 44.055 338.67 44.345L338.025 43.025C338.545 42.685 339.075 42.43 339.615 42.26C340.165 42.09 340.74 42.005 341.34 42.005C342.46 42.005 343.33 42.285 343.95 42.845C344.58 43.405 344.895 44.205 344.895 45.245V47.75C344.895 47.96 344.93 48.11 345 48.2C345.08 48.29 345.205 48.345 345.375 48.365V50C345.195 50.03 345.03 50.055 344.88 50.075C344.74 50.095 344.62 50.105 344.52 50.105C344.12 50.105 343.815 50.015 343.605 49.835C343.405 49.655 343.28 49.435 343.23 49.175L343.185 48.77C342.845 49.21 342.42 49.55 341.91 49.79C341.4 50.03 340.88 50.15 340.35 50.15C339.83 50.15 339.36 50.045 338.94 49.835C338.53 49.615 338.205 49.32 337.965 48.95C337.735 48.57 337.62 48.145 337.62 47.675ZM342.51 48.08C342.62 47.96 342.71 47.84 342.78 47.72C342.85 47.6 342.885 47.49 342.885 47.39V46.595C342.645 46.495 342.385 46.42 342.105 46.37C341.825 46.31 341.56 46.28 341.31 46.28C340.79 46.28 340.36 46.395 340.02 46.625C339.69 46.845 339.525 47.14 339.525 47.51C339.525 47.71 339.58 47.9 339.69 48.08C339.8 48.26 339.96 48.405 340.17 48.515C340.38 48.625 340.63 48.68 340.92 48.68C341.22 48.68 341.515 48.625 341.805 48.515C342.095 48.395 342.33 48.25 342.51 48.08ZM357.682 50H355.672V45.59C355.672 44.98 355.552 44.525 355.312 44.225C355.082 43.925 354.762 43.775 354.352 43.775C354.112 43.775 353.857 43.845 353.587 43.985C353.317 44.125 353.072 44.32 352.852 44.57C352.642 44.81 352.487 45.09 352.387 45.41V50H350.377V39.05H352.387V43.595C352.677 43.095 353.072 42.705 353.572 42.425C354.072 42.145 354.617 42.005 355.207 42.005C355.717 42.005 356.132 42.095 356.452 42.275C356.772 42.445 357.022 42.68 357.202 42.98C357.382 43.27 357.507 43.6 357.577 43.97C357.647 44.33 357.682 44.705 357.682 45.095V50ZM363.06 50.15C362.42 50.15 361.845 50.045 361.335 49.835C360.825 49.615 360.39 49.315 360.03 48.935C359.68 48.555 359.41 48.12 359.22 47.63C359.03 47.14 358.935 46.625 358.935 46.085C358.935 45.535 359.03 45.015 359.22 44.525C359.41 44.035 359.68 43.6 360.03 43.22C360.39 42.84 360.825 42.545 361.335 42.335C361.845 42.115 362.42 42.005 363.06 42.005C363.7 42.005 364.27 42.115 364.77 42.335C365.28 42.545 365.715 42.84 366.075 43.22C366.435 43.6 366.705 44.035 366.885 44.525C367.075 45.015 367.17 45.535 367.17 46.085C367.17 46.625 367.075 47.14 366.885 47.63C366.705 48.12 366.435 48.555 366.075 48.935C365.725 49.315 365.295 49.615 364.785 49.835C364.275 50.045 363.7 50.15 363.06 50.15ZM361.005 46.085C361.005 46.545 361.095 46.955 361.275 47.315C361.455 47.665 361.7 47.94 362.01 48.14C362.32 48.34 362.67 48.44 363.06 48.44C363.44 48.44 363.785 48.34 364.095 48.14C364.405 47.93 364.65 47.65 364.83 47.3C365.02 46.94 365.115 46.53 365.115 46.07C365.115 45.62 365.02 45.215 364.83 44.855C364.65 44.495 364.405 44.215 364.095 44.015C363.785 43.815 363.44 43.715 363.06 43.715C362.67 43.715 362.32 43.82 362.01 44.03C361.7 44.23 361.455 44.51 361.275 44.87C361.095 45.22 361.005 45.625 361.005 46.085ZM367.881 52.94C367.511 52.94 367.156 52.88 366.816 52.76C366.476 52.65 366.166 52.475 365.886 52.235L366.756 50.87C366.866 50.99 367.001 51.075 367.161 51.125C367.321 51.175 367.481 51.2 367.641 51.2C367.821 51.2 367.981 51.155 368.121 51.065C368.271 50.985 368.386 50.87 368.466 50.72C368.556 50.57 368.601 50.4 368.601 50.21V42.14H370.611V50.06C370.611 50.62 370.486 51.12 370.236 51.56C369.996 52 369.671 52.34 369.261 52.58C368.861 52.82 368.401 52.94 367.881 52.94ZM368.601 41.045V39.05H370.611V41.045H368.601ZM376.082 50.15C375.452 50.15 374.882 50.045 374.372 49.835C373.862 49.615 373.427 49.32 373.067 48.95C372.707 48.57 372.427 48.14 372.227 47.66C372.037 47.17 371.942 46.655 371.942 46.115C371.942 45.365 372.107 44.68 372.437 44.06C372.777 43.44 373.257 42.945 373.877 42.575C374.507 42.195 375.247 42.005 376.097 42.005C376.957 42.005 377.692 42.195 378.302 42.575C378.912 42.945 379.377 43.44 379.697 44.06C380.027 44.67 380.192 45.33 380.192 46.04C380.192 46.16 380.187 46.285 380.177 46.415C380.167 46.535 380.157 46.635 380.147 46.715H374.072C374.112 47.115 374.227 47.465 374.417 47.765C374.617 48.065 374.867 48.295 375.167 48.455C375.477 48.605 375.807 48.68 376.157 48.68C376.557 48.68 376.932 48.585 377.282 48.395C377.642 48.195 377.887 47.935 378.017 47.615L379.742 48.095C379.552 48.495 379.277 48.85 378.917 49.16C378.567 49.47 378.152 49.715 377.672 49.895C377.192 50.065 376.662 50.15 376.082 50.15ZM374.027 45.44H378.137C378.097 45.04 377.982 44.695 377.792 44.405C377.612 44.105 377.372 43.875 377.072 43.715C376.772 43.545 376.437 43.46 376.067 43.46C375.707 43.46 375.377 43.545 375.077 43.715C374.787 43.875 374.547 44.105 374.357 44.405C374.177 44.695 374.067 45.04 374.027 45.44ZM381.807 45.995V39.245H383.817V45.995H381.807ZM381.807 50V47.735H383.817V50H381.807Z" fill="#5E5E5E"/>
<rect x="203.5" y="70.5" width="91" height="26" rx="13" fill="white" stroke="#3837A1"/>
<path d="M220.11 90V79.35H224.625C225.115 79.35 225.565 79.45 225.975 79.65C226.385 79.85 226.74 80.12 227.04 80.46C227.35 80.8 227.59 81.18 227.76 81.6C227.93 82.02 228.015 82.45 228.015 82.89C228.015 83.49 227.875 84.06 227.595 84.6C227.315 85.14 226.93 85.58 226.44 85.92C225.95 86.26 225.37 86.43 224.7 86.43H222.18V90H220.11ZM222.18 84.615H224.58C224.83 84.615 225.055 84.545 225.255 84.405C225.455 84.265 225.615 84.065 225.735 83.805C225.855 83.535 225.915 83.23 225.915 82.89C225.915 82.52 225.845 82.205 225.705 81.945C225.575 81.685 225.4 81.49 225.18 81.36C224.97 81.23 224.74 81.165 224.49 81.165H222.18V84.615ZM232.745 90.15C232.115 90.15 231.545 90.045 231.035 89.835C230.525 89.615 230.09 89.32 229.73 88.95C229.37 88.57 229.09 88.14 228.89 87.66C228.7 87.17 228.605 86.655 228.605 86.115C228.605 85.365 228.77 84.68 229.1 84.06C229.44 83.44 229.92 82.945 230.54 82.575C231.17 82.195 231.91 82.005 232.76 82.005C233.62 82.005 234.355 82.195 234.965 82.575C235.575 82.945 236.04 83.44 236.36 84.06C236.69 84.67 236.855 85.33 236.855 86.04C236.855 86.16 236.85 86.285 236.84 86.415C236.83 86.535 236.82 86.635 236.81 86.715H230.735C230.775 87.115 230.89 87.465 231.08 87.765C231.28 88.065 231.53 88.295 231.83 88.455C232.14 88.605 232.47 88.68 232.82 88.68C233.22 88.68 233.595 88.585 233.945 88.395C234.305 88.195 234.55 87.935 234.68 87.615L236.405 88.095C236.215 88.495 235.94 88.85 235.58 89.16C235.23 89.47 234.815 89.715 234.335 89.895C233.855 90.065 233.325 90.15 232.745 90.15ZM230.69 85.44H234.8C234.76 85.04 234.645 84.695 234.455 84.405C234.275 84.105 234.035 83.875 233.735 83.715C233.435 83.545 233.1 83.46 232.73 83.46C232.37 83.46 232.04 83.545 231.74 83.715C231.45 83.875 231.21 84.105 231.02 84.405C230.84 84.695 230.73 85.04 230.69 85.44ZM242.716 89.595C242.546 89.665 242.341 89.745 242.101 89.835C241.861 89.925 241.601 89.995 241.321 90.045C241.051 90.105 240.776 90.135 240.496 90.135C240.126 90.135 239.786 90.07 239.476 89.94C239.166 89.81 238.916 89.605 238.726 89.325C238.546 89.035 238.456 88.66 238.456 88.2V83.685H237.421V82.14H238.456V79.59H240.466V82.14H242.116V83.685H240.466V87.525C240.476 87.795 240.551 87.99 240.691 88.11C240.831 88.23 241.006 88.29 241.216 88.29C241.426 88.29 241.631 88.255 241.831 88.185C242.031 88.115 242.191 88.055 242.311 88.005L242.716 89.595ZM243.748 79.05H245.758V87.48C245.758 87.84 245.818 88.085 245.938 88.215C246.058 88.335 246.223 88.395 246.433 88.395C246.593 88.395 246.758 88.375 246.928 88.335C247.098 88.295 247.248 88.245 247.378 88.185L247.648 89.715C247.378 89.845 247.063 89.945 246.703 90.015C246.343 90.085 246.018 90.12 245.728 90.12C245.098 90.12 244.608 89.955 244.258 89.625C243.918 89.285 243.748 88.805 243.748 88.185V79.05ZM252.153 90.15C251.513 90.15 250.938 90.045 250.428 89.835C249.918 89.615 249.483 89.315 249.123 88.935C248.773 88.555 248.503 88.12 248.313 87.63C248.123 87.14 248.028 86.625 248.028 86.085C248.028 85.535 248.123 85.015 248.313 84.525C248.503 84.035 248.773 83.6 249.123 83.22C249.483 82.84 249.918 82.545 250.428 82.335C250.938 82.115 251.513 82.005 252.153 82.005C252.793 82.005 253.363 82.115 253.863 82.335C254.373 82.545 254.808 82.84 255.168 83.22C255.528 83.6 255.798 84.035 255.978 84.525C256.168 85.015 256.263 85.535 256.263 86.085C256.263 86.625 256.168 87.14 255.978 87.63C255.798 88.12 255.528 88.555 255.168 88.935C254.818 89.315 254.388 89.615 253.878 89.835C253.368 90.045 252.793 90.15 252.153 90.15ZM250.098 86.085C250.098 86.545 250.188 86.955 250.368 87.315C250.548 87.665 250.793 87.94 251.103 88.14C251.413 88.34 251.763 88.44 252.153 88.44C252.533 88.44 252.878 88.34 253.188 88.14C253.498 87.93 253.743 87.65 253.923 87.3C254.113 86.94 254.208 86.53 254.208 86.07C254.208 85.62 254.113 85.215 253.923 84.855C253.743 84.495 253.498 84.215 253.188 84.015C252.878 83.815 252.533 83.715 252.153 83.715C251.763 83.715 251.413 83.82 251.103 84.03C250.793 84.23 250.548 84.51 250.368 84.87C250.188 85.22 250.098 85.625 250.098 86.085ZM259.471 90L256.576 82.14H258.661L260.641 88.17L262.636 82.14H264.541L261.661 90H259.471ZM268.985 90.15C268.355 90.15 267.785 90.045 267.275 89.835C266.765 89.615 266.33 89.32 265.97 88.95C265.61 88.57 265.33 88.14 265.13 87.66C264.94 87.17 264.845 86.655 264.845 86.115C264.845 85.365 265.01 84.68 265.34 84.06C265.68 83.44 266.16 82.945 266.78 82.575C267.41 82.195 268.15 82.005 269 82.005C269.86 82.005 270.595 82.195 271.205 82.575C271.815 82.945 272.28 83.44 272.6 84.06C272.93 84.67 273.095 85.33 273.095 86.04C273.095 86.16 273.09 86.285 273.08 86.415C273.07 86.535 273.06 86.635 273.05 86.715H266.975C267.015 87.115 267.13 87.465 267.32 87.765C267.52 88.065 267.77 88.295 268.07 88.455C268.38 88.605 268.71 88.68 269.06 88.68C269.46 88.68 269.835 88.585 270.185 88.395C270.545 88.195 270.79 87.935 270.92 87.615L272.645 88.095C272.455 88.495 272.18 88.85 271.82 89.16C271.47 89.47 271.055 89.715 270.575 89.895C270.095 90.065 269.565 90.15 268.985 90.15ZM266.93 85.44H271.04C271 85.04 270.885 84.695 270.695 84.405C270.515 84.105 270.275 83.875 269.975 83.715C269.675 83.545 269.34 83.46 268.97 83.46C268.61 83.46 268.28 83.545 267.98 83.715C267.69 83.875 267.45 84.105 267.26 84.405C267.08 84.695 266.97 85.04 266.93 85.44ZM278.999 83.88C278.389 83.88 277.844 84 277.364 84.24C276.884 84.47 276.539 84.805 276.329 85.245V90H274.319V82.14H276.164V83.82C276.444 83.28 276.799 82.855 277.229 82.545C277.659 82.235 278.114 82.065 278.594 82.035C278.704 82.035 278.789 82.035 278.849 82.035C278.909 82.035 278.959 82.04 278.999 82.05V83.88Z" fill="black"/>
<rect x="102.5" y="70.5" width="91" height="26" rx="13" fill="white" stroke="#3837A1"/>
<path d="M123.005 79.35H125.105L129.02 90H126.89L125.9 87.345H122.18L121.205 90H119.075L123.005 79.35ZM125.525 85.89L124.055 81.495L122.525 85.89H125.525ZM134.673 83.88C134.063 83.88 133.518 84 133.038 84.24C132.558 84.47 132.213 84.805 132.003 85.245V90H129.993V82.14H131.838V83.82C132.118 83.28 132.473 82.855 132.903 82.545C133.333 82.235 133.788 82.065 134.268 82.035C134.378 82.035 134.463 82.035 134.523 82.035C134.583 82.035 134.633 82.04 134.673 82.05V83.88ZM139.256 90V79.35H141.326V88.185H146.756V90H139.256ZM147.82 90V82.14H149.83V90H147.82ZM147.82 81.045V79.05H149.83V81.045H147.82ZM153.759 90L150.864 82.14H152.949L154.929 88.17L156.924 82.14H158.829L155.949 90H153.759ZM164.571 83.88C163.961 83.88 163.416 84 162.936 84.24C162.456 84.47 162.111 84.805 161.901 85.245V90H159.891V82.14H161.736V83.82C162.016 83.28 162.371 82.855 162.801 82.545C163.231 82.235 163.686 82.065 164.166 82.035C164.276 82.035 164.361 82.035 164.421 82.035C164.481 82.035 164.531 82.04 164.571 82.05V83.88ZM169.234 90.15C168.604 90.15 168.034 90.045 167.524 89.835C167.014 89.615 166.579 89.32 166.219 88.95C165.859 88.57 165.579 88.14 165.379 87.66C165.189 87.17 165.094 86.655 165.094 86.115C165.094 85.365 165.259 84.68 165.589 84.06C165.929 83.44 166.409 82.945 167.029 82.575C167.659 82.195 168.399 82.005 169.249 82.005C170.109 82.005 170.844 82.195 171.454 82.575C172.064 82.945 172.529 83.44 172.849 84.06C173.179 84.67 173.344 85.33 173.344 86.04C173.344 86.16 173.339 86.285 173.329 86.415C173.319 86.535 173.309 86.635 173.299 86.715H167.224C167.264 87.115 167.379 87.465 167.569 87.765C167.769 88.065 168.019 88.295 168.319 88.455C168.629 88.605 168.959 88.68 169.309 88.68C169.709 88.68 170.084 88.585 170.434 88.395C170.794 88.195 171.039 87.935 171.169 87.615L172.894 88.095C172.704 88.495 172.429 88.85 172.069 89.16C171.719 89.47 171.304 89.715 170.824 89.895C170.344 90.065 169.814 90.15 169.234 90.15ZM167.179 85.44H171.289C171.249 85.04 171.134 84.695 170.944 84.405C170.764 84.105 170.524 83.875 170.224 83.715C169.924 83.545 169.589 83.46 169.219 83.46C168.859 83.46 168.529 83.545 168.229 83.715C167.939 83.875 167.699 84.105 167.509 84.405C167.329 84.695 167.219 85.04 167.179 85.44Z" fill="black"/>
<rect x="1.5" y="71.5" width="91" height="26" rx="13" fill="white" stroke="#3837A1"/>
<path d="M21.465 84.6C21.465 83.95 21.58 83.315 21.81 82.695C22.05 82.065 22.395 81.495 22.845 80.985C23.295 80.465 23.845 80.055 24.495 79.755C25.145 79.445 25.885 79.29 26.715 79.29C27.695 79.29 28.54 79.505 29.25 79.935C29.97 80.365 30.505 80.925 30.855 81.615L29.265 82.71C29.085 82.31 28.85 81.995 28.56 81.765C28.27 81.525 27.96 81.36 27.63 81.27C27.3 81.17 26.975 81.12 26.655 81.12C26.135 81.12 25.68 81.225 25.29 81.435C24.91 81.645 24.59 81.92 24.33 82.26C24.07 82.6 23.875 82.98 23.745 83.4C23.625 83.82 23.565 84.24 23.565 84.66C23.565 85.13 23.64 85.585 23.79 86.025C23.94 86.455 24.15 86.84 24.42 87.18C24.7 87.51 25.03 87.775 25.41 87.975C25.8 88.165 26.225 88.26 26.685 88.26C27.015 88.26 27.35 88.205 27.69 88.095C28.03 87.985 28.345 87.81 28.635 87.57C28.925 87.33 29.15 87.02 29.31 86.64L31.005 87.615C30.795 88.145 30.45 88.595 29.97 88.965C29.5 89.335 28.97 89.615 28.38 89.805C27.79 89.995 27.205 90.09 26.625 90.09C25.865 90.09 25.17 89.935 24.54 89.625C23.91 89.305 23.365 88.885 22.905 88.365C22.455 87.835 22.1 87.245 21.84 86.595C21.59 85.935 21.465 85.27 21.465 84.6ZM31.6582 87.675C31.6582 87.165 31.7982 86.72 32.0782 86.34C32.3682 85.95 32.7682 85.65 33.2782 85.44C33.7882 85.23 34.3732 85.125 35.0332 85.125C35.3632 85.125 35.6982 85.15 36.0382 85.2C36.3782 85.25 36.6732 85.33 36.9232 85.44V85.02C36.9232 84.52 36.7732 84.135 36.4732 83.865C36.1832 83.595 35.7482 83.46 35.1682 83.46C34.7382 83.46 34.3282 83.535 33.9382 83.685C33.5482 83.835 33.1382 84.055 32.7082 84.345L32.0632 83.025C32.5832 82.685 33.1132 82.43 33.6532 82.26C34.2032 82.09 34.7782 82.005 35.3782 82.005C36.4982 82.005 37.3682 82.285 37.9882 82.845C38.6182 83.405 38.9332 84.205 38.9332 85.245V87.75C38.9332 87.96 38.9682 88.11 39.0382 88.2C39.1182 88.29 39.2432 88.345 39.4132 88.365V90C39.2332 90.03 39.0682 90.055 38.9182 90.075C38.7782 90.095 38.6582 90.105 38.5582 90.105C38.1582 90.105 37.8532 90.015 37.6432 89.835C37.4432 89.655 37.3182 89.435 37.2682 89.175L37.2232 88.77C36.8832 89.21 36.4582 89.55 35.9482 89.79C35.4382 90.03 34.9182 90.15 34.3882 90.15C33.8682 90.15 33.3982 90.045 32.9782 89.835C32.5682 89.615 32.2432 89.32 32.0032 88.95C31.7732 88.57 31.6582 88.145 31.6582 87.675ZM36.5482 88.08C36.6582 87.96 36.7482 87.84 36.8182 87.72C36.8882 87.6 36.9232 87.49 36.9232 87.39V86.595C36.6832 86.495 36.4232 86.42 36.1432 86.37C35.8632 86.31 35.5982 86.28 35.3482 86.28C34.8282 86.28 34.3982 86.395 34.0582 86.625C33.7282 86.845 33.5632 87.14 33.5632 87.51C33.5632 87.71 33.6182 87.9 33.7282 88.08C33.8382 88.26 33.9982 88.405 34.2082 88.515C34.4182 88.625 34.6682 88.68 34.9582 88.68C35.2582 88.68 35.5532 88.625 35.8432 88.515C36.1332 88.395 36.3682 88.25 36.5482 88.08ZM42.6482 90L39.7532 82.14H41.8382L43.8182 88.17L45.8132 82.14H47.7182L44.8382 90H42.6482ZM48.0352 87.675C48.0352 87.165 48.1752 86.72 48.4552 86.34C48.7452 85.95 49.1452 85.65 49.6552 85.44C50.1652 85.23 50.7502 85.125 51.4102 85.125C51.7402 85.125 52.0752 85.15 52.4152 85.2C52.7552 85.25 53.0502 85.33 53.3002 85.44V85.02C53.3002 84.52 53.1502 84.135 52.8502 83.865C52.5602 83.595 52.1252 83.46 51.5452 83.46C51.1152 83.46 50.7052 83.535 50.3152 83.685C49.9252 83.835 49.5152 84.055 49.0852 84.345L48.4402 83.025C48.9602 82.685 49.4902 82.43 50.0302 82.26C50.5802 82.09 51.1552 82.005 51.7552 82.005C52.8752 82.005 53.7452 82.285 54.3652 82.845C54.9952 83.405 55.3102 84.205 55.3102 85.245V87.75C55.3102 87.96 55.3452 88.11 55.4152 88.2C55.4952 88.29 55.6202 88.345 55.7902 88.365V90C55.6102 90.03 55.4452 90.055 55.2952 90.075C55.1552 90.095 55.0352 90.105 54.9352 90.105C54.5352 90.105 54.2302 90.015 54.0202 89.835C53.8202 89.655 53.6952 89.435 53.6452 89.175L53.6002 88.77C53.2602 89.21 52.8352 89.55 52.3252 89.79C51.8152 90.03 51.2952 90.15 50.7652 90.15C50.2452 90.15 49.7752 90.045 49.3552 89.835C48.9452 89.615 48.6202 89.32 48.3802 88.95C48.1502 88.57 48.0352 88.145 48.0352 87.675ZM52.9252 88.08C53.0352 87.96 53.1252 87.84 53.1952 87.72C53.2652 87.6 53.3002 87.49 53.3002 87.39V86.595C53.0602 86.495 52.8002 86.42 52.5202 86.37C52.2402 86.31 51.9752 86.28 51.7252 86.28C51.2052 86.28 50.7752 86.395 50.4352 86.625C50.1052 86.845 49.9402 87.14 49.9402 87.51C49.9402 87.71 49.9952 87.9 50.1052 88.08C50.2152 88.26 50.3752 88.405 50.5852 88.515C50.7952 88.625 51.0452 88.68 51.3352 88.68C51.6352 88.68 51.9302 88.625 52.2202 88.515C52.5102 88.395 52.7452 88.25 52.9252 88.08ZM57.1734 79.05H59.1834V87.48C59.1834 87.84 59.2434 88.085 59.3634 88.215C59.4834 88.335 59.6484 88.395 59.8584 88.395C60.0184 88.395 60.1834 88.375 60.3534 88.335C60.5234 88.295 60.6734 88.245 60.8034 88.185L61.0734 89.715C60.8034 89.845 60.4884 89.945 60.1284 90.015C59.7684 90.085 59.4434 90.12 59.1534 90.12C58.5234 90.12 58.0334 89.955 57.6834 89.625C57.3434 89.285 57.1734 88.805 57.1734 88.185V79.05ZM65.5792 90.15C64.9392 90.15 64.3642 90.045 63.8542 89.835C63.3442 89.615 62.9092 89.315 62.5492 88.935C62.1992 88.555 61.9292 88.12 61.7392 87.63C61.5492 87.14 61.4542 86.625 61.4542 86.085C61.4542 85.535 61.5492 85.015 61.7392 84.525C61.9292 84.035 62.1992 83.6 62.5492 83.22C62.9092 82.84 63.3442 82.545 63.8542 82.335C64.3642 82.115 64.9392 82.005 65.5792 82.005C66.2192 82.005 66.7892 82.115 67.2892 82.335C67.7992 82.545 68.2342 82.84 68.5942 83.22C68.9542 83.6 69.2242 84.035 69.4042 84.525C69.5942 85.015 69.6892 85.535 69.6892 86.085C69.6892 86.625 69.5942 87.14 69.4042 87.63C69.2242 88.12 68.9542 88.555 68.5942 88.935C68.2442 89.315 67.8142 89.615 67.3042 89.835C66.7942 90.045 66.2192 90.15 65.5792 90.15ZM63.5242 86.085C63.5242 86.545 63.6142 86.955 63.7942 87.315C63.9742 87.665 64.2192 87.94 64.5292 88.14C64.8392 88.34 65.1892 88.44 65.5792 88.44C65.9592 88.44 66.3042 88.34 66.6142 88.14C66.9242 87.93 67.1692 87.65 67.3492 87.3C67.5392 86.94 67.6342 86.53 67.6342 86.07C67.6342 85.62 67.5392 85.215 67.3492 84.855C67.1692 84.495 66.9242 84.215 66.6142 84.015C66.3042 83.815 65.9592 83.715 65.5792 83.715C65.1892 83.715 64.8392 83.82 64.5292 84.03C64.2192 84.23 63.9742 84.51 63.7942 84.87C63.6142 85.22 63.5242 85.625 63.5242 86.085Z" fill="black"/>
</svg>
