<svg width="25" height="25" viewBox="0 0 25 25" fill="none" xmlns="http://www.w3.org/2000/svg">
<path d="M12.5 16.4375L16.4375 12.5M16.4375 12.5L12.5 8.5625M16.4375 12.5L2 12.5M8.5625 19.0625C8.5625 20.2856 8.5625 20.8971 8.76232 21.3795C9.02874 22.0227 9.53942 22.5338 10.1826 22.8002C10.665 23 11.2769 23 12.5 23H18.8C20.2701 23 21.005 23 21.5665 22.7139C22.0604 22.4622 22.4625 22.0607 22.7142 21.5668C23.0003 21.0053 23 20.2701 23 18.7999V6.19994C23 4.7298 23.0003 3.99482 22.7142 3.4333C22.4625 2.93938 22.0604 2.53778 21.5665 2.28611C21.005 2 20.2701 2 18.8 2H12.5C11.2769 2 10.665 2 10.1826 2.19982C9.53942 2.46624 9.02874 2.97724 8.76232 3.62044C8.5625 4.10284 8.5625 4.71439 8.5625 5.93748" stroke="#DB310C" stroke-width="3" stroke-linecap="round" stroke-linejoin="round"/>
</svg>
