<svg width="29" height="29" viewBox="0 0 29 29" fill="none" xmlns="http://www.w3.org/2000/svg">
<path d="M28.5663 23.6765V13.8316V13.8303C28.5663 12.8829 28.5663 12.409 28.4523 11.968C28.3512 11.577 28.1848 11.2062 27.9603 10.8718C27.7069 10.4945 27.3544 10.1824 26.6485 9.55802L18.2234 2.105C16.9129 0.945731 16.2576 0.366171 15.5202 0.1457C14.8705 -0.0485668 14.1782 -0.0485668 13.5284 0.1457C12.7914 0.366051 12.1368 0.945102 10.8278 2.10311L10.8257 2.105L2.4005 9.55802L2.39882 9.5595C1.6941 10.1829 1.3415 10.4948 1.08836 10.8718C0.863842 11.2062 0.697523 11.577 0.596462 11.968C0.482422 12.4092 0.482422 12.8834 0.482422 13.8316V23.6765C0.482422 25.3302 0.482422 26.1569 0.749641 26.8091C1.10593 27.6787 1.78974 28.3696 2.6499 28.7298C3.29503 29 4.11287 29 5.74854 29C7.38422 29 8.20166 29 8.84678 28.7298C9.70695 28.3696 10.3902 27.6787 10.7465 26.8091C11.0137 26.1569 11.0139 25.33 11.0139 23.6764V21.9019C11.0139 19.9418 12.5856 18.3528 14.5243 18.3528C16.4631 18.3528 18.0348 19.9418 18.0348 21.9019V23.6764C18.0348 25.33 18.0348 26.1569 18.302 26.8091C18.6583 27.6787 19.3421 28.3696 20.2023 28.7298C20.8474 29 21.6653 29 23.3009 29C24.9366 29 25.7541 29 26.3992 28.7298C27.2593 28.3696 27.9426 27.6787 28.2989 26.8091C28.5661 26.1569 28.5663 25.3302 28.5663 23.6765Z" fill="black"/>
</svg>
