<svg width="748" height="500" viewBox="0 0 748 500" fill="none" xmlns="http://www.w3.org/2000/svg">
<path d="M543.28 92.1599H115.16C111.616 92.1626 108.218 93.5723 105.712 96.0794C103.207 98.5865 101.8 101.986 101.8 105.53V407.92C101.8 411.463 103.208 414.861 105.713 417.367C108.219 419.872 111.617 421.28 115.16 421.28H279.47C279.47 421.28 289.92 453.6 257.47 470.28H411.16C411.16 470.28 374.58 457.74 383.99 421.28H543.28C546.823 421.28 550.221 419.872 552.727 417.367C555.232 414.861 556.64 411.463 556.64 407.92V105.53C556.64 101.986 555.233 98.5865 552.728 96.0794C550.222 93.5723 546.824 92.1626 543.28 92.1599Z" fill="#455A64"/>
<path d="M332.78 389.48C338.61 397.8 329.49 406.92 321.17 401.09C320.89 400.898 320.646 400.658 320.45 400.38C314.64 392.05 323.75 382.95 332.07 388.76C332.348 388.956 332.588 389.2 332.78 389.48Z" fill="#263238"/>
<path d="M118.87 97.7H539.57C540.844 97.7 542.105 97.9509 543.282 98.4383C544.459 98.9258 545.528 99.6403 546.429 100.541C547.33 101.442 548.044 102.511 548.532 103.688C549.019 104.865 549.27 106.126 549.27 107.4V366H109.17V107.4C109.17 104.827 110.192 102.36 112.011 100.541C113.83 98.7219 116.297 97.7 118.87 97.7Z" fill="#E0E0E0"/>
<path d="M466.74 421.32C466.74 421.46 405.82 421.58 330.68 421.58C255.54 421.58 194.62 421.46 194.62 421.32C194.62 421.18 255.52 421.07 330.68 421.07C405.84 421.07 466.74 421.18 466.74 421.32Z" fill="#263238"/>
<path d="M497.49 106.37H157.12V357.3H497.49V106.37Z" fill="white"/>
<path d="M498 357.8H156.62V105.87H498V357.8ZM157.63 356.8H497V106.87H157.62L157.63 356.8Z" fill="#263238"/>
<path d="M173.16 117.74C173.16 118.213 173.02 118.675 172.757 119.068C172.495 119.461 172.121 119.767 171.685 119.948C171.248 120.129 170.767 120.176 170.304 120.084C169.84 119.992 169.414 119.764 169.08 119.43C168.746 119.096 168.518 118.67 168.426 118.206C168.334 117.743 168.381 117.262 168.562 116.825C168.743 116.389 169.049 116.015 169.442 115.753C169.835 115.49 170.297 115.35 170.77 115.35C171.404 115.35 172.012 115.602 172.46 116.05C172.908 116.498 173.16 117.106 173.16 117.74Z" fill="#263238"/>
<path d="M177.9 120.13C179.22 120.13 180.29 119.06 180.29 117.74C180.29 116.42 179.22 115.35 177.9 115.35C176.58 115.35 175.51 116.42 175.51 117.74C175.51 119.06 176.58 120.13 177.9 120.13Z" fill="#263238"/>
<path d="M184.68 120.13C186 120.13 187.07 119.06 187.07 117.74C187.07 116.42 186 115.35 184.68 115.35C183.36 115.35 182.29 116.42 182.29 117.74C182.29 119.06 183.36 120.13 184.68 120.13Z" fill="#263238"/>
<path d="M130.76 407.41H56.16V417.66H130.76V407.41Z" fill="#263238"/>
<path d="M130.88 417.79H56V407.29H130.85L130.88 417.79ZM56.28 417.54H130.62V407.54H56.28V417.54Z" fill="#263238"/>
<path d="M63.07 414.25L73.81 467.22H113.54L123.92 417.66L63.07 414.25Z" fill="#263238"/>
<path d="M63.07 462.21L68.8 470.09H117.09L123.92 462.21H63.07Z" fill="#455A64"/>
<path d="M90.65 415.8C90.51 415.8 90.32 391.26 90.23 360.99C90.14 330.72 90.23 306.18 90.34 306.18C90.45 306.18 90.68 330.72 90.76 360.99C90.84 391.26 90.8 415.8 90.65 415.8Z" fill="#263238"/>
<path d="M107.27 354.39C107.223 354.587 107.156 354.778 107.07 354.96L106.4 356.55L105.92 357.69C105.76 358.12 105.6 358.59 105.42 359.08C105.24 359.57 105.05 360.08 104.84 360.68C104.63 361.28 104.49 361.87 104.29 362.5C103.407 365.5 102.712 368.553 102.21 371.64C101.625 375.424 101.238 379.236 101.05 383.06C100.777 390.019 100.974 396.988 101.64 403.92C101.88 406.58 102.12 408.74 102.3 410.22C102.38 410.92 102.44 411.49 102.49 411.94C102.51 412.14 102.51 412.341 102.49 412.54C102.417 412.351 102.37 412.152 102.35 411.95C102.28 411.51 102.18 410.95 102.06 410.25C101.82 408.77 101.52 406.62 101.24 403.96C100.459 397.013 100.209 390.016 100.49 383.03C100.681 379.188 101.081 375.359 101.69 371.56C102.223 368.458 102.962 365.395 103.9 362.39C104.11 361.76 104.28 361.14 104.49 360.57C104.7 360 104.92 359.48 105.11 358.98L105.65 357.59L106.18 356.46L106.94 354.91C107.025 354.722 107.136 354.547 107.27 354.39Z" fill="#263238"/>
<path d="M105.36 334.54C105.31 334.818 105.229 335.09 105.12 335.35L104.35 337.63C104.17 338.13 103.98 338.68 103.78 339.28C103.58 339.88 103.38 340.547 103.18 341.28C102.74 342.7 102.18 344.28 101.79 346.13L101.04 348.96C100.81 349.96 100.58 350.96 100.34 352.07C99.82 354.2 99.44 356.52 98.96 358.95C98.14 363.82 97.41 369.21 96.96 374.89C96.51 380.57 96.29 386.02 96.22 390.96C96.15 395.9 96.22 400.36 96.47 404.1C96.53 405.97 96.65 407.65 96.75 409.1C96.85 410.55 96.93 411.86 97.02 412.9C97.11 413.94 97.16 414.7 97.2 415.3C97.2265 415.583 97.2265 415.867 97.2 416.15C97.1343 415.874 97.0908 415.593 97.07 415.31C97 414.72 96.9 413.92 96.79 412.92C96.68 411.92 96.54 410.6 96.42 409.12C96.3 407.64 96.15 405.95 96.06 404.12C95.81 400.38 95.71 395.91 95.7 390.96C95.69 386.01 95.93 380.55 96.4 374.85C96.87 369.15 97.65 363.74 98.5 358.85C98.99 356.42 99.39 354.1 99.93 351.96C100.18 350.89 100.42 349.85 100.66 348.85L101.44 346.02C101.92 344.2 102.44 342.59 102.91 341.18L103.56 339.18C103.78 338.59 103.99 338.05 104.17 337.55C104.537 336.61 104.827 335.86 105.04 335.3C105.126 335.038 105.233 334.784 105.36 334.54Z" fill="#263238"/>
<path d="M85.93 420.14C85.9197 420.044 85.9197 419.946 85.93 419.85C85.93 419.63 85.93 419.36 85.86 419.01C85.86 418.23 85.73 417.14 85.64 415.76C85.46 412.9 85.21 408.82 84.89 403.81C84.25 393.72 83.31 379.81 81.61 364.44C80.74 356.78 79.74 349.5 78.69 342.9C78.14 339.6 77.63 336.47 77.06 333.55C76.49 330.63 75.97 327.92 75.45 325.44C74.93 322.96 74.45 320.74 73.97 318.79C73.49 316.84 73.12 315.15 72.77 313.79C72.42 312.43 72.18 311.39 72 310.62C71.92 310.29 71.86 310.01 71.81 309.8C71.799 309.704 71.799 309.606 71.81 309.51C71.8583 309.594 71.8921 309.685 71.91 309.78C71.97 310 72.05 310.26 72.15 310.6L73.02 313.74C73.4 315.1 73.85 316.74 74.31 318.74C74.77 320.74 75.31 322.91 75.87 325.38C76.43 327.85 77 330.56 77.54 333.49C78.08 336.42 78.66 339.49 79.23 342.84C80.3 349.44 81.32 356.73 82.23 364.4C83.93 379.75 84.81 393.71 85.36 403.8C85.63 408.85 85.82 412.94 85.94 415.8C85.94 417.18 86.03 418.27 86.06 419.05C86.06 419.4 86.06 419.68 86.06 419.9C86.0286 419.986 85.9848 420.067 85.93 420.14Z" fill="#263238"/>
<path d="M90 318C89.68 314.52 86.17 311.9 82.67 311.87C79.17 311.84 75.93 313.87 73.79 316.69C71.7805 319.555 70.3317 322.776 69.52 326.18C67.17 334.37 65.88 342.97 66.89 351.43C67.9 359.89 71.32 368.23 77.4 374.21C78.4 375.21 79.66 376.15 81.02 375.86C81.7761 375.646 82.4602 375.231 83 374.66C88.9483 369.216 93.6624 362.562 96.8258 355.146C99.9891 347.729 101.528 339.721 101.34 331.66C101.25 328.44 100.82 325.09 99.04 322.41C97.26 319.73 93.11 316.88 90.04 317.96" fill="#9998D3"/>
<path d="M64 290.13L59.05 299C58.94 299.21 58.79 299.44 58.55 299.46C58.31 299.48 58.1 299.24 57.96 299.02C53.62 292.353 49.2867 285.703 44.96 279.07L47.96 277.37L64 290.13Z" fill="#6D6CCA"/>
<g opacity="0.2">
<path d="M64 290.13L59.05 299C58.94 299.21 58.79 299.44 58.55 299.46C58.31 299.48 58.1 299.24 57.96 299.02C53.62 292.353 49.2867 285.703 44.96 279.07L47.96 277.37L64 290.13Z" fill="#9998D3"/>
</g>
<path d="M90.34 306.18L46 280C45.6997 279.918 45.4312 279.747 45.23 279.51C45.0288 279.272 44.9043 278.979 44.8729 278.67C44.8415 278.36 44.9047 278.048 45.0541 277.775C45.2036 277.502 45.4322 277.281 45.71 277.14C48.7587 273.975 52.4538 271.504 56.5436 269.896C60.6335 268.287 65.0219 267.579 69.41 267.82C73.7961 268.134 78.0396 269.512 81.7735 271.835C85.5074 274.157 88.6193 277.355 90.84 281.15C95.12 288.8 95.26 298.91 90.35 306.15" fill="#9998D3"/>
<path d="M52.39 271.66C52.5794 271.611 52.7744 271.588 52.97 271.59C53.35 271.59 53.91 271.5 54.64 271.51C56.7037 271.481 58.7657 271.641 60.8 271.99C67.5664 273.133 73.8644 276.188 78.9501 280.795C84.0357 285.402 87.6965 291.369 89.5 297.99C90.0529 299.955 90.4211 301.967 90.6 304C90.68 304.73 90.65 304.91 90.67 305.3C90.638 305.656 90.5214 305.998 90.33 306.3C90.4609 305.561 90.4845 304.806 90.4 304.06C90.136 302.03 89.7147 300.024 89.14 298.06C87.2809 291.547 83.6335 285.686 78.6119 281.142C73.5902 276.598 67.3952 273.552 60.73 272.35C58.7207 271.971 56.6841 271.753 54.64 271.7C53.19 271.68 52.39 271.71 52.39 271.66Z" fill="#263238"/>
<path d="M84.34 288.12C83.6346 288.539 82.8829 288.875 82.1 289.12C80.69 289.68 78.71 290.39 76.5 291.12C74.29 291.85 72.27 292.38 70.79 292.74C70.0071 292.986 69.1984 293.14 68.38 293.2C69.1204 292.85 69.8944 292.575 70.69 292.38L76.34 290.61L82 288.78C82.7559 288.482 83.5398 288.261 84.34 288.12Z" fill="#263238"/>
<path d="M77.36 269.36C77.9695 272.633 78.0538 275.981 77.61 279.28C77.388 277.623 77.3011 275.951 77.35 274.28C77.2199 272.643 77.2232 270.997 77.36 269.36Z" fill="#263238"/>
<path d="M45.61 279.52C46.6467 279.044 47.7244 278.662 48.83 278.38C50.83 277.76 53.65 276.98 56.83 276.22C60.01 275.46 62.83 274.89 64.89 274.53C66.001 274.278 67.132 274.124 68.27 274.07C67.1883 274.424 66.082 274.698 64.96 274.89C62.96 275.35 60.07 275.99 56.96 276.74C53.85 277.49 51.03 278.22 48.96 278.74C47.8626 279.077 46.7433 279.337 45.61 279.52Z" fill="#263238"/>
<path d="M71.64 310.44C67.82 307.54 63.79 306.97 59.01 307.16C54.2182 307.48 49.5281 308.691 45.18 310.73C37.7 314.01 30.67 318.83 26.18 325.67C21.69 332.51 20.18 341.55 23.5 348.99C23.7553 349.768 24.2897 350.423 25 350.83C25.8327 351.066 26.7223 350.999 27.51 350.64C36.01 347.86 44.58 345.06 52.4 340.72C60.22 336.38 67.34 330.33 71.53 322.43C72.6047 320.565 73.2854 318.499 73.53 316.36C73.6379 315.288 73.5152 314.205 73.1703 313.184C72.8253 312.163 72.2661 311.227 71.53 310.44" fill="#9998D3"/>
<path d="M71.71 309.54C71.5172 309.647 71.3124 309.731 71.1 309.79L69.32 310.4L68.03 310.83C67.56 311 67.03 311.21 66.52 311.42C65.44 311.85 64.19 312.29 62.88 312.93L60.79 313.88C60.07 314.21 59.35 314.62 58.58 315.01C57.04 315.77 55.48 316.74 53.82 317.72C50.2776 319.949 46.9111 322.447 43.75 325.19C40.63 327.966 37.725 330.975 35.06 334.19C33.87 335.72 32.71 337.14 31.77 338.57C31.28 339.28 30.77 339.95 30.36 340.57L29.15 342.57C28.35 343.79 27.76 344.98 27.15 345.99C26.88 346.5 26.6 346.99 26.38 347.41C26.16 347.83 25.97 348.26 25.79 348.63C25.44 349.33 25.17 349.89 24.95 350.32C24.8643 350.524 24.757 350.719 24.63 350.9C24.6789 350.685 24.7527 350.477 24.85 350.28C25.05 349.83 25.29 349.28 25.6 348.55L26.15 347.3C26.36 346.85 26.62 346.37 26.89 345.85C27.44 344.85 28.01 343.62 28.79 342.38L29.98 340.38C30.39 339.7 30.89 339.02 31.36 338.3C32.3 336.85 33.45 335.41 34.64 333.87C37.2962 330.597 40.2123 327.544 43.36 324.74C46.5419 321.977 49.9394 319.472 53.52 317.25C55.2 316.25 56.78 315.32 58.34 314.57C59.11 314.19 59.84 313.78 60.58 313.46L62.69 312.53C64.02 311.91 65.29 311.53 66.38 311.09C66.92 310.89 67.38 310.7 67.9 310.54L69.21 310.15L71.03 309.64C71.2514 309.578 71.48 309.544 71.71 309.54Z" fill="#263238"/>
<path d="M41.91 325.67C38.8754 326.844 35.7772 327.845 32.63 328.67C29.5372 329.667 26.3925 330.494 23.21 331.15C26.2465 329.982 29.3444 328.981 32.49 328.15C35.5828 327.154 38.7275 326.326 41.91 325.67Z" fill="#263238"/>
<path d="M41.53 346.15C41.3725 345.195 41.3055 344.228 41.33 343.26C41.33 341.47 41.27 339 41.33 336.26C41.39 333.52 41.55 331.07 41.7 329.26C41.7298 328.291 41.8504 327.327 42.06 326.38C42.1527 327.345 42.1527 328.316 42.06 329.28C42 331.28 41.93 333.62 41.85 336.28C41.77 338.94 41.72 341.28 41.67 343.28C41.7135 344.239 41.6666 345.2 41.53 346.15Z" fill="#263238"/>
<path d="M59.07 337.21C58.92 337.21 58.46 332.21 58.07 326C57.68 319.79 57.41 314.76 57.56 314.75C57.71 314.74 58.17 319.75 58.56 325.97C58.95 332.19 59.22 337.2 59.07 337.21Z" fill="#263238"/>
<path d="M37.24 314.27C38.2345 314.14 39.2395 314.11 40.24 314.18C42.08 314.18 44.61 314.24 47.4 314.33C50.19 314.42 52.73 314.54 54.56 314.65C55.5662 314.657 56.5699 314.751 57.56 314.93C56.5655 315.06 55.5605 315.09 54.56 315.02C52.73 315.02 50.19 314.96 47.39 314.87C44.59 314.78 42.07 314.66 40.24 314.55C39.2337 314.545 38.2299 314.451 37.24 314.27Z" fill="#263238"/>
<path d="M79.34 375.35C79.2932 375.157 79.2697 374.959 79.27 374.76C79.27 374.31 79.27 373.76 79.2 373.05C79.13 371.57 79.11 369.42 79.2 366.77C79.29 364.12 79.43 360.96 79.75 357.47C80.07 353.98 80.59 350.15 81.31 346.16C82.03 342.17 82.9 338.41 83.8 335C84.7 331.59 85.68 328.59 86.57 326.08C87.46 323.57 88.22 321.56 88.81 320.19C89.08 319.55 89.31 319.03 89.48 318.62C89.5542 318.433 89.6445 318.252 89.75 318.08C89.7202 318.28 89.663 318.475 89.58 318.66L89 320.29C88.48 321.67 87.76 323.7 86.93 326.22C86.1 328.74 85.18 331.75 84.28 335.14C83.38 338.53 82.54 342.28 81.8 346.25C81.06 350.22 80.58 354.04 80.21 357.52C79.84 361 79.64 364.14 79.55 366.78C79.46 369.42 79.4 371.57 79.4 373.05C79.4 373.75 79.4 374.31 79.4 374.76C79.4041 374.958 79.3839 375.157 79.34 375.35Z" fill="#263238"/>
<path d="M81.68 346.32C81.1598 347.027 80.5665 347.677 79.91 348.26C78.76 349.4 77.13 350.94 75.27 352.57C73.41 354.2 71.68 355.57 70.39 356.57C69.7307 357.148 69.0096 357.651 68.24 358.07C68.8148 357.411 69.4547 356.811 70.15 356.28L74.92 352.14L79.65 348C80.2675 347.372 80.9477 346.809 81.68 346.32Z" fill="#263238"/>
<path d="M95.72 357.62C95.0213 356.798 94.3893 355.922 93.83 355L89.45 348.61L85 342.28C84.3327 341.44 83.7341 340.547 83.21 339.61C83.9819 340.362 84.6848 341.182 85.31 342.06C86.54 343.62 88.18 345.82 89.92 348.31C91.66 350.8 93.14 353.11 94.18 354.81C94.7683 355.704 95.2833 356.643 95.72 357.62Z" fill="#263238"/>
<path d="M88.36 322.06C88.44 322.18 83.78 325.32 77.95 329.06C72.12 332.8 67.32 335.75 67.25 335.63C67.18 335.51 71.83 332.36 77.66 328.63C83.49 324.9 88.28 321.94 88.36 322.06Z" fill="#263238"/>
<path d="M101.51 336.25C99.0407 334.213 96.6871 332.04 94.46 329.74C92.1072 327.562 89.874 325.259 87.77 322.84C90.2439 324.876 92.601 327.049 94.83 329.35C97.1781 331.529 99.408 333.833 101.51 336.25Z" fill="#263238"/>
<path d="M104.82 336L108.82 335.67C111.66 335.434 114.416 334.588 116.9 333.19C118.114 332.479 119.374 331.847 120.67 331.3C125.67 329.3 131.14 329.67 136.47 329.4C145.192 328.957 153.737 326.771 161.6 322.97C162.06 322.761 162.442 322.411 162.69 321.97C163.52 320.47 161.99 319.14 160.69 318.33C153.95 314.17 147.09 309.97 139.44 307.9C131.79 305.83 123.11 306.19 116.58 310.68C108.92 315.95 106.13 326.78 104.84 335.99" fill="#9998D3"/>
<path d="M162.78 321.46C162.545 321.38 162.32 321.273 162.11 321.14L160.21 320.14C158.56 319.27 156.21 318 153.21 316.56C149.724 314.848 146.093 313.45 142.36 312.38C137.795 311.071 133.016 310.684 128.3 311.24C123.579 311.768 119.121 313.686 115.49 316.75C112.65 319.388 110.378 322.576 108.81 326.12C107.41 329.12 106.54 331.67 105.91 333.42C105.61 334.26 105.38 334.93 105.2 335.42C105.124 335.657 105.031 335.888 104.92 336.11C104.952 335.862 105.009 335.617 105.09 335.38C105.25 334.87 105.46 334.18 105.71 333.33C106.485 330.815 107.407 328.347 108.47 325.94C110.01 322.317 112.289 319.054 115.16 316.36C118.854 313.209 123.405 311.234 128.23 310.69C133.016 310.126 137.866 310.534 142.49 311.89C146.241 312.991 149.883 314.433 153.37 316.2C156.37 317.69 158.7 319.02 160.32 319.94L162.17 321.02C162.39 321.141 162.595 321.289 162.78 321.46Z" fill="#263238"/>
<path d="M153.17 326.62C153.09 326.75 147.85 323.36 141.48 319.06C135.11 314.76 130 311.18 130.08 311.06C130.16 310.94 135.4 314.32 141.78 318.62C148.16 322.92 153.25 326.5 153.17 326.62Z" fill="#263238"/>
<path d="M147.59 310.78C146.359 311.203 145.071 311.435 143.77 311.47C142.481 311.644 141.173 311.624 139.89 311.41C141.159 311.188 142.442 311.057 143.73 311.02C145.009 310.845 146.299 310.764 147.59 310.78Z" fill="#263238"/>
<path d="M124.67 307.79C124.235 308.768 123.655 309.675 122.95 310.48C122.349 311.406 121.614 312.239 120.77 312.95C121.204 311.974 121.784 311.071 122.49 310.27C123.096 309.344 123.83 308.509 124.67 307.79Z" fill="#263238"/>
<path d="M129.36 329.71C128.474 329.343 127.63 328.884 126.84 328.34C125.33 327.42 123.28 326.08 121.1 324.49C118.92 322.9 116.99 321.41 115.61 320.31C114.828 319.758 114.099 319.135 113.43 318.45C114.279 318.89 115.083 319.413 115.83 320.01L121.41 324.06C123.59 325.64 125.59 327.06 127.04 328.06C127.861 328.54 128.637 329.093 129.36 329.71Z" fill="#263238"/>
<path d="M110.71 353C106.89 352 102.34 355.71 101.55 359.58C100.76 363.45 102.22 367.41 103.92 370.97C107.555 378.961 112.953 386.025 119.71 391.63C126.54 397.08 135.11 400.56 143.85 400.52C142.24 393.02 144.28 385.19 143.38 377.57C142.584 370.86 139.536 364.618 134.733 359.865C129.931 355.111 123.658 352.127 116.94 351.4C114.5 351.14 111.68 350.75 110.71 353Z" fill="#9998D3"/>
<path d="M143.85 400.49C143.659 400.432 143.477 400.348 143.31 400.24C142.805 399.949 142.327 399.614 141.88 399.24C140.286 397.857 139.001 396.153 138.11 394.24C137.5 393.05 136.82 391.77 136.11 390.35C135.4 388.93 134.78 387.35 134.06 385.81C133.317 384.141 132.476 382.519 131.54 380.95C130.505 379.289 129.341 377.71 128.06 376.23C125.45 373.16 122.64 370.5 120.21 367.97C118.005 365.752 115.997 363.346 114.21 360.78C113.017 359.042 112.034 357.169 111.28 355.2C111.04 354.49 110.86 353.94 110.77 353.56C110.702 353.37 110.662 353.171 110.65 352.97C110.7 352.97 110.92 353.75 111.47 355.12C112.269 357.04 113.275 358.868 114.47 360.57C116.275 363.082 118.282 365.443 120.47 367.63C122.91 370.14 125.74 372.78 128.38 375.89C129.674 377.392 130.847 378.994 131.89 380.68C132.839 382.267 133.684 383.914 134.42 385.61L136.42 390.16C137.06 391.58 137.73 392.88 138.31 394.06C139.148 395.969 140.363 397.69 141.88 399.12C143.13 400.08 143.88 400.44 143.85 400.49Z" fill="#263238"/>
<path d="M124.11 394.26C124.128 393.393 124.246 392.531 124.46 391.69C124.75 390.12 125.24 387.96 125.91 385.61C126.58 383.26 127.28 381.16 127.84 379.66C128.083 378.832 128.418 378.033 128.84 377.28C128.686 378.133 128.455 378.969 128.15 379.78C127.68 381.3 127.03 383.41 126.37 385.78C125.71 388.15 125.16 390.25 124.77 391.78C124.623 392.624 124.402 393.454 124.11 394.26Z" fill="#263238"/>
<path d="M143.13 375.86C142.217 375.731 141.317 375.524 140.44 375.24C138.79 374.81 136.52 374.24 133.99 373.65C131.46 373.06 129.16 372.65 127.49 372.32C126.575 372.201 125.672 372.003 124.79 371.73C125.715 371.705 126.64 371.779 127.55 371.95C129.24 372.17 131.55 372.56 134.11 373.13C136.67 373.7 138.92 374.35 140.54 374.88C141.436 375.111 142.305 375.44 143.13 375.86Z" fill="#263238"/>
<path d="M109.94 381.2C109.974 380.189 110.112 379.184 110.35 378.2C110.69 376.38 111.22 373.87 111.93 371.13C112.64 368.39 113.41 365.95 114.01 364.19C114.276 363.225 114.641 362.29 115.1 361.4C114.932 362.385 114.684 363.355 114.36 364.3C113.86 366.08 113.16 368.54 112.45 371.3C111.74 374.06 111.15 376.51 110.72 378.3C110.537 379.286 110.276 380.256 109.94 381.2Z" fill="#263238"/>
<path d="M134.37 359.82C134.37 359.96 129.58 359.58 123.72 358.96C117.86 358.34 113.12 357.71 113.13 357.57C116.692 357.678 120.247 357.965 123.78 358.43C127.331 358.715 130.866 359.179 134.37 359.82Z" fill="#263238"/>
<path d="M130.87 417.62C130.87 417.77 114.12 417.89 93.45 417.89C72.78 417.89 56 417.77 56 417.62C56 417.47 72.75 417.36 93.42 417.36C114.09 417.36 130.87 417.47 130.87 417.62Z" fill="#455A64"/>
<path d="M119.22 439.18C119.22 439.33 107.93 439.45 94.01 439.45C80.09 439.45 68.79 439.33 68.79 439.18C68.79 439.03 80.08 438.92 94.01 438.92C107.94 438.92 119.22 439 119.22 439.18Z" fill="#455A64"/>
<path d="M118.78 442.27C118.78 442.41 107.69 442.53 94.01 442.53C80.33 442.53 69.23 442.41 69.23 442.27C69.23 442.13 80.32 442 94 442C107.68 442 118.78 442.12 118.78 442.27Z" fill="#455A64"/>
<path d="M119.66 436.64C119.66 436.79 107.98 436.91 93.58 436.91C79.18 436.91 67.5 436.79 67.5 436.64C67.5 436.49 79.17 436.38 93.58 436.38C107.99 436.38 119.66 436.49 119.66 436.64Z" fill="#455A64"/>
<path d="M614.04 497H596.812C585.088 497 575.438 486.672 574.792 473.421L572.006 415.986C571.894 413.82 573.41 411.981 575.349 411.981H635.458C637.375 411.981 638.89 413.82 638.801 415.986L636.015 473.421C635.413 486.621 625.718 497 614.04 497Z" fill="#BAD5DB"/>
<path d="M638.199 425.005L637.753 433.796C644.818 435.459 650.19 442.537 650.19 451.027C650.19 460.221 643.927 467.804 635.948 468.56L635.502 477.351C647.983 476.847 657.923 465.26 657.923 451.027C657.901 437.902 649.365 427.02 638.199 425.005Z" fill="#BAD5DB"/>
<path d="M609.85 398.63C609.85 398.63 595.095 383.213 595.608 371.902C596.321 354.596 610.095 348.047 604.79 331.773C602.272 324.015 591.953 299 591.953 299C591.953 299 609.025 318.019 615.043 329.783C620.503 340.414 619.834 357.292 613.884 365.403C601.024 382.986 609.85 398.63 609.85 398.63Z" fill="#FCF892"/>
<path d="M226.5 137C226.5 126.23 235.23 117.5 246 117.5H407C417.77 117.5 426.5 126.23 426.5 137V328C426.5 338.77 417.77 347.5 407 347.5H246C235.23 347.5 226.5 338.77 226.5 328V137Z" fill="white" stroke="black"/>
<rect x="243" y="135" width="165" height="171" fill="#FFE0E0"/>
<ellipse cx="327" cy="287.5" rx="82" ry="16.5" fill="#444444" fill-opacity="0.13"/>
<path d="M350.521 240.241C346.648 278.971 359.382 288.793 363 289.917C366.617 291.04 371.466 291.388 374.239 287.012C377.012 282.635 368.159 280.133 368.159 280.133C365.223 269.909 368.585 254.184 372.179 248.297C377.376 239.776 379.925 225.593 376.052 214.555C372.179 203.517 351.094 220.876 350.521 240.241Z" fill="#37474F"/>
<path d="M367.5 277.229C367.671 278.21 367.89 279.182 368.159 280.141C366.873 279.817 365.529 279.797 364.234 280.083C362.939 280.37 361.728 280.955 360.699 281.791C360.699 281.791 359.258 277.608 367.5 277.229Z" fill="#263238"/>
<path d="M365.494 284.533C365.563 284.518 365.634 284.518 365.703 284.533C366.345 284.553 366.976 284.698 367.562 284.959C368.458 285.459 369.147 286.26 369.506 287.221C369.842 288.11 369.93 289.074 369.762 290.01C369.762 290.141 369.708 290.281 369.677 290.412C369.207 290.532 368.727 290.61 368.244 290.645C368.244 290.529 368.313 290.42 368.344 290.296C368.504 289.523 368.456 288.721 368.205 287.972C367.664 286.647 366.714 285.53 365.494 284.781C365.465 284.764 365.441 284.74 365.424 284.711C365.413 284.694 365.407 284.674 365.407 284.653C365.407 284.633 365.413 284.613 365.424 284.595C365.438 284.566 365.463 284.544 365.494 284.533Z" fill="#263238"/>
<path d="M372.574 288.925C372.62 288.367 372.597 287.804 372.504 287.252C372.27 285.846 371.588 284.552 370.56 283.565C370.467 283.472 370.358 283.371 370.382 283.232C370.482 282.844 372.109 283.96 372.279 284.115C372.94 284.75 373.414 285.553 373.65 286.438C373.755 286.803 373.822 287.176 373.852 287.554C373.483 288.061 373.054 288.521 372.574 288.925Z" fill="#263238"/>
<path d="M283.711 255.733C276.035 253.727 269.706 249.157 264.207 243.58C263.045 242.402 261.883 241.194 260.853 239.924C249.427 226.19 248.947 205.531 260.078 191.565C264.609 185.887 270.489 181.418 276.74 177.723C281.387 174.996 285.942 173.339 289.606 169.357C292.913 165.771 292.751 161.394 291.666 158.257C294.631 159.65 297.27 161.65 299.414 164.126C301.558 166.602 303.159 169.5 304.114 172.634C306.337 180.093 304.393 188.041 299.753 194.145C293.998 201.72 285.694 207.018 280.388 214.803C275.539 221.922 274.269 231.31 278.149 239.157C279.764 242.295 282.091 245.012 284.944 247.09C287.797 249.168 291.096 250.55 294.579 251.124C295.396 251.16 296.186 251.429 296.856 251.899C297.925 252.883 297.507 254.788 296.384 255.702C295.168 256.511 293.719 256.892 292.263 256.787C289.378 256.817 286.502 256.463 283.711 255.733Z" fill="#37474F"/>
<path d="M304.137 172.649C306.361 180.109 304.416 188.056 299.776 194.16C298.955 195.244 298.08 196.275 297.166 197.258C298.233 195.127 298.889 192.815 299.103 190.442C298.971 191.945 291.527 197.491 291.07 196.259C291.007 196.001 291.029 195.729 291.132 195.484C292.046 192.587 293.456 190.062 293.82 187.026C289.722 189.117 286.26 192.394 281.93 193.935C281.651 194.036 281.271 194.098 281.108 193.85C281.032 193.71 281.013 193.547 281.054 193.393C281.237 192.472 281.564 191.586 282.022 190.767C283.511 187.836 285.239 185.033 287.189 182.386C284.359 183.723 281.646 185.296 279.079 187.088C277.933 187.862 276.631 188.776 275.26 188.498C275.326 185.902 276.391 183.432 278.235 181.604C272.233 183.812 266.513 186.722 261.193 190.271C265.672 185.28 270.93 181.047 276.763 177.738C281.411 175.012 285.965 173.354 289.629 169.373C292.937 165.786 292.774 161.41 291.69 158.272C294.654 159.666 297.293 161.665 299.438 164.141C301.582 166.618 303.183 169.516 304.137 172.649Z" fill="#F5F5F5"/>
<path d="M314.052 277.004C320.652 280.102 332.356 279.103 336.95 270.505C341.543 261.907 341.768 241.248 329.723 237.29C317.677 233.332 303.355 264.254 314.052 277.004Z" fill="#455A64"/>
<path d="M310.722 269.568L315.578 251.465C314.765 249.648 313.666 247.972 312.325 246.5C312.596 245.555 312.883 244.618 313.185 243.704C315.643 245.616 317.679 248.016 319.165 250.753C324.587 260.877 321.225 274.177 321.225 274.177C321.225 274.177 325.207 277.414 332.581 269.885C335.772 266.624 337.918 262.139 339.32 258.119C339.157 263.348 338.329 267.918 336.95 270.513C332.356 279.111 320.683 280.133 314.052 277.012C312.356 274.836 311.213 272.282 310.722 269.568Z" fill="#37474F"/>
<path d="M368.182 185.856C363.534 195.926 380.645 209.094 376.269 228.715C373 243.37 356.284 252.278 351.838 257.553C347.391 262.828 344.959 278.22 348.205 288.359C348.205 288.359 357.12 290.582 354.487 295.044C351.853 299.506 346.989 299.297 343.34 298.29C339.692 297.283 325.098 287.143 325.71 248.428C325.71 248.428 317.918 243.362 315.578 251.465C317.497 255.681 318.452 260.272 318.375 264.904C318.15 271.395 314.052 277.004 314.052 277.004C316.768 276.9 319.486 277.105 322.155 277.616C325.602 278.39 326.415 281.489 325.602 283.487C324.788 285.485 320.954 287.546 317.081 286.733C313.208 285.919 294.741 282.31 285.671 271.736C276.6 261.163 272.991 243.463 278.521 233.145C285.772 219.621 292.209 215.089 316.376 203.47C326.795 198.466 331.334 190.124 331.737 181.348L368.182 185.856Z" fill="#455A64"/>
<path d="M376.4 217.057C375.759 216.326 374.99 215.717 374.131 215.26C375.299 218.22 375.37 221.501 374.332 224.509C373.896 225.622 373.378 226.702 372.783 227.739C372.659 226.71 372.398 225.702 372.008 224.741C372.388 226.12 371.667 228.707 371.272 229.784C369.112 235.112 365.797 239.895 361.567 243.789C363.116 240.505 362.69 236.438 360.498 233.944L360.033 237.445C357.601 236.275 356.377 233.913 355.013 231.744C354.192 230.442 352.388 225.632 353.991 224.284C352.897 225.214 352.21 226.534 352.078 227.964C352.031 228.576 351.845 229.428 351.233 229.366C351.013 229.325 350.814 229.21 350.668 229.04C344.37 223.184 341.497 211.736 348.344 200.38C349.893 197.855 368.623 197.282 369.506 197.987C372.775 200.496 373.255 201.488 374.309 203.409C375.711 205.98 376.633 208.467 376.857 213.2C376.855 214.499 376.702 215.794 376.4 217.057Z" fill="#FAFAFA"/>
<path d="M368.182 185.856L331.775 181.348C331.611 184.844 330.736 188.271 329.204 191.418C332.139 194.965 338.274 197.715 341.497 198.714C348.314 200.901 355.537 201.523 362.628 200.535C363.378 200.419 364.121 200.256 364.851 200.047C366.514 199.554 368.109 198.857 369.599 197.971C367.655 193.424 366.54 189.435 368.182 185.856Z" fill="#BAD5DB"/>
<path d="M302.348 238.514C308.383 239.77 313.756 243.175 317.468 248.096C316.602 249.069 315.957 250.218 315.578 251.465C312.526 244.207 302.348 238.514 302.348 238.514Z" fill="#37474F"/>
<path d="M330.939 283.255C326.71 271.642 324.327 259.439 323.874 247.089C324.347 234.819 328.204 233.146 328.204 233.146C328.204 233.146 325.943 237.987 325.71 248.429C325.71 248.429 325.811 261.016 330.939 283.255Z" fill="#37474F"/>
<path d="M347.453 285.463C347.663 286.441 347.921 287.408 348.228 288.36C346.932 288.072 345.587 288.091 344.3 288.415C343.013 288.739 341.82 289.359 340.815 290.226C340.815 290.226 339.227 286.09 347.453 285.463Z" fill="#37474F"/>
<path d="M308.832 280.296C310.85 279.724 312.66 278.581 314.045 277.004C315.649 276.951 317.255 276.989 318.855 277.12C315.323 281.451 308.832 280.296 308.832 280.296Z" fill="#37474F"/>
<path d="M345.672 292.821C345.738 292.806 345.807 292.806 345.873 292.821C346.517 292.816 347.155 292.943 347.748 293.193C348.659 293.66 349.374 294.437 349.762 295.385C350.125 296.264 350.242 297.226 350.102 298.166L350.033 298.577C349.563 298.705 349.084 298.796 348.6 298.848C348.6 298.732 348.669 298.623 348.693 298.499C348.83 297.72 348.757 296.918 348.484 296.175C347.901 294.869 346.915 293.784 345.672 293.077L345.61 293.015C345.598 292.997 345.592 292.975 345.592 292.953C345.592 292.931 345.598 292.91 345.61 292.891C345.621 292.861 345.643 292.836 345.672 292.821Z" fill="#263238"/>
<path d="M352.883 296.997C352.908 296.439 352.866 295.88 352.759 295.331C352.478 293.931 351.756 292.658 350.699 291.699C350.606 291.613 350.497 291.513 350.521 291.373C350.606 290.978 352.264 292.055 352.442 292.202C353.121 292.818 353.619 293.608 353.883 294.487C353.995 294.851 354.073 295.224 354.115 295.603C353.762 296.115 353.348 296.583 352.883 296.997Z" fill="#263238"/>
<path d="M317.809 282.24C317.865 282.194 317.932 282.162 318.003 282.147C318.619 281.97 319.263 281.914 319.901 281.985C320.904 282.185 321.804 282.734 322.441 283.534C322.94 284.161 323.285 284.895 323.448 285.68C323.044 285.915 322.622 286.117 322.186 286.284C322.036 285.701 321.773 285.153 321.411 284.673C320.493 283.57 319.243 282.793 317.848 282.457C317.819 282.451 317.793 282.437 317.77 282.418C317.762 282.4 317.757 282.381 317.757 282.36C317.757 282.34 317.762 282.32 317.77 282.302C317.778 282.279 317.791 282.257 317.809 282.24Z" fill="#263238"/>
<path d="M325.098 284.324C324.969 283.805 324.779 283.304 324.533 282.829C323.874 281.566 322.829 280.545 321.551 279.917C321.434 279.855 321.303 279.785 321.279 279.645C321.279 279.25 323.154 279.816 323.355 279.909C324.181 280.315 324.88 280.939 325.377 281.714C325.557 281.983 325.713 282.268 325.842 282.566C325.8 282.882 325.719 283.191 325.602 283.487C325.478 283.791 325.308 284.073 325.098 284.324Z" fill="#263238"/>
<path d="M352.318 239.273C352.318 239.273 353.418 252.627 349.948 260.629C350.44 259.518 351.075 258.476 351.838 257.53C352.889 256.369 354.037 255.299 355.269 254.331C355.15 249.18 354.152 244.088 352.318 239.273Z" fill="#37474F"/>
<path d="M328.305 162.672C324.967 156.809 325.881 143.106 330.83 140.333C335.478 137.707 346.268 151.487 346.268 151.487C346.268 151.487 337.422 161.232 328.305 162.672Z" fill="#37474F"/>
<path d="M333.952 159.148C340.149 155.53 346.268 151.487 346.268 151.487C346.268 151.487 335.997 138.388 332.163 140.58C329.746 141.611 327.283 149.295 333.952 159.148Z" fill="#FFA8A7"/>
<path d="M342.728 151.704C341.675 151.19 340.793 150.383 340.188 149.38C339.396 148.264 338.983 146.922 339.01 145.554C336.686 147.142 335.734 150.976 335.734 150.976C332.364 150.441 332.581 147.103 332.581 147.103C330.861 148.954 330.923 153.617 333.875 156.042C335.466 156.248 337.083 155.979 338.522 155.267C341.179 153.989 342.55 152.634 342.728 151.704Z" fill="#F28F8F"/>
<path d="M335.664 156.863C333.448 155.314 332.062 152.06 332.999 149.806C332.999 149.806 334.548 151.735 336.307 151.805C336.307 151.805 337.182 145.43 340.714 144.454C340.714 144.454 339.94 148.652 343.038 150.937C344.045 156.863 335.664 156.863 335.664 156.863Z" fill="#455A64"/>
<path d="M354.797 148.637C357.895 143.486 366.803 138.412 372.186 142.177C375.223 144.299 369.313 159.365 369.313 159.365C369.313 159.365 359.181 155.283 354.797 148.637Z" fill="#37474F"/>
<path d="M359.111 152.843C364.084 156.251 369.313 159.365 369.313 159.365C369.313 159.365 375.223 144.299 372.186 142.176C370.118 141.2 363.914 143.331 359.111 152.843Z" fill="#FFA8A7"/>
<path d="M368.701 156.026C369.024 155.385 369.45 154.801 369.963 154.299C370.296 153.346 370.66 152.23 371.009 151.061C369.498 150.313 367.838 149.916 366.152 149.899C366.044 148.241 367.539 146.576 367.539 146.576C365.54 146.003 362.225 147.955 361.528 151.34C362.019 152.629 362.765 153.806 363.72 154.802C364.82 155.383 365.819 155.879 366.64 156.266C367.336 156.341 368.04 156.259 368.701 156.026Z" fill="#F28F8F"/>
<path d="M362.38 152.502C363.046 150.178 365.277 148.009 367.283 148.141C367.283 148.141 366.145 150.015 366.509 151.557C366.509 151.557 371.745 150.418 373.387 153.145C373.387 153.145 369.894 153.726 368.863 157.072C364.464 159.682 362.38 152.502 362.38 152.502Z" fill="#455A64"/>
<path d="M352.713 148.257C358.5 148.91 363.941 151.346 368.282 155.228C372.301 158.808 375.653 163.072 378.182 167.823C379.467 169.885 380.482 172.103 381.203 174.423C381.917 177.197 381.86 180.114 381.04 182.858C380.754 181.709 380.281 180.615 379.638 179.621C379.771 181.279 379.45 182.942 378.709 184.431C378.659 183.711 378.461 183.01 378.128 182.37C377.832 182.911 377.495 183.429 377.121 183.92C376.679 184.57 376.222 185.198 375.742 185.817C374.746 187.083 373.65 188.267 372.465 189.357C370.136 191.587 367.323 193.249 364.247 194.214C363.608 194.395 362.959 194.538 362.303 194.64C356.121 195.5 349.826 194.957 343.882 193.052C341.066 192.181 338.338 191.048 335.734 189.667C334.649 189.086 330.931 186.437 330.784 184.625C330.409 184.788 330.086 185.051 329.849 185.383C329.612 185.716 329.469 186.107 329.436 186.515C328.196 185.495 327.3 184.118 326.869 182.572C326.438 181.026 326.493 179.384 327.027 177.87C325.676 178.691 324.598 179.893 323.929 181.325C322.511 179.597 322.279 177.188 322.441 174.965C322.72 171.185 324.572 168.048 326.57 164.934C332.178 156.197 341.992 148.722 352.713 148.257Z" fill="#455A64"/>
<path d="M378.128 182.386C377.557 183.38 376.921 184.335 376.222 185.244C375.558 186.19 374.83 187.091 374.046 187.94C372.485 189.66 370.698 191.158 368.732 192.394C366.754 193.64 364.547 194.478 362.241 194.857C359.935 195.215 357.601 195.355 355.269 195.275C350.621 195.098 346.029 194.196 341.659 192.603C339.469 191.824 337.345 190.871 335.308 189.752C334.314 189.13 333.378 188.419 332.511 187.63C332.075 187.231 331.671 186.799 331.303 186.336C330.901 185.857 330.634 185.279 330.528 184.663L330.869 184.872C330.537 185.017 330.25 185.249 330.039 185.544C329.827 185.838 329.699 186.184 329.668 186.545V187.01L329.312 186.724C328.033 185.674 327.111 184.254 326.673 182.659C326.234 181.063 326.301 179.371 326.864 177.816L327.159 178.064C325.814 178.847 324.735 180.016 324.06 181.418L323.944 181.665L323.766 181.449C322.859 180.236 322.338 178.778 322.271 177.266C322.166 175.781 322.291 174.289 322.643 172.843C323.355 169.953 324.967 167.42 326.516 164.949C324.967 167.436 323.417 170.023 322.813 172.889C322.504 174.318 322.411 175.786 322.534 177.242C322.612 178.69 323.125 180.081 324.006 181.232H323.712C324.398 179.76 325.506 178.525 326.895 177.684L327.399 177.374L327.19 177.932C326.676 179.399 326.623 180.988 327.039 182.486C327.454 183.984 328.318 185.32 329.513 186.313L329.126 186.483C329.161 186.031 329.318 185.596 329.582 185.226C329.845 184.856 330.204 184.565 330.621 184.384L330.916 184.26L330.962 184.593C331.066 185.113 331.304 185.596 331.651 185.995C332.004 186.437 332.393 186.849 332.813 187.227C333.654 187.991 334.565 188.676 335.532 189.272C337.548 190.36 339.639 191.299 341.791 192.084C346.125 193.702 350.686 194.632 355.308 194.841C357.601 194.928 359.897 194.817 362.171 194.508C363.298 194.324 364.408 194.041 365.486 193.664C366.562 193.26 367.599 192.759 368.585 192.169C370.546 190.969 372.343 189.519 373.929 187.855C374.737 187.034 375.485 186.156 376.168 185.229C376.882 184.324 377.537 183.375 378.128 182.386Z" fill="#263238"/>
<path d="M353.759 176.724C360.258 172.982 356.857 156.832 356.857 156.832C360.25 163.881 361.505 172.262 368.228 175.027C374.069 177.429 377.198 179.388 375.773 185.787C372.736 190.217 368.027 194.408 362.465 195.082C357.655 195.701 351.698 195.407 344.58 193.246C341.535 184.733 345.532 181.48 353.759 176.724Z" fill="#FAFAFA"/>
<path d="M346.299 170.619C346.212 171.166 346.289 171.727 346.521 172.23C346.753 172.733 347.128 173.156 347.601 173.445C348.073 173.734 348.621 173.876 349.174 173.854C349.728 173.831 350.262 173.645 350.709 173.319C351.157 172.992 351.497 172.54 351.687 172.02C351.877 171.5 351.908 170.935 351.777 170.397C351.646 169.859 351.358 169.372 350.949 168.998C350.541 168.624 350.03 168.379 349.483 168.296C348.753 168.186 348.01 168.369 347.414 168.804C346.818 169.239 346.417 169.891 346.299 170.619Z" fill="white"/>
<path d="M345.819 170.395C345.732 170.942 345.809 171.503 346.041 172.006C346.272 172.509 346.648 172.932 347.121 173.221C347.593 173.51 348.141 173.652 348.694 173.63C349.247 173.607 349.782 173.421 350.229 173.094C350.676 172.768 351.017 172.316 351.207 171.796C351.397 171.275 351.428 170.71 351.297 170.172C351.166 169.634 350.877 169.147 350.469 168.773C350.06 168.399 349.55 168.155 349.003 168.071C348.273 167.96 347.528 168.142 346.932 168.577C346.335 169.012 345.935 169.666 345.819 170.395Z" fill="#263238"/>
<path d="M348.576 170.054C348.576 170.22 348.527 170.381 348.436 170.519C348.344 170.656 348.213 170.764 348.06 170.827C347.907 170.89 347.739 170.907 347.577 170.875C347.414 170.842 347.265 170.763 347.148 170.646C347.031 170.529 346.952 170.38 346.919 170.217C346.887 170.055 346.904 169.887 346.967 169.734C347.03 169.581 347.138 169.45 347.275 169.359C347.413 169.267 347.574 169.218 347.74 169.218C347.85 169.218 347.959 169.239 348.06 169.281C348.162 169.323 348.254 169.385 348.331 169.463C348.409 169.54 348.471 169.632 348.513 169.734C348.555 169.835 348.576 169.944 348.576 170.054Z" fill="#FAFAFA"/>
<path d="M365.734 168.931C365.657 169.435 365.732 169.951 365.948 170.413C366.164 170.875 366.512 171.262 366.948 171.526C367.385 171.79 367.889 171.919 368.399 171.896C368.908 171.873 369.4 171.7 369.811 171.399C370.222 171.097 370.534 170.68 370.708 170.201C370.882 169.721 370.911 169.201 370.789 168.706C370.668 168.211 370.403 167.762 370.027 167.418C369.651 167.073 369.181 166.848 368.677 166.77C368.342 166.717 368 166.731 367.67 166.812C367.34 166.892 367.029 167.037 366.756 167.238C366.482 167.438 366.251 167.692 366.075 167.982C365.9 168.273 365.784 168.595 365.734 168.931Z" fill="white"/>
<path d="M365.292 168.722C365.215 169.226 365.29 169.742 365.506 170.205C365.722 170.667 366.071 171.054 366.508 171.318C366.944 171.583 367.45 171.711 367.959 171.688C368.469 171.665 368.961 171.491 369.372 171.188C369.783 170.886 370.095 170.468 370.268 169.988C370.442 169.509 370.469 168.988 370.347 168.492C370.224 167.997 369.958 167.549 369.58 167.205C369.203 166.861 368.733 166.637 368.228 166.561C367.552 166.459 366.864 166.629 366.313 167.034C365.763 167.439 365.396 168.046 365.292 168.722Z" fill="#263238"/>
<path d="M367.841 168.404C367.841 168.557 367.795 168.707 367.71 168.835C367.625 168.962 367.504 169.061 367.363 169.12C367.221 169.179 367.065 169.194 366.915 169.164C366.765 169.134 366.627 169.06 366.519 168.952C366.41 168.844 366.336 168.706 366.307 168.555C366.277 168.405 366.292 168.249 366.351 168.108C366.409 167.966 366.509 167.845 366.636 167.76C366.763 167.675 366.913 167.63 367.066 167.63C367.272 167.63 367.469 167.711 367.614 167.857C367.759 168.002 367.841 168.199 367.841 168.404Z" fill="#FAFAFA"/>
<path d="M343.572 180.868H343.611C343.709 180.798 343.776 180.693 343.799 180.575C343.822 180.457 343.799 180.334 343.735 180.233C342.372 177.948 339.823 175.337 335.431 175.864C335.374 175.872 335.319 175.892 335.269 175.922C335.219 175.952 335.175 175.992 335.141 176.038C335.106 176.085 335.081 176.138 335.067 176.195C335.053 176.251 335.051 176.31 335.06 176.367C335.071 176.486 335.129 176.595 335.22 176.672C335.311 176.749 335.429 176.787 335.548 176.778C339.483 176.305 341.744 178.66 343.007 180.721C343.066 180.811 343.157 180.877 343.261 180.904C343.366 180.931 343.477 180.918 343.572 180.868Z" fill="#263238"/>
<path d="M342.341 181.96C342.383 181.934 342.422 181.903 342.457 181.867C342.537 181.778 342.581 181.662 342.581 181.542C342.581 181.422 342.537 181.306 342.457 181.216C341.638 180.502 340.677 179.969 339.637 179.654C338.596 179.338 337.501 179.248 336.423 179.388C336.314 179.423 336.222 179.496 336.164 179.595C336.105 179.693 336.085 179.809 336.107 179.921C336.129 180.033 336.192 180.133 336.283 180.202C336.374 180.271 336.487 180.304 336.601 180.295C337.537 180.172 338.489 180.246 339.395 180.513C340.301 180.78 341.141 181.233 341.861 181.844C341.918 181.912 341.996 181.96 342.082 181.981C342.168 182.001 342.259 181.994 342.341 181.96Z" fill="#263238"/>
<path d="M342.511 183.858C342.592 183.809 342.654 183.736 342.689 183.649C342.738 183.538 342.743 183.413 342.703 183.3C342.662 183.186 342.58 183.092 342.473 183.037C341.163 182.483 339.739 182.253 338.321 182.368C336.904 182.483 335.535 182.938 334.331 183.695C334.23 183.762 334.158 183.865 334.131 183.983C334.103 184.102 334.123 184.226 334.184 184.33C334.24 184.431 334.333 184.505 334.443 184.537C334.554 184.569 334.672 184.556 334.773 184.501C335.856 183.813 337.09 183.397 338.368 183.288C339.646 183.179 340.932 183.38 342.116 183.873C342.178 183.905 342.247 183.92 342.316 183.917C342.385 183.915 342.452 183.894 342.511 183.858Z" fill="#263238"/>
<path d="M376.09 176.065H376.052C375.942 176.016 375.855 175.927 375.808 175.817C375.761 175.706 375.756 175.582 375.796 175.469C376.687 172.959 378.67 169.899 383.077 169.543C383.136 169.539 383.195 169.547 383.251 169.566C383.307 169.586 383.358 169.616 383.402 169.656C383.445 169.696 383.48 169.744 383.504 169.798C383.528 169.852 383.541 169.91 383.542 169.969C383.555 170.087 383.521 170.206 383.447 170.299C383.373 170.391 383.265 170.451 383.147 170.465C379.197 170.782 377.407 173.563 376.609 175.802C376.572 175.903 376.498 175.987 376.402 176.036C376.306 176.085 376.194 176.095 376.09 176.065Z" fill="#263238"/>
<path d="M377.516 176.894C377.469 176.881 377.424 176.86 377.384 176.832C377.287 176.759 377.221 176.652 377.2 176.533C377.178 176.414 377.203 176.291 377.268 176.189C377.929 175.325 378.766 174.612 379.723 174.097C380.681 173.581 381.737 173.275 382.822 173.199C382.94 173.203 383.051 173.253 383.132 173.339C383.213 173.424 383.258 173.538 383.256 173.656C383.259 173.715 383.25 173.773 383.23 173.829C383.21 173.884 383.18 173.935 383.14 173.978C383.1 174.021 383.053 174.056 382.999 174.081C382.946 174.105 382.888 174.119 382.83 174.121C381.886 174.191 380.967 174.458 380.134 174.905C379.3 175.352 378.569 175.969 377.988 176.716C377.94 176.793 377.867 176.852 377.782 176.884C377.697 176.916 377.603 176.92 377.516 176.894Z" fill="#263238"/>
<path d="M377.717 178.784C377.628 178.753 377.551 178.693 377.5 178.614C377.433 178.513 377.406 178.392 377.425 178.272C377.444 178.153 377.507 178.046 377.601 177.971C378.776 177.171 380.127 176.666 381.539 176.5C382.951 176.335 384.382 176.512 385.711 177.018C385.821 177.064 385.91 177.151 385.959 177.26C386.008 177.37 386.013 177.493 385.974 177.607C385.941 177.716 385.864 177.808 385.763 177.862C385.661 177.916 385.542 177.927 385.432 177.893C384.235 177.433 382.944 177.268 381.67 177.414C380.395 177.56 379.175 178.011 378.112 178.73C378.056 178.771 377.991 178.798 377.922 178.807C377.853 178.816 377.782 178.809 377.717 178.784Z" fill="#263238"/>
<path d="M368.546 183.594C368.491 183.466 368.388 183.365 368.259 183.313C368.13 183.26 367.985 183.261 367.856 183.316C367.364 183.565 366.816 183.687 366.263 183.669C365.711 183.652 365.172 183.496 364.696 183.215C363.658 182.504 362.937 181.418 362.682 180.186C362.682 180.039 362.643 179.9 362.62 179.752C362.6 179.617 362.528 179.494 362.419 179.411C362.31 179.328 362.173 179.29 362.037 179.306C361.901 179.322 361.776 179.391 361.69 179.497C361.604 179.604 361.562 179.74 361.574 179.876C361.585 180.04 361.605 180.203 361.636 180.364C361.785 181.266 361.649 182.192 361.248 183.014C360.847 183.836 360.2 184.512 359.398 184.95C357.748 185.841 355.664 185.725 354.549 184.694C354.499 184.641 354.44 184.598 354.373 184.569C354.306 184.54 354.234 184.525 354.161 184.525C354.089 184.525 354.017 184.54 353.95 184.569C353.883 184.598 353.823 184.641 353.774 184.694C353.722 184.744 353.68 184.804 353.651 184.871C353.623 184.937 353.608 185.009 353.608 185.082C353.608 185.154 353.623 185.226 353.651 185.292C353.68 185.359 353.722 185.419 353.774 185.469C354.669 186.23 355.815 186.63 356.989 186.592C357.983 186.592 358.962 186.348 359.839 185.879C360.494 185.543 361.07 185.071 361.527 184.494C361.984 183.916 362.312 183.248 362.488 182.533C362.903 183.171 363.45 183.713 364.092 184.121C364.71 184.491 365.411 184.7 366.131 184.73C366.85 184.759 367.566 184.609 368.213 184.292C368.282 184.27 368.346 184.234 368.401 184.187C368.456 184.139 368.5 184.081 368.532 184.016C368.563 183.95 368.58 183.879 368.583 183.807C368.585 183.734 368.573 183.662 368.546 183.594Z" fill="#263238"/>
<path d="M362.202 181.108C362.976 181.054 364.766 179.28 364.835 178.056C364.905 176.832 358.84 177.653 358.832 178.614C358.825 179.985 361.45 181.162 362.202 181.108Z" fill="#F28F8F"/>
<line x1="227" y1="305.5" x2="427" y2="305.5" stroke="black"/>
<path d="M329.266 289.754C328.886 288.32 328.166 286.998 327.163 285.896L319.07 275.867C315.666 272.126 310.838 269.993 305.788 270H280.842C275.786 269.993 270.964 272.126 267.56 275.867L259.467 285.896C258.464 286.991 257.744 288.314 257.364 289.754C256.693 292.372 256.534 296.3 260.67 298.267C265.969 300.788 275.039 296.237 279.549 293.224C281.112 292.178 282.945 291.617 284.827 291.624H301.796C303.685 291.624 305.518 291.673 307.081 292.726C311.592 295.759 320.647 300.809 325.96 298.288C330.097 296.293 329.937 292.372 329.266 289.754Z" fill="#FFFB9F"/>
<path d="M319.07 275.867C315.666 272.126 310.838 269.993 305.788 270H280.842C275.786 269.993 270.964 272.126 267.56 275.867M319.07 275.867L318.681 276.181L318.69 276.192M319.07 275.867L327.163 285.896L319.07 275.867ZM318.69 276.192C315.382 272.563 310.692 270.493 305.788 270.5L305.788 270.5L280.842 270.5H280.842C275.931 270.493 271.249 272.563 267.94 276.192M318.69 276.192L326.774 286.21L326.784 286.222L326.794 286.233C327.742 287.274 328.423 288.525 328.783 289.881C329.108 291.15 329.296 292.691 328.931 294.132C328.573 295.549 327.674 296.905 325.743 297.837C323.286 299.002 319.87 298.442 316.397 297.122C312.955 295.815 309.599 293.817 307.36 292.311C305.654 291.161 303.668 291.124 301.796 291.124H284.828C282.846 291.117 280.916 291.708 279.271 292.809C277.041 294.298 273.685 296.166 270.243 297.348C266.773 298.539 263.347 298.986 260.885 297.815L260.885 297.815C258.955 296.897 258.057 295.547 257.699 294.132C257.335 292.692 257.522 291.15 257.848 289.88C258.208 288.518 258.888 287.268 259.835 286.234L259.846 286.222L259.856 286.21L267.94 276.192M318.69 276.192L259.467 285.896L267.56 275.867M267.94 276.192L267.95 276.181L267.56 275.867M267.94 276.192C267.937 276.196 267.934 276.2 267.93 276.203L267.56 275.867" fill="#9998D3" stroke="#BAD5DB"/>
<path d="M304.024 273.685C305.204 273.685 306.161 273.322 306.161 272.875C306.161 272.427 305.204 272.064 304.024 272.064C302.843 272.064 301.886 272.427 301.886 272.875C301.886 273.322 302.843 273.685 304.024 273.685Z" fill="#BAD5DB"/>
<path d="M304.031 273.685C302.868 273.685 301.893 273.318 301.893 272.875V273.547C301.893 273.99 302.848 274.357 304.031 274.357C305.213 274.357 306.168 273.99 306.168 273.547V272.875C306.161 273.318 305.193 273.685 304.031 273.685Z" fill="#BAD5DB"/>
<path d="M312.664 273.685C313.844 273.685 314.801 273.322 314.801 272.875C314.801 272.427 313.844 272.064 312.664 272.064C311.483 272.064 310.526 272.427 310.526 272.875C310.526 273.322 311.483 273.685 312.664 273.685Z" fill="#BAD5DB"/>
<path d="M312.664 273.685C311.502 273.685 310.526 273.318 310.526 272.875V273.547C310.526 273.99 311.481 274.357 312.664 274.357C313.84 274.357 314.801 273.99 314.801 273.547V272.875C314.801 273.318 313.847 273.685 312.664 273.685Z" fill="#BAD5DB"/>
<path d="M308.347 271.87C309.528 271.87 310.485 271.507 310.485 271.06C310.485 270.612 309.528 270.25 308.347 270.25C307.167 270.25 306.21 270.612 306.21 271.06C306.21 271.507 307.167 271.87 308.347 271.87Z" fill="#BAD5DB"/>
<path d="M308.347 271.877C307.185 271.877 306.21 271.517 306.21 271.067V271.739C306.21 272.182 307.164 272.549 308.347 272.549C309.53 272.549 310.485 272.182 310.485 271.739V271.074C310.485 271.51 309.523 271.877 308.347 271.877Z" fill="#BAD5DB"/>
<path d="M308.347 275.687C309.528 275.687 310.485 275.324 310.485 274.877C310.485 274.429 309.528 274.066 308.347 274.066C307.167 274.066 306.21 274.429 306.21 274.877C306.21 275.324 307.167 275.687 308.347 275.687Z" fill="#BAD5DB"/>
<path d="M308.347 275.687C307.185 275.687 306.21 275.32 306.21 274.876V275.548C306.21 275.999 307.164 276.359 308.347 276.359C309.53 276.359 310.485 275.999 310.485 275.548V274.876C310.485 275.341 309.523 275.687 308.347 275.687Z" fill="#BAD5DB"/>
<path d="M279.826 273.72C282.041 273.72 283.838 273.038 283.838 272.196C283.838 271.355 282.041 270.672 279.826 270.672C277.61 270.672 275.813 271.355 275.813 272.196C275.813 273.038 277.61 273.72 279.826 273.72Z" fill="#80AFB9"/>
<path d="M279.826 273.72C277.612 273.72 275.813 273.041 275.813 272.196V273.456C275.813 274.301 277.612 274.98 279.826 274.98C282.039 274.98 283.838 274.301 283.838 273.456V272.196C283.838 273.041 282.039 273.72 279.826 273.72Z" fill="#BAD5DB"/>
<path d="M300.738 279.531C302.954 279.531 304.75 278.849 304.75 278.007C304.75 277.166 302.954 276.483 300.738 276.483C298.522 276.483 296.725 277.166 296.725 278.007C296.725 278.849 298.522 279.531 300.738 279.531Z" fill="#80AFB9"/>
<path d="M300.738 279.524C298.524 279.524 296.725 278.845 296.725 278V279.268C296.725 280.106 298.517 280.792 300.738 280.792C302.951 280.792 304.75 280.106 304.75 279.268V278.007C304.75 278.831 302.951 279.524 300.738 279.524Z" fill="#BAD5DB"/>
<path d="M289.974 273.255C290.554 273.255 291.025 273.079 291.025 272.861C291.025 272.643 290.554 272.466 289.974 272.466C289.393 272.466 288.922 272.643 288.922 272.861C288.922 273.079 289.393 273.255 289.974 273.255Z" fill="#BAD5DB"/>
<path d="M289.974 273.263C289.4 273.263 288.929 273.089 288.929 272.875V273.207C288.929 273.429 289.4 273.595 289.974 273.595C290.548 273.595 291.025 273.422 291.025 273.207V272.875C291.018 273.083 290.555 273.263 289.974 273.263Z" fill="#BAD5DB"/>
<path d="M296.649 273.255C297.23 273.255 297.701 273.079 297.701 272.861C297.701 272.643 297.23 272.466 296.649 272.466C296.069 272.466 295.598 272.643 295.598 272.861C295.598 273.079 296.069 273.255 296.649 273.255Z" fill="#BAD5DB"/>
<path d="M296.67 273.263C296.096 273.263 295.626 273.089 295.626 272.875V273.207C295.626 273.429 296.096 273.595 296.67 273.595C297.244 273.595 297.722 273.422 297.722 273.207V272.875C297.701 273.083 297.23 273.263 296.67 273.263Z" fill="#BAD5DB"/>
<path d="M290.513 278.388H288.362C288.078 278.388 287.85 278.298 287.85 278.18V277.308C287.85 277.19 287.622 277.1 287.338 277.1H285.221C284.938 277.1 284.709 277.19 284.709 277.308V278.18C284.709 278.298 284.481 278.388 284.197 278.388H282.046C281.762 278.388 281.534 278.478 281.534 278.596V279.711C281.534 279.829 281.762 279.919 282.046 279.919H284.197C284.481 279.919 284.709 280.009 284.709 280.127V281.006C284.709 281.117 284.938 281.214 285.221 281.214H287.338C287.622 281.214 287.85 281.117 287.85 281.006V280.127C287.85 280.016 288.078 279.919 288.362 279.919H290.513C290.797 279.919 291.025 279.829 291.025 279.711V278.596C291.018 278.485 290.79 278.388 290.513 278.388Z" fill="#BAD5DB"/>
<path d="M290.513 277.356H288.362C288.078 277.356 287.85 277.266 287.85 277.148V276.269C287.85 276.151 287.622 276.061 287.338 276.061H285.221C284.938 276.061 284.709 276.151 284.709 276.269V277.148C284.709 277.259 284.481 277.356 284.197 277.356H282.046C281.762 277.356 281.534 277.446 281.534 277.564V278.679C281.534 278.79 281.762 278.887 282.046 278.887H284.197C284.481 278.887 284.709 278.977 284.709 279.095V279.968C284.709 280.085 284.938 280.175 285.221 280.175H287.338C287.622 280.175 287.85 280.085 287.85 279.968V279.095C287.85 278.977 288.078 278.887 288.362 278.887H290.513C290.797 278.887 291.025 278.797 291.025 278.679V277.564C291.018 277.453 290.79 277.356 290.513 277.356Z" fill="#BAD5DB"/>
<circle cx="268" cy="319" r="4" fill="black"/>
<path d="M254.319 323.31C253.551 323.996 252.759 324.784 252.155 325.626C251.694 324.931 251.125 324.297 250.557 323.734C249.998 323.182 249.418 322.678 248.927 322.252C248.751 322.1 248.587 321.957 248.439 321.826L248.423 321.811C246.816 320.378 245.24 318.971 244.556 317.098L244.556 317.098C244.225 316.197 244.212 315.133 244.518 314.22C244.823 313.312 245.429 312.594 246.312 312.291L246.312 312.291C247.328 311.943 248.548 312.21 249.494 312.846C250.44 313.484 251.139 314.433 251.726 315.473L252.375 316.623L252.651 315.331C252.796 314.649 253.299 314.063 253.996 313.697C254.693 313.331 255.533 313.214 256.277 313.422L256.278 313.422C257.797 313.844 258.851 315.388 258.883 316.95L258.883 316.951C258.918 318.522 258.076 320.076 256.851 321.178C256.607 321.395 256.294 321.651 255.93 321.949C255.869 321.998 255.808 322.049 255.745 322.1C255.306 322.46 254.813 322.868 254.319 323.31Z" fill="#FCF892" stroke="black"/>
<circle cx="279" cy="319" r="4" fill="black"/>
</svg>
