<svg width="200" height="264" viewBox="0 0 200 264" fill="none" xmlns="http://www.w3.org/2000/svg">
<ellipse cx="100" cy="238.5" rx="100" ry="22.5" fill="#EAEAEA" fill-opacity="0.54"/>
<path d="M159.399 135.043C158.734 136.334 158.329 137.744 158.209 139.192C158.089 140.64 158.255 142.098 158.699 143.481C159.142 144.865 159.854 146.148 160.794 147.256C161.733 148.364 162.882 149.277 164.174 149.941C164.92 150.337 165.71 150.642 166.528 150.85C165.32 152.088 164.419 153.592 163.897 155.24C163.375 156.889 163.245 158.637 163.519 160.344C163.793 162.052 164.463 163.672 165.475 165.074C166.487 166.477 167.813 167.623 169.347 168.422C169.624 168.567 169.91 168.697 170.202 168.811C170.047 171.348 170.769 173.86 172.247 175.927C173.726 177.993 175.871 179.488 178.321 180.159C180.772 180.831 183.379 180.638 185.704 179.613C188.03 178.589 189.932 176.795 191.09 174.534C192.113 172.546 192.502 170.293 192.206 168.078C193.974 167.445 195.551 166.372 196.789 164.96C198.026 163.548 198.883 161.844 199.279 160.008C199.674 158.173 199.595 156.266 199.048 154.47C198.502 152.674 197.506 151.046 196.155 149.742C197.231 148.847 197.962 147.604 198.221 146.229C198.48 144.853 198.252 143.43 197.575 142.205C196.899 140.979 195.816 140.028 194.514 139.514C193.212 139 191.772 138.956 190.441 139.39C190.186 137.376 189.254 135.509 187.797 134.095C187.146 133.442 186.395 132.896 185.574 132.475C184.287 131.805 182.857 131.455 181.406 131.455C179.955 131.455 178.526 131.805 177.239 132.475C176.388 131.564 175.385 130.806 174.274 130.237C171.761 128.944 168.847 128.665 166.134 129.457C163.42 130.249 161.114 132.051 159.69 134.492C159.577 134.667 159.48 134.851 159.399 135.043Z" fill="#9998D3"/>
<path opacity="0.8" d="M159.399 135.043C158.734 136.334 158.329 137.744 158.209 139.192C158.089 140.64 158.255 142.098 158.699 143.481C159.142 144.865 159.854 146.148 160.794 147.256C161.733 148.364 162.882 149.277 164.174 149.941C164.92 150.337 165.71 150.642 166.528 150.85C165.32 152.088 164.419 153.592 163.897 155.24C163.375 156.889 163.245 158.637 163.519 160.344C163.793 162.052 164.463 163.672 165.475 165.074C166.487 166.477 167.813 167.623 169.347 168.422C169.624 168.567 169.91 168.697 170.202 168.811C170.047 171.348 170.769 173.86 172.247 175.927C173.726 177.993 175.871 179.488 178.321 180.159C180.772 180.831 183.379 180.638 185.704 179.613C188.03 178.589 189.932 176.795 191.09 174.534C192.113 172.546 192.502 170.293 192.206 168.078C193.974 167.445 195.551 166.372 196.789 164.96C198.026 163.548 198.883 161.844 199.279 160.008C199.674 158.173 199.595 156.266 199.048 154.47C198.502 152.674 197.506 151.046 196.155 149.742C197.231 148.847 197.962 147.604 198.221 146.229C198.48 144.853 198.252 143.43 197.575 142.205C196.899 140.979 195.816 140.028 194.514 139.514C193.212 139 191.772 138.956 190.441 139.39C190.186 137.376 189.254 135.509 187.797 134.095C187.146 133.442 186.395 132.896 185.574 132.475C184.287 131.805 182.857 131.455 181.406 131.455C179.955 131.455 178.526 131.805 177.239 132.475C176.388 131.564 175.385 130.806 174.274 130.237C171.761 128.944 168.847 128.665 166.134 129.457C163.42 130.249 161.114 132.051 159.69 134.492C159.577 134.667 159.48 134.851 159.399 135.043Z" fill="white"/>
<path opacity="0.1" d="M159.399 135.043C158.734 136.334 158.329 137.744 158.209 139.192C158.089 140.64 158.255 142.098 158.699 143.481C159.142 144.865 159.854 146.148 160.794 147.256C161.733 148.364 162.882 149.277 164.174 149.941C164.92 150.337 165.71 150.642 166.528 150.85C165.32 152.088 164.419 153.592 163.897 155.24C163.375 156.889 163.245 158.637 163.519 160.344C163.793 162.052 164.463 163.672 165.475 165.074C166.487 166.477 167.813 167.623 169.347 168.422C169.624 168.567 169.91 168.697 170.202 168.811C170.047 171.348 170.769 173.86 172.247 175.927C173.726 177.993 175.871 179.488 178.321 180.159C180.772 180.831 183.379 180.638 185.704 179.613C188.03 178.589 189.932 176.795 191.09 174.534C192.113 172.546 192.502 170.293 192.206 168.078C194.585 167.229 196.601 165.591 197.919 163.436C199.237 161.282 199.777 158.74 199.448 156.236C199.395 159.46 194.918 165.985 188.47 163.922C188.56 165.407 188.177 166.883 187.375 168.136C186.573 169.39 185.394 170.356 184.008 170.897C179.034 173.044 178.385 165.855 176.88 160.583C174.542 152.385 167.78 139.26 159.697 134.531C159.584 134.693 159.484 134.864 159.399 135.043Z" fill="#1189A1"/>
<path opacity="0.1" d="M164.915 129.916C172.166 128.434 175.191 136.494 175.191 136.494C175.107 134.202 177.246 132.498 177.246 132.498C176.395 131.586 175.392 130.829 174.282 130.26C172.843 129.516 171.256 129.099 169.637 129.04C168.018 128.98 166.406 129.28 164.915 129.916Z" fill="#1189A1"/>
<path opacity="0.1" d="M185.857 140.352C185.857 140.352 188.386 142.316 190.479 139.374C190.224 137.361 189.292 135.494 187.835 134.08C188.326 135.187 188.395 136.435 188.031 137.59C187.667 138.745 186.894 139.727 185.857 140.352Z" fill="#1189A1"/>
<path opacity="0.1" d="M193.359 149.261C193.359 149.261 193.573 150.2 196.155 149.704C197.113 148.889 197.79 147.795 198.092 146.575C198.393 145.355 198.304 144.071 197.836 142.904C197.385 144.738 195.712 148.504 193.359 149.261Z" fill="#1189A1"/>
<path d="M102.856 119.938C115.385 116.783 124.752 125.149 124.752 125.149C124.752 125.149 136.395 122.62 151.4 130.206C162.157 135.654 172.517 143.958 176.696 167.039C179.63 183.205 177.262 202.259 165.007 215.56C152.753 228.862 151.064 244.592 142.087 247.794C134.31 250.598 132.201 246.319 132.201 246.319C131.074 246.895 129.839 247.227 128.575 247.294C127.312 247.361 126.048 247.162 124.867 246.709C124.314 246.467 123.818 246.111 123.411 245.665C123.004 245.218 122.696 244.692 122.506 244.119C121.326 244.418 120.103 244.508 118.892 244.386C116.333 244.126 113.903 242.896 113.811 240.123C111.046 243.233 103.245 241.147 99.8914 240.505C92.6487 239.13 102.856 119.938 102.856 119.938Z" fill="#EFEFEF"/>
<path d="M131.979 239.038C132.295 237.87 133.016 236.852 134.012 236.166C134.012 236.166 132.201 235.906 130.329 239.443C129.252 241.498 129.382 244.791 129.68 247.16C130.561 247.001 131.415 246.718 132.216 246.319C131.308 243.99 131.224 241.421 131.979 239.038Z" fill="#E0E0E0"/>
<path d="M127.029 234.347C122.682 235.608 119.389 239.359 118.976 243.087C118.939 243.517 118.939 243.949 118.976 244.379C120.187 244.507 121.41 244.419 122.59 244.119C122.04 240.941 123.766 235.654 127.029 234.347Z" fill="#E0E0E0"/>
<path d="M137.213 209.089C126.41 204.07 125.753 189.867 127.487 190.165C128.473 190.341 131.712 193.985 131.124 189.287C130.535 184.588 130.948 164.51 139.933 159.338C133.714 160.82 128.167 172.585 127.938 182.647C127.877 185.566 127.533 187.674 125.142 180.852C124.294 178.43 120.283 183.725 121.008 192.64C121.581 199.639 124.37 206.828 132.889 212.016C131.644 214.781 129.991 217.344 127.984 219.617C123.476 224.201 117.578 228.296 114.996 232.407C114.248 233.529 113.753 234.8 113.546 236.133C113.339 237.465 113.424 238.827 113.796 240.123C113.59 235.432 114.942 233.614 121.054 229.817C125.025 227.577 128.683 224.823 131.934 221.627C134.06 219.418 135.921 216.97 137.48 214.33C148.742 218.792 162.555 212.566 164.22 208.44C157.627 213.009 147.657 213.926 137.213 209.089Z" fill="#B6B6B6"/>
<path d="M40.0854 151.843C34.1262 160.193 33.6526 182.609 38.3741 196.919C43.0956 211.229 48.9326 222.131 47.6643 227.303C46.3961 232.475 40.6279 232.651 37.7323 238.48C34.8368 244.31 39.0693 248.527 40.6279 249.054C40.9259 252.676 48.4894 255.327 52.6074 252.828C56.4274 256.083 65.9927 256.259 71.249 250.643C74.305 258.872 77.5902 261.4 82.1971 262.783C86.8041 264.166 94.2301 263.746 95.5366 260.163C100.885 262.546 106.867 258.23 106.454 254.051C107.887 253.601 109.091 252.615 109.816 251.3C111.267 248.787 110.74 244.317 106.676 241.254C100.029 236.257 100.281 230.352 104.567 220.733C107.081 215.079 122.017 198.577 108.624 158.78C97.6223 126.066 40.0854 151.843 40.0854 151.843Z" fill="#EFEFEF"/>
<path d="M106.683 241.277C105.07 240.339 103.666 239.08 102.558 237.579C101.454 235.976 100.805 234.104 100.678 232.162C100.584 230.247 100.775 228.329 101.244 226.47C101.687 224.649 102.261 222.861 102.963 221.122C103.138 220.687 103.268 220.267 103.497 219.808C103.727 219.35 103.918 218.892 104.139 218.502L105.438 216.088C105.874 215.324 106.248 214.506 106.668 213.719L107.799 211.32C109.216 208.102 110.314 204.752 111.076 201.32C112.516 194.365 112.907 187.235 112.238 180.164C111.495 172.964 110.29 165.818 108.632 158.772C111.608 165.514 113.711 172.607 114.889 179.882C116.12 187.254 115.962 194.792 114.423 202.106C113.597 205.773 112.362 209.336 110.74 212.726C110.312 213.559 109.892 214.399 109.449 215.217C109.006 216.034 108.532 216.844 108.051 217.623L106.638 219.915C106.378 220.305 106.21 220.679 105.996 221.015C105.782 221.395 105.589 221.785 105.415 222.184C105.018 222.987 104.651 223.804 104.323 224.622C103.994 225.439 103.673 226.256 103.398 227.089C102.808 228.711 102.456 230.409 102.351 232.132C102.252 233.847 102.602 235.559 103.368 237.098C104.219 238.674 105.342 240.089 106.683 241.277Z" fill="#E0E0E0"/>
<path d="M83.4807 221.313C91.4874 212.971 92.9848 210.128 94.4517 200.983C91.1436 214.697 74.1293 226.157 66.1837 222.077C65.0035 221.392 64.0236 220.409 63.3413 219.226C62.659 218.044 62.2983 216.704 62.295 215.339C61.8289 215.461 60.5607 217.631 61.2177 219.457C54.8918 216.905 49.689 208.547 46.9233 201.717C48.8333 211.725 52.2025 216.027 61.3934 224.82C66.2754 229.488 69.1557 242.186 68.5827 252.806C69.5691 252.208 70.471 251.481 71.2643 250.643C71.0389 246.265 71.1974 241.876 71.738 237.526C72.5326 231.887 74.9468 230.206 83.4807 221.313Z" fill="#B6B6B6"/>
<path d="M38.1144 246.778C38.7169 247.768 39.5923 248.564 40.6356 249.07C39.8716 243.5 43.4929 238.267 49.1847 235.997C44.9216 235.875 39.9327 238.649 38.1144 246.778ZM58.1617 239.703C56.2226 239.795 54.3702 240.534 52.9007 241.803C51.4312 243.071 50.4295 244.796 50.0557 246.701C49.6814 249.024 49.6814 251.392 50.0557 253.715C50.9671 253.595 51.8451 253.293 52.638 252.828C51.1329 250.04 51.6983 241.17 58.1617 239.703Z" fill="#E0E0E0"/>
<path d="M99.2114 245.25C103.604 247.221 106.179 250.689 106.462 254.074C107.252 253.809 107.978 253.382 108.593 252.821C108.108 250.688 106.918 248.781 105.216 247.408C103.514 246.034 101.398 245.274 99.2114 245.25Z" fill="#E0E0E0"/>
<path d="M99.1962 260.866C99.5476 254.815 95.6512 249.406 90.2956 248.573C93.8329 250.055 96.9347 254.54 95.5443 260.201C96.6901 260.714 97.9431 260.942 99.1962 260.866Z" fill="#E0E0E0"/>
<path d="M129.458 151.614C128.962 146.464 125.111 142.965 123.912 141.857C120.619 138.748 123.728 119.915 110.03 117.333L33.3699 144.99C30.1635 147.049 27.7134 150.095 26.3891 153.668C25.0648 157.242 24.938 161.149 26.0279 164.8C26.9218 168.017 30.8258 164.571 32.4302 165.343C31.139 169.43 30.5813 178.186 35.5473 183.511C42.8129 191.281 44.0353 181.929 46.7628 180.386C46.7628 180.386 41.369 195.505 64.3348 205.269C67.9104 194.436 84.7718 199.387 86.6283 181.318C88.5765 182.67 88.9203 193.336 95.5977 190.142C106.485 184.932 104.063 172.883 104.063 172.883C107.119 172.051 107.211 180.279 114.14 176.054C122.758 170.805 120.749 157.397 120.749 157.397C121.994 156.954 122.872 161.721 125.233 162.401C127.266 162.982 130.23 159.544 129.458 151.614Z" fill="#9998D3"/>
<path opacity="0.8" d="M129.458 151.614C128.962 146.464 125.111 142.965 123.912 141.857C120.619 138.748 123.728 119.915 110.03 117.333L33.3699 144.99C30.1635 147.049 27.7134 150.095 26.3891 153.668C25.0648 157.242 24.938 161.149 26.0279 164.8C26.9218 168.017 30.8258 164.571 32.4302 165.343C31.139 169.43 30.5813 178.186 35.5473 183.511C42.8129 191.281 44.0353 181.929 46.7628 180.386C46.7628 180.386 41.369 195.505 64.3348 205.269C67.9104 194.436 84.7718 199.387 86.6283 181.318C88.5765 182.67 88.9203 193.336 95.5977 190.142C106.485 184.932 104.063 172.883 104.063 172.883C107.119 172.051 107.211 180.279 114.14 176.054C122.758 170.805 120.749 157.397 120.749 157.397C121.994 156.954 122.872 161.721 125.233 162.401C127.266 162.982 130.23 159.544 129.458 151.614Z" fill="white"/>
<path opacity="0.1" d="M110.03 117.356C112.001 120.038 116.974 148.053 89.7226 162.249C72.1506 171.417 40.7654 166.833 35.1042 147.121L110.03 117.356Z" fill="#1189A1"/>
<path d="M46.8087 76.161C46.4649 74.2205 44.7917 72.7078 42.7213 70.813C40.9525 69.3073 39.347 67.6197 37.931 65.7783L37.3198 64.892C37.1823 64.6934 37.0677 64.5177 36.9684 64.342C36.9391 64.2862 36.9059 64.2326 36.8691 64.1815C34.7718 60.6839 33.2523 56.871 32.3691 52.8896L32.201 52.0416L31.7273 52.7597C30.9507 53.785 30.0867 54.741 29.145 55.6171C27.3496 57.4201 25.4855 59.2919 25.325 60.8352C24.9812 63.7308 23.797 65.3275 22.0322 65.3275C19.7402 65.3275 17.0967 62.8445 16.0577 59.7885C13.0399 50.9108 14.5297 36.0587 17.8454 31.8643C18.4181 31.1068 19.1188 30.4552 19.9159 29.939C21.0696 29.276 22.356 28.8768 23.6824 28.7701C25.6491 28.5721 27.548 27.9435 29.2443 26.9289C30.215 26.3145 31.1487 25.6435 32.0406 24.9196C33.0593 24.0693 34.1452 23.3028 35.2876 22.6276C36.3507 22.0057 37.5553 21.6664 38.7867 21.642C40.9947 21.642 43.3707 22.8568 46.0218 25.3627C48.794 28.0625 51.0675 31.2308 52.7373 34.7217V34.8057C56.1371 41.6359 58.3986 50.8497 58.7806 59.46C59.1167 67.3063 59.9724 70.0261 60.7975 70.92L46.8087 76.161Z" fill="#EFEFEF"/>
<path d="M38.7256 22.0393C40.8419 22.0393 43.1262 23.2235 45.7238 25.6683C48.4545 28.3336 50.6965 31.4573 52.3477 34.8974C52.357 34.9342 52.3698 34.97 52.3859 35.0044C55.7704 41.7963 58.0089 50.9567 58.3909 59.5135C58.6889 66.3895 59.3612 69.4913 60.1787 70.7978L47.0303 75.6874C46.5107 73.8079 44.8299 72.2952 42.9276 70.5686C41.1791 69.0861 39.5937 67.4213 38.1984 65.6026C37.9921 65.3122 37.7782 65.0143 37.5796 64.701C37.4726 64.5482 37.358 64.3802 37.2511 64.2044C37.2193 64.1411 37.1836 64.0799 37.1441 64.0211C35.0654 60.5604 33.5612 56.7857 32.69 52.8438L32.3538 51.1477L31.3988 52.5916C30.6344 53.5918 29.7885 54.5271 28.87 55.3879C27.0211 57.2368 25.1187 59.1468 24.9125 60.8123C24.7062 62.4778 24.095 64.9914 21.9711 64.9914C19.8471 64.9914 17.3107 62.5695 16.3327 59.6968C13.3455 50.9108 14.8047 36.2344 18.067 32.1088C18.6198 31.377 19.2974 30.7485 20.0687 30.2523C21.1832 29.6231 22.4218 29.245 23.6977 29.1445C25.7099 28.9381 27.6526 28.294 29.3895 27.2574C30.3706 26.6357 31.3144 25.9571 32.2163 25.2252C33.224 24.3939 34.297 23.6453 35.4251 22.9866C36.4327 22.3896 37.5775 22.0632 38.7485 22.0393M38.7485 21.3288C37.4568 21.3523 36.1933 21.7102 35.0813 22.3678C32.965 23.5138 31.0932 25.4238 29.0228 26.6538C25.134 29.0299 22.4295 27.9144 19.6867 29.6564C18.8487 30.1933 18.1117 30.8734 17.5093 31.6657C13.9261 36.2497 12.7037 51.2088 15.6604 59.9337C16.7606 63.1578 19.5874 65.7095 21.9711 65.7095C23.7053 65.7095 25.2028 64.3496 25.6153 60.904C25.898 58.612 30.5126 55.2122 31.9871 52.9889C32.8885 57.0163 34.4366 60.871 36.5711 64.4031C36.605 64.4519 36.6356 64.503 36.6628 64.5559C36.7697 64.7392 36.892 64.915 37.0219 65.1136C37.1517 65.3122 37.4344 65.7172 37.6483 66.0228C41.3003 71.027 46.2892 73.1662 46.5031 76.6576L61.7143 71.004H61.6456C60.3391 71.004 59.4682 67.2222 59.132 59.4906C58.8188 52.5076 57.0998 42.8277 53.02 34.6988C53.02 34.6988 53.02 34.6529 53.02 34.6224C51.33 31.0924 49.0308 27.888 46.2281 25.1564C43.2485 22.3449 40.8342 21.3364 38.7485 21.3364V21.3288Z" fill="#E6E6E6"/>
<path d="M61.6838 70.9964L46.4725 76.65C46.2586 73.1585 41.2697 71.0193 37.6178 66.0151C37.4038 65.7095 37.1899 65.4116 36.9913 65.106C39.0694 67.8105 45.2425 70.8894 48.0998 70.8894C51.1558 70.8894 53.3562 65.1365 54.5327 58.505C55.7093 51.8735 55.4648 40.6274 53.0047 34.6911C57.0463 42.8201 58.7653 52.5 59.1167 59.4829C59.4452 67.3521 60.3391 71.1339 61.6838 70.9964Z" fill="#EBEBEB"/>
<path d="M55.8773 73.0745L49.8188 75.42C47.469 71.8872 45.4243 68.1606 43.7068 64.2808C42.9428 62.5007 42.1788 60.6671 41.4148 58.5967C40.0079 54.9017 37.7181 51.6073 34.7451 49.0008C36.4183 46.1893 37.4038 43.2479 38.1831 41.613C42.3469 44.7454 51.0794 50.017 52.0726 57.7257C53.0658 65.4345 54.3952 69.6288 55.8773 73.0745Z" fill="#9998D3"/>
<path opacity="0.4" d="M55.8773 73.0745L49.8188 75.42C47.469 71.8872 45.4243 68.1606 43.7068 64.2808C42.9428 62.5007 42.1788 60.6671 41.4148 58.5967C40.0079 54.9017 37.7181 51.6073 34.7451 49.0008C36.4183 46.1893 37.4038 43.2479 38.1831 41.613C42.3469 44.7454 51.0794 50.017 52.0726 57.7257C53.0658 65.4345 54.3952 69.6288 55.8773 73.0745Z" fill="white"/>
<path opacity="0.3" d="M55.8774 73.0745L49.8189 75.42C47.469 71.8872 45.4243 68.1606 43.7069 64.2808C44.7383 65.8088 46.4496 67.7876 48.0999 67.2757C50.6822 66.4506 50.3078 61.1637 48.8027 55.151C47.2977 49.1384 40.5897 44.455 38.2061 41.613C42.3699 44.7454 51.1024 50.017 52.0956 57.7257C53.0888 65.4345 54.3952 69.6288 55.8774 73.0745Z" fill="#1189A1"/>
<path opacity="0.3" d="M31.9871 52.9813C34.6763 49.7496 36.2578 46.4338 37.8317 42.4381C40.0167 36.8914 45.9759 36.8456 48.0616 38.4653C46.4558 38.3338 44.8548 38.7705 43.538 39.6991C42.2213 40.6276 41.2724 41.9891 40.8571 43.5459C39.3291 48.657 38.7637 54.5857 33.3699 57.741L31.9871 52.9813Z" fill="black"/>
<path d="M35.0584 22.3678C32.9574 24.018 31.1772 28.4798 27.0822 29.6487C22.2079 31.0316 21.6807 28.8083 19.6638 29.6487C22.4065 27.9068 25.1111 29.0222 28.9998 26.6462C31.0703 25.3932 32.9421 23.5138 35.0584 22.3678Z" fill="#EBEBEB"/>
<path d="M98.7607 79.6296C92.6487 71.8826 82.4187 67.0465 68.7813 68.3377C53.3943 69.8657 37.9845 78.0863 33.0567 97.8357C32.3594 100.643 31.8489 103.494 31.5287 106.37C30.9557 112.764 21.6807 124.347 30.7647 140.933C37.549 153.287 49.8647 159.682 66.4358 159.666C67.2762 159.666 68.109 159.666 68.9265 159.666C89.3788 159.315 100.25 150.498 105.484 141.804C110.901 132.773 110.114 119.434 109.724 112.008C109.548 101.067 106.5 89.3324 98.7607 79.6296Z" fill="#EFEFEF"/>
<path d="M68.9647 159.636C89.417 159.284 100.289 150.468 105.522 141.773C110.939 132.743 110.152 119.403 109.762 111.977C109.571 101.037 106.523 89.3018 98.8142 79.599C97.1117 77.4699 95.1216 75.5877 92.9008 74.0066C100.961 81.509 108.853 114.567 96.4534 137.839C88.0494 153.592 73.8772 159.361 66.4817 159.636C67.2992 159.682 68.1319 159.666 68.9647 159.636Z" fill="#EBEBEB"/>
<path d="M77.1548 114.789C77.7431 117.623 79.1641 113.414 82.3194 112.764C85.4747 112.115 89.1572 115.27 88.5766 112.428C87.9959 109.586 84.9552 107.844 81.8075 108.471C78.6599 109.097 76.6047 111.947 77.1548 114.789Z" fill="#37474F"/>
<path d="M51.3392 112.016C50.8579 114.873 49.2764 110.717 46.0982 110.19C42.92 109.662 39.3597 112.955 39.841 110.098C40.3224 107.241 43.279 105.353 46.4496 105.881C49.6202 106.408 51.8129 109.158 51.3392 112.016Z" fill="#37474F"/>
<path opacity="0.3" d="M82.1055 126.402C82.2201 130.986 87.8202 134.508 94.6045 134.332C101.389 134.156 106.829 130.321 106.676 125.768C106.523 121.214 100.961 117.662 94.1767 117.837C87.3924 118.013 81.9527 121.818 82.1055 126.402Z" fill="#9998D3"/>
<path opacity="0.3" d="M20.55 117.914C19.488 122.345 23.9727 127.227 30.5737 128.808C37.1746 130.39 43.3859 128.09 44.4555 123.659C45.5251 119.228 41.0328 114.353 34.4319 112.764C27.8309 111.175 21.5967 113.482 20.55 117.914Z" fill="#9998D3"/>
<path d="M72.1659 142.194C67.7881 142.194 64.5641 140.421 62.5624 136.914C60.7899 133.805 60.5301 130.138 60.4308 128.755C60.4275 128.523 60.5131 128.298 60.67 128.127C60.8269 127.956 61.0433 127.852 61.2748 127.835C61.5064 127.818 61.7355 127.891 61.9152 128.038C62.0949 128.185 62.2117 128.395 62.2415 128.625C62.3332 129.893 62.5777 133.262 64.1439 136.013C65.9545 139.183 69.0335 140.597 73.3119 140.329C73.553 140.312 73.7911 140.391 73.9738 140.55C74.1564 140.708 74.2687 140.932 74.286 141.174C74.3032 141.415 74.2239 141.653 74.0656 141.836C73.9073 142.018 73.6828 142.13 73.4417 142.148C72.9833 142.178 72.5708 142.194 72.1659 142.194Z" fill="#37474F"/>
<path d="M52.8366 141.636H52.2713C52.0301 141.623 51.8041 141.514 51.6429 141.334C51.4817 141.155 51.3986 140.918 51.4118 140.677C51.4249 140.436 51.5334 140.21 51.7132 140.049C51.893 139.887 52.1295 139.804 52.3706 139.818C53.8191 139.922 55.2652 139.585 56.5185 138.851C57.7718 138.117 58.7735 137.021 59.3917 135.707C60.3706 133.537 60.7302 131.139 60.4308 128.778C60.4203 128.659 60.4337 128.539 60.47 128.425C60.5064 128.311 60.565 128.205 60.6425 128.114C60.72 128.023 60.8148 127.949 60.9214 127.895C61.028 127.841 61.1443 127.808 61.2636 127.8C61.3828 127.788 61.5032 127.801 61.6175 127.837C61.7318 127.873 61.8377 127.931 61.9289 128.009C62.0202 128.087 62.0948 128.182 62.1485 128.289C62.2022 128.396 62.2338 128.513 62.2415 128.633C62.5716 131.329 62.1457 134.064 61.0114 136.532C60.2691 138.068 59.1075 139.361 57.661 140.265C56.2144 141.168 54.5419 141.643 52.8366 141.636Z" fill="#37474F"/>
<path d="M55.335 126.554C55.8886 128.151 56.9012 129.549 58.2458 130.573C59.0154 131.206 59.9326 131.635 60.9121 131.818C63.4792 132.3 67.1006 129.427 68.2313 126.127C69.1328 123.506 67.9257 121.97 65.6031 121.275C64.3381 120.94 63.0292 120.801 61.722 120.863C55.8086 121 54.0132 123.055 55.335 126.554Z" fill="#9998D3"/>
<path opacity="0.4" d="M55.335 126.554C55.8886 128.151 56.9012 129.549 58.2458 130.573C59.0154 131.206 59.9326 131.635 60.9121 131.818C63.4792 132.3 67.1006 129.427 68.2313 126.127C69.1328 123.506 67.9257 121.97 65.6031 121.275C64.3381 120.94 63.0292 120.801 61.722 120.863C55.8086 121 54.0132 123.055 55.335 126.554Z" fill="white"/>
<path opacity="0.4" d="M55.9767 123.644C56.0378 124.308 57.6575 124.706 59.5904 124.522C61.5233 124.339 63.0437 123.667 62.9826 122.994C62.9215 122.322 61.3018 121.932 59.3689 122.108C57.4359 122.284 55.9156 122.971 55.9767 123.644Z" fill="white"/>
<path opacity="0.4" d="M65.1905 123.094C65.1908 122.989 65.1694 122.885 65.1277 122.788C65.086 122.692 65.0249 122.605 64.9482 122.534C64.8715 122.462 64.7808 122.407 64.6819 122.372C64.5829 122.337 64.4778 122.322 64.3731 122.33C64.2247 122.34 64.0826 122.393 63.9641 122.483C63.8457 122.574 63.7562 122.696 63.7065 122.836C63.6568 122.977 63.649 123.128 63.6843 123.273C63.7195 123.417 63.7962 123.548 63.9049 123.65C64.0136 123.751 64.1495 123.819 64.2961 123.844C64.4426 123.87 64.5934 123.852 64.7299 123.793C64.8665 123.734 64.9828 123.636 65.0646 123.512C65.1464 123.388 65.1902 123.242 65.1905 123.094Z" fill="white"/>
<path opacity="0.3" d="M58.2687 130.573C59.0383 131.206 59.9555 131.635 60.935 131.818C63.5021 132.3 67.1234 129.427 68.2542 126.127C69.1557 123.506 67.9486 121.97 65.626 121.275C67.3297 122.085 67.7194 125.271 65.0988 128.327C62.0887 131.796 59.705 131.559 58.2687 130.573Z" fill="#1189A1"/>
<path d="M108.761 20.7405C109.304 12.3365 113.475 4.24571 108.593 1.31959C103.711 -1.60653 96.782 2.58784 89.8143 12.9324C79.2023 28.6097 79.4621 40.635 77.8042 51.3922C76.4061 60.4226 79.2558 69.5066 76.3602 69.9574C77.6667 78.7968 86.4985 83.5642 96.7514 79.6372C96.7514 79.6372 96.7056 79.5456 96.6826 79.515C94.0927 73.403 97.5612 70.9506 101.519 66.6798C105.637 62.2257 109.457 58.039 110.985 52.0798C111.511 50.0336 111.768 47.9276 111.749 45.815C111.802 34.6224 108.395 26.6004 108.761 20.7405Z" fill="#EFEFEF"/>
<path d="M96.7514 79.6372L96.6826 79.515C95.9229 77.915 95.6569 76.125 95.9186 74.3733C96.0828 73.5038 96.4122 72.6739 96.8889 71.9285C97.3572 71.177 97.8916 70.4688 98.4857 69.8122C100.854 67.2222 103.299 64.701 105.492 61.9659C107.752 59.2998 109.472 56.2198 110.557 52.8972C111.071 51.234 111.386 49.5158 111.497 47.7784C111.56 46.909 111.578 46.0369 111.55 45.1656C111.55 44.2946 111.512 43.4236 111.451 42.545C111.208 39.0543 110.736 35.5833 110.037 32.1546C109.709 30.4356 109.35 28.7166 109.036 26.9824C108.693 25.2398 108.499 23.4711 108.456 21.6955C108.509 18.1123 109.357 14.6667 109.984 11.2287C110.357 9.53653 110.561 7.81171 110.595 6.07932C110.599 5.24226 110.452 4.41139 110.16 3.62688C109.847 2.87116 109.315 2.22691 108.632 1.778C107.934 1.32222 107.152 1.01098 106.332 0.862697C105.511 0.714412 104.67 0.732088 103.857 0.914679C102.198 1.30559 100.638 2.03377 99.2726 3.05388C96.4864 5.14399 94.0339 7.64535 91.9993 10.4723C87.7713 16.0548 84.4598 22.2754 82.1895 28.9C81.0748 32.224 80.2292 35.6322 79.6607 39.0918C79.08 42.545 78.7057 46.0365 78.2167 49.5204C77.9493 51.2623 77.659 52.9813 77.5597 54.7308C77.4604 56.4804 77.4527 58.23 77.5062 59.9872L77.7201 65.2511C77.7532 66.1306 77.7251 67.0113 77.6361 67.8869C77.5935 68.3259 77.4854 68.756 77.3152 69.1628C77.2254 69.3606 77.0887 69.5336 76.9169 69.6667C76.7452 69.7999 76.5436 69.8891 76.3297 69.9268C76.5456 69.8844 76.7472 69.7879 76.9155 69.6462C77.0839 69.5045 77.2136 69.3224 77.2923 69.117C77.4603 68.7134 77.561 68.2849 77.5902 67.8487C77.668 66.9748 77.6807 66.0964 77.6284 65.2206L77.3305 59.9642C77.2464 58.207 77.2235 56.4498 77.3305 54.685C77.4374 52.9202 77.6666 51.1706 77.9035 49.444C78.3466 45.9601 78.6675 42.461 79.2481 38.9848C79.7758 35.4992 80.5779 32.0607 81.6471 28.7014C83.8805 21.9926 87.194 15.6934 91.4568 10.0521C93.5254 7.16238 96.0217 4.60426 98.86 2.4656C100.305 1.37034 101.962 0.589597 103.727 0.173598C104.63 -0.0334175 105.567 -0.0555312 106.479 0.108586C107.392 0.272703 108.262 0.619661 109.036 1.1286C109.841 1.6886 110.457 2.47992 110.801 3.39768C111.122 4.26311 111.285 5.17917 111.283 6.10224C111.244 7.88139 111.029 9.65231 110.641 11.3891C109.969 14.8348 109.113 18.2651 109.059 21.726C109.102 23.4626 109.288 25.1927 109.617 26.8983C109.923 28.625 110.274 30.344 110.603 32.0706C111.301 35.5256 111.753 39.0259 111.955 42.545C112.008 43.4313 112.031 44.3099 112.031 45.1961C112.052 46.0805 112.026 46.9654 111.955 47.8472C111.835 49.6158 111.509 51.3644 110.985 53.0577C109.861 56.4267 108.085 59.5418 105.759 62.2257C103.513 64.9455 101.022 67.4285 98.6155 69.9803C98.0149 70.616 97.4752 71.3067 97.0035 72.0431C96.5184 72.7708 96.1785 73.5854 96.0027 74.442C95.7313 76.1818 95.9812 77.9629 96.7208 79.5608L96.7514 79.6372Z" fill="#E6E6E6"/>
<path d="M104.391 47.4499C104.537 49.3751 104.364 51.311 103.879 53.1799C101.924 60.3997 95.613 62.134 92.2208 65.0372C88.8287 67.9404 89.6843 76.0923 86.7659 75.3818C84.237 74.7858 83.6411 70.3852 83.6488 64.7469C83.6488 55.0059 85.9408 44.2335 89.3635 34.5994C89.8778 33.16 90.4643 31.7473 91.1207 30.3669C94.383 23.4145 98.4703 19.7778 100.663 21.8712C102.856 23.9646 100.801 26.883 101.481 33.0103C101.954 37.495 104.048 42.3617 104.391 47.4499Z" fill="#9998D3"/>
<path opacity="0.4" d="M104.391 47.4499C104.537 49.3751 104.364 51.311 103.879 53.1799C101.924 60.3997 95.613 62.134 92.2208 65.0372C88.8287 67.9404 89.6843 76.0923 86.7659 75.3818C84.237 74.7858 83.6411 70.3852 83.6488 64.7469C83.6488 55.0059 85.9408 44.2335 89.3635 34.5994C89.8778 33.16 90.4643 31.7473 91.1207 30.3669C94.383 23.4145 98.4703 19.7778 100.663 21.8712C102.856 23.9646 100.801 26.883 101.481 33.0103C101.954 37.495 104.048 42.3617 104.391 47.4499Z" fill="white"/>
<path d="M110.985 52.0798C109.411 58.039 105.637 62.2104 101.511 66.6798C97.5535 70.9506 94.085 73.3801 96.6749 79.515C94.3829 75.2519 89.7302 70.1713 96.1707 66.527C102.611 62.8827 107.455 59.5975 110.985 52.0798Z" fill="#EBEBEB"/>
<path opacity="0.3" d="M104.391 47.4881C104.537 49.4133 104.364 51.3492 103.879 53.2181C101.924 60.4379 95.613 62.1722 92.2208 65.0754C88.8287 67.9786 89.6843 76.1305 86.7659 75.42C84.237 74.824 83.6411 70.4234 83.6488 64.7851C83.6488 55.0441 85.9408 44.2717 89.3635 34.6376C89.8766 33.1852 90.4631 31.7598 91.1207 30.3669C88.0647 38.4271 85.4518 55.4108 89.1572 57.6646C92.8626 59.9184 103.52 56.9312 104.391 47.4881Z" fill="#1189A1"/>
</svg>
