<svg width="151" height="151" viewBox="0 0 151 151" fill="none" xmlns="http://www.w3.org/2000/svg">
<rect x="1" y="1" width="149" height="149" rx="24" fill="#FFFB9F" stroke="black" stroke-width="2"/>
<mask id="mask0_205_282" style="mask-type:alpha" maskUnits="userSpaceOnUse" x="0" y="0" width="151" height="151">
<rect width="151" height="151" rx="25" fill="#FFFB9F"/>
</mask>
<g mask="url(#mask0_205_282)">
<path d="M36.5975 140.454C37.0544 140.341 37.5139 140.229 37.9708 140.116C38.4327 139.992 38.8947 139.992 39.3591 140.116C39.5675 140.202 39.7759 140.289 39.9817 140.375C40.3734 140.603 40.6872 140.909 40.9182 141.297C41.006 141.502 41.0939 141.707 41.1818 141.91C41.2897 142.251 41.3073 142.592 41.2295 142.933C41.2119 143.274 41.109 143.592 40.9207 143.889C40.7575 144.188 40.5315 144.427 40.2478 144.61C39.9968 144.838 39.7005 144.991 39.3591 145.07C39.2938 145.087 39.226 145.102 39.1608 145.119C39.811 146.748 39.9064 149.231 39.9365 151.665C40.2579 150.691 40.5817 149.718 40.9031 148.744C41.355 147.375 42.6806 146.629 44.1141 146.95C44.7367 147.089 45.3568 147.598 45.6731 148.129C45.9995 148.68 46.1401 149.493 45.9367 150.108C45.3643 151.842 44.7894 153.579 44.217 155.314C43.7651 156.683 42.4395 157.429 41.006 157.108C40.6997 157.039 40.3934 156.881 40.1223 156.673C40.1575 156.952 40.1976 157.217 40.2503 157.456C40.4462 158.356 40.6997 159.312 41.4027 159.922C42.1508 160.574 43.0948 160.634 44.0614 160.387C44.0614 159.537 44.0614 158.687 44.0614 157.837C44.0614 156.396 45.2564 155.331 46.6698 155.27C47.32 155.242 48.0632 155.576 48.5151 156.021C48.9896 156.485 49.2783 157.18 49.2783 157.837C49.2783 159.935 49.2783 162.032 49.2783 164.132C49.2783 165.027 48.8163 165.778 48.1259 166.233C48.972 167.014 50.0942 167.448 51.1963 167.144C52.2859 166.843 53.0843 165.941 53.8525 165.029C53.2876 164.632 52.6901 164.283 52.0499 164.009C51.7235 163.88 51.4223 163.71 51.1662 163.46C51.0306 163.287 50.8951 163.114 50.7595 162.942C50.3779 162.358 50.3453 161.62 50.4959 160.962C50.6365 160.35 51.1536 159.739 51.6934 159.428C52.2206 159.124 53.1094 158.941 53.7044 159.169C54.45 159.453 55.1881 159.764 55.871 160.174C56.5488 160.579 57.189 161.064 57.784 161.58C58.2334 161.97 58.6451 162.403 59.0167 162.867C59.5113 163.488 59.9807 164.11 60.3573 164.809C60.5682 165.202 60.6686 165.608 60.6862 166.023C60.887 165.788 61.1205 165.583 61.364 165.442C62.0092 165.071 62.662 165.066 63.375 165.183C66.8245 165.746 69.8823 167.896 71.7954 170.735C72.3527 171.562 72.2247 172.575 71.7225 173.364C71.8556 173.46 71.9811 173.571 72.1167 173.663C73.264 171.656 74.1277 169.492 74.6749 167.253C76.1687 169.292 77.8734 171.473 80.3563 172.052C81.6091 172.343 83.025 171.923 84.0142 171.13C83.8836 171.019 83.7606 170.898 83.6301 170.789C83.4393 170.631 83.2434 170.473 83.0451 170.324C82.9321 170.245 82.7539 170.117 82.6811 170.065C81.7522 169.41 80.7781 168.82 79.7688 168.293C79.2467 168.022 78.7169 167.775 78.1822 167.535C78.1571 167.523 78.1495 167.52 78.132 167.513C78.0366 167.473 77.9412 167.436 77.8483 167.399C77.5596 167.288 77.2683 167.179 76.9746 167.078C75.8976 166.702 74.7955 166.403 73.6783 166.171C72.2498 165.874 71.5569 164.301 71.8556 163.011C72.182 161.602 73.7335 160.94 75.0666 161.217C80.1856 162.279 84.9481 164.822 88.7139 168.387C89.3215 168.963 89.5299 169.751 89.4244 170.507C90.7299 171.179 92.294 171.557 93.5994 170.925C93.9911 170.735 94.3049 170.416 94.5384 170.048C94.0363 169.825 93.5317 169.608 93.0195 169.41C91.7015 168.901 90.7901 167.708 91.1969 166.25C91.5433 165.012 93.0948 163.95 94.4078 164.456C96.1878 165.146 97.9 165.958 99.552 166.865C99.5645 166.774 99.5695 166.685 99.5896 166.591C99.8833 165.326 101.52 164.32 102.801 164.797C107.159 166.425 111.123 168.709 114.693 171.661C115.81 172.585 115.579 174.342 114.693 175.293C113.684 176.376 112.047 176.156 111.003 175.293C110.789 175.115 110.573 174.94 110.355 174.767C110.267 174.698 110.177 174.629 110.089 174.559C109.71 174.28 109.331 174.001 108.944 173.734C108.828 173.653 108.703 173.586 108.585 173.507C112.002 176.798 114.859 180.648 116.983 184.922C117.256 185.021 117.537 185.078 117.824 185.016C118.981 184.772 119.164 183.173 118.745 182.083C118.328 180.994 117.57 179.916 117.799 178.772C118.705 179.588 119.654 180.425 120.824 180.788C121.994 181.154 123.457 180.91 124.133 179.899C124.482 179.375 124.577 178.733 124.642 178.113C125.049 174.379 124.808 170.579 123.937 166.922C125.212 168.513 128.014 168.046 129.269 166.44C130.522 164.834 130.552 162.601 130.156 160.614C129.759 158.627 128.993 156.705 128.837 154.686C130.263 155.959 132.144 156.727 134.064 156.824C134.049 150.862 132.701 144.907 130.14 139.503C131.504 140.116 133.213 140.696 134.388 139.785C135.706 138.762 135.29 136.721 134.662 135.189C132.955 131.023 130.58 127.122 127.652 123.672C130.231 124.75 133.103 125.135 135.88 124.777C133.992 120.263 131.315 116.069 128.006 112.432C130.223 112.763 132.485 112.808 134.715 112.563C135.119 112.519 135.553 112.45 135.847 112.17C136.447 111.597 136.07 110.606 135.646 109.9C133.233 105.867 130.231 102.178 126.761 98.9811C128.29 100.09 130.507 98.0372 130.196 96.1915C129.884 94.3457 128.172 93.0856 126.553 92.1096C124.765 91.0323 118.05 89.1273 117.226 87.4718C116.342 85.6903 120.405 81.1489 121.133 79.0388C121.286 78.5965 121.421 78.1048 121.246 77.6724C121.042 77.1758 120.5 76.9139 119.995 76.7162C117.522 75.7402 114.884 75.1793 112.225 75.0607C115.672 73.6252 118.486 70.7812 119.855 67.3517C120.116 66.6994 120.322 65.9507 120.023 65.3132C119.782 64.7993 119.265 64.4756 118.768 64.1865C116.604 62.9338 114.349 61.8367 112.024 60.9077C114.711 60.7841 117.211 58.8371 117.952 56.2921C118.08 55.8498 118.158 55.3754 118.027 54.9332C117.846 54.3253 117.307 53.8979 116.792 53.5198C114.128 51.5753 111.261 49.9025 108.248 48.5386C110.109 48.798 112.29 48.079 112.976 46.3593C113.754 44.4073 112.265 42.3046 110.455 41.1285C110.033 42.7271 109.516 44.3011 108.886 45.8281C108.354 47.1179 107.169 48.0247 105.675 47.6219C104.427 47.2859 103.323 45.749 103.853 44.4642C104.618 42.6061 105.221 40.701 105.665 38.7614C105.504 38.6675 105.349 38.5662 105.193 38.4649C105.366 38.4946 105.547 38.4946 105.73 38.4773C106.217 36.2659 106.489 34.0125 106.511 31.7269C106.519 30.9832 106.496 30.237 106.456 29.4933C105.653 28.9373 104.362 29.3401 103.614 30.0665C102.778 30.8769 102.248 31.9888 101.284 32.6461C102.298 30.0072 103.079 26.5529 100.913 24.7393C96.8556 27.8897 93.253 31.5515 90.7977 36.1102C89.2236 39.0357 84.7196 36.4364 86.2912 33.5183C87.1373 31.9493 88.1114 30.4742 89.1834 29.0782C90.3859 25.6363 91.586 22.1944 92.7885 18.7525C88.2495 22.9579 84.5539 28.0429 81.9806 33.6295C81.8802 30.0368 82.9271 26.5208 83.964 23.0765C85.2619 18.7673 86.5574 14.4581 87.8553 10.1465C83.1129 15.6466 79.2893 21.9127 76.588 28.621C76.5001 25.1149 75.7319 21.6261 74.336 18.4016C71.9385 20.9268 74.7829 25.9847 72.0414 28.1442C67.3241 22.0659 61.2084 16.5312 54.7412 12.2418C57.1262 15.8764 59.5087 19.5085 61.8913 23.1432C59.0845 21.4136 56.1572 19.8718 53.1345 18.5375C51.244 17.7024 48.9494 17.0155 47.1142 17.6826C53.3479 21.8781 59.1447 26.8766 62.7222 33.5208C64.2964 36.4413 59.7899 39.0332 58.2158 36.1127C55.0952 30.3062 50.1193 25.9575 44.7116 22.271C44.8045 22.906 44.9928 23.5311 45.2865 24.092C46.2807 25.9797 48.0732 27.3115 49.8105 28.5766C47.3376 28.374 44.8246 28.8088 42.545 29.7749C42.5174 30.4223 42.4998 31.0697 42.5073 31.7195C42.5199 32.9525 42.6103 34.178 42.7609 35.3912C44.0237 36.3128 45.289 37.2344 46.5518 38.1536C45.5602 38.7466 44.6061 39.3964 43.6848 40.0883C44.0865 41.5658 44.5785 43.0237 45.1685 44.4543C45.7007 45.7465 44.5836 47.2785 43.3459 47.612C41.8747 48.0098 40.6671 47.103 40.1349 45.8182C39.8763 45.1906 39.6378 44.5556 39.4143 43.9132C38.1566 45.2548 37.0143 46.7028 36.0025 48.2322C37.3808 49.3046 39.2085 49.7963 40.9483 49.564C37.2553 53.3716 33.9439 57.5374 31.0768 61.9776C31.9229 62.3408 32.8041 62.6175 33.7054 62.8102C33.6275 62.5755 33.5723 62.3358 33.5597 62.1011C33.492 60.6235 34.815 59.6574 36.1682 59.5339C40.6119 59.1213 45.166 59.6154 49.4214 60.9373C49.6875 61.0189 49.921 61.1449 50.1394 61.2857C50.1419 61.2832 50.1419 61.2808 50.1419 61.2783C53.9855 55.2964 63.5633 63.7319 57.8442 67.3788C57.2342 67.7692 56.5162 67.9768 55.7957 68.0682C53.9504 68.3029 51.957 67.7297 50.7168 66.3658C50.4934 66.1187 50.3101 65.8395 50.1469 65.5479C49.5193 65.9458 48.736 66.1088 48.033 65.8914C47.0213 65.5776 45.9995 65.3083 44.9601 65.0933C44.4605 64.9895 43.9584 64.8981 43.4538 64.819C43.3534 64.8042 43.1249 64.7721 43.0521 64.7597C42.8337 64.7326 42.6153 64.7079 42.3969 64.6856C40.4838 64.4929 38.5608 64.4855 36.6452 64.6362C33.5748 68.7353 38.272 72.5207 41.8747 75.3844C47.2196 71.0456 53.7169 68.3968 60.6435 67.6803C62.0544 67.5345 63.252 68.9725 63.252 70.2475C63.252 71.7399 62.0444 72.6714 60.6435 72.8147C59.3405 72.9481 57.5857 73.2842 56.0718 73.6993C54.5831 74.107 53.0516 74.6456 51.8089 75.2114C48.8163 76.5778 46.1953 78.3025 43.8706 80.4521C42.8412 81.4059 41.2044 81.4602 40.1801 80.4521C39.3491 79.6343 39.1959 78.263 39.8035 77.287C37.1498 78.7571 34.569 80.3088 32.2317 82.3423C33.5095 83.3084 35.2594 83.6395 36.8109 83.2121C33.8083 85.248 31.2902 87.9709 29.5102 91.1015C30.6149 91.9045 32.1815 92.0404 33.4091 91.4351C29.4927 93.3623 25.5034 98.7587 24.3661 102.808C25.9779 103.866 27.4842 104.271 29.4048 104.58C25.9528 108.007 23.0029 111.921 20.6706 116.166C20.3518 116.749 20.0354 117.451 20.3241 118.049C20.6555 118.74 21.6095 118.886 22.3677 118.721C23.1259 118.555 23.8439 118.175 24.6222 118.16C23.2565 119.627 22.0539 121.238 21.0296 122.953C21.0497 122.98 21.0748 123.003 21.0924 123.032C25.5109 129.457 30.7379 135.285 36.5975 140.454ZM72.4029 157.837C72.3326 150.523 74.1904 143.298 77.7378 136.874C79.3421 133.966 83.8485 136.563 82.2442 139.468C79.1312 145.109 77.5596 151.425 77.6223 157.839C77.655 161.148 72.4355 161.14 72.4029 157.837ZM105.622 106.221C100.448 112.175 96.2029 118.889 92.9718 126.047C91.4027 129.521 90.1198 133.123 89.0754 136.783C87.9633 140.687 86.831 144.872 86.7708 148.944C86.7206 152.253 81.5011 152.25 81.5513 148.944C81.6166 144.561 82.7514 140.044 83.9263 135.831C85.0711 131.732 86.5549 127.739 88.2871 123.848C91.7266 116.129 96.3686 108.99 101.932 102.589C102.853 101.531 104.684 101.664 105.622 102.589C106.674 103.624 106.539 105.168 105.622 106.221ZM107.277 80.8919C106.604 82.0261 104.867 82.6018 103.707 81.8136C97.3678 77.5069 90.2328 74.6629 82.6359 73.4003C81.2375 73.1681 80.4693 71.473 80.8132 70.2401C81.2124 68.807 82.6359 68.2165 84.0242 68.4463C92.0027 69.7731 99.6825 72.8543 106.34 77.3784C107.505 78.1691 108.035 79.617 107.277 80.8919ZM95.1786 61.2833C95.5225 61.817 95.6958 62.4273 95.741 63.0524C96.238 62.5162 96.956 62.1678 97.6967 62.153C102.582 62.0566 107.34 63.0771 111.811 64.9846C113.149 65.5554 113.342 67.3912 112.747 68.4981C112.449 69.0541 111.793 69.5137 111.188 69.6792C110.455 69.8769 109.845 69.7064 109.177 69.4198C109.15 69.4074 109.137 69.4025 109.117 69.3926C108.984 69.3382 108.851 69.2863 108.718 69.2345C108.5 69.1504 108.279 69.0689 108.06 68.9898C107.546 68.8045 107.026 68.634 106.501 68.4784C105.527 68.1868 104.538 67.9447 103.541 67.7495C103.039 67.6506 102.532 67.5691 102.025 67.4974C101.927 67.4851 101.766 67.4653 101.683 67.4579C101.45 67.4307 101.216 67.4085 100.983 67.3887C99.8909 67.2973 98.7963 67.2677 97.6992 67.2874C96.5042 67.3121 95.5702 66.4893 95.2313 65.4442C95.0581 65.7753 94.8547 66.0915 94.6037 66.3683C93.3635 67.7322 91.3701 68.3054 89.5248 68.0707C88.8043 67.9793 88.0863 67.7692 87.4762 67.3813C81.7547 63.7393 91.3349 55.3013 95.1786 61.2833ZM80.0425 57.3843C82.4125 55.2766 85.3598 54.0659 88.5457 53.8608C89.2336 53.8163 89.8989 54.1697 90.391 54.612C90.9031 55.0765 91.1241 55.7634 91.1567 56.428C91.1843 57.068 90.8454 57.7993 90.391 58.2441C89.8864 58.7407 89.2411 58.9508 88.5457 58.9977C88.4403 59.0051 88.3348 59.0175 88.2319 59.0274C87.4762 59.1484 86.7406 59.3461 86.0251 59.6105C85.3398 59.9193 84.6895 60.29 84.082 60.7273C83.9665 60.8237 83.8485 60.9151 83.7355 61.0139C82.651 61.9776 81.1296 61.9949 80.045 61.0139C79.0408 60.1096 79.0282 58.2886 80.0425 57.3843ZM66.5458 62.0047C66.6964 61.35 67.1885 60.8237 67.7433 60.4703C68.2982 60.1195 69.1292 60.0429 69.7543 60.2109C70.3141 60.3641 71.0698 60.841 71.3133 61.392C71.3359 61.4463 71.3761 61.4908 71.4037 61.5402C71.5267 61.6687 71.6497 61.7972 71.7853 61.9108C71.838 61.943 71.8857 61.9825 71.9385 62.0122C71.951 62.0047 71.9636 61.9973 71.9761 61.9899C72.2372 61.7527 72.4832 61.4982 72.7067 61.2264C72.9226 60.9225 73.1837 60.6606 73.5151 60.4703C73.7235 60.3839 73.9318 60.2974 74.1402 60.2109C74.8105 59.9984 75.5436 60.1565 76.1512 60.4703C76.716 60.7644 77.183 61.4093 77.3512 62.0047C77.5119 62.5829 77.4642 63.4774 77.0876 63.9839C76.3671 64.9549 75.634 65.7827 74.6122 66.4572C74.5519 66.4967 74.4791 66.5264 74.4164 66.5635C74.4892 66.7463 74.5318 66.9366 74.5444 67.1342C74.5795 67.3022 74.6222 67.4678 74.6775 67.6309C74.7402 67.7519 74.808 67.873 74.8833 67.9867C75.0566 68.1868 75.2448 68.3746 75.4482 68.5451C75.5687 68.6192 75.6942 68.6884 75.8223 68.7526C75.998 68.8095 76.1763 68.8564 76.3595 68.891C77.0298 68.9429 77.6022 69.1801 78.1018 69.6298C78.614 70.0943 78.8349 70.7812 78.8651 71.4459C78.8927 72.0858 78.5537 72.8172 78.1018 73.2619C77.6525 73.7042 76.9043 74.0452 76.2566 74.0131C75.747 73.9884 75.2273 73.9241 74.7302 73.8006C74.2607 73.682 73.8063 73.4819 73.3695 73.2867C72.6816 72.9778 72.0439 72.496 71.5041 71.982C71.4464 71.9277 71.3987 71.8585 71.3409 71.7992C70.4773 72.7282 69.3601 73.3682 68.1601 73.7808C67.4998 74.0081 66.7466 73.8327 66.1491 73.5214C65.5466 73.2076 65.155 72.6072 64.9491 71.987C64.8411 71.646 64.8236 71.305 64.9039 70.9616C64.919 70.6206 65.0219 70.3019 65.2127 70.0054C65.529 69.4717 66.0161 69.1332 66.5784 68.9058C66.7843 68.8119 66.9826 68.7032 67.1759 68.5846C67.3868 68.4067 67.5827 68.214 67.7634 68.0064C67.8563 67.8656 67.9392 67.7198 68.017 67.5691C68.0622 67.4406 68.1124 67.3146 68.1475 67.1836C68.2555 66.7611 68.4965 66.4004 68.7978 66.0989C68.7927 66.094 68.7852 66.0915 68.7802 66.0866C68.022 65.5183 67.2061 64.861 66.8119 63.9765C66.5759 63.5762 66.4579 63.1438 66.4554 62.6793C66.483 62.4618 66.5132 62.2345 66.5458 62.0047ZM61.954 61.6415C61.841 61.5402 61.723 61.4488 61.605 61.3524C60.9975 60.9151 60.3473 60.5469 59.6644 60.2381C58.9489 59.9712 58.2108 59.7736 57.4551 59.6525C57.3497 59.6426 57.2442 59.6303 57.1413 59.6228C56.4208 59.5759 55.8233 59.3486 55.2961 58.8692C54.7839 58.4047 54.563 57.7178 54.5328 57.0532C54.5027 56.4132 54.8442 55.6818 55.2961 55.2371C55.7404 54.7997 56.4986 54.4439 57.1413 54.4859C60.3247 54.6885 63.2746 55.8993 65.6445 58.0094C66.1592 58.4665 66.3776 59.1633 66.4077 59.8254C66.4379 60.5099 66.0989 61.1523 65.6445 61.6415C65.2027 62.1135 64.4395 62.3927 63.7993 62.3927C63.0963 62.3951 62.4662 62.0986 61.954 61.6415ZM57.5229 97.3577C58.9916 96.9599 60.2067 97.8642 60.7339 99.1515C66.3299 112.87 70.4447 127.139 73.0079 141.705C73.249 143.076 72.654 144.467 71.1853 144.865C70.9342 144.932 70.6656 144.944 70.3945 144.929C70.9142 146.659 71.4288 148.388 71.951 150.115C72.9151 153.295 67.8764 154.642 66.9199 151.482C65.8654 147.998 64.8361 144.504 63.7491 141.03C62.795 137.983 61.6979 135.036 59.8351 132.402C59.0267 131.258 59.6292 129.545 60.7715 128.888C62.0569 128.149 63.5357 128.673 64.3415 129.81C64.8462 130.524 65.3031 131.268 65.7223 132.031C63.2243 121.29 59.8778 110.752 55.7053 100.52C55.173 99.2232 56.2802 97.6937 57.5229 97.3577Z" fill="#9998D3"/>
<g clip-path="url(#clip0_205_282)">
<path d="M87.4438 67.3763C88.0539 67.7667 88.7719 67.9743 89.4924 68.0657C91.3377 68.3004 93.331 67.7272 94.5713 66.3633C94.8223 66.0865 95.0257 65.7703 95.1989 65.4392C95.1236 65.2044 95.0683 64.9648 95.0558 64.7152C95.0257 64.0728 95.2918 63.4946 95.7085 63.0449C95.6633 62.4198 95.4876 61.8095 95.1462 61.2758C91.3025 55.2963 81.7223 63.7318 87.4438 67.3763Z" fill="#FF7B9B"/>
<path d="M51.2116 64.095C51.071 64.7029 50.6493 65.2069 50.1145 65.5454C50.2777 65.837 50.461 66.1162 50.6844 66.3633C51.9246 67.7272 53.918 68.3004 55.7633 68.0657C56.4838 67.9743 57.2018 67.7642 57.8119 67.3763C63.5309 63.7318 53.9506 55.2963 50.1095 61.2758C50.107 61.2783 50.107 61.2807 50.107 61.2832C51.0208 61.8886 51.4727 62.9634 51.2116 64.095Z" fill="#FF7B9B"/>
<path d="M68.7428 66.089C68.7478 66.0939 68.7553 66.0964 68.7603 66.1014C68.4591 66.4053 68.218 66.7635 68.1101 67.1861C68.0775 67.317 68.0247 67.443 67.9795 67.5715C67.9017 67.7198 67.8189 67.868 67.726 68.0089C67.5452 68.2164 67.3494 68.4091 67.1385 68.587C66.9477 68.7081 66.7494 68.8144 66.541 68.9107C65.9786 69.1356 65.4941 69.4765 65.1753 70.0102C64.9845 70.3043 64.8815 70.623 64.8665 70.9665C64.7886 71.3074 64.8037 71.6484 64.9117 71.9919C65.1175 72.6121 65.5092 73.2125 66.1117 73.5263C66.7092 73.8351 67.4624 74.0106 68.1226 73.7857C69.3227 73.3731 70.4399 72.7331 71.3035 71.8041C71.3613 71.8609 71.409 71.9301 71.4667 71.9869C72.0065 72.5009 72.6441 72.9802 73.332 73.2915C73.7689 73.4867 74.2233 73.6893 74.6927 73.8055C75.1898 73.929 75.7095 73.9933 76.2192 74.018C76.8669 74.0501 77.6125 73.7091 78.0644 73.2668C78.5163 72.8221 78.8577 72.0907 78.8276 71.4508C78.7975 70.7861 78.5766 70.0967 78.0644 69.6347C77.5648 69.185 76.9949 68.9503 76.3221 68.8959C76.1413 68.8613 75.9606 68.8144 75.7848 68.7575C75.6568 68.6933 75.5313 68.6241 75.4108 68.55C75.2074 68.3795 75.0191 68.1917 74.8459 67.9916C74.7731 67.8754 74.7053 67.7568 74.64 67.6358C74.5848 67.4727 74.5421 67.3071 74.507 67.1391C74.4944 66.9414 74.4492 66.7512 74.3789 66.5684C74.4417 66.5313 74.5145 66.5016 74.5747 66.4621C75.5965 65.7876 76.3271 64.9598 77.0501 63.9888C77.4267 63.4823 77.4744 62.5878 77.3138 62.0096C77.1455 61.4141 76.6786 60.7693 76.1137 60.4752C75.5087 60.1614 74.7731 60.0008 74.1028 60.2158C73.8944 60.3023 73.686 60.3887 73.4776 60.4752C73.1462 60.668 72.8877 60.9274 72.6692 61.2313C72.4458 61.5056 72.1998 61.7576 71.9387 61.9948C71.9261 62.0022 71.9136 62.0096 71.901 62.017C71.8483 61.9849 71.8006 61.9479 71.7479 61.9157C71.6123 61.7996 71.4868 61.6736 71.3663 61.5451C71.3387 61.4957 71.301 61.4512 71.2759 61.3969C71.0324 60.8483 70.2767 60.369 69.7168 60.2158C69.0917 60.0478 68.2607 60.1244 67.7059 60.4752C67.1486 60.8286 66.659 61.3548 66.5084 62.0096C66.4757 62.2369 66.4456 62.4643 66.4155 62.6941C66.418 63.1586 66.536 63.591 66.772 63.9912C67.1686 64.8635 67.9846 65.5207 68.7428 66.089Z" fill="#32100F"/>
<path d="M65.6121 61.6365C66.069 61.1473 66.408 60.5049 66.3778 59.8204C66.3477 59.1582 66.1268 58.4615 65.6121 58.0043C63.2422 55.8967 60.2923 54.686 57.1089 54.4809C56.4662 54.4389 55.7055 54.7947 55.2637 55.2321C54.8118 55.6768 54.4703 56.4082 54.5004 57.0481C54.5306 57.7128 54.7515 58.3997 55.2637 58.8642C55.7934 59.3411 56.3884 59.5684 57.1089 59.6178C57.2143 59.6252 57.3198 59.6376 57.4227 59.6475C58.1784 59.7685 58.9165 59.9662 59.632 60.2331C60.3149 60.5419 60.9651 60.9125 61.5727 61.3474C61.6881 61.4438 61.8086 61.5352 61.9216 61.6365C62.4338 62.0936 63.0639 62.3876 63.7669 62.3876C64.4071 62.3901 65.1703 62.1084 65.6121 61.6365Z" fill="#32100F"/>
<path d="M83.7006 61.0114C83.8136 60.9125 83.9316 60.8211 84.0471 60.7247C84.6571 60.2874 85.3074 59.9168 85.9902 59.6079C86.7057 59.3411 87.4413 59.1434 88.197 59.0248C88.3024 59.0149 88.4054 59.0026 88.5108 58.9951C89.2062 58.9507 89.8515 58.7382 90.3561 58.244C90.808 57.7993 91.1494 57.0679 91.1218 56.4279C91.0917 55.7633 90.8707 55.0739 90.3561 54.6119C89.864 54.1696 89.2012 53.8162 88.5108 53.8607C85.3249 54.0633 82.3776 55.274 80.0076 57.3842C78.9933 58.2885 79.0034 60.1095 80.0076 61.0163C81.0947 61.9923 82.6161 61.975 83.7006 61.0114Z" fill="#32100F"/>
<path d="M106.308 77.3734C99.6501 72.8492 91.9703 69.7681 83.9918 68.4412C82.6035 68.2114 81.1825 68.802 80.7808 70.2351C80.4369 71.468 81.2051 73.163 82.6035 73.3953C90.2004 74.6604 97.3328 77.5018 103.674 81.8085C104.834 82.5967 106.572 82.021 107.244 80.8869C108.003 79.6119 107.47 78.1616 106.308 77.3734Z" fill="#32100F"/>
<path d="M95.1989 65.4417C95.5378 66.4893 96.4692 67.3096 97.6668 67.2849C98.7614 67.2627 99.8585 67.2923 100.951 67.3862C101.184 67.406 101.418 67.4282 101.651 67.4554C101.734 67.4628 101.895 67.4826 101.992 67.4949C102.5 67.5666 103.007 67.6481 103.509 67.747C104.505 67.9397 105.495 68.1843 106.469 68.4759C106.993 68.6315 107.513 68.802 108.028 68.9873C108.249 69.0664 108.467 69.1479 108.686 69.2319C108.819 69.2838 108.952 69.3357 109.085 69.3901C109.107 69.4 109.12 69.4049 109.145 69.4173C109.813 69.7014 110.423 69.8744 111.156 69.6767C111.761 69.5112 112.416 69.0516 112.715 68.4956C113.31 67.3887 113.117 65.5528 111.779 64.9821C107.307 63.0746 102.55 62.0541 97.6642 62.1505C96.9236 62.1653 96.2056 62.5137 95.7085 63.0499C95.2918 63.4996 95.0257 64.0777 95.0558 64.7202C95.0658 64.9673 95.1236 65.2069 95.1989 65.4417Z" fill="#32100F"/>
<path d="M40.1552 80.4521C41.1795 81.4602 42.8139 81.4058 43.8457 80.4521C46.1705 78.3024 48.7915 76.5778 51.784 75.2114C53.0268 74.6456 54.5557 74.1069 56.0469 73.6992C57.5608 73.2841 59.3132 72.9481 60.6186 72.8147C62.0195 72.6689 63.2271 71.7374 63.2271 70.2475C63.2271 68.9725 62.0296 67.532 60.6186 67.6802C53.692 68.3968 47.1948 71.0455 41.8498 75.3844C41.2774 75.8489 40.705 76.3183 40.1602 76.8224C40.0096 76.9608 39.8891 77.1214 39.7836 77.2894C39.1685 78.2629 39.3242 79.6342 40.1552 80.4521Z" fill="#32100F"/>
<path d="M42.367 64.6831C42.5854 64.7053 42.8038 64.73 43.0222 64.7572C43.095 64.7695 43.3235 64.8017 43.4239 64.8165C43.9285 64.8955 44.4306 64.987 44.9302 65.0907C45.9671 65.3057 46.9914 65.575 48.0031 65.8888C48.7061 66.1087 49.4894 65.9432 50.117 65.5454C50.6518 65.2069 51.0735 64.7003 51.2141 64.095C51.4752 62.9633 51.0258 61.8885 50.1095 61.2856C49.8936 61.1423 49.6576 61.0188 49.3915 60.9372C45.1361 59.6153 40.582 59.1212 36.1383 59.5338C34.7826 59.6598 33.4621 60.6234 33.5298 62.101C33.5399 62.3382 33.5976 62.5754 33.6755 62.8101C34.0169 63.8504 34.9533 64.7794 36.1408 64.6682C36.299 64.6534 36.4597 64.6485 36.6203 64.6336C38.5309 64.4854 40.4539 64.4903 42.367 64.6831Z" fill="#32100F"/>
<path d="M90.7653 36.0978C93.2206 31.5391 96.8232 27.8772 100.88 24.7269C102.228 23.6793 103.627 22.686 105.053 21.7397C105.532 22.9701 105.756 24.3637 105.974 25.5472C106.215 26.8469 106.353 28.1614 106.424 29.4833C106.461 30.227 106.486 30.9708 106.479 31.717C106.456 34.0025 106.185 36.2559 105.698 38.4673C105.678 38.5612 105.653 38.6576 105.63 38.7515C105.186 40.6886 104.583 42.5961 103.818 44.4542C103.288 45.739 104.393 47.2759 105.64 47.6119C107.132 48.0147 108.319 47.1079 108.851 45.8181C109.481 44.2911 109.996 42.7172 110.42 41.1185C111.312 37.7532 111.751 34.2693 111.696 30.7978C111.62 26.0093 111.025 20.0842 107.716 16.3235C106.991 15.5007 105.472 15.3426 104.553 15.9233C98.8241 19.5282 93.2532 23.7065 89.151 29.0633C88.0815 30.4618 87.1049 31.9344 86.2589 33.5034C84.6873 36.4239 89.1912 39.0208 90.7653 36.0978Z" fill="#32100F"/>
<path d="M43.3109 47.6095C44.5486 47.2734 45.6658 45.744 45.1336 44.4517C44.5436 43.0236 44.0516 41.5658 43.6499 40.0857C43.2306 38.5414 42.9218 36.9725 42.726 35.3862C42.5754 34.173 42.485 32.9474 42.4724 31.7145C42.4649 31.0671 42.4825 30.4173 42.5101 29.7699C42.5703 28.3541 42.7134 26.9408 42.9745 25.5472C43.1955 24.3637 43.4189 22.9701 43.8959 21.7397C44.157 21.9126 44.4181 22.0905 44.6767 22.2684C50.0869 25.9525 55.0628 30.3012 58.1834 36.0978C59.7575 39.0183 64.264 36.4264 62.6898 33.5058C59.1123 26.8617 53.318 21.8607 47.0818 17.6677C46.1956 17.0697 45.2993 16.4891 44.398 15.9208C43.4867 15.3451 41.9653 15.4933 41.2372 16.3211C37.9283 20.0792 37.3333 26.0068 37.258 30.7953C37.1877 35.2379 37.9133 39.7077 39.3819 43.9106C39.6054 44.5506 39.8439 45.188 40.1025 45.8156C40.6297 47.098 41.8398 48.0073 43.3109 47.6095Z" fill="#32100F"/>
<path d="M65.6849 132.024C65.2681 131.26 64.8112 130.516 64.3041 129.802C63.5007 128.666 62.0195 128.142 60.7341 128.881C59.5893 129.538 58.9868 131.25 59.7977 132.394C61.6605 135.028 62.7601 137.976 63.7116 141.023C64.7987 144.497 65.8255 147.99 66.8824 151.474C67.8389 154.634 72.8776 153.288 71.9136 150.108C71.3914 148.381 70.8767 146.651 70.357 144.922C70.6282 144.936 70.8968 144.924 71.1478 144.857C72.6165 144.459 73.2115 143.071 72.9705 141.697C70.4072 127.131 66.2925 112.862 60.6964 99.1441C60.1717 97.8567 58.9566 96.9524 57.4855 97.3502C56.2427 97.6863 55.1356 99.2157 55.6628 100.51C59.8403 110.745 63.1894 121.283 65.6849 132.024Z" fill="#32100F"/>
<path d="M77.7054 136.867C74.158 143.291 72.3002 150.518 72.3705 157.829C72.4032 161.133 77.6201 161.14 77.5899 157.829C77.5272 151.415 79.0988 145.099 82.2119 139.458C83.8136 136.555 79.3097 133.958 77.7054 136.867Z" fill="#32100F"/>
<path d="M101.902 102.583C96.3387 108.985 91.6967 116.121 88.2572 123.843C86.5224 127.734 85.0387 131.727 83.8964 135.826C82.7215 140.037 81.5867 144.556 81.5214 148.939C81.4712 152.245 86.6906 152.248 86.7408 148.939C86.8011 144.867 87.9333 140.682 89.0455 136.778C90.0874 133.121 91.3728 129.516 92.9419 126.042C96.1755 118.886 100.418 112.17 105.593 106.216C106.509 105.163 106.644 103.619 105.593 102.583C104.654 101.659 102.821 101.526 101.902 102.583Z" fill="#32100F"/>
</g>
</g>
<path d="M1 118.444H150V126C150 139.255 139.255 150 126 150H25C11.7452 150 1 139.255 1 126V118.444Z" fill="white" stroke="black" stroke-width="2"/>
<circle cx="17.5404" cy="130.409" r="3.81313" fill="black"/>
<circle cx="29.7425" cy="130.409" r="3.81313" fill="black"/>
<circle cx="41.9444" cy="130.409" r="3.81313" fill="black"/>
<defs>
<clipPath id="clip0_205_282">
<rect width="79.509" height="144.738" fill="white" transform="translate(33.5248 15.5749)"/>
</clipPath>
</defs>
</svg>
