<svg width="27" height="21" viewBox="0 0 27 21" fill="none" xmlns="http://www.w3.org/2000/svg">
<path d="M2.33733 2.35714L13.3416 10.5L23.7345 2.35714M25.0719 5.34279V15.6571C25.0719 17.1772 25.0721 17.9374 24.7806 18.518C24.5242 19.0288 24.1145 19.4439 23.6112 19.7041C23.0391 20 22.2906 20 20.7927 20H5.2797C3.78176 20 3.03223 20 2.46009 19.7041C1.95682 19.4439 1.54795 19.0288 1.29152 18.518C1 17.9374 1 17.1772 1 15.6571V5.34279C1 3.82265 1 3.06267 1.29152 2.48206C1.54795 1.97133 1.95682 1.55607 2.46009 1.29584C3.03223 1 3.78176 1 5.2797 1H20.7927C22.2906 1 23.0391 1 23.6112 1.29584C24.1145 1.55607 24.5242 1.97133 24.7806 2.48206C25.0721 3.06267 25.0719 3.82265 25.0719 5.34279Z" stroke="black" stroke-width="2" stroke-linecap="round" stroke-linejoin="round"/>
</svg>
