<svg width="42" height="42" viewBox="0 0 42 42" fill="none" xmlns="http://www.w3.org/2000/svg">
<path d="M19.25 31.5C19.25 32.4665 20.0335 33.25 21 33.25C21.9665 33.25 22.75 32.4665 22.75 31.5C22.75 30.5335 21.9665 29.75 21 29.75C20.0335 29.75 19.25 30.5335 19.25 31.5Z" fill="black"/>
<path d="M19.25 21C19.25 21.9665 20.0335 22.75 21 22.75C21.9665 22.75 22.75 21.9665 22.75 21C22.75 20.0335 21.9665 19.25 21 19.25C20.0335 19.25 19.25 20.0335 19.25 21Z" fill="black"/>
<path d="M19.25 10.5C19.25 11.4665 20.0335 12.25 21 12.25C21.9665 12.25 22.75 11.4665 22.75 10.5C22.75 9.5335 21.9665 8.75 21 8.75C20.0335 8.75 19.25 9.5335 19.25 10.5Z" fill="black"/>
<path d="M21 32.25C20.5858 32.25 20.25 31.9142 20.25 31.5H18.25C18.25 33.0188 19.4812 34.25 21 34.25V32.25ZM21.75 31.5C21.75 31.9142 21.4142 32.25 21 32.25V34.25C22.5188 34.25 23.75 33.0188 23.75 31.5H21.75ZM21 30.75C21.4142 30.75 21.75 31.0858 21.75 31.5H23.75C23.75 29.9812 22.5188 28.75 21 28.75V30.75ZM21 28.75C19.4812 28.75 18.25 29.9812 18.25 31.5H20.25C20.25 31.0858 20.5858 30.75 21 30.75V28.75ZM21 21.75C20.5858 21.75 20.25 21.4142 20.25 21H18.25C18.25 22.5188 19.4812 23.75 21 23.75V21.75ZM21.75 21C21.75 21.4142 21.4142 21.75 21 21.75V23.75C22.5188 23.75 23.75 22.5188 23.75 21H21.75ZM21 20.25C21.4142 20.25 21.75 20.5858 21.75 21H23.75C23.75 19.4812 22.5188 18.25 21 18.25V20.25ZM21 18.25C19.4812 18.25 18.25 19.4812 18.25 21H20.25C20.25 20.5858 20.5858 20.25 21 20.25V18.25ZM21 11.25C20.5858 11.25 20.25 10.9142 20.25 10.5H18.25C18.25 12.0188 19.4812 13.25 21 13.25V11.25ZM21.75 10.5C21.75 10.9142 21.4142 11.25 21 11.25V13.25C22.5188 13.25 23.75 12.0188 23.75 10.5H21.75ZM21 9.75C21.4142 9.75 21.75 10.0858 21.75 10.5H23.75C23.75 8.98122 22.5188 7.75 21 7.75V9.75ZM21 7.75C19.4812 7.75 18.25 8.98122 18.25 10.5H20.25C20.25 10.0858 20.5858 9.75 21 9.75V7.75Z" fill="black"/>
</svg>
