<svg width="663" height="101" viewBox="0 0 663 101" fill="none" xmlns="http://www.w3.org/2000/svg">
<rect width="663" height="101" rx="20" fill="white"/>
<mask id="mask0_298_362" style="mask-type:alpha" maskUnits="userSpaceOnUse" x="0" y="0" width="663" height="101">
<rect width="663" height="101" rx="20" fill="white"/>
</mask>
<g mask="url(#mask0_298_362)">
<path d="M66.7368 41.0665C52.8273 -3.33911 6.78464 -2.31483 -0.128086 -1.90318C-0.641789 -1.87259 -1 -1.44724 -1 -0.932624V107C-1 107.552 -0.552286 108 -1.54972e-06 108H135.468C136.613 108 136.954 106.185 135.891 105.761C120.197 99.5095 78.8486 79.7326 66.7368 41.0665Z" fill="#FBD3A4"/>
<g opacity="0.3">
<path d="M156.556 45.9843C127.621 46.7758 112.772 65.4553 130.377 86.2915C106.35 67.3349 68.5558 64.0829 51.874 76.5869C37.7463 87.1885 40.2201 103.9 61.6898 120.442C83.482 137.242 98.3466 142.693 136.48 151.663C166.661 158.78 182.05 157.867 213.87 166.047C217.194 148.495 219.957 140.266 224.588 122.969C230.461 101.166 228.081 83.4001 217.401 71.522C201.499 53.7689 181.053 45.2875 156.556 45.9843Z" fill="#9998D3"/>
<path d="M55.6226 63.3832C54.4653 73.9801 46.8542 74.621 41.0312 83.3169C34.0383 93.7392 39.5494 106.069 46.4801 110.705C46.4801 110.705 35.9917 107.67 33.295 97.1677C30.5983 86.6654 35.3357 79.4954 41.2801 75.5089C47.2245 71.5225 54.2039 69.2009 55.6226 63.3832Z" fill="#9998D3"/>
<path d="M233.896 97.0027C236.826 102.219 236.159 107.941 233.747 114.087C231.335 120.234 227.983 125.523 230.74 132.765C231.555 124.917 235.953 121.246 238.017 115.386C240.081 109.525 239.734 102.057 233.896 97.0027Z" fill="#BA68C8"/>
</g>
<path opacity="0.15" d="M214.473 143.038C208.596 135.72 206.673 134.067 206.824 131.022C207.059 127.134 214.124 113.048 207.26 97.8128C204.928 92.4443 201.736 87.4923 197.808 83.1523C192.977 77.8651 186.053 72.3529 175.643 66.8896C174.375 66.238 173.114 65.5595 171.779 64.9486C169.271 63.5309 167.549 62.3407 166.681 61.2228C166.551 61.0478 166.431 60.8662 166.321 60.6786C166.79 60.5053 167.24 60.2854 167.665 60.022C169.361 58.864 170.636 57.1875 171.299 55.2437C172.286 52.6879 172.24 48.6034 170.417 44.6418L170.079 43.9529C169.823 43.4465 169.54 42.9538 169.233 42.4768L169.175 42.3914C167.299 39.4371 166.337 34.2232 162.513 31.0364C159.464 28.6296 155.859 27.0272 152.029 26.3762C148.199 25.7253 144.267 26.0466 140.593 27.3107C134.73 29.3266 127.337 35.1571 124.448 42.4138C120.386 53.0059 119.685 64.5921 122.441 75.5963C123.344 79.0789 124.522 82.484 125.965 85.7795C121.647 83.8277 117.981 82.099 116.384 81.1888C113.874 79.7779 112.154 78.5809 111.285 77.463C111.154 77.2877 111.032 77.1054 110.919 76.9172C111.389 76.7502 111.839 76.5323 112.262 76.2672C113.963 75.1116 115.24 73.4311 115.897 71.4823C116.947 68.7849 116.841 64.3645 114.683 60.1931C114.427 59.687 114.142 59.1959 113.829 58.7221L113.78 58.6316C111.904 55.6773 110.942 50.4634 107.118 47.2766C104.067 44.8712 100.462 43.2702 96.6318 42.6205C92.8017 41.9707 88.8698 42.2929 85.1966 43.5576C79.3282 45.5651 71.9421 51.3973 69.0526 58.654C64.9883 69.2448 64.2854 80.8305 67.0396 91.8349C69.9866 103.475 84.3322 120.592 100.911 131.155C117.489 141.718 135.725 148.205 145.988 149.124C156.251 150.043 158.46 149.526 163.661 151.25C168.862 152.975 174.159 157.934 182.141 163.233C186.553 166.171 191.982 167.487 197.644 167.584C199.614 173.9 202.84 178.838 204.611 179.27C209.27 180.406 216.13 172.577 218.572 162.564C219.941 156.806 219.072 148.754 214.473 143.038ZM192.276 148.555C184.061 148.57 172.008 143.612 170.491 140.032C169.804 138.402 169.942 134.591 169.825 130.039C176.258 132.443 181.992 133.242 187.179 133.822C192.367 134.402 197.491 135.623 199.071 139.147C199.853 140.857 198.407 144.357 197.232 148.886C195.589 148.66 193.933 148.549 192.276 148.555Z" fill="black"/>
<path d="M161.373 26.4706C163.322 24.9414 168.337 26.2 168.88 29.1217C169.067 29.9005 169.001 30.7184 168.693 31.4574C168.384 32.1965 167.849 32.8183 167.164 33.2333C167.164 33.2333 161.689 29.7081 161.373 26.4706Z" fill="#BAD5DB"/>
<path opacity="0.45" d="M161.373 26.4706C163.322 24.9414 168.337 26.2 168.88 29.1217C169.067 29.9005 169.001 30.7184 168.693 31.4574C168.384 32.1965 167.849 32.8183 167.164 33.2333C167.164 33.2333 161.689 29.7081 161.373 26.4706Z" fill="black"/>
<path d="M215.244 139.88C209.367 132.562 207.445 130.909 207.595 127.864C207.83 123.976 214.896 109.89 208.031 94.6549C205.698 89.2886 202.505 84.339 198.578 80.0012C193.747 74.7139 186.822 69.2018 176.412 63.7384C175.145 63.0869 173.883 62.4083 172.548 61.7975C170.04 60.3798 168.319 59.1896 167.45 58.0717C167.311 57.8809 167.186 57.6933 167.084 57.5258C167.556 57.3551 168.009 57.1356 168.435 56.8708C170.131 55.7129 171.406 54.0363 172.068 52.0926C173.055 49.5368 173.01 45.4523 171.187 41.4907L170.848 40.8017C170.594 40.2942 170.312 39.8014 170.002 39.3257L169.94 39.2605C168.064 36.3061 167.102 31.0922 163.278 27.9054C160.228 25.4986 156.623 23.8963 152.793 23.2453C148.963 22.5943 145.031 22.9156 141.358 24.1797C135.495 26.1956 128.102 32.0261 125.212 39.2829C121.15 49.8749 120.45 61.4611 123.206 72.4654C126.146 84.1043 134.716 101.154 149.598 113.992C165.31 127.554 177.7 129.548 187.949 130.699C193.204 131.267 198.261 132.5 199.843 136.018C201.184 138.97 195.92 147.189 196.842 156.923C197.731 166.414 202.914 175.525 205.352 176.119C210.011 177.255 216.871 169.426 219.315 159.407C220.71 153.655 219.843 145.596 215.244 139.88Z" fill="#BAD5DB"/>
<path opacity="0.3" d="M215.244 139.88C209.367 132.562 207.445 130.909 207.595 127.864C207.83 123.976 214.896 109.89 208.031 94.6549C205.698 89.2886 202.505 84.339 198.578 80.0012C193.747 74.7139 186.822 69.2018 176.412 63.7384C175.145 63.0869 173.883 62.4083 172.548 61.7975C170.04 60.3798 168.319 59.1896 167.45 58.0717C167.311 57.8809 167.186 57.6933 167.084 57.5258C167.556 57.3551 168.009 57.1356 168.435 56.8708C170.131 55.7129 171.406 54.0363 172.068 52.0926C173.055 49.5368 173.01 45.4523 171.187 41.4907L170.848 40.8017C170.594 40.2942 170.312 39.8014 170.002 39.3257L169.94 39.2605C168.064 36.3061 167.102 31.0922 163.278 27.9054C160.228 25.4986 156.623 23.8963 152.793 23.2453C148.963 22.5943 145.031 22.9156 141.358 24.1797C135.495 26.1956 128.102 32.0261 125.212 39.2829C121.15 49.8749 120.45 61.4611 123.206 72.4654C126.146 84.1043 134.716 101.154 149.598 113.992C165.31 127.554 177.7 129.548 187.949 130.699C193.204 131.267 198.261 132.5 199.843 136.018C201.184 138.97 195.92 147.189 196.842 156.923C197.731 166.414 202.914 175.525 205.352 176.119C210.011 177.255 216.871 169.426 219.315 159.407C220.71 153.655 219.843 145.596 215.244 139.88Z" fill="black"/>
<path opacity="0.15" d="M202.199 143.055C206.054 135.67 204.511 132.462 200.027 130.284C195.543 128.106 182.458 126.678 179.229 120.875C175.999 115.073 170.099 104.253 164.655 99.544C151.229 87.9021 141.075 86.3607 131.857 77.7352C122.639 69.1098 121.076 55.5667 124.364 41.5871C121.071 51.552 120.67 62.2461 123.206 72.4298C126.147 84.0687 134.716 101.118 149.598 113.957C165.31 127.519 177.7 129.513 187.949 130.663C193.204 131.231 198.261 132.465 199.843 135.982C201.185 138.934 195.92 147.153 196.842 156.887C197.563 164.582 201.108 172.045 203.721 174.901C198.154 166.517 198.343 150.44 202.199 143.055Z" fill="black"/>
<path d="M198.068 86.4401C198.233 84.8826 197.317 83.6675 195.376 81.7675C197.356 82.0434 198.449 81.2185 198.575 80.0007C193.743 74.7135 186.819 69.2013 176.409 63.738C174.702 62.9292 173.355 62.2798 172.545 61.797C170.037 60.3793 168.316 59.1891 167.447 58.0712C167.308 57.8804 167.183 57.6929 167.081 57.5254C167.553 57.3547 168.006 57.1351 168.432 56.8703C170.154 55.7152 171.449 54.0254 172.116 52.0615C173.232 48.9452 172.849 45.1064 171.192 41.4565L170.853 40.7676C170.599 40.2601 170.317 39.7673 170.008 39.2916L169.937 39.26C168.856 39.6987 167.948 40.4799 167.354 41.4838C166.568 42.6617 165.93 43.99 164.812 44.8589C163.584 45.7251 162.078 46.1029 160.587 45.9188C158.061 45.6192 155.643 44.7165 153.539 43.287C151.915 42.2491 150.454 40.9582 148.716 40.1278C146.392 39.1013 143.781 38.928 141.342 39.6384C138.903 40.3488 136.794 41.8972 135.385 44.0109C134.85 44.7495 134.585 45.6496 134.635 46.5602C134.679 47.0086 134.888 47.4245 135.221 47.7274C135.555 48.0302 135.989 48.1982 136.44 48.1988C135.236 49.332 134.107 50.5976 134.454 52.4229C134.631 53.3934 135.606 54.2804 136.547 53.9892C136.137 55.0261 136.031 56.1588 136.243 57.2537C136.564 58.3092 137.756 59.1848 138.779 58.7637C138.582 58.8371 138.489 60.1841 138.472 60.401C138.422 60.9556 138.48 61.5146 138.641 62.0474C138.811 62.5085 139.152 62.8868 139.592 63.1044C140.033 63.322 140.54 63.3623 141.01 63.2171C140.539 63.9033 140.257 64.7012 140.193 65.5307C140.128 66.3602 140.283 67.1921 140.642 67.9428C140.955 68.6482 141.532 69.2034 142.248 69.4901C142.602 69.6182 142.989 69.627 143.348 69.515C143.708 69.4031 144.021 69.1765 144.24 68.87C144.239 69.6804 144.28 70.4904 144.361 71.2966C144.415 72.3023 144.695 73.2829 145.182 74.1647C145.518 74.7536 146.017 75.233 146.619 75.5456C147.221 75.8581 147.9 75.9905 148.576 75.9269C148.695 75.906 148.811 75.87 148.933 75.8357C149.189 77.4204 149.663 78.9621 150.342 80.4166C151.035 81.6985 152.198 83.6585 153.764 83.9335C154.168 84.0421 154.597 83.9908 154.964 83.7905C155.33 83.5901 155.605 83.2561 155.731 82.8581C155.658 83.6708 155.797 84.4886 156.133 85.2319C156.47 85.9752 156.994 86.6186 157.653 87.0997C158.312 87.5807 159.084 87.883 159.895 87.977C160.705 88.071 161.526 87.9535 162.278 87.6361C162.384 88.2628 162.619 88.8605 162.969 89.3912C163.319 89.9219 163.776 90.3738 164.31 90.7181C164.844 91.0625 165.444 91.2918 166.072 91.3913C166.7 91.4909 167.341 91.4585 167.956 91.2963C169.292 93.8907 173.385 94.4251 175.358 92.2737C176.527 93.7688 178.233 94.7482 180.114 95.003C180.436 95.0781 180.77 95.0849 181.095 95.0228C181.42 94.9607 181.728 94.8311 182 94.6424C182.114 94.5495 182.208 94.4348 182.277 94.305C182.345 94.1752 182.388 94.0329 182.401 93.8866C182.414 93.7402 182.398 93.5927 182.353 93.4527C182.308 93.3128 182.236 93.1831 182.14 93.0715C183.374 94.0074 184.743 94.9475 186.287 94.8747C187.832 94.8019 189.401 92.9588 188.546 91.6089C189.643 92.2524 190.873 92.6331 192.142 92.721C193.402 92.7289 194.557 92.4683 195.031 91.2855C195.467 90.229 194.884 89.4306 193.774 88.4536C195.826 88.6687 197.863 88.5661 198.068 86.4401Z" fill="#F0F0F0"/>
<path d="M176.28 119.507C175.073 115.389 172.549 107.747 174.432 100.024C175.625 95.1352 179.793 89.9167 182.953 92.114C185.488 93.8307 183.438 97.1474 183.438 97.1474C183.438 97.1474 185.497 94.8459 186.866 96.3996C188.235 97.9533 186.632 101.336 186.632 101.336C186.632 101.336 188.364 99.6184 189.25 101.746C190.137 103.874 188.174 107.798 188.174 107.798C190.16 105.649 192.226 108.179 190.979 111.421C189.732 114.662 190.638 118.671 191.852 121.621C193.066 124.571 195.707 129.217 190.547 132.267C185.545 135.228 168.913 128.305 164.498 124.175C169.356 125.231 178.076 125.659 176.28 119.507Z" fill="#BAD5DB"/>
<path opacity="0.45" d="M176.28 119.507C175.073 115.389 172.549 107.747 174.432 100.024C175.625 95.1352 179.793 89.9167 182.953 92.114C185.488 93.8307 183.438 97.1474 183.438 97.1474C183.438 97.1474 185.497 94.8459 186.866 96.3996C188.235 97.9533 186.632 101.336 186.632 101.336C186.632 101.336 188.364 99.6184 189.25 101.746C190.137 103.874 188.174 107.798 188.174 107.798C190.16 105.649 192.226 108.179 190.979 111.421C189.732 114.662 190.638 118.671 191.852 121.621C193.066 124.571 195.707 129.217 190.547 132.267C185.545 135.228 168.913 128.305 164.498 124.175C169.356 125.231 178.076 125.659 176.28 119.507Z" fill="black"/>
<g opacity="0.15">
<path d="M181.241 101.684C181.803 100.09 182.541 98.5639 183.442 97.134C183.442 97.134 185.492 93.8173 182.958 92.1006C182.723 91.9439 182.467 91.8214 182.197 91.7369C183.38 92.4175 183.076 93.6347 181.826 96.74C180.577 99.8453 181.241 101.684 181.241 101.684Z" fill="black"/>
<path d="M187.638 105.562C186.983 107.163 186.632 108.873 186.601 110.603C186.966 109.582 187.5 108.629 188.18 107.784C188.18 107.784 190.146 103.877 189.256 101.733C189.142 101.44 188.962 101.177 188.731 100.963C189.251 101.754 188.362 103.848 187.638 105.562Z" fill="black"/>
<path d="M186.871 96.3863C186.715 96.2022 186.518 96.0566 186.297 95.9609C186.869 96.393 186.644 98.6636 186.213 99.7285C185.782 100.793 184.727 102.897 184.668 104.424C185.133 103.285 185.799 102.239 186.634 101.336C186.634 101.336 188.233 97.9383 186.871 96.3863Z" fill="black"/>
</g>
<path d="M208.258 124.936C209.072 123.266 209.044 117.994 207.153 114.837C205.262 111.679 200.511 109.429 200.848 106.786C201.186 104.143 203.913 105.657 203.913 105.657C203.913 105.657 199.877 103.867 199.432 101.711C198.906 99.1001 201.987 99.716 201.987 99.716C200.748 98.967 199.623 98.044 198.647 96.9752C197.197 95.195 198.218 93.4963 200.192 93.5639C200.192 93.5639 196.813 90.3358 199.784 88.7418C202.755 87.1478 207.739 90.5817 210.718 93.6339C214.144 97.1374 216.82 102.256 216.581 109.816C216.346 115.373 212.643 127.432 208.258 124.936Z" fill="#BAD5DB"/>
<path opacity="0.45" d="M208.258 124.936C209.072 123.266 209.044 117.994 207.153 114.837C205.262 111.679 200.511 109.429 200.848 106.786C201.186 104.143 203.913 105.657 203.913 105.657C203.913 105.657 199.877 103.867 199.432 101.711C198.906 99.1001 201.987 99.716 201.987 99.716C200.748 98.967 199.623 98.044 198.647 96.9752C197.197 95.195 198.218 93.4963 200.192 93.5639C200.192 93.5639 196.813 90.3358 199.784 88.7418C202.755 87.1478 207.739 90.5817 210.718 93.6339C214.144 97.1374 216.82 102.256 216.581 109.816C216.346 115.373 212.643 127.432 208.258 124.936Z" fill="black"/>
<g opacity="0.15">
<path d="M200.117 93.5529C202.005 93.8181 203.8 94.5374 205.349 95.649C204.665 94.4979 203.71 93.5307 202.569 92.831C200.492 91.4612 199.54 90.8011 199.479 89.9374C199.481 89.6592 199.546 89.385 199.67 89.1358C199.794 88.8867 199.973 88.669 200.194 88.4994C200.032 88.5542 199.876 88.6209 199.724 88.6988C196.725 90.3215 200.117 93.5529 200.117 93.5529Z" fill="black"/>
<path d="M198.592 96.9693C199.569 98.0381 200.694 98.9611 201.933 99.71C203.149 99.9596 204.328 100.365 205.441 100.915C205.441 100.915 205.049 100.156 202.706 98.8214C200.363 97.4868 199.637 96.7816 199.019 95.8321C198.402 94.8826 198.595 94.0309 199.054 93.7004C197.856 94.1932 197.447 95.5487 198.592 96.9693Z" fill="black"/>
<path d="M206.368 107.354C206.272 106.858 206.079 106.385 205.8 105.963C205.521 105.541 205.162 105.178 204.742 104.896C203.396 104.097 199.279 102.137 199.491 100.42C199.299 100.823 199.258 101.281 199.376 101.711C199.75 103.543 202.674 105.098 203.577 105.547L203.544 105.538L203.852 105.678C204.83 105.993 205.701 106.573 206.368 107.354Z" fill="black"/>
</g>
<path opacity="0.1" d="M131.554 36.5633L127.647 34.7974C126.928 35.824 126.294 36.9077 125.751 38.0376C127.787 38.3485 129.952 38.0704 131.554 36.5633Z" fill="black"/>
<path d="M135.418 31.2708C133.833 29.2006 130.341 26.8725 126.537 29.1051C122.732 31.3376 123.675 37.6812 130.017 36.9805C131.841 36.7833 134.6 35.3586 135.418 31.2708Z" fill="#BAD5DB"/>
<path opacity="0.4" d="M135.418 31.2708C133.833 29.2006 130.341 26.8725 126.537 29.1051C122.732 31.3376 123.675 37.6812 130.017 36.9805C131.841 36.7833 134.6 35.3586 135.418 31.2708Z" fill="black"/>
<path d="M133.369 32.0408C131.309 30.1902 128.379 29.9466 127.179 31.6228C126.082 33.1958 127.092 34.9046 129.01 34.7304C131.223 34.5209 132.148 32.806 133.369 32.0408Z" fill="#37474F"/>
<path d="M133.236 85.3624C129.405 82.8161 126.308 76.8245 127.893 70.2343C129.479 63.644 135.114 61.4513 136.159 64.4811C136.549 64.2474 136.998 64.1315 137.452 64.1473C137.907 64.1632 138.347 64.3101 138.719 64.5705C139.136 64.8339 139.449 65.2326 139.607 65.6996C139.765 66.1667 139.757 66.6737 139.585 67.1357C139.585 67.1357 142.402 67.1093 141.356 70.1999C140.31 73.2906 139.555 77.9647 142.11 80.7135C144.664 83.4622 146.58 86.2835 143.955 87.9764C141.331 89.6692 136.729 87.6838 133.236 85.3624Z" fill="#BAD5DB"/>
<path opacity="0.45" d="M133.236 85.3624C129.405 82.8161 126.308 76.8245 127.893 70.2343C129.479 63.644 135.114 61.4513 136.159 64.4811C136.549 64.2474 136.998 64.1315 137.452 64.1473C137.907 64.1632 138.347 64.3101 138.719 64.5705C139.136 64.8339 139.449 65.2326 139.607 65.6996C139.765 66.1667 139.757 66.6737 139.585 67.1357C139.585 67.1357 142.402 67.1093 141.356 70.1999C140.31 73.2906 139.555 77.9647 142.11 80.7135C144.664 83.4622 146.58 86.2835 143.955 87.9764C141.331 89.6692 136.729 87.6838 133.236 85.3624Z" fill="black"/>
<g opacity="0.15">
<path d="M142.109 80.7132C139.558 77.951 140.311 73.2836 141.355 70.1996C141.873 68.6636 141.438 67.9012 140.874 67.5212C141.294 67.9374 140.642 70.3181 139.968 71.2381C139.294 72.1582 138.466 70.872 138.466 70.872C138.466 70.872 136.906 71.9182 136.968 73.0676C136.975 73.5546 137.014 74.0407 137.084 74.5227C137.084 74.5227 136.526 74.2939 136.091 75.4933C135.656 76.6927 137.248 78.472 137.248 78.472C137.248 78.472 135.952 79.3402 136.814 81.3053C137.676 83.2704 140.547 83.8993 142.033 84.1546C143.519 84.4099 145.357 85.6784 144.517 87.5139C146.243 85.8162 144.453 83.2395 142.109 80.7132Z" fill="black"/>
<path d="M139.598 67.1387C139.739 66.7306 139.758 66.2902 139.652 65.8716C139.546 65.453 139.321 65.0743 139.003 64.7821C139.032 65.5276 138.775 66.2561 138.285 66.8185C137.758 67.5257 137.357 68.3185 137.1 69.162C137.1 69.162 138.242 67.5214 139.598 67.1387Z" fill="black"/>
<path d="M136.158 64.4808C136.073 64.2079 135.926 63.958 135.729 63.7505C135.533 63.543 135.291 63.3834 135.023 63.2838C135.103 63.5089 135.115 63.7524 135.059 63.9845C135.002 64.2165 134.879 64.427 134.704 64.5901C134.067 65.3331 133.609 66.2121 133.364 67.1597C134.077 66.0633 135.033 65.1464 136.158 64.4808Z" fill="black"/>
</g>
<path d="M146.059 73.558C143.814 70.2427 141.78 69.5182 139.583 70.1596C139.215 70.2326 138.869 70.3928 138.576 70.6267C138.282 70.8607 138.049 71.1615 137.895 71.5042C137.742 71.8468 137.673 72.2212 137.694 72.596C137.715 72.9708 137.826 73.3351 138.016 73.6584C137.789 73.6704 137.567 73.731 137.365 73.8361C137.162 73.9412 136.985 74.0884 136.845 74.2678C136.704 74.4471 136.604 74.6545 136.551 74.876C136.497 75.0974 136.492 75.3277 136.535 75.5514C136.651 76.1063 136.888 76.6287 137.228 77.0817C137.569 77.5347 138.006 77.9071 138.507 78.1724C138.262 78.2534 138.04 78.3936 137.863 78.5805C137.685 78.7675 137.556 78.9955 137.488 79.2442C137.42 79.4929 137.414 79.7546 137.471 80.0062C137.528 80.2577 137.646 80.4913 137.815 80.6861C138.979 82.4965 141.857 83.7406 144.544 83.1971C147.23 82.6537 148.297 76.8717 146.059 73.558Z" fill="#37474F"/>
<path d="M140.381 77.3883C139.313 77.028 138.528 76.7081 137.767 76.4083C137.43 76.268 137.137 76.0393 136.92 75.7465C136.702 75.4536 136.568 75.1074 136.531 74.7446C136.464 75.0048 136.451 75.2762 136.494 75.5416C136.61 76.0964 136.847 76.6189 137.188 77.0719C137.529 77.5249 137.965 77.8972 138.466 78.1625C139.654 78.0178 140.859 78.2248 141.931 78.7577C141.931 78.7577 142.075 77.9584 140.381 77.3883Z" fill="#263238"/>
<path d="M141.414 74.6509C141.414 74.6509 141.293 73.6515 139.783 72.9979C138.274 72.3444 138.219 71.0755 138.757 70.5362C138.244 70.8496 137.876 71.3536 137.733 71.9379C137.591 72.5223 137.686 73.1393 137.997 73.6538C139.644 73.5703 141.045 73.9975 141.414 74.6509Z" fill="#263238"/>
<path opacity="0.15" d="M191.081 74.4351C191.084 74.2434 191.067 73.64 191.022 73.0368C187.286 70.1311 183.328 67.5226 179.185 65.2351C179.465 66.8075 179.418 68.4207 179.049 69.9746C178.548 73.5193 175.473 77.9413 173.391 79.8378C173.034 80.0954 172.768 80.4595 172.632 80.8778C172.495 81.2961 172.494 81.747 172.63 82.1655C172.766 82.5841 173.031 82.9488 173.388 83.207C173.744 83.4653 174.173 83.6039 174.613 83.6028C174.451 83.8348 174.338 84.0974 174.281 84.3746C174.224 84.6518 174.224 84.9377 174.281 85.2148C174.339 85.4919 174.452 85.7544 174.614 85.9862C174.776 86.218 174.984 86.4142 175.225 86.5629C175.706 86.9186 176.276 87.1328 176.872 87.181C177.468 87.2292 178.066 87.1097 178.597 86.8358C178.597 86.8358 180.896 89.3154 184.756 87.0035C188.615 84.6916 190.987 79.7626 191.081 74.4351Z" fill="black"/>
<path d="M184.478 85.8869C180.612 88.1971 178.746 85.8445 178.746 85.8445C178.213 86.1171 177.614 86.2358 177.018 86.1873C176.421 86.1388 175.849 85.925 175.367 85.5699C175.126 85.4206 174.919 85.2236 174.757 84.9911C174.595 84.7586 174.482 84.4953 174.425 84.2177C174.369 83.94 174.37 83.6537 174.428 83.3763C174.486 83.099 174.6 82.8364 174.763 82.6048C174.325 82.6042 173.898 82.4651 173.543 82.2073C173.189 81.9495 172.925 81.5862 172.789 81.1693C172.653 80.7524 172.653 80.3033 172.787 79.8861C172.922 79.469 173.186 79.1051 173.54 78.8465C175.621 76.95 177.946 73.5006 178.444 69.9408C178.941 66.3809 178.003 64.6684 177.948 64.5695C177.444 64.2968 176.933 64.0224 176.407 63.7514C174.7 62.9427 173.353 62.2932 172.543 61.8104C170.035 60.3928 168.314 59.2026 167.445 58.0847C167.306 57.8939 167.181 57.7063 167.079 57.5388C171.619 57.4688 180.814 58.9905 184.586 61.8078C188.129 64.4483 190.058 67.6579 190.208 72.4529C190.208 72.7739 190.214 73.1034 190.209 73.4446C190.137 78.7418 188.34 83.5683 184.478 85.8869Z" fill="#BAD5DB"/>
<path opacity="0.45" d="M184.478 85.8869C180.612 88.1971 178.746 85.8445 178.746 85.8445C178.213 86.1171 177.614 86.2358 177.018 86.1873C176.421 86.1388 175.849 85.925 175.367 85.5699C175.126 85.4206 174.919 85.2236 174.757 84.9911C174.595 84.7586 174.482 84.4953 174.425 84.2177C174.369 83.94 174.37 83.6537 174.428 83.3763C174.486 83.099 174.6 82.8364 174.763 82.6048C174.325 82.6042 173.898 82.4651 173.543 82.2073C173.189 81.9495 172.925 81.5862 172.789 81.1693C172.653 80.7524 172.653 80.3033 172.787 79.8861C172.922 79.469 173.186 79.1051 173.54 78.8465C175.621 76.95 177.946 73.5006 178.444 69.9408C178.941 66.3809 178.003 64.6684 177.948 64.5695C177.444 64.2968 176.933 64.0224 176.407 63.7514C174.7 62.9427 173.353 62.2932 172.543 61.8104C170.035 60.3928 168.314 59.2026 167.445 58.0847C167.306 57.8939 167.181 57.7063 167.079 57.5388C171.619 57.4688 180.814 58.9905 184.586 61.8078C188.129 64.4483 190.058 67.6579 190.208 72.4529C190.208 72.7739 190.214 73.1034 190.209 73.4446C190.137 78.7418 188.34 83.5683 184.478 85.8869Z" fill="black"/>
<g opacity="0.15">
<path d="M174.22 81.4382C173.364 81.3793 172.666 80.9664 172.653 80.4925C172.666 81.0483 172.892 81.578 173.285 81.9714C173.678 82.3648 174.207 82.5917 174.763 82.605C175.973 81.6271 177.082 80.5305 178.073 79.3314C176.935 80.2525 175.181 81.5083 174.22 81.4382Z" fill="black"/>
<path d="M182.479 82.2678C181.441 83.3454 180.173 84.1749 178.77 84.6948C176.422 85.5489 174.86 84.9898 174.411 84.3452C174.554 84.8707 174.894 85.3212 175.359 85.6038C175.842 85.9589 176.413 86.1727 177.01 86.2212C177.607 86.2697 178.205 86.151 178.738 85.8784C180.502 85.0529 182.479 82.2678 182.479 82.2678Z" fill="black"/>
<path d="M179.72 86.5888C180.641 87.0273 182.207 87.2737 184.47 85.9208C188.332 83.6022 190.129 78.7757 190.229 73.4498C190.234 73.1085 190.229 72.7791 190.229 72.458C190.009 76.2567 187.922 85.9848 179.72 86.5888Z" fill="black"/>
</g>
<path d="M155.238 47.1541C155.202 47.2936 155.113 47.4133 154.989 47.4873C154.866 47.5614 154.718 47.5837 154.578 47.5496C154.439 47.5156 154.319 47.4277 154.244 47.3052C154.17 47.1827 154.147 47.0356 154.181 46.8963C154.215 46.7564 154.303 46.6355 154.425 46.56C154.548 46.4844 154.695 46.4601 154.836 46.4925C154.976 46.5285 155.096 46.6178 155.171 46.7414C155.247 46.865 155.271 47.0131 155.238 47.1541Z" fill="#455A64"/>
<path d="M165.166 52.0434C165.456 52.1141 165.748 51.9363 165.819 51.6463C165.89 51.3562 165.712 51.0637 165.422 50.993C165.132 50.9223 164.839 51.1001 164.768 51.3901C164.698 51.6802 164.875 51.9727 165.166 52.0434Z" fill="#455A64"/>
<path d="M169.678 44.1907C169.653 44.2962 169.596 44.3917 169.516 44.4649C169.436 44.5382 169.336 44.586 169.228 44.6023C169.121 44.6186 169.011 44.6025 168.913 44.5562C168.815 44.51 168.733 44.4355 168.677 44.3424C168.621 44.2492 168.594 44.1416 168.6 44.0332C168.605 43.9247 168.643 43.8204 168.708 43.7334C168.773 43.6463 168.862 43.5806 168.964 43.5445C169.067 43.5085 169.178 43.5036 169.283 43.5307C169.352 43.5476 169.418 43.5782 169.475 43.6207C169.533 43.6631 169.582 43.7166 169.619 43.778C169.655 43.8394 169.68 43.9075 169.69 43.9784C169.7 44.0492 169.696 44.1214 169.678 44.1907Z" fill="#455A64"/>
<path d="M154.715 53.8892C154.679 54.0287 154.589 54.1484 154.466 54.2224C154.342 54.2965 154.194 54.3188 154.055 54.2847C153.915 54.2507 153.795 54.1628 153.721 54.0403C153.646 53.9178 153.623 53.7707 153.657 53.6314C153.692 53.4915 153.779 53.3707 153.902 53.2951C154.025 53.2195 154.172 53.1952 154.312 53.2276C154.452 53.2636 154.573 53.3529 154.648 53.4765C154.723 53.6002 154.747 53.7483 154.715 53.8892Z" fill="#455A64"/>
<path d="M148.207 48.2502C148.497 48.3209 148.789 48.1431 148.86 47.8531C148.931 47.563 148.753 47.2705 148.463 47.1998C148.173 47.1291 147.88 47.3069 147.809 47.5969C147.739 47.887 147.917 48.1795 148.207 48.2502Z" fill="#455A64"/>
<path d="M149.123 51.4841C149.099 51.59 149.044 51.6861 148.964 51.7604C148.885 51.8347 148.786 51.8838 148.679 51.9014C148.571 51.9191 148.461 51.9044 148.363 51.8594C148.264 51.8144 148.181 51.741 148.124 51.6486C148.067 51.5561 148.038 51.4489 148.043 51.3404C148.047 51.2319 148.083 51.127 148.147 51.0392C148.211 50.9514 148.299 50.8845 148.401 50.8471C148.503 50.8097 148.614 50.8035 148.719 50.8292C148.859 50.8633 148.98 50.9512 149.056 51.0738C149.131 51.1964 149.156 51.3438 149.123 51.4841Z" fill="#455A64"/>
<path d="M158.032 51.2312C158.006 51.3367 157.95 51.4321 157.869 51.5054C157.789 51.5787 157.689 51.6265 157.582 51.6428C157.475 51.659 157.365 51.643 157.267 51.5967C157.168 51.5504 157.086 51.476 157.03 51.3829C156.974 51.2897 156.948 51.1821 156.953 51.0736C156.959 50.9652 156.996 50.8608 157.061 50.7738C157.126 50.6868 157.216 50.6211 157.318 50.585C157.42 50.5489 157.531 50.5441 157.636 50.5712C157.706 50.5881 157.771 50.6187 157.829 50.6612C157.887 50.7036 157.935 50.7571 157.972 50.8185C158.009 50.8799 158.033 50.948 158.043 51.0188C158.054 51.0897 158.05 51.1619 158.032 51.2312Z" fill="#455A64"/>
<path d="M168.291 53.9252C168.581 53.9959 168.873 53.8181 168.944 53.5281C169.015 53.238 168.837 52.9455 168.547 52.8748C168.257 52.804 167.964 52.9818 167.893 53.2719C167.823 53.562 168 53.8545 168.291 53.9252Z" fill="#455A64"/>
<path d="M143.965 62.3112C143.869 62.2881 143.785 62.2297 143.729 62.1475C143.674 62.0653 143.652 61.9654 143.667 61.8674C144.727 54.5927 149.449 51.6421 153.532 51.3108C153.585 51.3036 153.639 51.3072 153.691 51.3216C153.742 51.3359 153.79 51.3606 153.832 51.3942C153.874 51.4278 153.909 51.4695 153.934 51.5169C153.959 51.5642 153.974 51.6162 153.979 51.6697C153.983 51.7231 153.977 51.7769 153.96 51.8278C153.942 51.8786 153.915 51.9255 153.88 51.9654C153.844 52.0054 153.8 52.0377 153.752 52.0604C153.703 52.083 153.65 52.0955 153.597 52.0971C149.813 52.4015 145.43 55.1635 144.449 61.994C144.442 62.0458 144.425 62.0958 144.399 62.141C144.373 62.1863 144.338 62.2259 144.297 62.2575C144.255 62.2892 144.208 62.3123 144.157 62.3255C144.107 62.3387 144.054 62.3418 144.002 62.3345L143.965 62.3112Z" fill="#455A64"/>
<path d="M139.693 57.303L139.646 57.2915C139.548 57.2535 139.469 57.1783 139.427 57.0824C139.385 56.9865 139.383 56.8778 139.421 56.7801C142.727 48.0484 150.181 48.3464 152.776 49.2004C152.875 49.2354 152.956 49.3075 153.002 49.4014C153.049 49.4953 153.057 49.6036 153.024 49.7033C153.009 49.7526 152.983 49.7984 152.95 49.8378C152.916 49.8772 152.875 49.9095 152.829 49.9328C152.783 49.9561 152.732 49.9699 152.681 49.9734C152.629 49.9769 152.577 49.9701 152.528 49.9533C150.13 49.1687 143.245 48.9094 140.152 57.0583C140.119 57.1487 140.054 57.2238 139.969 57.269C139.885 57.3142 139.786 57.3263 139.693 57.303Z" fill="#455A64"/>
<path d="M138.987 48.0282C138.915 48.0105 138.85 47.9724 138.8 47.9184C138.764 47.8807 138.736 47.8363 138.717 47.7877C138.698 47.7391 138.689 47.6873 138.691 47.6353C138.692 47.5833 138.704 47.532 138.725 47.4845C138.746 47.437 138.777 47.3942 138.815 47.3585C143.207 43.1861 150.349 44.9349 152.768 47.2726C152.845 47.3452 152.89 47.4455 152.893 47.5512C152.896 47.6569 152.857 47.7595 152.784 47.8364C152.711 47.9133 152.611 47.9582 152.505 47.9612C152.4 47.9641 152.297 47.925 152.22 47.8523C150.043 45.7519 143.34 44.1603 139.356 47.9471C139.307 47.991 139.247 48.0215 139.182 48.0357C139.117 48.0499 139.05 48.0473 138.987 48.0282Z" fill="#455A64"/>
<path d="M167.964 47.1896C167.89 47.1712 167.823 47.1326 167.77 47.0781C167.7 47.0025 167.661 46.9022 167.664 46.7988C167.667 46.6953 167.71 46.597 167.784 46.525C170.087 44.3045 176.629 42.6965 181.454 47.3971C181.53 47.4707 181.575 47.5717 181.577 47.6779C181.579 47.7842 181.539 47.8869 181.465 47.9636C181.392 48.0402 181.291 48.0845 181.185 48.0867C181.078 48.0889 180.976 48.0488 180.899 47.9753C176.438 43.6272 170.435 45.0741 168.327 47.1068C168.277 47.1488 168.219 47.1783 168.156 47.1927C168.093 47.2071 168.027 47.206 167.964 47.1896Z" fill="#455A64"/>
<path d="M166.966 49.4291C166.865 49.4026 166.779 49.338 166.725 49.249C166.697 49.2045 166.679 49.155 166.671 49.1034C166.663 49.0519 166.665 48.9992 166.677 48.9485C166.69 48.8978 166.712 48.85 166.743 48.808C166.774 48.7659 166.813 48.7304 166.858 48.7035C170.196 46.7141 176.672 46.4882 180.004 51.1958C180.064 51.2815 180.088 51.3877 180.071 51.4911C180.053 51.5944 179.995 51.6865 179.909 51.7469C179.823 51.8074 179.717 51.8313 179.614 51.8135C179.51 51.7956 179.418 51.7375 179.358 51.6518C176.294 47.3376 170.368 47.562 167.248 49.4123C167.16 49.4539 167.059 49.4599 166.966 49.4291Z" fill="#455A64"/>
<path d="M177.84 57.4736C177.76 57.452 177.689 57.407 177.636 57.3443C177.582 57.2816 177.549 57.2042 177.54 57.1223C177.471 56.2262 177.207 55.356 176.765 54.573C176.324 53.79 175.717 53.1132 174.986 52.5901C173.164 51.2895 170.912 50.7403 168.697 51.0565C168.595 51.076 168.49 51.055 168.404 50.998C168.318 50.941 168.258 50.8525 168.236 50.7516C168.224 50.7007 168.223 50.648 168.233 50.5966C168.242 50.5453 168.261 50.4963 168.29 50.4527C168.319 50.4091 168.356 50.3716 168.399 50.3427C168.443 50.3137 168.491 50.2938 168.543 50.2841C170.975 49.9041 173.459 50.4919 175.463 51.9216C176.279 52.5147 176.959 53.2768 177.455 54.156C177.951 55.0353 178.251 56.011 178.336 57.0168C178.345 57.1203 178.313 57.2231 178.247 57.3031C178.181 57.3831 178.086 57.4338 177.983 57.4442C177.937 57.4617 177.889 57.4716 177.84 57.4736Z" fill="#455A64"/>
<path d="M166.083 46.1177C166.111 45.1829 163.787 43.1893 162.524 43.1597C161.261 43.13 158.931 45.2868 158.329 46.2602C157.728 47.2336 159.209 47.8016 159.209 47.8016C159.314 47.9556 160.045 47.827 160.42 47.1054C160.861 46.264 161.548 47.0165 161.161 47.4927C160.773 47.969 160.4 47.9779 159.516 48.1831C158.859 48.6223 160.328 49.0945 161.595 51.1228C163.991 50.0734 164.969 48.7566 164.718 48.3529C163.929 48.1037 163.589 48.0065 163.556 47.2637C163.553 46.6922 164.352 46.4303 164.328 47.2878C164.308 47.4821 164.36 47.677 164.474 47.836C164.587 47.9949 164.755 48.1071 164.945 48.1516C165.283 47.9278 165.563 47.6265 165.761 47.2727C165.959 46.9189 166.069 46.5229 166.083 46.1177Z" fill="#37474F"/>
<path d="M151.916 39.8595C150.399 38.2411 147.993 38.9813 148.107 40.0934C148.221 41.2056 150.163 40.6732 151.079 41.8025C151.995 42.9319 153.58 41.6065 151.916 39.8595Z" fill="#37474F"/>
<path d="M166.927 39.4748C168.171 38.0017 170.292 38.5475 170.242 39.5127C170.192 40.4779 168.479 40.1029 167.711 41.1142C166.944 42.1256 165.564 41.083 166.927 39.4748Z" fill="#37474F"/>
<path opacity="0.15" d="M169.426 59.8238C168.276 60.631 166.869 60.9841 165.475 60.8149C165.475 60.8149 162.146 64.8972 154.772 63.7481C147.397 62.5991 143.294 59.0087 142.018 57.0712C141.264 56.8873 138.442 54.0091 139.821 50.8996C139.618 52.9903 140.746 54.8849 142.647 56.2473C142.712 56.3527 142.789 56.4503 142.876 56.5384C142.91 56.5858 142.95 56.629 142.994 56.6672C143.788 57.4572 144.705 58.1123 145.71 58.6064L145.751 58.6163C146.343 58.9326 146.953 59.217 147.576 59.468C149.079 60.0804 150.637 60.5486 152.229 60.8665C153.245 61.0797 154.276 61.2143 155.312 61.2689C158.665 61.4444 160.802 60.9597 162.153 60.2761C162.339 60.1859 162.5 60.0824 162.656 59.9992C163.076 59.7682 163.445 59.4556 163.743 59.0797C164.04 58.7039 164.26 58.2724 164.388 57.8106C165.294 57.9894 166.232 57.8818 167.074 57.5025C167.176 57.67 167.301 57.8576 167.44 58.0484C168.014 58.732 168.683 59.3299 169.426 59.8238Z" fill="black"/>
<path opacity="0.07" d="M164.397 57.8341C164.273 58.3029 164.054 58.7415 163.755 59.1234C163.456 59.5054 163.082 59.8227 162.657 60.0564C162.501 60.1396 162.34 60.2431 162.154 60.3333C160.804 61.0169 158.666 61.5016 155.314 61.3261C154.277 61.2714 153.246 61.1369 152.23 60.9237C150.638 60.6058 149.08 60.1376 147.577 59.5252C146.954 59.2742 146.345 58.9898 145.752 58.6734L145.711 58.6636C144.55 58.1245 143.524 57.3307 142.711 56.3411C144.247 57.3649 145.982 58.0552 147.801 58.3675C149.621 58.6797 151.486 58.6071 153.276 58.1541C160.877 56.2408 161.67 51.0268 161.67 51.0268C161.934 53.7165 164.029 55.1332 164.397 57.8341Z" fill="black"/>
<path d="M105.969 42.7158C108.615 41.549 113.328 43.4901 113.9 46.4117C114.562 49.7833 112.086 50.1641 112.086 50.1641L105.969 42.7158Z" fill="#37474F"/>
<path d="M213.383 151.404C207.313 147.51 200.259 145.426 193.047 145.397C184.832 145.412 172.78 140.454 171.263 136.874C169.746 133.294 172.232 119.119 167.193 109.679C162.954 101.521 155.982 95.1114 147.496 91.5717C145.003 90.5927 141.011 88.913 136.68 87.0437C128.822 83.6365 119.908 79.6152 117.144 78.0494C114.634 76.6385 112.914 75.4415 112.045 74.3237C111.914 74.1483 111.791 73.9661 111.679 73.7778C112.149 73.6108 112.599 73.3929 113.022 73.1279C114.723 71.9722 116 70.2918 116.657 68.3429C117.707 65.6455 117.601 61.2252 115.443 57.0537C115.187 56.5477 114.901 56.0566 114.589 55.5828L114.54 55.4923C112.664 52.5379 111.702 47.324 107.878 44.1372C104.827 41.7318 101.222 40.1309 97.3916 39.4811C93.5616 38.8313 89.6297 39.1536 85.9565 40.4182C80.088 42.4257 72.702 48.2579 69.8124 55.5147C65.7482 66.1054 65.0453 77.6911 67.7994 88.6955C70.7465 100.336 85.0921 117.453 101.671 128.016C118.249 138.579 136.485 145.066 146.748 145.985C157.011 146.903 159.22 146.386 164.421 148.111C169.622 149.836 174.919 154.794 182.9 160.093C190.882 165.393 202.036 165.437 211.982 162.534C221.928 159.63 218.356 154.593 213.383 151.404Z" fill="#455A64"/>
<path opacity="0.15" d="M215.267 161.209C215.267 161.209 204.354 164.069 192.716 161.417C181.078 158.764 176.523 151.761 173.723 148.06C170.922 144.36 164.391 138.494 152.867 138.538C141.342 138.581 125.814 136.378 114.071 130.119C91.6146 118.151 84.9328 109.188 78.4518 98.0271L73.3079 100.34C79.5871 110.018 90.0756 120.601 101.665 127.985C118.23 138.545 136.48 145.035 146.742 145.954C157.005 146.873 159.214 146.356 164.415 148.081C169.616 149.806 174.913 154.764 182.895 160.063C190.877 165.362 202.03 165.407 211.976 162.503C213.112 162.178 214.214 161.745 215.267 161.209Z" fill="black"/>
<path d="M75.371 53.018C74.83 53.7468 74.0247 54.2344 73.128 54.3757C72.1961 54.6252 71.2109 54.5911 70.2984 54.2778L71.0084 52.9458L75.371 53.018Z" fill="#37474F"/>
<path d="M75.3724 53.018C69.319 55.0232 66.8065 48.7391 70.1787 45.8804C73.551 43.0216 77.4078 43.9978 79.9972 46.1344C79.9906 46.1614 80.2887 49.4443 75.3724 53.018Z" fill="#455A64"/>
<path d="M77.8267 47.5744C75.4816 46.1037 72.5515 46.3593 71.6578 48.2103C70.8123 49.9516 72.1272 51.4636 73.9902 50.9619C76.1351 50.3864 76.7581 48.5337 77.8267 47.5744Z" fill="#37474F"/>
<path d="M143.131 100.345C143.277 98.1048 141.43 96.1134 139.489 94.9766C140.863 95.3687 142.075 93.6739 141.81 92.2752C141.544 90.8765 140.367 89.8545 139.254 88.9768C138.411 88.3076 137.552 87.6486 136.686 87.0165C128.828 83.6094 119.914 79.5881 117.149 78.0223C114.64 76.6114 112.92 75.4144 112.051 74.2965C111.92 74.1211 111.797 73.9389 111.685 73.7507C112.155 73.5837 112.605 73.3658 113.028 73.1007C114.532 72.1691 115.758 70.9131 116.766 68.2126C117.957 65.0286 117.474 60.8945 115.453 57.0131C115.194 56.5082 114.909 56.0173 114.598 55.5421L114.549 55.4517C113.468 55.8913 112.559 56.6714 111.96 57.6738C111.18 58.8533 110.542 60.1816 109.424 61.0505C108.196 61.9176 106.69 62.2978 105.198 62.1172C102.672 61.8126 100.256 60.9079 98.151 59.4786C96.5279 58.4407 95.0663 57.1498 93.3284 56.3194C91.0053 55.2901 88.3931 55.1153 85.9536 55.8259C83.514 56.5365 81.4042 58.0867 79.9972 60.2025C79.4639 60.9416 79.1971 61.8398 79.2404 62.7502C79.2856 63.1994 79.4959 63.6158 79.8306 63.9188C80.1653 64.2218 80.6005 64.3899 81.0519 64.3904C79.8482 65.5236 78.7176 66.796 79.066 68.6145C79.2431 69.585 80.2181 70.472 81.1595 70.1808C80.7452 71.2168 80.6397 72.3506 80.8557 73.4453C81.1745 74.5075 82.3663 75.3831 83.3842 74.9536C83.2292 75.4834 83.1276 76.0275 83.081 76.5775C83.03 77.1321 83.0875 77.6913 83.2502 78.2239C83.4218 78.6838 83.7618 79.0612 84.2013 79.2797C84.6408 79.4981 85.147 79.5413 85.6171 79.4003C85.1474 80.0856 84.8663 80.8825 84.802 81.7108C84.7378 82.5391 84.8927 83.3698 85.2512 84.1193C85.5617 84.8265 86.1388 85.3825 86.8571 85.6666C87.2112 85.7947 87.5976 85.8035 87.9572 85.6915C88.3168 85.5796 88.63 85.353 88.8488 85.0465C88.5131 85.7208 88.8973 86.7491 88.9705 87.4731C89.0155 88.4788 89.294 89.4601 89.7839 90.3395C90.1203 90.9285 90.6194 91.4079 91.2214 91.7204C91.8234 92.033 92.5026 92.1653 93.1779 92.1017C93.2967 92.0783 93.4139 92.0473 93.5287 92.0089C93.0388 92.1748 94.7281 96.2179 94.937 96.5898C95.6303 97.8718 96.7915 99.8385 98.3581 100.113C98.7618 100.204 99.1846 100.144 99.5471 99.9446C99.9096 99.7453 100.187 99.4205 100.327 99.0313C100.254 99.844 100.392 100.662 100.729 101.405C101.066 102.148 101.589 102.792 102.248 103.273C102.907 103.754 103.68 104.056 104.49 104.15C105.301 104.244 106.122 104.127 106.874 103.809C106.978 104.437 107.212 105.036 107.561 105.568C107.91 106.1 108.367 106.552 108.902 106.897C109.436 107.242 110.037 107.471 110.666 107.569C111.294 107.668 111.937 107.634 112.551 107.47C113.886 110.071 117.979 110.605 119.947 108.445C121.118 109.938 122.822 110.919 124.701 111.181C125.024 111.254 125.359 111.259 125.684 111.198C126.01 111.136 126.319 111.008 126.594 110.822C126.707 110.728 126.801 110.613 126.869 110.483C126.938 110.352 126.98 110.21 126.993 110.063C127.006 109.916 126.99 109.769 126.946 109.628C126.902 109.488 126.83 109.357 126.736 109.245C127.97 110.181 129.337 111.128 130.883 111.048C132.429 110.968 133.997 109.132 133.142 107.782C134.467 108.379 135.92 108.635 137.369 108.528C139.175 108.347 140.409 107.764 140.847 106.579C141.283 105.523 140.593 103.614 139.53 102.912C141.861 103.502 142.997 102.474 143.131 100.345Z" fill="#EBEBEB"/>
<path d="M172.421 135.338C170.388 136.04 168.671 134.509 168.032 130.344C167.392 126.179 166.299 124.692 164.436 122.768C162.158 120.408 162.775 118.668 164.688 119.042C164.688 119.042 160.671 117.056 160.354 115.488C159.972 113.633 162.375 114.162 163.588 114.515C163.588 114.515 158.437 112.467 157.659 110.772C156.881 109.077 158.684 108.732 160.032 108.882C160.032 108.882 153.258 105.739 157.769 103.972C161.8 102.393 169.211 106.084 172.285 111.263C175.359 116.443 177.39 123.68 176.326 128.421C175.263 133.163 174.089 134.76 172.421 135.338Z" fill="#37474F"/>
<path d="M133.96 85.8238C126.869 82.7248 119.601 79.4117 117.151 78.0223C114.7 76.6329 112.921 75.4144 112.052 74.2966C111.921 74.1212 111.799 73.939 111.686 73.7507C112.156 73.5837 112.606 73.3658 113.029 73.1008C113.519 72.7982 113.979 72.4494 114.403 72.059C118.622 73.4637 123.134 73.7503 127.498 72.8908C127.175 78.3979 129.929 83.1643 133.238 85.3623C133.471 85.519 133.711 85.6773 133.96 85.8238Z" fill="#37474F"/>
<path opacity="0.15" d="M67.8018 88.6533C69.2572 94.3871 73.4703 101.45 79.3521 108.398C81.7625 107.857 84.0482 106.862 86.0876 105.468C90.0242 102.811 96.2875 99.0379 100.662 99.7051C105.036 100.372 105.414 97.3612 104.258 96.6585C104.258 96.6585 106.983 94.9331 103.423 93.1518C103.423 93.1518 105.981 91.1147 99.7958 89.7705C93.6103 88.4263 85.3259 90.3654 80.3179 90.0146C75.3099 89.6637 71.7044 85.6385 72.5812 82.0428L67.6934 69.0872C67.2981 70.3597 66.8138 71.6028 66.2441 72.8073C65.9946 78.1368 66.5193 83.4743 67.8018 88.6533Z" fill="black"/>
<path d="M66.6472 67.9048C64.853 73.8877 60.4514 78.6856 59.7231 87.8747C58.9947 97.0638 61.5825 104.151 68.475 106.545C71.2169 107.533 74.1568 107.843 77.0447 107.451C79.9325 107.058 82.6828 105.974 85.0616 104.29C88.9982 101.634 95.2615 97.8604 99.636 98.5276C104.01 99.1948 104.388 96.1836 103.232 95.4809C103.232 95.4809 105.959 93.7489 102.397 91.9742C102.397 91.9742 104.955 89.9372 98.7698 88.593C92.5844 87.2487 84.2932 89.1863 79.292 88.837C74.2907 88.4878 73.107 82.9273 73.9838 79.3316C74.8605 75.7359 68.4313 61.9051 66.6472 67.9048Z" fill="#455A64"/>
<path d="M102.85 91.2573C102.647 91.3577 102.318 91.3343 101.77 91.0938C100.361 90.5632 98.844 90.3867 97.3512 90.5798C99.0766 90.8266 100.763 91.293 102.37 91.9678C102.592 91.779 102.758 91.5334 102.85 91.2573Z" fill="#37474F"/>
<path d="M104.2 93.855C104.2 93.855 104.015 94.6159 102.888 94.498C101.761 94.3802 100.377 93.9999 98.5181 94.6309C100.126 94.5293 101.735 94.8188 103.206 95.4745C103.206 95.4745 104.276 94.8009 104.2 93.855Z" fill="#37474F"/>
<path d="M103.767 96.774C103.587 97.9215 100.544 96.7372 96.1259 96.6014C91.7074 96.4657 85.8081 100.385 81.8005 102.689C77.2134 105.351 70.6022 104.203 68.9672 102.863C68.9672 102.863 71.6616 103.691 71.4199 101.727C71.2474 100.387 68.6917 98.8433 68.6917 98.8433C68.6917 98.8433 70.5891 99.0491 70.2042 97.9066C69.7374 96.5444 67.831 95.6443 66.4278 94.2606C64.0362 92.0166 62.5178 88.9973 62.1423 85.7394C61.8841 82.6731 63.6404 77.9864 64.7694 74.9658C65.5441 72.7386 66.1441 70.4544 66.5637 68.134C64.7251 74.0062 60.4311 78.8018 59.7189 87.8664C58.9989 97.0504 61.5934 104.139 68.4842 106.54C71.2262 107.528 74.1661 107.838 77.0539 107.446C79.9417 107.053 82.692 105.969 85.0709 104.285C89.0075 101.629 95.2708 97.8554 99.6452 98.5226C102.514 98.9581 103.657 97.8101 103.767 96.774Z" fill="#37474F"/>
<path opacity="0.15" d="M98.745 88.5866C92.5596 87.2423 84.2685 89.1799 79.2672 88.8306C74.2659 88.4814 73.0822 82.9209 73.959 79.3252C73.8585 83.4526 75.3032 86.1876 79.2288 87.1448C83.1545 88.1021 91.0835 86.0406 98.745 88.5866Z" fill="black"/>
<path d="M110.685 62.3424C110.713 61.4076 108.388 59.414 107.126 59.3843C105.863 59.3547 103.532 61.5115 102.933 62.4781C102.333 63.4448 103.812 64.0195 103.812 64.0195C103.911 64.1719 104.646 64.0517 105.024 63.3233C105.463 62.4887 106.149 63.2411 105.762 63.7174C105.375 64.1937 105.002 64.2026 104.117 64.4078C103.461 64.8469 104.929 65.3192 106.197 67.3475C108.594 66.2914 109.57 64.9813 109.327 64.544C108.539 64.2947 108.199 64.1975 108.166 63.4547C108.163 62.8832 108.955 62.6197 108.938 63.4788C108.915 63.6725 108.965 63.8677 109.078 64.0268C109.19 64.186 109.358 64.2979 109.548 64.341C109.882 64.1217 110.16 63.8262 110.357 63.4787C110.555 63.1312 110.667 62.7417 110.685 62.3424Z" fill="#37474F"/>
<path d="M96.5462 56.141C94.9521 54.6038 92.5802 55.4664 92.7531 56.5715C92.9259 57.6766 94.8419 57.0452 95.813 58.1238C96.7842 59.2024 98.2891 57.8287 96.5462 56.141Z" fill="#263238"/>
<path d="M111.797 55.7581C113.197 54.4372 115.247 55.2153 115.085 56.1745C114.922 57.1336 113.265 56.5582 112.411 57.4843C111.557 58.4104 110.259 57.1808 111.797 55.7581Z" fill="#263238"/>
<path d="M99.928 63.5645C99.9036 63.6703 99.8483 63.7664 99.7691 63.8408C99.6899 63.9151 99.5904 63.9642 99.4833 63.9818C99.3761 63.9994 99.2662 63.9848 99.1674 63.9397C99.0686 63.8947 98.9854 63.8213 98.9284 63.7289C98.8714 63.6365 98.8432 63.5292 98.8473 63.4207C98.8514 63.3122 98.8877 63.2073 98.9516 63.1195C99.0154 63.0317 99.1039 62.9648 99.2059 62.9274C99.3078 62.8901 99.4186 62.8838 99.5241 62.9095C99.664 62.9437 99.7849 63.0315 99.8605 63.1541C99.9361 63.2767 99.9603 63.4241 99.928 63.5645Z" fill="#455A64"/>
<path d="M110.516 68.0653C110.469 68.1917 110.378 68.2965 110.259 68.3598C110.141 68.4231 110.003 68.4405 109.872 68.4086C109.741 68.3768 109.627 68.2978 109.551 68.187C109.474 68.0761 109.442 67.941 109.459 67.8076C109.468 67.7311 109.494 67.6575 109.534 67.5917C109.574 67.5259 109.628 67.4693 109.692 67.4256C109.755 67.3819 109.827 67.3521 109.903 67.3382C109.979 67.3242 110.057 67.3265 110.132 67.3447C110.206 67.363 110.277 67.3969 110.338 67.4442C110.398 67.4914 110.449 67.551 110.485 67.619C110.521 67.6871 110.543 67.762 110.548 67.8389C110.553 67.9158 110.542 67.993 110.516 68.0653Z" fill="#455A64"/>
<path d="M114.365 60.6216C114.349 60.6914 114.319 60.7572 114.277 60.8154C114.236 60.8736 114.183 60.9228 114.122 60.9604C114.061 60.998 113.993 61.0231 113.923 61.0343C113.852 61.0454 113.78 61.0424 113.71 61.0255C113.634 61.0157 113.56 60.99 113.494 60.9498C113.428 60.9097 113.372 60.8561 113.328 60.7926C113.284 60.7291 113.255 60.6571 113.241 60.5812C113.227 60.5054 113.229 60.4275 113.247 60.3526C113.266 60.2777 113.299 60.2075 113.347 60.1466C113.394 60.0857 113.454 60.0355 113.522 59.9992C113.59 59.9629 113.664 59.9414 113.741 59.9361C113.818 59.9308 113.895 59.9418 113.968 59.9683C114.107 60.0023 114.227 60.0902 114.302 60.2127C114.376 60.3352 114.399 60.4823 114.365 60.6216Z" fill="#455A64"/>
<path d="M98.7476 70.6958C99.0376 70.7665 99.3301 70.5887 99.4009 70.2986C99.4716 70.0086 99.2938 69.7161 99.0037 69.6453C98.7137 69.5746 98.4212 69.7524 98.3504 70.0425C98.2797 70.3325 98.4575 70.625 98.7476 70.6958Z" fill="#455A64"/>
<path d="M93.5569 64.2655C93.5324 64.3716 93.4769 64.468 93.3973 64.5424C93.3178 64.6167 93.2179 64.6657 93.1105 64.683C93.003 64.7004 92.8927 64.6853 92.7939 64.6396C92.695 64.594 92.612 64.5199 92.5555 64.4269C92.4989 64.3339 92.4714 64.2261 92.4764 64.1173C92.4814 64.0086 92.5187 63.9038 92.5836 63.8163C92.6484 63.7289 92.7379 63.6627 92.8405 63.6264C92.9431 63.59 93.0543 63.5851 93.1597 63.6122C93.299 63.6462 93.4191 63.7341 93.4936 63.8566C93.5681 63.9791 93.5908 64.1262 93.5569 64.2655Z" fill="#455A64"/>
<path d="M93.1402 68.2942C93.4302 68.3649 93.7227 68.1871 93.7934 67.897C93.8642 67.6069 93.6864 67.3145 93.3963 67.2437C93.1062 67.173 92.8138 67.3508 92.743 67.6409C92.6723 67.9309 92.8501 68.2234 93.1402 68.2942Z" fill="#455A64"/>
<path d="M102.722 67.6419C102.706 67.7116 102.677 67.7775 102.635 67.8356C102.593 67.8938 102.54 67.9431 102.479 67.9807C102.418 68.0183 102.351 68.0434 102.28 68.0545C102.209 68.0657 102.137 68.0627 102.067 68.0457C101.991 68.036 101.917 68.0102 101.852 67.9701C101.786 67.93 101.729 67.8764 101.685 67.8129C101.642 67.7494 101.612 67.6773 101.598 67.6015C101.584 67.5257 101.586 67.4478 101.605 67.3729C101.623 67.298 101.657 67.2278 101.704 67.1669C101.751 67.106 101.811 67.0557 101.879 67.0195C101.947 66.9832 102.022 66.9617 102.099 66.9564C102.176 66.951 102.253 66.962 102.325 66.9886C102.465 67.0226 102.585 67.1105 102.659 67.233C102.734 67.3555 102.756 67.5026 102.722 67.6419Z" fill="#455A64"/>
<path d="M113.637 69.9468C113.612 70.052 113.555 70.1472 113.476 70.2204C113.396 70.2937 113.296 70.3416 113.189 70.3581C113.082 70.3747 112.973 70.3592 112.874 70.3135C112.776 70.2678 112.694 70.194 112.638 70.1015C112.581 70.0089 112.554 69.9018 112.558 69.7936C112.563 69.6854 112.6 69.581 112.664 69.4936C112.728 69.4063 112.816 69.3398 112.918 69.3027C113.019 69.2656 113.13 69.2595 113.235 69.2851C113.376 69.3195 113.498 69.4085 113.573 69.5326C113.649 69.6567 113.672 69.8057 113.637 69.9468Z" fill="#455A64"/>
<path d="M88.6566 78.7221C88.5621 78.6995 88.4795 78.6422 88.4252 78.5616C88.3709 78.4809 88.3488 78.3829 88.3633 78.2868C89.4238 71.012 94.1387 68.0598 98.2215 67.7285C98.3227 67.7255 98.4211 67.7613 98.4966 67.8288C98.572 67.8962 98.6187 67.9899 98.6271 68.0908C98.6354 68.1916 98.6047 68.2918 98.5414 68.3707C98.4781 68.4496 98.3869 68.5012 98.2866 68.5148C94.5095 68.8208 90.1213 71.5745 89.1389 78.4117C89.1238 78.5148 89.0684 78.6077 88.9851 78.6702C88.9017 78.7327 88.797 78.7598 88.6937 78.7454L88.6566 78.7221Z" fill="#455A64"/>
<path d="M84.3838 73.7207L84.3366 73.7093C84.2884 73.6913 84.2442 73.664 84.2066 73.6288C84.169 73.5936 84.1388 73.5513 84.1177 73.5044C84.0966 73.4574 84.0851 73.4067 84.0838 73.3552C84.0825 73.3038 84.0914 73.2526 84.1101 73.2046C87.4164 64.4729 94.8699 64.7709 97.4653 65.6249C97.5147 65.6405 97.5604 65.6658 97.5998 65.6994C97.6392 65.733 97.6715 65.7741 97.6948 65.8203C97.7181 65.8665 97.7319 65.917 97.7354 65.9686C97.739 66.0203 97.7321 66.0721 97.7153 66.121C97.6997 66.1704 97.6743 66.2161 97.6408 66.2555C97.6072 66.295 97.5661 66.3273 97.5199 66.3505C97.4737 66.3738 97.4232 66.3877 97.3716 66.3912C97.32 66.3947 97.2681 66.3878 97.2192 66.371C94.8276 65.5881 87.9358 65.3272 84.848 73.4844C84.8125 73.5734 84.7458 73.6465 84.6604 73.6899C84.575 73.7334 84.4767 73.7444 84.3838 73.7207Z" fill="#455A64"/>
<path d="M82.1611 67.2718C82.1261 67.2702 82.0918 67.2619 82.0601 67.2472C81.9697 67.1952 81.9031 67.1101 81.8743 67.0099C81.8455 66.9097 81.8567 66.8023 81.9057 66.7102C82.6586 65.4493 83.688 64.3757 84.9162 63.5705C86.1444 62.7652 87.5394 62.2493 88.996 62.0615C92.2254 61.5149 95.7208 62.2175 97.4882 63.7756C97.5341 63.8074 97.5727 63.8487 97.6016 63.8965C97.6304 63.9444 97.6487 63.9979 97.6553 64.0533C97.662 64.1088 97.6567 64.1651 97.64 64.2184C97.6233 64.2717 97.5955 64.3209 97.5584 64.3627C97.5212 64.4044 97.4757 64.4379 97.4247 64.4607C97.3737 64.4836 97.3184 64.4954 97.2626 64.4953C97.2067 64.4952 97.1515 64.4833 97.1005 64.4603C97.0496 64.4373 97.0041 64.4038 96.9671 64.3619C95.394 62.9725 92.0973 62.3327 89.1282 62.8357C87.7883 63.0046 86.5043 63.4755 85.3729 64.2129C84.2416 64.9504 83.2924 65.9351 82.5971 67.0928C82.5533 67.1655 82.4872 67.2222 82.4087 67.2545C82.3302 67.2867 82.2433 67.2928 82.1611 67.2718Z" fill="#455A64"/>
<path d="M112.639 63.6037C112.566 63.5853 112.499 63.5467 112.446 63.4922C112.375 63.4152 112.337 63.3137 112.34 63.2092C112.342 63.1047 112.386 63.0053 112.461 62.9323C113.842 61.5997 116.709 61.0435 119.276 61.6052C120.363 61.7844 121.386 62.2363 122.25 62.9187C123.114 63.601 123.791 64.4915 124.217 65.5067C124.242 65.5559 124.257 65.6097 124.259 65.6647C124.262 65.7198 124.253 65.7748 124.234 65.8262C124.214 65.8777 124.184 65.9244 124.145 65.9635C124.106 66.0026 124.059 66.0331 124.008 66.053C123.957 66.073 123.902 66.082 123.847 66.0795C123.791 66.0769 123.738 66.0629 123.688 66.0383C123.639 66.0137 123.595 65.979 123.56 65.9365C123.525 65.894 123.499 65.8447 123.484 65.7916C123.095 64.9045 122.492 64.128 121.728 63.5321C120.964 62.9361 120.064 62.5394 119.109 62.3777C116.813 61.875 114.192 62.3558 113.007 63.5007C112.959 63.5475 112.901 63.5815 112.837 63.5995C112.772 63.6175 112.704 63.619 112.639 63.6037Z" fill="#455A64"/>
<path d="M122.527 69.482C122.46 69.467 122.398 69.4341 122.348 69.3867C122.298 69.3394 122.262 69.2793 122.243 69.213C121.909 68.249 121.342 67.3825 120.592 66.6906C119.842 65.9987 118.933 65.5029 117.945 65.2473C115.746 64.5826 113.209 64.8058 112.031 65.7741C111.991 65.807 111.945 65.8316 111.895 65.8465C111.845 65.8615 111.793 65.8664 111.741 65.8611C111.689 65.8558 111.639 65.8403 111.594 65.8155C111.548 65.7908 111.507 65.7572 111.475 65.7168C111.442 65.6772 111.417 65.6315 111.402 65.5823C111.387 65.5331 111.382 65.4814 111.387 65.4302C111.393 65.379 111.408 65.3294 111.432 65.2842C111.457 65.239 111.49 65.1991 111.53 65.1668C112.914 64.0275 115.701 63.7441 118.173 64.4895C119.296 64.77 120.33 65.3304 121.179 66.1186C122.027 66.9067 122.662 67.8969 123.024 68.9967C123.039 69.0457 123.044 69.0972 123.039 69.1482C123.034 69.1993 123.019 69.2488 122.994 69.294C122.97 69.3391 122.937 69.379 122.897 69.4113C122.857 69.4437 122.812 69.4678 122.762 69.4823C122.686 69.5091 122.603 69.509 122.527 69.482Z" fill="#455A64"/>
<path d="M120.281 74.7629C120.195 74.7419 120.119 74.6931 120.063 74.6242C120.008 74.5552 119.977 74.4699 119.975 74.3814C119.97 72.0331 119.29 70.2266 117.974 69.0139C117.344 68.4629 116.61 68.0458 115.814 67.788C115.018 67.5302 114.178 67.4371 113.346 67.5144C113.294 67.5183 113.241 67.512 113.192 67.4956C113.142 67.4792 113.097 67.4532 113.057 67.4191C113.018 67.3849 112.985 67.3433 112.962 67.2966C112.939 67.2499 112.925 67.1991 112.922 67.147C112.915 67.0434 112.95 66.9415 113.019 66.8634C113.087 66.7853 113.184 66.7372 113.287 66.7297C114.23 66.6412 115.181 66.7468 116.081 67.0399C116.981 67.3331 117.812 67.8076 118.522 68.4341C119.989 69.7906 120.767 71.8352 120.782 74.3784C120.782 74.4304 120.772 74.482 120.752 74.53C120.732 74.5781 120.703 74.6218 120.666 74.6585C120.629 74.6953 120.585 74.7244 120.537 74.7442C120.489 74.7641 120.438 74.7742 120.386 74.7741L120.281 74.7629Z" fill="#455A64"/>
<path opacity="0.07" d="M108.996 74.0655C108.792 75.1358 107.277 77.9266 99.9123 77.5575C94.2776 77.2607 88.4685 74.4317 87.2792 72.5508C88.8206 73.5807 90.5613 74.2752 92.3884 74.5892C94.2155 74.9032 96.0881 74.8298 97.885 74.3737C105.485 72.4603 106.279 67.2464 106.279 67.2464C106.532 69.9546 108.601 71.3866 108.996 74.0655Z" fill="black"/>
<path opacity="0.15" d="M111.684 73.7506C110.842 74.1307 109.903 74.2407 108.996 74.0654C108.792 75.1357 107.277 77.9265 99.9118 77.5574C94.2771 77.2606 88.4681 74.4316 87.2788 72.5507C85.3781 71.1884 84.2274 69.2955 84.4354 67.1847C83.0565 70.2941 85.8872 73.1673 86.6329 73.3563C87.9065 75.2719 92.0357 78.8755 99.3866 80.0331C106.738 81.1907 110.089 77.0999 110.089 77.0999C111.485 77.2676 112.893 76.9121 114.042 76.1021C113.309 75.6028 112.648 75.0048 112.079 74.3249C111.936 74.141 111.804 73.9492 111.684 73.7506Z" fill="black"/>
</g>
</svg>
