<svg width="123" height="30" viewBox="0 0 123 30" fill="none" xmlns="http://www.w3.org/2000/svg">
<path d="M94.6111 4.64286L107.868 14.5L120.389 4.64286M122 8.25706V20.7428C122 22.583 122 23.5032 121.649 24.206C121.34 24.8243 120.847 25.3268 120.24 25.6418C119.551 26 118.649 26 116.845 26H98.1559C96.3513 26 95.4483 26 94.759 25.6418C94.1527 25.3268 93.6601 24.8243 93.3512 24.206C93 23.5032 93 22.583 93 20.7428V8.25706C93 6.41689 93 5.49692 93.3512 4.79407C93.6601 4.17582 94.1527 3.67313 94.759 3.35812C95.4483 3 96.3513 3 98.1559 3H116.845C118.649 3 119.551 3 120.24 3.35812C120.847 3.67313 121.34 4.17582 121.649 4.79407C122 5.49692 122 6.41689 122 8.25706Z" stroke="black" stroke-width="2" stroke-linecap="round" stroke-linejoin="round"/>
<path d="M55.5148 25.2693C57.4236 26.3702 59.6384 27 62.0002 27C69.1799 27 75 21.1798 75 14C75 6.82031 69.1797 1 62 1C54.8203 1 49 6.82031 49 14C49 16.3619 49.6298 18.5766 50.7307 20.4854L50.7316 20.487C50.8398 20.6745 50.894 20.7685 50.9185 20.857C50.9413 20.9395 50.9488 21.0132 50.943 21.0987C50.9368 21.1894 50.9054 21.2834 50.8435 21.4691L50.8412 21.476L49.7307 24.8076L49.7298 24.8102C49.4952 25.5141 49.3778 25.8663 49.4614 26.1006C49.5342 26.3048 49.6951 26.4656 49.8993 26.5384C50.1339 26.622 50.4871 26.5045 51.1928 26.2692L54.5243 25.1587L54.5266 25.158C54.7154 25.095 54.8097 25.0636 54.9012 25.0573C54.9866 25.0515 55.0606 25.0588 55.1431 25.0817C55.2318 25.1062 55.3262 25.1605 55.5148 25.2693Z" stroke="black" stroke-width="2" stroke-linecap="round" stroke-linejoin="round"/>
<path d="M15.4481 24.5001C17.6766 29.8097 25.4766 29.2442 25.4766 22.4579C25.4766 15.6717 15.4481 10.0165 15.4481 10.0165C15.4481 10.0165 5.41963 15.6717 5.41963 22.4579C5.41963 29.2442 13.2195 29.8097 15.4481 24.5001Z" stroke="black" stroke-width="2" stroke-linecap="round" stroke-linejoin="round"/>
<path d="M4.70814 12.3258C4.67977 13.9288 3.68297 14.7744 2.94909 14.7614C2.21521 14.7484 1.24896 13.868 1.27733 12.2651C1.3057 10.6622 2.30251 9.81653 3.03638 9.82952C3.77026 9.84251 4.73651 10.7229 4.70814 12.3258ZM13.3867 4.96201C13.3563 6.6804 12.247 7.67525 11.3212 7.65886C10.3955 7.64248 9.32208 6.609 9.3525 4.8906C9.38291 3.17221 10.4922 2.17737 11.418 2.19375C12.3437 2.21014 13.4171 3.24362 13.3867 4.96201ZM23.0409 5.13288C23.0105 6.85127 21.9012 7.84612 20.9754 7.82973C20.0497 7.81335 18.9763 6.77987 19.0067 5.06148C19.0371 3.34309 20.1464 2.34824 21.0722 2.36462C21.998 2.38101 23.0713 3.41449 23.0409 5.13288ZM30.2761 12.422C30.2477 14.0249 29.2509 14.8705 28.517 14.8575C27.7831 14.8446 26.8169 13.9641 26.8452 12.3612C26.8736 10.7583 27.8704 9.91265 28.6043 9.92564C29.3382 9.93863 30.3044 10.819 30.2761 12.422Z" stroke="black" stroke-width="2"/>
</svg>
