<svg width="20" height="20" viewBox="0 0 20 20" fill="none" xmlns="http://www.w3.org/2000/svg">
<mask id="path-1-inside-1_811_1372" fill="white">
<path d="M4.40936 7.99989C4.33393 8.01936 4.25479 8.01936 4.17936 7.99989C4.05936 7.93989 1.17936 6.41989 0.599359 4.34989C0.417062 3.84124 0.352938 3.29778 0.411846 2.76068C0.470754 2.22357 0.651149 1.70693 0.939359 1.24989C1.14806 0.969145 1.42182 0.743291 1.7371 0.591745C2.05239 0.440199 2.39976 0.367496 2.74936 0.379887C3.06651 0.365724 3.38248 0.427264 3.67114 0.55942C3.95979 0.691576 4.21284 0.89055 4.40936 1.13989C4.60687 0.889134 4.86154 0.689299 5.15206 0.557082C5.44259 0.424865 5.76055 0.364108 6.07936 0.379887C6.42883 0.368347 6.77591 0.441427 7.09106 0.592906C7.4062 0.744384 7.68008 0.969775 7.88936 1.24989C8.17593 1.70772 8.35456 2.22476 8.41173 2.76184C8.46891 3.29893 8.40312 3.84199 8.21936 4.34989C7.60936 6.37989 4.76936 7.89989 4.63936 7.99989C4.56393 8.01936 4.48479 8.01936 4.40936 7.99989ZM2.74936 1.33989C2.55709 1.33153 2.36567 1.36993 2.1915 1.45179C2.01733 1.53365 1.86562 1.65652 1.74936 1.80989C1.55967 2.1389 1.44435 2.50547 1.41153 2.88382C1.3787 3.26217 1.42916 3.64313 1.55936 3.99989C1.99936 5.39989 3.75936 6.55989 4.40936 6.99989C5.05936 6.55989 6.85936 5.39989 7.25936 3.99989C7.39443 3.6398 7.4492 3.25455 7.41984 2.87109C7.39048 2.48763 7.27769 2.11521 7.08936 1.77989C6.9731 1.62652 6.82138 1.50365 6.64722 1.42179C6.47305 1.33993 6.28162 1.30153 6.08936 1.30989C5.93105 1.30701 5.77383 1.33657 5.62738 1.39675C5.48092 1.45693 5.34834 1.54646 5.2378 1.65981C5.12725 1.77317 5.04108 1.90795 4.9846 2.05587C4.92811 2.20379 4.90251 2.3617 4.90936 2.51989C4.9017 2.64723 4.84567 2.76683 4.75271 2.8542C4.65976 2.94158 4.53693 2.99012 4.40936 2.98989C4.28014 2.98999 4.15591 2.94007 4.06269 2.85058C3.96948 2.7611 3.91453 2.639 3.90936 2.50989C3.91204 2.35635 3.88393 2.20383 3.82671 2.06132C3.76949 1.91882 3.68431 1.78922 3.57619 1.68017C3.46807 1.57112 3.33921 1.48482 3.1972 1.42638C3.05519 1.36794 2.90292 1.33853 2.74936 1.33989Z"/>
</mask>
<path d="M4.17936 7.99989L2.83772 10.6832L3.12181 10.8252L3.42936 10.9046L4.17936 7.99989ZM0.599359 4.34989L3.48811 3.54048L3.45938 3.43796L3.42346 3.33773L0.599359 4.34989ZM0.939359 1.24989L-1.46827 -0.539898L-1.53688 -0.4476L-1.59823 -0.350321L0.939359 1.24989ZM2.74936 0.379887L2.6431 3.378L2.76317 3.38226L2.8832 3.3769L2.74936 0.379887ZM4.40936 1.13989L2.0532 2.9969L4.41006 5.98727L6.76606 2.99622L4.40936 1.13989ZM6.07936 0.379887L5.93106 3.37622L6.05467 3.38234L6.17837 3.37825L6.07936 0.379887ZM7.88936 1.24989L10.4323 -0.341795L10.3667 -0.446633L10.2927 -0.545714L7.88936 1.24989ZM8.21936 4.34989L5.39833 3.32921L5.37013 3.40716L5.34627 3.48654L8.21936 4.34989ZM4.63936 7.99989L5.38936 10.9046L5.98274 10.7514L6.46849 10.3778L4.63936 7.99989ZM1.74936 1.80989L-0.64137 -0.00240922L-0.75536 0.147963L-0.84961 0.311434L1.74936 1.80989ZM1.55936 3.99989L4.42134 3.10041L4.40091 3.03541L4.37756 2.97142L1.55936 3.99989ZM4.40936 6.99989L2.72766 9.48421L4.40936 10.6226L6.09106 9.48421L4.40936 6.99989ZM7.25936 3.99989L4.45048 2.94622L4.40801 3.05945L4.37479 3.17572L7.25936 3.99989ZM7.08936 1.77989L9.70505 0.310826L9.60434 0.131496L9.48009 -0.0324092L7.08936 1.77989ZM6.08936 1.30989L6.03482 4.30939L6.12727 4.31107L6.21964 4.30706L6.08936 1.30989ZM4.90936 2.51989L7.90395 2.69988L7.91326 2.54505L7.90655 2.39008L4.90936 2.51989ZM3.90936 2.50989L0.909814 2.4576L0.908312 2.54377L0.911759 2.62989L3.90936 2.50989ZM3.65936 5.09515C4.07586 4.98761 4.51286 4.98761 4.92936 5.09515L3.42936 10.9046C3.99672 11.0511 4.592 11.0511 5.15936 10.9046L3.65936 5.09515ZM5.521 5.31661C5.59327 5.35274 5.03559 5.06593 4.43639 4.58638C4.14328 4.35181 3.89413 4.11363 3.71389 3.89204C3.62646 3.78455 3.56816 3.69668 3.53132 3.631C3.49466 3.56564 3.48676 3.53567 3.48811 3.54048L-2.28939 5.15929C-1.73575 7.13522 -0.239026 8.52952 0.687331 9.27089C1.70313 10.0838 2.64545 10.587 2.83772 10.6832L5.521 5.31661ZM3.42346 3.33773C3.39478 3.25772 3.3847 3.17223 3.39396 3.08775L-2.57027 2.4336C-2.67882 3.42332 -2.56066 4.42476 -2.22474 5.36204L3.42346 3.33773ZM3.39396 3.08775C3.40323 3.00326 3.43161 2.92199 3.47694 2.85009L-1.59823 -0.350321C-2.12931 0.491863 -2.46172 1.44389 -2.57027 2.4336L3.39396 3.08775ZM3.34699 3.03967C3.26583 3.14885 3.15936 3.23668 3.03675 3.29561L0.437453 -2.11212C-0.315729 -1.7501 -0.969713 -1.21056 -1.46827 -0.539898L3.34699 3.03967ZM3.03675 3.29561C2.91414 3.35455 2.77905 3.38282 2.6431 3.378L2.85562 -2.61823C2.02047 -2.64783 1.19063 -2.47415 0.437453 -2.11212L3.03675 3.29561ZM2.8832 3.3769C2.72462 3.38398 2.56663 3.35321 2.42231 3.28713L4.91997 -2.16829C4.19833 -2.49868 3.40841 -2.65253 2.61552 -2.61713L2.8832 3.3769ZM2.42231 3.28713C2.27798 3.22105 2.15145 3.12157 2.0532 2.9969L6.76552 -0.717126C6.27423 -1.34047 5.64161 -1.8379 4.91997 -2.16829L2.42231 3.28713ZM6.76606 2.99622C6.6673 3.1216 6.53997 3.22151 6.3947 3.28762L3.90942 -2.17346C3.1831 -1.84292 2.54644 -1.34333 2.05266 -0.716445L6.76606 2.99622ZM6.3947 3.28762C6.24944 3.35373 6.09046 3.38411 5.93106 3.37622L6.22766 -2.61645C5.43064 -2.65589 4.63575 -2.504 3.90942 -2.17346L6.3947 3.28762ZM6.17837 3.37825C6.0447 3.38267 5.91195 3.35471 5.79141 3.29678L8.39071 -2.11096C7.63988 -2.47186 6.81296 -2.64597 5.98035 -2.61848L6.17837 3.37825ZM5.79141 3.29678C5.67087 3.23884 5.56612 3.15263 5.48607 3.04549L10.2927 -0.545714C9.79403 -1.21308 9.14153 -1.75007 8.39071 -2.11096L5.79141 3.29678ZM5.34642 2.84157C5.39149 2.91358 5.41959 2.99492 5.42859 3.0794L11.3949 2.44428C11.2895 1.4546 10.9604 0.501854 10.4323 -0.341795L5.34642 2.84157ZM5.42859 3.0794C5.43758 3.16389 5.42723 3.24932 5.39833 3.32921L11.0404 5.37056C11.379 4.43466 11.5002 3.43397 11.3949 2.44428L5.42859 3.0794ZM5.34627 3.48654C5.34706 3.48392 5.33733 3.51674 5.29772 3.58534C5.25803 3.65407 5.19652 3.74455 5.10601 3.85436C4.91973 4.08034 4.66537 4.3224 4.36774 4.56208C4.07582 4.79716 3.78435 4.9964 3.55014 5.14636C3.4347 5.22027 3.33588 5.28052 3.2553 5.32916C3.22345 5.34838 3.1679 5.38173 3.13293 5.40305C3.11359 5.41483 3.08132 5.43459 3.04614 5.45703C3.03501 5.46413 2.92907 5.53059 2.81023 5.62201L6.46849 10.3778C6.3169 10.4944 6.16846 10.5795 6.25564 10.5264C6.27686 10.5135 6.29624 10.5019 6.35568 10.466C6.45768 10.4045 6.60683 10.3137 6.78545 10.1994C7.13936 9.97275 7.6204 9.64636 8.13098 9.2352C9.03966 8.50344 10.5148 7.13569 11.0924 5.21323L5.34627 3.48654ZM3.88936 5.09515C4.30586 4.98761 4.74286 4.98761 5.15936 5.09515L3.65936 10.9046C4.22672 11.0511 4.822 11.0511 5.38936 10.9046L3.88936 5.09515ZM2.87964 -1.65728C2.20267 -1.68671 1.52866 -1.55151 0.915418 -1.26329L3.46758 4.16686C3.20267 4.29136 2.91152 4.34977 2.61908 4.33706L2.87964 -1.65728ZM0.915418 -1.26329C0.302169 -0.975058 -0.232029 -0.5424 -0.64137 -0.00240922L4.14009 3.62218C3.96326 3.85545 3.7325 4.04235 3.46758 4.16686L0.915418 -1.26329ZM-0.84961 0.311434C-1.25818 1.02007 -1.50654 1.8096 -1.57724 2.62452L4.4003 3.14312C4.39525 3.20133 4.37751 3.25772 4.34833 3.30834L-0.84961 0.311434ZM-1.57724 2.62452C-1.64795 3.43944 -1.53926 4.25995 -1.25884 5.02836L4.37756 2.97142C4.39759 3.0263 4.40535 3.08491 4.4003 3.14312L-1.57724 2.62452ZM-1.30262 4.89937C-0.838836 6.37505 0.197589 7.45709 0.89578 8.08712C1.65068 8.76833 2.42428 9.27885 2.72766 9.48421L6.09106 4.51556C5.74443 4.28092 5.31304 3.99144 4.91544 3.63265C4.72209 3.45818 4.58122 3.30586 4.4891 3.18441C4.39318 3.05794 4.39891 3.02904 4.42134 3.10041L-1.30262 4.89937ZM6.09106 9.48421C6.37259 9.29364 7.16676 8.77707 7.92835 8.09574C8.62764 7.47014 9.70513 6.35985 10.1439 4.82405L4.37479 3.17572C4.40473 3.07093 4.42711 3.07724 4.33958 3.19355C4.25607 3.30453 4.12128 3.45101 3.92787 3.62404C3.52696 3.9827 3.09612 4.26614 2.72766 4.51556L6.09106 9.48421ZM10.0682 5.05355C10.3568 4.28428 10.4738 3.46124 10.4111 2.64203L4.4286 3.10015C4.42459 3.04786 4.43206 2.99533 4.45048 2.94622L10.0682 5.05355ZM10.4111 2.64203C10.3484 1.82281 10.1074 1.02719 9.70505 0.310826L4.47366 3.24895C4.44798 3.20322 4.4326 3.15244 4.4286 3.10015L10.4111 2.64203ZM9.48009 -0.0324092C9.07075 -0.572399 8.53655 -1.00506 7.9233 -1.29329L5.37113 4.13686C5.10622 4.01235 4.87546 3.82545 4.69863 3.59218L9.48009 -0.0324092ZM7.9233 -1.29329C7.31005 -1.58151 6.63605 -1.71671 5.95908 -1.68728L6.21964 4.30706C5.9272 4.31977 5.63604 4.26137 5.37113 4.13686L7.9233 -1.29329ZM6.14389 -1.68962C5.57617 -1.69994 5.01234 -1.59393 4.48713 -1.37811L6.76762 4.17161C6.53532 4.26707 6.28593 4.31396 6.03482 4.30939L6.14389 -1.68962ZM4.48713 -1.37811C3.96192 -1.16229 3.48646 -0.841234 3.09002 -0.434717L7.38558 3.75434C7.21023 3.93414 6.99993 4.07615 6.76762 4.17161L4.48713 -1.37811ZM3.09002 -0.434717C2.69358 -0.0281984 2.38456 0.455175 2.18199 0.985632L7.7872 3.12611C7.69761 3.36073 7.56093 3.57453 7.38558 3.75434L3.09002 -0.434717ZM2.18199 0.985632C1.97943 1.51609 1.8876 2.0824 1.91217 2.64969L7.90655 2.39008C7.91742 2.641 7.8768 2.89148 7.7872 3.12611L2.18199 0.985632ZM1.91476 2.33989C1.95303 1.70319 2.23322 1.1052 2.69798 0.668319L6.80744 5.04008C7.45811 4.42846 7.85038 3.59126 7.90395 2.69988L1.91476 2.33989ZM2.69798 0.668319C3.16275 0.23144 3.77692 -0.0112577 4.41476 -0.0101086L4.40395 5.98988C5.29694 5.99149 6.15678 5.65171 6.80744 5.04008L2.69798 0.668319ZM4.40696 -0.0101125C5.05303 -0.0106296 5.67422 0.238992 6.14029 0.686418L1.9851 5.01474C2.63759 5.64114 3.50726 5.99061 4.41176 5.98989L4.40696 -0.0101125ZM6.14029 0.686418C6.60635 1.13384 6.88111 1.74433 6.90696 2.38989L0.911759 2.62989C0.947939 3.53367 1.3326 4.38835 1.9851 5.01474L6.14029 0.686418ZM6.9089 2.56218C6.91856 2.0081 6.81715 1.4577 6.61066 0.943443L1.04277 3.1792C0.950714 2.94995 0.905508 2.70459 0.909814 2.4576L6.9089 2.56218ZM6.61066 0.943443C6.40416 0.429187 6.09676 -0.0385006 5.70659 -0.43203L1.44578 3.79236C1.27185 3.61694 1.13482 3.40845 1.04277 3.1792L6.61066 0.943443ZM5.70659 -0.43203C5.31643 -0.825561 4.85139 -1.13696 4.33893 -1.34787L2.05546 4.20063C1.82702 4.10661 1.61971 3.96779 1.44578 3.79236L5.70659 -0.43203ZM4.33893 -1.34787C3.82647 -1.55877 3.27696 -1.6649 2.72282 -1.66L2.7759 4.33977C2.52887 4.34195 2.28391 4.29464 2.05546 4.20063L4.33893 -1.34787Z" fill="black" mask="url(#path-1-inside-1_811_1372)"/>
<mask id="path-3-inside-2_811_1372" fill="white">
<path d="M13.1285 19.6599C13.0479 19.6604 12.9686 19.6397 12.8985 19.5999C12.6985 19.4899 7.99854 16.9999 6.99854 13.6099C6.70094 12.7915 6.59311 11.9162 6.68319 11.05C6.77327 10.1839 7.05891 9.3495 7.51854 8.60986C7.84426 8.18672 8.26668 7.84785 8.75039 7.62166C9.2341 7.39546 9.76499 7.28854 10.2985 7.30986C10.87 7.27969 11.4385 7.41092 11.9389 7.68855C12.4394 7.96618 12.8516 8.37901 13.1285 8.87986C13.4093 8.37342 13.8281 7.95705 14.3361 7.67914C14.8442 7.40123 15.4206 7.27317 15.9985 7.30986C16.5371 7.2876 17.0731 7.39603 17.5607 7.62589C18.0483 7.85576 18.473 8.20022 18.7985 8.62986C19.2586 9.36944 19.5437 10.2043 19.6321 11.0708C19.7205 11.9374 19.6098 12.8126 19.3085 13.6299C18.3085 17.0099 13.6085 19.5099 13.4085 19.6299C13.3196 19.6649 13.2229 19.6753 13.1285 19.6599ZM10.2985 8.30986C9.91539 8.28825 9.53279 8.3608 9.18415 8.52118C8.83551 8.68155 8.53145 8.92486 8.29854 9.22986C7.9376 9.84355 7.71801 10.53 7.65573 11.2392C7.59346 11.9485 7.69007 12.6627 7.93854 13.3299C8.69854 15.9099 12.1885 18.0499 13.1185 18.5799C14.0585 18.0499 17.5485 15.8999 18.2985 13.3299C18.5506 12.6638 18.65 11.9497 18.5895 11.2401C18.5289 10.5305 18.3099 9.84355 17.9485 9.22986C17.715 8.92551 17.4109 8.68268 17.0624 8.52237C16.7139 8.36206 16.3316 8.28912 15.9485 8.30986C15.6427 8.30721 15.3393 8.36533 15.0561 8.48086C14.7728 8.59639 14.5154 8.76702 14.2986 8.98285C14.0819 9.19867 13.9101 9.4554 13.7934 9.73814C13.6766 10.0209 13.6172 10.324 13.6185 10.6299C13.6133 10.7581 13.558 10.8791 13.4646 10.967C13.3711 11.0549 13.2468 11.1026 13.1185 11.0999C12.991 11.1001 12.8681 11.0515 12.7752 10.9642C12.6822 10.8768 12.6262 10.7572 12.6185 10.6299C12.6199 10.3248 12.5608 10.0225 12.4446 9.74047C12.3285 9.4584 12.1577 9.20212 11.942 8.98642C11.7263 8.77072 11.47 8.59988 11.1879 8.48376C10.9059 8.36764 10.6036 8.30854 10.2985 8.30986Z"/>
</mask>
<path d="M12.8985 19.5999L14.3801 16.9912L14.3623 16.9811L14.3443 16.9712L12.8985 19.5999ZM6.99854 13.6099L9.87596 12.7611L9.84967 12.6719L9.81792 12.5846L6.99854 13.6099ZM7.51854 8.60986L5.14129 6.77991L5.04971 6.89888L4.97047 7.0264L7.51854 8.60986ZM10.2985 7.30986L10.1788 10.3075L10.3178 10.313L10.4567 10.3057L10.2985 7.30986ZM13.1285 8.87986L10.5031 10.3314L13.1248 15.0732L15.7522 10.3346L13.1285 8.87986ZM15.9985 7.30986L15.8085 10.3038L15.9654 10.3138L16.1224 10.3073L15.9985 7.30986ZM18.7985 8.62986L21.3459 7.0452L21.273 6.92803L21.1896 6.81805L18.7985 8.62986ZM19.3085 13.6299L16.4937 12.5921L16.4597 12.6844L16.4318 12.7788L19.3085 13.6299ZM13.4085 19.6299L14.5091 22.4207L14.7396 22.3298L14.952 22.2023L13.4085 19.6299ZM8.29854 9.22986L5.91426 7.40908L5.8044 7.55295L5.71263 7.70898L8.29854 9.22986ZM7.93854 13.3299L10.8163 12.4822L10.7866 12.3814L10.7499 12.2829L7.93854 13.3299ZM13.1185 18.5799L11.6331 21.1863L13.1106 22.0283L14.592 21.1931L13.1185 18.5799ZM18.2985 13.3299L15.4928 12.2679L15.4514 12.3772L15.4187 12.4894L18.2985 13.3299ZM17.9485 9.22986L20.5337 7.70774L20.4405 7.54946L20.3287 7.40374L17.9485 9.22986ZM15.9485 8.30986L15.9225 11.3097L16.0167 11.3106L16.1107 11.3055L15.9485 8.30986ZM13.6185 10.6299L16.6161 10.7516L16.6188 10.6842L16.6185 10.6168L13.6185 10.6299ZM13.1185 11.0999L13.1822 8.10053L13.1477 8.0998L13.1131 8.09986L13.1185 11.0999ZM12.6185 10.6299L9.61857 10.6168L9.61815 10.7134L9.62394 10.8099L12.6185 10.6299ZM13.1101 16.6599C13.5551 16.6572 13.9931 16.7714 14.3801 16.9912L11.417 22.2085C11.9442 22.5079 12.5408 22.6635 13.147 22.6598L13.1101 16.6599ZM14.3443 16.9712C14.2641 16.9271 13.2327 16.3803 12.1226 15.4923C10.9157 14.5267 10.106 13.5409 9.87596 12.7611L4.12112 14.4587C4.89109 17.0688 6.9314 19.023 8.37445 20.1775C9.15104 20.7987 9.88981 21.2935 10.4462 21.6403C10.7263 21.8148 10.9645 21.9546 11.1436 22.0566C11.3193 22.1567 11.4544 22.2294 11.4528 22.2285L14.3443 16.9712ZM9.81792 12.5846C9.67559 12.1932 9.62402 11.7746 9.6671 11.3603L3.69928 10.7397C3.56221 12.0577 3.72629 13.3897 4.17916 14.6351L9.81792 12.5846ZM9.6671 11.3603C9.71018 10.9461 9.84679 10.5471 10.0666 10.1933L4.97047 7.0264C4.27102 8.15194 3.83636 9.42164 3.69928 10.7397L9.6671 11.3603ZM9.89579 10.4398C9.92894 10.3967 9.97195 10.3622 10.0212 10.3392L7.47959 4.90411C6.56142 5.33347 5.75957 5.97672 5.14129 6.77991L9.89579 10.4398ZM10.0212 10.3392C10.0704 10.3162 10.1245 10.3053 10.1788 10.3075L10.4183 4.31225C9.4055 4.27179 8.39777 4.47475 7.47959 4.90411L10.0212 10.3392ZM10.4567 10.3057C10.4661 10.3052 10.4754 10.3073 10.4836 10.3119L13.3943 5.0652C12.4016 4.51449 11.274 4.25418 10.1404 4.31403L10.4567 10.3057ZM10.4836 10.3119C10.4918 10.3164 10.4986 10.3232 10.5031 10.3314L15.754 7.42829C15.2047 6.43481 14.387 5.61592 13.3943 5.0652L10.4836 10.3119ZM15.7522 10.3346C15.7577 10.3247 15.7659 10.3165 15.7759 10.3111L12.8964 5.04721C11.8903 5.59759 11.061 6.42215 10.5049 7.4251L15.7522 10.3346ZM15.7759 10.3111C15.7859 10.3056 15.7972 10.3031 15.8085 10.3038L16.1886 4.31588C15.0441 4.24323 13.9025 4.49683 12.8964 5.04721L15.7759 10.3111ZM16.1224 10.3073C16.1772 10.305 16.2318 10.3161 16.2814 10.3395L18.84 4.91232C17.9144 4.47599 16.897 4.27017 15.8747 4.31242L16.1224 10.3073ZM16.2814 10.3395C16.3311 10.3629 16.3743 10.3979 16.4074 10.4417L21.1896 6.81805C20.5717 6.0025 19.7655 5.34864 18.84 4.91232L16.2814 10.3395ZM16.2512 10.2145C16.47 10.5662 16.6056 10.9632 16.6476 11.3753L22.6166 10.7664C22.4819 9.44544 22.0472 8.17267 21.3459 7.0452L16.2512 10.2145ZM16.6476 11.3753C16.6896 11.7873 16.637 12.2035 16.4937 12.5921L22.1233 14.6676C22.5827 13.4217 22.7514 12.0874 22.6166 10.7664L16.6476 11.3753ZM16.4318 12.7788C16.2022 13.5549 15.3921 14.5414 14.1818 15.5119C13.0591 16.4122 12.0697 16.9346 11.8651 17.0574L14.952 22.2023C14.9473 22.2051 16.408 21.4175 17.9353 20.1928C19.375 19.0384 21.4149 17.0848 22.1853 14.481L16.4318 12.7788ZM12.308 16.839C12.7224 16.6756 13.1732 16.6273 13.6129 16.6992L12.6442 22.6205C13.2725 22.7233 13.9169 22.6542 14.5091 22.4207L12.308 16.839ZM10.4675 5.31462C9.59519 5.26543 8.72414 5.4306 7.93043 5.79571L10.4379 11.2466C10.3414 11.291 10.2356 11.3111 10.1296 11.3051L10.4675 5.31462ZM7.93043 5.79571C7.13672 6.16081 6.4445 6.71474 5.91426 7.40908L10.6828 11.0506C10.6184 11.135 10.5343 11.2023 10.4379 11.2466L7.93043 5.79571ZM5.71263 7.70898C5.12564 8.70703 4.76851 9.82338 4.66723 10.9768L10.6442 11.5016C10.6675 11.2366 10.7496 10.9801 10.8844 10.7507L5.71263 7.70898ZM4.66723 10.9768C4.56596 12.1302 4.72307 13.2918 5.12716 14.3768L10.7499 12.2829C10.6571 12.0336 10.621 11.7667 10.6442 11.5016L4.66723 10.9768ZM5.0608 14.1776C5.69503 16.3306 7.31866 17.9839 8.51871 19.0068C9.80172 20.1004 11.0847 20.8737 11.6331 21.1863L14.6039 15.9734C14.2224 15.756 13.2954 15.1944 12.4109 14.4405C11.4434 13.6158 10.9421 12.9091 10.8163 12.4822L5.0608 14.1776ZM14.592 21.1931C15.1583 20.8738 16.4448 20.0964 17.7274 19.0017C18.9262 17.9785 20.5502 16.3229 21.1784 14.1703L15.4187 12.4894C15.2968 12.9069 14.8008 13.6112 13.8322 14.438C12.9472 15.1933 12.0188 15.7559 11.6451 15.9666L14.592 21.1931ZM21.1043 14.3918C21.5153 13.3059 21.6774 12.1417 21.5786 10.9849L15.6003 11.4953C15.6227 11.7576 15.586 12.0217 15.4928 12.2679L21.1043 14.3918ZM21.5786 10.9849C21.4798 9.82812 21.1228 8.70821 20.5337 7.70774L15.3634 10.752C15.497 10.9789 15.5779 11.2329 15.6003 11.4953L21.5786 10.9849ZM20.3287 7.40374C19.7984 6.71251 19.1076 6.16098 18.3161 5.7969L15.8087 11.2478C15.7142 11.2044 15.6317 11.1385 15.5684 11.056L20.3287 7.40374ZM18.3161 5.7969C17.5246 5.43281 16.6563 5.26715 15.7864 5.31425L16.1107 11.3055C16.0069 11.3111 15.9032 11.2913 15.8087 11.2478L18.3161 5.7969ZM15.9745 5.30997C15.2714 5.30388 14.5741 5.43749 13.923 5.70305L16.1891 11.2587C16.1045 11.2932 16.0139 11.3105 15.9225 11.3097L15.9745 5.30997ZM13.923 5.70305C13.272 5.96862 12.6801 6.36084 12.1819 6.85697L16.4154 11.1087C16.3506 11.1732 16.2737 11.2242 16.1891 11.2587L13.923 5.70305ZM12.1819 6.85697C11.6836 7.3531 11.2888 7.94324 11.0205 8.59316L16.5663 10.8831C16.5314 10.9676 16.4801 11.0443 16.4154 11.1087L12.1819 6.85697ZM11.0205 8.59316C10.7521 9.24308 10.6155 9.93982 10.6186 10.643L16.6185 10.6168C16.6189 10.7081 16.6012 10.7987 16.5663 10.8831L11.0205 8.59316ZM10.621 10.5081C10.6477 9.85136 10.9309 9.23129 11.4098 8.78111L15.5193 13.1529C16.1852 12.5269 16.579 11.6648 16.6161 10.7516L10.621 10.5081ZM11.4098 8.78111C11.8887 8.33094 12.5251 8.08658 13.1822 8.10053L13.0548 14.0992C13.9685 14.1186 14.8534 13.7788 15.5193 13.1529L11.4098 8.78111ZM13.1131 8.09986C13.751 8.09871 14.3652 8.34143 14.8299 8.77829L10.7205 13.1501C11.3711 13.7617 12.2309 14.1015 13.1239 14.0999L13.1131 8.09986ZM14.8299 8.77829C15.2947 9.21515 15.5749 9.81315 15.6131 10.4499L9.62394 10.8099C9.67752 11.7013 10.0698 12.5384 10.7205 13.1501L14.8299 8.77829ZM15.6185 10.6429C15.6216 9.94169 15.4857 9.24684 15.2188 8.59843L9.67051 10.8825C9.63583 10.7982 9.61817 10.708 9.61857 10.6168L15.6185 10.6429ZM15.2188 8.59843C14.9518 7.95003 14.5591 7.36092 14.0633 6.8651L9.82066 11.1077C9.75623 11.0433 9.7052 10.9668 9.67051 10.8825L15.2188 8.59843ZM14.0633 6.8651C13.5675 6.36928 12.9784 5.97657 12.33 5.70964L10.0459 11.2579C9.96164 11.2232 9.88509 11.1722 9.82066 11.1077L14.0633 6.8651ZM12.33 5.70964C11.6816 5.44271 10.9867 5.30684 10.2855 5.30989L10.3116 11.3098C10.2204 11.3102 10.1302 11.2926 10.0459 11.2579L12.33 5.70964Z" fill="black" mask="url(#path-3-inside-2_811_1372)"/>
</svg>
