<svg width="128" height="120" viewBox="0 0 128 120" fill="none" xmlns="http://www.w3.org/2000/svg">
<path d="M16.0899 30.4602L17.8719 31.3682L16.0899 30.4602ZM20.459 26.0899L21.367 27.8719L20.459 26.0899ZM20.459 93.9099L21.367 92.1279L21.367 92.1279L20.459 93.9099ZM16.0899 89.5401L14.3079 90.4481L14.3079 90.4481L16.0899 89.5401ZM103.911 89.5401L102.129 88.6322L103.911 89.5401ZM99.5389 93.9099L98.631 92.1279L99.5389 93.9099ZM103.911 30.4602L102.129 31.3682L102.129 31.3682L103.911 30.4602ZM99.5389 26.0899L100.447 24.3079L100.447 24.3079L99.5389 26.0899ZM21.1783 28.384C20.2858 27.7332 19.0348 27.9292 18.384 28.8217C17.7332 29.7142 17.9292 30.9652 18.8217 31.616L21.1783 28.384ZM61.1429 60L59.9645 61.616C60.683 62.1399 61.6612 62.1265 62.3651 61.5831L61.1429 60ZM101.222 31.5831C102.096 30.9081 102.258 29.6521 101.583 28.7778C100.908 27.9035 99.6518 27.7419 98.7775 28.4169L101.222 31.5831ZM103 40.9998V78.9998H107V40.9998H103ZM89.001 93H31.001V97H89.001V93ZM17 78.9998V40.9998H13V78.9998H17ZM31.001 27H89.001V23H31.001V27ZM17 40.9998C17 38.1665 17.0016 36.1619 17.1296 34.5948C17.2557 33.0511 17.4946 32.1088 17.8719 31.3682L14.3079 29.5522C13.5954 30.9507 13.2892 32.4779 13.1429 34.2691C12.9984 36.0369 13 38.2325 13 40.9998H17ZM31.001 23C28.2337 23 26.0375 22.9984 24.2691 23.1429C22.4776 23.2892 20.9496 23.5953 19.551 24.3079L21.367 27.8719C22.1075 27.4946 23.0502 27.2558 24.5948 27.1296C26.1625 27.0016 28.1677 27 31.001 27V23ZM17.8719 31.3682C18.6392 29.8624 19.8622 28.6387 21.367 27.8719L19.551 24.3079C17.2925 25.4587 15.4581 27.2948 14.3079 29.5522L17.8719 31.3682ZM31.001 93C28.1678 93 26.1625 92.9984 24.5948 92.8703C23.0503 92.7441 22.1075 92.5052 21.367 92.1279L19.551 95.6919C20.9496 96.4045 22.4775 96.7107 24.2691 96.857C26.0375 97.0015 28.2337 97 31.001 97V93ZM13 78.9998C13 81.767 12.9984 83.9629 13.1429 85.7308C13.2892 87.5221 13.5953 89.0496 14.3079 90.4481L17.8719 88.6322C17.4946 87.8916 17.2557 86.9491 17.1296 85.4051C17.0016 83.8378 17 81.833 17 78.9998H13ZM21.367 92.1279C19.862 91.3611 18.6391 90.1378 17.8719 88.6322L14.3079 90.4481C15.4582 92.7058 17.2928 94.5413 19.551 95.6919L21.367 92.1279ZM103 78.9998C103 81.8332 102.999 83.838 102.871 85.4054C102.745 86.9496 102.506 87.8918 102.129 88.6322L105.693 90.4481C106.406 89.0494 106.712 87.5217 106.858 85.7305C107.002 83.9627 107 81.7668 107 78.9998H103ZM89.001 97C91.7683 97 93.9635 97.0015 95.7309 96.857C97.5218 96.7106 99.0486 96.4044 100.447 95.6919L98.631 92.1279C97.8902 92.5053 96.9482 92.7442 95.405 92.8703C93.8384 92.9984 91.8342 93 89.001 93V97ZM102.129 88.6322C101.363 90.1364 100.137 91.3604 98.631 92.1279L100.447 95.6919C102.704 94.542 104.542 92.7071 105.693 90.4481L102.129 88.6322ZM107 40.9998C107 38.2327 107.002 36.037 106.858 34.2694C106.712 32.4784 106.406 30.9509 105.693 29.5522L102.129 31.3682C102.506 32.1086 102.745 33.0507 102.871 34.5945C102.999 36.1617 103 38.1663 103 40.9998H107ZM89.001 27C91.8343 27 93.8384 27.0016 95.4051 27.1296C96.9483 27.2557 97.8902 27.4945 98.631 27.8719L100.447 24.3079C99.0485 23.5954 97.5218 23.2893 95.7309 23.1429C93.9635 22.9984 91.7682 23 89.001 23V27ZM105.693 29.5522C104.542 27.2935 102.704 25.458 100.447 24.3079L98.631 27.8719C100.137 28.6394 101.363 29.8637 102.129 31.3682L105.693 29.5522ZM18.8217 31.616L59.9645 61.616L62.3212 58.384L21.1783 28.384L18.8217 31.616ZM62.3651 61.5831L101.222 31.5831L98.7775 28.4169L59.9206 58.4169L62.3651 61.5831Z" fill="black"/>
<circle cx="105" cy="90" r="21.25" fill="#BAD5DB" stroke="black" stroke-width="3.5"/>
<path d="M94.4335 89.1053C93.6632 88.3137 92.397 88.2963 91.6053 89.0666C90.8136 89.8369 90.7963 91.1031 91.5665 91.8948L94.4335 89.1053ZM100.425 98.1309L98.9912 99.5256C99.3677 99.9126 99.8847 100.131 100.425 100.131C100.965 100.131 101.482 99.9126 101.858 99.5256L100.425 98.1309ZM117.769 83.1738C118.539 82.3821 118.522 81.1159 117.73 80.3456C116.938 79.5753 115.672 79.5927 114.902 80.3843L117.769 83.1738ZM91.5665 91.8948L98.9912 99.5256L101.858 96.7362L94.4335 89.1053L91.5665 91.8948ZM101.858 99.5256L117.769 83.1738L114.902 80.3843L98.9912 96.7362L101.858 99.5256Z" fill="black"/>
</svg>
