<svg width="1562" height="990" viewBox="0 0 1562 990" fill="none" xmlns="http://www.w3.org/2000/svg">
<g clip-path="url(#clip0_66_1717)">
<rect width="1562" height="990" fill="url(#paint0_linear_66_1717)"/>
<path d="M1275.1 587.885C1267.49 583.908 1258.69 583.046 1250.43 583.229C1245.61 583.349 1240.8 583.841 1236.61 585.622C1232.43 587.424 1228.88 590.653 1227.69 595.064C1225.87 601.735 1229.63 609.37 1234.03 615.554C1239.19 622.792 1245.38 629.341 1252.51 634.631C1257.27 638.147 1262.87 641.273 1269 640.695C1282.73 639.43 1289.71 628.073 1290.02 616.357C1290.43 604.586 1284.36 592.685 1275.1 587.885Z" fill="url(#paint1_linear_66_1717)" fill-opacity="0.2"/>
<path d="M1242.43 555.132C1242.8 551.097 1245.36 547.319 1249.55 546.733C1252.31 546.354 1255.4 547.444 1257.82 549.23C1261.14 551.677 1263.38 555.532 1263.49 559.413C1263.7 566.357 1257.33 571.217 1250.36 569.811C1243.36 568.394 1241.95 560.574 1242.43 555.132Z" fill="url(#paint2_linear_66_1717)" fill-opacity="0.2"/>
<path d="M1277.54 558.743C1275.34 562.136 1274.2 566.469 1275.55 570.467C1276.27 572.56 1277.76 574.529 1279.84 575.363C1282.39 576.385 1285.29 575.496 1287.73 574.232C1291.01 572.512 1294.01 570.043 1295.84 566.799C1299.08 561.055 1297.59 552.548 1290.57 550.448C1284.99 548.747 1280.1 554.924 1277.54 558.743Z" fill="url(#paint3_linear_66_1717)" fill-opacity="0.2"/>
<path d="M1298.15 591.877C1299.91 596.002 1304.78 598.234 1309.31 597.201C1313.72 596.186 1317.91 591.466 1319.46 586.568C1321.05 581.678 1319.98 576.746 1314.54 575.247C1305.81 572.955 1294.23 582.615 1298.15 591.877Z" fill="url(#paint4_linear_66_1717)" fill-opacity="0.2"/>
<path d="M1312.17 626.258C1317.56 627.149 1320.73 623.673 1321.32 619.769C1321.92 615.849 1319.93 611.578 1315.38 610.515C1309.68 609.193 1305.99 612.56 1305.1 616.558C1304.21 620.531 1306.13 625.251 1312.17 626.258Z" fill="url(#paint5_linear_66_1717)" fill-opacity="0.2"/>
<path d="M1134.8 584.561C1127.77 580.941 1119.52 580.374 1111.65 581.213C1107.07 581.701 1102.45 582.666 1098.45 584.958C1094.46 587.251 1091.13 591.03 1090.25 595.546C1088.9 602.412 1093.26 609.073 1098.08 614.157C1103.73 620.104 1110.32 625.131 1117.55 629C1122.38 631.576 1127.83 633.687 1133.2 632.666C1157.11 628.127 1151.93 593.39 1134.8 584.561Z" fill="url(#paint6_linear_66_1717)" fill-opacity="0.2"/>
<path d="M1105.19 553.728C1105.93 549.575 1108.89 545.512 1113.06 544.843C1115.79 544.411 1118.62 545.501 1120.73 547.305C1123.62 549.779 1125.34 553.626 1125.1 557.428C1124.69 564.203 1118.52 569.014 1111.87 568.061C1105.19 567.108 1104.18 559.38 1105.19 553.728Z" fill="url(#paint7_linear_66_1717)" fill-opacity="0.2"/>
<path d="M1138.44 557.076C1136.05 560.231 1134.65 564.384 1135.71 568.197C1136.27 570.194 1137.57 572.067 1139.47 572.884C1141.8 573.894 1144.53 573.145 1146.83 572.067C1149.94 570.614 1152.83 568.526 1154.75 565.678C1158.1 560.696 1157.69 552.718 1151.48 550.051C1146.54 547.929 1141.17 553.501 1138.44 557.076Z" fill="url(#paint8_linear_66_1717)" fill-opacity="0.2"/>
<path d="M1155.93 588.567C1157.51 592.335 1161.97 594.479 1166 593.844C1173.91 592.596 1180.89 578.774 1171.23 574.961C1163.49 571.897 1152.35 580.033 1155.93 588.567Z" fill="url(#paint9_linear_66_1717)" fill-opacity="0.2"/>
<path d="M1169.8 619.048C1179.39 620.875 1179.88 608.074 1171.73 605.737C1161.5 602.797 1159 616.994 1169.8 619.048Z" fill="url(#paint10_linear_66_1717)" fill-opacity="0.2"/>
<path d="M1401.1 439.885C1393.49 435.908 1384.69 435.046 1376.43 435.229C1371.61 435.349 1366.8 435.841 1362.61 437.622C1358.43 439.424 1354.88 442.653 1353.69 447.064C1351.87 453.735 1355.63 461.37 1360.03 467.555C1365.19 474.792 1371.38 481.341 1378.51 486.631C1383.27 490.147 1388.87 493.273 1395 492.695C1408.73 491.43 1415.71 480.073 1416.02 468.357C1416.43 456.586 1410.36 444.685 1401.1 439.885Z" fill="url(#paint11_linear_66_1717)" fill-opacity="0.2"/>
<path d="M1368.43 407.132C1368.8 403.097 1371.36 399.319 1375.55 398.733C1378.31 398.354 1381.4 399.444 1383.82 401.23C1387.14 403.677 1389.38 407.532 1389.49 411.413C1389.7 418.357 1383.33 423.217 1376.36 421.811C1369.36 420.394 1367.95 412.574 1368.43 407.132Z" fill="url(#paint12_linear_66_1717)" fill-opacity="0.2"/>
<path d="M1403.54 410.743C1401.34 414.136 1400.2 418.469 1401.55 422.467C1402.27 424.56 1403.76 426.529 1405.84 427.363C1408.39 428.385 1411.29 427.496 1413.73 426.232C1417.01 424.512 1420.01 422.043 1421.84 418.799C1425.08 413.055 1423.59 404.548 1416.57 402.448C1410.99 400.747 1406.1 406.924 1403.54 410.743Z" fill="url(#paint13_linear_66_1717)" fill-opacity="0.2"/>
<path d="M1424.15 443.877C1425.91 448.002 1430.78 450.234 1435.31 449.201C1439.72 448.186 1443.91 443.466 1445.46 438.568C1447.05 433.678 1445.98 428.746 1440.54 427.247C1431.81 424.955 1420.23 434.615 1424.15 443.877Z" fill="url(#paint14_linear_66_1717)" fill-opacity="0.2"/>
<path d="M1438.17 478.258C1443.56 479.149 1446.73 475.673 1447.32 471.769C1447.92 467.849 1445.93 463.578 1441.38 462.515C1435.68 461.193 1431.99 464.56 1431.1 468.558C1430.21 472.531 1432.13 477.251 1438.17 478.258Z" fill="url(#paint15_linear_66_1717)" fill-opacity="0.2"/>
<path d="M1260.8 436.561C1253.77 432.941 1245.52 432.374 1237.65 433.213C1233.07 433.701 1228.45 434.666 1224.45 436.958C1220.46 439.251 1217.13 443.03 1216.25 447.546C1214.9 454.412 1219.26 461.073 1224.08 466.157C1229.73 472.104 1236.32 477.131 1243.55 481C1248.38 483.577 1253.83 485.687 1259.2 484.666C1283.11 480.127 1277.93 445.39 1260.8 436.561Z" fill="url(#paint16_linear_66_1717)" fill-opacity="0.2"/>
<path d="M1231.19 405.728C1231.93 401.575 1234.89 397.512 1239.06 396.843C1241.79 396.411 1244.62 397.501 1246.73 399.305C1249.62 401.779 1251.34 405.626 1251.1 409.428C1250.69 416.203 1244.52 421.014 1237.87 420.061C1231.19 419.108 1230.18 411.38 1231.19 405.728Z" fill="url(#paint17_linear_66_1717)" fill-opacity="0.2"/>
<path d="M1264.44 409.076C1262.05 412.231 1260.65 416.384 1261.71 420.197C1262.27 422.194 1263.57 424.067 1265.47 424.884C1267.8 425.894 1270.53 425.145 1272.83 424.067C1275.94 422.614 1278.83 420.526 1280.75 417.678C1284.1 412.696 1283.69 404.718 1277.48 402.051C1272.54 399.929 1267.17 405.501 1264.44 409.076Z" fill="url(#paint18_linear_66_1717)" fill-opacity="0.2"/>
<path d="M1281.93 440.567C1283.51 444.335 1287.97 446.479 1292 445.844C1299.91 444.596 1306.89 430.774 1297.23 426.961C1289.49 423.897 1278.35 432.033 1281.93 440.567Z" fill="url(#paint19_linear_66_1717)" fill-opacity="0.2"/>
<path d="M1295.8 471.048C1305.39 472.875 1305.88 460.074 1297.73 457.737C1287.5 454.797 1285 468.994 1295.8 471.048Z" fill="url(#paint20_linear_66_1717)" fill-opacity="0.2"/>
<path d="M1527.1 291.885C1519.49 287.908 1510.69 287.046 1502.43 287.229C1497.61 287.349 1492.8 287.841 1488.61 289.622C1484.43 291.424 1480.88 294.653 1479.69 299.064C1477.87 305.735 1481.63 313.37 1486.03 319.555C1491.19 326.792 1497.38 333.341 1504.51 338.631C1509.27 342.147 1514.87 345.273 1521 344.695C1534.73 343.43 1541.71 332.073 1542.02 320.357C1542.43 308.586 1536.36 296.685 1527.1 291.885Z" fill="url(#paint21_linear_66_1717)" fill-opacity="0.2"/>
<path d="M1494.43 259.132C1494.8 255.097 1497.36 251.319 1501.55 250.733C1504.31 250.354 1507.4 251.444 1509.82 253.23C1513.14 255.677 1515.38 259.532 1515.49 263.413C1515.7 270.357 1509.33 275.217 1502.36 273.811C1495.36 272.394 1493.95 264.574 1494.43 259.132Z" fill="url(#paint22_linear_66_1717)" fill-opacity="0.2"/>
<path d="M1529.54 262.743C1527.34 266.136 1526.2 270.469 1527.55 274.467C1528.27 276.56 1529.76 278.529 1531.84 279.363C1534.39 280.385 1537.29 279.496 1539.73 278.232C1543.01 276.512 1546.01 274.043 1547.84 270.799C1551.08 265.055 1549.59 256.548 1542.57 254.448C1536.99 252.747 1532.1 258.924 1529.54 262.743Z" fill="url(#paint23_linear_66_1717)" fill-opacity="0.2"/>
<path d="M1550.15 295.877C1551.91 300.002 1556.78 302.234 1561.31 301.201C1565.72 300.186 1569.91 295.466 1571.46 290.568C1573.05 285.678 1571.98 280.746 1566.54 279.247C1557.81 276.955 1546.23 286.615 1550.15 295.877Z" fill="url(#paint24_linear_66_1717)" fill-opacity="0.2"/>
<path d="M1564.17 330.258C1569.56 331.149 1572.73 327.673 1573.32 323.769C1573.92 319.849 1571.93 315.578 1567.38 314.515C1561.68 313.193 1557.99 316.56 1557.1 320.558C1556.21 324.531 1558.13 329.251 1564.17 330.258Z" fill="url(#paint25_linear_66_1717)" fill-opacity="0.2"/>
<path d="M1386.8 288.561C1379.77 284.941 1371.52 284.374 1363.65 285.213C1359.07 285.701 1354.45 286.666 1350.45 288.958C1346.46 291.251 1343.13 295.03 1342.25 299.546C1340.9 306.412 1345.26 313.073 1350.08 318.157C1355.73 324.104 1362.32 329.131 1369.55 333C1374.38 335.577 1379.83 337.687 1385.2 336.666C1409.11 332.127 1403.93 297.39 1386.8 288.561Z" fill="url(#paint26_linear_66_1717)" fill-opacity="0.2"/>
<path d="M1357.19 257.728C1357.93 253.575 1360.89 249.512 1365.06 248.843C1367.79 248.411 1370.62 249.501 1372.73 251.305C1375.62 253.779 1377.34 257.626 1377.1 261.428C1376.69 268.203 1370.52 273.014 1363.87 272.061C1357.19 271.108 1356.18 263.38 1357.19 257.728Z" fill="url(#paint27_linear_66_1717)" fill-opacity="0.2"/>
<path d="M1390.44 261.076C1388.05 264.231 1386.65 268.384 1387.71 272.197C1388.27 274.194 1389.57 276.067 1391.47 276.884C1393.8 277.894 1396.53 277.145 1398.83 276.067C1401.94 274.614 1404.83 272.526 1406.75 269.678C1410.1 264.696 1409.69 256.718 1403.48 254.051C1398.54 251.929 1393.17 257.501 1390.44 261.076Z" fill="url(#paint28_linear_66_1717)" fill-opacity="0.2"/>
<path d="M1407.93 292.567C1409.51 296.335 1413.97 298.479 1418 297.844C1425.91 296.596 1432.89 282.774 1423.23 278.961C1415.49 275.897 1404.35 284.033 1407.93 292.567Z" fill="url(#paint29_linear_66_1717)" fill-opacity="0.2"/>
<path d="M1421.8 323.048C1431.39 324.875 1431.88 312.074 1423.73 309.737C1413.5 306.797 1411 320.994 1421.8 323.048Z" fill="url(#paint30_linear_66_1717)" fill-opacity="0.2"/>
<path d="M1010.48 654.083C1004.28 650.893 997.009 650.393 990.079 651.133C986.039 651.563 981.969 652.413 978.449 654.433C974.929 656.453 971.999 659.783 971.219 663.763C970.029 669.813 973.869 675.683 978.119 680.163C983.099 685.403 988.909 689.833 995.279 693.243C999.529 695.513 1004.34 697.373 1009.07 696.473C1030.14 692.473 1025.57 661.863 1010.48 654.083Z" fill="url(#paint31_linear_66_1717)" fill-opacity="0.2"/>
<path d="M984.39 626.913C985.04 623.253 987.65 619.673 991.32 619.083C993.73 618.703 996.22 619.663 998.08 621.253C1000.63 623.433 1002.14 626.823 1001.93 630.173C1001.57 636.143 996.13 640.383 990.27 639.543C984.39 638.703 983.5 631.893 984.39 626.913Z" fill="url(#paint32_linear_66_1717)" fill-opacity="0.2"/>
<path d="M1013.69 629.863C1011.58 632.643 1010.35 636.303 1011.28 639.663C1011.77 641.423 1012.92 643.073 1014.59 643.793C1016.65 644.683 1019.05 644.023 1021.08 643.073C1023.82 641.793 1026.37 639.953 1028.06 637.443C1031.01 633.053 1030.65 626.023 1025.18 623.673C1020.82 621.803 1016.09 626.713 1013.69 629.863Z" fill="url(#paint33_linear_66_1717)" fill-opacity="0.2"/>
<path d="M1029.1 657.613C1030.49 660.933 1034.42 662.823 1037.97 662.263C1044.94 661.163 1051.09 648.983 1042.58 645.623C1035.76 642.923 1025.94 650.093 1029.1 657.613Z" fill="url(#paint34_linear_66_1717)" fill-opacity="0.2"/>
<path d="M1041.32 684.473C1049.77 686.083 1050.2 674.803 1043.02 672.743C1034.01 670.153 1031.8 682.663 1041.32 684.473Z" fill="url(#paint35_linear_66_1717)" fill-opacity="0.2"/>
<path d="M1507.48 159.083C1501.28 155.893 1494.01 155.393 1487.08 156.133C1483.04 156.563 1478.97 157.413 1475.45 159.433C1471.93 161.453 1469 164.783 1468.22 168.763C1467.03 174.813 1470.87 180.683 1475.12 185.163C1480.1 190.403 1485.91 194.833 1492.28 198.243C1496.53 200.513 1501.34 202.373 1506.07 201.473C1527.14 197.473 1522.57 166.863 1507.48 159.083Z" fill="url(#paint36_linear_66_1717)" fill-opacity="0.2"/>
<path d="M1481.39 131.913C1482.04 128.253 1484.65 124.673 1488.32 124.083C1490.73 123.703 1493.22 124.663 1495.08 126.253C1497.63 128.433 1499.14 131.823 1498.93 135.173C1498.57 141.143 1493.13 145.383 1487.27 144.543C1481.39 143.703 1480.5 136.893 1481.39 131.913Z" fill="url(#paint37_linear_66_1717)" fill-opacity="0.2"/>
<path d="M1510.69 134.863C1508.58 137.643 1507.35 141.303 1508.28 144.663C1508.77 146.423 1509.92 148.073 1511.59 148.793C1513.65 149.683 1516.05 149.023 1518.08 148.073C1520.82 146.793 1523.37 144.953 1525.06 142.443C1528.01 138.053 1527.65 131.023 1522.18 128.673C1517.82 126.803 1513.09 131.713 1510.69 134.863Z" fill="url(#paint38_linear_66_1717)" fill-opacity="0.2"/>
<path d="M1526.1 162.613C1527.49 165.933 1531.42 167.823 1534.97 167.263C1541.94 166.163 1548.09 153.983 1539.58 150.623C1532.76 147.923 1522.94 155.093 1526.1 162.613Z" fill="url(#paint39_linear_66_1717)" fill-opacity="0.2"/>
<path d="M1538.32 189.473C1546.77 191.083 1547.2 179.803 1540.02 177.743C1531.01 175.153 1528.8 187.663 1538.32 189.473Z" fill="url(#paint40_linear_66_1717)" fill-opacity="0.2"/>
<path fill-rule="evenodd" clip-rule="evenodd" d="M2137.64 23.9797C2138.38 19.8263 2141.34 15.7637 2145.51 15.0942C2148.24 14.6629 2151.07 15.7523 2153.18 17.5567C2156.07 20.0306 2157.79 23.8776 2157.55 27.6792C2157.14 34.4541 2150.97 39.2657 2144.32 38.3124C2137.64 37.3592 2136.63 29.6311 2137.64 23.9797ZM2281.71 16.9847C2277.51 17.5705 2274.96 21.3487 2274.59 25.3834C2274.11 30.8251 2275.52 38.6457 2282.51 40.0627C2289.49 41.4684 2295.86 36.6081 2295.65 29.6646C2295.54 25.7832 2293.3 21.9285 2289.98 19.482C2287.55 17.6953 2284.47 16.6057 2281.71 16.9847ZM2307.26 58.1364C2299.65 54.1595 2290.85 53.2975 2282.58 53.4803C2277.77 53.6007 2272.96 54.0927 2268.76 55.8736C2264.58 57.6756 2261.04 60.9045 2259.84 65.3158C2258.02 71.9867 2261.78 79.6215 2266.19 85.806C2271.35 93.0437 2277.53 99.5922 2284.67 104.882C2289.43 108.399 2295.03 111.525 2301.16 110.946C2314.89 109.682 2321.86 98.3246 2322.17 86.6082C2322.59 74.8377 2316.52 62.9368 2307.26 58.1364ZM1975.36 170.371C1976.1 166.217 1979.06 162.155 1983.23 161.485C1985.96 161.054 1988.79 162.143 1990.9 163.948C1993.79 166.422 1995.51 170.269 1995.27 174.07C1994.86 180.845 1988.69 185.657 1982.04 184.703C1975.36 183.75 1974.35 176.022 1975.36 170.371ZM2112.31 171.774C2112.68 167.74 2115.23 163.962 2119.43 163.376C2122.19 162.997 2125.27 164.086 2127.7 165.873C2131.02 168.32 2133.26 172.174 2133.37 176.056C2133.58 182.999 2127.21 187.859 2120.24 186.454C2113.24 185.037 2111.83 177.216 2112.31 171.774ZM2120.3 199.871C2128.57 199.689 2137.37 200.551 2144.98 204.527C2154.24 209.328 2160.31 221.229 2159.89 232.999C2159.58 244.716 2152.61 256.073 2138.88 257.337C2132.75 257.916 2127.15 254.79 2122.39 251.273C2115.25 245.983 2109.07 239.435 2103.91 232.197C2099.51 226.013 2095.75 218.378 2097.56 211.707C2098.76 207.296 2102.31 204.067 2106.48 202.265C2110.68 200.484 2115.49 199.992 2120.3 199.871ZM1393.12 652.86C1388.96 653.529 1386 657.592 1385.26 661.745C1384.25 667.397 1385.26 675.125 1391.93 676.078C1398.58 677.031 1404.76 672.22 1405.17 665.445C1405.4 661.643 1403.69 657.796 1400.8 655.322C1398.69 653.518 1395.86 652.428 1393.12 652.86ZM1522.2 663.149C1522.57 659.114 1525.13 655.336 1529.33 654.75C1532.09 654.371 1535.17 655.461 1537.6 657.247C1540.91 659.694 1543.15 663.549 1543.27 667.43C1543.48 674.374 1537.11 679.234 1530.13 677.828C1523.14 676.411 1521.73 668.591 1522.2 663.149ZM1530.2 691.246C1538.47 691.063 1547.26 691.925 1554.88 695.902C1564.13 700.702 1570.21 712.603 1569.79 724.374C1569.48 736.09 1562.51 747.447 1548.78 748.712C1542.65 749.29 1537.05 746.164 1532.29 742.648C1525.15 737.358 1518.96 730.809 1513.81 723.571C1509.4 717.387 1505.64 709.752 1507.46 703.081C1508.65 698.67 1512.2 695.441 1516.38 693.639C1520.57 691.858 1525.38 691.366 1530.2 691.246ZM1125.31 709.6C1121.14 710.27 1118.18 714.333 1117.44 718.486C1116.43 724.137 1117.44 731.865 1124.12 732.819C1130.77 733.772 1136.94 728.96 1137.35 722.185C1137.59 718.384 1135.87 714.537 1132.98 712.063C1130.87 710.259 1128.04 709.169 1125.31 709.6ZM1254.39 719.89C1254.76 715.855 1257.31 712.077 1261.51 711.491C1264.27 711.112 1267.35 712.201 1269.78 713.988C1273.1 716.435 1275.34 720.289 1275.45 724.171C1275.66 731.114 1269.29 735.975 1262.32 734.569C1255.32 733.152 1253.91 725.331 1254.39 719.89ZM1675.69 736.832C1671.53 737.501 1668.57 741.564 1667.83 745.717C1666.82 751.369 1667.83 759.097 1674.5 760.05C1681.15 761.003 1687.33 756.192 1687.73 749.417C1687.97 745.615 1686.26 741.768 1683.36 739.294C1681.25 737.49 1678.43 736.401 1675.69 736.832ZM1804.77 747.121C1805.14 743.086 1807.7 739.308 1811.89 738.722C1814.66 738.343 1817.74 739.433 1820.17 741.22C1823.48 743.666 1825.72 747.521 1825.83 751.402C1826.05 758.346 1819.68 763.206 1812.7 761.8C1805.71 760.383 1804.3 752.563 1804.77 747.121ZM1812.77 775.218C1821.03 775.035 1829.83 775.897 1837.44 779.874C1846.7 784.674 1852.78 796.575 1852.36 808.346C1852.05 820.062 1845.08 831.419 1831.35 832.684C1825.21 833.262 1819.61 830.136 1814.86 826.62C1807.72 821.33 1801.53 814.781 1796.38 807.544C1791.97 801.359 1788.21 793.724 1790.03 787.053C1791.22 782.642 1794.77 779.413 1798.95 777.611C1803.14 775.83 1807.95 775.338 1812.77 775.218ZM576.059 840.104C571.894 840.773 568.932 844.836 568.195 848.99C567.185 854.641 568.195 862.369 574.867 863.322C581.517 864.275 587.691 859.464 588.099 852.689C588.338 848.887 586.624 845.04 583.73 842.566C581.619 840.762 578.794 839.673 576.059 840.104ZM705.138 850.393C705.508 846.358 708.065 842.58 712.26 841.995C715.024 841.615 718.104 842.705 720.532 844.492C723.849 846.938 726.088 850.793 726.2 854.674C726.413 861.618 720.043 866.478 713.066 865.073C706.071 863.655 704.661 855.835 705.138 850.393ZM737.809 883.146C730.198 879.169 721.399 878.307 713.135 878.49C708.318 878.61 703.508 879.102 699.315 880.883C695.137 882.685 691.587 885.914 690.395 890.326C688.576 896.997 692.337 904.631 696.741 910.816C701.898 918.054 708.085 924.602 715.224 929.892C719.98 933.409 725.579 936.535 731.711 935.956C745.441 934.691 752.415 923.334 752.724 911.618C753.144 899.847 747.068 887.947 737.809 883.146ZM738.261 865.729C736.906 861.73 738.052 857.397 740.254 854.004C742.808 850.185 747.698 844.008 753.283 845.71C760.303 847.81 761.788 856.316 758.551 862.061C756.724 865.304 753.72 867.773 750.441 869.494C748.004 870.757 745.102 871.646 742.546 870.624C740.472 869.79 738.976 867.822 738.261 865.729ZM760.861 887.138C762.616 891.263 767.487 893.495 772.02 892.462C776.425 891.447 780.615 886.727 782.168 881.829C783.755 876.939 782.691 872.008 777.251 870.508C768.519 868.217 756.942 877.877 760.861 887.138ZM784.034 915.03C783.438 918.934 780.269 922.41 774.884 921.519C768.844 920.512 766.923 915.792 767.808 911.819C768.695 907.822 772.39 904.454 778.09 905.776C782.641 906.839 784.626 911.111 784.034 915.03ZM597.802 879.822C590.766 876.202 582.516 875.635 574.652 876.475C570.067 876.963 565.448 877.927 561.454 880.22C557.459 882.512 554.134 886.291 553.249 890.807C551.899 897.673 556.256 904.334 561.079 909.418C566.731 915.365 573.324 920.392 580.553 924.262C585.376 926.838 590.834 928.948 596.202 927.927C620.112 923.388 614.926 888.651 597.802 879.822ZM601.445 852.337C599.05 855.492 597.654 859.645 598.71 863.458C599.266 865.456 600.571 867.328 602.466 868.145C604.804 869.155 607.527 868.406 609.831 867.328C612.94 865.876 615.834 863.787 617.752 860.939C621.1 855.957 620.691 847.98 614.484 845.313C609.536 843.191 604.168 848.763 601.445 852.337ZM628.998 889.105C624.969 889.741 620.51 887.596 618.932 883.828C615.346 875.294 626.49 867.158 634.229 870.222C643.887 874.035 636.908 887.857 628.998 889.105ZM632.8 914.309C642.389 916.136 642.877 903.336 634.729 900.998C624.504 898.059 621.996 912.255 632.8 914.309ZM1837.9 762.456C1836.54 758.458 1837.69 754.125 1839.89 750.732C1842.44 746.913 1847.33 740.736 1852.92 742.437C1859.94 744.537 1861.42 753.044 1858.19 758.788C1856.36 762.032 1853.35 764.501 1850.08 766.221C1847.64 767.485 1844.74 768.374 1842.18 767.352C1840.11 766.518 1838.61 764.549 1837.9 762.456ZM1860.5 783.866C1862.25 787.991 1867.12 790.223 1871.65 789.19C1876.06 788.175 1880.25 783.455 1881.8 778.557C1883.39 773.667 1882.33 768.735 1876.89 767.236C1868.15 764.944 1856.58 774.604 1860.5 783.866ZM1883.67 811.758C1883.07 815.662 1879.9 819.138 1874.52 818.247C1868.48 817.24 1866.56 812.52 1867.44 808.547C1868.33 804.549 1872.03 801.182 1877.72 802.504C1882.28 803.567 1884.26 807.838 1883.67 811.758ZM1697.44 776.55C1690.4 772.93 1682.15 772.363 1674.29 773.203C1669.7 773.69 1665.08 774.655 1661.09 776.947C1657.09 779.24 1653.77 783.019 1652.88 787.535C1651.53 794.401 1655.89 801.062 1660.71 806.146C1666.37 812.093 1672.96 817.12 1680.19 820.99C1685.01 823.566 1690.47 825.676 1695.84 824.655C1719.75 820.116 1714.56 785.379 1697.44 776.55ZM1701.08 749.065C1698.68 752.22 1697.29 756.373 1698.34 760.186C1698.9 762.183 1700.21 764.056 1702.1 764.873C1704.44 765.883 1707.16 765.134 1709.47 764.056C1712.58 762.603 1715.47 760.515 1717.39 757.667C1720.73 752.685 1720.33 744.707 1714.12 742.041C1709.17 739.918 1703.8 745.49 1701.08 749.065ZM1728.63 785.833C1724.6 786.469 1720.14 784.324 1718.57 780.556C1714.98 772.022 1726.12 763.886 1733.86 766.95C1743.52 770.763 1736.54 784.585 1728.63 785.833ZM1732.43 811.037C1742.02 812.864 1742.51 800.064 1734.36 797.726C1724.14 794.787 1721.63 808.983 1732.43 811.037ZM979.817 785.435C988.08 785.253 996.88 786.115 1004.49 790.091C1013.75 794.892 1019.83 806.793 1019.41 818.563C1019.1 830.28 1012.12 841.637 998.392 842.901C992.26 843.48 986.661 840.354 981.905 836.837C974.766 831.547 968.58 824.999 963.422 817.761C959.018 811.576 955.258 803.942 957.077 797.271C958.269 792.859 961.818 789.631 965.997 787.829C970.189 786.048 974.999 785.556 979.817 785.435ZM971.819 757.338C972.19 753.304 974.746 749.526 978.941 748.94C981.705 748.561 984.786 749.65 987.213 751.437C990.53 753.884 992.769 757.738 992.881 761.62C993.094 768.563 986.724 773.423 979.748 772.018C972.752 770.601 971.342 762.78 971.819 757.338ZM1004.94 772.674C1003.59 768.675 1004.73 764.342 1006.94 760.949C1009.49 757.13 1014.38 750.953 1019.96 752.655C1026.98 754.755 1028.47 763.261 1025.23 769.006C1023.41 772.249 1020.4 774.719 1017.12 776.439C1014.69 777.702 1011.78 778.591 1009.23 777.57C1007.15 776.735 1005.66 774.767 1004.94 772.674ZM1027.54 794.083C1029.3 798.208 1034.17 800.44 1038.7 799.407C1043.11 798.392 1047.3 793.672 1048.85 788.775C1050.44 783.884 1049.37 778.953 1043.93 777.454C1035.2 775.162 1023.62 784.822 1027.54 794.083ZM1050.72 821.975C1050.12 825.879 1046.95 829.355 1041.57 828.464C1035.53 827.457 1033.6 822.737 1034.49 818.765C1035.38 814.767 1039.07 811.399 1044.77 812.721C1049.32 813.785 1051.31 818.056 1050.72 821.975ZM864.483 786.768C857.447 783.148 849.197 782.58 841.333 783.42C836.748 783.908 832.13 784.872 828.135 787.165C824.141 789.457 820.816 793.236 819.93 797.753C818.58 804.618 822.938 811.28 827.761 816.364C833.412 822.31 840.005 827.337 847.234 831.207C852.057 833.783 857.515 835.894 862.883 834.872C886.794 830.333 881.608 795.596 864.483 786.768ZM842.74 747.049C838.575 747.719 835.614 751.781 834.876 755.935C833.866 761.586 834.876 769.314 841.549 770.267C848.199 771.221 854.372 766.409 854.781 759.634C855.019 755.833 853.305 751.986 850.412 749.512C848.301 747.707 845.475 746.618 842.74 747.049ZM868.126 759.282C865.731 762.437 864.336 766.591 865.391 770.404C865.947 772.401 867.252 774.273 869.147 775.09C871.485 776.1 874.209 775.351 876.512 774.273C879.622 772.821 882.515 770.733 884.433 767.884C887.781 762.903 887.372 754.925 881.165 752.258C876.217 750.136 870.849 755.708 868.126 759.282ZM895.679 796.05C891.651 796.686 887.191 794.541 885.613 790.774C882.027 782.24 893.171 774.103 900.911 777.167C910.568 780.98 903.589 794.802 895.679 796.05ZM899.481 821.255C909.07 823.082 909.558 810.281 901.41 807.943C891.185 805.004 888.677 819.201 899.481 821.255ZM1016.13 917.074C1024.39 916.891 1033.19 917.753 1040.8 921.73C1050.06 926.53 1056.14 938.431 1055.72 950.202C1055.41 961.918 1048.44 973.275 1034.71 974.54C1028.57 975.118 1022.98 971.992 1018.22 968.476C1011.08 963.186 1004.89 956.637 999.736 949.399C995.332 943.215 991.572 935.58 993.391 928.909C994.583 924.498 998.132 921.269 1002.31 919.467C1006.5 917.686 1011.31 917.194 1016.13 917.074ZM1008.13 888.977C1008.5 884.942 1011.06 881.164 1015.26 880.578C1018.02 880.199 1021.1 881.289 1023.53 883.075C1026.84 885.522 1029.08 889.377 1029.19 893.258C1029.41 900.202 1023.04 905.062 1016.06 903.656C1009.07 902.239 1007.66 894.419 1008.13 888.977ZM1041.26 904.312C1039.9 900.314 1041.05 895.981 1043.25 892.588C1045.8 888.769 1050.69 882.592 1056.28 884.293C1063.3 886.393 1064.78 894.9 1061.55 900.644C1059.72 903.888 1056.72 906.357 1053.44 908.077C1051 909.341 1048.1 910.23 1045.54 909.208C1043.47 908.374 1041.97 906.405 1041.26 904.312ZM1063.86 925.722C1065.61 929.847 1070.48 932.079 1075.02 931.046C1079.42 930.031 1083.61 925.311 1085.16 920.413C1086.75 915.523 1085.69 910.591 1080.25 909.092C1071.51 906.8 1059.94 916.46 1063.86 925.722ZM1087.03 953.614C1086.43 957.518 1083.26 960.994 1077.88 960.103C1071.84 959.096 1069.92 954.376 1070.8 950.403C1071.69 946.405 1075.39 943.038 1081.09 944.36C1085.64 945.423 1087.62 949.694 1087.03 953.614ZM900.797 918.406C893.761 914.786 885.511 914.219 877.647 915.058C873.062 915.546 868.444 916.511 864.449 918.803C860.455 921.096 857.13 924.875 856.244 929.391C854.894 936.257 859.252 942.918 864.075 948.002C869.726 953.948 876.319 958.976 883.548 962.845C888.371 965.421 893.829 967.532 899.197 966.511C923.108 961.972 917.922 927.235 900.797 918.406ZM879.054 878.688C874.889 879.357 871.928 883.42 871.19 887.573C870.18 893.225 871.19 900.953 877.863 901.906C884.513 902.859 890.686 898.048 891.095 891.273C891.333 887.471 889.619 883.624 886.725 881.15C884.615 879.346 881.789 878.256 879.054 878.688ZM904.44 890.921C902.045 894.076 900.65 898.229 901.705 902.042C902.261 904.039 903.566 905.912 905.461 906.729C907.799 907.739 910.523 906.99 912.826 905.912C915.936 904.459 918.829 902.371 920.747 899.523C924.095 894.541 923.686 886.563 917.479 883.896C912.531 881.774 907.163 887.346 904.44 890.921ZM931.993 927.689C927.965 928.324 923.505 926.18 921.927 922.412C918.341 913.878 929.485 905.742 937.225 908.806C946.882 912.619 939.903 926.441 931.993 927.689ZM935.795 952.893C945.384 954.72 945.872 941.919 937.724 939.582C927.499 936.643 924.991 950.839 935.795 952.893ZM1262.39 747.986C1270.65 747.804 1279.45 748.666 1287.06 752.643C1296.32 757.443 1302.39 769.344 1301.97 781.114C1301.66 792.831 1294.69 804.188 1280.96 805.453C1274.83 806.031 1269.23 802.905 1264.47 799.389C1257.34 794.098 1251.15 787.55 1245.99 780.312C1241.59 774.128 1237.83 766.493 1239.65 759.822C1240.84 755.411 1244.39 752.182 1248.57 750.38C1252.76 748.599 1257.57 748.107 1262.39 747.986ZM1287.51 735.225C1286.16 731.226 1287.3 726.894 1289.5 723.5C1292.06 719.681 1296.95 713.505 1302.53 715.206C1309.55 717.306 1311.04 725.812 1307.8 731.557C1305.97 734.801 1302.97 737.27 1299.69 738.99C1297.25 740.253 1294.35 741.143 1291.8 740.121C1289.72 739.286 1288.23 737.318 1287.51 735.225ZM1310.11 756.634C1311.87 760.759 1316.74 762.991 1321.27 761.958C1325.67 760.943 1329.87 756.223 1331.42 751.326C1333.01 746.435 1331.94 741.504 1326.5 740.005C1317.77 737.713 1306.19 747.373 1310.11 756.634ZM1333.28 784.526C1332.69 788.43 1329.52 791.906 1324.13 791.016C1318.09 790.008 1316.17 785.288 1317.06 781.316C1317.94 777.318 1321.64 773.951 1327.34 775.273C1331.89 776.336 1333.88 780.607 1333.28 784.526ZM1147.05 749.319C1140.02 745.699 1131.77 745.131 1123.9 745.971C1119.32 746.459 1114.7 747.424 1110.7 749.716C1106.71 752.008 1103.38 755.787 1102.5 760.304C1101.15 767.169 1105.51 773.831 1110.33 778.915C1115.98 784.861 1122.57 789.888 1129.8 793.758C1134.63 796.334 1140.08 798.445 1145.45 797.424C1169.36 792.884 1164.18 758.148 1147.05 749.319ZM1150.69 721.834C1148.3 724.988 1146.9 729.142 1147.96 732.955C1148.52 734.952 1149.82 736.825 1151.72 737.642C1154.05 738.652 1156.78 737.903 1159.08 736.825C1162.19 735.372 1165.08 733.284 1167 730.436C1170.35 725.454 1169.94 717.476 1163.73 714.809C1158.79 712.687 1153.42 718.259 1150.69 721.834ZM1178.25 758.602C1174.22 759.237 1169.76 757.092 1168.18 753.325C1164.6 744.791 1175.74 736.654 1183.48 739.718C1193.14 743.531 1186.16 757.353 1178.25 758.602ZM1182.05 783.806C1191.64 785.633 1192.13 772.832 1183.98 770.495C1173.75 767.555 1171.25 781.752 1182.05 783.806ZM1312.32 906.86C1320.58 906.678 1329.38 907.54 1336.99 911.516C1346.25 916.317 1352.33 928.218 1351.91 939.988C1351.6 951.705 1344.62 963.062 1330.89 964.327C1324.76 964.905 1319.16 961.779 1314.41 958.263C1307.27 952.972 1301.08 946.424 1295.92 939.186C1291.52 933.002 1287.76 925.367 1289.58 918.696C1290.77 914.285 1294.32 911.056 1298.5 909.254C1302.69 907.473 1307.5 906.981 1312.32 906.86ZM1304.32 878.764C1304.69 874.729 1307.25 870.951 1311.44 870.365C1314.21 869.986 1317.29 871.075 1319.71 872.862C1323.03 875.309 1325.27 879.163 1325.38 883.045C1325.59 889.988 1319.22 894.849 1312.25 893.443C1305.25 892.026 1303.84 884.205 1304.32 878.764ZM1337.44 894.099C1336.09 890.1 1337.23 885.768 1339.44 882.374C1341.99 878.555 1346.88 872.379 1352.46 874.08C1359.48 876.18 1360.97 884.686 1357.73 890.431C1355.91 893.674 1352.9 896.144 1349.62 897.864C1347.19 899.127 1344.28 900.017 1341.73 898.995C1339.65 898.16 1338.16 896.192 1337.44 894.099ZM1360.04 915.508C1361.8 919.633 1366.67 921.865 1371.2 920.832C1375.61 919.817 1379.8 915.097 1381.35 910.2C1382.94 905.309 1381.87 900.378 1376.43 898.879C1367.7 896.587 1356.12 906.247 1360.04 915.508ZM1383.22 943.4C1382.62 947.304 1379.45 950.78 1374.07 949.89C1368.03 948.882 1366.1 944.162 1366.99 940.19C1367.88 936.192 1371.57 932.825 1377.27 934.147C1381.82 935.21 1383.81 939.481 1383.22 943.4ZM1196.98 908.193C1189.95 904.573 1181.7 904.005 1173.83 904.845C1169.25 905.333 1164.63 906.298 1160.64 908.59C1156.64 910.882 1153.32 914.661 1152.43 919.178C1151.08 926.043 1155.44 932.705 1160.26 937.789C1165.91 943.735 1172.51 948.762 1179.73 952.632C1184.56 955.208 1190.02 957.319 1195.38 956.298C1219.29 951.758 1214.11 917.022 1196.98 908.193ZM1175.24 868.474C1171.08 869.144 1168.11 873.206 1167.38 877.36C1166.37 883.011 1167.38 890.739 1174.05 891.693C1180.7 892.646 1186.87 887.834 1187.28 881.059C1187.52 877.258 1185.81 873.411 1182.91 870.937C1180.8 869.133 1177.98 868.043 1175.24 868.474ZM1200.63 880.708C1198.23 883.862 1196.84 888.016 1197.89 891.829C1198.45 893.826 1199.75 895.699 1201.65 896.516C1203.99 897.526 1206.71 896.777 1209.01 895.699C1212.12 894.246 1215.02 892.158 1216.93 889.31C1220.28 884.328 1219.87 876.35 1213.67 873.683C1208.72 871.561 1203.35 877.133 1200.63 880.708ZM1228.18 917.476C1224.15 918.111 1219.69 915.966 1218.11 912.199C1214.53 903.665 1225.67 895.528 1233.41 898.592C1243.07 902.405 1236.09 916.227 1228.18 917.476ZM1231.98 942.68C1241.57 944.507 1242.06 931.706 1233.91 929.368C1223.69 926.429 1221.18 940.626 1231.98 942.68ZM1555.33 678.484C1553.97 674.486 1555.12 670.153 1557.32 666.76C1559.87 662.941 1564.76 656.764 1570.35 658.465C1577.37 660.565 1578.85 669.072 1575.62 674.816C1573.79 678.06 1570.79 680.529 1567.51 682.249C1565.07 683.513 1562.17 684.402 1559.61 683.38C1557.54 682.546 1556.04 680.577 1555.33 678.484ZM1577.93 699.894C1579.68 704.019 1584.55 706.251 1589.09 705.218C1593.49 704.203 1597.68 699.483 1599.23 694.585C1600.82 689.695 1599.76 684.763 1594.32 683.264C1585.59 680.972 1574.01 690.632 1577.93 699.894ZM1601.1 727.786C1600.5 731.69 1597.34 735.166 1591.95 734.275C1585.91 733.268 1583.99 728.548 1584.87 724.575C1585.76 720.577 1589.46 717.21 1595.16 718.532C1599.71 719.595 1601.69 723.866 1601.1 727.786ZM1414.87 692.578C1407.83 688.958 1399.58 688.391 1391.72 689.23C1387.13 689.718 1382.51 690.683 1378.52 692.975C1374.53 695.268 1371.2 699.047 1370.32 703.563C1368.96 710.429 1373.32 717.09 1378.15 722.174C1383.8 728.12 1390.39 733.148 1397.62 737.017C1402.44 739.593 1407.9 741.704 1413.27 740.683C1437.18 736.144 1431.99 701.407 1414.87 692.578ZM1418.51 665.093C1416.12 668.248 1414.72 672.401 1415.78 676.214C1416.33 678.211 1417.64 680.084 1419.53 680.901C1421.87 681.911 1424.59 681.162 1426.9 680.084C1430.01 678.631 1432.9 676.543 1434.82 673.695C1438.17 668.713 1437.76 660.735 1431.55 658.068C1426.6 655.946 1421.23 661.518 1418.51 665.093ZM1446.06 701.861C1442.04 702.496 1437.58 700.352 1436 696.584C1432.41 688.05 1443.56 679.914 1451.3 682.978C1460.95 686.791 1453.97 700.613 1446.06 701.861ZM1449.87 727.065C1459.45 728.892 1459.94 716.091 1451.79 713.754C1441.57 710.815 1439.06 725.011 1449.87 727.065ZM2145.43 187.11C2144.08 183.111 2145.22 178.778 2147.42 175.385C2149.98 171.566 2154.87 165.389 2160.45 167.091C2167.47 169.191 2168.96 177.697 2165.72 183.442C2163.89 186.685 2160.89 189.155 2157.61 190.875C2155.17 192.138 2152.27 193.027 2149.72 192.006C2147.64 191.171 2146.15 189.203 2145.43 187.11ZM2168.03 208.519C2169.79 212.644 2174.66 214.876 2179.19 213.843C2183.59 212.828 2187.78 208.108 2189.34 203.211C2190.92 198.32 2189.86 193.389 2184.42 191.89C2175.69 189.598 2164.11 199.258 2168.03 208.519ZM2191.2 236.411C2190.61 240.315 2187.44 243.791 2182.05 242.9C2176.01 241.893 2174.09 237.173 2174.98 233.201C2175.86 229.203 2179.56 225.835 2185.26 227.157C2189.81 228.221 2191.8 232.492 2191.2 236.411ZM2324.28 209.067C2316.67 205.09 2307.87 204.228 2299.61 204.411C2294.79 204.531 2289.98 205.023 2285.79 206.804C2281.61 208.606 2278.06 211.835 2276.87 216.246C2275.05 222.917 2278.81 230.552 2283.21 236.736C2288.37 243.974 2294.55 250.522 2301.69 255.813C2306.45 259.329 2312.05 262.455 2318.18 261.877C2331.91 260.612 2338.88 249.255 2339.19 237.538C2339.61 225.768 2333.54 213.867 2324.28 209.067ZM2298.73 167.915C2294.53 168.501 2291.98 172.279 2291.61 176.314C2291.13 181.755 2292.54 189.576 2299.54 190.993C2306.51 192.399 2312.88 187.538 2312.67 180.595C2312.56 176.713 2310.32 172.859 2307 170.412C2304.57 168.626 2301.49 167.536 2298.73 167.915ZM2326.72 179.924C2324.52 183.318 2323.38 187.65 2324.73 191.649C2325.45 193.742 2326.94 195.71 2329.02 196.545C2331.57 197.567 2334.47 196.677 2336.91 195.414C2340.19 193.694 2343.19 191.224 2345.02 187.981C2348.26 182.236 2346.77 173.73 2339.75 171.63C2334.17 169.929 2329.28 176.105 2326.72 179.924ZM2358.49 218.383C2353.96 219.415 2349.09 217.183 2347.33 213.058C2343.41 203.797 2354.99 194.137 2363.72 196.429C2369.16 197.928 2370.22 202.859 2368.64 207.75C2367.09 212.647 2362.89 217.367 2358.49 218.383ZM2361.35 247.44C2366.74 248.331 2369.91 244.854 2370.5 240.951C2371.1 237.031 2369.11 232.76 2364.56 231.697C2358.86 230.375 2355.16 233.742 2354.28 237.74C2353.39 241.712 2355.31 246.432 2361.35 247.44ZM1981.82 197.856C1989.69 197.016 1997.94 197.584 2004.97 201.204C2022.1 210.033 2027.28 244.769 2003.37 249.309C1998 250.33 1992.55 248.219 1987.72 245.643C1980.49 241.773 1973.9 236.746 1968.25 230.8C1963.43 225.716 1959.07 219.054 1960.42 212.189C1961.3 207.672 1964.63 203.893 1968.62 201.601C1972.62 199.309 1977.24 198.344 1981.82 197.856ZM2005.88 184.84C2004.82 181.027 2006.22 176.873 2008.61 173.718C2011.34 170.144 2016.71 164.572 2021.65 166.694C2027.86 169.361 2028.27 177.338 2024.92 182.32C2023 185.169 2020.11 187.257 2017 188.709C2014.7 189.787 2011.97 190.536 2009.64 189.526C2007.74 188.709 2006.44 186.837 2005.88 184.84ZM2026.1 205.21C2027.68 208.977 2032.14 211.122 2036.17 210.486C2044.08 209.238 2051.06 195.416 2041.4 191.603C2033.66 188.539 2022.52 196.676 2026.1 205.21ZM2039.97 235.691C2049.56 237.518 2050.05 224.717 2041.9 222.379C2031.67 219.44 2029.17 233.637 2039.97 235.691ZM2309.7 28.9941C2307.5 32.3873 2306.35 36.7201 2307.71 40.7187C2308.42 42.8118 2309.92 44.7801 2311.99 45.6146C2314.55 46.6363 2317.45 45.7472 2319.89 44.4836C2323.17 42.7635 2326.17 40.2942 2328 37.0508C2331.24 31.3061 2329.75 22.7996 2322.73 20.6997C2317.15 18.9983 2312.26 25.1751 2309.7 28.9941ZM2341.47 67.4523C2336.93 68.4851 2332.06 66.2531 2330.31 62.1282C2326.39 52.8668 2337.97 43.2068 2346.7 45.4985C2352.14 46.9977 2353.2 51.9292 2351.62 56.8195C2350.06 61.7171 2345.87 66.437 2341.47 67.4523ZM2344.33 96.5094C2349.72 97.4003 2352.89 93.9242 2353.48 90.0203C2354.07 86.1009 2352.09 81.8296 2347.54 80.7664C2341.84 79.4444 2338.14 82.8117 2337.26 86.8096C2336.37 90.7822 2338.29 95.5021 2344.33 96.5094ZM2144.1 51.465C2151.96 50.6252 2160.21 51.1926 2167.25 54.8127C2184.37 63.6415 2189.56 98.3782 2165.65 102.917C2160.28 103.939 2154.82 101.828 2150 99.252C2142.77 95.3823 2136.18 90.3551 2130.53 84.4086C2125.7 79.3247 2121.35 72.6633 2122.7 65.7977C2123.58 61.2811 2126.91 57.5022 2130.9 55.2099C2134.9 52.9176 2139.51 51.953 2144.1 51.465ZM2168.16 38.4486C2167.1 34.6356 2168.5 30.4822 2170.89 27.3274C2173.62 23.7527 2178.98 18.1808 2183.93 20.3029C2190.14 22.9697 2190.55 30.9474 2187.2 35.9293C2185.28 38.7777 2182.39 40.8657 2179.28 42.3183C2176.98 43.3964 2174.25 44.1453 2171.91 43.1353C2170.02 42.3183 2168.71 40.4458 2168.16 38.4486ZM2188.38 58.8185C2189.96 62.5861 2194.42 64.7309 2198.45 64.0954C2206.36 62.8471 2213.33 49.0251 2203.68 45.2121C2195.94 42.1481 2184.79 50.2847 2188.38 58.8185ZM2202.25 89.2996C2211.84 91.1266 2212.32 78.3259 2204.18 75.9882C2193.95 73.0491 2191.44 87.2456 2202.25 89.2996ZM2098.45 897.899C2090.84 893.922 2082.04 893.06 2073.78 893.243C2068.96 893.363 2064.15 893.855 2059.96 895.636C2055.78 897.438 2052.23 900.667 2051.04 905.078C2049.22 911.749 2052.98 919.384 2057.38 925.568C2062.54 932.806 2068.73 939.355 2075.87 944.645C2080.62 948.161 2086.22 951.287 2092.35 950.709C2106.08 949.444 2113.06 938.087 2113.37 926.371C2113.79 914.6 2107.71 902.699 2098.45 897.899ZM2072.9 856.747C2068.71 857.333 2066.15 861.111 2065.78 865.146C2065.3 870.587 2066.71 878.408 2073.71 879.825C2080.68 881.231 2087.05 876.37 2086.84 869.427C2086.73 865.546 2084.49 861.691 2081.17 859.244C2078.75 857.458 2075.67 856.368 2072.9 856.747ZM2100.9 868.757C2098.69 872.15 2097.55 876.482 2098.9 880.481C2099.62 882.574 2101.11 884.543 2103.19 885.377C2105.74 886.399 2108.65 885.51 2111.08 884.246C2114.36 882.526 2117.37 880.057 2119.19 876.813C2122.43 871.069 2120.94 862.562 2113.92 860.462C2108.34 858.761 2103.45 864.938 2100.9 868.757ZM2132.66 907.215C2128.13 908.247 2123.26 906.015 2121.5 901.891C2117.58 892.629 2129.16 882.969 2137.89 885.261C2143.33 886.76 2144.4 891.692 2142.81 896.582C2141.26 901.479 2137.07 906.199 2132.66 907.215ZM2135.53 936.272C2140.91 937.163 2144.08 933.687 2144.68 929.783C2145.27 925.863 2143.28 921.592 2138.73 920.529C2133.03 919.207 2129.34 922.574 2128.45 926.572C2127.56 930.545 2129.49 935.264 2135.53 936.272ZM1935.29 891.227C1943.16 890.388 1951.41 890.955 1958.44 894.575C1975.57 903.404 1980.75 938.141 1956.84 942.68C1951.48 943.701 1946.02 941.59 1941.19 939.014C1933.97 935.145 1927.37 930.117 1921.72 924.171C1916.9 919.087 1912.54 912.426 1913.89 905.56C1914.78 901.043 1918.1 897.265 1922.1 894.972C1926.09 892.68 1930.71 891.715 1935.29 891.227ZM1928.84 863.742C1929.57 859.589 1932.54 855.526 1936.7 854.857C1939.44 854.425 1942.26 855.515 1944.37 857.319C1947.27 859.793 1948.98 863.64 1948.74 867.442C1948.33 874.216 1942.16 879.028 1935.51 878.075C1928.84 877.122 1927.83 869.393 1928.84 863.742ZM1959.35 878.211C1958.3 874.398 1959.69 870.245 1962.09 867.09C1964.81 863.515 1970.18 857.943 1975.13 860.065C1981.33 862.732 1981.74 870.71 1978.39 875.692C1976.48 878.54 1973.58 880.628 1970.47 882.081C1968.17 883.159 1965.45 883.908 1963.11 882.898C1961.21 882.081 1959.91 880.208 1959.35 878.211ZM1979.57 898.581C1981.15 902.349 1985.61 904.493 1989.64 903.858C1997.55 902.609 2004.53 888.787 1994.87 884.974C1987.13 881.911 1975.99 890.047 1979.57 898.581ZM1993.44 929.062C2003.03 930.889 2003.52 918.088 1995.37 915.751C1985.15 912.812 1982.64 927.008 1993.44 929.062ZM1701.27 914.921C1693.66 910.944 1684.86 910.082 1676.59 910.265C1671.78 910.385 1666.97 910.877 1662.77 912.658C1658.59 914.46 1655.04 917.689 1653.85 922.1C1652.03 928.771 1655.79 936.406 1660.2 942.591C1665.36 949.828 1671.54 956.377 1678.68 961.667C1683.44 965.183 1689.04 968.309 1695.17 967.731C1708.9 966.466 1715.87 955.109 1716.18 943.393C1716.6 931.622 1710.53 919.721 1701.27 914.921ZM1675.72 873.769C1671.52 874.355 1668.97 878.133 1668.6 882.168C1668.12 887.61 1669.53 895.43 1676.52 896.847C1683.5 898.253 1689.87 893.393 1689.66 886.449C1689.54 882.568 1687.31 878.713 1683.99 876.267C1681.56 874.48 1678.48 873.39 1675.72 873.769ZM1703.71 885.779C1701.51 889.172 1700.36 893.505 1701.72 897.503C1702.43 899.596 1703.93 901.565 1706 902.399C1708.56 903.421 1711.46 902.532 1713.9 901.268C1717.18 899.548 1720.18 897.079 1722.01 893.835C1725.24 888.091 1723.76 879.584 1716.74 877.484C1711.16 875.783 1706.27 881.96 1703.71 885.779ZM1735.48 924.237C1730.94 925.27 1726.07 923.038 1724.32 918.913C1720.4 909.651 1731.98 899.991 1740.71 902.283C1746.15 903.782 1747.21 908.714 1745.62 913.604C1744.07 918.502 1739.88 923.222 1735.48 924.237ZM1738.34 953.294C1743.73 954.185 1746.89 950.709 1747.49 946.805C1748.08 942.885 1746.1 938.614 1741.55 937.551C1735.85 936.229 1732.15 939.596 1731.27 943.594C1730.38 947.567 1732.3 952.287 1738.34 953.294ZM1538.11 908.25C1545.97 907.41 1554.22 907.977 1561.26 911.597C1578.38 920.426 1583.57 955.163 1559.66 959.702C1554.29 960.723 1548.83 958.613 1544.01 956.036C1536.78 952.167 1530.19 947.14 1524.54 941.193C1519.71 936.109 1515.36 929.448 1516.71 922.582C1517.59 918.066 1520.92 914.287 1524.91 911.994C1528.91 909.702 1533.52 908.737 1538.11 908.25ZM1531.65 880.764C1532.39 876.611 1535.35 872.548 1539.52 871.879C1542.25 871.448 1545.08 872.537 1547.19 874.341C1550.08 876.815 1551.79 880.662 1551.56 884.464C1551.15 891.239 1544.97 896.05 1538.32 895.097C1531.65 894.144 1530.64 886.416 1531.65 880.764ZM1562.17 895.233C1561.11 891.42 1562.51 887.267 1564.9 884.112C1567.63 880.537 1572.99 874.965 1577.94 877.088C1584.15 879.754 1584.56 887.732 1581.21 892.714C1579.29 895.562 1576.4 897.65 1573.29 899.103C1570.98 900.181 1568.26 900.93 1565.92 899.92C1564.03 899.103 1562.72 897.23 1562.17 895.233ZM1582.39 915.603C1583.97 919.371 1588.43 921.516 1592.46 920.88C1600.36 919.632 1607.34 905.81 1597.69 901.997C1589.95 898.933 1578.8 907.069 1582.39 915.603ZM1596.26 946.084C1605.85 947.911 1606.33 935.111 1598.19 932.773C1587.96 929.834 1585.45 944.03 1596.26 946.084ZM2413.93 910.382C2406.32 906.405 2397.52 905.543 2389.26 905.726C2384.44 905.846 2379.63 906.338 2375.44 908.119C2371.26 909.921 2367.71 913.15 2366.52 917.561C2364.7 924.232 2368.46 931.867 2372.86 938.051C2378.02 945.289 2384.21 951.838 2391.34 957.128C2396.1 960.644 2401.7 963.77 2407.83 963.192C2421.56 961.927 2428.54 950.57 2428.84 938.854C2429.26 927.083 2423.19 915.182 2413.93 910.382ZM2388.38 869.23C2384.19 869.816 2381.63 873.594 2381.26 877.629C2380.78 883.07 2382.19 890.891 2389.19 892.308C2396.16 893.714 2402.53 888.853 2402.32 881.91C2402.21 878.029 2399.97 874.174 2396.65 871.727C2394.22 869.941 2391.14 868.851 2388.38 869.23ZM2416.37 881.24C2414.17 884.633 2413.03 888.966 2414.38 892.964C2415.1 895.057 2416.59 897.026 2418.67 897.86C2421.22 898.882 2424.12 897.993 2426.56 896.729C2429.84 895.009 2432.84 892.54 2434.67 889.296C2437.91 883.552 2436.42 875.045 2429.4 872.945C2423.82 871.244 2418.93 877.421 2416.37 881.24ZM2448.14 919.698C2443.61 920.73 2438.74 918.498 2436.98 914.374C2433.06 905.112 2444.64 895.452 2453.37 897.744C2458.81 899.243 2459.88 904.175 2458.29 909.065C2456.74 913.963 2452.55 918.682 2448.14 919.698ZM2451 948.755C2456.39 949.646 2459.56 946.17 2460.15 942.266C2460.75 938.346 2458.76 934.075 2454.21 933.012C2448.51 931.69 2444.82 935.057 2443.93 939.055C2443.04 943.028 2444.96 947.747 2451 948.755ZM2250.77 903.71C2258.64 902.87 2266.89 903.438 2273.92 907.058C2291.05 915.887 2296.23 950.623 2272.32 955.163C2266.95 956.184 2261.5 954.073 2256.67 951.497C2249.44 947.628 2242.85 942.6 2237.2 936.654C2232.38 931.57 2228.02 924.909 2229.37 918.043C2230.25 913.526 2233.58 909.747 2237.57 907.455C2241.57 905.163 2246.19 904.198 2250.77 903.71ZM2244.31 876.225C2245.05 872.072 2248.01 868.009 2252.18 867.339C2254.91 866.908 2257.74 867.998 2259.85 869.802C2262.74 872.276 2264.46 876.123 2264.22 879.925C2263.81 886.699 2257.64 891.511 2250.99 890.558C2244.31 889.604 2243.3 881.876 2244.31 876.225ZM2274.83 890.694C2273.77 886.881 2275.17 882.728 2277.57 879.573C2280.29 875.998 2285.66 870.426 2290.6 872.548C2296.81 875.215 2297.22 883.193 2293.87 888.175C2291.95 891.023 2289.06 893.111 2285.95 894.564C2283.65 895.642 2280.92 896.391 2278.59 895.381C2276.69 894.564 2275.39 892.691 2274.83 890.694ZM2295.05 911.064C2296.63 914.831 2301.09 916.976 2305.12 916.341C2313.03 915.092 2320.01 901.27 2310.35 897.457C2302.61 894.393 2291.47 902.53 2295.05 911.064ZM2308.92 941.545C2318.51 943.372 2319 930.571 2310.85 928.234C2300.62 925.294 2298.12 939.491 2308.92 941.545ZM1642.26 515.466C1634.65 511.489 1625.85 510.627 1617.58 510.81C1612.76 510.931 1607.95 511.423 1603.76 513.204C1599.58 515.006 1596.03 518.234 1594.84 522.646C1593.02 529.317 1596.78 536.951 1601.19 543.136C1606.35 550.374 1612.53 556.922 1619.67 562.212C1624.43 565.729 1630.03 568.855 1636.16 568.276C1649.89 567.011 1656.86 555.655 1657.17 543.938C1657.59 532.168 1651.51 520.267 1642.26 515.466ZM1616.71 474.315C1612.51 474.901 1609.96 478.679 1609.58 482.713C1609.11 488.155 1610.52 495.976 1617.51 497.393C1624.49 498.798 1630.86 493.938 1630.65 486.995C1630.53 483.113 1628.3 479.259 1624.98 476.812C1622.55 475.025 1619.47 473.936 1616.71 474.315ZM1644.7 486.324C1642.5 489.717 1641.35 494.05 1642.71 498.049C1643.42 500.142 1644.92 502.11 1646.99 502.945C1649.55 503.966 1652.45 503.077 1654.89 501.814C1658.17 500.093 1661.17 497.624 1663 494.381C1666.23 488.636 1664.75 480.13 1657.73 478.03C1652.15 476.328 1647.25 482.505 1644.7 486.324ZM1676.47 524.782C1671.93 525.815 1667.06 523.583 1665.31 519.458C1661.39 510.197 1672.97 500.537 1681.7 502.828C1687.14 504.328 1688.2 509.259 1686.61 514.15C1685.06 519.047 1680.87 523.767 1676.47 524.782ZM1679.33 553.839C1684.72 554.73 1687.88 551.254 1688.48 547.35C1689.07 543.431 1687.09 539.16 1682.54 538.096C1676.84 536.774 1673.14 540.142 1672.25 544.14C1671.37 548.112 1673.29 552.832 1679.33 553.839ZM1479.1 508.795C1486.96 507.955 1495.21 508.523 1502.25 512.143C1519.37 520.972 1524.56 555.708 1500.65 560.247C1495.28 561.269 1489.82 559.158 1485 556.582C1477.77 552.712 1471.18 547.685 1465.53 541.739C1460.7 536.655 1456.35 529.993 1457.7 523.128C1458.58 518.611 1461.91 514.832 1465.9 512.54C1469.9 510.248 1474.51 509.283 1479.1 508.795ZM1472.64 481.31C1473.38 477.156 1476.34 473.094 1480.51 472.424C1483.24 471.993 1486.07 473.082 1488.18 474.887C1491.07 477.361 1492.78 481.208 1492.55 485.009C1492.14 491.784 1485.96 496.596 1479.31 495.642C1472.64 494.689 1471.63 486.961 1472.64 481.31ZM1503.16 495.779C1502.1 491.966 1503.5 487.812 1505.89 484.657C1508.61 481.083 1513.98 475.511 1518.93 477.633C1525.14 480.3 1525.55 488.277 1522.2 493.259C1520.28 496.108 1517.39 498.196 1514.28 499.648C1511.97 500.726 1509.25 501.475 1506.91 500.465C1505.02 499.648 1503.71 497.776 1503.16 495.779ZM1523.38 516.149C1524.96 519.916 1529.42 522.061 1533.44 521.425C1541.35 520.177 1548.33 506.355 1538.68 502.542C1530.94 499.478 1519.79 507.615 1523.38 516.149ZM1537.25 546.63C1546.84 548.457 1547.32 535.656 1539.18 533.318C1528.95 530.379 1526.44 544.576 1537.25 546.63ZM1864.68 287.369C1857.07 283.392 1848.27 282.53 1840.01 282.713C1835.19 282.833 1830.38 283.325 1826.19 285.106C1822.01 286.908 1818.46 290.137 1817.27 294.548C1815.45 301.219 1819.21 308.854 1823.61 315.038C1828.77 322.276 1834.96 328.825 1842.09 334.115C1846.85 337.631 1852.45 340.757 1858.58 340.179C1872.31 338.914 1879.29 327.557 1879.59 315.841C1880.01 304.07 1873.94 292.169 1864.68 287.369ZM1839.13 246.217C1834.94 246.803 1832.38 250.581 1832.01 254.616C1831.53 260.058 1832.94 267.878 1839.94 269.295C1846.91 270.701 1853.28 265.841 1853.07 258.897C1852.96 255.016 1850.72 251.161 1847.4 248.714C1844.97 246.928 1841.89 245.838 1839.13 246.217ZM1867.12 258.227C1864.92 261.62 1863.78 265.953 1865.13 269.951C1865.85 272.044 1867.34 274.013 1869.42 274.847C1871.97 275.869 1874.87 274.98 1877.31 273.716C1880.59 271.996 1883.59 269.527 1885.42 266.283C1888.66 260.539 1887.17 252.032 1880.15 249.932C1874.57 248.231 1869.68 254.408 1867.12 258.227ZM1898.89 296.685C1894.36 297.718 1889.49 295.486 1887.73 291.361C1883.81 282.099 1895.39 272.439 1904.12 274.731C1909.56 276.23 1910.63 281.162 1909.04 286.052C1907.49 290.95 1903.3 295.669 1898.89 296.685ZM1901.75 325.742C1907.14 326.633 1910.31 323.157 1910.9 319.253C1911.5 315.333 1909.51 311.062 1904.96 309.999C1899.26 308.677 1895.57 312.044 1894.68 316.042C1893.79 320.015 1895.71 324.735 1901.75 325.742ZM1701.52 280.697C1709.39 279.858 1717.64 280.425 1724.67 284.045C1741.8 292.874 1746.98 327.611 1723.07 332.15C1717.7 333.171 1712.25 331.06 1707.42 328.484C1700.19 324.615 1693.6 319.588 1687.95 313.641C1683.13 308.557 1678.77 301.896 1680.12 295.03C1681 290.514 1684.33 286.735 1688.32 284.442C1692.32 282.15 1696.94 281.185 1701.52 280.697ZM1695.06 253.212C1695.8 249.059 1698.76 244.996 1702.93 244.327C1705.66 243.895 1708.49 244.985 1710.6 246.789C1713.49 249.263 1715.21 253.11 1714.97 256.912C1714.56 263.687 1708.39 268.498 1701.74 267.545C1695.06 266.592 1694.05 258.864 1695.06 253.212ZM1725.58 267.681C1724.52 263.868 1725.92 259.715 1728.31 256.56C1731.04 252.985 1736.41 247.413 1741.35 249.535C1747.56 252.202 1747.97 260.18 1744.62 265.162C1742.7 268.01 1739.81 270.098 1736.7 271.551C1734.4 272.629 1731.67 273.378 1729.34 272.368C1727.44 271.551 1726.14 269.678 1725.58 267.681ZM1745.8 288.051C1747.38 291.819 1751.84 293.963 1755.87 293.328C1763.78 292.08 1770.76 278.258 1761.1 274.445C1753.36 271.381 1742.22 279.517 1745.8 288.051ZM1759.67 318.532C1769.26 320.359 1769.75 307.558 1761.6 305.221C1751.37 302.282 1748.87 316.478 1759.67 318.532ZM2256.19 361.132C2248.58 357.155 2239.78 356.293 2231.52 356.476C2226.7 356.596 2221.89 357.088 2217.7 358.869C2213.52 360.671 2209.97 363.9 2208.78 368.311C2206.96 374.982 2210.72 382.617 2215.12 388.801C2220.28 396.039 2226.47 402.588 2233.6 407.878C2238.36 411.394 2243.96 414.52 2250.09 413.942C2263.82 412.677 2270.8 401.32 2271.11 389.604C2271.53 377.833 2265.45 365.932 2256.19 361.132ZM2230.64 319.98C2226.45 320.566 2223.89 324.344 2223.52 328.379C2223.04 333.82 2224.45 341.641 2231.45 343.058C2238.42 344.464 2244.79 339.603 2244.58 332.66C2244.47 328.779 2242.23 324.924 2238.91 322.477C2236.49 320.691 2233.41 319.601 2230.64 319.98ZM2258.64 331.989C2256.43 335.383 2255.29 339.715 2256.64 343.714C2257.36 345.807 2258.85 347.775 2260.93 348.61C2263.48 349.632 2266.39 348.742 2268.82 347.479C2272.1 345.759 2275.11 343.29 2276.93 340.046C2280.17 334.301 2278.68 325.795 2271.66 323.695C2266.08 321.994 2261.19 328.17 2258.64 331.989ZM2290.4 370.448C2285.87 371.48 2281 369.248 2279.24 365.124C2275.32 355.862 2286.9 346.202 2295.63 348.494C2301.07 349.993 2302.14 354.925 2300.55 359.815C2299 364.712 2294.81 369.432 2290.4 370.448ZM2293.26 399.505C2298.65 400.396 2301.82 396.919 2302.41 393.016C2303.01 389.096 2301.02 384.825 2296.47 383.762C2290.77 382.44 2287.08 385.807 2286.19 389.805C2285.3 393.777 2287.23 398.497 2293.26 399.505ZM2093.03 354.46C2100.9 353.621 2109.15 354.188 2116.18 357.808C2133.31 366.637 2138.49 401.374 2114.58 405.913C2109.22 406.934 2103.76 404.823 2098.93 402.247C2091.71 398.378 2085.11 393.35 2079.46 387.404C2074.64 382.32 2070.28 375.659 2071.63 368.793C2072.52 364.276 2075.84 360.497 2079.83 358.205C2083.83 355.913 2088.45 354.948 2093.03 354.46ZM2086.58 326.975C2087.31 322.822 2090.28 318.759 2094.44 318.089C2097.17 317.658 2100 318.748 2102.11 320.552C2105.01 323.026 2106.72 326.873 2106.48 330.675C2106.07 337.449 2099.9 342.261 2093.25 341.308C2086.58 340.354 2085.57 332.626 2086.58 326.975ZM2117.09 341.444C2116.04 337.631 2117.43 333.477 2119.83 330.323C2122.55 326.748 2127.92 321.176 2132.86 323.298C2139.07 325.965 2139.48 333.943 2136.13 338.925C2134.22 341.773 2131.32 343.861 2128.21 345.314C2125.91 346.392 2123.18 347.141 2120.85 346.131C2118.95 345.314 2117.65 343.441 2117.09 341.444ZM2137.31 361.814C2138.89 365.581 2143.35 367.726 2147.38 367.091C2155.29 365.842 2162.27 352.02 2152.61 348.207C2144.87 345.143 2133.73 353.28 2137.31 361.814ZM2151.18 392.295C2160.77 394.122 2161.26 381.321 2153.11 378.984C2142.89 376.044 2140.38 390.241 2151.18 392.295ZM2291.37 577.881C2283.76 573.904 2274.96 573.042 2266.7 573.225C2261.88 573.346 2257.07 573.838 2252.88 575.618C2248.7 577.42 2245.15 580.649 2243.96 585.061C2242.14 591.732 2245.9 599.366 2250.3 605.551C2255.46 612.789 2261.65 619.337 2268.78 624.627C2273.54 628.144 2279.14 631.27 2285.27 630.691C2299 629.426 2305.98 618.069 2306.29 606.353C2306.7 594.583 2300.63 582.682 2291.37 577.881ZM2265.82 536.73C2261.63 537.315 2259.07 541.094 2258.7 545.128C2258.22 550.57 2259.63 558.391 2266.63 559.808C2273.6 561.213 2279.97 556.353 2279.76 549.409C2279.65 545.528 2277.41 541.673 2274.09 539.227C2271.67 537.44 2268.59 536.351 2265.82 536.73ZM2293.81 548.739C2291.61 552.132 2290.47 556.465 2291.82 560.464C2292.54 562.557 2294.03 564.525 2296.11 565.359C2298.66 566.381 2301.56 565.492 2304 564.228C2307.28 562.508 2310.29 560.039 2312.11 556.796C2315.35 551.051 2313.86 542.544 2306.84 540.445C2301.26 538.743 2296.37 544.92 2293.81 548.739ZM2325.58 587.197C2321.05 588.23 2316.18 585.998 2314.42 581.873C2310.5 572.612 2322.08 562.952 2330.81 565.243C2336.25 566.743 2337.32 571.674 2335.73 576.564C2334.18 581.462 2329.99 586.182 2325.58 587.197ZM2328.44 616.254C2333.83 617.145 2337 613.669 2337.59 609.765C2338.19 605.846 2336.2 601.574 2331.65 600.511C2325.95 599.189 2322.26 602.557 2321.37 606.554C2320.48 610.527 2322.4 615.247 2328.44 616.254ZM2128.21 571.21C2136.08 570.37 2144.33 570.938 2151.36 574.558C2168.49 583.386 2173.67 618.123 2149.76 622.662C2144.39 623.684 2138.94 621.573 2134.11 618.997C2126.88 615.127 2120.29 610.1 2114.64 604.154C2109.82 599.07 2105.46 592.408 2106.81 585.543C2107.69 581.026 2111.02 577.247 2115.01 574.955C2119.01 572.662 2123.63 571.698 2128.21 571.21ZM2121.76 543.725C2122.49 539.571 2125.45 535.509 2129.62 534.839C2132.35 534.408 2135.18 535.497 2137.29 537.302C2140.18 539.775 2141.9 543.622 2141.66 547.424C2141.25 554.199 2135.08 559.011 2128.43 558.057C2121.76 557.104 2120.74 549.376 2121.76 543.725ZM2152.27 558.193C2151.21 554.38 2152.61 550.227 2155.01 547.072C2157.73 543.498 2163.1 537.926 2168.04 540.048C2174.25 542.715 2174.66 550.692 2171.31 555.674C2169.39 558.523 2166.5 560.611 2163.39 562.063C2161.09 563.141 2158.36 563.89 2156.03 562.88C2154.13 562.063 2152.83 560.191 2152.27 558.193ZM2172.49 578.563C2174.07 582.331 2178.53 584.476 2182.56 583.84C2190.47 582.592 2197.45 568.77 2187.79 564.957C2180.05 561.893 2168.91 570.03 2172.49 578.563ZM2186.36 609.044C2195.95 610.872 2196.44 598.071 2188.29 595.733C2178.06 592.794 2175.56 606.99 2186.36 609.044ZM1725.1 399.715C1717.49 395.739 1708.69 394.877 1700.42 395.059C1695.61 395.18 1690.8 395.672 1686.6 397.453C1682.43 399.255 1678.88 402.484 1677.68 406.895C1675.86 413.566 1679.62 421.201 1684.03 427.385C1689.19 434.623 1695.37 441.171 1702.51 446.462C1707.27 449.978 1712.87 453.104 1719 452.526C1732.73 451.261 1739.7 439.904 1740.01 428.187C1740.43 416.417 1734.36 404.516 1725.1 399.715ZM1699.55 358.564C1695.35 359.15 1692.8 362.928 1692.43 366.963C1691.95 372.404 1693.36 380.225 1700.35 381.642C1707.33 383.048 1713.7 378.187 1713.49 371.244C1713.38 367.362 1711.14 363.508 1707.82 361.061C1705.39 359.274 1702.31 358.185 1699.55 358.564ZM1727.54 370.573C1725.34 373.966 1724.19 378.299 1725.55 382.298C1726.26 384.391 1727.76 386.359 1729.83 387.194C1732.39 388.215 1735.29 387.326 1737.73 386.063C1741.01 384.343 1744.01 381.873 1745.84 378.63C1749.08 372.885 1747.59 364.379 1740.57 362.279C1734.99 360.577 1730.1 366.754 1727.54 370.573ZM1759.31 409.031C1754.78 410.064 1749.9 407.832 1748.15 403.707C1744.23 394.446 1755.81 384.786 1764.54 387.078C1769.98 388.577 1771.04 393.508 1769.46 398.399C1767.9 403.296 1763.71 408.016 1759.31 409.031ZM1762.17 438.089C1767.56 438.979 1770.73 435.503 1771.32 431.599C1771.91 427.68 1769.93 423.409 1765.38 422.346C1759.68 421.023 1755.98 424.391 1755.1 428.389C1754.21 432.361 1756.13 437.081 1762.17 438.089ZM1561.94 393.044C1569.8 392.204 1578.05 392.772 1585.09 396.392C1602.21 405.221 1607.4 439.957 1583.49 444.497C1578.12 445.518 1572.66 443.407 1567.84 440.831C1560.61 436.961 1554.02 431.934 1548.37 425.988C1543.54 420.904 1539.19 414.242 1540.54 407.377C1541.42 402.86 1544.75 399.081 1548.74 396.789C1552.74 394.497 1557.36 393.532 1561.94 393.044ZM1555.48 365.559C1556.22 361.405 1559.18 357.343 1563.35 356.673C1566.08 356.242 1568.91 357.331 1571.02 359.136C1573.91 361.61 1575.63 365.457 1575.39 369.258C1574.98 376.033 1568.81 380.845 1562.16 379.892C1555.48 378.938 1554.47 371.21 1555.48 365.559ZM1586 380.028C1584.94 376.215 1586.34 372.061 1588.73 368.906C1591.46 365.332 1596.82 359.76 1601.77 361.882C1607.98 364.549 1608.39 372.527 1605.04 377.508C1603.12 380.357 1600.23 382.445 1597.12 383.897C1594.82 384.975 1592.09 385.724 1589.75 384.714C1587.86 383.897 1586.55 382.025 1586 380.028ZM1606.22 400.398C1607.8 404.165 1612.26 406.31 1616.29 405.675C1624.2 404.426 1631.17 390.604 1621.52 386.791C1613.78 383.727 1602.63 391.864 1606.22 400.398ZM1620.09 430.879C1629.68 432.706 1630.16 419.905 1622.02 417.567C1611.79 414.628 1609.28 428.825 1620.09 430.879Z" fill="url(#paint41_linear_66_1717)" fill-opacity="0.25"/>
<path d="M3.77033 177.661C41.0703 167.488 57.8976 136.787 47.8012 114.004C96.8811 102.856 124.085 68.4996 69.6775 43.3411C74.3039 20.6194 57.0575 -9.47254 3.77034 -12.3359L3.77033 177.661Z" fill="#FDBC70"/>
<path d="M89.2517 191.06C162.591 174.308 152.915 131.24 108.043 102.975C140.154 51.9277 94.019 -35.4866 2.45096 -31.8926L2.45094 328.365C88.5508 313.562 130.199 235.711 89.2517 191.06Z" fill="#FDBC70"/>
<path d="M1.00008 814C38.3001 824.173 55.1273 854.875 45.031 877.657C94.1109 888.805 121.314 923.162 66.9072 948.32C71.5337 971.042 54.2872 1001.13 1.00008 1004L1.00008 814Z" fill="#FDBC70"/>
<path d="M-1.52588e-05 665C92.1298 613.058 96.3354 508.462 71.5162 453.273C156.774 408.853 182.296 318.667 125.924 262.924C64.9246 202.669 5.50412e-06 190 5.50412e-06 190L-1.52588e-05 665Z" fill="#FDD09B"/>
<path d="M87.5064 720.733C160.845 737.485 151.17 780.553 106.297 808.818C138.409 859.865 92.2737 947.28 0.705597 943.686L0.705613 583.428C86.8054 598.231 128.453 676.082 87.5064 720.733Z" fill="#FDD09B"/>
<path d="M1559.27 136.944C1521.97 126.611 1505.14 95.4292 1515.24 72.2897C1466.16 60.9673 1438.96 26.073 1493.36 0.520575C1488.74 -22.5568 1505.98 -53.1198 1559.27 -56.0281L1559.27 136.944Z" fill="#FDBC70"/>
<path d="M1473.79 150.552C1400.45 133.538 1410.13 89.7961 1455 61.0886C1422.89 9.24166 1469.02 -79.5412 1560.59 -75.8909L1560.59 290.006C1474.49 274.972 1432.84 195.902 1473.79 150.552Z" fill="#FAC78B"/>
<path d="M1561.87 852C1524.57 862.333 1507.74 893.514 1517.84 916.654C1468.76 927.976 1441.55 962.871 1495.96 988.423C1491.33 1011.5 1508.58 1042.06 1561.87 1044.97L1561.87 852Z" fill="#FAC78B"/>
<path d="M1559 564.157C1466.87 523.57 1462.66 441.84 1487.48 398.717C1402.22 364.008 1376.7 293.538 1433.08 249.982C1494.07 202.899 1559 193 1559 193L1559 564.157Z" fill="#FAC78B"/>
<path d="M1571 834C1524.94 793.431 1522.83 711.735 1535.24 668.63C1492.61 633.935 1479.85 563.496 1508.04 519.958C1538.54 472.895 1571 463 1571 463L1571 834Z" fill="#FDBC70"/>
<path d="M1559 284C1512.94 243.431 1510.83 161.735 1523.24 118.63C1480.61 83.9354 1467.85 13.4956 1496.04 -30.0422C1526.54 -77.1048 1559 -87 1559 -87L1559 284Z" fill="#FDBC70"/>
<path d="M1482.79 725.455C1409.45 742.469 1419.13 786.21 1464 814.918C1431.89 866.765 1478.02 955.548 1569.59 951.897L1569.59 586C1483.49 601.034 1441.84 680.104 1482.79 725.455Z" fill="#FAC78B"/>
<path d="M78.7326 151.596C70.983 147.787 62.8978 143.646 58.098 136.473C53.2982 129.299 53.3271 118.127 60.4722 113.266C64.5212 110.513 69.9576 110.394 74.5767 112.017C79.1957 113.64 83.1177 116.805 86.5945 120.255C86.0441 113.23 92.6478 106.821 99.6913 106.632C106.743 106.448 113.277 111.679 115.683 118.306C118.088 124.934 116.754 132.537 113.217 138.635C110.045 144.101 101.78 154.713 99.5368 164.011C93.6667 158.095 84.3695 154.379 78.7326 151.596Z" fill="white"/>
<path d="M1403.73 823.596C1395.98 819.787 1387.9 815.646 1383.1 808.473C1378.3 801.299 1378.33 790.127 1385.47 785.266C1389.52 782.513 1394.96 782.394 1399.58 784.017C1404.2 785.64 1408.12 788.805 1411.59 792.255C1411.04 785.23 1417.65 778.821 1424.69 778.632C1431.74 778.448 1438.28 783.679 1440.68 790.306C1443.09 796.934 1441.75 804.537 1438.22 810.635C1435.05 816.101 1426.78 826.713 1424.54 836.011C1418.67 830.095 1409.37 826.379 1403.73 823.596Z" fill="white"/>
<path d="M1433.73 257.596C1425.98 253.787 1417.9 249.646 1413.1 242.473C1408.3 235.299 1408.33 224.127 1415.47 219.266C1419.52 216.513 1424.96 216.394 1429.58 218.017C1434.2 219.64 1438.12 222.805 1441.59 226.255C1441.04 219.23 1447.65 212.821 1454.69 212.632C1461.74 212.448 1468.28 217.679 1470.68 224.306C1473.09 230.934 1471.75 238.537 1468.22 244.635C1465.05 250.101 1456.78 260.713 1454.54 270.011C1448.67 264.095 1439.37 260.379 1433.73 257.596Z" fill="white"/>
<path d="M1351.05 479.945C1348.17 478.533 1345.18 476.998 1343.4 474.339C1341.62 471.68 1341.63 467.538 1344.28 465.737C1345.78 464.716 1347.79 464.672 1349.51 465.274C1351.22 465.875 1352.67 467.049 1353.96 468.327C1353.76 465.723 1356.2 463.348 1358.82 463.277C1361.43 463.209 1363.85 465.148 1364.74 467.605C1365.64 470.062 1365.14 472.88 1363.83 475.141C1362.65 477.167 1359.59 481.101 1358.76 484.547C1356.58 482.354 1353.14 480.977 1351.05 479.945Z" fill="white"/>
<path d="M179.634 254.825C175.816 252.948 171.832 250.908 169.468 247.374C167.103 243.84 167.117 238.335 170.637 235.941C172.632 234.584 175.311 234.526 177.586 235.325C179.862 236.125 181.794 237.684 183.507 239.384C183.236 235.923 186.489 232.765 189.959 232.672C193.433 232.582 196.653 235.159 197.838 238.424C199.023 241.689 198.366 245.435 196.623 248.439C195.06 251.132 190.988 256.36 189.883 260.941C186.991 258.026 182.411 256.196 179.634 254.825Z" fill="white"/>
<path d="M161.733 872.596C153.983 868.787 145.898 864.646 141.098 857.473C136.298 850.299 136.327 839.127 143.472 834.266C147.521 831.513 152.958 831.394 157.577 833.017C162.196 834.64 166.118 837.805 169.594 841.255C169.044 834.23 175.648 827.821 182.691 827.632C189.743 827.448 196.277 832.679 198.683 839.306C201.088 845.934 199.754 853.537 196.217 859.635C193.045 865.101 184.78 875.713 182.537 885.011C176.667 879.095 167.369 875.379 161.733 872.596Z" fill="white"/>
<circle cx="67.5" cy="808.5" r="3.5" fill="white"/>
<circle cx="159.5" cy="459.5" r="3.5" fill="white"/>
<circle cx="1377.5" cy="163.5" r="3.5" fill="white"/>
<circle cx="1477.5" cy="848.5" r="3.5" fill="white"/>
<circle cx="222.5" cy="416.5" r="3.5" fill="white"/>
<circle cx="1381.5" cy="489.5" r="3.5" fill="white"/>
<circle cx="1309.5" cy="525.5" r="3.5" fill="white"/>
</g>
<defs>
<linearGradient id="paint0_linear_66_1717" x1="1028.5" y1="-173" x2="155" y2="527" gradientUnits="userSpaceOnUse">
<stop stop-color="#FBD3A4"/>
<stop offset="0.348209" stop-color="#FFE1BE"/>
</linearGradient>
<linearGradient id="paint1_linear_66_1717" x1="1289.51" y1="613.036" x2="1246.54" y2="612.645" gradientUnits="userSpaceOnUse">
<stop stop-color="white" stop-opacity="0"/>
<stop offset="1" stop-color="white" stop-opacity="0.48"/>
</linearGradient>
<linearGradient id="paint2_linear_66_1717" x1="1263.14" y1="559.36" x2="1248.13" y2="557.78" gradientUnits="userSpaceOnUse">
<stop stop-color="white" stop-opacity="0"/>
<stop offset="1" stop-color="white" stop-opacity="0.48"/>
</linearGradient>
<linearGradient id="paint3_linear_66_1717" x1="1296.51" y1="562.38" x2="1283.17" y2="559.391" gradientUnits="userSpaceOnUse">
<stop stop-color="white" stop-opacity="0"/>
<stop offset="1" stop-color="white" stop-opacity="0.48"/>
</linearGradient>
<linearGradient id="paint4_linear_66_1717" x1="1318.74" y1="585.283" x2="1305.27" y2="582.748" gradientUnits="userSpaceOnUse">
<stop stop-color="white" stop-opacity="0"/>
<stop offset="1" stop-color="white" stop-opacity="0.48"/>
</linearGradient>
<linearGradient id="paint5_linear_66_1717" x1="1321.07" y1="618.661" x2="1310.16" y2="617.455" gradientUnits="userSpaceOnUse">
<stop stop-color="white" stop-opacity="0"/>
<stop offset="1" stop-color="white" stop-opacity="0.48"/>
</linearGradient>
<linearGradient id="paint6_linear_66_1717" x1="1144.52" y1="595.42" x2="1110.05" y2="612.378" gradientUnits="userSpaceOnUse">
<stop stop-color="white" stop-opacity="0"/>
<stop offset="1" stop-color="white" stop-opacity="0.48"/>
</linearGradient>
<linearGradient id="paint7_linear_66_1717" x1="1123.45" y1="551.297" x2="1110.63" y2="556.074" gradientUnits="userSpaceOnUse">
<stop stop-color="white" stop-opacity="0"/>
<stop offset="1" stop-color="white" stop-opacity="0.48"/>
</linearGradient>
<linearGradient id="paint8_linear_66_1717" x1="1155.06" y1="556.228" x2="1141.63" y2="561.461" gradientUnits="userSpaceOnUse">
<stop stop-color="white" stop-opacity="0"/>
<stop offset="1" stop-color="white" stop-opacity="0.48"/>
</linearGradient>
<linearGradient id="paint9_linear_66_1717" x1="1174.22" y1="579.793" x2="1161.86" y2="585.402" gradientUnits="userSpaceOnUse">
<stop stop-color="white" stop-opacity="0"/>
<stop offset="1" stop-color="white" stop-opacity="0.48"/>
</linearGradient>
<linearGradient id="paint10_linear_66_1717" x1="1176.24" y1="609.219" x2="1167.49" y2="613.198" gradientUnits="userSpaceOnUse">
<stop stop-color="white" stop-opacity="0"/>
<stop offset="1" stop-color="white" stop-opacity="0.48"/>
</linearGradient>
<linearGradient id="paint11_linear_66_1717" x1="1415.51" y1="465.036" x2="1372.54" y2="464.645" gradientUnits="userSpaceOnUse">
<stop stop-color="white" stop-opacity="0"/>
<stop offset="1" stop-color="white" stop-opacity="0.48"/>
</linearGradient>
<linearGradient id="paint12_linear_66_1717" x1="1389.14" y1="411.36" x2="1374.13" y2="409.78" gradientUnits="userSpaceOnUse">
<stop stop-color="white" stop-opacity="0"/>
<stop offset="1" stop-color="white" stop-opacity="0.48"/>
</linearGradient>
<linearGradient id="paint13_linear_66_1717" x1="1422.51" y1="414.38" x2="1409.17" y2="411.391" gradientUnits="userSpaceOnUse">
<stop stop-color="white" stop-opacity="0"/>
<stop offset="1" stop-color="white" stop-opacity="0.48"/>
</linearGradient>
<linearGradient id="paint14_linear_66_1717" x1="1444.74" y1="437.283" x2="1431.27" y2="434.748" gradientUnits="userSpaceOnUse">
<stop stop-color="white" stop-opacity="0"/>
<stop offset="1" stop-color="white" stop-opacity="0.48"/>
</linearGradient>
<linearGradient id="paint15_linear_66_1717" x1="1447.07" y1="470.661" x2="1436.16" y2="469.455" gradientUnits="userSpaceOnUse">
<stop stop-color="white" stop-opacity="0"/>
<stop offset="1" stop-color="white" stop-opacity="0.48"/>
</linearGradient>
<linearGradient id="paint16_linear_66_1717" x1="1270.52" y1="447.42" x2="1236.05" y2="464.378" gradientUnits="userSpaceOnUse">
<stop stop-color="white" stop-opacity="0"/>
<stop offset="1" stop-color="white" stop-opacity="0.48"/>
</linearGradient>
<linearGradient id="paint17_linear_66_1717" x1="1249.45" y1="403.297" x2="1236.63" y2="408.074" gradientUnits="userSpaceOnUse">
<stop stop-color="white" stop-opacity="0"/>
<stop offset="1" stop-color="white" stop-opacity="0.48"/>
</linearGradient>
<linearGradient id="paint18_linear_66_1717" x1="1281.06" y1="408.228" x2="1267.63" y2="413.461" gradientUnits="userSpaceOnUse">
<stop stop-color="white" stop-opacity="0"/>
<stop offset="1" stop-color="white" stop-opacity="0.48"/>
</linearGradient>
<linearGradient id="paint19_linear_66_1717" x1="1300.22" y1="431.793" x2="1287.86" y2="437.402" gradientUnits="userSpaceOnUse">
<stop stop-color="white" stop-opacity="0"/>
<stop offset="1" stop-color="white" stop-opacity="0.48"/>
</linearGradient>
<linearGradient id="paint20_linear_66_1717" x1="1302.24" y1="461.219" x2="1293.49" y2="465.198" gradientUnits="userSpaceOnUse">
<stop stop-color="white" stop-opacity="0"/>
<stop offset="1" stop-color="white" stop-opacity="0.48"/>
</linearGradient>
<linearGradient id="paint21_linear_66_1717" x1="1541.51" y1="317.036" x2="1498.54" y2="316.645" gradientUnits="userSpaceOnUse">
<stop stop-color="white" stop-opacity="0"/>
<stop offset="1" stop-color="white" stop-opacity="0.48"/>
</linearGradient>
<linearGradient id="paint22_linear_66_1717" x1="1515.14" y1="263.36" x2="1500.13" y2="261.78" gradientUnits="userSpaceOnUse">
<stop stop-color="white" stop-opacity="0"/>
<stop offset="1" stop-color="white" stop-opacity="0.48"/>
</linearGradient>
<linearGradient id="paint23_linear_66_1717" x1="1548.51" y1="266.38" x2="1535.17" y2="263.391" gradientUnits="userSpaceOnUse">
<stop stop-color="white" stop-opacity="0"/>
<stop offset="1" stop-color="white" stop-opacity="0.48"/>
</linearGradient>
<linearGradient id="paint24_linear_66_1717" x1="1570.74" y1="289.283" x2="1557.27" y2="286.748" gradientUnits="userSpaceOnUse">
<stop stop-color="white" stop-opacity="0"/>
<stop offset="1" stop-color="white" stop-opacity="0.48"/>
</linearGradient>
<linearGradient id="paint25_linear_66_1717" x1="1573.07" y1="322.661" x2="1562.16" y2="321.455" gradientUnits="userSpaceOnUse">
<stop stop-color="white" stop-opacity="0"/>
<stop offset="1" stop-color="white" stop-opacity="0.48"/>
</linearGradient>
<linearGradient id="paint26_linear_66_1717" x1="1396.52" y1="299.42" x2="1362.05" y2="316.378" gradientUnits="userSpaceOnUse">
<stop stop-color="white" stop-opacity="0"/>
<stop offset="1" stop-color="white" stop-opacity="0.48"/>
</linearGradient>
<linearGradient id="paint27_linear_66_1717" x1="1375.45" y1="255.297" x2="1362.63" y2="260.074" gradientUnits="userSpaceOnUse">
<stop stop-color="white" stop-opacity="0"/>
<stop offset="1" stop-color="white" stop-opacity="0.48"/>
</linearGradient>
<linearGradient id="paint28_linear_66_1717" x1="1407.06" y1="260.228" x2="1393.63" y2="265.461" gradientUnits="userSpaceOnUse">
<stop stop-color="white" stop-opacity="0"/>
<stop offset="1" stop-color="white" stop-opacity="0.48"/>
</linearGradient>
<linearGradient id="paint29_linear_66_1717" x1="1426.22" y1="283.793" x2="1413.86" y2="289.402" gradientUnits="userSpaceOnUse">
<stop stop-color="white" stop-opacity="0"/>
<stop offset="1" stop-color="white" stop-opacity="0.48"/>
</linearGradient>
<linearGradient id="paint30_linear_66_1717" x1="1428.24" y1="313.219" x2="1419.49" y2="317.198" gradientUnits="userSpaceOnUse">
<stop stop-color="white" stop-opacity="0"/>
<stop offset="1" stop-color="white" stop-opacity="0.48"/>
</linearGradient>
<linearGradient id="paint31_linear_66_1717" x1="1019.04" y1="663.652" x2="988.672" y2="678.595" gradientUnits="userSpaceOnUse">
<stop stop-color="white" stop-opacity="0"/>
<stop offset="1" stop-color="white" stop-opacity="0.48"/>
</linearGradient>
<linearGradient id="paint32_linear_66_1717" x1="1000.48" y1="624.77" x2="989.182" y2="628.98" gradientUnits="userSpaceOnUse">
<stop stop-color="white" stop-opacity="0"/>
<stop offset="1" stop-color="white" stop-opacity="0.48"/>
</linearGradient>
<linearGradient id="paint33_linear_66_1717" x1="1028.33" y1="629.115" x2="1016.49" y2="633.728" gradientUnits="userSpaceOnUse">
<stop stop-color="white" stop-opacity="0"/>
<stop offset="1" stop-color="white" stop-opacity="0.48"/>
</linearGradient>
<linearGradient id="paint34_linear_66_1717" x1="1045.22" y1="649.882" x2="1034.33" y2="654.824" gradientUnits="userSpaceOnUse">
<stop stop-color="white" stop-opacity="0"/>
<stop offset="1" stop-color="white" stop-opacity="0.48"/>
</linearGradient>
<linearGradient id="paint35_linear_66_1717" x1="1046.99" y1="675.811" x2="1039.28" y2="679.318" gradientUnits="userSpaceOnUse">
<stop stop-color="white" stop-opacity="0"/>
<stop offset="1" stop-color="white" stop-opacity="0.48"/>
</linearGradient>
<linearGradient id="paint36_linear_66_1717" x1="1516.04" y1="168.652" x2="1485.67" y2="183.595" gradientUnits="userSpaceOnUse">
<stop stop-color="white" stop-opacity="0"/>
<stop offset="1" stop-color="white" stop-opacity="0.48"/>
</linearGradient>
<linearGradient id="paint37_linear_66_1717" x1="1497.48" y1="129.77" x2="1486.18" y2="133.98" gradientUnits="userSpaceOnUse">
<stop stop-color="white" stop-opacity="0"/>
<stop offset="1" stop-color="white" stop-opacity="0.48"/>
</linearGradient>
<linearGradient id="paint38_linear_66_1717" x1="1525.33" y1="134.115" x2="1513.49" y2="138.728" gradientUnits="userSpaceOnUse">
<stop stop-color="white" stop-opacity="0"/>
<stop offset="1" stop-color="white" stop-opacity="0.48"/>
</linearGradient>
<linearGradient id="paint39_linear_66_1717" x1="1542.22" y1="154.882" x2="1531.33" y2="159.824" gradientUnits="userSpaceOnUse">
<stop stop-color="white" stop-opacity="0"/>
<stop offset="1" stop-color="white" stop-opacity="0.48"/>
</linearGradient>
<linearGradient id="paint40_linear_66_1717" x1="1543.99" y1="180.811" x2="1536.28" y2="184.318" gradientUnits="userSpaceOnUse">
<stop stop-color="white" stop-opacity="0"/>
<stop offset="1" stop-color="white" stop-opacity="0.48"/>
</linearGradient>
<linearGradient id="paint41_linear_66_1717" x1="1642.63" y1="485.574" x2="1634.64" y2="489.651" gradientUnits="userSpaceOnUse">
<stop stop-color="white" stop-opacity="0"/>
<stop offset="1" stop-color="white" stop-opacity="0.48"/>
</linearGradient>
<clipPath id="clip0_66_1717">
<rect width="1562" height="990" fill="white"/>
</clipPath>
</defs>
</svg>
