<svg width="225" height="183" viewBox="0 0 225 183" fill="none" xmlns="http://www.w3.org/2000/svg">
<path d="M32.9454 165.162C-10.9818 141.531 -10.9818 103.238 32.9454 79.5987C76.8727 55.9596 148.106 55.9727 192.048 79.5987C235.989 103.225 235.979 141.531 192.048 165.162C148.116 188.792 76.8821 188.788 32.9454 165.162Z" fill="#FAFAFA"/>
<path d="M102.418 155.154L132.075 138.02C132.557 137.74 132.557 137.292 132.075 137.021L73.5389 103.226C73.2753 103.098 72.986 103.031 72.6927 103.031C72.3995 103.031 72.1101 103.098 71.8466 103.226L42.1469 120.361C41.6646 120.64 41.6646 121.088 42.1469 121.359L100.675 155.154C100.946 155.288 101.244 155.357 101.546 155.357C101.849 155.357 102.147 155.288 102.418 155.154Z" fill="#E0E0E0"/>
<path d="M150.732 150.923L182.039 132.833C182.148 132.796 182.242 132.726 182.309 132.632C182.375 132.539 182.411 132.427 182.411 132.312C182.411 132.198 182.375 132.086 182.309 131.993C182.242 131.899 182.148 131.829 182.039 131.792L114.145 92.5394C113.866 92.3975 113.557 92.3235 113.244 92.3235C112.93 92.3235 112.622 92.3975 112.342 92.5394L81.0351 110.622C80.9265 110.659 80.8323 110.729 80.7657 110.822C80.699 110.915 80.6631 111.027 80.6631 111.142C80.6631 111.257 80.699 111.368 80.7657 111.462C80.8323 111.555 80.9265 111.625 81.0351 111.662L148.93 150.923C149.209 151.065 149.518 151.139 149.831 151.139C150.144 151.139 150.453 151.065 150.732 150.923Z" fill="#E0E0E0"/>
<path d="M137.206 0.774939C139.228 -0.38428 141.716 -0.240443 144.195 1.18954C149.932 4.49797 154.594 14.0594 154.594 22.5124V42.4222C154.594 42.6623 154.499 42.8926 154.329 43.0624C154.159 43.2322 153.929 43.3276 153.689 43.3276C153.449 43.3276 153.219 43.2322 153.049 43.0624C152.879 42.8926 152.784 42.6623 152.784 42.4222V22.5124C152.784 14.6433 148.553 5.78411 143.298 2.76337C141.361 1.64646 139.567 1.50262 138.111 2.34877C135.954 3.5926 134.727 6.75718 134.727 11.0302V30.8554C134.727 31.0955 134.632 31.3258 134.462 31.4956C134.292 31.6654 134.062 31.7608 133.822 31.7608C133.581 31.7608 133.351 31.6654 133.181 31.4956C133.012 31.3258 132.916 31.0955 132.916 30.8554V11.0302C132.899 6.09719 134.473 2.35723 137.206 0.774939Z" fill="#263238"/>
<path d="M92.7236 114.945L98.2997 19.2294L114.266 10.0402L119.496 99.4862L92.7236 114.945Z" fill="#9998D3"/>
<path opacity="0.4" d="M92.7236 114.945L98.2997 19.2294L114.266 10.0402L119.496 99.4862L92.7236 114.945Z" fill="white"/>
<path d="M170.35 42.4222L175.588 131.868L119.497 99.4862L114.268 10.0402L170.35 42.4222Z" fill="#9998D3"/>
<path opacity="0.3" d="M170.35 42.4222L175.588 131.868L119.497 99.4862L114.268 10.0402L170.35 42.4222Z" fill="white"/>
<path opacity="0.05" d="M170.35 42.4222L175.588 131.868L119.497 99.4862L114.268 10.0402L170.35 42.4222Z" fill="black"/>
<path d="M170.35 42.4221L154.384 51.6113L148.808 147.327L175.588 131.868L170.35 42.4221Z" fill="#9998D3"/>
<path opacity="0.55" d="M170.35 42.4221L154.384 51.6113L148.808 147.327L175.588 131.868L170.35 42.4221Z" fill="white"/>
<path opacity="0.5" d="M148.808 147.327L160.315 131.166L161.762 74.7535L163.201 130.193L175.588 131.868L148.808 147.327Z" fill="#9998D3"/>
<path d="M92.7236 114.945L148.806 147.327L154.382 51.6113L98.2997 19.2294L92.7236 114.945ZM135.682 50.376C135.682 49.0898 136.579 48.5652 137.688 49.1998C138.27 49.5806 138.756 50.0929 139.104 50.6955C139.452 51.2981 139.654 51.9741 139.693 52.669C139.693 53.9467 138.796 54.4798 137.688 53.8452C137.102 53.4675 136.615 52.9559 136.266 52.3526C135.918 51.7494 135.717 51.0718 135.682 50.376ZM115.806 38.8176C115.806 37.523 116.703 36.9984 117.812 37.6415C118.393 38.0226 118.877 38.5353 119.224 39.1379C119.571 39.7406 119.771 40.4163 119.809 41.1107C119.809 42.3884 118.912 42.913 117.812 42.2868C117.227 41.9086 116.74 41.3969 116.391 40.7938C116.043 40.1906 115.842 39.5133 115.806 38.8176Z" fill="#9998D3"/>
<path opacity="0.7" d="M92.7236 114.945L148.806 147.327L154.382 51.6113L98.2997 19.2294L92.7236 114.945ZM135.682 50.376C135.682 49.0898 136.579 48.5652 137.688 49.1998C138.27 49.5806 138.756 50.0929 139.104 50.6955C139.452 51.2981 139.654 51.9741 139.693 52.669C139.693 53.9467 138.796 54.4798 137.688 53.8452C137.102 53.4675 136.615 52.9559 136.266 52.3526C135.918 51.7494 135.717 51.0718 135.682 50.376ZM115.806 38.8176C115.806 37.523 116.703 36.9984 117.812 37.6415C118.393 38.0226 118.877 38.5353 119.224 39.1379C119.571 39.7406 119.771 40.4163 119.809 41.1107C119.809 42.3884 118.912 42.913 117.812 42.2868C117.227 41.9086 116.74 41.3969 116.391 40.7938C116.043 40.1906 115.842 39.5133 115.806 38.8176Z" fill="white"/>
<path d="M121.204 9.87942C123.235 8.71174 125.714 8.86405 128.202 10.294C133.93 13.6025 138.592 23.1639 138.592 31.6084V51.5267C138.592 51.7668 138.497 51.9971 138.327 52.1669C138.157 52.3367 137.927 52.4321 137.687 52.4321C137.447 52.4321 137.217 52.3367 137.047 52.1669C136.877 51.9971 136.782 51.7668 136.782 51.5267V31.6169C136.782 23.7562 132.551 14.8971 127.296 11.8763C125.367 10.7594 123.573 10.6156 122.109 11.4533C119.952 12.7055 118.725 15.8701 118.725 20.1432V39.9683C118.725 40.2085 118.629 40.4387 118.46 40.6085C118.29 40.7783 118.06 40.8737 117.819 40.8737C117.579 40.8737 117.349 40.7783 117.179 40.6085C117.009 40.4387 116.914 40.2085 116.914 39.9683V20.1347C116.906 15.2017 118.471 11.4617 121.204 9.87942Z" fill="#37474F"/>
<path d="M91.5059 24.467C93.2744 23.4517 95.4405 23.5786 97.6151 24.8309C102.616 27.7162 106.686 36.0592 106.686 43.4461V60.809C106.665 61.0047 106.573 61.186 106.427 61.3177C106.281 61.4495 106.091 61.5224 105.895 61.5224C105.698 61.5224 105.508 61.4495 105.362 61.3177C105.216 61.186 105.124 61.0047 105.103 60.809V43.463C105.103 36.6008 101.389 28.867 96.8197 26.227C95.1274 25.254 93.5705 25.1355 92.3013 25.8717C90.4144 26.9547 89.3313 29.7216 89.3313 33.487V50.7822C89.311 50.9779 89.219 51.1591 89.0728 51.2909C88.9267 51.4227 88.7369 51.4956 88.5402 51.4956C88.3434 51.4956 88.1536 51.4227 88.0075 51.2909C87.8614 51.1591 87.7693 50.9779 87.749 50.7822V33.4193C87.749 29.0785 89.1198 25.8463 91.5059 24.467Z" fill="#263238"/>
<path d="M52.6836 124.101L57.5489 40.5691L71.4849 32.5477L76.0541 110.613L52.6836 124.101Z" fill="#9998D3"/>
<path opacity="0.2" d="M52.6836 124.101L57.5489 40.5691L71.4849 32.5477L76.0541 110.613L52.6836 124.101Z" fill="black"/>
<path d="M120.432 60.8089L125.001 138.874L76.0516 110.613L71.4824 32.5477L120.432 60.8089Z" fill="#9998D3"/>
<path opacity="0.3" d="M120.432 60.8089L125.001 138.874L76.0516 110.613L71.4824 32.5477L120.432 60.8089Z" fill="black"/>
<path d="M120.434 60.8091L106.498 68.8305L101.633 152.362L125.003 138.874L120.434 60.8091Z" fill="#9998D3"/>
<path opacity="0.15" d="M120.434 60.8091L106.498 68.8305L101.633 152.362L125.003 138.874L120.434 60.8091Z" fill="black"/>
<path opacity="0.15" d="M101.633 152.362L111.677 138.265L112.937 89.0278L114.19 137.41L125.003 138.874L101.633 152.362Z" fill="black"/>
<path d="M52.6836 124.101L101.633 152.362L106.498 68.8472L57.5574 40.586L52.6836 124.101ZM90.1763 67.7557C90.1763 66.6303 90.9632 66.1734 91.9278 66.7319C92.4373 67.0636 92.8615 67.5107 93.1658 68.037C93.4701 68.5634 93.6461 69.154 93.6793 69.7611C93.6793 70.8695 92.8924 71.3349 91.9278 70.7849C91.4169 70.4548 90.9916 70.0079 90.6871 69.4813C90.3826 68.9547 90.2075 68.3632 90.1763 67.7557ZM72.8303 57.6612C72.8303 56.5358 73.6172 56.0789 74.5818 56.6374C75.0903 56.9695 75.5131 57.4169 75.816 57.9433C76.1189 58.4697 76.2932 59.0601 76.3249 59.6666C76.3249 60.775 75.5464 61.2404 74.5818 60.6904C74.0709 60.3602 73.6457 59.9134 73.3411 59.3868C73.0366 58.8602 72.8615 58.2687 72.8303 57.6612Z" fill="#9998D3"/>
<path d="M77.543 32.4124C79.3115 31.3885 81.4776 31.5239 83.6522 32.7762C88.6529 35.6615 92.7144 44.0045 92.7144 51.3914V68.7712C92.7144 68.9799 92.6315 69.1801 92.4839 69.3276C92.3363 69.4752 92.1362 69.5581 91.9275 69.5581C91.7188 69.5581 91.5186 69.4752 91.371 69.3276C91.2235 69.1801 91.1406 68.9799 91.1406 68.7712V51.3745C91.1406 44.5122 87.426 36.7785 82.8568 34.1385C81.1645 33.1654 79.6076 33.047 78.3384 33.7747C76.4515 34.8662 75.3684 37.6331 75.3684 41.39V58.6936C75.3482 58.8893 75.2561 59.0706 75.1099 59.2024C74.9638 59.3341 74.774 59.4071 74.5773 59.4071C74.3805 59.4071 74.1907 59.3341 74.0446 59.2024C73.8985 59.0706 73.8064 58.8893 73.7861 58.6936V41.3646C73.7861 37.0492 75.1569 33.7916 77.543 32.4124Z" fill="#37474F"/>
<path d="M98.5765 107.434C98.5003 107.617 98.461 107.813 98.461 108.011C98.461 108.21 98.5003 108.406 98.5765 108.589C99.316 110.738 101.014 116.804 96.9013 118.086C93.0194 119.241 89.9693 114.065 88.814 111.628C88.496 110.914 87.9784 110.308 87.3236 109.883L79.7792 105.527L72.2349 101.172C72.0264 100.996 71.7625 100.899 71.4897 100.899C71.2169 100.899 70.953 100.996 70.7445 101.172C69.5892 102.327 66.5738 104.025 62.6572 98.3297C58.5442 92.2988 60.2425 88.1858 60.9819 86.9034C61.0582 86.7204 61.0975 86.524 61.0975 86.3257C61.0975 86.1274 61.0582 85.9311 60.9819 85.7481C60.2425 83.5992 58.5442 77.5336 62.6572 76.2512C66.5391 75.0381 69.5892 80.2718 70.7445 82.7096C71.0658 83.4207 71.5827 84.0257 72.2349 84.4541L79.7792 88.8097L87.3236 93.1653C87.532 93.3413 87.796 93.4378 88.0688 93.4378C88.3415 93.4378 88.6055 93.3413 88.814 93.1653C89.9693 92.0793 92.9847 90.3232 96.9013 96.0075C101.014 101.981 99.316 106.14 98.5765 107.434Z" fill="#FFE1BF"/>
<path opacity="0.15" d="M98.5765 107.434C98.5003 107.617 98.461 107.813 98.461 108.011C98.461 108.21 98.5003 108.406 98.5765 108.589C99.316 110.738 101.014 116.803 96.9013 118.086C93.0194 119.241 89.9693 114.065 88.814 111.628C88.496 110.914 87.9784 110.308 87.3236 109.883L79.7792 105.527L72.2349 101.172C72.0264 100.996 71.7625 100.899 71.4897 100.899C71.2169 100.899 70.953 100.996 70.7445 101.172C69.5892 102.327 66.5738 104.025 62.6572 98.3296C61.5483 96.7719 60.741 95.0203 60.2772 93.1653C61.4325 95.9265 63.4312 98.7687 66.2734 99.2539C69.1155 99.7391 69.127 96.1692 70.629 97.0472L88.1208 107.133C90.0848 108.289 92.4879 115.579 95.6882 114.192C98.0913 113.141 95.3878 107.133 96.6009 105.701C98.4726 103.517 99.0618 100.536 96.832 95.9381C101.014 101.981 99.316 106.14 98.5765 107.434Z" fill="black"/>
</svg>
