<svg width="1068" height="990" viewBox="0 0 1068 990" fill="none" xmlns="http://www.w3.org/2000/svg">
<path d="M1068 695.319V1056.86C1064.39 1057.92 1060.79 1058.94 1057.18 1059.97C1009.07 1073.51 957.235 1081.35 911.507 1058.66C813.661 1010.07 786.331 847.862 695.294 782.454C602.788 716.019 469.8 767.656 389.047 681.29C298.686 584.66 335.11 378.199 238.337 291.32C204.151 260.668 159.635 252.229 123.817 224.457C84.6883 194.148 59.434 143.68 37.3043 93.9253C21.1909 57.714 5.5906 20.3051 -15 -12H495.381C504.405 9.66978 514.969 29.9709 529.077 47.2782C588.423 120.072 687.599 114.055 757.789 170.682C829.005 228.164 856.731 336.997 883.594 436.023C910.458 535.019 949.05 642.598 1028.03 682.032C1041.11 688.532 1054.47 692.809 1068 695.319Z" fill="url(#paint0_linear_63_533)"/>
<defs>
<linearGradient id="paint0_linear_63_533" x1="1529.5" y1="134.5" x2="4.79369" y2="698.295" gradientUnits="userSpaceOnUse">
<stop offset="0.0260417" stop-color="#FAB25F"/>
<stop offset="0.692708" stop-color="#FBD3A4"/>
</linearGradient>
</defs>
</svg>
