<svg width="40" height="40" viewBox="0 0 40 40" fill="none" xmlns="http://www.w3.org/2000/svg">
<ellipse cx="19.6009" cy="20" rx="19.6009" ry="20" fill="#BAD5DB"/>
<path d="M22.3 15.98C22.0067 14.5 21.0933 13.76 19.56 13.76C18.3733 13.76 17.4867 14.22 16.9 15.14C16.3133 16.0467 16.0267 17.5467 16.04 19.64C16.3467 18.9467 16.8533 18.4067 17.56 18.02C18.28 17.62 19.08 17.42 19.96 17.42C21.3333 17.42 22.4267 17.8467 23.24 18.7C24.0667 19.5533 24.48 20.7333 24.48 22.24C24.48 23.1467 24.3 23.96 23.94 24.68C23.5933 25.4 23.06 25.9733 22.34 26.4C21.6333 26.8267 20.7733 27.04 19.76 27.04C18.3867 27.04 17.3133 26.7333 16.54 26.12C15.7667 25.5067 15.2267 24.66 14.92 23.58C14.6133 22.5 14.46 21.1667 14.46 19.58C14.46 14.6867 16.1667 12.24 19.58 12.24C20.8867 12.24 21.9133 12.5933 22.66 13.3C23.4067 14.0067 23.8467 14.9 23.98 15.98H22.3ZM19.58 18.96C19.0067 18.96 18.4667 19.08 17.96 19.32C17.4533 19.5467 17.04 19.9 16.72 20.38C16.4133 20.8467 16.26 21.42 16.26 22.1C16.26 23.1133 16.5533 23.94 17.14 24.58C17.7267 25.2067 18.5667 25.52 19.66 25.52C20.5933 25.52 21.3333 25.2333 21.88 24.66C22.44 24.0733 22.72 23.2867 22.72 22.3C22.72 21.26 22.4533 20.4467 21.92 19.86C21.3867 19.26 20.6067 18.96 19.58 18.96Z" fill="#FFFB9F"/>
<path d="M22.3 15.98L21.8095 16.0772L21.8894 16.48H22.3V15.98ZM16.9 15.14L17.3198 15.4116L17.3216 15.4088L16.9 15.14ZM16.04 19.64L15.54 19.6432L16.4973 19.8423L16.04 19.64ZM17.56 18.02L17.8 18.4586L17.8028 18.4571L17.56 18.02ZM23.24 18.7L22.8781 19.045L22.8809 19.0479L23.24 18.7ZM23.94 24.68L23.4927 24.4564L23.4895 24.4631L23.94 24.68ZM22.34 26.4L22.0851 25.9698L22.0816 25.972L22.34 26.4ZM16.54 26.12L16.2293 26.5117L16.54 26.12ZM14.92 23.58L14.439 23.7166L14.92 23.58ZM22.66 13.3L23.0037 12.9369L22.66 13.3ZM23.98 15.98V16.48H24.5455L24.4762 15.9187L23.98 15.98ZM17.96 19.32L18.1642 19.7765L18.174 19.7719L17.96 19.32ZM16.72 20.38L16.304 20.1026L16.3021 20.1054L16.72 20.38ZM17.14 24.58L16.7714 24.9179L16.775 24.9217L17.14 24.58ZM21.88 24.66L21.5183 24.3148L21.5181 24.315L21.88 24.66ZM21.92 19.86L21.5463 20.1922L21.55 20.1963L21.92 19.86ZM22.7905 15.8828C22.6276 15.0613 22.2804 14.3889 21.7098 13.9265C21.1401 13.4649 20.406 13.26 19.56 13.26V14.26C20.2473 14.26 20.7366 14.4251 21.0802 14.7035C21.4229 14.9811 21.679 15.4187 21.8095 16.0772L22.7905 15.8828ZM19.56 13.26C18.2204 13.26 17.1661 13.7927 16.4784 14.8712L17.3216 15.4088C17.8072 14.6473 18.5263 14.26 19.56 14.26V13.26ZM16.4802 14.8684C15.8104 15.9035 15.5265 17.529 15.54 19.6432L16.54 19.6368C16.5268 17.5643 16.8163 16.1898 17.3198 15.4116L16.4802 14.8684ZM16.4973 19.8423C16.7566 19.256 17.1833 18.7961 17.8 18.4586L17.32 17.5814C16.5233 18.0173 15.9367 18.6374 15.5827 19.4377L16.4973 19.8423ZM17.8028 18.4571C18.4435 18.1012 19.159 17.92 19.96 17.92V16.92C19.001 16.92 18.1165 17.1388 17.3172 17.5829L17.8028 18.4571ZM19.96 17.92C21.2211 17.92 22.1748 18.3071 22.8781 19.045L23.6019 18.355C22.6785 17.3862 21.4455 16.92 19.96 16.92V17.92ZM22.8809 19.0479C23.5947 19.7847 23.98 20.8268 23.98 22.24H24.98C24.98 20.6399 24.5387 19.3219 23.5991 18.3521L22.8809 19.0479ZM23.98 22.24C23.98 23.0789 23.8139 23.8142 23.4928 24.4564L24.3872 24.9036C24.7861 24.1058 24.98 23.2144 24.98 22.24H23.98ZM23.4895 24.4631C23.1877 25.09 22.7245 25.5909 22.0851 25.9699L22.5949 26.8301C23.3955 26.3557 23.999 25.71 24.3905 24.8969L23.4895 24.4631ZM22.0816 25.972C21.4689 26.3419 20.7029 26.54 19.76 26.54V27.54C20.8437 27.54 21.7978 27.3114 22.5984 26.828L22.0816 25.972ZM19.76 26.54C18.456 26.54 17.5067 26.2486 16.8507 25.7283L16.2293 26.5117C17.1199 27.2181 18.3173 27.54 19.76 27.54V26.54ZM16.8507 25.7283C16.1705 25.1888 15.6831 24.437 15.401 23.4434L14.439 23.7166C14.7702 24.883 15.3629 25.8246 16.2293 26.5117L16.8507 25.7283ZM15.401 23.4434C15.1109 22.422 14.96 21.1379 14.96 19.58H13.96C13.96 21.1954 14.1157 22.578 14.439 23.7166L15.401 23.4434ZM14.96 19.58C14.96 17.1761 15.382 15.4622 16.1501 14.3611C16.8953 13.2927 18.0095 12.74 19.58 12.74V11.74C17.7371 11.74 16.2913 12.4107 15.3299 13.7889C14.3913 15.1345 13.96 17.0906 13.96 19.58H14.96ZM19.58 12.74C20.7949 12.74 21.6858 13.0664 22.3163 13.6631L23.0037 12.9369C22.1409 12.1203 20.9784 11.74 19.58 11.74V12.74ZM22.3163 13.6631C22.9734 14.2851 23.3638 15.0693 23.4838 16.0413L24.4762 15.9187C24.3296 14.7307 23.8399 13.7283 23.0037 12.9369L22.3163 13.6631ZM23.98 15.48H22.3V16.48H23.98V15.48ZM19.58 18.46C18.9344 18.46 18.3211 18.5957 17.746 18.8681L18.174 19.7719C18.6123 19.5643 19.079 19.46 19.58 19.46V18.46ZM17.7558 18.8636C17.1596 19.1303 16.6741 19.5474 16.304 20.1026L17.136 20.6573C17.4059 20.2526 17.7471 19.963 18.1642 19.7764L17.7558 18.8636ZM16.3021 20.1054C15.9312 20.6699 15.76 21.3438 15.76 22.1H16.76C16.76 21.4962 16.8954 21.0235 17.1379 20.6546L16.3021 20.1054ZM15.76 22.1C15.76 23.2161 16.0863 24.1704 16.7714 24.9179L17.5086 24.2421C17.0204 23.7096 16.76 23.0105 16.76 22.1H15.76ZM16.775 24.9217C17.4805 25.6753 18.4685 26.02 19.66 26.02V25.02C18.6648 25.02 17.9728 24.738 17.505 24.2383L16.775 24.9217ZM19.66 26.02C20.7036 26.02 21.584 25.695 22.2419 25.005L21.5181 24.315C21.0826 24.7717 20.483 25.02 19.66 25.02V26.02ZM22.2417 25.0052C22.9089 24.3062 23.22 23.3858 23.22 22.3H22.22C22.22 23.1875 21.9711 23.8404 21.5183 24.3148L22.2417 25.0052ZM23.22 22.3C23.22 21.1753 22.9303 20.228 22.29 19.5237L21.55 20.1963C21.9764 20.6653 22.22 21.3447 22.22 22.3H23.22ZM22.2937 19.5278C21.6405 18.7929 20.7069 18.46 19.58 18.46V19.46C20.5064 19.46 21.1329 19.7271 21.5463 20.1922L22.2937 19.5278Z" fill="#3837A1"/>
</svg>
