<svg width="40" height="40" viewBox="0 0 40 40" fill="none" xmlns="http://www.w3.org/2000/svg">
<ellipse cx="19.6009" cy="20" rx="19.6009" ry="20" fill="#BAD5DB"/>
<path d="M25.528 10.5556V10.9556H25.928H28.4835C29.6681 10.9556 30.6391 11.9265 30.6391 13.1111V14.3889C30.6391 17.439 28.3424 19.9324 25.3798 20.3042L25.1504 20.333L25.0608 20.5462C24.3064 22.3425 22.6886 23.6963 20.7375 24.0913L20.4168 24.1562V24.4833V28.4444V28.8444H20.8168H24.6502C25.132 28.8444 25.528 29.2404 25.528 29.7222C25.528 30.2041 25.132 30.6 24.6502 30.6H14.428C13.9461 30.6 13.5502 30.2041 13.5502 29.7222C13.5502 29.2404 13.9461 28.8444 14.428 28.8444H18.2613H18.6613V28.4444V24.4833V24.1562L18.3407 24.0913C16.3895 23.6963 14.7718 22.3425 14.0173 20.5462L13.9278 20.333L13.6983 20.3042C10.7358 19.9324 8.43906 17.439 8.43906 14.3889V13.1111C8.43906 11.9265 9.40998 10.9556 10.5946 10.9556H13.1502H13.5502V10.5556V9.27778C13.5502 8.79591 13.9461 8.4 14.428 8.4H24.6502C25.132 8.4 25.528 8.79591 25.528 9.27778V10.5556ZM10.5946 12.7111H10.1946V13.1111V14.3889C10.1946 16.2282 11.3829 17.7778 13.014 18.3683L13.5502 18.5625V17.9922V13.1111V12.7111H13.1502H10.5946ZM25.528 17.9922V18.5625L26.0641 18.3683C27.6952 17.7778 28.8835 16.2282 28.8835 14.3889V13.1111V12.7111H28.4835H25.928H25.528V13.1111V17.9922Z" fill="#FFFB9F" stroke="#3837A1" stroke-width="0.8"/>
</svg>
