<svg width="40" height="40" viewBox="0 0 40 40" fill="none" xmlns="http://www.w3.org/2000/svg">
<ellipse cx="19.6009" cy="20" rx="19.6009" ry="20" fill="#BAD5DB"/>
<path d="M13.8 23.78V22.4L20.82 12.68H23V22.2H25V23.78H23V27H21.2V23.78H13.8ZM21.28 14.58L15.9 22.2H21.28V14.58Z" fill="#FFFB9F"/>
<path d="M13.8 23.78H13.3V24.28H13.8V23.78ZM13.8 22.4L13.3947 22.1073L13.3 22.2383V22.4H13.8ZM20.82 12.68V12.18H20.5643L20.4147 12.3873L20.82 12.68ZM23 12.68H23.5V12.18H23V12.68ZM23 22.2H22.5V22.7H23V22.2ZM25 22.2H25.5V21.7H25V22.2ZM25 23.78V24.28H25.5V23.78H25ZM23 23.78V23.28H22.5V23.78H23ZM23 27V27.5H23.5V27H23ZM21.2 27H20.7V27.5H21.2V27ZM21.2 23.78H21.7V23.28H21.2V23.78ZM21.28 14.58H21.78V13.0049L20.8715 14.2916L21.28 14.58ZM15.9 22.2L15.4915 21.9116L14.9349 22.7H15.9V22.2ZM21.28 22.2V22.7H21.78V22.2H21.28ZM14.3 23.78V22.4H13.3V23.78H14.3ZM14.2053 22.6927L21.2253 12.9727L20.4147 12.3873L13.3947 22.1073L14.2053 22.6927ZM20.82 13.18H23V12.18H20.82V13.18ZM22.5 12.68V22.2H23.5V12.68H22.5ZM23 22.7H25V21.7H23V22.7ZM24.5 22.2V23.78H25.5V22.2H24.5ZM25 23.28H23V24.28H25V23.28ZM22.5 23.78V27H23.5V23.78H22.5ZM23 26.5H21.2V27.5H23V26.5ZM21.7 27V23.78H20.7V27H21.7ZM21.2 23.28H13.8V24.28H21.2V23.28ZM20.8715 14.2916L15.4915 21.9116L16.3085 22.4884L21.6885 14.8684L20.8715 14.2916ZM15.9 22.7H21.28V21.7H15.9V22.7ZM21.78 22.2V14.58H20.78V22.2H21.78Z" fill="#3837A1"/>
</svg>
