<svg width="40" height="40" viewBox="0 0 40 40" fill="none" xmlns="http://www.w3.org/2000/svg">
<ellipse cx="19.6009" cy="20" rx="19.6009" ry="20" fill="#BAD5DB"/>
<path d="M24.18 15.38H17.94V18.14C18.2067 17.8467 18.58 17.6067 19.06 17.42C19.54 17.2333 20.06 17.14 20.62 17.14C21.62 17.14 22.4467 17.3667 23.1 17.82C23.7667 18.2733 24.2533 18.86 24.56 19.58C24.8667 20.3 25.02 21.08 25.02 21.92C25.02 23.48 24.58 24.72 23.7 25.64C22.82 26.5467 21.58 27 19.98 27C18.9133 27 17.9867 26.82 17.2 26.46C16.4133 26.0867 15.8067 25.5733 15.38 24.92C14.9533 24.2667 14.72 23.5133 14.68 22.66H18.02C18.1 23.0733 18.2933 23.42 18.6 23.7C18.9067 23.9667 19.3267 24.1 19.86 24.1C20.4867 24.1 20.9533 23.9 21.26 23.5C21.5667 23.1 21.72 22.5667 21.72 21.9C21.72 21.2467 21.56 20.7467 21.24 20.4C20.92 20.0533 20.4533 19.88 19.84 19.88C19.3867 19.88 19.0133 19.9933 18.72 20.22C18.4267 20.4333 18.2333 20.72 18.14 21.08H14.84V12.38H24.18V15.38Z" fill="#FFFB9F"/>
<path d="M24.18 15.38V15.78H24.58V15.38H24.18ZM17.94 15.38V14.98H17.54V15.38H17.94ZM17.94 18.14H17.54V19.1746L18.236 18.4091L17.94 18.14ZM19.06 17.42L18.915 17.0472L18.915 17.0472L19.06 17.42ZM23.1 17.82L22.872 18.1486L22.8751 18.1508L23.1 17.82ZM24.56 19.58L24.928 19.4233L24.928 19.4233L24.56 19.58ZM23.7 25.64L23.987 25.9186L23.9891 25.9165L23.7 25.64ZM17.2 26.46L17.0285 26.8214L17.0336 26.8237L17.2 26.46ZM15.38 24.92L15.0451 25.1387L15.0451 25.1387L15.38 24.92ZM14.68 22.66V22.26H14.2608L14.2804 22.6787L14.68 22.66ZM18.02 22.66L18.4127 22.584L18.35 22.26H18.02V22.66ZM18.6 23.7L18.3302 23.9955L18.3375 24.0018L18.6 23.7ZM21.24 20.4L21.5339 20.1287L21.5339 20.1287L21.24 20.4ZM18.72 20.22L18.9554 20.5436L18.9646 20.5365L18.72 20.22ZM18.14 21.08V21.48H18.4495L18.5272 21.1804L18.14 21.08ZM14.84 21.08H14.44V21.48H14.84V21.08ZM14.84 12.38V11.98H14.44V12.38H14.84ZM24.18 12.38H24.58V11.98H24.18V12.38ZM24.18 14.98H17.94V15.78H24.18V14.98ZM17.54 15.38V18.14H18.34V15.38H17.54ZM18.236 18.4091C18.4505 18.1731 18.766 17.9635 19.205 17.7928L18.915 17.0472C18.394 17.2498 17.9629 17.5202 17.644 17.8709L18.236 18.4091ZM19.205 17.7928C19.6349 17.6256 20.1052 17.54 20.62 17.54V16.74C20.0148 16.74 19.4451 16.841 18.915 17.0472L19.205 17.7928ZM20.62 17.54C21.5596 17.54 22.301 17.7525 22.872 18.1486L23.328 17.4914C22.5923 16.9808 21.6804 16.74 20.62 16.74V17.54ZM22.8751 18.1508C23.4804 18.5624 23.9163 19.0895 24.192 19.7367L24.928 19.4233C24.5904 18.6305 24.053 17.9843 23.3249 17.4892L22.8751 18.1508ZM24.192 19.7367C24.476 20.4036 24.62 21.1299 24.62 21.92H25.42C25.42 21.0301 25.2573 20.1964 24.928 19.4233L24.192 19.7367ZM24.62 21.92C24.62 23.4015 24.2044 24.534 23.4109 25.3635L23.9891 25.9165C24.9556 24.906 25.42 23.5585 25.42 21.92H24.62ZM23.413 25.3614C22.6271 26.171 21.5023 26.6 19.98 26.6V27.4C21.6577 27.4 23.0129 26.9223 23.987 25.9186L23.413 25.3614ZM19.98 26.6C18.9577 26.6 18.0902 26.4275 17.3664 26.0963L17.0336 26.8237C17.8831 27.2125 18.8689 27.4 19.98 27.4V26.6ZM17.3715 26.0986C16.6435 25.7531 16.0967 25.286 15.7149 24.7013L15.0451 25.1387C15.5166 25.8607 16.1832 26.4202 17.0285 26.8214L17.3715 26.0986ZM15.7149 24.7013C15.3309 24.1132 15.1165 23.4303 15.0796 22.6413L14.2804 22.6787C14.3235 23.5963 14.5758 24.4201 15.0451 25.1387L15.7149 24.7013ZM14.68 23.06H18.02V22.26H14.68V23.06ZM17.6273 22.736C17.7234 23.2325 17.9592 23.6565 18.3303 23.9954L18.8697 23.4046C18.6275 23.1835 18.4766 22.9141 18.4127 22.584L17.6273 22.736ZM18.3375 24.0018C18.7372 24.3494 19.2609 24.5 19.86 24.5V23.7C19.3925 23.7 19.0761 23.5839 18.8625 23.3982L18.3375 24.0018ZM19.86 24.5C20.5776 24.5 21.1768 24.266 21.5774 23.7434L20.9426 23.2566C20.7299 23.534 20.3958 23.7 19.86 23.7V24.5ZM21.5774 23.7434C21.9527 23.254 22.12 22.6263 22.12 21.9H21.32C21.32 22.507 21.1807 22.946 20.9426 23.2566L21.5774 23.7434ZM22.12 21.9C22.12 21.1851 21.9446 20.5736 21.5339 20.1287L20.9461 20.6713C21.1754 20.9197 21.32 21.3083 21.32 21.9H22.12ZM21.5339 20.1287C21.1171 19.6772 20.5296 19.48 19.84 19.48V20.28C20.3771 20.28 20.7229 20.4295 20.9461 20.6713L21.5339 20.1287ZM19.84 19.48C19.3184 19.48 18.8533 19.6115 18.4754 19.9035L18.9646 20.5365C19.1734 20.3752 19.4549 20.28 19.84 20.28V19.48ZM18.4847 19.8965C18.1144 20.1658 17.8688 20.5324 17.7528 20.9796L18.5272 21.1804C18.5979 20.9076 18.7389 20.7008 18.9553 20.5435L18.4847 19.8965ZM18.14 20.68H14.84V21.48H18.14V20.68ZM15.24 21.08V12.38H14.44V21.08H15.24ZM14.84 12.78H24.18V11.98H14.84V12.78ZM23.78 12.38V15.38H24.58V12.38H23.78Z" fill="#3837A1"/>
</svg>
