<svg width="40" height="40" viewBox="0 0 40 40" fill="none" xmlns="http://www.w3.org/2000/svg">
<ellipse cx="19.6009" cy="20" rx="19.6009" ry="20" fill="#BAD5DB"/>
<path d="M23.46 14.12H16.44V18.68C16.7467 18.2533 17.2 17.9067 17.8 17.64C18.4 17.36 19.0467 17.22 19.74 17.22C20.8467 17.22 21.7467 17.4533 22.44 17.92C23.1333 18.3733 23.6267 18.9667 23.92 19.7C24.2267 20.42 24.38 21.1867 24.38 22C24.38 22.96 24.2 23.82 23.84 24.58C23.48 25.34 22.9267 25.94 22.18 26.38C21.4467 26.82 20.5333 27.04 19.44 27.04C18.04 27.04 16.9067 26.68 16.04 25.96C15.1733 25.24 14.6467 24.28 14.46 23.08H16.24C16.4133 23.84 16.78 24.4333 17.34 24.86C17.9 25.2867 18.6067 25.5 19.46 25.5C20.5133 25.5 21.3067 25.1867 21.84 24.56C22.3733 23.92 22.64 23.08 22.64 22.04C22.64 21 22.3733 20.2 21.84 19.64C21.3067 19.0667 20.52 18.78 19.48 18.78C18.7733 18.78 18.1533 18.9533 17.62 19.3C17.1 19.6333 16.72 20.0933 16.48 20.68H14.76V12.52H23.46V14.12Z" fill="#FFFB9F"/>
<path d="M23.46 14.12V14.62H23.96V14.12H23.46ZM16.44 14.12V13.62H15.94V14.12H16.44ZM16.44 18.68H15.94V20.2324L16.846 18.9718L16.44 18.68ZM17.8 17.64L18.0031 18.097L18.0114 18.0931L17.8 17.64ZM22.44 17.92L22.1608 18.3348L22.1664 18.3385L22.44 17.92ZM23.92 19.7L23.4556 19.8857L23.46 19.8959L23.92 19.7ZM23.84 24.58L24.2919 24.794L23.84 24.58ZM22.18 26.38L21.9261 25.9492L21.9228 25.9513L22.18 26.38ZM16.04 25.96L16.3595 25.5754L16.04 25.96ZM14.46 23.08V22.58H13.8762L13.9659 23.1569L14.46 23.08ZM16.24 23.08L16.7275 22.9688L16.6388 22.58H16.24V23.08ZM21.84 24.56L22.2208 24.8841L22.2241 24.8801L21.84 24.56ZM21.84 19.64L21.4739 19.9806L21.4779 19.9848L21.84 19.64ZM17.62 19.3L17.8898 19.7209L17.8925 19.7192L17.62 19.3ZM16.48 20.68V21.18H16.8157L16.9428 20.8693L16.48 20.68ZM14.76 20.68H14.26V21.18H14.76V20.68ZM14.76 12.52V12.02H14.26V12.52H14.76ZM23.46 12.52H23.96V12.02H23.46V12.52ZM23.46 13.62H16.44V14.62H23.46V13.62ZM15.94 14.12V18.68H16.94V14.12H15.94ZM16.846 18.9718C17.0894 18.6331 17.4641 18.3364 18.0031 18.0969L17.5969 17.1831C16.9359 17.4769 16.4039 17.8735 16.034 18.3882L16.846 18.9718ZM18.0114 18.0931C18.5421 17.8454 19.1162 17.72 19.74 17.72V16.72C18.9771 16.72 18.2579 16.8746 17.5886 17.1869L18.0114 18.0931ZM19.74 17.72C20.7789 17.72 21.5729 17.9391 22.1608 18.3348L22.7192 17.5052C21.9205 16.9676 20.9144 16.72 19.74 16.72V17.72ZM22.1664 18.3385C22.7782 18.7385 23.2025 19.2525 23.4558 19.8857L24.3842 19.5143C24.0508 18.6808 23.4884 18.0081 22.7136 17.5015L22.1664 18.3385ZM23.46 19.8959C23.7392 20.5515 23.88 21.2513 23.88 22H24.88C24.88 21.122 24.7141 20.2885 24.38 19.5041L23.46 19.8959ZM23.88 22C23.88 22.8965 23.7122 23.6817 23.3881 24.366L24.2919 24.794C24.6878 23.9583 24.88 23.0235 24.88 22H23.88ZM23.3881 24.366C23.0723 25.0326 22.5894 25.5584 21.9262 25.9492L22.4338 26.8108C23.2639 26.3216 23.8877 25.6474 24.2919 24.794L23.3881 24.366ZM21.9228 25.9513C21.286 26.3333 20.4675 26.54 19.44 26.54V27.54C20.5991 27.54 21.6074 27.3067 22.4372 26.8087L21.9228 25.9513ZM19.44 26.54C18.1275 26.54 17.1163 26.2041 16.3595 25.5754L15.7205 26.3446C16.6971 27.1559 17.9525 27.54 19.44 27.54V26.54ZM16.3595 25.5754C15.5942 24.9396 15.1236 24.0929 14.9541 23.0031L13.9659 23.1569C14.1698 24.4671 14.7525 25.5404 15.7205 26.3446L16.3595 25.5754ZM14.46 23.58H16.24V22.58H14.46V23.58ZM15.7525 23.1912C15.9489 24.0523 16.3737 24.7524 17.037 25.2577L17.643 24.4623C17.1863 24.1143 16.8778 23.6277 16.7275 22.9688L15.7525 23.1912ZM17.037 25.2577C17.7013 25.7639 18.521 26 19.46 26V25C18.6923 25 18.0987 24.8095 17.643 24.4623L17.037 25.2577ZM19.46 26C20.6157 26 21.5671 25.6521 22.2208 24.8841L21.4592 24.2359C21.0462 24.7212 20.4109 25 19.46 25V26ZM22.2241 24.8801C22.8495 24.1297 23.14 23.1671 23.14 22.04H22.14C22.14 22.9929 21.8972 23.7103 21.4559 24.2399L22.2241 24.8801ZM23.14 22.04C23.14 20.9169 22.8509 19.9764 22.2021 19.2952L21.4779 19.9848C21.8958 20.4236 22.14 21.0831 22.14 22.04H23.14ZM22.2061 19.2994C21.55 18.5941 20.6112 18.28 19.48 18.28V19.28C20.4288 19.28 21.0634 19.5392 21.4739 19.9806L22.2061 19.2994ZM19.48 18.28C18.6877 18.28 17.9708 18.4756 17.3475 18.8808L17.8925 19.7192C18.3359 19.431 18.859 19.28 19.48 19.28V18.28ZM17.3502 18.8791C16.7412 19.2694 16.2951 19.8115 16.0172 20.4907L16.9428 20.8693C17.1449 20.3752 17.4588 19.9972 17.8898 19.7209L17.3502 18.8791ZM16.48 20.18H14.76V21.18H16.48V20.18ZM15.26 20.68V12.52H14.26V20.68H15.26ZM14.76 13.02H23.46V12.02H14.76V13.02ZM22.96 12.52V14.12H23.96V12.52H22.96Z" fill="#3837A1"/>
</svg>
