<svg width="40" height="40" viewBox="0 0 40 40" fill="none" xmlns="http://www.w3.org/2000/svg">
<ellipse cx="19.6009" cy="20" rx="19.6009" ry="20" fill="#BAD5DB"/>
<path d="M24.14 13.96L18.58 27H16.74L22.38 14.14H14.66V12.58H24.14V13.96Z" fill="#FFFB9F"/>
<path d="M24.14 13.96L24.5999 14.1561L24.64 14.0621V13.96H24.14ZM18.58 27V27.5H18.9104L19.0399 27.1961L18.58 27ZM16.74 27L16.2821 26.7992L15.9747 27.5H16.74V27ZM22.38 14.14L22.8379 14.3408L23.1453 13.64H22.38V14.14ZM14.66 14.14H14.16V14.64H14.66V14.14ZM14.66 12.58V12.08H14.16V12.58H14.66ZM24.14 12.58H24.64V12.08H24.14V12.58ZM23.6801 13.7639L18.1201 26.8039L19.0399 27.1961L24.5999 14.1561L23.6801 13.7639ZM18.58 26.5H16.74V27.5H18.58V26.5ZM17.1979 27.2008L22.8379 14.3408L21.9221 13.9392L16.2821 26.7992L17.1979 27.2008ZM22.38 13.64H14.66V14.64H22.38V13.64ZM15.16 14.14V12.58H14.16V14.14H15.16ZM14.66 13.08H24.14V12.08H14.66V13.08ZM23.64 12.58V13.96H24.64V12.58H23.64Z" fill="#3837A1"/>
</svg>
