<svg width="40" height="40" viewBox="0 0 40 40" fill="none" xmlns="http://www.w3.org/2000/svg">
<ellipse cx="19.6009" cy="20" rx="19.6009" ry="20" fill="#BAD5DB"/>
<path d="M21.12 16.34C21.0133 15.8467 20.8267 15.48 20.56 15.24C20.2933 14.9867 19.9133 14.86 19.42 14.86C18.66 14.86 18.1133 15.1933 17.78 15.86C17.4467 16.5133 17.2733 17.5533 17.26 18.98C17.5533 18.5133 17.9733 18.1467 18.52 17.88C19.08 17.6133 19.6933 17.48 20.36 17.48C21.6667 17.48 22.7133 17.8933 23.5 18.72C24.3 19.5467 24.7 20.7 24.7 22.18C24.7 23.1533 24.5 24.0067 24.1 24.74C23.7133 25.4733 23.14 26.0467 22.38 26.46C21.6333 26.8733 20.7467 27.08 19.72 27.08C17.6667 27.08 16.24 26.44 15.44 25.16C14.64 23.8667 14.24 22.0133 14.24 19.6C14.24 17.0667 14.66 15.1867 15.5 13.96C16.3533 12.72 17.7133 12.1 19.58 12.1C20.58 12.1 21.42 12.3 22.1 12.7C22.7933 13.0867 23.3133 13.6 23.66 14.24C24.02 14.88 24.2333 15.58 24.3 16.34H21.12ZM19.54 20.18C18.9667 20.18 18.4867 20.3533 18.1 20.7C17.7267 21.0333 17.54 21.5133 17.54 22.14C17.54 22.78 17.7133 23.28 18.06 23.64C18.42 24 18.9267 24.18 19.58 24.18C20.1667 24.18 20.6267 24.0067 20.96 23.66C21.3067 23.3 21.48 22.8133 21.48 22.2C21.48 21.5733 21.3133 21.08 20.98 20.72C20.6467 20.36 20.1667 20.18 19.54 20.18Z" fill="#FFFB9F"/>
<path d="M21.12 16.34L20.729 16.4245L20.7972 16.74H21.12V16.34ZM20.56 15.24L20.2844 15.5301L20.2924 15.5373L20.56 15.24ZM17.78 15.86L18.1363 16.0418L18.1378 16.0389L17.78 15.86ZM17.26 18.98L16.86 18.9763L16.8468 20.389L17.5987 19.1929L17.26 18.98ZM18.52 17.88L18.348 17.5188L18.3446 17.5205L18.52 17.88ZM23.5 18.72L23.2102 18.9958L23.2126 18.9982L23.5 18.72ZM24.1 24.74L23.7488 24.5484L23.7462 24.5534L24.1 24.74ZM22.38 26.46L22.1889 26.1086L22.1863 26.11L22.38 26.46ZM15.44 25.16L15.0998 25.3704L15.1008 25.372L15.44 25.16ZM15.5 13.96L15.1705 13.7332L15.17 13.734L15.5 13.96ZM22.1 12.7L21.8971 13.0449L21.9052 13.0493L22.1 12.7ZM23.66 14.24L23.3082 14.4305L23.3114 14.4361L23.66 14.24ZM24.3 16.34V16.74H24.7366L24.6985 16.305L24.3 16.34ZM18.1 20.7L18.3664 20.9984L18.367 20.9978L18.1 20.7ZM18.06 23.64L17.7718 23.9175L17.7772 23.9228L18.06 23.64ZM20.96 23.66L20.6719 23.3825L20.6717 23.3828L20.96 23.66ZM21.511 16.2555C21.3935 15.7124 21.1775 15.2576 20.8276 14.9427L20.2924 15.5373C20.4758 15.7024 20.6331 15.9809 20.729 16.4245L21.511 16.2555ZM20.8355 14.95C20.4721 14.6047 19.9801 14.46 19.42 14.46V15.26C19.8466 15.26 20.1146 15.3686 20.2845 15.53L20.8355 14.95ZM19.42 14.46C18.9804 14.46 18.5787 14.5569 18.2318 14.7685C17.8844 14.9803 17.6169 15.2918 17.4222 15.6811L18.1378 16.0389C18.2765 15.7615 18.449 15.573 18.6482 15.4515C18.848 15.3297 19.0996 15.26 19.42 15.26V14.46ZM17.4237 15.6782C17.0465 16.4176 16.8735 17.5356 16.86 18.9763L17.66 18.9837C17.6732 17.5711 17.8469 16.6091 18.1363 16.0418L17.4237 15.6782ZM17.5987 19.1929C17.8483 18.7958 18.2086 18.477 18.6954 18.2395L18.3446 17.5205C17.7381 17.8164 17.2584 18.2309 16.9213 18.7671L17.5987 19.1929ZM18.692 18.2411C19.1943 18.0019 19.7483 17.88 20.36 17.88V17.08C19.6384 17.08 18.9657 17.2247 18.348 17.5189L18.692 18.2411ZM20.36 17.88C21.5745 17.88 22.5103 18.2602 23.2102 18.9957L23.7898 18.4443C22.9164 17.5265 21.7588 17.08 20.36 17.08V17.88ZM23.2126 18.9982C23.9214 19.7306 24.3 20.7729 24.3 22.18H25.1C25.1 20.6271 24.6786 19.3627 23.7874 18.4418L23.2126 18.9982ZM24.3 22.18C24.3 23.0975 24.1119 23.8829 23.7488 24.5485L24.4512 24.9315C24.8881 24.1304 25.1 23.2091 25.1 22.18H24.3ZM23.7462 24.5534C23.398 25.2138 22.8828 25.7312 22.1889 26.1086L22.5711 26.8114C23.3972 26.3621 24.0287 25.7328 24.4538 24.9266L23.7462 24.5534ZM22.1863 26.11C21.5098 26.4845 20.6926 26.68 19.72 26.68V27.48C20.8007 27.48 21.7568 27.2622 22.5737 26.81L22.1863 26.11ZM19.72 26.68C17.7493 26.68 16.4809 26.0708 15.7792 24.948L15.1008 25.372C15.9991 26.8092 17.5841 27.48 19.72 27.48V26.68ZM15.7802 24.9496C15.0359 23.7464 14.64 21.9787 14.64 19.6H13.84C13.84 22.0479 14.2441 23.987 15.0998 25.3704L15.7802 24.9496ZM14.64 19.6C14.64 17.0966 15.0577 15.3139 15.83 14.186L15.17 13.734C14.2623 15.0594 13.84 17.0367 13.84 19.6H14.64ZM15.8295 14.1868C16.59 13.0816 17.8093 12.5 19.58 12.5V11.7C17.6174 11.7 16.1166 12.3584 15.1705 13.7332L15.8295 14.1868ZM19.58 12.5C20.5275 12.5 21.2931 12.6894 21.8972 13.0448L22.3028 12.3552C21.5469 11.9106 20.6325 11.7 19.58 11.7V12.5ZM21.9052 13.0493C22.5384 13.4025 23.001 13.8633 23.3083 14.4305L24.0117 14.0495C23.6256 13.3367 23.0482 12.7708 22.2948 12.3507L21.9052 13.0493ZM23.3114 14.4361C23.6424 15.0246 23.8396 15.6693 23.9015 16.375L24.6985 16.305C24.627 15.4907 24.3976 14.7354 24.0086 14.0439L23.3114 14.4361ZM24.3 15.94H21.12V16.74H24.3V15.94ZM19.54 19.78C18.8792 19.78 18.3009 19.9827 17.833 20.4022L18.367 20.9978C18.6725 20.724 19.0542 20.58 19.54 20.58V19.78ZM17.8336 20.4016C17.3547 20.8292 17.14 21.4303 17.14 22.14H17.94C17.94 21.5964 18.0987 21.2374 18.3664 20.9984L17.8336 20.4016ZM17.14 22.14C17.14 22.8532 17.3349 23.4637 17.7719 23.9175L18.3481 23.3625C18.0918 23.0963 17.94 22.7068 17.94 22.14H17.14ZM17.7772 23.9228C18.2318 24.3775 18.852 24.58 19.58 24.58V23.78C19.0013 23.78 18.6082 23.6225 18.3428 23.3572L17.7772 23.9228ZM19.58 24.58C20.2498 24.58 20.8235 24.3791 21.2483 23.9372L20.6717 23.3828C20.4298 23.6343 20.0835 23.78 19.58 23.78V24.58ZM21.2481 23.9375C21.6821 23.4868 21.88 22.892 21.88 22.2H21.08C21.08 22.7347 20.9312 23.1132 20.6719 23.3825L21.2481 23.9375ZM21.88 22.2C21.88 21.5015 21.6927 20.901 21.2735 20.4482L20.6865 20.9918C20.9339 21.259 21.08 21.6451 21.08 22.2H21.88ZM21.2735 20.4482C20.8447 19.9852 20.2453 19.78 19.54 19.78V20.58C20.088 20.58 20.4486 20.7348 20.6865 20.9918L21.2735 20.4482Z" fill="#3837A1"/>
</svg>
