<svg width="40" height="40" viewBox="0 0 40 40" fill="none" xmlns="http://www.w3.org/2000/svg">
<ellipse cx="19.6009" cy="20" rx="19.6009" ry="20" fill="#BAD5DB"/>
<path d="M24.22 14.96L19.2 27H15.7L20.78 15.34H14.56V12.42H24.22V14.96Z" fill="#FFFB9F"/>
<path d="M24.22 14.96L24.5892 15.1139L24.62 15.04V14.96H24.22ZM19.2 27V27.4H19.4666L19.5692 27.1539L19.2 27ZM15.7 27L15.3333 26.8402L15.0894 27.4H15.7V27ZM20.78 15.34L21.1467 15.4998L21.3906 14.94H20.78V15.34ZM14.56 15.34H14.16V15.74H14.56V15.34ZM14.56 12.42V12.02H14.16V12.42H14.56ZM24.22 12.42H24.62V12.02H24.22V12.42ZM23.8508 14.8061L18.8308 26.8461L19.5692 27.1539L24.5892 15.1139L23.8508 14.8061ZM19.2 26.6H15.7V27.4H19.2V26.6ZM16.0667 27.1598L21.1467 15.4998L20.4133 15.1802L15.3333 26.8402L16.0667 27.1598ZM20.78 14.94H14.56V15.74H20.78V14.94ZM14.96 15.34V12.42H14.16V15.34H14.96ZM14.56 12.82H24.22V12.02H14.56V12.82ZM23.82 12.42V14.96H24.62V12.42H23.82Z" fill="#3837A1"/>
</svg>
