<svg width="40" height="40" viewBox="0 0 40 40" fill="none" xmlns="http://www.w3.org/2000/svg">
<ellipse cx="19.6009" cy="20" rx="19.6009" ry="20" fill="#BAD5DB"/>
<path d="M16.88 19.48C16.1333 19.1867 15.56 18.76 15.16 18.2C14.76 17.64 14.56 16.96 14.56 16.16C14.56 15.44 14.74 14.7933 15.1 14.22C15.46 13.6333 15.9933 13.1733 16.7 12.84C17.42 12.4933 18.2867 12.32 19.3 12.32C20.3133 12.32 21.1733 12.4933 21.88 12.84C22.6 13.1733 23.14 13.6333 23.5 14.22C23.8733 14.7933 24.06 15.44 24.06 16.16C24.06 16.9333 23.8533 17.6133 23.44 18.2C23.0267 18.7733 22.46 19.2 21.74 19.48C22.5667 19.7333 23.22 20.18 23.7 20.82C24.1933 21.4467 24.44 22.2067 24.44 23.1C24.44 23.9667 24.2267 24.7267 23.8 25.38C23.3733 26.02 22.7667 26.52 21.98 26.88C21.2067 27.2267 20.3133 27.4 19.3 27.4C18.2867 27.4 17.3933 27.2267 16.62 26.88C15.86 26.52 15.2667 26.02 14.84 25.38C14.4133 24.7267 14.2 23.9667 14.2 23.1C14.2 22.2067 14.44 21.44 14.92 20.8C15.4 20.16 16.0533 19.72 16.88 19.48ZM22.3 16.38C22.3 15.5667 22.0333 14.94 21.5 14.5C20.9667 14.06 20.2333 13.84 19.3 13.84C18.38 13.84 17.6533 14.06 17.12 14.5C16.5867 14.94 16.32 15.5733 16.32 16.4C16.32 17.1467 16.5933 17.7467 17.14 18.2C17.7 18.6533 18.42 18.88 19.3 18.88C20.1933 18.88 20.9133 18.6533 21.46 18.2C22.02 17.7333 22.3 17.1267 22.3 16.38ZM19.3 20.28C18.3133 20.28 17.5067 20.5133 16.88 20.98C16.2533 21.4333 15.94 22.12 15.94 23.04C15.94 23.8933 16.24 24.58 16.84 25.1C17.4533 25.62 18.2733 25.88 19.3 25.88C20.3267 25.88 21.14 25.62 21.74 25.1C22.34 24.58 22.64 23.8933 22.64 23.04C22.64 22.1467 22.3333 21.4667 21.72 21C21.1067 20.52 20.3 20.28 19.3 20.28Z" fill="#FFFB9F"/>
<path d="M16.88 19.48L17.0194 19.9602L18.4284 19.5511L17.0628 19.0146L16.88 19.48ZM15.16 18.2L14.7531 18.4906H14.7531L15.16 18.2ZM15.1 14.22L15.5235 14.4859L15.5262 14.4815L15.1 14.22ZM16.7 12.84L16.9133 13.2922L16.9169 13.2905L16.7 12.84ZM21.88 12.84L21.6597 13.289L21.6699 13.2937L21.88 12.84ZM23.5 14.22L23.0737 14.4816L23.081 14.4928L23.5 14.22ZM23.44 18.2L23.8456 18.4924L23.8487 18.488L23.44 18.2ZM21.74 19.48L21.5588 19.014L20.2164 19.536L21.5935 19.9581L21.74 19.48ZM23.7 20.82L23.2999 21.1201L23.3071 21.1293L23.7 20.82ZM23.8 25.38L24.216 25.6574L24.2186 25.6534L23.8 25.38ZM21.98 26.88L22.1845 27.3363L22.1881 27.3347L21.98 26.88ZM16.62 26.88L16.4059 27.332L16.4155 27.3363L16.62 26.88ZM14.84 25.38L14.4213 25.6534L14.424 25.6574L14.84 25.38ZM14.92 20.8L15.32 21.1L14.92 20.8ZM21.5 14.5L21.1818 14.8857V14.8857L21.5 14.5ZM17.12 14.5L17.4382 14.8857V14.8857L17.12 14.5ZM17.14 18.2L16.8208 18.5849L16.8254 18.5886L17.14 18.2ZM21.46 18.2L21.7792 18.5849L21.7801 18.5841L21.46 18.2ZM16.88 20.98L17.1731 21.3852L17.1786 21.381L16.88 20.98ZM16.84 25.1L16.5125 25.4779L16.5167 25.4814L16.84 25.1ZM21.74 25.1L21.4125 24.7222L21.74 25.1ZM21.72 21L21.4118 21.3938L21.4172 21.3979L21.72 21ZM17.0628 19.0146C16.3909 18.7507 15.9018 18.3784 15.5669 17.9094L14.7531 18.4906C15.2182 19.1416 15.8757 19.6227 16.6972 19.9454L17.0628 19.0146ZM15.5669 17.9094C15.2369 17.4474 15.06 16.8733 15.06 16.16H14.06C14.06 17.0467 14.2831 17.8326 14.7531 18.4906L15.5669 17.9094ZM15.06 16.16C15.06 15.5278 15.2167 14.9744 15.5234 14.4859L14.6766 13.9541C14.2633 14.6122 14.06 15.3522 14.06 16.16H15.06ZM15.5262 14.4815C15.8286 13.9886 16.2824 13.5898 16.9133 13.2922L16.4867 12.3878C15.7043 12.7568 15.0914 13.2781 14.6738 13.9585L15.5262 14.4815ZM16.9169 13.2905C17.5536 12.9839 18.3422 12.82 19.3 12.82V11.82C18.2311 11.82 17.2864 12.0027 16.4831 12.3895L16.9169 13.2905ZM19.3 12.82C20.2582 12.82 21.0384 12.9841 21.6598 13.2889L22.1002 12.3911C21.3082 12.0026 20.3685 11.82 19.3 11.82V12.82ZM21.6699 13.2937C22.3146 13.5922 22.7729 13.9911 23.0738 14.4815L23.9262 13.9585C23.5071 13.2756 22.8854 12.7545 22.0901 12.3863L21.6699 13.2937ZM23.081 14.4928C23.3986 14.9806 23.56 15.5315 23.56 16.16H24.56C24.56 15.3485 24.348 14.606 23.919 13.9472L23.081 14.4928ZM23.56 16.16C23.56 16.8387 23.3805 17.4163 23.0313 17.912L23.8487 18.488C24.3261 17.8104 24.56 17.028 24.56 16.16H23.56ZM23.0344 17.9076C22.6828 18.3954 22.1975 18.7656 21.5588 19.014L21.9212 19.946C22.7225 19.6344 23.3706 19.1513 23.8456 18.4924L23.0344 17.9076ZM21.5935 19.9581C22.3276 20.183 22.8887 20.5716 23.3 21.12L24.1 20.52C23.5513 19.7884 22.8057 19.2836 21.8865 19.0019L21.5935 19.9581ZM23.3071 21.1293C23.7227 21.6572 23.94 22.3046 23.94 23.1H24.94C24.94 22.1087 24.6639 21.2361 24.0929 20.5107L23.3071 21.1293ZM23.94 23.1C23.94 23.8807 23.7492 24.5434 23.3814 25.1066L24.2186 25.6534C24.7042 24.9099 24.94 24.0526 24.94 23.1H23.94ZM23.384 25.1026C23.015 25.656 22.485 26.099 21.7719 26.4253L22.1881 27.3347C23.0484 26.941 23.7316 26.384 24.216 25.6574L23.384 25.1026ZM21.7755 26.4237C21.0778 26.7365 20.2564 26.9 19.3 26.9V27.9C20.3703 27.9 21.3355 27.7168 22.1845 27.3363L21.7755 26.4237ZM19.3 26.9C18.3436 26.9 17.5222 26.7365 16.8245 26.4237L16.4155 27.3363C17.2645 27.7168 18.2297 27.9 19.3 27.9V26.9ZM16.834 26.4281C16.1481 26.1032 15.6278 25.6603 15.256 25.1026L14.424 25.6574C14.9055 26.3797 15.5719 26.9368 16.406 27.3319L16.834 26.4281ZM15.2586 25.1066C14.8908 24.5434 14.7 23.8807 14.7 23.1H13.7C13.7 24.0526 13.9358 24.9099 14.4214 25.6534L15.2586 25.1066ZM14.7 23.1C14.7 22.3016 14.9124 21.6434 15.32 21.1L14.52 20.5C13.9676 21.2366 13.7 22.1117 13.7 23.1H14.7ZM15.32 21.1C15.7299 20.5535 16.2884 20.1724 17.0194 19.9602L16.7406 18.9998C15.8182 19.2676 15.0701 19.7665 14.52 20.5L15.32 21.1ZM22.8 16.38C22.8 15.4467 22.4875 14.6665 21.8182 14.1143L21.1818 14.8857C21.5792 15.2135 21.8 15.6867 21.8 16.38H22.8ZM21.8182 14.1143C21.1683 13.5781 20.3088 13.34 19.3 13.34V14.34C20.1579 14.34 20.7651 14.5419 21.1818 14.8857L21.8182 14.1143ZM19.3 13.34C18.3025 13.34 17.4506 13.5791 16.8018 14.1143L17.4382 14.8857C17.8561 14.5409 18.4575 14.34 19.3 14.34V13.34ZM16.8018 14.1143C16.1306 14.6681 15.82 15.4564 15.82 16.4H16.82C16.82 15.6903 17.0428 15.2119 17.4382 14.8857L16.8018 14.1143ZM15.82 16.4C15.82 17.2867 16.153 18.0311 16.8208 18.5849L17.4592 17.8151C17.0336 17.4622 16.82 17.0066 16.82 16.4H15.82ZM16.8254 18.5886C17.4928 19.1289 18.3317 19.38 19.3 19.38V18.38C18.5083 18.38 17.9072 18.1777 17.4546 17.8114L16.8254 18.5886ZM19.3 19.38C20.2791 19.38 21.1216 19.1302 21.7792 18.5849L21.1408 17.8151C20.7051 18.1765 20.1076 18.38 19.3 18.38V19.38ZM21.7801 18.5841C22.4572 18.0198 22.8 17.2709 22.8 16.38H21.8C21.8 16.9824 21.5828 17.4469 21.1399 17.8159L21.7801 18.5841ZM19.3 19.78C18.2343 19.78 17.3147 20.0328 16.5814 20.579L17.1786 21.381C17.6986 20.9938 18.3924 20.78 19.3 20.78V19.78ZM16.5869 20.5749C15.8047 21.1408 15.44 21.9941 15.44 23.04H16.44C16.44 22.2459 16.702 21.7259 17.1731 21.3851L16.5869 20.5749ZM15.44 23.04C15.44 24.0261 15.794 24.8551 16.5125 25.4778L17.1675 24.7222C16.686 24.3049 16.44 23.7606 16.44 23.04H15.44ZM16.5167 25.4814C17.243 26.0972 18.1885 26.38 19.3 26.38V25.38C18.3582 25.38 17.6637 25.1428 17.1633 24.7186L16.5167 25.4814ZM19.3 26.38C20.4109 26.38 21.3526 26.0974 22.0675 25.4778L21.4125 24.7222C20.9274 25.1426 20.2424 25.38 19.3 25.38V26.38ZM22.0675 25.4778C22.786 24.8551 23.14 24.0261 23.14 23.04H22.14C22.14 23.7606 21.894 24.3049 21.4125 24.7222L22.0675 25.4778ZM23.14 23.04C23.14 22.0187 22.7812 21.1792 22.0228 20.6021L21.4172 21.3979C21.8855 21.7542 22.14 22.2747 22.14 23.04H23.14ZM22.0282 20.6062C21.3045 20.0399 20.3796 19.78 19.3 19.78V20.78C20.2204 20.78 20.9088 21.0001 21.4118 21.3938L22.0282 20.6062Z" fill="#3837A1"/>
</svg>
