<svg width="40" height="40" viewBox="0 0 40 40" fill="none" xmlns="http://www.w3.org/2000/svg">
<ellipse cx="19.6009" cy="20" rx="19.6009" ry="20" fill="#BAD5DB"/>
<path d="M15.02 25.54C16.7133 24.18 18.04 23.0667 19 22.2C19.96 21.32 20.7667 20.4067 21.42 19.46C22.0867 18.5 22.42 17.56 22.42 16.64C22.42 15.7733 22.2067 15.0933 21.78 14.6C21.3667 14.0933 20.6933 13.84 19.76 13.84C18.8533 13.84 18.1467 14.1267 17.64 14.7C17.1467 15.26 16.88 16.0133 16.84 16.96H15.08C15.1333 15.4667 15.5867 14.3133 16.44 13.5C17.2933 12.6867 18.3933 12.28 19.74 12.28C21.1133 12.28 22.2 12.66 23 13.42C23.8133 14.18 24.22 15.2267 24.22 16.56C24.22 17.6667 23.8867 18.7467 23.22 19.8C22.5667 20.84 21.82 21.76 20.98 22.56C20.14 23.3467 19.0667 24.2667 17.76 25.32H24.64V26.84H15.02V25.54Z" fill="#FFFB9F"/>
<path d="M15.02 25.54L14.7069 25.1502L14.52 25.3003V25.54H15.02ZM19 22.2L19.3351 22.5711L19.3379 22.5686L19 22.2ZM21.42 19.46L21.0093 19.1748L21.0085 19.176L21.42 19.46ZM21.78 14.6L21.3926 14.9161L21.3971 14.9216L21.4018 14.9271L21.78 14.6ZM17.64 14.7L17.2653 14.3689L17.2648 14.3695L17.64 14.7ZM16.84 16.96V17.46H17.3193L17.3396 16.9811L16.84 16.96ZM15.08 16.96L14.5803 16.9422L14.5618 17.46H15.08V16.96ZM16.44 13.5L16.785 13.8619L16.785 13.8619L16.44 13.5ZM23 13.42L22.6556 13.7825L22.6586 13.7853L23 13.42ZM23.22 19.8L22.7975 19.5326L22.7966 19.534L23.22 19.8ZM20.98 22.56L21.3218 22.925L21.3248 22.9221L20.98 22.56ZM17.76 25.32L17.4462 24.9307L16.3431 25.82H17.76V25.32ZM24.64 25.32H25.14V24.82H24.64V25.32ZM24.64 26.84V27.34H25.14V26.84H24.64ZM15.02 26.84H14.52V27.34H15.02V26.84ZM15.3331 25.9298C17.0296 24.5673 18.3648 23.4471 19.3351 22.5711L18.6649 21.8289C17.7152 22.6862 16.397 23.7927 14.7069 25.1502L15.3331 25.9298ZM19.3379 22.5686C20.3219 21.6665 21.1543 20.7253 21.8315 19.744L21.0085 19.176C20.379 20.0881 19.5981 20.9735 18.6621 21.8314L19.3379 22.5686ZM21.8307 19.7452C22.5398 18.7241 22.92 17.6864 22.92 16.64H21.92C21.92 17.4336 21.6336 18.2759 21.0093 19.1748L21.8307 19.7452ZM22.92 16.64C22.92 15.6932 22.6861 14.8834 22.1582 14.2729L21.4018 14.9271C21.7272 15.3033 21.92 15.8535 21.92 16.64H22.92ZM22.1674 14.2839C21.6237 13.6174 20.7767 13.34 19.76 13.34V14.34C20.61 14.34 21.1096 14.5692 21.3926 14.9161L22.1674 14.2839ZM19.76 13.34C18.7391 13.34 17.8846 13.6682 17.2653 14.3689L18.0147 15.0311C18.4087 14.5852 18.9676 14.34 19.76 14.34V13.34ZM17.2648 14.3695C16.6774 15.0363 16.3839 15.9093 16.3404 16.9389L17.3396 16.9811C17.3761 16.1174 17.6159 15.4837 18.0152 15.0305L17.2648 14.3695ZM16.84 16.46H15.08V17.46H16.84V16.46ZM15.5797 16.9778C15.6297 15.5784 16.0497 14.5627 16.785 13.8619L16.095 13.1381C15.1236 14.0639 14.637 15.3549 14.5803 16.9422L15.5797 16.9778ZM16.785 13.8619C17.532 13.15 18.5021 12.78 19.74 12.78V11.78C18.2846 11.78 17.0547 12.2234 16.095 13.1381L16.785 13.8619ZM19.74 12.78C21.0181 12.78 21.9699 13.1311 22.6556 13.7825L23.3444 13.0575C22.4301 12.1889 21.2086 11.78 19.74 11.78V12.78ZM22.6586 13.7853C23.351 14.4323 23.72 15.3355 23.72 16.56H24.72C24.72 15.1178 24.2757 13.9277 23.3414 13.0547L22.6586 13.7853ZM23.72 16.56C23.72 17.5604 23.4201 18.5489 22.7975 19.5326L23.6425 20.0674C24.3532 18.9445 24.72 17.7729 24.72 16.56H23.72ZM22.7966 19.534C22.1641 20.5409 21.4434 21.4282 20.6352 22.1979L21.3248 22.9221C22.1966 22.0918 22.9693 21.1391 23.6434 20.066L22.7966 19.534ZM20.6382 22.1951C19.8103 22.9704 18.7472 23.882 17.4462 24.9307L18.0738 25.7093C19.3862 24.6513 20.4697 23.7229 21.3218 22.9249L20.6382 22.1951ZM17.76 25.82H24.64V24.82H17.76V25.82ZM24.14 25.32V26.84H25.14V25.32H24.14ZM24.64 26.34H15.02V27.34H24.64V26.34ZM15.52 26.84V25.54H14.52V26.84H15.52Z" fill="#3837A1"/>
</svg>
