<svg width="40" height="40" viewBox="0 0 40 40" fill="none" xmlns="http://www.w3.org/2000/svg">
<ellipse cx="19.6009" cy="20" rx="19.6009" ry="20" fill="#BAD5DB"/>
<path d="M13.98 24.4V21.64L20.3 12.6H24.12V21.44H25.76V24.4H24.12V27H20.7V24.4H13.98ZM20.94 16.36L17.58 21.44H20.94V16.36Z" fill="#FFFB9F"/>
<path d="M13.98 24.4H13.58V24.8H13.98V24.4ZM13.98 21.64L13.6522 21.4108L13.58 21.514V21.64H13.98ZM20.3 12.6V12.2H20.0916L19.9722 12.3708L20.3 12.6ZM24.12 12.6H24.52V12.2H24.12V12.6ZM24.12 21.44H23.72V21.84H24.12V21.44ZM25.76 21.44H26.16V21.04H25.76V21.44ZM25.76 24.4V24.8H26.16V24.4H25.76ZM24.12 24.4V24H23.72V24.4H24.12ZM24.12 27V27.4H24.52V27H24.12ZM20.7 27H20.3V27.4H20.7V27ZM20.7 24.4H21.1V24H20.7V24.4ZM20.94 16.36H21.34V15.0302L20.6064 16.1393L20.94 16.36ZM17.58 21.44L17.2464 21.2193L16.8359 21.84H17.58V21.44ZM20.94 21.44V21.84H21.34V21.44H20.94ZM14.38 24.4V21.64H13.58V24.4H14.38ZM14.3078 21.8692L20.6278 12.8292L19.9722 12.3708L13.6522 21.4108L14.3078 21.8692ZM20.3 13H24.12V12.2H20.3V13ZM23.72 12.6V21.44H24.52V12.6H23.72ZM24.12 21.84H25.76V21.04H24.12V21.84ZM25.36 21.44V24.4H26.16V21.44H25.36ZM25.76 24H24.12V24.8H25.76V24ZM23.72 24.4V27H24.52V24.4H23.72ZM24.12 26.6H20.7V27.4H24.12V26.6ZM21.1 27V24.4H20.3V27H21.1ZM20.7 24H13.98V24.8H20.7V24ZM20.6064 16.1393L17.2464 21.2193L17.9136 21.6607L21.2736 16.5807L20.6064 16.1393ZM17.58 21.84H20.94V21.04H17.58V21.84ZM21.34 21.44V16.36H20.54V21.44H21.34Z" fill="#3837A1"/>
</svg>
