<svg width="40" height="40" viewBox="0 0 40 40" fill="none" xmlns="http://www.w3.org/2000/svg">
<ellipse cx="19.6009" cy="20" rx="19.6009" ry="20" fill="#BAD5DB"/>
<path d="M14.78 24.26C15.2333 23.9 15.44 23.7333 15.4 23.76C16.7067 22.68 17.7333 21.7933 18.48 21.1C19.24 20.4067 19.88 19.68 20.4 18.92C20.92 18.16 21.18 17.42 21.18 16.7C21.18 16.1533 21.0533 15.7267 20.8 15.42C20.5467 15.1133 20.1667 14.96 19.66 14.96C19.1533 14.96 18.7533 15.1533 18.46 15.54C18.18 15.9133 18.04 16.4467 18.04 17.14H14.74C14.7667 16.0067 15.0067 15.06 15.46 14.3C15.9267 13.54 16.5333 12.98 17.28 12.62C18.04 12.26 18.88 12.08 19.8 12.08C21.3867 12.08 22.58 12.4867 23.38 13.3C24.1933 14.1133 24.6 15.1733 24.6 16.48C24.6 17.9067 24.1133 19.2333 23.14 20.46C22.1667 21.6733 20.9267 22.86 19.42 24.02H24.82V26.8H14.78V24.26Z" fill="#FFFB9F"/>
<path d="M14.78 24.26L14.5312 23.9468L14.38 24.0669V24.26H14.78ZM15.4 23.76L15.1452 23.4517L15.6219 24.0928L15.4 23.76ZM18.48 21.1L18.2104 20.8045L18.2078 20.8069L18.48 21.1ZM20.8 15.42L20.4916 15.6748L20.4916 15.6748L20.8 15.42ZM18.46 15.54L18.1413 15.2982L18.14 15.3L18.46 15.54ZM18.04 17.14V17.54H18.44V17.14H18.04ZM14.74 17.14L14.3401 17.1306L14.3305 17.54H14.74V17.14ZM15.46 14.3L15.1191 14.0907L15.1165 14.0951L15.46 14.3ZM17.28 12.62L17.1088 12.2585L17.1063 12.2597L17.28 12.62ZM23.38 13.3L23.0948 13.5805L23.0972 13.5828L23.38 13.3ZM23.14 20.46L23.452 20.7103L23.4533 20.7086L23.14 20.46ZM19.42 24.02L19.176 23.7031L18.2448 24.42H19.42V24.02ZM24.82 24.02H25.22V23.62H24.82V24.02ZM24.82 26.8V27.2H25.22V26.8H24.82ZM14.78 26.8H14.38V27.2H14.78V26.8ZM15.0288 24.5732C15.2555 24.3932 15.4215 24.2607 15.5261 24.1764C15.5777 24.1347 15.6168 24.1029 15.641 24.0825C15.6476 24.077 15.6688 24.0594 15.6863 24.0419C15.6897 24.0384 15.6957 24.0324 15.7026 24.0247C15.7071 24.0196 15.7231 24.0016 15.7398 23.9761C15.7474 23.9645 15.7657 23.9355 15.7806 23.8946C15.7896 23.87 15.8337 23.7483 15.7747 23.605C15.697 23.4162 15.5252 23.3671 15.4438 23.3592C15.3714 23.3521 15.3156 23.3669 15.2994 23.3714C15.2587 23.3825 15.229 23.3978 15.2234 23.4006C15.2122 23.4063 15.2036 23.4113 15.1989 23.414C15.1895 23.4197 15.1819 23.4247 15.1781 23.4272L15.6219 24.0928C15.6206 24.0936 15.615 24.0974 15.6071 24.1021C15.6033 24.1044 15.5952 24.109 15.5846 24.1144C15.5796 24.117 15.5503 24.1322 15.5099 24.1432C15.4937 24.1476 15.4381 24.1624 15.3658 24.1553C15.2845 24.1474 15.1127 24.0983 15.035 23.9096C14.976 23.7664 15.0202 23.6447 15.0291 23.6202C15.044 23.5795 15.0622 23.5506 15.0697 23.5391C15.0862 23.5138 15.1018 23.4963 15.106 23.4917C15.1125 23.4844 15.1178 23.479 15.1206 23.4762C15.1327 23.4641 15.1408 23.458 15.1265 23.47C15.109 23.4846 15.0756 23.5119 15.0239 23.5536C14.9218 23.636 14.7578 23.7668 14.5312 23.9468L15.0288 24.5732ZM15.6548 24.0683C16.9641 22.9862 17.9974 22.094 18.7522 21.3931L18.2078 20.8069C17.4692 21.4927 16.4492 22.3738 15.1452 23.4517L15.6548 24.0683ZM18.7496 21.3955C19.5298 20.6838 20.1908 19.9341 20.7301 19.1459L20.0699 18.6941C19.5692 19.4259 18.9502 20.1296 18.2104 20.8045L18.7496 21.3955ZM20.7301 19.1459C21.283 18.3378 21.58 17.5204 21.58 16.7H20.78C20.78 17.3196 20.557 17.9822 20.0699 18.6941L20.7301 19.1459ZM21.58 16.7C21.58 16.095 21.4398 15.5664 21.1084 15.1652L20.4916 15.6748C20.6669 15.8869 20.78 16.2117 20.78 16.7H21.58ZM21.1084 15.1652C20.7591 14.7424 20.2506 14.56 19.66 14.56V15.36C20.0827 15.36 20.3342 15.4843 20.4916 15.6748L21.1084 15.1652ZM19.66 14.56C19.0346 14.56 18.5141 14.8069 18.1413 15.2982L18.7787 15.7818C18.9926 15.4998 19.272 15.36 19.66 15.36V14.56ZM18.14 15.3C17.7883 15.769 17.64 16.4002 17.64 17.14H18.44C18.44 16.4931 18.5717 16.0577 18.78 15.78L18.14 15.3ZM18.04 16.74H14.74V17.54H18.04V16.74ZM15.1399 17.1494C15.1654 16.0661 15.3941 15.1913 15.8035 14.5049L15.1165 14.0951C14.6192 14.9287 14.368 15.9473 14.3401 17.1306L15.1399 17.1494ZM15.8009 14.5093C16.2306 13.8094 16.7814 13.3045 17.4537 12.9803L17.1063 12.2597C16.2853 12.6555 15.6227 13.2706 15.1191 14.0907L15.8009 14.5093ZM17.4512 12.9815C18.1528 12.6492 18.9336 12.48 19.8 12.48V11.68C18.8264 11.68 17.9272 11.8708 17.1088 12.2585L17.4512 12.9815ZM19.8 12.48C21.3222 12.48 22.3955 12.8695 23.0948 13.5805L23.6652 13.0195C22.7645 12.1038 21.4512 11.68 19.8 11.68V12.48ZM23.0972 13.5828C23.8251 14.3107 24.2 15.2637 24.2 16.48H25C25 15.083 24.5616 13.9159 23.6628 13.0172L23.0972 13.5828ZM24.2 16.48C24.2 17.8074 23.7497 19.0481 22.8267 20.2114L23.4533 20.7086C24.477 19.4186 25 18.0059 25 16.48H24.2ZM22.828 20.2097C21.8784 21.3934 20.6628 22.5584 19.176 23.7031L19.664 24.3369C21.1906 23.1616 22.4549 21.9532 23.452 20.7103L22.828 20.2097ZM19.42 24.42H24.82V23.62H19.42V24.42ZM24.42 24.02V26.8H25.22V24.02H24.42ZM24.82 26.4H14.78V27.2H24.82V26.4ZM15.18 26.8V24.26H14.38V26.8H15.18Z" fill="#3837A1"/>
</svg>
