<svg width="40" height="40" viewBox="0 0 40 40" fill="none" xmlns="http://www.w3.org/2000/svg">
<ellipse cx="19.6009" cy="20" rx="19.6009" ry="20" fill="#BAD5DB"/>
<path d="M15.2 16.18C15.2933 14.9533 15.7667 13.9933 16.62 13.3C17.4733 12.6067 18.58 12.26 19.94 12.26C20.8467 12.26 21.6267 12.4267 22.28 12.76C22.9467 13.08 23.4467 13.52 23.78 14.08C24.1267 14.64 24.3 15.2733 24.3 15.98C24.3 16.8067 24.06 17.52 23.58 18.12C23.1133 18.72 22.5 19.1067 21.74 19.28V19.38C22.6067 19.5933 23.2933 20.0133 23.8 20.64C24.3067 21.2667 24.56 22.0867 24.56 23.1C24.56 23.86 24.3867 24.5467 24.04 25.16C23.6933 25.76 23.1733 26.2333 22.48 26.58C21.7867 26.9267 20.9533 27.1 19.98 27.1C18.5667 27.1 17.4067 26.7333 16.5 26C15.5933 25.2533 15.0867 24.2 14.98 22.84H16.74C16.8333 23.64 17.16 24.2933 17.72 24.8C18.28 25.3067 19.0267 25.56 19.96 25.56C20.8933 25.56 21.6 25.32 22.08 24.84C22.5733 24.3467 22.82 23.7133 22.82 22.94C22.82 21.94 22.4867 21.22 21.82 20.78C21.1533 20.34 20.1467 20.12 18.8 20.12H18.34V18.6H18.82C20.0467 18.5867 20.9733 18.3867 21.6 18C22.2267 17.6 22.54 16.9867 22.54 16.16C22.54 15.4533 22.3067 14.8867 21.84 14.46C21.3867 14.0333 20.7333 13.82 19.88 13.82C19.0533 13.82 18.3867 14.0333 17.88 14.46C17.3733 14.8867 17.0733 15.46 16.98 16.18H15.2Z" fill="#FFFB9F"/>
<path d="M15.2 16.18L14.7014 16.1421L14.6605 16.68H15.2V16.18ZM16.62 13.3L16.3047 12.9119L16.3047 12.9119L16.62 13.3ZM22.28 12.76L22.0527 13.2055L22.0636 13.2108L22.28 12.76ZM23.78 14.08L23.3503 14.3358L23.3549 14.3432L23.78 14.08ZM23.58 18.12L23.1895 17.8076L23.1853 17.813L23.58 18.12ZM21.74 19.28L21.6288 18.7925L21.24 18.8812V19.28H21.74ZM21.74 19.38H21.24V19.7718L21.6205 19.8655L21.74 19.38ZM23.8 20.64L24.1888 20.3256L23.8 20.64ZM24.04 25.16L24.473 25.4102L24.4753 25.406L24.04 25.16ZM22.48 26.58L22.7036 27.0272L22.48 26.58ZM16.5 26L16.1821 26.386L16.1856 26.3888L16.5 26ZM14.98 22.84V22.34H14.4392L14.4815 22.8791L14.98 22.84ZM16.74 22.84L17.2366 22.7821L17.1851 22.34H16.74V22.84ZM17.72 24.8L17.3845 25.1708L17.72 24.8ZM22.08 24.84L21.7264 24.4864L22.08 24.84ZM21.82 20.78L22.0954 20.3627L21.82 20.78ZM18.34 20.12H17.84V20.62H18.34V20.12ZM18.34 18.6V18.1H17.84V18.6H18.34ZM18.82 18.6V19.1L18.8254 19.1L18.82 18.6ZM21.6 18L21.8626 18.4256L21.869 18.4215L21.6 18ZM21.84 14.46L21.4973 14.8241L21.5026 14.829L21.84 14.46ZM16.98 16.18V16.68H17.4194L17.4759 16.2443L16.98 16.18ZM15.6986 16.2179C15.7828 15.1102 16.2017 14.2841 16.9353 13.6881L16.3047 12.9119C15.3316 13.7026 14.8038 14.7964 14.7014 16.1421L15.6986 16.2179ZM16.9353 13.6881C17.68 13.083 18.6668 12.76 19.94 12.76V11.76C18.4932 11.76 17.2667 12.1303 16.3047 12.9119L16.9353 13.6881ZM19.94 12.76C20.786 12.76 21.4845 12.9154 22.0528 13.2054L22.5072 12.3146C21.7689 11.9379 20.9073 11.76 19.94 11.76V12.76ZM22.0636 13.2108C22.6539 13.4941 23.0739 13.8714 23.3504 14.3357L24.2096 13.8243C23.8194 13.1686 23.2394 12.6659 22.4964 12.3092L22.0636 13.2108ZM23.3549 14.3432C23.649 14.8183 23.8 15.3593 23.8 15.98H24.8C24.8 15.1874 24.6043 14.4617 24.2051 13.8168L23.3549 14.3432ZM23.8 15.98C23.8 16.7024 23.5931 17.3033 23.1896 17.8077L23.9704 18.4323C24.5269 17.7367 24.8 16.911 24.8 15.98H23.8ZM23.1853 17.813C22.7914 18.3195 22.2794 18.6441 21.6288 18.7925L21.8512 19.7675C22.7206 19.5692 23.4352 19.1205 23.9747 18.427L23.1853 17.813ZM21.24 19.28V19.38H22.24V19.28H21.24ZM21.6205 19.8655C22.3931 20.0557 22.9806 20.4218 23.4112 20.9544L24.1888 20.3256C23.6061 19.6049 22.8202 19.131 21.8595 18.8945L21.6205 19.8655ZM23.4112 20.9544C23.829 21.4711 24.06 22.171 24.06 23.1H25.06C25.06 22.0024 24.7843 21.0622 24.1888 20.3256L23.4112 20.9544ZM24.06 23.1C24.06 23.7808 23.9056 24.3816 23.6047 24.914L24.4753 25.406C24.8677 24.7118 25.06 23.9392 25.06 23.1H24.06ZM23.6071 24.9099C23.3151 25.4152 22.8729 25.8245 22.2564 26.1328L22.7036 27.0272C23.4737 26.6421 24.0716 26.1048 24.4729 25.4101L23.6071 24.9099ZM22.2564 26.1328C21.6479 26.437 20.8951 26.6 19.98 26.6V27.6C21.0116 27.6 21.9254 27.4163 22.7036 27.0272L22.2564 26.1328ZM19.98 26.6C18.656 26.6 17.6144 26.2583 16.8144 25.6112L16.1856 26.3888C17.199 27.2084 18.4773 27.6 19.98 27.6V26.6ZM16.8179 25.614C16.0331 24.9677 15.5764 24.0493 15.4785 22.8009L14.4815 22.8791C14.5969 24.3507 15.1536 25.5389 16.1821 26.386L16.8179 25.614ZM14.98 23.34H16.74V22.34H14.98V23.34ZM16.2434 22.8979C16.3497 23.8096 16.7284 24.5771 17.3845 25.1708L18.0555 24.4292C17.5916 24.0096 17.3169 23.4704 17.2366 22.7821L16.2434 22.8979ZM17.3845 25.1708C18.0569 25.779 18.9332 26.06 19.96 26.06V25.06C19.1201 25.06 18.5031 24.8343 18.0555 24.4292L17.3845 25.1708ZM19.96 26.06C20.9751 26.06 21.8291 25.798 22.4336 25.1936L21.7264 24.4864C21.3709 24.842 20.8115 25.06 19.96 25.06V26.06ZM22.4336 25.1936C23.0312 24.5959 23.32 23.8302 23.32 22.94H22.32C22.32 23.5965 22.1154 24.0975 21.7264 24.4864L22.4336 25.1936ZM23.32 22.94C23.32 21.82 22.9381 20.9189 22.0954 20.3627L21.5446 21.1973C22.0352 21.5211 22.32 22.06 22.32 22.94H23.32ZM22.0954 20.3627C21.3083 19.8432 20.1846 19.62 18.8 19.62V20.62C20.1087 20.62 20.9984 20.8368 21.5446 21.1973L22.0954 20.3627ZM18.8 19.62H18.34V20.62H18.8V19.62ZM18.84 20.12V18.6H17.84V20.12H18.84ZM18.34 19.1H18.82V18.1H18.34V19.1ZM18.8254 19.1C20.0891 19.0862 21.1229 18.8819 21.8626 18.4255L21.3374 17.5745C20.8238 17.8914 20.0042 18.0871 18.8146 18.1L18.8254 19.1ZM21.869 18.4215C22.6577 17.9181 23.04 17.1347 23.04 16.16H22.04C22.04 16.8386 21.7956 17.2819 21.331 17.5785L21.869 18.4215ZM23.04 16.16C23.04 15.3313 22.7604 14.6241 22.1774 14.091L21.5026 14.829C21.8529 15.1493 22.04 15.5754 22.04 16.16H23.04ZM22.1827 14.0959C21.6068 13.5539 20.8128 13.32 19.88 13.32V14.32C20.6538 14.32 21.1665 14.5128 21.4973 14.8241L22.1827 14.0959ZM19.88 13.32C18.9656 13.32 18.1754 13.5576 17.5579 14.0775L18.2021 14.8425C18.598 14.5091 19.1411 14.32 19.88 14.32V13.32ZM17.5579 14.0775C16.946 14.5928 16.5919 15.2846 16.4841 16.1157L17.4759 16.2443C17.5548 15.6354 17.8006 15.1805 18.2021 14.8425L17.5579 14.0775ZM16.98 15.68H15.2V16.68H16.98V15.68Z" fill="#3837A1"/>
</svg>
