<svg width="40" height="40" viewBox="0 0 40 40" fill="none" xmlns="http://www.w3.org/2000/svg">
<ellipse cx="19.6009" cy="20" rx="19.6009" ry="20" fill="#BAD5DB"/>
<path d="M15.02 16.52C15.0733 15.0933 15.54 13.9933 16.42 13.22C17.3 12.4467 18.4933 12.06 20 12.06C21 12.06 21.8533 12.2333 22.56 12.58C23.28 12.9267 23.82 13.4 24.18 14C24.5533 14.6 24.74 15.2733 24.74 16.02C24.74 16.9 24.52 17.62 24.08 18.18C23.64 18.7267 23.1267 19.1 22.54 19.3V19.38C23.3 19.6333 23.9 20.0533 24.34 20.64C24.78 21.2267 25 21.98 25 22.9C25 23.7267 24.8067 24.46 24.42 25.1C24.0467 25.7267 23.4933 26.22 22.76 26.58C22.04 26.94 21.18 27.12 20.18 27.12C18.58 27.12 17.3 26.7267 16.34 25.94C15.3933 25.1533 14.8933 23.9667 14.84 22.38H18.16C18.1733 22.9667 18.34 23.4333 18.66 23.78C18.98 24.1133 19.4467 24.28 20.06 24.28C20.58 24.28 20.98 24.1333 21.26 23.84C21.5533 23.5333 21.7 23.1333 21.7 22.64C21.7 22 21.4933 21.54 21.08 21.26C20.68 20.9667 20.0333 20.82 19.14 20.82H18.5V18.04H19.14C19.82 18.04 20.3667 17.9267 20.78 17.7C21.2067 17.46 21.42 17.04 21.42 16.44C21.42 15.96 21.2867 15.5867 21.02 15.32C20.7533 15.0533 20.3867 14.92 19.92 14.92C19.4133 14.92 19.0333 15.0733 18.78 15.38C18.54 15.6867 18.4 16.0667 18.36 16.52H15.02Z" fill="#FFFB9F"/>
<path d="M15.02 16.52L14.6203 16.5051L14.6048 16.92H15.02V16.52ZM16.42 13.22L16.684 13.5205L16.684 13.5205L16.42 13.22ZM22.56 12.58L22.3838 12.9391L22.3865 12.9404L22.56 12.58ZM24.18 14L23.837 14.2058L23.8404 14.2113L24.18 14ZM24.08 18.18L24.3916 18.4308L24.3945 18.4271L24.08 18.18ZM22.54 19.3L22.4109 18.9214L22.14 19.0138V19.3H22.54ZM22.54 19.38H22.14V19.6683L22.4135 19.7595L22.54 19.38ZM24.34 20.64L24.66 20.4L24.34 20.64ZM24.42 25.1L24.0776 24.8931L24.0764 24.8953L24.42 25.1ZM22.76 26.58L22.5837 26.2209L22.5811 26.2222L22.76 26.58ZM16.34 25.94L16.0843 26.2477L16.0865 26.2494L16.34 25.94ZM14.84 22.38V21.98H14.4263L14.4402 22.3934L14.84 22.38ZM18.16 22.38L18.5599 22.3709L18.551 21.98H18.16V22.38ZM18.66 23.78L18.366 24.0514L18.3714 24.057L18.66 23.78ZM21.26 23.84L20.9709 23.5635L20.9707 23.5638L21.26 23.84ZM21.08 21.26L20.8435 21.5826L20.8495 21.587L20.8557 21.5912L21.08 21.26ZM18.5 20.82H18.1V21.22H18.5V20.82ZM18.5 18.04V17.64H18.1V18.04H18.5ZM20.78 17.7L20.9723 18.0507L20.9761 18.0486L20.78 17.7ZM21.02 15.32L21.3028 15.0372L21.3028 15.0372L21.02 15.32ZM18.78 15.38L18.4715 15.1252L18.465 15.1335L18.78 15.38ZM18.36 16.52V16.92H18.7263L18.7585 16.5552L18.36 16.52ZM15.4197 16.5349C15.4699 15.1923 15.9041 14.2059 16.684 13.5205L16.156 12.9195C15.1759 13.7808 14.6768 14.9944 14.6203 16.5051L15.4197 16.5349ZM16.684 13.5205C17.4721 12.8279 18.562 12.46 20 12.46V11.66C18.4247 11.66 17.1279 12.0654 16.156 12.9195L16.684 13.5205ZM20 12.46C20.955 12.46 21.7448 12.6256 22.3838 12.9391L22.7362 12.2209C21.9619 11.8411 21.045 11.66 20 11.66V12.46ZM22.3865 12.9404C23.0464 13.2581 23.5227 13.6819 23.837 14.2058L24.523 13.7942C24.1173 13.1181 23.5136 12.5952 22.7335 12.2196L22.3865 12.9404ZM23.8404 14.2113C24.172 14.7442 24.34 15.3436 24.34 16.02H25.14C25.14 15.2031 24.9347 14.4558 24.5196 13.7887L23.8404 14.2113ZM24.34 16.02C24.34 16.832 24.1381 17.4587 23.7655 17.9329L24.3945 18.4271C24.9019 17.7813 25.14 16.968 25.14 16.02H24.34ZM23.7684 17.9292C23.3695 18.4248 22.9167 18.749 22.4109 18.9214L22.6691 19.6786C23.3366 19.451 23.9105 19.0285 24.3916 18.4308L23.7684 17.9292ZM22.14 19.3V19.38H22.94V19.3H22.14ZM22.4135 19.7595C23.1038 19.9896 23.6333 20.3645 24.02 20.88L24.66 20.4C24.1667 19.7422 23.4962 19.2771 22.6665 19.0005L22.4135 19.7595ZM24.02 20.88C24.3961 21.3815 24.6 22.0442 24.6 22.9H25.4C25.4 21.9158 25.1639 21.0719 24.66 20.4L24.02 20.88ZM24.6 22.9C24.6 23.6617 24.4227 24.322 24.0776 24.8932L24.7624 25.3068C25.1906 24.598 25.4 23.7917 25.4 22.9H24.6ZM24.0764 24.8953C23.7473 25.4476 23.2561 25.8908 22.5837 26.2209L22.9363 26.9391C23.7305 26.5492 24.346 26.0058 24.7636 25.3047L24.0764 24.8953ZM22.5811 26.2222C21.9285 26.5485 21.1326 26.72 20.18 26.72V27.52C21.2274 27.52 22.1515 27.3315 22.9389 26.9378L22.5811 26.2222ZM20.18 26.72C18.6453 26.72 17.4635 26.3435 16.5935 25.6306L16.0865 26.2494C17.1365 27.1098 18.5147 27.52 20.18 27.52V26.72ZM16.5956 25.6324C15.7607 24.9385 15.2905 23.8743 15.2398 22.3666L14.4402 22.3934C14.4962 24.059 15.026 25.3681 16.0844 26.2476L16.5956 25.6324ZM14.84 22.78H18.16V21.98H14.84V22.78ZM17.7601 22.3891C17.7751 23.0485 17.965 23.6168 18.3661 24.0513L18.9539 23.5087C18.715 23.2499 18.5716 22.8848 18.5599 22.3709L17.7601 22.3891ZM18.3714 24.057C18.7892 24.4922 19.3749 24.68 20.06 24.68V23.88C19.5185 23.88 19.1708 23.7345 18.9486 23.503L18.3714 24.057ZM20.06 24.68C20.6568 24.68 21.174 24.5094 21.5493 24.1162L20.9707 23.5638C20.786 23.7573 20.5032 23.88 20.06 23.88V24.68ZM21.5491 24.1165C21.9251 23.7233 22.1 23.2184 22.1 22.64H21.3C21.3 23.0483 21.1816 23.3433 20.9709 23.5635L21.5491 24.1165ZM22.1 22.64C22.1 21.9092 21.8582 21.304 21.3043 20.9288L20.8557 21.5912C21.1285 21.776 21.3 22.0908 21.3 22.64H22.1ZM21.3165 20.9374C20.8118 20.5673 20.0586 20.42 19.14 20.42V21.22C20.008 21.22 20.5482 21.3661 20.8435 21.5826L21.3165 20.9374ZM19.14 20.42H18.5V21.22H19.14V20.42ZM18.9 20.82V18.04H18.1V20.82H18.9ZM18.5 18.44H19.14V17.64H18.5V18.44ZM19.14 18.44C19.8594 18.44 20.4797 18.3209 20.9723 18.0507L20.5877 17.3493C20.2536 17.5325 19.7806 17.64 19.14 17.64V18.44ZM20.9761 18.0486C21.559 17.7208 21.82 17.1461 21.82 16.44H21.02C21.02 16.9339 20.8544 17.1992 20.5839 17.3514L20.9761 18.0486ZM21.82 16.44C21.82 15.8843 21.6636 15.3979 21.3028 15.0372L20.7372 15.6028C20.9098 15.7754 21.02 16.0357 21.02 16.44H21.82ZM21.3028 15.0372C20.9442 14.6785 20.4661 14.52 19.92 14.52V15.32C20.3073 15.32 20.5625 15.4282 20.7372 15.6028L21.3028 15.0372ZM19.92 14.52C19.3294 14.52 18.8209 14.7024 18.4716 15.1252L19.0884 15.6348C19.2458 15.4443 19.4973 15.32 19.92 15.32V14.52ZM18.465 15.1335C18.1697 15.5107 18.0072 15.9677 17.9615 16.4848L18.7585 16.5552C18.7928 16.1656 18.9103 15.8626 19.095 15.6265L18.465 15.1335ZM18.36 16.12H15.02V16.92H18.36V16.12Z" fill="#3837A1"/>
</svg>
