<svg width="40" height="40" viewBox="0 0 40 40" fill="none" xmlns="http://www.w3.org/2000/svg">
<ellipse cx="19.6009" cy="20" rx="19.6009" ry="20" fill="#BAD5DB"/>
<path d="M25.678 10.5556V10.8056H25.928H28.4835C29.751 10.8056 30.7891 11.8436 30.7891 13.1111V14.3889C30.7891 17.5171 28.4336 20.0721 25.3985 20.4531L25.2551 20.4711L25.1991 20.6043C24.4257 22.4457 22.7678 23.8333 20.7672 24.2383L20.5668 24.2789V24.4833V28.4444V28.6944H20.8168H24.6502C25.2149 28.6944 25.678 29.1575 25.678 29.7222C25.678 30.2869 25.2149 30.75 24.6502 30.75H14.428C13.8632 30.75 13.4002 30.2869 13.4002 29.7222C13.4002 29.1575 13.8632 28.6944 14.428 28.6944H18.2613H18.5113V28.4444V24.4833V24.2789L18.3109 24.2383C16.3104 23.8333 14.6524 22.4457 13.879 20.6043L13.823 20.4711L13.6796 20.4531C10.6445 20.0721 8.28906 17.5171 8.28906 14.3889V13.1111C8.28906 11.8436 9.32713 10.8056 10.5946 10.8056H13.1502H13.4002V10.5556V9.27778C13.4002 8.71307 13.8632 8.25 14.428 8.25H24.6502C25.2149 8.25 25.678 8.71307 25.678 9.27778V10.5556ZM10.5946 12.8611H10.3446V13.1111V14.3889C10.3446 16.1614 11.4898 17.6569 13.0651 18.2273L13.4002 18.3486V17.9922V13.1111V12.8611H13.1502H10.5946ZM25.678 17.9922V18.3486L26.0131 18.2273C27.5883 17.6569 28.7335 16.1614 28.7335 14.3889V13.1111V12.8611H28.4835H25.928H25.678V13.1111V17.9922Z" fill="#FFFB9F" stroke="#3837A1" stroke-width="0.5"/>
</svg>
