<svg width="40" height="40" viewBox="0 0 40 40" fill="none" xmlns="http://www.w3.org/2000/svg">
<ellipse cx="19.6009" cy="20" rx="19.6009" ry="20" fill="#BAD5DB"/>
<path d="M16.3 19.16C15.0467 18.4933 14.42 17.4467 14.42 16.02C14.42 15.3 14.6067 14.6467 14.98 14.06C15.3533 13.46 15.92 12.9867 16.68 12.64C17.44 12.28 18.3733 12.1 19.48 12.1C20.5867 12.1 21.5133 12.28 22.26 12.64C23.02 12.9867 23.5867 13.46 23.96 14.06C24.3333 14.6467 24.52 15.3 24.52 16.02C24.52 16.74 24.3467 17.3667 24 17.9C23.6667 18.4333 23.2133 18.8533 22.64 19.16C23.36 19.5067 23.9133 19.9867 24.3 20.6C24.6867 21.2 24.88 21.9067 24.88 22.72C24.88 23.6667 24.64 24.4867 24.16 25.18C23.68 25.86 23.0267 26.38 22.2 26.74C21.3867 27.1 20.48 27.28 19.48 27.28C18.48 27.28 17.5667 27.1 16.74 26.74C15.9267 26.38 15.28 25.86 14.8 25.18C14.32 24.4867 14.08 23.6667 14.08 22.72C14.08 21.8933 14.2733 21.18 14.66 20.58C15.0467 19.9667 15.5933 19.4933 16.3 19.16ZM21.2 16.54C21.2 15.9933 21.04 15.5733 20.72 15.28C20.4133 14.9733 20 14.82 19.48 14.82C18.96 14.82 18.54 14.9733 18.22 15.28C17.9133 15.5867 17.76 16.0133 17.76 16.56C17.76 17.08 17.92 17.4933 18.24 17.8C18.56 18.0933 18.9733 18.24 19.48 18.24C19.9867 18.24 20.4 18.0867 20.72 17.78C21.04 17.4733 21.2 17.06 21.2 16.54ZM19.48 20.64C18.8533 20.64 18.3467 20.8133 17.96 21.16C17.5733 21.4933 17.38 21.96 17.38 22.56C17.38 23.12 17.5667 23.58 17.94 23.94C18.3267 24.3 18.84 24.48 19.48 24.48C20.12 24.48 20.62 24.3 20.98 23.94C21.3533 23.58 21.54 23.12 21.54 22.56C21.54 21.9733 21.3467 21.5067 20.96 21.16C20.5867 20.8133 20.0933 20.64 19.48 20.64Z" fill="#FFFB9F"/>
<path d="M16.3 19.16L16.4706 19.5218L17.1921 19.1815L16.4878 18.8069L16.3 19.16ZM14.98 14.06L15.3175 14.2748L15.3196 14.2713L14.98 14.06ZM16.68 12.64L16.846 13.004L16.8512 13.0015L16.68 12.64ZM22.26 12.64L22.0862 13.0004L22.094 13.0039L22.26 12.64ZM23.96 14.06L23.6204 14.2713L23.6225 14.2747L23.96 14.06ZM24 17.9L23.6646 17.682L23.6608 17.688L24 17.9ZM22.64 19.16L22.4513 18.8073L21.7569 19.1787L22.4665 19.5204L22.64 19.16ZM24.3 20.6L23.9616 20.8133L23.9638 20.8167L24.3 20.6ZM24.16 25.18L24.4868 25.4107L24.4889 25.4077L24.16 25.18ZM22.2 26.74L22.0403 26.3733L22.0381 26.3742L22.2 26.74ZM16.74 26.74L16.5781 27.1058L16.5803 27.1067L16.74 26.74ZM14.8 25.18L14.4711 25.4077L14.4732 25.4107L14.8 25.18ZM14.66 20.58L14.9962 20.7967L14.9984 20.7933L14.66 20.58ZM20.72 15.28L20.4372 15.5628L20.4433 15.569L20.4497 15.5749L20.72 15.28ZM18.22 15.28L17.9432 14.9911L17.9372 14.9972L18.22 15.28ZM18.24 17.8L17.9632 18.0889L17.9697 18.0949L18.24 17.8ZM20.72 17.78L20.4432 17.4912L20.4432 17.4912L20.72 17.78ZM17.96 21.16L18.2212 21.463L18.227 21.4578L17.96 21.16ZM17.94 23.94L17.6623 24.228L17.6674 24.2328L17.94 23.94ZM20.98 23.94L20.7023 23.652L20.6972 23.6572L20.98 23.94ZM20.96 21.16L20.6878 21.4532L20.693 21.4578L20.96 21.16ZM16.4878 18.8069C15.9148 18.502 15.5034 18.1208 15.2332 17.6695C14.9629 17.2181 14.82 16.6734 14.82 16.02H14.02C14.02 16.7933 14.1904 17.4852 14.5468 18.0805C14.9033 18.6759 15.4319 19.1513 16.1122 19.5131L16.4878 18.8069ZM14.82 16.02C14.82 15.3732 14.9865 14.7949 15.3175 14.2748L14.6425 13.8452C14.2269 14.4984 14.02 15.2268 14.02 16.02H14.82ZM15.3196 14.2713C15.6443 13.7496 16.1443 13.324 16.846 13.0039L16.514 12.2761C15.6957 12.6493 15.0624 13.1704 14.6404 13.8487L15.3196 14.2713ZM16.8512 13.0015C17.5436 12.6735 18.4147 12.5 19.48 12.5V11.7C18.332 11.7 17.3364 11.8865 16.5088 12.2785L16.8512 13.0015ZM19.48 12.5C20.5457 12.5 21.4088 12.6737 22.0863 13.0003L22.4337 12.2797C21.6179 11.8863 20.6276 11.7 19.48 11.7V12.5ZM22.094 13.0039C22.7957 13.324 23.2957 13.7496 23.6204 14.2713L24.2996 13.8487C23.8776 13.1704 23.2443 12.6493 22.426 12.2761L22.094 13.0039ZM23.6225 14.2747C23.9535 14.7949 24.12 15.3732 24.12 16.02H24.92C24.92 15.2268 24.7131 14.4984 24.2975 13.8452L23.6225 14.2747ZM24.12 16.02C24.12 16.6731 23.9637 17.2218 23.6646 17.682L24.3354 18.118C24.7296 17.5115 24.92 16.8069 24.92 16.02H24.12ZM23.6608 17.688C23.3658 18.16 22.9652 18.5324 22.4513 18.8073L22.8287 19.5127C23.4614 19.1743 23.9676 18.7066 24.3392 18.112L23.6608 17.688ZM22.4665 19.5204C23.126 19.8379 23.619 20.2699 23.9616 20.8133L24.6384 20.3867C24.2076 19.7034 23.594 19.1754 22.8135 18.7996L22.4665 19.5204ZM23.9638 20.8167C24.3032 21.3434 24.48 21.9725 24.48 22.72H25.28C25.28 21.8408 25.0701 21.0566 24.6362 20.3833L23.9638 20.8167ZM24.48 22.72C24.48 23.5957 24.2592 24.3339 23.8311 24.9523L24.4889 25.4077C25.0208 24.6394 25.28 23.7377 25.28 22.72H24.48ZM23.8332 24.9493C23.3989 25.5646 22.8057 26.04 22.0403 26.3733L22.3597 27.1067C23.2477 26.72 23.9611 26.1554 24.4868 25.4107L23.8332 24.9493ZM22.0381 26.3742C21.2817 26.709 20.4312 26.88 19.48 26.88V27.68C20.5288 27.68 21.4916 27.491 22.3619 27.1058L22.0381 26.3742ZM19.48 26.88C18.5289 26.88 17.6707 26.709 16.8997 26.3733L16.5803 27.1067C17.4626 27.491 18.4311 27.68 19.48 27.68V26.88ZM16.9019 26.3742C16.15 26.0414 15.5622 25.5661 15.1268 24.9493L14.4732 25.4107C14.9978 26.1539 15.7033 26.7186 16.5781 27.1058L16.9019 26.3742ZM15.1289 24.9523C14.7008 24.3339 14.48 23.5957 14.48 22.72H13.68C13.68 23.7377 13.9392 24.6394 14.4711 25.4077L15.1289 24.9523ZM14.48 22.72C14.48 21.9578 14.6574 21.3224 14.9962 20.7967L14.3238 20.3633C13.8892 21.0376 13.68 21.8289 13.68 22.72H14.48ZM14.9984 20.7933C15.3412 20.2495 15.8273 19.8252 16.4706 19.5218L16.1294 18.7982C15.3594 19.1614 14.7521 19.6839 14.3216 20.3667L14.9984 20.7933ZM21.6 16.54C21.6 15.9123 21.4134 15.3729 20.9903 14.9851L20.4497 15.5749C20.6666 15.7737 20.8 16.0744 20.8 16.54H21.6ZM21.0028 14.9972C20.6066 14.6009 20.0835 14.42 19.48 14.42V15.22C19.9165 15.22 20.2201 15.3458 20.4372 15.5628L21.0028 14.9972ZM19.48 14.42C18.876 14.42 18.3505 14.601 17.9432 14.9912L18.4968 15.5688C18.7295 15.3457 19.044 15.22 19.48 15.22V14.42ZM17.9372 14.9972C17.5371 15.3972 17.36 15.9364 17.36 16.56H18.16C18.16 16.0903 18.2895 15.7762 18.5028 15.5628L17.9372 14.9972ZM17.36 16.56C17.36 17.1685 17.5508 17.6936 17.9632 18.0888L18.5168 17.5112C18.2892 17.2931 18.16 16.9915 18.16 16.56H17.36ZM17.9697 18.0949C18.3756 18.467 18.8911 18.64 19.48 18.64V17.84C19.0556 17.84 18.7444 17.7197 18.5103 17.5051L17.9697 18.0949ZM19.48 18.64C20.0739 18.64 20.5915 18.4571 20.9968 18.0688L20.4432 17.4912C20.2085 17.7162 19.8995 17.84 19.48 17.84V18.64ZM20.9968 18.0688C21.4092 17.6736 21.6 17.1485 21.6 16.54H20.8C20.8 16.9715 20.6708 17.2731 20.4432 17.4912L20.9968 18.0688ZM19.48 20.24C18.7762 20.24 18.1675 20.4367 17.693 20.8622L18.227 21.4578C18.5258 21.19 18.9305 21.04 19.48 21.04V20.24ZM17.6988 20.857C17.2083 21.2799 16.98 21.8661 16.98 22.56H17.78C17.78 22.0539 17.9384 21.7067 18.2212 21.463L17.6988 20.857ZM16.98 22.56C16.98 23.219 17.2042 23.7861 17.6623 24.2279L18.2177 23.6521C17.9292 23.3739 17.78 23.021 17.78 22.56H16.98ZM17.6674 24.2328C18.1431 24.6757 18.7614 24.88 19.48 24.88V24.08C18.9186 24.08 18.5102 23.9243 18.2126 23.6472L17.6674 24.2328ZM19.48 24.88C20.1973 24.88 20.8097 24.676 21.2628 24.2228L20.6972 23.6572C20.4303 23.924 20.0427 24.08 19.48 24.08V24.88ZM21.2577 24.2279C21.7158 23.7861 21.94 23.219 21.94 22.56H21.14C21.14 23.021 20.9908 23.3739 20.7023 23.6521L21.2577 24.2279ZM21.94 22.56C21.94 21.876 21.7098 21.295 21.227 20.8622L20.693 21.4578C20.9836 21.7183 21.14 22.0706 21.14 22.56H21.94ZM21.2322 20.8669C20.7703 20.438 20.1725 20.24 19.48 20.24V21.04C20.0141 21.04 20.403 21.1887 20.6878 21.4531L21.2322 20.8669Z" fill="#3837A1"/>
</svg>
