<svg width="260" height="290" viewBox="0 0 260 290" fill="none" xmlns="http://www.w3.org/2000/svg">
<g filter="url(#filter0_d_65_1513)">
<rect x="10" y="10" width="230" height="260" rx="25" fill="#BAD5DB"/>
</g>
<path d="M100.36 224.152H93.096V243H88.712V224.152H81.448V220.28H100.36V224.152ZM100.698 236.728V226.232H104.986V235.8C104.986 237.08 105.221 238.051 105.69 238.712C106.16 239.352 106.853 239.672 107.77 239.672C108.325 239.672 108.869 239.565 109.402 239.352C109.957 239.117 110.458 238.776 110.906 238.328C111.376 237.88 111.77 237.315 112.09 236.632V226.232H116.378V238.2C116.378 238.648 116.453 238.968 116.602 239.16C116.773 239.352 117.04 239.469 117.402 239.512V243C116.976 243.064 116.613 243.107 116.314 243.128C116.037 243.171 115.781 243.192 115.546 243.192C114.778 243.192 114.149 243.021 113.658 242.68C113.189 242.317 112.912 241.827 112.826 241.208L112.73 239.864C111.984 240.995 111.024 241.859 109.85 242.456C108.677 243.032 107.386 243.32 105.978 243.32C104.25 243.32 102.938 242.765 102.042 241.656C101.146 240.525 100.698 238.883 100.698 236.728ZM130.625 242.136C130.262 242.285 129.825 242.456 129.313 242.648C128.801 242.84 128.246 242.989 127.649 243.096C127.073 243.224 126.486 243.288 125.889 243.288C125.1 243.288 124.374 243.149 123.713 242.872C123.052 242.595 122.518 242.157 122.113 241.56C121.729 240.941 121.537 240.141 121.537 239.16V229.528H119.329V226.232H121.537V220.792H125.825V226.232H129.345V229.528H125.825V237.72C125.846 238.296 126.006 238.712 126.305 238.968C126.604 239.224 126.977 239.352 127.425 239.352C127.873 239.352 128.31 239.277 128.737 239.128C129.164 238.979 129.505 238.851 129.761 238.744L130.625 242.136ZM140.415 243.32C139.049 243.32 137.823 243.096 136.735 242.648C135.647 242.179 134.719 241.539 133.951 240.728C133.204 239.917 132.628 238.989 132.223 237.944C131.817 236.899 131.615 235.8 131.615 234.648C131.615 233.475 131.817 232.365 132.223 231.32C132.628 230.275 133.204 229.347 133.951 228.536C134.719 227.725 135.647 227.096 136.735 226.648C137.823 226.179 139.049 225.944 140.415 225.944C141.78 225.944 142.996 226.179 144.063 226.648C145.151 227.096 146.079 227.725 146.847 228.536C147.615 229.347 148.191 230.275 148.575 231.32C148.98 232.365 149.183 233.475 149.183 234.648C149.183 235.8 148.98 236.899 148.575 237.944C148.191 238.989 147.615 239.917 146.847 240.728C146.1 241.539 145.183 242.179 144.095 242.648C143.007 243.096 141.78 243.32 140.415 243.32ZM136.031 234.648C136.031 235.629 136.223 236.504 136.607 237.272C136.991 238.019 137.513 238.605 138.175 239.032C138.836 239.459 139.583 239.672 140.415 239.672C141.225 239.672 141.961 239.459 142.623 239.032C143.284 238.584 143.807 237.987 144.191 237.24C144.596 236.472 144.799 235.597 144.799 234.616C144.799 233.656 144.596 232.792 144.191 232.024C143.807 231.256 143.284 230.659 142.623 230.232C141.961 229.805 141.225 229.592 140.415 229.592C139.583 229.592 138.836 229.816 138.175 230.264C137.513 230.691 136.991 231.288 136.607 232.056C136.223 232.803 136.031 233.667 136.031 234.648ZM162.061 229.944C160.76 229.944 159.597 230.2 158.573 230.712C157.549 231.203 156.813 231.917 156.365 232.856V243H152.077V226.232H156.013V229.816C156.61 228.664 157.368 227.757 158.285 227.096C159.202 226.435 160.173 226.072 161.197 226.008C161.432 226.008 161.613 226.008 161.741 226.008C161.869 226.008 161.976 226.019 162.061 226.04V229.944Z" fill="black"/>
<circle cx="124.5" cy="122.5" r="74.5" fill="#9998D3"/>
<mask id="mask0_65_1513" style="mask-type:alpha" maskUnits="userSpaceOnUse" x="50" y="48" width="149" height="149">
<circle cx="124.5" cy="122.5" r="74.5" fill="#9998D3"/>
</mask>
<g mask="url(#mask0_65_1513)">
<path d="M144.649 156.385C156.394 157.562 158.65 161.012 162.321 166.401C165.992 171.791 177.224 223.049 177.224 223.049C174.27 226.69 170.449 229.494 166.128 231.19C161.807 232.885 157.131 233.416 152.551 232.731L141.662 189.455L144.649 156.385Z" fill="#FFFB9F"/>
<path d="M159.599 185.194C157.95 173.031 156.378 156.671 137.944 155.924L113.956 154.763C108.106 156.353 86.0939 164.191 86.0939 164.191L85.0671 214.177C85.0671 214.177 85.0672 252.827 85.5339 273.178C102.646 284.307 143.467 280.221 161.465 269.139C162.181 252.318 161.232 197.229 159.599 185.194Z" fill="#FAFAFA"/>
<path d="M160.967 87.5274C160.959 87.4587 160.959 87.3893 160.967 87.3207C161.102 86.4086 161.005 85.4766 160.687 84.6136C160.368 83.7507 159.838 82.9858 159.147 82.3921C157.436 81.2473 155.165 81.9946 153.251 82.7895C154.091 80.2139 154.247 77.0977 152.489 75.0786C151.587 74.2043 150.462 73.6078 149.243 73.3575C148.024 73.1073 146.76 73.2133 145.598 73.6636C143.287 74.6144 141.175 76.0066 139.375 77.7655C139.438 76.24 139.254 74.7144 138.83 73.2502C138.618 72.512 138.234 71.8373 137.711 71.2836C137.188 70.7299 136.542 70.3137 135.828 70.0705C134.132 69.8262 132.406 70.2218 130.974 71.1834C126.852 73.282 122.294 76.5254 117.798 77.3998C113.134 78.3374 108.665 80.0965 104.59 82.5987C103.432 83.273 102.421 84.1819 101.619 85.2697C100.617 86.882 100.168 88.7894 100.343 90.6912C100.394 91.3183 100.493 91.9403 100.639 92.5514C100.273 92.1503 99.841 91.8168 99.3634 91.5657C98.815 91.2927 98.2182 91.1359 97.6089 91.1046C96.9997 91.0733 96.3906 91.1681 95.8181 91.3834C95.2456 91.5988 94.7216 91.9301 94.2776 92.3576C93.8335 92.7851 93.4786 93.2998 93.2341 93.871L98.9278 96.7487C97.305 97.1182 95.8329 97.9897 94.712 99.2448C91.8652 102.425 93.8097 111.964 97.8233 121.328C97.8233 121.328 103.735 135.748 105.15 138.594C106.799 141.885 107.997 144.652 107.997 144.652L107.453 134.238L117.145 133.348C119.94 132.871 122.778 132.716 125.607 132.887C128.282 133.022 130.916 132.17 133.028 130.486C137.611 127.495 141.987 124.186 146.126 120.581C148.828 118.37 151.215 115.785 153.22 112.902C155.222 109.992 156.224 106.487 156.067 102.933C155.78 101.427 155.78 99.8772 156.067 98.3704C156.597 97.1276 157.34 95.9915 158.261 95.0157C159.857 92.8421 160.798 90.2396 160.967 87.5274Z" fill="#263238"/>
<path d="M127.147 99.7694C124.939 99.4584 122.752 99.0071 120.598 98.4181L120.007 98.2591C119.204 100.751 117.776 102.984 115.865 104.736C113.955 106.488 111.628 107.697 109.117 108.244C109.922 112.408 110.022 116.684 109.413 120.883C109.271 121.781 108.954 122.641 108.48 123.411C108.237 123.792 107.917 124.116 107.541 124.36C107.165 124.604 106.743 124.763 106.302 124.826C105.119 124.826 104.621 124.174 104.264 123.236C103.731 122.011 103.124 120.821 102.444 119.675C102.143 119.18 101.788 118.721 101.386 118.307C99.5656 116.606 94.1986 114.508 91.7095 120.358C89.2205 126.209 93.8719 134.413 98.2122 135.653C105.664 137.768 107.282 132.585 107.282 132.585L108.713 159.787C115.309 166.847 137.026 164.398 132.717 158.277L132.437 149.994C135.744 150.42 139.087 150.484 142.408 150.185C147.822 149.135 150.498 144.445 151.945 138.388C154.294 128.642 153.982 110.088 153.251 102.758C153.055 100.139 152.686 97.5364 152.147 94.968C152.38 95.6993 147.029 97.8775 146.438 98.1477C144.018 98.9536 141.519 99.4867 138.986 99.7376C136.05 100.034 133.099 100.141 130.15 100.056C129.145 100.015 128.143 99.9191 127.147 99.7694Z" fill="#B16668"/>
<path d="M101.277 141.202C100.615 141.298 99.9406 141.248 99.2993 141.055C98.6581 140.862 98.0649 140.53 97.56 140.082C97.055 139.635 96.6501 139.081 96.3726 138.46C96.095 137.838 95.9514 137.163 95.9514 136.48C95.9514 135.797 96.095 135.121 96.3726 134.5C96.6501 133.878 97.055 133.325 97.56 132.877C98.0649 132.429 98.6581 132.098 99.2993 131.905C99.9406 131.711 100.615 131.661 101.277 131.758C101.483 131.758 101.681 131.842 101.827 131.991C101.973 132.14 102.055 132.342 102.055 132.553C102.055 132.764 101.973 132.966 101.827 133.115C101.681 133.264 101.483 133.348 101.277 133.348C100.661 133.348 100.06 133.534 99.5482 133.884C99.0366 134.233 98.6377 134.73 98.4023 135.311C98.1668 135.892 98.1052 136.531 98.2252 137.148C98.3453 137.765 98.6416 138.331 99.0767 138.776C99.5119 139.221 100.066 139.523 100.67 139.646C101.273 139.769 101.899 139.706 102.467 139.465C103.036 139.224 103.522 138.817 103.864 138.294C104.206 137.771 104.388 137.156 104.388 136.527C104.392 136.326 104.472 136.135 104.611 135.992C104.75 135.85 104.938 135.768 105.135 135.764C105.233 135.764 105.33 135.784 105.421 135.822C105.511 135.861 105.593 135.917 105.663 135.988C105.732 136.059 105.787 136.143 105.825 136.235C105.862 136.328 105.881 136.427 105.881 136.527C105.857 137.765 105.364 138.944 104.504 139.817C103.645 140.689 102.488 141.185 101.277 141.202Z" fill="#37474F"/>
<path d="M132.499 149.978C132.499 149.978 120.303 147.943 116.04 145.717C113.512 144.47 111.409 142.476 110.004 139.993C110.721 142.504 111.927 144.84 113.551 146.862C116.771 150.82 132.67 153.221 132.67 153.221L132.499 149.978Z" fill="#9A4A4D"/>
<path d="M129.387 118.244C129.384 118.7 129.25 119.144 129.001 119.522C128.752 119.9 128.4 120.195 127.988 120.37C127.577 120.545 127.124 120.593 126.686 120.506C126.248 120.42 125.845 120.204 125.527 119.885C125.208 119.566 124.989 119.158 124.895 118.713C124.802 118.267 124.839 117.803 125.002 117.379C125.165 116.955 125.446 116.589 125.811 116.327C126.176 116.066 126.608 115.919 127.054 115.907C127.358 115.9 127.661 115.956 127.943 116.071C128.226 116.185 128.484 116.357 128.701 116.574C128.919 116.792 129.091 117.052 129.209 117.338C129.327 117.625 129.387 117.933 129.387 118.244Z" fill="#263238"/>
<path d="M127.132 106.733L121.454 108.514C121.234 107.721 121.323 106.872 121.703 106.145C122.083 105.419 122.724 104.871 123.492 104.618C123.867 104.506 124.26 104.471 124.648 104.517C125.036 104.563 125.412 104.688 125.751 104.886C126.091 105.083 126.388 105.348 126.626 105.666C126.863 105.983 127.035 106.346 127.132 106.733Z" fill="#263238"/>
<path d="M128.174 133.872L136.528 136.766C136.367 137.339 136.094 137.873 135.727 138.335C135.359 138.798 134.904 139.181 134.388 139.46C133.873 139.739 133.308 139.909 132.726 139.959C132.145 140.01 131.56 139.941 131.006 139.755C129.887 139.33 128.971 138.484 128.444 137.39C127.918 136.295 127.821 135.037 128.174 133.872Z" fill="#9A4A4D"/>
<path d="M151.556 107.751L145.784 106.972C145.826 106.588 145.943 106.218 146.128 105.882C146.314 105.546 146.564 105.253 146.863 105.018C147.162 104.783 147.505 104.613 147.87 104.517C148.235 104.421 148.616 104.401 148.989 104.46C149.751 104.559 150.446 104.959 150.925 105.573C151.405 106.187 151.631 106.969 151.556 107.751Z" fill="#263238"/>
<path d="M116.04 109.786L96.9834 116.463C98.0524 116.477 99.1039 116.742 100.056 117.238C101.009 117.735 101.836 118.449 102.475 119.325L115.978 114.078L116.04 109.786Z" fill="#37474F"/>
<path d="M150.265 117.354C150.281 117.664 150.238 117.975 150.136 118.268C150.035 118.561 149.878 118.83 149.674 119.061C149.47 119.292 149.223 119.479 148.948 119.611C148.673 119.744 148.375 119.82 148.071 119.834C147.453 119.838 146.859 119.594 146.416 119.153C145.974 118.713 145.719 118.112 145.706 117.481C145.673 117.16 145.705 116.836 145.801 116.529C145.896 116.222 146.052 115.938 146.26 115.696C146.468 115.453 146.722 115.257 147.008 115.12C147.293 114.983 147.603 114.908 147.918 114.899C148.233 114.89 148.547 114.948 148.839 115.069C149.131 115.19 149.396 115.372 149.616 115.602C149.837 115.833 150.008 116.107 150.12 116.409C150.231 116.71 150.28 117.032 150.265 117.354Z" fill="#263238"/>
<path d="M159.91 108.895L158.665 108.752C154.511 108.241 150.301 108.462 146.22 109.404C142.222 110.74 140.79 112.17 138.581 112.234C136.372 112.298 134.77 110.883 130.554 109.706C127.194 108.768 121.563 109.007 117.253 109.531L115.916 109.722C115.44 109.877 115.029 110.189 114.748 110.61C114.466 111.03 114.329 111.535 114.36 112.043C114.501 113.034 114.929 113.959 115.589 114.698C115.786 115.027 115.928 115.387 116.009 115.764C116.327 118.257 116.847 120.719 117.565 123.125C117.947 124.064 118.484 124.93 119.151 125.684C119.414 125.964 119.701 126.219 120.007 126.448L120.505 126.797C120.97 127.087 121.466 127.322 121.983 127.497H122.232L122.636 127.624L123.04 127.719C123.477 127.811 123.919 127.874 124.363 127.91H124.923H125.638C127.552 128.035 129.458 127.559 131.1 126.548C132.743 125.537 134.045 124.037 134.832 122.25C136.248 119.42 135.968 115.477 138.488 115.43H138.721H138.955C140.806 115.843 140.51 119.484 141.631 122.075C142.059 123.103 142.648 124.054 143.373 124.889C143.501 125.044 143.641 125.188 143.793 125.319L144.011 125.525L144.244 125.716L144.462 125.891L144.695 126.05L144.882 126.177H145.006C145.681 126.572 146.41 126.862 147.169 127.036H147.371C148.246 127.22 149.138 127.3 150.031 127.274C151.704 127.331 153.352 126.853 154.746 125.907C156.141 124.961 157.211 123.593 157.809 121.996C158.559 119.574 159.126 117.097 159.505 114.587C159.585 114.223 159.751 113.885 159.987 113.601C160.639 112.823 161.056 111.867 161.185 110.851C161.325 110.04 160.594 108.975 159.91 108.895ZM133.463 119.834C133.154 121.294 132.479 122.647 131.503 123.761C130.723 124.565 129.784 125.189 128.748 125.593C127.712 125.996 126.604 126.168 125.498 126.098C124.402 126.181 123.302 125.973 122.307 125.494C121.312 125.015 120.456 124.281 119.82 123.363L119.649 123.093L119.478 122.807C119.427 122.727 119.386 122.642 119.354 122.552C119.354 122.473 119.276 122.393 119.229 122.33L119.151 122.139C119.129 122.084 119.103 122.031 119.074 121.98L118.965 121.694C118.856 121.408 118.778 121.137 118.7 120.883C118.7 120.724 118.607 120.565 118.576 120.406C118.545 120.247 118.451 119.85 118.405 119.611C118.397 119.564 118.397 119.515 118.405 119.468V119.325C118.016 117.369 117.58 113.538 118.545 112.647C119.509 111.757 121.998 110.819 126.058 111.153H126.494C127.115 111.216 127.733 111.311 128.345 111.439L129.061 111.614C129.672 111.777 130.275 111.973 130.865 112.202L131.41 112.425L132.001 112.711H132.125L132.343 112.838C132.811 113.076 133.22 113.418 133.541 113.84C134.272 115.112 133.992 117.64 133.479 119.834H133.463ZM157.218 118.562C156.876 120.152 156.145 123.331 153.267 124.921C152.332 125.395 151.308 125.655 150.264 125.684C149.102 125.828 147.924 125.642 146.859 125.145C145.794 124.649 144.884 123.861 144.228 122.87L144.12 122.695L143.995 122.489C144 122.452 144 122.414 143.995 122.377L143.855 122.075C143.797 121.956 143.745 121.834 143.7 121.71C143.664 121.656 143.638 121.597 143.622 121.535C143.622 121.535 143.622 121.535 143.622 121.439V121.296C143.631 121.26 143.631 121.222 143.622 121.185C143.465 120.707 143.34 120.218 143.248 119.722C142.875 117.56 142.704 115.032 143.482 113.808C144.26 112.584 147.309 111.232 150.202 110.803C150.876 110.708 151.499 110.644 152.069 110.612H153.718H154.231L155.165 110.771H155.383H155.523H155.756L156.02 110.867L156.456 111.042H156.534C156.901 111.19 157.238 111.405 157.529 111.678C158.229 112.727 157.669 116.59 157.234 118.562H157.218Z" fill="#37474F"/>
<path d="M137.819 115.764L138.255 131.965L147.153 129.341L138.908 115.636C138.541 115.585 138.166 115.629 137.819 115.764Z" fill="#9A4A4D"/>
<path d="M162.508 200.409C161.87 185.003 160.703 171.394 155.087 164.16C149.471 156.926 146.453 155.543 133.137 155.765V156.703C133.89 156.752 134.622 156.978 135.275 157.364C135.928 157.75 136.485 158.286 136.902 158.929C141.502 166.045 144.962 173.864 147.153 182.094C151.011 197.07 151.665 230.505 151.82 248.519C151.976 266.532 151.82 281.032 151.82 281.032C151.82 281.032 160.734 278.917 163.488 274.354C163.566 274.354 163.146 215.735 162.508 200.409Z" fill="#BA68C8"/>
<path opacity="0.1" d="M162.508 200.409C161.87 185.003 160.703 171.394 155.087 164.16C149.471 156.926 146.453 155.543 133.137 155.765V156.703C133.89 156.752 134.622 156.978 135.275 157.364C135.928 157.75 136.485 158.286 136.902 158.929C141.502 166.045 144.962 173.864 147.153 182.094C151.011 197.07 151.665 230.505 151.82 248.519C151.976 266.532 151.82 281.032 151.82 281.032C151.82 281.032 160.734 278.917 163.488 274.354C163.566 274.354 163.146 215.735 162.508 200.409Z" fill="black"/>
<path opacity="0.6" d="M162.508 200.409C161.87 185.003 160.703 171.394 155.087 164.16C149.471 156.926 146.453 155.543 133.137 155.765V156.703C133.89 156.752 134.622 156.978 135.275 157.364C135.928 157.75 136.485 158.286 136.902 158.929C141.502 166.045 144.962 173.864 147.153 182.094C151.011 197.07 151.665 230.505 151.82 248.519C151.976 266.532 151.82 281.032 151.82 281.032C151.82 281.032 160.734 278.917 163.488 274.354C163.566 274.354 163.146 215.735 162.508 200.409Z" fill="#F2EC59"/>
<path d="M116.491 175.798C114.609 167.594 110.502 159.899 108.713 155.67L86.1092 163.953C79.9799 166.847 78.1598 170.185 78.7509 177.054L83.1068 227.532L84.5069 276.087C94.0119 291.191 119.758 287.646 119.758 287.646C119.758 287.646 120.567 266.151 119.649 224.607C119.151 201.315 118.918 186.275 116.491 175.798Z" fill="#BA68C8"/>
<path opacity="0.6" d="M116.491 175.798C114.609 167.594 110.502 159.899 108.713 155.67L86.1092 163.953C79.9799 166.847 78.1598 170.185 78.7509 177.054L83.1068 227.532L84.5069 276.087C94.0119 291.191 119.758 287.646 119.758 287.646C119.758 287.646 120.567 266.151 119.649 224.607C119.151 201.315 118.918 186.275 116.491 175.798Z" fill="#F2EC59"/>
<path d="M117.285 179.852C116.18 174.573 115.589 164.764 114.687 162.792C113.784 160.821 108.682 157.021 108.464 154.382L108.262 151.123C106.986 151.123 106.426 151.902 104.326 154.08C102.864 155.59 98.1812 159.422 98.1812 159.422C98.6349 162.674 99.8168 165.775 101.635 168.484C104.357 172.491 108.168 175.114 108.744 174.128C109.32 173.142 109.242 171.616 110.3 169.279C111.56 166.354 111.855 165.114 113.178 168.007C114.251 170.328 117.285 179.852 117.285 179.852Z" fill="#455A64"/>
<path d="M145.395 176.99C146.749 181.426 143.451 161.584 141.148 158.102C138.846 154.62 132.592 152.681 132.592 152.681L132.748 157.45C134.437 157.815 135.936 158.799 136.964 160.217C140.447 165.427 143.279 171.062 145.395 176.99Z" fill="#455A64"/>
<path d="M95.3967 195.305L115.216 193.604C115.216 193.604 115.822 206.466 115.822 209.837C115.822 211.951 112.524 215.449 110.067 217.786C109.293 218.516 108.32 218.987 107.278 219.138C106.236 219.288 105.174 219.111 104.233 218.629C101.293 217.039 97.3257 214.638 96.9679 212.158C96.3612 208.152 95.3967 195.305 95.3967 195.305Z" fill="#455A64"/>
<path d="M153.951 191.235H162.508C162.508 191.235 163.565 201.681 163.565 207.309C163.565 211.379 163.192 213.939 162.476 213.923C160.921 213.923 155.896 210.409 155.398 206.371C154.931 203.064 153.951 191.235 153.951 191.235Z" fill="#455A64"/>
<path d="M117.876 184.049C105.12 185.373 92.4436 187.4 79.9021 190.122L80.0266 191.553C92.5776 188.822 105.264 186.789 118.031 185.464C117.985 184.987 117.938 184.51 117.876 184.049Z" fill="#BA68C8"/>
<path d="M161.325 183.731C157.172 183.238 152.458 182.793 147.324 182.539L147.651 183.985C152.769 184.256 157.436 184.701 161.512 185.194C161.434 184.701 161.387 184.208 161.325 183.731Z" fill="#BA68C8"/>
<path d="M88.1937 163.206C83.1689 163.858 73.586 165.193 69.1369 172.443C64.6877 179.693 55.6804 208.438 54.1248 219.487C52.9114 228.248 51.4024 233.971 51.7446 241.126C51.7446 241.126 58.2472 249.552 77.1329 246.69L78.6886 239.663C78.6886 239.663 90.5271 201.999 92.0983 192.619C93.6695 183.238 94.1518 173.524 88.1937 163.206Z" fill="#FFFB9F"/>
</g>
<defs>
<filter id="filter0_d_65_1513" x="0" y="0" width="260" height="290" filterUnits="userSpaceOnUse" color-interpolation-filters="sRGB">
<feFlood flood-opacity="0" result="BackgroundImageFix"/>
<feColorMatrix in="SourceAlpha" type="matrix" values="0 0 0 0 0 0 0 0 0 0 0 0 0 0 0 0 0 0 127 0" result="hardAlpha"/>
<feOffset dx="5" dy="5"/>
<feGaussianBlur stdDeviation="7.5"/>
<feComposite in2="hardAlpha" operator="out"/>
<feColorMatrix type="matrix" values="0 0 0 0 0 0 0 0 0 0 0 0 0 0 0 0 0 0 0.15 0"/>
<feBlend mode="normal" in2="BackgroundImageFix" result="effect1_dropShadow_65_1513"/>
<feBlend mode="normal" in="SourceGraphic" in2="effect1_dropShadow_65_1513" result="shape"/>
</filter>
</defs>
</svg>
